<?xml version="1.0" encoding="iso-8859-1"?>
<!-- Generator: Adobe Illustrator 19.0.0, SVG Export Plug-In . SVG Version: 6.00 Build 0)  -->
<svg xmlns="http://www.w3.org/2000/svg" xmlns:xlink="http://www.w3.org/1999/xlink" version="1.1" id="Capa_1" x="0px" y="0px" viewBox="0 0 394.605 394.605" style="enable-background:new 0 0 394.605 394.605;" xml:space="preserve">
<g>
	<g>
		<path d="M389.632,9.954c-0.512-1.536-2.048-3.072-3.584-3.584C322.56-11.55,284.16,27.362,281.088,30.946L180.224,131.81    l-59.904,0.512c4.096-4.096,17.408-19.968,10.24-45.568c-0.512-1.536-2.048-3.072-3.584-3.584    c-27.648-7.68-44.544,9.216-46.08,10.752L25.6,149.218c-2.048,2.048-2.048,5.12,0,7.168l31.744,31.744    c1.024,1.024,2.56,1.536,3.584,1.536c1.536,0,2.56-0.512,3.584-1.536l3.072-3.072l29.696,29.696l-7.68,7.68    c-2.048,2.048-2.048,5.12,0,7.168l2.048,2.048l-11.776,11.776c-2.048,2.048-2.048,5.12,0,7.168l24.576,24.576l-33.792,33.792    c-2.048,2.048-2.048,5.12,0,7.168c1.024,1.024,2.56,1.536,3.584,1.536c1.536,0,2.56-0.512,3.584-1.536l33.792-33.792l8.192,8.192    l-71.68,72.192c-2.048,2.048-2.048,5.12,0,7.168c1.024,1.024,2.56,1.536,3.584,1.536c1.536,0,2.56-0.512,3.584-1.536    l72.192-72.192l17.92,17.92c1.024,1.024,2.56,1.536,3.584,1.536c1.536,0,2.56-0.512,3.584-1.536l11.776-11.776l2.048,2.048    c1.024,1.024,2.56,1.536,3.584,1.536c1.536,0,2.56-0.512,3.584-1.536l7.68-7.68l30.208,30.208l-3.072,3.584    c-2.048,2.048-2.048,5.12,0,7.168l31.744,31.744c1.024,1.024,2.048,1.536,3.584,1.536c1.536,0,2.56-0.512,3.584-1.536    l54.784-54.784c1.536-1.536,18.944-18.432,10.752-46.08c-0.512-1.536-2.048-3.072-3.584-3.584    c-25.6-7.168-41.472,6.144-45.568,10.24l1.024-60.928l100.352-100.352C369.664,111.33,408.064,73.442,389.632,9.954z     M121.344,92.898c3.072,14.336-2.048,24.576-5.632,29.696L91.648,98.53C96.768,94.946,107.008,89.826,121.344,92.898z     M60.928,177.378l-24.576-24.576l47.616-47.616l24.576,24.576l-4.608,4.608L60.928,177.378z M74.752,177.89l34.816-34.816    l59.904-1.024l-65.024,65.536L74.752,177.89z M148.992,304.865L91.136,247.01l8.192-8.192l57.856,57.856L148.992,304.865z     M188.416,291.554l65.536-65.536l-0.512,60.928l-34.816,34.816L188.416,291.554z M303.616,275.682    c3.072,14.336-2.048,24.576-5.632,29.696l-23.552-24.576C279.552,277.218,289.28,272.098,303.616,275.682z M266.752,287.969    l24.576,24.576l-47.616,47.616l-24.576-24.576l43.008-43.008L266.752,287.969z M169.984,295.65l-69.632-69.632l184.32-184.32    l69.632,69.632L169.984,295.65z M361.984,103.65L291.84,34.53c10.24-9.216,41.472-31.744,89.088-19.456    C393.216,63.202,370.688,93.922,361.984,103.65z"/>
	</g>
</g>
<g>
	<g>
		<path d="M307.712,88.29c-6.144-6.144-14.336-9.728-23.552-9.728c-9.216,0.512-17.408,4.096-23.552,10.24    c-12.8,12.8-12.8,33.792,0,46.592c6.656,6.656,14.848,9.728,23.552,9.728c8.704,0,16.896-3.072,23.552-9.728    c6.144-6.144,9.728-14.336,9.728-23.552C317.44,103.138,313.856,94.946,307.712,88.29z M300.032,127.714    c-8.704,8.704-23.552,8.704-32.256,0c-8.704-8.704-8.704-23.552,0-32.256c4.096-4.096,10.24-6.656,15.872-6.656    c6.144,0,11.776,2.56,15.872,6.656c5.12,4.608,7.168,10.752,7.168,16.384C306.688,117.986,304.128,123.618,300.032,127.714z"/>
	</g>
</g>
<g>
	<g>
		<path d="M295.936,99.042c-6.144-6.144-16.384-6.144-22.528,0c-2.048,2.048-2.048,5.12,0,7.168c2.048,2.048,5.12,2.048,7.168,0    c2.048-2.048,6.144-2.048,8.192,0c1.024,1.024,2.56,1.536,3.584,1.536c1.536,0,2.56-0.512,3.584-1.536    C297.984,104.162,297.984,101.09,295.936,99.042z"/>
	</g>
</g>
<g>
	<g>
		<path d="M87.552,267.49c-2.048-2.048-5.12-2.048-7.168,0l-10.752,10.752c-2.048,2.048-2.048,5.12,0,7.168    c0.512,1.024,2.048,1.536,3.584,1.536s2.56-0.512,3.584-1.536l10.752-10.752C89.6,272.609,89.6,269.537,87.552,267.49z"/>
	</g>
</g>
<g>
	<g>
		<path d="M64,321.762c-2.048-2.048-5.12-2.048-7.168,0L1.536,377.57c-2.048,2.048-2.048,5.12,0,7.168    c1.024,1.024,2.56,1.536,3.584,1.536c1.536,0,2.56-0.512,3.584-1.536l55.808-55.808C66.048,326.882,66.048,323.81,64,321.762z"/>
	</g>
</g>
<g>
	<g>
		<path d="M64,290.53c-2.048-2.048-5.12-2.048-7.168,0l-40.96,40.96c-2.048,2.048-2.048,5.12,0,7.168    c1.024,1.024,2.56,1.536,3.584,1.536c1.536,0,2.56-0.512,3.584-1.536L64,297.698C66.048,295.65,66.048,292.578,64,290.53z"/>
	</g>
</g>
<g>
	<g>
		<path d="M77.312,373.474c-2.048-2.048-5.12-2.048-7.168,0l-10.752,10.752c-2.048,2.048-2.048,5.12,0,7.168    c1.024,1.024,2.56,1.536,3.584,1.536c1.536,0,2.56-0.512,3.584-1.536l10.752-10.752C79.36,378.594,79.36,375.522,77.312,373.474z"/>
	</g>
</g>
<g>
	<g>
		<path d="M130.56,320.226c-2.048-2.048-5.12-2.048-7.168,0l-40.96,40.96c-2.048,2.048-2.048,5.12,0,7.168    c1.024,1.024,2.56,1.536,3.584,1.536c1.536,0,2.56-0.512,3.584-1.536l40.96-40.96C132.608,325.346,132.608,322.273,130.56,320.226    z"/>
	</g>
</g>
<g>
</g>
<g>
</g>
<g>
</g>
<g>
</g>
<g>
</g>
<g>
</g>
<g>
</g>
<g>
</g>
<g>
</g>
<g>
</g>
<g>
</g>
<g>
</g>
<g>
</g>
<g>
</g>
<g>
</g>
</svg>
