<?xml version="1.0" encoding="iso-8859-1"?>
<!-- Generator: Adobe Illustrator 19.0.0, SVG Export Plug-In . SVG Version: 6.00 Build 0)  -->
<svg xmlns="http://www.w3.org/2000/svg" xmlns:xlink="http://www.w3.org/1999/xlink" version="1.1" id="Capa_1" x="0px" y="0px" viewBox="0 0 362.496 362.496" style="enable-background:new 0 0 362.496 362.496;" xml:space="preserve">
<g>
	<g>
		<path d="M336.384,264.704c-2.56-1.536-5.632-0.512-7.168,2.048c-3.072,5.632-7.168,11.264-10.752,16.384    c-1.536,2.048-1.024,5.632,1.024,7.168c1.024,0.512,2.048,1.024,3.072,1.024c1.536,0,3.072-0.512,4.096-2.048    c4.096-5.632,8.192-11.776,11.776-17.408C339.456,269.312,338.944,266.24,336.384,264.704z"/>
	</g>
</g>
<g>
	<g>
		<path d="M347.136,109.056c-2.56-6.656-5.632-12.8-9.216-18.944c-1.536-2.56-4.608-3.072-7.168-2.048    c-2.56,1.536-3.072,4.608-2.048,7.168c3.072,5.632,6.144,11.776,9.216,17.92c1.024,2.048,2.56,3.072,4.608,3.072    c0.512,0,1.536,0,2.048-0.512C347.136,114.688,348.16,111.616,347.136,109.056z"/>
	</g>
</g>
<g>
	<g>
		<path d="M247.808,12.8c-6.656-2.56-13.312-4.608-19.968-6.656c-2.56-0.512-5.632,1.024-6.144,3.584    c-0.512,2.56,1.024,5.632,3.584,6.144c6.144,2.048,12.8,4.096,18.944,6.144c0.512,0,1.024,0.512,2.048,0.512    c2.048,0,4.096-1.024,4.608-3.072C251.904,16.896,250.88,13.824,247.808,12.8z"/>
	</g>
</g>
<g>
	<g>
		<path d="M357.376,175.616c-3.072,0-5.12,2.048-5.12,5.12v0.512c0,6.656-0.512,13.312-1.024,19.968    c-0.512,2.56,1.536,5.12,4.608,5.632h0.512c2.56,0,4.608-2.048,5.12-4.608c1.024-7.168,1.024-13.824,1.024-20.992v-0.512    C362.496,177.664,360.448,175.616,357.376,175.616z"/>
	</g>
</g>
<g>
	<g>
		<path d="M289.28,35.84c-5.632-4.096-11.776-8.192-17.408-11.776c-2.56-1.536-5.632-0.512-7.168,2.048s-0.512,5.632,2.048,7.168    c5.12,3.072,10.752,6.656,16.384,10.752c1.024,0.512,2.048,1.024,3.072,1.024c1.536,0,3.072-0.512,4.096-2.048    C291.84,40.96,291.328,37.376,289.28,35.84z"/>
	</g>
</g>
<g>
	<g>
		<path d="M352.768,221.696c-2.56-0.512-5.632,1.024-6.144,3.584c-1.536,6.144-3.584,12.8-6.144,18.944    c-1.024,2.56,0,5.632,3.072,6.656c0.512,0,1.024,0.512,2.048,0.512c2.048,0,4.096-1.024,4.608-3.072    c2.56-6.656,4.608-13.312,6.656-19.968C356.864,225.28,355.328,222.72,352.768,221.696z"/>
	</g>
</g>
<g>
	<g>
		<path d="M323.072,68.608c-4.608-5.632-9.216-10.752-13.824-15.872c-2.048-2.048-5.12-2.048-7.168,0    c-2.048,2.048-2.048,5.12,0,7.168c4.608,4.608,9.216,9.728,13.312,14.848c0.512,1.536,2.048,2.048,3.584,2.048    c1.024,0,2.048-0.512,3.072-1.024C324.096,74.24,324.608,70.656,323.072,68.608z"/>
	</g>
</g>
<g>
	<g>
		<path d="M16.384,225.792c-1.536-6.144-3.072-12.8-4.096-19.456c-0.512-2.56-3.072-4.608-5.632-4.096s-4.608,3.072-4.096,5.632    c1.024,7.168,2.56,13.824,4.096,20.48c0.512,2.048,2.56,3.584,5.12,3.584c0.512,0,1.024,0,1.536,0    C15.36,231.424,16.896,228.352,16.384,225.792z"/>
	</g>
</g>
<g>
	<g>
		<path d="M181.248,352.256c-6.656,0-13.312-0.512-19.456-1.024c-2.56-0.512-5.12,1.536-5.632,4.608    c-0.512,2.56,1.536,5.12,4.608,5.632c6.656,1.024,13.824,1.024,20.992,1.024c3.072,0,5.12-2.048,5.12-5.12    C186.368,354.304,184.32,352.256,181.248,352.256z"/>
	</g>
</g>
<g>
	<g>
		<path d="M137.216,346.624c-6.144-1.536-12.8-3.584-18.944-6.144c-2.56-1.024-5.632,0-6.656,3.072c-1.024,2.56,0,5.632,3.072,6.656    c6.656,2.56,13.312,4.608,19.968,6.656c0.512,0,1.024,0,1.536,0c2.048,0,4.096-1.536,5.12-3.584    C141.824,350.208,139.776,347.136,137.216,346.624z"/>
	</g>
</g>
<g>
	<g>
		<path d="M76.288,40.448c-1.536-2.048-5.12-2.56-7.168-1.024c-5.632,4.608-10.752,9.216-15.872,13.824    c-2.048,2.048-2.048,5.12,0,7.168c1.024,1.024,2.56,1.536,3.584,1.536c1.024,0.512,2.56,0,3.584-1.024    c4.608-4.608,9.728-9.216,14.848-13.312C77.312,46.08,77.824,42.496,76.288,40.448z"/>
	</g>
</g>
<g>
	<g>
		<path d="M19.456,111.616c-2.56-1.024-5.632,0-6.656,3.072c-2.56,6.656-4.608,13.312-6.656,19.968    c-0.512,3.072,1.024,5.632,3.584,6.144c0.512,0,1.024,0,1.536,0c2.048,0,4.096-1.536,5.12-3.584    c1.536-6.144,3.584-12.8,6.144-18.944C23.552,115.712,22.528,112.64,19.456,111.616z"/>
	</g>
</g>
<g>
	<g>
		<path d="M231.936,350.72c-0.512-3.584-3.584-5.12-6.144-4.096c-6.144,1.536-12.8,3.072-19.456,4.096    c-2.56,0.512-4.608,3.072-4.096,5.632s2.56,4.608,5.12,4.608h0.512c7.168-1.024,13.824-2.56,20.48-4.096    C230.912,356.352,232.96,353.28,231.936,350.72z"/>
	</g>
</g>
<g>
	<g>
		<path d="M34.304,267.264c-4.096-6.144-7.168-11.776-9.728-17.92c-1.024-2.56-4.096-3.584-6.656-2.56s-3.584,4.096-2.56,6.656    c2.56,6.656,6.144,12.8,9.728,18.944c1.024,1.536,2.56,2.56,4.608,2.56c1.024,0,1.536,0,2.56-0.512    C34.816,272.896,35.328,269.824,34.304,267.264z"/>
	</g>
</g>
<g>
	<g>
		<path d="M96.256,329.216c-5.632-3.072-11.264-7.168-16.384-10.752c-2.048-1.536-5.632-1.024-7.168,1.024    c-1.536,2.048-1.024,5.632,1.024,7.168c5.632,4.096,11.776,8.192,17.408,11.776c1.024,0.512,1.536,0.512,2.56,0.512    c1.536,0,3.584-1.024,4.608-2.56C99.328,333.824,98.304,330.752,96.256,329.216z"/>
	</g>
</g>
<g>
	<g>
		<path d="M43.008,72.192c-2.048-1.536-5.632-1.024-7.168,1.024c-4.096,5.632-8.192,11.776-11.776,17.408    c-1.024,3.072-0.512,6.144,2.048,7.168c1.024,0.512,1.536,0.512,2.56,0.512c1.536,0,3.584-1.024,4.608-2.56    c3.072-5.632,7.168-11.264,10.752-16.384C45.568,77.312,45.056,73.728,43.008,72.192z"/>
	</g>
</g>
<g>
	<g>
		<path d="M60.416,302.592c-4.608-5.12-8.704-9.728-12.8-14.848c-1.536-2.048-5.12-2.56-7.168-1.024    c-2.048,1.536-2.56,5.12-1.024,7.168c4.096,5.632,9.216,10.752,13.824,15.872c1.024,1.024,2.56,1.536,3.584,1.536    c1.536,0,2.56-0.512,3.584-1.536C62.464,307.712,62.464,304.64,60.416,302.592z"/>
	</g>
</g>
<g>
	<g>
		<path d="M160.256,6.656c-0.512-2.56-3.072-4.608-5.632-4.096c-7.168,1.024-13.824,2.56-20.48,4.096    c-2.56,0.512-4.096,3.584-3.584,6.144c0.512,2.048,2.56,3.584,4.608,3.584c0.512,0,1.024,0,1.536,0    c6.144-1.536,12.8-3.072,19.456-4.096C158.72,11.776,160.768,9.216,160.256,6.656z"/>
	</g>
</g>
<g>
	<g>
		<path d="M359.936,155.136c-1.024-7.168-2.56-13.824-4.096-20.48c-0.512-2.56-3.584-4.096-6.144-3.584    c-2.56,0-4.096,2.56-3.584,5.632c1.536,6.144,3.072,12.8,4.096,19.456c0.512,2.56,2.56,4.608,5.12,4.608h0.512    C358.4,160.256,360.448,157.696,359.936,155.136z"/>
	</g>
</g>
<g>
	<g>
		<path d="M201.728,1.024C195.072,0.512,187.904,0,181.248,0h-0.512c-3.072,0-5.12,2.048-5.12,5.12s2.56,5.12,5.12,5.12    c7.168,0,13.824,0.512,19.968,1.024h0.512c2.56,0,4.608-2.048,5.12-4.608C206.848,4.096,204.8,1.536,201.728,1.024z"/>
	</g>
</g>
<g>
	<g>
		<path d="M116.224,17.92c-1.024-2.56-4.096-3.584-6.656-2.56c-6.656,2.56-12.8,6.144-18.944,9.728    c-2.56,1.536-3.072,4.608-2.048,7.168c1.024,1.024,2.56,2.048,4.608,2.048c1.024,0,1.536,0,2.56-0.512    c5.632-3.072,11.776-6.144,17.92-9.216C116.224,23.552,117.248,20.48,116.224,17.92z"/>
	</g>
</g>
<g>
	<g>
		<path d="M6.656,156.16c-2.56-0.512-5.12,1.536-5.632,4.608C0.512,167.424,0,174.592,0,181.248c0,3.072,2.048,5.12,5.12,5.12    s5.12-2.048,5.12-5.12c0-6.656,0.512-13.312,1.024-19.456C11.776,159.232,9.728,156.672,6.656,156.16z"/>
	</g>
</g>
<g>
	<g>
		<path d="M309.248,302.592c-1.536-2.56-5.12-2.56-7.168-0.512c-4.608,4.608-9.728,9.216-14.848,13.312    c-2.048,1.536-2.56,5.12-1.024,7.168c1.024,1.024,2.56,2.048,4.096,2.048c1.024,0,2.048-0.512,3.072-1.024    c5.632-4.096,10.752-9.216,15.872-13.824C311.296,307.712,311.296,304.64,309.248,302.592z"/>
	</g>
</g>
<g>
	<g>
		<path d="M273.92,330.24c-1.536-1.536-4.608-2.56-7.168-1.024c-5.632,3.072-11.776,6.144-17.92,8.704    c-2.56,1.024-3.584,4.096-2.56,6.656c1.024,2.048,2.56,3.072,4.608,3.072c0.512,0,1.536,0,2.048-0.512    c6.656-2.56,12.8-6.144,18.944-9.728C274.432,335.872,274.944,332.8,273.92,330.24z"/>
	</g>
</g>
<g>
	<g>
		<path d="M181.248,45.568c-74.752,0-135.68,60.928-135.68,135.68s60.928,135.68,135.68,135.68    C256.512,317.44,317.44,256,317.44,181.248S256.512,45.568,181.248,45.568z M181.248,307.2c-69.12,0-125.44-56.32-125.44-125.44    s56.32-125.44,125.44-125.44s125.44,56.32,125.44,125.44C307.2,250.368,250.368,307.2,181.248,307.2z"/>
	</g>
</g>
<g>
	<g>
		<path d="M256,142.336c-13.824,0-25.088,11.264-25.088,25.088c0,13.824,11.264,25.088,25.088,25.088s25.088-11.264,25.088-25.088    C281.088,153.6,269.824,142.336,256,142.336z M256,182.272c-8.192,0-14.848-6.656-14.848-14.848s6.656-14.848,14.848-14.848    s14.848,6.656,14.848,14.848C270.848,175.616,264.192,182.272,256,182.272z"/>
	</g>
</g>
<g>
	<g>
		<path d="M217.088,81.92C203.264,81.92,192,93.184,192,107.008s11.264,25.088,25.088,25.088c13.824,0,25.088-11.264,25.088-25.088    S230.912,81.92,217.088,81.92z M217.088,121.856c-8.192,0-14.848-6.656-14.848-14.848s6.656-14.848,14.848-14.848    s14.848,6.656,14.848,14.848S225.28,121.856,217.088,121.856z"/>
	</g>
</g>
<g>
	<g>
		<path d="M134.656,220.16c-13.824,0-25.088,11.264-25.088,25.088c0,13.824,11.264,25.088,25.088,25.088    c13.824,0,25.088-11.264,25.088-25.088C159.744,231.424,148.48,220.16,134.656,220.16z M134.656,259.584    c-8.192,0-14.848-6.656-14.848-14.848c0-8.192,6.656-14.848,14.848-14.848c8.192,0,14.848,6.656,14.848,14.848    C149.504,253.44,142.848,259.584,134.656,259.584z"/>
	</g>
</g>
<g>
	<g>
		<path d="M179.2,156.16c-13.824,0-25.088,11.264-25.088,25.088c0,13.824,11.264,25.088,25.088,25.088    c13.824,0,25.088-11.264,25.088-25.088C204.288,167.424,193.024,156.16,179.2,156.16z M179.2,196.096    c-8.192,0-14.848-6.656-14.848-14.848c0-8.192,6.656-14.848,14.848-14.848s14.848,6.656,14.848,14.848    S187.392,196.096,179.2,196.096z"/>
	</g>
</g>
<g>
	<g>
		<path d="M119.296,129.024c-10.752,0-19.456,8.704-19.456,19.456c-0.512,10.752,8.192,19.456,19.456,19.456    c10.752,0,19.456-8.704,19.456-19.456S130.048,129.024,119.296,129.024z M119.296,157.696c-5.12,0-9.216-4.096-9.216-9.216    s3.584-9.216,9.216-9.216c5.12,0,9.216,4.096,9.216,9.216S124.416,157.696,119.296,157.696z"/>
	</g>
</g>
<g>
	<g>
		<path d="M96.256,181.248c-9.216,0-16.896,7.68-16.896,16.896s7.68,16.384,16.896,16.384s16.384-7.68,16.384-16.384    C112.64,188.416,105.472,181.248,96.256,181.248z M96.256,204.288c-3.584,0-6.656-3.072-6.656-6.144    c0-3.584,3.072-6.656,6.656-6.656c3.584,0,6.144,3.072,6.144,6.656C102.4,201.216,99.84,204.288,96.256,204.288z"/>
	</g>
</g>
<g>
	<g>
		<path d="M192,251.392c-10.752,0-19.456,8.704-19.456,19.456c0,10.752,8.704,19.456,19.456,19.456s19.456-8.704,19.456-19.456    S202.752,251.392,192,251.392z M192,280.576c-5.12,0-9.216-4.096-9.216-9.216s4.096-9.216,9.216-9.216s9.216,4.096,9.216,9.216    C201.216,275.968,197.12,280.576,192,280.576z"/>
	</g>
</g>
<g>
	<g>
		<path d="M242.688,209.92c-10.752,0-19.456,8.704-19.456,19.456s8.704,19.456,19.456,19.456c10.752,0,19.456-8.704,19.456-19.456    C262.144,218.624,253.44,209.92,242.688,209.92z M242.688,238.592c-5.12,0-9.216-4.096-9.216-9.216s4.096-9.216,9.216-9.216    s9.216,4.096,9.216,9.216S247.808,238.592,242.688,238.592z"/>
	</g>
</g>
<g>
	<g>
		<path d="M144.896,75.776c-10.752,0-19.456,8.704-19.456,19.456c0,10.24,8.704,19.456,19.456,19.456s19.456-8.704,19.456-19.456    S155.648,75.776,144.896,75.776z M144.896,103.936c-5.12,0-9.216-4.096-9.216-9.216s4.096-9.216,9.216-9.216    s9.216,4.096,9.216,9.216S150.016,103.936,144.896,103.936z"/>
	</g>
</g>
<g>
</g>
<g>
</g>
<g>
</g>
<g>
</g>
<g>
</g>
<g>
</g>
<g>
</g>
<g>
</g>
<g>
</g>
<g>
</g>
<g>
</g>
<g>
</g>
<g>
</g>
<g>
</g>
<g>
</g>
</svg>
