<?xml version="1.0" encoding="iso-8859-1"?>
<!-- Generator: Adobe Illustrator 19.0.0, SVG Export Plug-In . SVG Version: 6.00 Build 0)  -->
<svg xmlns="http://www.w3.org/2000/svg" xmlns:xlink="http://www.w3.org/1999/xlink" version="1.1" id="Capa_1" x="0px" y="0px" viewBox="0 0 399.872 399.872" style="enable-background:new 0 0 399.872 399.872;" xml:space="preserve">
<g>
	<g>
		<path d="M387.005,328.192l-15.36-11.264l0.512-19.456c0-2.048-1.024-3.584-2.56-4.608s-3.584-0.512-5.632,0.512l-15.872,11.264    l-17.92-6.144c-2.048-0.512-4.096,0-5.12,1.024c-1.536,1.536-2.048,3.584-1.536,5.12l6.144,18.432l-11.776,15.36    c-1.024,1.536-1.536,3.584-0.512,5.632c1.024,1.536,2.56,3.072,4.608,3.072h19.456l10.752,15.872    c1.024,1.536,2.56,2.048,4.096,2.048h0.512c2.048-0.512,3.584-1.536,4.096-3.584l6.144-18.432l18.432-5.632    c2.048-0.512,3.072-2.048,3.584-4.096C389.565,331.264,388.541,329.728,387.005,328.192z M361.405,333.824    c-1.536,0.512-3.072,1.536-3.584,3.072l-3.072,11.264l-6.656-9.728c-1.024-1.536-2.56-2.048-4.096-2.048h-11.776l7.168-9.216    c1.024-1.536,1.536-3.072,1.024-4.608l-3.584-11.264l10.752,4.096c1.536,0.512,3.584,0.512,4.608-0.512l9.216-6.656L360.893,320    c0,1.536,0.512,3.072,2.048,4.096l9.216,6.656L361.405,333.824z"/>
	</g>
</g>
<g>
	<g>
		<path d="M129.469,44.544l-15.36-11.264l0.512-19.456c0-2.048-1.024-3.584-2.56-4.608s-3.584-0.512-5.632,0.512L90.557,20.992    l-17.408-6.144c-2.048-0.512-4.096,0-5.12,1.024c-1.536,1.536-2.048,3.584-1.536,5.12l6.144,18.432l-11.776,15.36    c-1.536,1.536-1.536,4.096-1.024,5.632c1.024,1.536,2.56,3.072,4.608,3.072h19.456L94.653,79.36    c1.024,1.536,2.56,2.048,4.096,2.048h0.512c2.048-0.512,3.584-1.536,4.096-3.584l6.144-18.432l18.432-5.632    c2.048-0.512,3.072-2.048,3.584-4.096S131.005,45.568,129.469,44.544z M103.869,50.176c-1.536,0.512-3.072,1.536-3.584,3.072    l-3.584,11.264l-6.656-9.728c-1.024-1.536-2.56-2.048-4.096-2.048H74.173l7.168-9.216c1.536-1.024,2.048-2.56,1.536-4.608    l-3.584-11.264l10.752,4.096c1.536,0.512,3.584,0.512,4.608-0.512l9.216-6.656l0,11.776c0,1.536,0.512,3.072,2.048,4.096    l9.216,6.656L103.869,50.176z"/>
	</g>
</g>
<g>
	<g>
		<path d="M96.189,163.84c-1.024-1.536-3.072-2.56-4.608-2.56l-13.312,1.024l-8.192-10.24c-1.024-1.536-3.072-2.048-5.12-2.048    c-2.048,0.512-3.584,2.048-4.096,3.584l-3.072,12.8l-12.288,4.608c-2.048,0.512-3.072,2.56-3.072,4.096    c0,2.048,0.512,3.584,2.56,4.608l11.264,7.168l0.512,13.312c0,2.048,1.024,3.584,3.072,4.608c0.512,0.512,1.536,0.512,2.048,0.512    c1.024,0,2.56-0.512,3.072-1.024l10.24-8.704l12.8,4.096c2.048,0.512,4.096,0,5.12-1.536c1.536-1.536,1.536-3.584,1.024-5.12    l-5.12-12.288l7.168-11.264C97.213,167.936,97.213,165.888,96.189,163.84z M79.293,181.248l2.048,5.12l-5.12-1.536    c-2.56,0.512-4.096,0.512-5.632,2.048l-4.096,3.584v-5.632c0-1.536-1.024-3.072-2.56-4.096l-4.608-3.072l5.12-2.048    c1.536-0.512,2.56-2.048,3.072-3.584l1.536-5.632l3.584,4.096c1.024,1.536,2.56,2.048,4.608,2.048l5.632-0.512l-3.072,4.608    C78.781,178.176,78.781,179.712,79.293,181.248z"/>
	</g>
</g>
<g>
	<g>
		<path d="M152.509,374.272l-8.192-9.216l2.048-12.8c0.512-2.048-0.512-4.096-2.048-5.12s-3.584-1.536-5.632-0.512l-11.776,6.144    l-11.776-6.144c-1.536-1.024-3.584-0.512-5.632,0.512c-1.536,1.024-2.56,3.072-2.048,5.12l2.048,12.8l-9.216,9.216    c-1.536,1.536-2.048,3.584-1.536,5.12c0.512,2.048,2.048,3.072,4.096,3.584l13.312,2.048l5.632,11.776    c1.024,1.536,2.56,3.072,4.608,3.072c2.048,0,3.584-1.024,4.608-3.072l5.632-11.776l13.312-2.048    c2.048-0.512,3.584-1.536,4.096-3.584C154.557,377.344,154.045,375.296,152.509,374.272z M133.565,374.784    c-1.536,0-3.072,1.536-4.096,2.56l-2.56,5.12l-2.56-5.12c-0.512-1.536-2.048-2.56-4.096-2.56l-5.632-1.024l4.096-4.096    c1.024-1.024,1.536-3.072,1.536-4.608l-1.024-5.632l5.12,2.56c1.536,1.024,3.072,1.024,4.608,0l5.12-2.56l-1.024,5.632    c-0.512,1.536,0.512,3.584,1.536,4.608l4.096,4.096L133.565,374.784z"/>
	</g>
</g>
<g>
	<g>
		<path d="M28.605,267.264c-9.728,0-17.92,8.192-17.92,17.92c0,9.728,8.192,17.92,17.92,17.92c9.728,0,17.92-8.192,17.92-17.92    C46.525,275.456,38.333,267.264,28.605,267.264z M28.605,292.864c-4.096,0-7.68-3.584-7.68-7.68s3.584-7.68,7.68-7.68    s7.68,3.584,7.68,7.68S32.701,292.864,28.605,292.864z"/>
	</g>
</g>
<g>
	<g>
		<path d="M324.541,9.216c-9.728,0-17.92,8.192-17.92,17.92c0,9.728,8.192,17.92,17.92,17.92c9.728,0,17.92-8.192,17.92-17.92    C342.461,17.408,334.269,9.216,324.541,9.216z M324.541,34.816c-4.096,0-7.68-3.584-7.68-7.68s3.584-7.68,7.68-7.68    s7.68,3.584,7.68,7.68S328.637,34.816,324.541,34.816z"/>
	</g>
</g>
<g>
	<g>
		<path d="M275.389,347.648c-9.728,0-17.92,8.192-17.92,17.92s8.192,17.92,17.92,17.92s17.92-8.192,17.92-17.92    C292.797,355.328,285.117,347.648,275.389,347.648z M275.389,372.736c-4.096,0-7.68-3.584-7.68-7.68c0-4.096,3.584-7.68,7.68-7.68    s7.68,3.584,7.68,7.68C283.069,369.152,279.485,372.736,275.389,372.736z"/>
	</g>
</g>
<g>
	<g>
		<path d="M272.829,78.336c-2.048-2.048-5.12-2.048-7.168,0l-26.624,26.624c-2.048,2.048-2.048,5.12,0,7.168    c1.024,1.024,2.56,1.536,3.584,1.536c1.536,0,2.56-0.512,3.584-1.536l26.624-26.624C274.877,83.456,274.877,80.384,272.829,78.336    z"/>
	</g>
</g>
<g>
	<g>
		<path d="M217.021,199.168c-2.048-2.048-5.12-2.048-7.168,0L75.709,333.312c-2.048,2.048-2.048,5.12,0,7.168    c1.024,1.024,2.56,1.536,3.584,1.536c1.024,0,2.56-0.512,3.584-1.536l134.144-134.144    C219.069,204.288,219.069,201.216,217.021,199.168z"/>
	</g>
</g>
<g>
	<g>
		<path d="M375.741,110.592c-2.048-2.048-5.12-2.048-7.168,0L188.349,290.304c-2.048,2.048-2.048,5.12,0,7.168    c1.024,1.024,2.56,1.536,3.584,1.536c1.536,0,2.56-0.512,3.584-1.536L375.229,117.76    C377.277,115.712,377.277,112.64,375.741,110.592z"/>
	</g>
</g>
<g>
	<g>
		<path d="M262.589,1.536c-2.048-2.048-5.12-2.048-7.168,0L121.789,135.168c-2.048,2.048-2.048,5.12,0,7.168    c1.024,1.024,2.56,1.536,3.584,1.536c1.536,0,2.56-0.512,3.584-1.536L262.589,8.704C264.637,6.656,264.637,3.584,262.589,1.536z"/>
	</g>
</g>
<g>
	<g>
		<path d="M215.997,135.168c-2.048-2.048-5.12-2.048-7.168,0l-98.816,98.304c-2.048,2.048-2.048,5.12,0,7.168    c1.024,1.536,2.56,2.048,3.584,2.048c1.536,0,2.56-0.512,3.584-1.536l98.816-98.816    C218.045,140.288,218.045,137.216,215.997,135.168z"/>
	</g>
</g>
<g>
	<g>
		<path d="M248.253,311.808c-1.536-2.048-5.12-2.048-7.168,0l-26.624,26.624c-2.048,2.048-2.048,5.12,0,7.168    c1.024,1.024,2.56,1.536,3.584,1.536c1.536,0,2.56-0.512,3.584-1.536l26.624-26.624    C250.301,316.928,250.301,313.856,248.253,311.808z"/>
	</g>
</g>
<g>
	<g>
		<path d="M377.277,182.784c-1.536-2.048-5.12-2.048-7.168,0L271.293,281.6c-2.048,2.048-2.048,5.12,0,7.168    c1.024,1.024,2.56,1.536,3.584,1.536c1.536,0,2.56-0.512,3.584-1.536l98.816-98.816    C379.325,187.904,379.325,184.832,377.277,182.784z"/>
	</g>
</g>
<g>
	<g>
		<path d="M338.365,79.872c-2.048-2.048-5.12-2.048-7.168,0l-88.576,88.576c-2.048,2.048-2.048,5.12,0,7.168    c1.024,1.024,2.048,1.536,3.584,1.536c1.536,0,2.56-0.512,3.584-1.536l88.576-88.576C340.413,84.992,340.413,81.92,338.365,79.872    z"/>
	</g>
</g>
<g>
</g>
<g>
</g>
<g>
</g>
<g>
</g>
<g>
</g>
<g>
</g>
<g>
</g>
<g>
</g>
<g>
</g>
<g>
</g>
<g>
</g>
<g>
</g>
<g>
</g>
<g>
</g>
<g>
</g>
</svg>
