<?xml version="1.0" encoding="iso-8859-1"?>
<!-- Generator: Adobe Illustrator 19.0.0, SVG Export Plug-In . SVG Version: 6.00 Build 0)  -->
<svg xmlns="http://www.w3.org/2000/svg" xmlns:xlink="http://www.w3.org/1999/xlink" version="1.1" id="Capa_1" x="0px" y="0px" viewBox="0 0 426.496 426.496" style="enable-background:new 0 0 426.496 426.496;" xml:space="preserve">
<g>
	<g>
		<path d="M282.112,198.912c1.024,1.024,2.56,1.536,3.584,1.536c1.536,0,2.56-0.512,3.584-1.536l135.68-135.68    c2.048-2.048,2.048-5.12,0-7.168L369.664,1.792c-2.048-2.048-5.12-2.048-7.168,0l-135.68,135.68c-2.048,2.048-2.048,5.12,0,7.168    l23.552,23.552l-7.168,7.168l-40.96-41.472c-2.048-2.048-5.12-2.048-7.168,0l-26.624,26.624l-5.12-5.12    c24.576-24.576,24.576-64.512,0-89.088c-2.048-2.048-5.12-2.048-7.168,0l-40.96,40.96l-8.192-8.192    c1.024-2.048,1.536-4.096,1.536-6.656c0-4.096-1.536-8.192-4.608-10.752c-6.144-6.144-15.872-6.144-21.504,0    c-3.072,3.072-4.608,6.656-4.608,10.752s1.536,8.192,4.608,10.752c3.072,3.072,7.168,4.608,10.752,4.608    c2.048,0,4.608-0.512,6.656-1.536l8.192,8.192l-40.96,40.96c-1.024,1.024-1.536,2.048-1.536,3.584s0.512,2.56,1.536,3.584    c12.288,12.288,28.16,18.432,44.544,18.432c15.872,0,32.256-6.144,44.544-18.432l5.12,5.12l-26.624,26.624    c-1.024,1.024-1.536,2.048-1.536,3.584s0.512,2.56,1.536,3.584l41.472,41.472l-7.68,7.68l-23.552-23.552    c-2.048-2.048-5.12-2.048-7.168,0L1.536,362.752c-2.048,2.048-2.048,5.12,0,7.168l54.784,54.784    c1.024,1.024,2.048,1.536,3.584,1.536s2.56-0.512,3.584-1.536L199.68,288.512c1.024-1.024,1.536-2.048,1.536-3.584    s-0.512-2.56-1.536-3.584l-23.552-23.552l7.68-7.68l87.04,87.04c9.216,9.216,20.992,13.824,33.792,13.824    c12.8,0,24.576-5.12,33.792-13.824c18.432-18.432,18.432-48.64,0-67.584l-87.04-87.04l7.168-7.168L282.112,198.912z M96.768,96    c-2.048,2.048-5.12,2.048-7.168,0c-1.024-1.024-1.536-2.048-1.536-3.584c0-1.536,0.512-2.56,1.536-3.584s2.048-1.536,3.584-1.536    s2.56,0.512,3.584,1.536C98.816,90.88,98.816,93.952,96.768,96z M141.312,237.312l19.968,19.968l-19.968,19.968l-19.968-19.968    L141.312,237.312z M114.688,264.448l19.968,19.968l-19.968,19.968L94.72,284.416L114.688,264.448z M87.04,291.584l19.968,19.968    L87.04,331.52l-19.968-19.968L87.04,291.584z M59.904,318.72l19.968,19.968l-19.968,19.968l-19.968-19.968L59.904,318.72z     M11.776,366.848l20.992-20.992l19.968,19.968l-20.992,20.992L11.776,366.848z M59.904,413.952l-20.48-19.968l20.992-20.992    l19.968,19.968L59.904,413.952z M87.552,385.792l-19.968-19.968l19.968-19.968l19.968,19.968L87.552,385.792z M114.688,359.168    l-19.968-20.48l19.968-19.968l19.968,19.968L114.688,359.168z M141.824,332.032l-19.968-19.968l19.968-19.968l19.968,19.968    L141.824,332.032z M188.928,284.928l-19.968,19.968l-19.968-19.968l19.968-19.968L188.928,284.928z M285.184,188.672    l-19.968-19.968l20.48-20.48l19.968,19.968L285.184,188.672z M313.344,160.512l-19.968-19.968l19.456-19.456l19.968,19.968    L313.344,160.512z M339.968,133.888L320,113.408l19.456-19.456l19.968,19.968L339.968,133.888z M367.104,106.752l-20.48-19.968    l19.456-19.456l19.968,19.968L367.104,106.752z M413.184,60.16l-19.456,19.456L373.76,59.648l19.456-19.456L413.184,60.16z     M366.08,12.544l19.968,19.968l-19.456,19.456L346.624,32L366.08,12.544z M338.944,39.68l19.968,19.968l-19.456,19.456    l-19.968-19.968L338.944,39.68z M312.32,66.304l19.968,19.968l-19.456,19.456L292.864,85.76L312.32,66.304z M285.184,93.44    l19.968,19.968l-19.456,19.456l-19.968-19.968L285.184,93.44z M155.648,148.736l-6.656,6.656    c-18.944,19.456-49.664,20.48-70.656,3.584l80.896-80.896C176.128,98.56,175.104,129.28,155.648,148.736z M330.24,277.248    c14.848,14.336,14.848,37.888,0.512,52.736c-7.168,7.168-16.384,10.752-26.624,10.752s-19.456-4.096-26.624-10.752    L145.408,197.888l52.736-52.736L330.24,277.248z M237.568,141.056l20.48-20.48l19.968,19.968l-20.48,20.48L237.568,141.056z"/>
	</g>
</g>
<g>
</g>
<g>
</g>
<g>
</g>
<g>
</g>
<g>
</g>
<g>
</g>
<g>
</g>
<g>
</g>
<g>
</g>
<g>
</g>
<g>
</g>
<g>
</g>
<g>
</g>
<g>
</g>
<g>
</g>
</svg>
