<?xml version="1.0" encoding="iso-8859-1"?>
<!-- Generator: Adobe Illustrator 19.0.0, SVG Export Plug-In . SVG Version: 6.00 Build 0)  -->
<svg xmlns="http://www.w3.org/2000/svg" xmlns:xlink="http://www.w3.org/1999/xlink" version="1.1" id="Capa_1" x="0px" y="0px" viewBox="0 0 370.659 370.659" style="enable-background:new 0 0 370.659 370.659;" xml:space="preserve">
<g>
	<g>
		<path d="M367.786,89.795c-8.704-17.408-36.864-23.552-79.872-17.408C243.37,32.451,177.322,21.699,120.49,49.859    c-36.352,17.92-62.976,48.64-75.776,87.04c-6.656,19.456-9.216,39.936-7.68,59.904c-30.72,30.72-43.008,56.832-34.304,74.24    c6.656,13.824,25.088,20.48,51.2,20.48c7.68,0,15.872-0.512,25.088-1.536c16.384,17.408,36.864,30.208,60.416,38.4    c15.872,5.12,32.256,8.192,48.128,8.192c23.04,0,45.568-5.12,67.072-15.872c60.416-29.696,91.648-94.72,81.92-158.208    C365.226,132.803,376.49,107.203,367.786,89.795z M11.434,265.923c-5.632-11.776,4.096-32.768,26.624-56.32    c2.56,14.336,7.168,28.672,13.824,41.984c5.12,10.24,11.264,19.968,18.432,28.672C39.082,283.331,17.578,278.211,11.434,265.923z     M61.098,246.467c-16.384-33.28-18.944-71.168-7.168-107.008c11.776-35.84,37.376-64.512,70.656-80.896    c19.968-9.728,41.472-14.848,61.952-14.848c51.712,0,101.888,28.672,126.464,78.336c5.632,11.776,9.728,24.064,12.288,35.84    c-27.648,27.136-67.584,53.76-113.152,76.288c-49.664,24.576-94.208,38.912-129.536,44.032    C74.41,268.995,66.73,258.243,61.098,246.467z M249.514,310.467c-33.792,16.896-71.68,19.456-107.52,7.168    c-19.456-6.656-36.864-16.896-51.2-30.72c36.352-6.656,79.872-20.992,125.44-43.52c44.032-21.504,82.944-47.104,111.104-72.704    C332.97,227.011,303.274,283.843,249.514,310.467z M322.218,117.955c-6.656-13.824-15.36-25.6-25.088-36.352    c32.768-3.584,55.296,1.024,61.44,12.8c5.632,12.288-3.072,32.256-24.576,55.296C331.434,138.947,327.85,128.195,322.218,117.955z    "/>
	</g>
</g>
<g>
	<g>
		<path d="M127.146,91.331c-1.536-2.56-4.608-3.072-7.168-2.048c-33.792,19.456-51.712,57.856-44.032,95.744    c0,3.072,2.048,4.608,4.608,4.608c0.512,0,0.512,0,1.024,0c2.56-0.512,4.608-3.072,4.096-6.144    c-6.656-33.792,9.216-68.096,39.424-84.992C127.658,96.963,128.17,93.891,127.146,91.331z"/>
	</g>
</g>
<g>
</g>
<g>
</g>
<g>
</g>
<g>
</g>
<g>
</g>
<g>
</g>
<g>
</g>
<g>
</g>
<g>
</g>
<g>
</g>
<g>
</g>
<g>
</g>
<g>
</g>
<g>
</g>
<g>
</g>
</svg>
