<?xml version="1.0" encoding="iso-8859-1"?>
<!-- Generator: Adobe Illustrator 19.0.0, SVG Export Plug-In . SVG Version: 6.00 Build 0)  -->
<svg xmlns="http://www.w3.org/2000/svg" xmlns:xlink="http://www.w3.org/1999/xlink" version="1.1" id="Capa_1" x="0px" y="0px" viewBox="0 0 397.312 397.312" style="enable-background:new 0 0 397.312 397.312;" xml:space="preserve">
<g>
	<g>
		<path d="M146.944,163.328c-4.096-4.096-10.24-6.656-16.384-6.656c-6.144,0-12.288,2.56-16.384,6.656    c-4.608,4.608-6.656,10.24-6.656,16.384s2.56,12.288,6.656,16.384c4.608,4.608,10.24,6.656,16.384,6.656    c6.144,0,12.288-2.56,16.384-6.656c4.608-4.608,6.656-10.24,6.656-16.384S151.04,167.424,146.944,163.328z M140.288,189.44    c-2.56,2.56-5.632,4.096-9.216,4.096c-3.584,0-6.656-1.536-9.216-3.584c-2.56-2.56-4.096-5.632-4.096-9.216    c0-7.168,5.632-13.312,13.312-13.312c7.168,0,13.312,5.632,13.312,13.312C143.872,183.808,142.336,186.88,140.288,189.44z"/>
	</g>
</g>
<g>
	<g>
		<path d="M198.656,156.672c-12.8,0-23.552,10.752-23.552,23.552c0,12.8,10.752,23.552,23.552,23.552    c6.144,0,12.288-2.56,16.384-6.656c4.608-4.608,6.656-10.24,6.656-16.384C222.208,166.912,211.456,156.672,198.656,156.672z     M207.872,189.44c-2.56,2.56-5.632,4.096-9.216,4.096c-7.168,0-13.312-5.632-13.312-13.312c0-7.168,5.632-13.312,13.312-13.312    c7.168,0,13.312,5.632,13.312,13.312C211.968,183.296,210.432,186.88,207.872,189.44z"/>
	</g>
</g>
<g>
	<g>
		<path d="M266.752,156.672c-6.144,0-12.288,2.56-16.384,6.656c-4.608,4.608-6.656,10.24-6.656,16.384    c0,12.8,10.752,23.552,23.552,23.552c12.8,0,23.552-10.752,23.552-23.552C290.304,166.912,279.552,156.16,266.752,156.672z     M266.752,193.024c-7.168,0-13.312-5.632-13.312-13.312c0-3.584,1.536-6.656,3.584-9.216c2.56-2.56,5.632-4.096,9.216-4.096    c7.168,0,13.312,5.632,13.312,13.312C280.064,186.88,273.92,193.024,266.752,193.024z"/>
	</g>
</g>
<g>
	<g>
		<path d="M282.112,76.8c-1.024-2.048-4.096-3.072-6.656-2.048c-2.56,1.024-3.584,4.096-2.56,6.656    c5.12,10.752,8.192,22.528,8.192,34.304c0,3.072,2.048,5.12,5.12,5.12c3.072,0,5.12-2.56,5.12-5.12    C291.328,101.888,288.256,89.088,282.112,76.8z"/>
	</g>
</g>
<g>
	<g>
		<path d="M273.92,62.976c-16.896-22.528-43.008-35.328-70.656-35.328c-3.072,0-5.12,2.56-5.12,5.12c0,3.072,2.048,5.12,5.12,5.12    c25.088,0,47.616,11.264,62.976,31.232c1.024,1.536,2.56,2.048,4.096,2.048c1.024,0,2.048-0.512,3.072-1.024    C274.944,68.096,275.456,65.024,273.92,62.976z"/>
	</g>
</g>
<g>
	<g>
		<path d="M352.256,214.528c9.216-9.216,14.336-21.504,14.336-34.816c0-13.312-5.12-25.6-14.336-34.816    s-21.504-14.336-34.816-14.336h-0.512v-12.8C316.928,52.736,263.68,0,198.656,0c0,0,0,0-0.512,0    C133.12,0,79.872,53.248,80.384,118.784v12.8h-0.512c-13.312,0-25.6,5.12-34.816,14.336S30.72,167.424,30.72,180.736    c0,13.312,5.12,25.6,14.336,34.816s21.504,14.336,34.816,14.336h22.016l-21.504,30.208c-1.536,2.56-1.024,5.632,1.024,7.168    c1.024,0.512,2.048,1.024,3.072,1.024c1.536,0,3.072-0.512,4.096-2.048l25.6-36.352h12.8L82.944,370.176    c-1.024,1.536-1.536,3.584-1.536,5.12c0,5.632,4.608,12.288,37.888,17.408c20.48,3.072,47.104,4.608,75.776,4.608    c1.536,0,3.584,0,5.12,0c30.72,0,59.392-2.56,80.896-6.144c33.28-5.632,37.376-12.288,37.376-17.92c0-0.512,0-1.024,0-1.536    s0-1.536,0-2.048L271.36,229.376h12.288l25.6,35.84c1.024,1.536,2.56,2.048,4.096,2.048c1.024,0,2.048-0.512,3.072-1.024    c2.56-1.536,3.072-4.608,1.024-7.168l-21.504-30.208h22.016C330.752,228.864,343.04,223.744,352.256,214.528z M90.624,118.272    c0-28.672,11.264-55.808,31.232-76.288c20.48-20.48,47.616-31.744,76.288-31.744c0,0,0,0,0.512,0    c59.392,0,108.032,48.128,108.032,107.52v12.8l-216.064,0.512L90.624,118.272z M200.192,386.56    c-60.416,0.512-99.84-6.656-107.52-12.288c7.68-5.632,47.104-13.312,107.52-13.824c60.416-0.512,99.84,6.656,107.52,12.288    C300.032,378.368,260.096,386.048,200.192,386.56z M304.128,360.448c-5.632-2.048-13.312-3.584-23.552-5.12    c-21.504-3.072-50.688-5.12-80.896-4.608c-30.72,0-59.392,2.56-80.896,6.144c-9.728,1.536-17.408,3.584-22.528,5.12    l41.984-132.096l122.368-0.512L304.128,360.448z M80.384,219.136c-10.24,0-19.968-4.096-27.648-11.264    c-7.168-7.168-11.264-16.896-11.264-27.136s4.096-19.968,11.264-27.648c7.168-7.168,16.896-11.264,27.136-11.264l237.568-0.512    c10.24,0,19.968,4.096,27.136,11.264c7.168,7.168,11.264,16.896,11.264,27.136s-4.096,19.968-11.264,27.648    c-7.168,7.168-16.896,11.264-27.136,11.264L80.384,219.136z"/>
	</g>
</g>
<g>
</g>
<g>
</g>
<g>
</g>
<g>
</g>
<g>
</g>
<g>
</g>
<g>
</g>
<g>
</g>
<g>
</g>
<g>
</g>
<g>
</g>
<g>
</g>
<g>
</g>
<g>
</g>
<g>
</g>
</svg>
