<?xml version="1.0" encoding="iso-8859-1"?>
<!-- Generator: Adobe Illustrator 19.0.0, SVG Export Plug-In . SVG Version: 6.00 Build 0)  -->
<svg xmlns="http://www.w3.org/2000/svg" xmlns:xlink="http://www.w3.org/1999/xlink" version="1.1" id="Capa_1" x="0px" y="0px" viewBox="0 0 407.552 407.552" style="enable-background:new 0 0 407.552 407.552;" xml:space="preserve">
<g>
	<g>
		<path d="M88.576,322.93c-14.336,0-25.6,11.776-25.6,25.6s11.776,25.6,25.6,25.6c13.824,0,25.6-11.776,25.6-25.6    S102.4,322.93,88.576,322.93z M88.576,364.402c-8.704,0-15.36-7.168-15.36-15.36c0-8.192,7.168-15.36,15.36-15.36    c8.704,0,15.36,7.168,15.36,15.36C103.936,357.234,96.768,364.402,88.576,364.402z"/>
	</g>
</g>
<g>
	<g>
		<path d="M205.312,322.93c-14.336,0-25.6,11.776-25.6,25.6s11.776,25.6,25.6,25.6c14.336,0,25.6-11.776,25.6-25.6    S219.648,322.93,205.312,322.93z M205.312,364.402c-8.704,0-15.36-7.168-15.36-15.36c0-8.192,7.168-15.36,15.36-15.36    c8.704,0,15.36,7.168,15.36,15.36C220.672,357.234,214.016,364.402,205.312,364.402z"/>
	</g>
</g>
<g>
	<g>
		<path d="M322.048,322.93c-14.336,0-25.6,11.776-25.6,25.6s11.776,25.6,25.6,25.6s25.6-11.776,25.6-25.6    S336.384,322.93,322.048,322.93z M322.048,364.402c-8.704,0-15.36-7.168-15.36-15.36c0-8.192,7.168-15.36,15.36-15.36    c8.192,0,15.36,7.168,15.36,15.36C337.408,357.234,330.752,364.402,322.048,364.402z"/>
	</g>
</g>
<g>
	<g>
		<path d="M392.192,192.882c0-2.56-2.048-4.096-4.608-4.096H322.56v-26.112c0-3.072-2.048-5.12-5.12-5.12h-45.056v-23.04    c0-2.048-1.024-3.584-2.56-4.608l-54.784-29.184c8.704-14.336,11.264-30.72,7.68-47.104c-4.096-16.384-13.824-30.208-28.16-38.912    c-2.56-1.536-5.632-0.512-7.168,1.536l-30.208,49.152l-10.24-6.144c0.512-2.048,0.512-4.608,0-6.656    c-1.024-4.096-3.584-7.168-6.656-9.728c-3.584-2.048-7.68-3.072-11.776-2.048c-4.096,1.024-7.168,3.584-9.728,6.656    c-2.048,3.584-3.072,7.68-2.048,11.776c1.024,4.096,3.584,7.168,6.656,9.728c2.56,1.536,5.12,2.048,8.192,2.048    c1.024,0,2.56,0,3.584-0.512c2.048-0.512,4.096-1.536,6.144-3.072l10.24,6.144l-30.208,49.152    c-1.536,2.56-0.512,5.632,1.536,7.168c10.24,6.144,21.504,9.216,32.768,9.216c20.992,0,41.984-10.752,53.76-29.696l52.736,27.648    v19.968h-45.056c-3.072,0-5.12,2.048-5.12,5.12v26.112h-44.544v-11.776c0-11.264-9.216-20.48-20.48-20.48    c-11.264,0-20.48,9.216-20.48,20.48v11.776h-17.408v-11.776c0-11.264-9.216-20.48-20.48-20.48c-11.264,0-20.48,9.216-20.48,20.48    v11.776H25.6c-2.56,0-4.608,2.048-5.12,4.608L0,352.626c0,1.536,0.512,3.072,1.024,4.096c1.024,1.024,2.56,1.536,4.096,1.536    h39.424c4.608,19.968,22.528,35.328,44.032,35.328c21.504,0,39.424-15.36,44.032-35.328h28.672    c4.608,19.968,22.528,35.328,44.032,35.328s39.424-15.36,44.032-35.328h28.672c4.608,19.968,22.528,35.328,44.032,35.328    s39.424-15.36,44.032-35.328h36.352c1.536,0,3.072-0.512,3.584-1.536c1.024-1.024,1.536-2.56,1.536-4.096L392.192,192.882z     M136.192,58.226c-0.512,1.024-2.048,2.048-3.072,2.048c-1.536,0.512-2.56,0-4.096-0.512c-1.024-0.512-2.048-2.048-2.048-3.072    c-0.512-1.536,0-2.56,0.512-4.096c0.512-1.024,2.048-2.048,3.072-2.048c0.512,0,1.024,0,1.024,0c1.024,0,2.048,0.512,2.56,0.512    c1.024,0.512,2.048,2.048,2.048,3.072C137.216,55.666,136.704,57.202,136.192,58.226z M205.824,95.602l-5.12,8.192    c-14.336,23.552-44.032,31.744-68.096,19.456l60.416-97.28c9.728,7.168,16.384,17.92,19.456,29.696    C215.552,69.49,213.504,83.314,205.824,95.602z M222.208,167.282h90.624v20.992h-90.624V167.282z M136.704,176.498    c0-5.632,4.608-10.24,10.24-10.24c5.632,0,10.24,4.608,10.24,10.24v11.776h-20.48V176.498z M78.336,176.498    c0-5.632,4.608-10.24,10.24-10.24c5.632,0,10.24,4.608,10.24,10.24v11.776h-20.48V176.498z M88.576,383.858    c-19.456,0-34.816-15.872-34.816-34.816c0-18.944,15.872-34.816,34.816-34.816c19.456,0,34.816,15.872,34.816,34.816    C123.392,367.986,107.52,383.858,88.576,383.858z M205.312,383.858c-19.456,0-34.816-15.872-34.816-34.816    c0-18.944,15.872-34.816,34.816-34.816c19.456,0,34.816,15.872,34.816,34.816C240.128,367.986,224.768,383.858,205.312,383.858z     M322.048,383.858c-19.456,0-34.816-15.872-34.816-34.816c0-18.944,15.872-34.816,34.816-34.816    c19.456,0,34.816,15.872,34.816,34.816C356.864,367.986,341.504,383.858,322.048,383.858z M367.616,348.53    c0-24.576-20.48-45.056-45.056-45.056c-24.576,0-45.056,19.968-45.056,45.056H250.88c0-24.576-20.48-45.056-45.056-45.056    s-45.056,19.968-45.056,45.056h-26.624c0-24.576-20.48-45.056-45.056-45.056s-45.056,19.968-45.056,45.056H11.264l18.944-149.504    h353.28l13.824,149.504H367.616z"/>
	</g>
</g>
<g>
	<g>
		<path d="M322.048,228.21H87.04c-3.072,0-5.12,2.048-5.12,5.12v30.72c0,3.072,2.048,5.12,5.12,5.12h235.008    c3.072,0,5.12-2.048,5.12-5.12v-30.72C327.168,230.258,325.12,228.21,322.048,228.21z M316.928,258.93H92.16v-20.48h224.768    V258.93z"/>
	</g>
</g>
<g>
</g>
<g>
</g>
<g>
</g>
<g>
</g>
<g>
</g>
<g>
</g>
<g>
</g>
<g>
</g>
<g>
</g>
<g>
</g>
<g>
</g>
<g>
</g>
<g>
</g>
<g>
</g>
<g>
</g>
</svg>
