<?xml version="1.0" encoding="iso-8859-1"?>
<!-- Generator: Adobe Illustrator 19.0.0, SVG Export Plug-In . SVG Version: 6.00 Build 0)  -->
<svg xmlns="http://www.w3.org/2000/svg" xmlns:xlink="http://www.w3.org/1999/xlink" version="1.1" id="Capa_1" x="0px" y="0px" viewBox="0 0 362.496 362.496" style="enable-background:new 0 0 362.496 362.496;" xml:space="preserve">
<g>
	<g>
		<path d="M181.248,0C81.408,0,0,81.408,0,181.248s81.408,181.248,181.248,181.248s181.248-81.408,181.248-181.248    S281.088,0,181.248,0z M176.128,231.424c-26.112-2.048-47.104-23.552-47.104-50.176s20.48-48.128,47.104-50.176V231.424z     M176.128,120.832c-31.744,2.048-57.344,28.16-57.344,60.416s25.088,58.368,57.344,60.416v49.152    c-58.88-2.048-105.984-50.176-105.984-109.568c0-59.392,47.104-107.52,105.984-109.568V120.832z M176.128,61.44    c-64.512,2.048-116.224,54.784-116.224,119.808s51.712,117.76,116.224,119.808v51.2C83.968,349.696,10.24,273.92,10.24,181.248    S83.968,13.312,176.128,10.24V61.44z M352.768,180.224c-0.512,4.096-0.512,7.168-1.024,9.728c0,1.024,0,2.048,0,3.072    c0,2.048,0,3.584-0.512,5.632c0,1.024-0.512,2.048-0.512,3.584s-0.512,3.584-0.512,5.12c0,1.024-0.512,2.56-0.512,3.584    c-0.512,1.536-0.512,3.072-1.024,4.608c0,1.024-0.512,2.56-1.024,3.584c-0.512,1.536-0.512,3.072-1.024,4.608    c-0.512,1.024-0.512,2.56-1.024,3.584c-0.512,1.536-1.024,3.072-1.024,4.096c-0.512,1.024-1.024,2.56-1.024,3.584    c-0.512,1.536-1.024,2.56-1.536,4.096c-0.512,1.024-1.024,2.56-1.536,3.584c-0.512,1.536-1.024,2.56-1.536,4.096    c-0.512,1.024-1.024,2.56-1.536,3.584c-0.512,1.536-1.024,2.56-1.536,4.096c-0.512,1.024-1.024,2.56-2.048,3.584    c-0.512,1.024-1.024,2.56-2.048,3.584c-0.512,1.024-1.536,2.56-2.048,3.584c-0.512,1.024-1.536,2.56-2.048,3.584    c-0.512,1.024-1.536,2.048-2.048,3.584c-0.512,1.024-1.536,2.56-2.048,3.584c-0.512,1.024-1.536,2.048-2.56,3.072    s-1.536,2.048-2.56,3.584c-1.024,1.024-1.536,2.048-2.56,3.072c-1.024,1.024-1.536,2.048-2.56,3.072s-1.536,2.048-2.56,3.072    s-1.536,2.048-2.56,3.072s-2.048,2.048-2.56,3.072c-1.024,1.024-2.048,2.048-2.56,3.072c-1.024,1.024-2.048,2.048-3.072,3.072    s-2.048,2.048-3.072,2.56c-1.024,1.024-2.048,2.048-3.072,2.56c-1.024,1.024-2.048,1.536-3.072,2.56s-2.048,1.536-3.072,2.56    s-2.048,1.536-3.072,2.56s-2.048,1.536-3.072,2.56s-2.048,1.536-3.072,2.56s-2.048,1.536-3.584,2.048    c-1.024,0.512-2.048,1.536-3.584,2.048c-1.024,0.512-2.56,1.536-3.584,2.048c-1.024,0.512-2.56,1.536-3.584,2.048    c-1.024,0.512-2.56,1.536-3.584,2.048c-1.024,0.512-2.56,1.024-3.584,2.048c-1.024,0.512-2.56,1.024-3.584,1.536    s-2.56,1.024-3.584,1.536s-2.56,1.024-3.584,1.536c-1.536,0.512-2.56,1.024-4.096,1.536c-1.024,0.512-2.56,1.024-4.096,1.536    c-1.536,0.512-2.56,1.024-4.096,1.536c-1.536,0.512-2.56,1.024-4.096,1.024c-1.536,0.512-2.56,1.024-4.096,1.024    c-1.536,0.512-2.56,0.512-4.096,1.024c-1.536,0.512-2.56,0.512-4.096,1.024c-1.536,0.512-2.56,0.512-4.096,1.024    c-1.536,0.512-3.072,0.512-4.096,0.512c-1.536,0-2.56,0.512-4.096,0.512s-3.072,0.512-4.096,0.512    c-1.536,0-2.56,0.512-4.096,0.512s-3.072,0-4.608,0.512c-1.536,0-2.56,0-4.096,0c-0.512,0-1.024,0-2.048,0V10.752    c0.512,0,1.024,0,2.048,0c1.536,0,2.56,0,4.096,0c1.536,0,3.072,0,4.608,0.512c1.536,0,2.56,0.512,4.096,0.512    s3.072,0.512,4.096,0.512c1.536,0,2.56,0.512,4.096,0.512c1.536,0,3.072,0.512,4.096,0.512c1.536,0.512,2.56,0.512,4.096,1.024    s2.56,0.512,4.096,1.024c1.536,0.512,2.56,0.512,4.096,1.024c1.536,0.512,2.56,0.512,4.096,1.024    c1.536,0.512,2.56,1.024,4.096,1.024c1.536,0.512,2.56,1.024,4.096,1.536s2.56,1.024,4.096,1.536    c1.536,0.512,2.56,1.024,4.096,1.536c1.024,0.512,2.56,1.024,3.584,1.536c1.024,0.512,2.56,1.024,3.584,1.536    s2.56,1.024,3.584,1.536c1.024,0.512,2.56,1.024,3.584,2.048c1.024,0.512,2.56,1.536,3.584,2.048    c1.024,0.512,2.56,1.536,3.584,2.048s2.56,1.536,3.584,2.048c1.024,0.512,2.048,1.536,3.584,2.048    c1.024,0.512,2.56,1.536,3.584,2.048s2.048,1.536,3.072,2.56s2.048,1.536,3.584,2.56c1.024,1.024,2.048,1.536,3.072,2.56    c1.024,1.024,2.048,1.536,3.072,2.56c1.024,1.024,2.048,1.536,3.072,2.56c1.024,1.024,2.048,2.048,3.072,2.56    c1.024,1.024,2.048,2.048,3.072,2.56c1.024,1.024,2.048,2.048,3.072,3.072s2.048,2.048,2.56,3.072    c1.024,1.024,2.048,2.048,3.072,3.072c1.024,1.024,1.536,2.048,2.56,3.072s2.048,2.048,2.56,3.072    c1.024,1.024,1.536,2.048,2.56,3.072c1.024,1.024,1.536,2.048,2.56,3.072c1.024,1.024,1.536,2.048,2.56,3.072    c1.024,1.024,1.536,2.048,2.56,3.584c0.512,1.024,1.536,2.048,2.048,3.584c0.512,1.024,1.536,2.048,2.048,3.584    c0.512,1.024,1.536,2.56,2.048,3.584c0.512,1.024,1.536,2.56,2.048,3.584c0.512,1.024,1.024,2.56,2.048,3.584    c0.512,1.024,1.024,2.56,2.048,3.584c0.512,1.024,1.024,2.56,1.536,3.584c0.512,1.024,1.024,2.56,1.536,3.584    c0.512,1.536,1.024,2.56,1.536,4.096c0.512,1.024,1.024,2.56,1.536,3.584c0.512,1.536,1.024,2.56,1.536,4.096    c0.512,1.024,1.024,2.56,1.024,3.584c0.512,1.536,1.024,3.072,1.024,4.096c0.512,1.024,0.512,2.56,1.024,3.584    c0.512,1.536,0.512,3.072,1.024,4.608c0.512,1.024,0.512,2.56,1.024,3.584c0.512,1.536,0.512,3.072,1.024,4.608    c0,1.024,0.512,2.56,0.512,3.584c0,1.536,0.512,3.584,0.512,5.12c0,1.024,0.512,2.048,0.512,3.584    c0,2.048,0.512,3.584,0.512,5.632c0,1.024,0,2.048,0,3.072C352.768,174.592,352.768,177.152,352.768,180.224z"/>
	</g>
</g>
<g>
</g>
<g>
</g>
<g>
</g>
<g>
</g>
<g>
</g>
<g>
</g>
<g>
</g>
<g>
</g>
<g>
</g>
<g>
</g>
<g>
</g>
<g>
</g>
<g>
</g>
<g>
</g>
<g>
</g>
</svg>
