<?xml version="1.0" encoding="iso-8859-1"?>
<!-- Generator: Adobe Illustrator 19.0.0, SVG Export Plug-In . SVG Version: 6.00 Build 0)  -->
<svg xmlns="http://www.w3.org/2000/svg" xmlns:xlink="http://www.w3.org/1999/xlink" version="1.1" id="Capa_1" x="0px" y="0px" viewBox="0 0 400.384 400.384" style="enable-background:new 0 0 400.384 400.384;" xml:space="preserve">
<g>
	<g>
		<path d="M340.736,295.936c2.048-12.8-2.048-25.6-11.264-34.816c-7.68-7.68-18.432-11.776-28.672-11.776l-61.44-61.44    c-2.048-2.048-5.12-2.048-7.168,0l-10.24,10.24l-17.408-17.92l3.584-3.584c48.128-48.128,48.128-126.464,0-175.104    c-2.048-2.048-5.12-2.048-7.168,0l-87.04,87.04L90.368,65.024c0,0-0.512,0-0.512-0.512c3.072-4.096,4.608-9.216,4.608-14.336    c0-7.168-2.56-13.312-7.68-18.432s-11.264-7.68-18.432-7.68c-7.168,0-13.312,2.56-18.432,7.68s-7.68,11.264-7.68,18.432    c0,7.168,2.56,13.312,7.68,18.432s11.264,7.68,18.432,7.68c5.12,0,10.24-1.536,14.336-4.608c0,0,0,0.512,0.512,0.512    l23.552,23.552l-87.04,87.04c-2.048,2.048-2.048,5.12,0,7.168c24.064,24.064,55.808,36.352,87.552,36.352    c31.744,0,63.488-12.288,87.552-36.352l3.584-3.584l17.92,17.92l-10.24,10.24c-2.048,2.048-2.048,5.12,0,7.168l57.344,57.344    c-1.024,5.12-1.536,10.24-0.512,15.36c-26.112,15.36-43.008,41.472-43.008,72.192v28.672c0,3.072,2.048,5.12,5.12,5.12h152.064    c3.072,0,5.12-2.048,5.12-5.12v-28.672C382.208,336.384,365.312,309.76,340.736,295.936z M79.104,62.464    c-6.144,5.632-16.384,5.632-22.528,0c-3.072-3.072-4.608-7.168-4.608-11.264s1.536-8.192,4.608-11.264    c3.072-3.072,7.168-4.608,11.264-4.608s8.192,1.536,11.264,4.608c3.072,3.072,4.608,7.168,4.608,11.264    S82.176,59.392,79.104,62.464z M186.624,183.808c-43.008,43.008-112.128,44.032-156.672,3.584L204.544,12.8    c40.448,44.544,39.424,113.664-3.584,156.672L186.624,183.808z M322.304,267.776c6.144,6.144,9.216,14.336,8.704,23.04    c-9.216-3.584-19.456-5.632-30.208-5.632s-20.992,2.048-30.208,5.632c0-8.192,3.072-16.896,9.216-23.04    C291.584,256,310.528,256,322.304,267.776z M215.296,219.136l10.24-10.24l10.24-10.24L288,250.88    c-5.632,2.048-11.264,5.12-15.872,9.728c-2.56,2.56-5.12,5.632-6.656,8.704L215.296,219.136z M372.48,390.144H230.144v-23.552    c0-39.424,31.744-71.168,71.168-71.168c38.912,0,71.168,31.744,71.168,71.168V390.144z"/>
	</g>
</g>
<g>
</g>
<g>
</g>
<g>
</g>
<g>
</g>
<g>
</g>
<g>
</g>
<g>
</g>
<g>
</g>
<g>
</g>
<g>
</g>
<g>
</g>
<g>
</g>
<g>
</g>
<g>
</g>
<g>
</g>
</svg>
