<?xml version="1.0" encoding="iso-8859-1"?>
<!-- Generator: Adobe Illustrator 19.0.0, SVG Export Plug-In . SVG Version: 6.00 Build 0)  -->
<svg xmlns="http://www.w3.org/2000/svg" xmlns:xlink="http://www.w3.org/1999/xlink" version="1.1" id="Capa_1" x="0px" y="0px" viewBox="0 0 406.272 406.272" style="enable-background:new 0 0 406.272 406.272;" xml:space="preserve">
<g>
	<g>
		<path d="M51.712,150.496c-9.216,0-17.408,7.68-17.408,17.408c0,9.728,7.68,17.408,17.408,17.408    c9.728,0,17.408-7.68,17.408-17.408S61.44,150.496,51.712,150.496z M51.712,175.072c-4.096,0-7.168-3.072-7.168-7.168    s3.072-7.168,7.168-7.168c4.096,0,7.168,3.072,7.168,7.168S55.808,175.072,51.712,175.072z"/>
	</g>
</g>
<g>
	<g>
		<path d="M194.048,91.104c-9.728,0-17.408,8.192-17.408,17.408c0,9.728,7.68,17.408,17.408,17.408    c9.728,0,17.408-7.68,17.408-17.408C211.456,98.784,203.776,91.104,194.048,91.104z M193.536,115.68    c-4.096,0-7.168-3.072-7.168-7.168c0-4.096,3.072-7.168,7.168-7.168s7.168,3.584,7.168,7.168    C200.704,112.608,197.632,115.68,193.536,115.68z"/>
	</g>
</g>
<g>
	<g>
		<path d="M178.176,336.864c-9.728,0-17.408,7.68-17.408,17.408c0,9.728,7.68,17.408,17.408,17.408    c9.728,0,17.408-7.68,17.408-17.408S187.904,336.864,178.176,336.864z M178.176,361.44c-4.096,0-7.168-3.072-7.168-7.168    s3.072-7.168,7.168-7.168c4.096,0,7.168,3.072,7.168,7.168C185.344,358.368,182.272,361.44,178.176,361.44z"/>
	</g>
</g>
<g>
	<g>
		<path d="M370.688,248.288c-9.728,0-17.408,7.68-17.408,17.408c0,9.728,7.68,17.408,17.408,17.408s17.408-7.68,17.408-17.408    C388.096,255.968,379.904,248.288,370.688,248.288z M370.688,272.864c-4.096,0-7.168-3.072-7.168-7.168s3.072-7.168,7.168-7.168    s7.168,3.072,7.168,7.168S374.272,272.864,370.688,272.864z"/>
	</g>
</g>
<g>
	<g>
		<path d="M221.184,24.032c-9.728,0-17.408,7.68-17.408,17.408c0,9.728,7.68,17.408,17.408,17.408    c9.728,0,17.408-7.68,17.408-17.408C238.592,31.712,230.912,24.032,221.184,24.032z M221.184,48.608    c-4.096,0-7.168-3.072-7.168-7.168s3.072-7.168,7.168-7.168c4.096,0,7.168,3.072,7.168,7.168S225.28,48.608,221.184,48.608z"/>
	</g>
</g>
<g>
	<g>
		<path d="M17.408,369.632C7.68,369.632,0,377.312,0,387.04s7.68,17.408,17.408,17.408c9.216,0,17.408-7.68,17.408-17.408    S27.136,369.632,17.408,369.632z M17.408,394.208c-4.096,0-7.168-3.072-7.168-7.168s3.072-7.168,7.168-7.168    c4.096,0,7.168,3.072,7.168,7.168S21.504,394.208,17.408,394.208z"/>
	</g>
</g>
<g>
	<g>
		<path d="M285.184,216.544L242.176,184.8l2.048-53.76c0-2.048-1.024-3.584-2.56-4.608c-1.536-1.024-3.584-1.024-5.632,0.512    l-43.52,31.232l-50.688-18.432c-2.048-0.512-4.096,0-5.12,1.024c-1.536,1.536-2.048,3.584-1.536,5.12l15.872,51.2l-33.28,42.496    c-1.024,1.536-1.536,3.584-0.512,5.12s2.56,3.072,4.608,3.072l53.76,0.512l30.208,44.544c1.536,1.536,3.072,2.048,4.608,2.048    h0.512c2.048-0.512,3.584-1.536,4.096-3.584l16.896-50.688l51.712-14.848c2.048-0.512,3.072-2.048,3.584-4.096    C287.744,219.616,286.72,217.568,285.184,216.544z M226.816,231.904c-1.536,0.512-3.072,1.536-3.584,3.072l-14.848,43.52    l-25.6-37.888c-0.512-1.536-2.048-2.56-3.584-2.56l-46.08-0.512l28.16-36.352c1.024-1.536,1.536-3.072,1.024-4.608l-13.824-43.52    l43.008,15.872c1.536,0.512,3.584,0.512,4.608-0.512l37.376-26.624l-1.536,46.08c0,1.536,0.512,3.072,2.048,4.096l36.864,27.136    L226.816,231.904z"/>
	</g>
</g>
<g>
	<g>
		<path d="M405.504,147.936c-2.56-1.536-4.096-2.56-6.144-2.56l-31.232,3.072l-19.968-24.576c-1.024-1.536-3.072-2.048-5.12-1.536    s-3.584,2.048-3.584,3.584l-7.168,30.72l-29.184,11.776c-2.048,0.512-3.072,2.56-3.072,4.096c0,2.048,1.024,3.584,2.56,4.608    l27.136,16.384l2.048,31.232c0,2.048,1.536,3.584,3.072,4.608c0.512,0.512,1.536,0.512,2.048,0.512    c1.024,0,2.56-0.512,3.584-1.024l23.552-20.48l30.72,7.68c2.048,0.512,4.096,0,5.12-1.536c1.024-1.536,1.536-3.584,1.024-5.12    l-12.288-29.184l16.896-26.624C406.528,152.032,406.528,149.984,405.504,147.936z M377.344,176.608    c-1.024,1.536-1.024,3.072-0.512,4.608l9.216,22.016l-23.04-6.144c-1.536-0.512-3.584,0-4.608,1.024l-17.92,15.36l-1.536-23.552    c0-1.536-1.024-3.072-2.56-4.096l-20.48-12.288l22.016-8.704c1.536-0.512,2.56-2.048,3.072-3.584l5.12-23.04l15.36,18.432    c1.024,1.536,2.56,2.048,4.608,2.048l23.552-2.048L377.344,176.608z"/>
	</g>
</g>
<g>
	<g>
		<path d="M357.376,24.032c-1.024-1.536-3.072-2.56-4.608-2.56l-25.6,2.048L310.784,3.552c-1.024-1.536-3.072-2.048-5.12-1.536    S302.08,4.064,302.08,5.6l-5.632,25.088l-24.576,10.24c-2.048,0.512-3.072,2.56-3.072,4.096c0,2.048,1.024,3.584,2.56,4.608    l22.016,13.312l1.536,25.6c0,2.048,1.536,3.584,3.072,4.608c0.512,0.512,1.536,0.512,2.048,0.512c1.024,0,2.56-0.512,3.584-1.024    l19.456-16.896L348.16,82.4c2.048,0.512,4.096,0,5.12-1.536c1.024-1.536,1.536-3.584,1.024-5.12l-10.24-23.552l13.824-21.504    C358.4,27.616,358.4,25.568,357.376,24.032z M332.8,52.704l7.168,16.384l-17.408-4.096c-1.536-0.512-3.584,0-4.608,1.024    l-13.824,11.776l-1.024-17.92c0-1.536-1.024-3.072-2.56-4.096l-15.36-9.216l16.896-6.656c1.536-0.512,2.56-2.048,3.072-3.584    l4.096-17.408l11.264,13.824c1.024,1.536,2.56,2.048,4.608,2.048l17.92-1.536l-9.728,15.36    C332.288,49.632,332.288,51.168,332.8,52.704z"/>
	</g>
</g>
<g>
	<g>
		<path d="M125.952,289.248c-1.024-1.536-3.072-2.56-4.608-2.56l-31.232,2.56l-19.968-24.064c-1.024-1.536-3.072-2.048-5.12-1.536    c-2.048,0.512-3.584,2.048-3.584,3.584l-7.168,30.72l-29.184,11.776c-2.048,0.512-3.072,2.56-3.072,4.096    c-1.536,1.536-0.512,3.584,1.024,4.608l27.136,16.384l2.048,31.232c0,2.048,1.536,3.584,3.072,4.608    c0.512,0.512,1.536,0.512,2.048,0.512c1.024,0,2.56-0.512,3.584-1.024l23.552-20.48l30.72,7.68c2.048,0.512,4.096,0,5.12-1.536    c1.024-1.536,1.536-3.584,1.024-5.12l-12.288-29.184l16.896-26.624C126.976,293.344,126.976,291.296,125.952,289.248z     M98.304,317.408c-1.024,1.536-1.024,3.584-0.512,5.12l9.216,22.016l-23.04-6.144c-1.536-0.512-3.584,0-4.608,1.024l-17.92,15.36    l-1.536-23.552c0-1.536-1.024-3.072-2.56-4.096l-20.48-12.288l22.528-8.704c1.536-0.512,2.56-2.048,3.072-3.584l5.12-23.04    l15.36,18.432c1.024,1.536,2.56,2.048,4.608,2.048l23.552-2.048L98.304,317.408z"/>
	</g>
</g>
<g>
	<g>
		<path d="M342.016,349.664l16.896-26.624c0-2.048,0-4.096-1.024-5.632c-1.024-1.536-3.072-2.56-4.608-2.56l-31.232,3.072    l-19.968-24.064c-1.024-1.536-3.072-2.048-5.12-1.536c-2.048,0.512-3.584,2.048-3.584,4.096l-7.168,30.72l-29.696,10.752    c-2.048,0.512-3.072,2.56-3.072,4.608c0,2.048,1.024,3.584,2.56,4.608l27.136,15.872l2.048,31.232    c0,2.048,1.536,3.584,3.072,4.608c0.512,0.512,1.536,0.512,2.048,0.512c1.024,0,2.56-0.512,3.584-1.024l23.552-20.992l30.72,7.68    c2.048,0.512,4.096,0,5.12-1.536s1.536-3.584,1.024-5.12L342.016,349.664z M316.416,367.072c-1.536-0.512-3.584,0-4.608,1.024    l-17.92,15.872l-1.536-23.552c0-1.536-1.024-3.072-2.56-4.096l-20.48-12.288l22.016-8.704c1.536-0.512,2.56-2.048,3.072-3.584    l5.12-23.04l15.36,18.432c1.024,1.536,2.56,2.048,4.608,2.048l23.552-2.048l-12.288,18.944c-1.024,1.536-1.024,3.072-0.512,4.608    l9.216,22.016L316.416,367.072z"/>
	</g>
</g>
<g>
	<g>
		<path d="M123.392,70.112l-28.16-13.824l-5.12-31.232c-0.512-2.048-1.536-3.584-3.584-4.096c-2.048-0.512-4.096,0-5.12,1.536    l-21.504,23.04l-31.232-4.608c-2.048-0.512-4.096,0.512-5.12,2.048c-1.024,1.536-1.024,3.584-0.512,5.632L38.4,76.256    l-14.336,28.16c-1.024,1.536-0.512,3.584,0.512,5.632c1.024,1.536,3.072,2.048,5.12,2.048l30.72-6.144l22.528,22.016    c1.024,1.024,2.048,1.536,3.584,1.536c0.512,0,1.024,0,1.536-0.512c2.048-0.512,3.072-2.048,3.584-4.096l4.096-31.232    l28.16-14.336c1.536-1.024,2.56-2.56,2.56-4.608C126.464,72.672,125.44,71.136,123.392,70.112z M89.6,85.472    c-1.536,1.024-2.56,2.048-2.56,4.096l-3.072,23.552L67.072,96.224c-1.024-1.024-2.048-1.536-3.584-1.536c-0.512,0-0.512,0-1.024,0    l-23.552,4.608l10.752-20.992c0.512-1.536,0.512-3.072,0-4.608L38.4,52.704l22.528,3.584c1.536,0,3.584-0.512,4.608-1.536    L81.92,37.344l4.096,23.552c0.512,1.536,1.536,3.072,3.072,3.584l21.504,10.24L89.6,85.472z"/>
	</g>
</g>
<g>
</g>
<g>
</g>
<g>
</g>
<g>
</g>
<g>
</g>
<g>
</g>
<g>
</g>
<g>
</g>
<g>
</g>
<g>
</g>
<g>
</g>
<g>
</g>
<g>
</g>
<g>
</g>
<g>
</g>
</svg>
