<?xml version="1.0" encoding="iso-8859-1"?>
<!-- Generator: Adobe Illustrator 19.0.0, SVG Export Plug-In . SVG Version: 6.00 Build 0)  -->
<svg xmlns="http://www.w3.org/2000/svg" xmlns:xlink="http://www.w3.org/1999/xlink" version="1.1" id="Capa_1" x="0px" y="0px" viewBox="0 0 379.904 379.904" style="enable-background:new 0 0 379.904 379.904;" xml:space="preserve">
<g>
	<g>
		<path d="M187.072,62.464c-64.512,0-117.248,52.736-117.248,117.248c0,3.072,2.048,5.12,5.12,5.12c3.072,0,5.12-2.048,5.12-5.12    c0-58.88,48.128-107.008,107.008-107.008c3.072,0,5.12-2.048,5.12-5.12C192.192,65.024,189.632,62.464,187.072,62.464z"/>
	</g>
</g>
<g>
	<g>
		<path d="M364.736,263.68l-25.6-10.24c11.264-22.528,17.408-47.616,17.408-73.728V34.816h0.512c7.168-2.048,12.8-9.216,12.8-16.896    c0-9.728-8.192-17.92-17.92-17.92s-17.92,8.192-17.92,17.92c0,8.192,5.632,14.848,12.8,16.896v87.552    c-23.552-64-84.992-110.08-157.184-110.08c-92.16,0-167.424,75.264-167.424,167.424c0,26.112,6.144,51.2,16.896,73.216    l-25.6,9.216c-1.536,0.512-2.56,1.536-3.072,3.072c-0.512,1.536-0.512,3.072,0,4.096c34.304,68.096,102.912,110.592,179.2,110.592    c75.264,0,143.872-41.984,178.176-109.056c0.512-1.024,0.512-2.56,0-4.096C367.296,265.216,366.272,264.192,364.736,263.68z     M344.256,17.92c0-4.096,3.584-7.68,7.68-7.68s7.68,3.584,7.68,7.68s-3.584,7.68-7.68,7.68S344.256,22.016,344.256,17.92z     M32.448,180.224c0-86.528,70.656-157.184,157.184-157.184s157.184,70.656,157.184,157.184    c0,86.528-70.656,157.184-157.184,157.184S32.448,266.752,32.448,180.224z M189.632,370.176    c-70.656,0-134.144-37.888-167.424-99.84l21.504-7.68c28.672,50.688,83.456,84.992,145.92,84.992    c61.952,0,116.736-34.304,145.408-84.48l20.992,8.704C322.752,332.288,259.264,370.176,189.632,370.176z"/>
	</g>
</g>
<g>
</g>
<g>
</g>
<g>
</g>
<g>
</g>
<g>
</g>
<g>
</g>
<g>
</g>
<g>
</g>
<g>
</g>
<g>
</g>
<g>
</g>
<g>
</g>
<g>
</g>
<g>
</g>
<g>
</g>
</svg>
