<?xml version="1.0" encoding="iso-8859-1"?>
<!-- Generator: Adobe Illustrator 19.0.0, SVG Export Plug-In . SVG Version: 6.00 Build 0)  -->
<svg xmlns="http://www.w3.org/2000/svg" xmlns:xlink="http://www.w3.org/1999/xlink" version="1.1" id="Capa_1" x="0px" y="0px" viewBox="0 0 362.496 362.496" style="enable-background:new 0 0 362.496 362.496;" xml:space="preserve">
<g>
	<g>
		<path d="M181.248,0C81.408,0,0,81.408,0,181.248s81.408,181.248,181.248,181.248s181.248-81.408,181.248-181.248    S281.088,0,181.248,0z M181.248,352.256c-94.208,0-171.008-76.8-171.008-171.008S87.04,10.24,181.248,10.24    s171.008,76.8,171.008,171.008S275.456,352.256,181.248,352.256z"/>
	</g>
</g>
<g>
	<g>
		<path d="M290.816,160.768c-17.408,0-31.744,14.336-31.744,31.744c0,17.408,14.336,31.744,31.744,31.744    c17.408,0,31.744-14.336,31.744-31.744C322.56,175.104,308.224,160.768,290.816,160.768z M290.816,214.016    c-11.776,0-21.504-9.728-21.504-21.504s9.728-21.504,21.504-21.504c11.776,0,21.504,9.728,21.504,21.504    S302.592,214.016,290.816,214.016z"/>
	</g>
</g>
<g>
	<g>
		<path d="M229.376,33.792c-17.408,0-31.744,14.336-31.744,31.744s14.336,31.744,31.744,31.744    c17.408,0,31.744-14.336,31.744-31.744S246.784,33.792,229.376,33.792z M229.376,87.04c-11.776,0-21.504-9.728-21.504-21.504    S217.6,43.52,229.376,43.52s21.504,9.728,21.504,21.504S241.664,87.04,229.376,87.04z"/>
	</g>
</g>
<g>
	<g>
		<path d="M132.096,224.256c-17.408,0-31.744,14.336-31.744,31.744s14.336,31.744,31.744,31.744S163.84,273.408,163.84,256    C164.352,238.592,150.016,224.256,132.096,224.256z M132.096,277.504c-11.776,0-21.504-9.728-21.504-21.504    s9.728-21.504,21.504-21.504S153.6,244.224,153.6,256S144.384,277.504,132.096,277.504z"/>
	</g>
</g>
<g>
	<g>
		<path d="M194.048,126.976c-17.408,0-31.744,14.336-31.744,31.744c-0.512,17.408,13.824,31.744,31.744,31.744    c17.408,0,31.744-14.336,31.744-31.744C225.792,141.312,211.456,126.976,194.048,126.976z M194.048,179.712    c-11.776,0-21.504-9.728-21.504-21.504c-0.512-11.776,9.216-21.504,21.504-21.504c11.776,0,21.504,9.728,21.504,21.504    S205.824,179.712,194.048,179.712z"/>
	</g>
</g>
<g>
	<g>
		<path d="M97.28,132.096c-13.312,0-24.576,11.264-24.576,24.576c0,13.824,11.264,24.576,24.576,24.576    c13.312,0,24.576-11.264,24.576-24.576C121.856,143.36,110.592,132.096,97.28,132.096z M97.28,171.008    c-7.68,0-14.336-6.656-14.336-14.336s6.656-14.336,14.336-14.336c7.68,0,14.336,6.656,14.336,14.336S104.96,171.008,97.28,171.008    z"/>
	</g>
</g>
<g>
	<g>
		<path d="M51.2,193.536c-11.264,0-20.48,9.216-20.48,20.48c0,11.264,9.216,20.48,20.48,20.48c11.264,0,20.48-9.216,20.48-20.48    C71.68,202.752,62.464,193.536,51.2,193.536z M51.2,223.744c-5.632,0-10.24-4.608-10.24-10.24c0-5.632,4.608-10.24,10.24-10.24    s10.24,4.608,10.24,10.24C61.44,219.136,56.832,223.744,51.2,223.744z"/>
	</g>
</g>
<g>
	<g>
		<path d="M195.584,277.504c-13.312,0-24.576,11.264-24.576,24.576c0,13.312,11.264,24.576,24.576,24.576    c13.312,0,24.576-11.264,24.576-24.576S208.896,277.504,195.584,277.504z M195.584,316.416c-7.68,0-14.336-6.656-14.336-14.336    s6.656-14.336,14.336-14.336s14.336,6.656,14.336,14.336S203.264,316.416,195.584,316.416z"/>
	</g>
</g>
<g>
	<g>
		<path d="M132.096,40.448c-13.312,0-24.576,11.264-24.576,24.576c0,13.824,11.264,24.576,24.576,24.576    s24.576-11.264,24.576-24.576C156.672,51.712,145.408,40.448,132.096,40.448z M132.096,79.36c-7.68,0-14.336-6.144-14.336-14.336    c0-8.192,6.656-14.336,14.336-14.336s14.336,6.656,14.336,14.336S139.776,79.36,132.096,79.36z"/>
	</g>
</g>
<g>
</g>
<g>
</g>
<g>
</g>
<g>
</g>
<g>
</g>
<g>
</g>
<g>
</g>
<g>
</g>
<g>
</g>
<g>
</g>
<g>
</g>
<g>
</g>
<g>
</g>
<g>
</g>
<g>
</g>
</svg>
