<?xml version="1.0" encoding="iso-8859-1"?>
<!-- Generator: Adobe Illustrator 19.0.0, SVG Export Plug-In . SVG Version: 6.00 Build 0)  -->
<svg xmlns="http://www.w3.org/2000/svg" xmlns:xlink="http://www.w3.org/1999/xlink" version="1.1" id="Capa_1" x="0px" y="0px" viewBox="0 0 414.208 414.208" style="enable-background:new 0 0 414.208 414.208;" xml:space="preserve">
<g>
	<g>
		<path d="M405.504,257.536l-10.24-7.168l0.512-12.8c0-2.048-1.024-3.584-2.56-4.608s-3.584-0.512-5.632,0.512l-10.24,7.168    l-11.776-4.096c-2.048-0.512-4.096,0-5.12,1.024c-1.536,1.536-2.048,3.584-1.536,5.12l4.096,11.776l-7.68,9.728    c-1.024,1.536-1.536,3.584-0.512,5.632c1.024,1.536,2.56,3.072,4.608,3.072h12.8l7.168,10.24c1.024,1.536,2.56,2.048,4.096,2.048    H384c2.048-0.512,3.584-1.536,4.096-3.584l4.096-11.776l12.288-3.584c2.048-0.512,3.072-2.048,3.584-4.096    C407.552,260.608,407.04,259.072,405.504,257.536z M386.56,261.12c-1.536,0.512-3.072,1.536-3.584,3.072l-1.536,4.608l-2.56-4.096    c-1.024-1.536-2.56-2.048-4.096-2.048h-5.12l3.072-4.096c1.024-1.536,1.536-3.072,1.024-4.608l-1.536-4.608l4.608,1.536    c1.536,0.512,3.584,0.512,4.608-0.512l4.096-3.072v5.12c0,1.536,0.512,3.072,2.048,4.096l4.096,3.072L386.56,261.12z"/>
	</g>
</g>
<g>
	<g>
		<path d="M359.424,44.544l-10.24-7.168l0.512-12.8c0-2.048-1.024-3.584-2.56-4.608c-1.536-1.024-3.584-0.512-5.632,0.512    l-10.24,7.168l-11.776-4.096c-2.048-0.512-4.096,0-5.12,1.024c-1.536,1.536-2.048,3.584-1.536,5.12l4.096,11.776l-7.68,9.728    c-1.024,1.536-1.536,3.584-0.512,5.632c1.024,1.536,2.56,3.072,4.608,3.072h12.8l7.168,10.24c1.024,1.536,2.56,2.048,4.096,2.048    h0.512c2.048-0.512,3.584-1.536,4.096-3.584l4.096-11.776l12.288-3.584c1.536,0,3.072-1.536,3.072-3.584    C361.984,47.616,360.96,45.568,359.424,44.544z M340.48,48.128c-1.536,0.512-3.072,1.536-3.584,3.072l-1.536,4.608l-2.56-4.096    c-1.024-1.536-2.56-2.048-4.096-2.048h-5.12l3.072-4.096c1.024-1.536,1.536-3.072,1.024-4.608l-1.536-4.096l4.608,1.536    c1.536,0.512,3.584,0.512,4.608-0.512l4.096-3.072v5.12c0,1.536,0.512,3.072,2.048,4.096l4.096,3.072L340.48,48.128z"/>
	</g>
</g>
<g>
	<g>
		<circle cx="380.928" cy="181.248" r="5.632"/>
	</g>
</g>
<g>
	<g>
		<circle cx="394.752" cy="20.48" r="5.632"/>
	</g>
</g>
<g>
	<g>
		<circle cx="258.56" cy="12.288" r="5.632"/>
	</g>
</g>
<g>
	<g>
		<circle cx="25.088" cy="78.336" r="5.632"/>
	</g>
</g>
<g>
	<g>
		<path d="M394.752,92.672c-10.752,0-19.456,8.704-19.456,19.456s8.704,19.456,19.456,19.456s19.456-8.704,19.456-19.456    S405.504,92.672,394.752,92.672z M394.752,121.344c-5.12,0-9.216-4.096-9.216-9.216s4.096-9.216,9.216-9.216    s9.216,4.096,9.216,9.216C403.968,117.248,399.872,121.344,394.752,121.344z"/>
	</g>
</g>
<g>
	<g>
		<path d="M19.456,147.968C8.704,147.968,0,156.672,0,167.424c0,10.752,8.704,19.456,19.456,19.456s19.456-8.704,19.456-19.456    C38.912,156.672,30.208,147.968,19.456,147.968z M19.968,176.64c-5.12,0-9.216-4.096-9.216-9.216c0-5.12,4.096-9.216,9.216-9.216    s9.216,4.096,9.216,9.216C29.184,172.544,25.088,176.64,19.968,176.64z"/>
	</g>
</g>
<g>
	<g>
		<path d="M46.592,309.76c-10.752,0-19.456,8.704-19.456,19.456c0,10.752,8.704,19.456,19.456,19.456s19.456-8.704,19.456-19.456    C66.048,318.464,57.344,309.76,46.592,309.76z M47.104,338.432c-5.12,0-9.216-4.096-9.216-9.216S41.984,320,47.104,320    c5.12,0,9.216,4.096,9.216,9.216S52.224,338.432,47.104,338.432z"/>
	</g>
</g>
<g>
	<g>
		<path d="M25.088,8.192c-10.752,0-19.456,8.704-19.456,19.456C6.144,38.4,14.848,47.104,25.088,47.104    c10.752,0,19.456-8.704,19.456-19.456C44.544,16.896,35.84,8.192,25.088,8.192z M25.088,37.376c-5.12,0-9.216-4.096-9.216-9.216    s4.608-9.216,9.216-9.216c5.12,0,9.216,4.096,9.216,9.216S30.208,37.376,25.088,37.376z"/>
	</g>
</g>
<g>
	<g>
		<path d="M146.432,207.872c-5.632-11.776-19.456-17.408-31.232-12.288s-17.408,18.944-12.288,30.72    c3.584,8.704,12.288,14.336,21.504,14.336c3.072,0,6.144-0.512,9.216-2.048c5.632-2.56,10.24-7.168,12.8-12.8    C148.992,220.16,148.48,213.504,146.432,207.872z M136.704,222.208c-1.536,3.072-3.584,5.632-7.168,7.168    c-6.656,3.072-14.336-0.512-17.408-7.168c-3.072-6.656,0.512-14.336,7.168-17.408c1.536-0.512,3.584-1.024,5.12-1.024    c5.12,0,10.24,3.072,12.288,8.192C137.728,215.04,137.728,218.624,136.704,222.208z"/>
	</g>
</g>
<g>
	<g>
		<path d="M208.384,181.248c-2.56-5.632-6.656-10.24-12.8-12.288c-5.632-2.56-12.288-2.048-17.92,0    c-5.632,2.56-10.24,7.168-12.8,12.8c-2.56,5.632-2.048,12.288,0,17.92c2.56,5.632,7.168,10.24,12.8,12.8    c3.072,1.024,5.632,1.536,8.704,1.536c3.072,0,6.144-0.512,9.216-2.048c5.632-2.56,10.24-7.168,12.8-12.8    S210.432,186.88,208.384,181.248z M199.168,195.584c-1.536,3.072-3.584,5.632-7.168,7.168c-3.072,1.536-6.656,1.536-10.24,0    c-3.072-1.536-5.632-3.584-7.168-7.168c-1.536-3.072-1.536-6.656,0-10.24c1.536-3.072,3.584-5.632,7.168-7.168    c1.536-0.512,3.584-1.024,5.12-1.024c1.536,0,3.584,0.512,5.12,1.024c3.072,1.536,5.632,3.584,7.168,7.168    C200.192,188.416,200.704,192,199.168,195.584z"/>
	</g>
</g>
<g>
	<g>
		<path d="M270.848,154.624c-2.56-5.632-7.168-10.24-12.8-12.8s-12.288-2.048-17.92,0c-5.632,2.56-10.24,7.168-12.8,12.8    c-2.56,5.632-2.048,12.288,0,17.92c3.584,8.704,12.288,14.336,21.504,14.336c3.072,0,6.144-0.512,9.216-2.048    C270.336,180.736,275.968,166.912,270.848,154.624z M254.464,176.128c-6.656,3.072-14.336-0.512-17.408-7.168    c-1.536-3.072-1.536-6.656,0-10.24c1.536-3.072,3.584-5.632,7.168-7.168c1.536-0.512,3.584-1.024,5.12-1.024    c5.12,0,10.24,3.072,12.288,8.192C264.704,165.376,261.12,173.056,254.464,176.128z"/>
	</g>
</g>
<g>
	<g>
		<path d="M247.808,95.232c-5.632-12.288-13.312-23.04-23.552-32.256c-2.048-2.048-5.12-1.536-7.168,0.512    c-2.048,2.048-1.536,5.12,0.512,7.168c9.216,7.68,15.872,17.408,20.992,28.672c1.024,2.048,2.56,3.072,4.608,3.072    c0.512,0,1.536,0,2.048-0.512C247.808,100.864,248.832,97.792,247.808,95.232z"/>
	</g>
</g>
<g>
	<g>
		<path d="M210.432,53.248c-24.576-14.336-53.248-15.872-79.36-5.12c-2.56,1.024-3.584,4.096-2.56,6.656    c1.024,2.56,4.096,3.584,6.656,2.56c23.04-9.728,48.64-8.192,70.144,4.608c1.024,0.512,1.536,0.512,2.56,0.512    c1.536,0,3.584-1.024,4.608-2.56C214.016,57.856,212.992,54.784,210.432,53.248z"/>
	</g>
</g>
<g>
	<g>
		<path d="M382.464,373.248L271.872,207.872l11.776-5.12l37.376,23.552c1.024,0.512,1.536,1.024,2.56,1.024    c1.536,0,3.584-1.024,4.608-2.56c1.536-2.56,0.512-5.632-1.536-7.168l-31.232-19.968l19.968-8.704    c12.288-5.12,21.504-14.848,26.112-26.624c5.12-12.288,4.608-25.6-0.512-37.376c-5.12-12.288-14.848-21.504-26.624-26.112    c-12.288-5.12-25.6-4.608-37.376,0.512h-0.512l-5.12-11.776c-12.288-29.184-35.328-51.712-64.512-63.488    c-29.184-11.776-61.44-11.776-90.624,0.512C56.32,50.176,28.16,119.808,53.76,179.712l5.12,11.776h-0.512    C33.28,202.24,22.016,230.912,32.256,256c5.12,12.288,14.848,21.504,26.624,26.112c6.144,2.56,12.288,3.584,18.432,3.584    c6.656,0,12.8-1.536,18.944-4.096l19.968-8.704l-7.168,36.864c-0.512,2.56,1.024,5.632,4.096,6.144c0.512,0,0.512,0,1.024,0    c2.56,0,4.608-1.536,5.12-4.096l9.216-43.008l11.776-5.12l9.216,120.832c0,0.512,0,0.512,0.512,1.024c0,1.024-0.512,1.536,0,2.56    c0,5.632,5.12,12.288,37.888,16.384c16.384,2.048,36.352,3.072,57.856,3.072c7.68,0,15.36,0,23.04-0.512    c30.72-1.024,59.392-3.584,80.896-8.192c32.768-6.144,36.864-13.312,36.864-18.944    C386.048,377.856,385.536,375.296,382.464,373.248z M62.976,93.184c10.752-26.624,31.232-47.616,57.856-58.88    c26.624-11.264,55.808-11.776,82.432-1.024s47.616,31.232,58.88,57.856l5.12,11.776l-198.656,84.48l-5.12-11.776    C52.224,148.992,52.224,119.808,62.976,93.184z M92.672,272.384c-9.728,4.096-19.968,4.096-29.696,0    c-9.728-4.096-16.896-11.264-20.992-20.992c-4.096-9.728-4.096-19.968,0-29.696c4.096-9.728,11.264-16.896,20.992-20.992    L281.6,108.032c5.12-2.048,10.24-3.072,15.36-3.072s9.728,1.024,14.336,3.072c9.728,4.096,16.896,11.264,20.992,20.992    c4.096,9.728,4.096,19.968,0,29.696c-4.096,9.728-11.264,16.896-20.992,20.992L92.672,272.384z M150.016,259.584l112.64-47.616    L366.08,366.592c-4.608-1.024-10.752-2.048-17.92-3.072c-22.016-2.56-50.688-3.584-80.896-2.56    c-30.72,1.024-59.392,3.584-80.896,8.192c-13.312,2.56-22.016,5.12-27.136,7.68L150.016,259.584z M268.288,396.8    c-59.904,2.048-100.352-4.096-108.032-9.216c7.168-6.144,47.104-14.336,107.008-16.384c59.392-2.048,99.328,4.096,107.52,9.216    C367.616,386.048,328.192,394.752,268.288,396.8z"/>
	</g>
</g>
<g>
</g>
<g>
</g>
<g>
</g>
<g>
</g>
<g>
</g>
<g>
</g>
<g>
</g>
<g>
</g>
<g>
</g>
<g>
</g>
<g>
</g>
<g>
</g>
<g>
</g>
<g>
</g>
<g>
</g>
</svg>
