<?xml version="1.0" encoding="iso-8859-1"?>
<!-- Generator: Adobe Illustrator 19.0.0, SVG Export Plug-In . SVG Version: 6.00 Build 0)  -->
<svg xmlns="http://www.w3.org/2000/svg" xmlns:xlink="http://www.w3.org/1999/xlink" version="1.1" id="Capa_1" x="0px" y="0px" viewBox="0 0 384.512 384.512" style="enable-background:new 0 0 384.512 384.512;" xml:space="preserve">
<g>
	<g>
		<path d="M366.592,146.432c-1.024-3.072-2.048-6.656-3.584-9.728c-1.024-2.56-4.096-4.096-6.656-3.072s-4.096,4.096-3.072,6.656    c1.024,3.072,2.048,6.144,3.072,9.216c0.512,2.048,2.56,3.584,5.12,3.584c0.512,0,1.024,0,1.536,0    C366.08,152.064,367.616,148.992,366.592,146.432z"/>
	</g>
</g>
<g>
	<g>
		<path d="M329.728,331.776c-2.56-1.536-5.632-1.536-7.68,1.024c-4.096,5.632-9.216,10.752-14.336,15.872    c-2.048,2.048-2.048,5.12,0,7.168c1.024,1.024,2.56,1.536,3.584,1.536c1.536,0,2.56-0.512,3.584-1.536    c5.632-5.12,10.752-10.752,15.36-16.896C331.776,336.896,331.776,333.312,329.728,331.776z"/>
	</g>
</g>
<g>
	<g>
		<path d="M374.272,179.712c-0.512-2.56-3.072-4.608-5.632-4.096c-2.56,0.512-4.608,3.072-4.096,5.632    c1.024,7.168,1.536,14.336,2.048,21.504c0,2.56,2.56,5.12,5.12,5.12c2.56-0.512,4.608-3.072,4.608-5.632    C376.32,194.56,375.296,186.88,374.272,179.712z"/>
	</g>
</g>
<g>
	<g>
		<path d="M369.664,229.888c-2.56-0.512-5.632,1.536-5.632,4.608c-1.024,7.168-2.56,14.336-4.096,20.992    c0,3.072,1.536,6.144,4.096,6.656c0.512,0,1.024,0,1.024,0c2.048,0,4.608-1.536,5.12-4.096c2.048-7.168,3.072-14.848,4.096-22.528    C374.784,232.96,372.736,229.888,369.664,229.888z"/>
	</g>
</g>
<g>
	<g>
		<path d="M357.376,284.16c-3.072-1.536-6.144,0-7.168,2.56c-3.072,6.656-6.144,13.312-9.728,19.456    c-1.536,2.56-0.512,5.632,2.048,7.168c1.024,0.512,1.536,0.512,2.56,0.512c1.536,0,3.584-1.024,4.608-2.56    c3.584-6.656,7.168-13.312,10.24-20.48C360.96,288.256,359.936,285.184,357.376,284.16z"/>
	</g>
</g>
<g>
	<g>
		<path d="M289.28,370.688c-1.536-2.56-4.608-3.072-7.168-1.024c-2.56,2.048-5.632,3.584-8.192,5.632    c-2.56,1.536-3.072,4.608-1.536,7.168c1.536,1.024,3.072,2.048,4.608,2.048c1.024,0,2.048,0,2.56-1.024    c3.072-2.048,6.144-3.584,8.704-5.632C290.816,376.32,291.328,373.248,289.28,370.688z"/>
	</g>
</g>
<g>
	<g>
		<path d="M49.664,32.256c-1.024-2.048-4.096-3.072-6.656-1.536c-3.072,1.536-6.144,3.584-9.216,5.12    c-2.56,1.536-3.072,4.608-1.536,7.168c1.024,1.536,2.56,2.56,4.096,2.56c1.024,0,2.048,0,2.56-1.024    c3.072-1.536,5.632-3.584,8.704-5.12C50.176,37.888,50.688,34.816,49.664,32.256z"/>
	</g>
</g>
<g>
	<g>
		<path d="M152.576,0c-7.68,0-15.36,1.024-23.04,1.536c-2.56,0.512-4.608,3.072-4.608,5.632c0.512,2.56,2.56,4.608,5.12,4.608h0.512    c7.168-1.024,14.848-1.536,22.016-1.536c3.072,0,5.12-2.56,5.12-5.12C157.696,2.048,155.136,0,152.576,0z"/>
	</g>
</g>
<g>
	<g>
		<path d="M209.408,5.632c-7.68-1.536-14.848-3.072-22.528-4.096c-2.56-0.512-5.12,1.536-5.632,4.608    c-0.512,2.56,1.536,5.12,4.608,5.632c7.168,1.024,14.336,2.048,21.504,3.584c0.512,0,0.512,0,1.024,0    c2.56,0,4.608-1.536,5.12-4.096C214.016,8.704,212.48,6.144,209.408,5.632z"/>
	</g>
</g>
<g>
	<g>
		<path d="M102.4,11.776c-0.512-2.56-3.584-4.096-6.144-3.584c-7.68,2.56-14.848,5.12-22.016,7.68    c-2.56,1.024-4.096,4.096-3.072,6.656c1.024,2.048,2.56,3.072,4.608,3.072c0.512,0,1.024,0,2.048-0.512    c6.656-2.56,13.824-5.12,20.992-7.168C101.376,17.408,102.912,14.336,102.4,11.776z"/>
	</g>
</g>
<g>
	<g>
		<path d="M252.416,19.456c-3.072-1.536-6.656-2.56-9.728-4.096c-2.56-1.024-5.632,0.512-6.656,3.072s0.512,5.632,3.072,6.656    c3.072,1.024,6.144,2.56,9.216,3.584c0.512,0.512,1.536,0.512,2.048,0.512c2.048,0,4.096-1.024,4.608-3.072    C256,23.552,254.976,20.48,252.416,19.456z"/>
	</g>
</g>
<g>
	<g>
		<path d="M321.536,17.408c-27.648,0-50.176,22.528-50.176,50.176c0,27.648,22.528,50.176,50.176,50.176    s50.176-22.528,50.176-50.176C371.712,39.936,349.184,17.408,321.536,17.408z M321.536,107.52    c-22.016,0-39.936-17.92-39.936-39.936s17.92-39.936,39.936-39.936s39.936,17.92,39.936,39.936    C361.472,89.6,343.552,107.52,321.536,107.52z"/>
	</g>
</g>
<g>
	<g>
		<circle cx="299.52" cy="56.32" r="5.632"/>
	</g>
</g>
<g>
	<g>
		<circle cx="329.728" cy="42.496" r="5.632"/>
	</g>
</g>
<g>
	<g>
		<circle cx="344.576" cy="65.024" r="5.632"/>
	</g>
</g>
<g>
	<g>
		<circle cx="321.536" cy="61.952" r="5.632"/>
	</g>
</g>
<g>
	<g>
		<circle cx="309.248" cy="79.872" r="5.632"/>
	</g>
</g>
<g>
	<g>
		<circle cx="336.384" cy="88.576" r="5.632"/>
	</g>
</g>
<g>
	<g>
		<path d="M155.136,124.928c-46.592,0-83.968,37.376-83.968,83.968c0,46.592,37.888,83.968,83.968,83.968    c46.592,0,83.968-37.888,83.968-83.968C239.104,162.304,201.216,124.928,155.136,124.928z M155.136,282.624    c-40.96,0-73.728-33.28-73.728-73.728s32.768-73.728,73.728-73.728s73.728,33.28,73.728,73.728S195.584,282.624,155.136,282.624z"/>
	</g>
</g>
<g>
	<g>
		<path d="M155.136,61.952c-3.072,0-5.12,2.56-5.12,5.12v36.352c0,3.072,2.048,5.12,5.12,5.12c3.072,0,5.12-2.048,5.12-5.12V67.072    C160.256,64,158.208,61.952,155.136,61.952z"/>
	</g>
</g>
<g>
	<g>
		<path d="M107.52,115.2L89.6,83.456c-1.536-2.56-4.608-3.072-7.168-2.048c-2.56,1.536-3.072,4.608-2.048,7.168l17.92,31.744    c1.024,1.536,3.072,2.56,4.608,2.56c1.024,0,1.536,0,2.56-0.512C108.032,120.832,108.544,117.76,107.52,115.2z"/>
	</g>
</g>
<g>
	<g>
		<path d="M67.072,150.528L35.84,132.096c-2.56-1.024-5.632-0.512-7.168,2.048s-0.512,5.632,2.048,7.168l31.232,18.432    c1.024,0.512,1.536,0.512,2.56,0.512c1.536,0,3.584-1.024,4.608-2.56C70.656,155.136,69.632,152.064,67.072,150.528z"/>
	</g>
</g>
<g>
	<g>
		<path d="M49.664,201.728l-36.352-0.512c-2.56,0-5.12,2.56-5.12,5.12c0,3.072,2.048,5.12,5.12,5.12l36.352,0.512    c2.56,0,5.12-2.048,5.12-5.12C54.784,203.776,52.736,201.728,49.664,201.728z"/>
	</g>
</g>
<g>
	<g>
		<path d="M67.584,257.024c-1.536-2.56-4.608-3.584-7.168-2.048L28.16,272.384c-2.56,1.536-3.584,4.608-2.048,7.168    c1.024,1.536,2.56,2.56,4.608,2.56c1.024,0,1.536,0,2.56-0.512l32.256-17.408C68.096,262.656,69.12,259.584,67.584,257.024z"/>
	</g>
</g>
<g>
	<g>
		<path d="M102.912,293.888c-2.56-1.536-5.632-0.512-7.168,2.048L76.8,327.168c-1.536,2.56-0.512,5.632,1.536,7.168    c1.024,0.512,1.536,0.512,2.56,0.512c1.536,0,3.584-1.024,4.608-2.56l18.944-31.232    C105.984,298.496,104.96,295.424,102.912,293.888z"/>
	</g>
</g>
<g>
	<g>
		<path d="M151.552,308.736c-2.56,0-5.12,2.048-5.12,5.12l-1.024,36.352c0,3.072,2.048,5.12,5.12,5.12c2.56,0,5.12-2.048,5.12-5.12    l1.024-36.352C156.672,310.784,154.624,308.736,151.552,308.736z"/>
	</g>
</g>
<g>
	<g>
		<path d="M225.792,331.776l-16.896-32.256c-1.536-2.56-4.608-3.584-7.168-2.048c-2.56,1.536-3.584,4.608-2.048,7.168l16.896,32.256    c1.024,1.536,2.56,2.56,4.608,2.56c1.024,0,1.536,0,2.56-0.512C226.304,337.408,227.328,334.336,225.792,331.776z"/>
	</g>
</g>
<g>
	<g>
		<path d="M277.504,280.576l-30.72-19.456c-2.56-1.536-5.632-1.024-7.168,1.536s-1.024,5.632,1.536,7.168l30.72,19.456    c1.024,0.512,2.048,1.024,2.56,1.024c2.048,0,3.584-1.024,4.608-2.56C280.576,285.184,280.064,282.112,277.504,280.576z"/>
	</g>
</g>
<g>
	<g>
		<path d="M296.96,210.944l-36.352-2.048c-2.56,0-5.12,2.048-5.12,4.608c0,3.072,2.048,5.12,4.608,5.12l36.352,2.56    c2.56,0,5.12-2.048,5.12-5.12C301.568,212.992,299.52,210.944,296.96,210.944z"/>
	</g>
</g>
<g>
	<g>
		<path d="M286.208,142.848c-1.024-2.56-4.608-3.584-6.656-2.048l-32.768,16.384c-2.56,1.024-3.584,4.096-2.56,6.656    c1.024,1.536,2.56,2.56,4.608,2.56c1.024,0,1.536,0,2.56-0.512l32.768-16.384C286.72,148.48,287.744,144.896,286.208,142.848z"/>
	</g>
</g>
<g>
	<g>
		<path d="M236.032,87.04c-2.048-2.048-5.632-1.536-7.168,1.024l-19.968,30.208c-1.536,2.56-1.024,5.632,1.536,7.168    c1.024,0.512,2.048,1.024,3.072,1.024c1.536,0,3.072-1.024,4.096-2.048l19.968-30.208    C239.104,91.648,238.592,88.576,236.032,87.04z"/>
	</g>
</g>
<g>
</g>
<g>
</g>
<g>
</g>
<g>
</g>
<g>
</g>
<g>
</g>
<g>
</g>
<g>
</g>
<g>
</g>
<g>
</g>
<g>
</g>
<g>
</g>
<g>
</g>
<g>
</g>
<g>
</g>
</svg>
