<?xml version="1.0" encoding="iso-8859-1"?>
<!-- Generator: Adobe Illustrator 19.0.0, SVG Export Plug-In . SVG Version: 6.00 Build 0)  -->
<svg xmlns="http://www.w3.org/2000/svg" xmlns:xlink="http://www.w3.org/1999/xlink" version="1.1" id="Capa_1" x="0px" y="0px" viewBox="0 0 366.08 366.08" style="enable-background:new 0 0 366.08 366.08;" xml:space="preserve">
<g>
	<g>
		<circle cx="78.336" cy="316.416" r="7.168"/>
	</g>
</g>
<g>
	<g>
		<circle cx="110.08" cy="304.128" r="7.168"/>
	</g>
</g>
<g>
	<g>
		<circle cx="142.336" cy="291.84" r="7.168"/>
	</g>
</g>
<g>
	<g>
		<path d="M171.52,0C123.904,0,78.336,18.432,44.544,51.712c-1.024,1.024-1.536,2.56-1.536,4.096c0,1.536,0.512,2.56,2.048,3.584    c0,0,5.12,4.096,12.288,11.776C29.696,99.84,12.288,138.752,12.288,181.76c0,39.424,14.336,77.312,40.96,106.496l-6.656,2.56    c-2.048,0.512-3.072,2.56-3.072,4.608v65.536c0,3.072,2.048,5.12,5.12,5.12h300.032c3.072,0,5.12-2.048,5.12-5.12V182.784v-0.512    c0,0,0,0,0-0.512C353.28,81.408,271.872,0,171.52,0z M22.528,181.76c0-39.936,15.872-76.288,41.472-103.424    c26.112,28.672,71.168,89.088,81.92,174.592L62.976,284.16C36.864,256,22.528,220.16,22.528,181.76z M167.936,215.552    c18.432,0,33.28-14.848,33.28-33.28c0-18.432-14.848-33.28-33.28-33.28c-15.36,0-28.16,10.24-32.256,24.576    C116.736,126.464,89.6,91.648,71.168,71.68c26.624-24.064,61.44-38.912,100.352-38.912c82.432,0,148.992,67.072,148.992,148.992    c0,2.048,0,4.096,0,6.144l-164.352,61.44c-2.048-14.336-4.608-27.648-8.192-40.448C153.6,212.992,160.256,215.552,167.936,215.552    z M144.896,182.272c0-12.8,10.24-23.04,23.04-23.04s23.04,10.24,23.04,23.04c0,12.8-10.24,23.04-23.04,23.04    S144.896,195.072,144.896,182.272z M53.248,299.008L343.04,189.952v51.712L53.248,350.72V299.008z M343.552,355.84H68.608    l274.944-103.424V355.84z M331.264,183.808c0-0.512,0-1.536,0-2.048c0-88.064-71.68-159.744-159.744-159.744    c-41.472,0-78.848,15.872-107.008,41.472c-3.584-3.584-6.656-6.144-8.704-8.192C87.552,26.112,128.512,10.24,172.032,10.24    c93.696,0,169.984,75.776,171.52,168.96L331.264,183.808z"/>
	</g>
</g>
<g>
	<g>
		<path d="M73.728,109.568c-2.56-1.536-5.632-0.512-7.168,1.536c-12.8,20.48-19.456,44.544-19.456,68.608    c0,12.8,2.048,25.088,5.12,36.864c0.512,2.048,2.56,3.584,5.12,3.584c0.512,0,1.024,0,1.536,0c2.56-1.024,4.096-3.584,3.584-6.144    c-3.072-11.264-5.12-22.528-5.12-34.304c0-22.528,6.144-44.544,17.92-63.488C76.8,114.176,76.288,111.104,73.728,109.568z"/>
	</g>
</g>
<g>
</g>
<g>
</g>
<g>
</g>
<g>
</g>
<g>
</g>
<g>
</g>
<g>
</g>
<g>
</g>
<g>
</g>
<g>
</g>
<g>
</g>
<g>
</g>
<g>
</g>
<g>
</g>
<g>
</g>
</svg>
