<?xml version="1.0" encoding="iso-8859-1"?>
<!-- Generator: Adobe Illustrator 19.0.0, SVG Export Plug-In . SVG Version: 6.00 Build 0)  -->
<svg xmlns="http://www.w3.org/2000/svg" xmlns:xlink="http://www.w3.org/1999/xlink" version="1.1" id="Capa_1" x="0px" y="0px" viewBox="0 0 392.711 392.711" style="enable-background:new 0 0 392.711 392.711;" xml:space="preserve">
<g>
	<g>
		<path d="M62.471,21.763c-34.816,0-62.464,28.16-62.464,62.464c-0.512,34.304,27.648,62.464,62.464,62.464    c34.816,0,62.464-28.16,62.464-62.464C124.935,49.411,96.775,21.763,62.471,21.763z M62.471,135.939    c-28.672,0-52.224-23.552-52.224-52.224c-0.512-28.672,23.04-52.224,52.224-52.224c28.672,0,52.224,23.552,52.224,52.224    C114.695,112.387,91.143,135.939,62.471,135.939z"/>
	</g>
</g>
<g>
	<g>
		<path d="M307.207,5.891c-47.104,0-85.504,38.4-85.504,85.504s38.4,85.504,85.504,85.504s85.504-38.4,85.504-85.504    S354.311,5.891,307.207,5.891z M312.327,116.483h65.536c-1.024,2.56-2.048,4.608-3.072,7.168h-34.304    c-3.072,0-5.12,2.048-5.12,5.12c0,3.072,2.048,5.12,5.12,5.12h28.16c-13.824,19.456-36.352,32.256-61.952,32.256    c-39.936,0-72.704-31.232-75.264-70.144h54.784c3.072,0,5.12-2.048,5.12-5.12c0-3.072-2.048-5.12-5.12-5.12h-54.272    c0.512-4.096,1.024-7.68,1.536-11.776h68.096c3.072,0,5.12-2.048,5.12-5.12s-2.048-5.12-5.12-5.12h-64.512    c10.752-28.16,37.888-48.128,70.144-48.128c22.016,0,41.984,9.728,55.808,25.088h-32.256c-3.072,0-5.12,2.048-5.12,5.12    c0,3.072,2.048,5.12,5.12,5.12h39.936h0.512c7.168,11.776,11.776,25.6,11.776,39.936c0,5.12-0.512,10.752-1.536,15.36h-69.12    c-3.072,0-5.12,2.048-5.12,5.12C307.207,114.435,309.255,116.483,312.327,116.483z"/>
	</g>
</g>
<g>
	<g>
		<path d="M328.711,123.651h-19.968c-3.072,0-5.12,2.56-5.12,5.12c0,3.072,2.048,5.12,5.12,5.12h19.968    c3.072,0,5.12-2.048,5.12-5.12C333.831,125.699,331.783,123.651,328.711,123.651z"/>
	</g>
</g>
<g>
	<g>
		<path d="M171.015,151.299c-65.024,0-117.76,52.736-117.76,117.76s52.736,117.76,117.76,117.76s117.76-52.736,117.76-117.76    S236.039,151.299,171.015,151.299z M171.015,161.539c31.232,0,58.88,13.312,78.336,34.304c-5.12-1.024-8.704-2.56-12.8-4.096    c-7.68-3.072-15.872-6.144-32.256-6.144c-16.384,0-25.088,3.072-32.768,6.144c-7.68,2.56-14.848,5.12-29.696,5.12    c-14.848,0-22.016-2.56-29.696-5.12c-3.584-1.536-7.168-2.56-11.776-3.584C119.303,171.779,143.879,161.539,171.015,161.539z     M91.655,196.867c7.168,1.024,12.288,2.56,17.408,4.608c8.192,3.072,16.384,6.144,32.768,6.144    c16.384,0,25.088-3.072,32.768-6.144c7.68-2.56,14.848-5.12,29.696-5.12c14.848,0,21.504,2.56,28.672,5.12    c6.656,2.56,13.824,5.12,26.112,5.632c8.192,11.776,14.336,25.6,17.408,40.448c-13.824-0.512-21.504-3.072-29.696-5.12    c-9.216-3.072-18.944-6.144-37.888-6.144c-18.944,0-28.672,3.072-37.888,6.144c-9.216,2.56-17.408,5.632-34.816,5.632    c-17.408,0-26.112-2.56-34.816-5.632c-8.192-2.56-16.896-5.12-32.768-5.632C73.223,221.955,81.415,208.643,91.655,196.867z     M171.015,376.579c-26.112-0.512-50.176-9.728-69.12-25.6c2.56,0.512,4.608,1.536,7.168,2.56    c8.192,3.072,16.384,6.144,33.28,6.144c16.384,0,25.088-3.072,33.28-6.144c7.68-2.56,14.848-5.12,29.696-5.12    c14.848,0,22.016,2.56,29.696,5.12c0.512,0,1.024,0.512,1.536,0.512C218.631,367.875,195.591,376.579,171.015,376.579z     M245.767,346.371c-2.56-0.512-4.608-1.536-7.168-2.56c-8.192-3.072-16.384-6.144-33.28-6.144c-16.384,0-25.088,3.072-33.28,6.144    c-7.68,2.56-14.848,5.12-29.696,5.12c-14.848,0-22.016-2.56-29.696-5.12c-6.144-2.048-12.8-4.608-23.552-5.632    c-9.728-11.776-17.408-25.6-21.504-40.96c13.824,0.512,20.992,3.072,29.184,5.12c9.216,3.072,18.944,6.144,37.376,6.144    c18.944,0,28.16-3.072,37.376-6.144c8.704-2.56,17.408-5.632,34.304-5.632c17.408,0,25.6,2.56,34.304,5.632    c8.192,2.56,16.384,5.12,30.72,5.632C265.223,322.819,256.519,335.619,245.767,346.371z M243.719,293.123    c-9.216-3.072-18.944-6.144-37.376-6.144c-18.944,0-28.16,3.072-37.376,6.144c-8.704,2.56-17.408,5.632-34.304,5.632    c-17.408,0-25.6-2.56-34.304-5.632c-8.704-2.56-17.92-5.632-34.304-5.632c-1.536-6.144-2.56-12.288-2.56-18.432    c0-7.68,1.024-14.848,2.56-22.016c15.36,0.512,23.552,2.56,32.256,5.12c9.216,3.072,18.944,6.144,37.888,6.144    c18.944,0,28.672-3.072,37.888-6.144c9.216-2.56,17.408-5.632,34.816-5.632c17.408,0,26.112,2.56,34.816,5.632    c8.704,2.56,17.92,5.632,34.304,5.632c0.512,3.584,0.512,7.168,0.512,10.752c0,10.24-1.536,19.968-4.096,29.696    C259.591,297.731,251.911,295.683,243.719,293.123z"/>
	</g>
</g>
<g>
</g>
<g>
</g>
<g>
</g>
<g>
</g>
<g>
</g>
<g>
</g>
<g>
</g>
<g>
</g>
<g>
</g>
<g>
</g>
<g>
</g>
<g>
</g>
<g>
</g>
<g>
</g>
<g>
</g>
</svg>
