<?xml version="1.0" encoding="iso-8859-1"?>
<!-- Generator: Adobe Illustrator 19.0.0, SVG Export Plug-In . SVG Version: 6.00 Build 0)  -->
<svg xmlns="http://www.w3.org/2000/svg" xmlns:xlink="http://www.w3.org/1999/xlink" version="1.1" id="Capa_1" x="0px" y="0px" viewBox="0 0 391.96 391.96" style="enable-background:new 0 0 391.96 391.96;" xml:space="preserve">
<g>
	<g>
		<path d="M370.456,119.576c-10.752,0-19.456,8.704-19.456,19.456c0,10.752,8.704,19.456,19.456,19.456    c10.752,0,19.456-8.704,19.456-19.456C389.912,128.28,381.208,119.576,370.456,119.576z M370.456,148.248    c-5.12,0-9.216-4.096-9.216-9.216c0-5.12,4.096-9.216,9.216-9.216c5.12,0,9.216,4.096,9.216,9.216    C379.672,144.152,375.576,148.248,370.456,148.248z"/>
	</g>
</g>
<g>
	<g>
		<path d="M58.648,310.04c-10.752,0-19.456,8.704-19.456,19.456s8.704,19.456,19.456,19.456c10.752,0,19.456-8.704,19.456-19.456    C78.104,318.744,69.4,310.04,58.648,310.04z M59.16,338.712c-5.12,0-9.216-4.096-9.216-9.216s4.096-9.216,9.216-9.216    s9.216,4.096,9.216,9.216S64.28,338.712,59.16,338.712z"/>
	</g>
</g>
<g>
	<g>
		<path d="M259.352,20.248c-10.752,0-19.456,8.704-19.456,19.456c0,10.752,8.704,19.456,19.456,19.456    c10.752,0,19.456-8.704,19.456-19.456C278.808,28.952,270.104,20.248,259.352,20.248z M259.352,49.432    c-5.12,0-9.216-4.096-9.216-9.216c0-5.632,4.096-9.216,9.216-9.216c5.12,0,9.216,4.096,9.216,9.216S264.472,49.432,259.352,49.432    z"/>
	</g>
</g>
<g>
	<g>
		<circle cx="95" cy="282.392" r="5.632"/>
	</g>
</g>
<g>
	<g>
		<circle cx="364.824" cy="25.88" r="5.632"/>
	</g>
</g>
<g>
	<g>
		<circle cx="33.56" cy="246.552" r="5.632"/>
	</g>
</g>
<g>
	<g>
		<path d="M134.424,342.296c-4.096,0-8.192,1.536-11.264,4.608c-3.072,3.072-4.608,7.168-5.12,11.264    c0,8.704,6.656,15.872,15.872,15.872c8.704,0,15.872-7.168,15.872-15.36C149.784,349.976,143.128,342.296,134.424,342.296z     M133.912,363.8c-3.072,0-5.632-2.56-5.632-5.632c0-1.536,0.512-3.072,1.536-4.096c1.024-1.024,2.56-1.536,4.096-1.536    c3.072,0,5.632,2.56,5.632,5.632C139.544,361.24,136.984,363.8,133.912,363.8z"/>
	</g>
</g>
<g>
	<g>
		<path d="M348.44,57.624c-8.704-0.512-16.384,6.656-16.384,15.872c0,8.704,6.656,16.384,15.872,16.384s16.384-7.168,16.384-15.872    S357.656,57.624,348.44,57.624z M347.928,79.64c-3.072,0-5.632-2.56-5.632-6.144c0-3.072,2.56-5.632,6.144-5.632    c3.072,0,5.632,2.56,5.632,6.144C354.072,77.08,351,79.64,347.928,79.64z"/>
	</g>
</g>
<g>
	<g>
		<path d="M361.752,230.168L263.96,111.384c-2.048-2.048-5.12-2.56-7.168-0.512c-2.048,2.048-2.56,5.12-0.512,7.168l97.792,118.784    c31.232,37.888,25.6,94.208-12.288,124.928c-18.432,14.848-41.472,22.016-65.024,19.968c-23.552-2.56-45.056-13.824-59.904-32.256    L14.104,102.68c-2.048-2.048-5.12-2.56-7.168-0.512c-2.048,2.048-2.56,5.12-0.512,7.168l202.24,246.272    c16.896,20.48,40.448,33.28,67.072,35.84c3.072,0.512,6.656,0.512,9.728,0.512c23.04,0,45.056-7.68,62.976-22.528    C390.424,334.616,396.568,272.152,361.752,230.168z"/>
	</g>
</g>
<g>
	<g>
		<path d="M333.592,239.896c-11.776-14.336-28.672-23.552-47.616-25.6c-18.944-2.048-36.864,3.584-51.712,15.872    c-14.336,11.776-23.552,28.672-25.6,47.616c-2.048,18.944,3.584,36.864,15.872,51.712c14.336,16.896,34.304,25.6,54.784,25.6    c15.872,0,31.744-5.12,44.544-15.872c14.336-11.776,23.552-28.672,25.6-47.616C351.512,272.664,345.88,254.744,333.592,239.896z     M338.712,290.584c-1.536,15.872-9.216,30.208-21.504,40.448c-25.6,20.992-63.488,17.408-84.992-8.192    c-9.728-12.288-14.336-28.16-12.8-44.032s9.216-30.208,21.504-40.448c10.752-8.704,24.064-13.824,37.888-13.824    c2.048,0,4.096,0,6.144,0.512c15.872,1.536,30.208,9.216,40.448,21.504C335.64,258.84,340.248,274.712,338.712,290.584z"/>
	</g>
</g>
<g>
	<g>
		<path d="M174.36,238.36L11.032,39.192c-2.048-2.048-5.12-2.56-7.168-0.512c-2.048,2.048-2.56,5.12-0.512,7.168L166.68,244.504    c1.024,1.024,2.56,2.048,4.096,2.048c1.024,0,2.048-0.512,3.072-1.024C175.896,243.48,176.408,240.408,174.36,238.36z"/>
	</g>
</g>
<g>
	<g>
		<path d="M207.128,197.4L118.04,87.832c-2.048-2.048-5.12-2.56-7.168-0.512c-2.048,2.048-2.56,5.12-0.512,7.168l89.088,109.056    c1.024,1.024,2.56,2.048,4.096,2.048c1.024,0,2.048-0.512,3.072-1.024C208.664,202.52,209.176,199.448,207.128,197.4z"/>
	</g>
</g>
<g>
	<g>
		<path d="M262.424,173.336L122.136,1.816c-2.048-2.048-5.12-2.56-7.168-0.512c-2.048,2.048-2.56,5.12-0.512,7.168L254.744,179.48    c1.024,1.024,2.56,2.048,4.096,2.048c1.024,0,2.048-0.512,3.072-1.024C263.96,178.456,264.472,175.384,262.424,173.336z"/>
	</g>
</g>
<g>
</g>
<g>
</g>
<g>
</g>
<g>
</g>
<g>
</g>
<g>
</g>
<g>
</g>
<g>
</g>
<g>
</g>
<g>
</g>
<g>
</g>
<g>
</g>
<g>
</g>
<g>
</g>
<g>
</g>
</svg>
