<?xml version="1.0" encoding="iso-8859-1"?>
<!-- Generator: Adobe Illustrator 19.0.0, SVG Export Plug-In . SVG Version: 6.00 Build 0)  -->
<svg xmlns="http://www.w3.org/2000/svg" xmlns:xlink="http://www.w3.org/1999/xlink" version="1.1" id="Capa_1" x="0px" y="0px" viewBox="0 0 387.072 387.072" style="enable-background:new 0 0 387.072 387.072;" xml:space="preserve">
<g>
	<g>
		<path d="M358.912,158.72C342.528,73.728,267.776,12.288,181.248,12.288c-57.344,0-108.544,27.136-141.824,68.608    c-1.536,0-2.56,0-3.584,0c-8.192,0-14.848,6.656-14.848,14.848c0,3.072,1.024,6.144,2.56,8.192C8.704,130.56,0,161.28,0,193.536    C0,256,31.744,310.784,79.36,343.552c0,1.024,0,1.536,0,2.56c0,8.192,6.656,14.848,14.848,14.848c3.584,0,7.168-1.536,9.728-3.584    c23.552,11.264,49.664,17.408,77.312,17.408c88.576,0,165.376-65.536,178.688-152.576c15.36-2.56,27.136-15.36,27.136-31.744    C387.072,174.08,374.784,160.768,358.912,158.72z M181.248,364.032c-25.6,0-50.176-5.632-72.192-15.872    c0-1.024,0.512-1.536,0.512-2.56c0-8.192-6.656-14.848-14.848-14.848c-3.584,0-7.168,1.536-9.728,3.584    c-45.568-30.72-74.752-82.432-74.752-140.8c0-30.208,7.68-58.368,21.504-83.456c1.536,0.512,2.56,0.512,4.096,0.512    c8.192,0,14.848-6.656,14.848-14.848c0-3.584-1.024-6.656-3.072-9.216c31.744-38.912,79.872-64,133.632-64    c81.408,0,151.04,57.344,167.424,136.704c-14.336,3.072-25.6,15.872-25.6,31.232c0,15.872,11.264,28.672,26.624,31.232    C335.872,303.104,264.192,364.032,181.248,364.032z M355.328,211.968c-11.776,0-21.504-9.728-21.504-21.504    s9.728-21.504,21.504-21.504s21.504,9.728,21.504,21.504S367.104,211.968,355.328,211.968z"/>
	</g>
</g>
<g>
	<g>
		<path d="M301.056,193.536c0-66.048-53.76-119.808-119.808-119.808c-3.072,0-5.632,0-8.704,0.512    c-2.56-8.192-10.24-13.824-19.456-13.824c-11.264,0-20.48,9.216-20.48,20.48c0,1.024,0,2.048,0.512,3.072    c-44.032,19.456-71.68,61.952-71.68,109.568c0,66.048,53.76,119.808,119.808,119.808c24.576,0,47.104-7.168,66.048-19.968    c2.048,1.024,4.096,1.536,6.656,1.536c8.192,0,14.848-6.656,14.848-14.848c0-1.536-0.512-3.072-0.512-4.608    C288.256,253.952,301.056,225.28,301.056,193.536z M153.088,70.656c5.632,0,10.24,4.608,10.24,10.24s-4.608,10.24-10.24,10.24    c-5.632,0-10.24-4.608-10.24-10.24S147.456,70.656,153.088,70.656z M262.144,267.264c-2.56-1.536-5.12-2.56-8.192-2.56    c-8.192,0-14.848,6.656-14.848,14.848c0,2.048,0.512,4.096,1.024,5.632c-16.896,10.752-37.376,17.408-58.88,17.408    c-60.416,0.512-109.568-48.64-109.568-109.056c0-43.52,25.6-82.432,65.024-99.84c3.584,5.12,9.728,8.192,16.384,8.192    c10.24,0,18.432-7.68,20.48-17.408c2.56,0,5.12-0.512,7.68-0.512c60.416,0,109.568,49.152,109.568,109.568    C290.816,221.696,280.064,247.808,262.144,267.264z"/>
	</g>
</g>
<g>
	<g>
		<path d="M181.248,133.632c-33.28,0-60.928,26.624-60.928,59.904c0,33.792,27.136,60.928,60.928,60.928    c33.28,0,60.416-27.136,60.416-60.416C241.664,160.768,214.528,133.632,181.248,133.632z M181.248,243.712    c-27.648,0-50.176-22.528-50.176-50.176c-0.512-27.648,22.016-50.176,50.176-50.176c27.648,0,50.176,22.528,50.176,50.176    S208.896,243.712,181.248,243.712z"/>
	</g>
</g>
<g>
</g>
<g>
</g>
<g>
</g>
<g>
</g>
<g>
</g>
<g>
</g>
<g>
</g>
<g>
</g>
<g>
</g>
<g>
</g>
<g>
</g>
<g>
</g>
<g>
</g>
<g>
</g>
<g>
</g>
</svg>
