<?xml version="1.0" encoding="iso-8859-1"?>
<!-- Generator: Adobe Illustrator 19.0.0, SVG Export Plug-In . SVG Version: 6.00 Build 0)  -->
<svg xmlns="http://www.w3.org/2000/svg" xmlns:xlink="http://www.w3.org/1999/xlink" version="1.1" id="Capa_1" x="0px" y="0px" viewBox="0 0 402.582 402.582" style="enable-background:new 0 0 402.582 402.582;" xml:space="preserve">
<g>
	<g>
		<path d="M87.723,286.358c-2.048-2.048-5.12-2.048-7.168,0L69.803,297.11c-2.048,2.048-2.048,5.12,0,7.168    c1.024,1.024,2.048,1.536,3.584,1.536c1.536,0,2.56-0.512,3.584-1.536l10.752-10.752    C89.771,291.478,89.771,288.406,87.723,286.358z"/>
	</g>
</g>
<g>
	<g>
		<path d="M64.683,336.022c-2.048-2.048-5.12-2.048-7.168,0L1.707,391.83c-2.048,2.048-2.048,5.12,0,7.168    c1.024,1.024,2.56,1.536,3.584,1.536c1.536,0,2.56-0.512,3.584-1.536l55.808-55.808C66.731,341.142,66.731,338.07,64.683,336.022z    "/>
	</g>
</g>
<g>
	<g>
		<path d="M397.483,8.854c-0.512-1.536-2.048-3.072-3.584-3.584c-65.024-19.456-103.936,20.992-106.496,24.064l-133.12,133.12    l-0.512-0.512c-2.048-2.048-4.608-2.048-6.656-0.512l-68.096,51.712c-1.024,1.024-2.048,2.048-2.048,3.584    s0.512,3.072,1.536,4.096l8.704,8.704l-14.336,14.336c-2.048,2.048-2.048,5.12,0,7.168l3.584,3.584l-55.296,54.784    c-2.048,2.048-2.048,5.12,0,7.168c1.024,1.024,2.048,1.536,3.584,1.536s2.56-0.512,3.584-1.536l54.784-54.784l24.576,24.576    l-36.864,36.864c-2.048,2.048-2.048,5.12,0,7.168c1.024,1.024,2.56,1.536,3.584,1.536c1.536,0,2.56-0.512,3.584-1.536    l36.864-36.864l6.656,6.656L48.299,373.91c-2.048,2.048-2.048,5.12,0,7.168c1.024,1.024,2.56,1.536,3.584,1.536    c1.536,0,2.56-0.512,3.584-1.536l73.728-73.216l19.456,19.456c1.024,1.024,2.048,1.536,3.584,1.536s2.56-0.512,3.584-1.536    l14.336-14.336l10.752,10.752c1.024,1.024,2.048,1.536,3.584,1.536c0,0,0,0,0.512,0c1.536,0,3.072-1.024,3.584-2.048    l51.712-68.096c1.536-2.048,1.536-5.12-0.512-6.656l133.12-133.12C377.003,111.254,415.915,73.366,397.483,8.854z     M152.235,316.054l-69.12-68.608l11.264-10.752l68.608,68.608L152.235,316.054z M183.467,311.958L89.771,217.75l59.904-45.568    l79.36,79.872L183.467,311.958z M232.107,240.278l-70.656-70.656L290.987,40.086l70.656,70.656L232.107,240.278z M368.811,103.574    l-70.656-70.656c10.24-9.216,42.496-32.256,90.112-19.456C401.067,62.614,378.027,93.846,368.811,103.574z"/>
	</g>
</g>
<g>
	<g>
		<path d="M64.171,309.398c-2.048-2.048-5.12-2.048-7.168,0l-40.96,40.96c-2.048,2.048-2.048,5.12,0,7.168    c1.024,1.024,2.56,1.536,3.584,1.536c1.536,0,2.56-0.512,3.584-1.536l40.96-40.96C66.219,314.518,66.219,311.446,64.171,309.398z"/>
	</g>
</g>
<g>
	<g>
		<path d="M77.483,383.126c-2.048-2.048-5.12-2.048-7.168,0l-10.752,10.752c-2.048,2.048-2.048,5.12,0,7.168    c1.024,1.024,2.048,1.536,3.584,1.536c1.536,0,2.56-0.512,3.584-1.536l10.752-10.752    C79.531,388.246,79.531,385.174,77.483,383.126z"/>
	</g>
</g>
<g>
	<g>
		<path d="M131.243,329.366c-2.048-2.048-5.12-2.048-7.168,0l-40.96,40.96c-2.048,2.048-2.048,5.12,0,7.168    c1.024,1.024,2.56,1.536,3.584,1.536c1.536,0,2.56-0.512,3.584-1.536l40.96-40.96    C133.291,334.486,133.291,331.414,131.243,329.366z"/>
	</g>
</g>
<g>
	<g>
		<path d="M314.027,88.726c-6.144-6.144-14.848-9.728-23.552-9.728s-17.408,3.584-23.552,9.728    c-6.144,6.144-9.728,14.848-9.728,23.552c0,8.704,3.584,16.896,9.728,23.552c6.144,6.144,14.848,9.728,23.552,9.728    s17.408-3.584,23.552-9.728C326.827,123.03,326.827,101.526,314.027,88.726z M306.859,128.15c-9.216,9.216-23.552,9.216-32.768,0    c-8.704-8.704-8.704-23.552,0-32.768c4.608-4.608,10.24-6.656,16.384-6.656s11.776,2.048,16.384,6.656    C316.075,104.598,316.075,118.934,306.859,128.15z"/>
	</g>
</g>
<g>
	<g>
		<path d="M302.251,98.966c-6.144-6.144-16.896-6.144-23.04,0c-2.048,2.048-2.048,5.12,0,7.168c1.536,1.024,2.56,1.536,4.096,1.536    s2.56-0.512,3.584-1.536c2.048-2.048,6.144-2.048,8.192,0c2.048,2.048,5.12,2.048,7.168,0    C304.299,104.086,304.299,101.014,302.251,98.966z"/>
	</g>
</g>
<g>
</g>
<g>
</g>
<g>
</g>
<g>
</g>
<g>
</g>
<g>
</g>
<g>
</g>
<g>
</g>
<g>
</g>
<g>
</g>
<g>
</g>
<g>
</g>
<g>
</g>
<g>
</g>
<g>
</g>
</svg>
