<?xml version="1.0" encoding="iso-8859-1"?>
<!-- Generator: Adobe Illustrator 19.0.0, SVG Export Plug-In . SVG Version: 6.00 Build 0)  -->
<svg xmlns="http://www.w3.org/2000/svg" xmlns:xlink="http://www.w3.org/1999/xlink" version="1.1" id="Capa_1" x="0px" y="0px" viewBox="0 0 391.233 391.233" style="enable-background:new 0 0 391.233 391.233;" xml:space="preserve">
<g>
	<g>
		<path d="M135.036,192.065c-2.56-5.632-7.168-10.24-12.8-12.8c-5.632-2.56-12.288-2.048-17.92,0c-5.632,2.56-10.24,7.168-12.8,12.8    c-2.56,5.632-2.048,12.288,0,17.92c3.584,9.728,12.288,14.848,21.504,14.848c3.072,0,6.144-0.512,9.216-2.048    c5.632-2.56,10.24-7.168,12.8-12.8C137.596,204.353,137.085,197.697,135.036,192.065z M125.308,206.913    c-1.536,3.072-3.584,5.632-7.168,7.168c-6.656,3.072-14.336-0.512-17.408-7.168c-1.024-3.072-1.536-6.656,0-10.24    c1.536-3.072,3.584-5.632,7.168-7.168c1.536-0.512,3.584-1.024,5.12-1.024c1.536,0,3.584,0.512,5.12,1.024    c3.072,1.536,5.632,3.584,7.168,7.168C126.845,199.745,126.845,203.329,125.308,206.913z"/>
	</g>
</g>
<g>
	<g>
		<path d="M196.988,165.441c-2.56-5.632-7.168-10.24-12.8-12.8s-12.288-2.048-17.92,0c-5.632,2.56-10.24,7.168-12.8,12.8    c-2.56,5.632-2.048,12.288,0,17.92c3.072,6.656,7.68,11.264,13.312,13.312c3.072,1.024,5.632,1.536,8.704,1.536    c3.072,0,6.144-0.512,9.216-2.048C196.476,191.041,202.108,177.217,196.988,165.441z M180.605,187.457    c-3.072,1.536-6.656,1.536-10.24,0c-3.072-1.536-5.632-3.584-7.168-7.168c-1.024-3.072-1.024-6.656,0-10.24    c1.536-3.072,3.584-5.632,7.168-7.168c1.536-0.512,3.584-1.024,5.12-1.024c1.536,0,3.584,0.512,5.12,1.024    c3.072,1.536,5.632,3.584,7.168,7.168C190.845,176.705,187.261,184.385,180.605,187.457z"/>
	</g>
</g>
<g>
	<g>
		<path d="M259.965,139.329c-5.12-11.776-18.944-17.408-30.72-12.288s-17.408,18.944-12.288,30.72    c2.048,5.632,6.656,10.24,12.288,12.8c3.072,1.024,5.632,1.536,8.704,1.536c3.072,0,6.144-0.512,9.216-2.048    c5.632-2.56,10.24-7.168,12.8-12.8C262.525,151.617,262.012,144.961,259.965,139.329z M250.236,153.665    c-1.536,3.072-3.584,5.632-7.168,7.168c-6.656,3.072-14.336-0.512-17.408-7.168c-2.56-6.656,0.512-14.336,7.168-17.408    c1.536-0.512,3.584-1.024,5.12-1.024c5.12,0,10.24,3.072,12.288,8.192C251.772,146.497,251.772,150.081,250.236,153.665z"/>
	</g>
</g>
<g>
	<g>
		<path d="M236.413,79.937c-5.632-12.288-13.312-23.04-23.552-32.256c-2.048-2.048-5.12-1.536-7.168,0.512    c-2.048,2.048-1.536,5.12,0.512,7.168c9.216,7.68,15.872,17.408,20.992,28.672c1.024,2.048,2.56,3.072,4.608,3.072    c0.512,0,1.536,0,2.048-0.512C236.413,85.569,237.436,82.497,236.413,79.937z"/>
	</g>
</g>
<g>
	<g>
		<path d="M199.036,37.953c-24.576-14.336-53.248-15.872-79.36-5.12c-2.56,1.024-3.584,4.096-2.56,6.656s4.096,3.584,6.656,2.56    c23.04-9.728,48.64-8.192,70.144,4.608c1.024,0.512,1.536,0.512,2.56,0.512c1.536,0,3.584-1.024,4.608-2.56    C202.621,42.561,201.596,39.489,199.036,37.953z"/>
	</g>
</g>
<g>
	<g>
		<path d="M371.069,361.025l-110.592-168.96l11.776-5.12l37.376,23.552c1.024,0.512,1.536,1.024,2.56,1.024    c1.536,0,3.584-1.024,4.608-2.56c1.536-2.56,0.512-5.632-1.536-7.168l-31.744-19.456l19.968-8.704    c12.288-5.12,21.504-14.848,26.112-26.624c5.12-12.288,4.608-25.6-0.512-37.376c-5.12-12.288-14.848-21.504-26.624-26.112    c-12.288-5.12-25.6-4.608-37.376,0.512h-0.512l-5.12-11.776c-12.288-29.184-35.328-51.712-64.512-63.488    s-61.44-11.776-90.624,0.512c-59.904,25.6-88.064,95.232-62.464,155.136l5.12,11.776h-0.512    c-25.088,10.752-36.352,39.424-26.112,64.512c8.704,18.432,27.136,29.696,46.08,29.696c6.144,0,12.8-1.024,18.944-4.096    l19.968-8.704l-7.68,36.352c-0.512,2.56,1.024,5.632,4.096,6.144c0.512,0,0.512,0,1.024,0c2.56,0,4.608-1.536,5.12-4.096    l9.216-43.008l11.776-5.12l9.216,120.832c0,5.632,5.12,12.288,37.376,17.408c21.504,3.584,50.176,5.12,80.896,5.12    c30.72,0,59.392-2.048,80.896-5.12c33.28-5.12,37.376-11.776,37.376-17.92C374.652,365.633,374.141,363.585,371.069,361.025z     M109.436,19.009c26.624-11.264,55.808-11.264,82.432-0.512c26.624,10.752,47.616,31.232,58.88,57.856l5.12,11.776L57.212,172.097    l-5.12-11.776C28.54,105.537,54.652,42.049,109.436,19.009z M81.277,257.089c-19.456,8.192-42.496-1.024-50.688-20.48    c-4.096-9.728-4.096-19.968,0-29.696c4.096-9.728,11.264-16.896,20.992-20.992l218.112-92.672c5.12-2.048,10.24-3.072,15.36-3.072    s9.728,1.024,14.336,3.072c9.728,4.096,16.896,11.264,20.992,20.992c4.096,9.728,4.096,19.968,0,29.696    c-4.096,9.728-11.264,16.896-20.992,20.992L81.277,257.089z M138.621,244.289l112.64-47.616l102.912,157.696    c-4.608-1.024-10.24-2.56-16.896-3.584c-21.504-3.584-50.176-5.12-80.896-5.12c-30.72,0-59.392,2.048-80.896,5.12    c-13.824,2.048-22.528,4.608-28.16,7.168L138.621,244.289z M363.388,369.217c-7.68,5.12-47.104,12.288-107.008,12.288    c-60.416,0-99.84-7.168-107.52-12.8c7.68-5.632,47.104-12.8,107.52-12.8c59.392,0,98.816,7.168,107.008,12.8V369.217z"/>
	</g>
</g>
<g>
</g>
<g>
</g>
<g>
</g>
<g>
</g>
<g>
</g>
<g>
</g>
<g>
</g>
<g>
</g>
<g>
</g>
<g>
</g>
<g>
</g>
<g>
</g>
<g>
</g>
<g>
</g>
<g>
</g>
</svg>
