<?xml version="1.0" encoding="iso-8859-1"?>
<!-- Generator: Adobe Illustrator 19.0.0, SVG Export Plug-In . SVG Version: 6.00 Build 0)  -->
<svg version="1.1" id="Capa_1" xmlns="http://www.w3.org/2000/svg" xmlns:xlink="http://www.w3.org/1999/xlink" x="0px" y="0px"
	 viewBox="0 0 512 512" style="enable-background:new 0 0 512 512;" xml:space="preserve">
<g transform="translate(1 1)">
	<g>
		<g>
			<path d="M451.267,255h-9.654l25.287-37.931c2.62-3.925,1.562-9.224-2.364-11.836c-3.934-2.628-9.233-1.553-11.836,2.364
				l-34.083,51.125c-0.177,0.259-0.338,0.528-0.486,0.806c-0.034,0.064-0.061,0.13-0.094,0.195c-0.091,0.181-0.18,0.363-0.258,0.552
				c-0.055,0.133-0.099,0.269-0.147,0.403c-0.043,0.122-0.091,0.242-0.128,0.366c-0.061,0.2-0.109,0.401-0.155,0.603
				c-0.014,0.064-0.033,0.127-0.046,0.191c-0.123,0.606-0.179,1.218-0.169,1.827v25.468H383V50.2c14.114,0,25.6-11.486,25.6-25.6
				S397.114-1,383-1H58.733c-14.114,0-25.6,11.486-25.6,25.6s11.486,25.6,25.6,25.6v409.6c-14.114,0-25.6,11.486-25.6,25.6
				s11.486,25.6,25.6,25.6H383c14.114,0,25.6-11.486,25.6-25.6s-11.486-25.6-25.6-25.6V348.867h34.133v22.204
				c0,5.453,2.125,10.59,5.999,14.481c3.874,3.857,9.003,5.982,14.464,5.982c16.879,0,31.411-12.604,33.792-29.312
				c3.635-25.429,5.478-51.371,5.478-77.09V280.6C476.867,266.486,465.381,255,451.267,255z M50.2,24.6
				c0-4.702,3.831-8.533,8.533-8.533H383c4.71,0,8.533,3.831,8.533,8.533c0,4.702-3.823,8.533-8.533,8.533h-8.533h-307.2h-8.533
				C54.031,33.133,50.2,29.302,50.2,24.6z M365.933,50.2v247.467v42.667V357.4H75.8V50.2H365.933z M391.533,485.4
				c0,4.71-3.823,8.533-8.533,8.533H58.733c-4.702,0-8.533-3.823-8.533-8.533s3.831-8.533,8.533-8.533h8.533h307.2H383
				C387.71,476.867,391.533,480.69,391.533,485.4z M75.8,459.8v-85.333h290.133V459.8H75.8z M383,331.8v-25.6h34.133v25.6H383z
				 M459.8,285.131c0,24.917-1.784,50.048-5.316,74.675c-1.186,8.363-8.448,14.66-16.888,14.66c-0.904,0-1.766-0.358-2.398-0.981
				c-0.64-0.648-0.998-1.51-0.998-2.415v-30.737v-42.667v-25.6h17.067c4.71,0,8.533,3.823,8.533,8.533V285.131z"/>
			<path d="M220.867,391.533c-14.114,0-25.6,11.486-25.6,25.6s11.486,25.6,25.6,25.6s25.6-11.486,25.6-25.6
				S234.981,391.533,220.867,391.533z M220.867,425.667c-4.702,0-8.533-3.823-8.533-8.533s3.831-8.533,8.533-8.533
				c4.702,0,8.533,3.823,8.533,8.533S225.569,425.667,220.867,425.667z"/>
			<path d="M186.733,118.467H255c14.114,0,25.6-11.486,25.6-25.6s-11.486-25.6-25.6-25.6h-68.267c-14.114,0-25.6,11.486-25.6,25.6
				S172.619,118.467,186.733,118.467z M186.733,84.333H255c4.702,0,8.533,3.831,8.533,8.533c0,4.702-3.831,8.533-8.533,8.533
				h-68.267c-4.702,0-8.533-3.831-8.533-8.533C178.2,88.165,182.031,84.333,186.733,84.333z"/>
		</g>
	</g>
</g>
<g>
</g>
<g>
</g>
<g>
</g>
<g>
</g>
<g>
</g>
<g>
</g>
<g>
</g>
<g>
</g>
<g>
</g>
<g>
</g>
<g>
</g>
<g>
</g>
<g>
</g>
<g>
</g>
<g>
</g>
</svg>
