<?xml version="1.0" encoding="iso-8859-1"?>
<!-- Generator: Adobe Illustrator 19.0.0, SVG Export Plug-In . SVG Version: 6.00 Build 0)  -->
<svg version="1.1" id="Capa_1" xmlns="http://www.w3.org/2000/svg" xmlns:xlink="http://www.w3.org/1999/xlink" x="0px" y="0px"
	 viewBox="0 0 512 512" style="enable-background:new 0 0 512 512;" xml:space="preserve">
<g transform="translate(1 1)">
	<g>
		<g>
			<path d="M493.933,111.402V16.067C493.933,6.654,486.279-1,476.867-1h-435.2C32.254-1,24.6,6.654,24.6,16.067v93.867
				c-14.114,0-25.6,11.486-25.6,25.6v332.8v25.6C-1,503.346,6.654,511,16.067,511H50.2c9.412,0,17.067-7.654,17.067-17.067v-17.067
				h153.6v17.067c0,9.412,7.654,17.067,17.067,17.067h34.133c9.412,0,17.067-7.654,17.067-17.067v-17.067h153.6v17.067
				c0,9.412,7.654,17.067,17.067,17.067h34.133c9.412,0,17.067-7.654,17.067-17.067v-25.6v-332.8
				C511,124.411,503.865,114.925,493.933,111.402z M280.6,459.8h-51.2H58.733H16.067v-17.067h477.867V459.8h-42.667H280.6z
				 M161.133,229.4v17.067H101.4V229.4H161.133z M84.333,246.467H50.2c-4.71,0-8.533,3.823-8.533,8.533
				c0,4.719,3.823,8.533,8.533,8.533h162.133c4.71,0,8.533-3.814,8.533-8.533c0-4.71-3.823-8.533-8.533-8.533H178.2V229.4h68.267
				v196.267h-230.4V229.4h68.267V246.467z M485.4,127c4.71,0,8.533,3.831,8.533,8.533v76.8h-230.4V127H485.4z M348.867,246.467
				V229.4H408.6v17.067H348.867z M331.8,229.4v17.067h-34.133c-4.719,0-8.533,3.823-8.533,8.533c0,4.719,3.814,8.533,8.533,8.533
				H459.8c4.719,0,8.533-3.814,8.533-8.533c0-4.71-3.814-8.533-8.533-8.533h-34.133V229.4h68.267v196.267h-230.4V229.4H331.8z
				 M41.658,16.067h435.209v93.867h-435.2L41.658,16.067z M24.6,127h8.533h213.333v85.333h-230.4v-76.8
				C16.067,130.831,19.898,127,24.6,127z M50.2,493.933H16.067v-17.067H50.2V493.933z M272.067,493.933h-34.133v-17.067h34.133
				V493.933z M493.933,493.933H459.8v-17.067h34.133V493.933z"/>
			<path d="M50.2,400.067h162.133c9.412,0,17.067-7.654,17.067-17.067v-85.333c0-9.412-7.654-17.067-17.067-17.067H50.2
				c-9.412,0-17.067,7.654-17.067,17.067V383C33.133,392.412,40.788,400.067,50.2,400.067z M50.2,297.667h162.133V383H50.2
				l-0.009-85.333H50.2z"/>
			<path d="M87.747,364.227c1.536,1.152,3.337,1.707,5.112,1.707c2.594,0,5.163-1.178,6.835-3.413l25.6-34.133
				c2.825-3.763,2.065-9.114-1.707-11.938c-3.772-2.816-9.114-2.065-11.947,1.707l-25.6,34.133
				C83.215,356.052,83.975,361.402,87.747,364.227z"/>
			<path d="M138.947,364.227c1.536,1.152,3.337,1.707,5.112,1.707c2.594,0,5.163-1.178,6.835-3.413l25.6-34.133
				c2.825-3.763,2.065-9.114-1.707-11.938c-3.78-2.816-9.122-2.065-11.947,1.707l-25.6,34.133
				C134.415,356.052,135.175,361.402,138.947,364.227z"/>
			<path d="M297.667,400.067H459.8c9.412,0,17.067-7.654,17.067-17.067v-85.333c0-9.412-7.654-17.067-17.067-17.067H297.667
				c-9.412,0-17.067,7.654-17.067,17.067V383C280.6,392.412,288.254,400.067,297.667,400.067z M297.667,297.667H459.8V383H297.667
				l-0.017-85.333H297.667z"/>
			<path d="M335.213,364.227c1.536,1.152,3.328,1.707,5.111,1.707c2.603,0,5.163-1.178,6.827-3.413l25.6-34.133
				c2.833-3.763,2.065-9.114-1.707-11.938c-3.763-2.825-9.114-2.065-11.938,1.707l-25.6,34.133
				C330.674,356.052,331.442,361.402,335.213,364.227z"/>
			<path d="M386.413,364.227c1.536,1.152,3.328,1.707,5.111,1.707c2.603,0,5.163-1.178,6.827-3.413l25.6-34.133
				c2.833-3.763,2.065-9.114-1.707-11.938c-3.755-2.825-9.114-2.065-11.938,1.707l-25.6,34.133
				C381.874,356.052,382.642,361.402,386.413,364.227z"/>
			<path d="M58.733,195.267c14.114,0,25.6-11.486,25.6-25.6s-11.486-25.6-25.6-25.6s-25.6,11.486-25.6,25.6
				S44.619,195.267,58.733,195.267z M58.733,161.133c4.702,0,8.533,3.831,8.533,8.533c0,4.702-3.831,8.533-8.533,8.533
				s-8.533-3.831-8.533-8.533C50.2,164.965,54.031,161.133,58.733,161.133z"/>
			<path d="M127,195.267c14.114,0,25.6-11.486,25.6-25.6s-11.486-25.6-25.6-25.6s-25.6,11.486-25.6,25.6
				S112.886,195.267,127,195.267z M127,161.133c4.702,0,8.533,3.831,8.533,8.533c0,4.702-3.831,8.533-8.533,8.533
				s-8.533-3.831-8.533-8.533C118.467,164.965,122.298,161.133,127,161.133z"/>
			<path d="M195.267,195.267c14.114,0,25.6-11.486,25.6-25.6s-11.486-25.6-25.6-25.6s-25.6,11.486-25.6,25.6
				S181.153,195.267,195.267,195.267z M195.267,161.133c4.702,0,8.533,3.831,8.533,8.533c0,4.702-3.831,8.533-8.533,8.533
				c-4.702,0-8.533-3.831-8.533-8.533C186.733,164.965,190.565,161.133,195.267,161.133z"/>
			<path d="M314.733,195.267c14.114,0,25.6-11.486,25.6-25.6s-11.486-25.6-25.6-25.6s-25.6,11.486-25.6,25.6
				S300.619,195.267,314.733,195.267z M314.733,161.133c4.71,0,8.533,3.831,8.533,8.533c0,4.702-3.823,8.533-8.533,8.533
				s-8.533-3.831-8.533-8.533C306.2,164.965,310.023,161.133,314.733,161.133z"/>
			<path d="M383,195.267c14.114,0,25.6-11.486,25.6-25.6s-11.486-25.6-25.6-25.6s-25.6,11.486-25.6,25.6
				S368.886,195.267,383,195.267z M383,161.133c4.71,0,8.533,3.831,8.533,8.533c0,4.702-3.823,8.533-8.533,8.533
				s-8.533-3.831-8.533-8.533C374.467,164.965,378.29,161.133,383,161.133z"/>
			<path d="M451.267,195.267c14.114,0,25.6-11.486,25.6-25.6s-11.486-25.6-25.6-25.6c-14.114,0-25.6,11.486-25.6,25.6
				S437.153,195.267,451.267,195.267z M451.267,161.133c4.71,0,8.533,3.831,8.533,8.533c0,4.702-3.823,8.533-8.533,8.533
				c-4.71,0-8.533-3.831-8.533-8.533C442.733,164.965,446.556,161.133,451.267,161.133z"/>
		</g>
	</g>
</g>
<g>
</g>
<g>
</g>
<g>
</g>
<g>
</g>
<g>
</g>
<g>
</g>
<g>
</g>
<g>
</g>
<g>
</g>
<g>
</g>
<g>
</g>
<g>
</g>
<g>
</g>
<g>
</g>
<g>
</g>
</svg>
