<?xml version="1.0" encoding="iso-8859-1"?>
<!-- Generator: Adobe Illustrator 19.0.0, SVG Export Plug-In . SVG Version: 6.00 Build 0)  -->
<svg version="1.1" id="Capa_1" xmlns="http://www.w3.org/2000/svg" xmlns:xlink="http://www.w3.org/1999/xlink" x="0px" y="0px"
	 viewBox="0 0 512.009 512.009" style="enable-background:new 0 0 512.009 512.009;" xml:space="preserve">
<g transform="translate(1 1)">
	<g>
		<path d="M442.675,16.174h-50.208C295.428-5.6,196.787-6.673,99.3,12.992l-15.822,3.182H42.267
			c-7.516-0.256-14.043,4.249-16.56,11.185c-2.525,6.945-0.307,14.666,5.537,19.23c19.836,15.391,53.109,47.427,53.109,89.026
			c0,0.418,0.04,0.826,0.098,1.228c1.371,114.107,12.061,228.945,31.767,341.303l1.996,11.628
			c2.414,12.396,13.19,21.235,25.569,21.235c0.205,0,0.418,0,0.631,0h203.868c12.635,0.034,23.965-8.625,26.448-21.423l1.971-11.458
			c20.984-124.12,31.692-250.821,31.842-376.64h8.538c4.709,0,8.531,3.831,8.531,8.531v112.436c0,39.782,7.951,78.49,23.615,115.03
			c2.96,6.936,9.751,11.415,17.293,11.415c10.366,0,18.812-8.438,18.812-18.812V58.831C485.332,35.31,466.196,16.174,442.675,16.174
			z M311.832,20.057c-14.239,7.386-36.648,13.189-65.211,13.189c-29.468,0-53.25-6.352-67.719-14.537
			C223.212,14.806,267.61,15.254,311.832,20.057z M359.877,475.262l-1.937,11.245c-0.853,4.411-4.701,7.354-9.453,7.431H144.209
			c-4.744,0.401-8.395-3.029-9.214-7.243l-1.971-11.475c-5.141-29.312-9.646-58.795-13.544-88.385
			c24.784,9.852,60.366,21.789,87.384,21.789c24.238,0,43.656-5.059,60.795-9.504c14.879-3.873,28.939-7.542,43.997-7.55
			c20.038,0.955,40.074,3.699,59.663,8.152C367.926,424.988,364.116,450.179,359.877,475.262z M373.543,382.727
			c-20.07-4.468-40.623-7.232-61.485-8.223c-17.643,0-32.735,3.933-48.715,8.088c-16.918,4.419-34.425,8.975-56.478,8.975
			c-28.335,0-69.754-15.751-89.858-24.167c-9.4-76.854-14.606-154.368-15.506-231.548c-0.005-0.401-0.047-0.791-0.106-1.177
			c-0.112-11.829-2.329-22.903-6.017-33.188h31.632v59.72c0,30.034,22.286,54.948,51.189,59.101v94.465
			c0,14.111,11.483,25.594,25.594,25.594h85.315c14.111,0,25.594-11.483,25.594-25.594V220.31
			c28.897-4.154,51.189-29.067,51.189-59.101v-59.72h25.594C391.377,195.228,385.349,289.463,373.543,382.727z M167.561,101.489
			h181.268v59.72c0,23.521-19.136,42.657-42.657,42.657H186.73c-23.521,0-42.657-19.136-42.657-42.657v-59.72H167.561z
			 M195.262,220.929h102.378v93.846c0,4.709-3.822,8.531-8.531,8.531h-85.315c-4.701,0-8.531-3.822-8.531-8.531V220.929z
			 M468.269,330.09c0,1.664-2.713,2.227-3.361,0.691c-14.751-34.425-22.233-70.871-22.233-108.324V110.02
			c0-14.111-11.483-25.594-25.594-25.594h-17.063h0H357.36H135.541H92.884l0,0h0h-5.258c-11.943-21.572-29.75-38.805-45.65-51.189
			h42.146c0.035,0,0.069-0.005,0.103-0.005c0.593,0.01,1.195-0.038,1.799-0.157l16.636-3.344c17.35-3.501,34.737-6.321,52.146-8.476
			C170.263,38.795,206.061,50.3,246.621,50.3c39.336,0,73.738-10.52,89.915-27.114c17.733,2.581,35.43,5.861,53.073,9.846
			c0.031,0.007,0.061,0.009,0.092,0.015c0.225,0.048,0.454,0.081,0.685,0.111c0.062,0.008,0.124,0.022,0.186,0.028
			c0.3,0.032,0.605,0.05,0.914,0.05h51.189c14.111,0,25.594,11.483,25.594,25.594V330.09z"/>
	</g>
</g>
<g>
</g>
<g>
</g>
<g>
</g>
<g>
</g>
<g>
</g>
<g>
</g>
<g>
</g>
<g>
</g>
<g>
</g>
<g>
</g>
<g>
</g>
<g>
</g>
<g>
</g>
<g>
</g>
<g>
</g>
</svg>
