<?xml version="1.0" encoding="iso-8859-1"?>
<!-- Generator: Adobe Illustrator 19.0.0, SVG Export Plug-In . SVG Version: 6.00 Build 0)  -->
<svg version="1.1" id="Capa_1" xmlns="http://www.w3.org/2000/svg" xmlns:xlink="http://www.w3.org/1999/xlink" x="0px" y="0px"
	 viewBox="0 0 512 512" style="enable-background:new 0 0 512 512;" xml:space="preserve">
<g transform="translate(1 1)">
	<g>
		<g>
			<path d="M152.6,425.667c-4.71,0-8.533,3.814-8.533,8.533v34.133c0,4.719,3.823,8.533,8.533,8.533c4.71,0,8.533-3.814,8.533-8.533
				V434.2C161.133,429.481,157.31,425.667,152.6,425.667z"/>
			<path d="M186.733,425.667c-4.71,0-8.533,3.814-8.533,8.533v34.133c0,4.719,3.823,8.533,8.533,8.533s8.533-3.814,8.533-8.533
				V434.2C195.267,429.481,191.444,425.667,186.733,425.667z"/>
			<path d="M220.867,425.667c-4.71,0-8.533,3.814-8.533,8.533v34.133c0,4.719,3.823,8.533,8.533,8.533
				c4.71,0,8.533-3.814,8.533-8.533V434.2C229.4,429.481,225.577,425.667,220.867,425.667z"/>
			<path d="M255,425.667c-4.71,0-8.533,3.814-8.533,8.533v34.133c0,4.719,3.823,8.533,8.533,8.533c4.719,0,8.533-3.814,8.533-8.533
				V434.2C263.533,429.481,259.719,425.667,255,425.667z"/>
			<path d="M289.133,425.667c-4.719,0-8.533,3.814-8.533,8.533v34.133c0,4.719,3.814,8.533,8.533,8.533s8.533-3.814,8.533-8.533
				V434.2C297.667,429.481,293.852,425.667,289.133,425.667z"/>
			<path d="M323.267,425.667c-4.719,0-8.533,3.814-8.533,8.533v34.133c0,4.719,3.814,8.533,8.533,8.533
				c4.719,0,8.533-3.814,8.533-8.533V434.2C331.8,429.481,327.986,425.667,323.267,425.667z"/>
			<path d="M357.4,425.667c-4.719,0-8.533,3.814-8.533,8.533v34.133c0,4.719,3.814,8.533,8.533,8.533s8.533-3.814,8.533-8.533V434.2
				C365.933,429.481,362.119,425.667,357.4,425.667z"/>
			<path d="M473.505,121.829C449.33,97.654,417.193,84.333,383,84.333h-17.067v-51.2C365.933,14.309,350.625-1,331.8-1H178.2
				c-18.825,0-34.133,15.309-34.133,34.133v51.2H127c-70.579,0-128,57.421-128,128V255v42.667V331.8v42.667V408.6v42.667V485.4
				c0,14.114,11.486,25.6,25.6,25.6h460.8c14.114,0,25.6-11.486,25.6-25.6v-34.133V408.6v-34.133V331.8v-34.133V255v-42.667
				C511,178.14,497.68,145.995,473.505,121.829z M493.933,365.933h-38.4c-7.057,0-12.8-5.743-12.8-12.8s5.743-12.8,12.8-12.8h38.4
				V365.933z M493.933,289.133h-38.4c-7.057,0-12.8-5.743-12.8-12.8s5.743-12.8,12.8-12.8h38.4V289.133z M365.959,101.4
				c2.85,0.085,5.675,0.085,8.508,0.282v281.293c-0.009,4.71-3.849,8.55-8.533,8.559H357.4V101.4H365.959z M263.533,391.533v-17.067
				H331.8c2.991,0,5.862-0.521,8.533-1.468v18.535H263.533z M169.667,391.533v-18.535c2.671,0.948,5.542,1.468,8.533,1.468h68.267
				v17.067H169.667z M144.084,391.533c-4.693-0.008-8.542-3.849-8.55-8.533V101.682c2.833-0.188,5.709-0.239,8.533-0.282h8.533
				v290.133H144.084z M246.467,101.4v17.067H178.2c-2.991,0-5.862,0.521-8.533,1.468V101.4H246.467z M195.267,65.814
				c2.671,0.941,5.544,1.453,8.533,1.453c6.545,0,12.527-2.449,17.067-6.502c4.54,4.053,10.522,6.502,17.067,6.502
				S250.46,64.818,255,60.764c4.531,4.053,10.522,6.502,17.067,6.502c6.545,0,12.535-2.449,17.067-6.494
				c4.531,4.045,10.522,6.494,17.067,6.494c2.99,0,5.862-0.511,8.533-1.452v18.519H195.267V65.814z M331.8,289.133h-68.267v-17.067
				H331.8c4.71,0,8.533,3.823,8.533,8.533S336.51,289.133,331.8,289.133z M340.333,304.732v20.003
				c-2.671-0.948-5.542-1.468-8.533-1.468h-68.267V306.2H331.8C334.791,306.2,337.662,305.679,340.333,304.732z M178.2,203.8h68.267
				v17.067H178.2c-4.702,0-8.533-3.831-8.533-8.533C169.667,207.631,173.498,203.8,178.2,203.8z M169.667,188.202v-20.003
				c2.671,0.948,5.542,1.468,8.533,1.468h68.267v17.067H178.2C175.209,186.733,172.338,187.254,169.667,188.202z M178.2,237.933
				h68.267V255H178.2c-2.991,0-5.862,0.521-8.533,1.468v-20.003C172.338,237.413,175.209,237.933,178.2,237.933z M178.2,272.067
				h68.267v17.067H178.2c-4.702,0-8.533-3.823-8.533-8.533C169.667,275.89,173.498,272.067,178.2,272.067z M331.8,255h-68.267
				v-17.067H331.8c2.991,0,5.862-0.521,8.533-1.468v20.003C337.662,255.521,334.791,255,331.8,255z M331.8,220.867h-68.267V203.8
				H331.8c4.71,0,8.533,3.831,8.533,8.533C340.333,217.035,336.51,220.867,331.8,220.867z M331.8,186.733h-68.267v-17.067H331.8
				c2.991,0,5.862-0.521,8.533-1.468v20.003C337.662,187.254,334.791,186.733,331.8,186.733z M331.8,152.6h-68.267v-17.067H331.8
				c4.71,0,8.533,3.831,8.533,8.533C340.333,148.769,336.51,152.6,331.8,152.6z M246.467,152.6H178.2
				c-4.702,0-8.533-3.831-8.533-8.533c0-4.702,3.831-8.533,8.533-8.533h68.267V152.6z M169.667,304.732
				c2.671,0.948,5.542,1.468,8.533,1.468h68.267v17.067H178.2c-2.991,0-5.862,0.521-8.533,1.468V304.732z M178.2,340.333h68.267
				V357.4H178.2c-4.702,0-8.533-3.823-8.533-8.533S173.498,340.333,178.2,340.333z M263.533,340.333H331.8
				c4.71,0,8.533,3.823,8.533,8.533s-3.823,8.533-8.533,8.533h-68.267V340.333z M340.333,119.935
				c-2.671-0.948-5.542-1.468-8.533-1.468h-68.267V101.4h76.8V119.935z M161.133,33.133c0-9.412,7.654-17.067,17.067-17.067h153.6
				c9.412,0,17.067,7.654,17.067,17.067v51.2H331.8V41.667c0-4.71-3.814-8.533-8.533-8.533c-4.719,0-8.533,3.823-8.533,8.533v0.49
				c-0.258,4.514-3.998,8.043-8.533,8.043c-4.565,0-8.329-3.576-8.542-8.132c-0.222-4.548-3.977-8.124-8.525-8.124
				s-8.303,3.575-8.525,8.124c-0.213,4.557-3.977,8.132-8.542,8.132c-4.565,0-8.329-3.576-8.542-8.132
				c-0.222-4.548-3.977-8.124-8.525-8.124s-8.303,3.575-8.525,8.115c-0.222,4.565-3.977,8.141-8.542,8.141s-8.32-3.576-8.542-8.141
				c-0.222-4.548-3.977-8.115-8.525-8.115s-8.303,3.575-8.525,8.115c-0.222,4.565-3.977,8.141-8.542,8.141
				c-4.536,0-8.268-3.531-8.533-8.054v-0.479c0-4.71-3.823-8.533-8.533-8.533s-8.533,3.823-8.533,8.533v42.667h-17.067V33.133z
				 M16.067,263.533h38.4c7.057,0,12.8,5.743,12.8,12.8s-5.743,12.8-12.8,12.8h-38.4V263.533z M16.067,340.333h38.4
				c7.057,0,12.8,5.743,12.8,12.8s-5.743,12.8-12.8,12.8h-38.4V340.333z M16.067,417.133h38.4c7.057,0,12.8,5.743,12.8,12.8
				s-5.743,12.8-12.8,12.8h-38.4V417.133z M485.4,493.933H24.6c-4.702,0-8.533-3.823-8.533-8.533v-25.6h38.4
				c16.469,0,29.867-13.397,29.867-29.867s-13.397-29.867-29.867-29.867h-38.4V383h38.4c16.469,0,29.867-13.397,29.867-29.867
				c0-16.469-13.397-29.867-29.867-29.867h-38.4V306.2h38.4c16.469,0,29.867-13.397,29.867-29.867
				c0-16.469-13.397-29.867-29.867-29.867h-38.4v-34.133c0-58.296,45.205-106.236,102.4-110.608v281.301
				c0.043,14.063,11.52,25.54,25.6,25.574h221.892c14.063-0.034,25.54-11.511,25.574-25.6V101.724
				c26.419,1.996,50.979,13.238,69.905,32.171c20.949,20.949,32.495,48.802,32.495,78.438v34.133h-38.4
				c-16.469,0-29.867,13.397-29.867,29.867c0,16.469,13.397,29.867,29.867,29.867h38.4v17.067h-38.4
				c-16.469,0-29.867,13.397-29.867,29.867c0,16.469,13.397,29.867,29.867,29.867h38.4v17.067h-38.4
				c-16.469,0-29.867,13.397-29.867,29.867s13.397,29.867,29.867,29.867h38.4v25.6C493.933,490.11,490.11,493.933,485.4,493.933z
				 M493.933,442.733h-38.4c-7.057,0-12.8-5.743-12.8-12.8s5.743-12.8,12.8-12.8h38.4V442.733z"/>
		</g>
	</g>
</g>
<g>
</g>
<g>
</g>
<g>
</g>
<g>
</g>
<g>
</g>
<g>
</g>
<g>
</g>
<g>
</g>
<g>
</g>
<g>
</g>
<g>
</g>
<g>
</g>
<g>
</g>
<g>
</g>
<g>
</g>
</svg>
