<?xml version="1.0" encoding="iso-8859-1"?>
<!-- Generator: Adobe Illustrator 19.0.0, SVG Export Plug-In . SVG Version: 6.00 Build 0)  -->
<svg version="1.1" id="Capa_1" xmlns="http://www.w3.org/2000/svg" xmlns:xlink="http://www.w3.org/1999/xlink" x="0px" y="0px"
	 viewBox="0 0 511.995 511.995" style="enable-background:new 0 0 511.995 511.995;" xml:space="preserve">
<g transform="translate(1 1)">
	<g>
		<g>
			<path d="M510.98,331.506c-0.004-0.103-0.008-0.206-0.016-0.31c-0.015-0.215-0.039-0.426-0.069-0.636
				c-0.007-0.049-0.014-0.097-0.022-0.146c-0.066-0.406-0.152-0.805-0.273-1.19L438.949,58.538
				c-3.968-14.959-17.527-25.403-32.998-25.403H104.039c-15.471,0-29.038,10.445-32.989,25.403L-0.715,329.612
				c-0.021,0.078-0.031,0.156-0.049,0.233c-0.032,0.137-0.062,0.275-0.087,0.415c-0.029,0.158-0.052,0.315-0.072,0.473
				c-0.014,0.113-0.027,0.227-0.037,0.341c-0.016,0.19-0.025,0.379-0.029,0.567c-0.001,0.052-0.008,0.102-0.008,0.155v110.932
				c0,18.824,15.309,34.133,34.133,34.133h443.726c18.824,0,34.133-15.309,34.133-34.133V331.796
				C510.995,331.698,510.984,331.603,510.98,331.506z M87.544,62.898c1.98-7.475,8.764-12.697,16.495-12.697H405.96
				c7.731,0,14.515,5.231,16.495,12.706l68.919,260.356H18.625L87.544,62.898z M493.929,442.728c0,9.412-7.654,17.066-17.066,17.066
				H33.136c-9.412,0-17.066-7.654-17.066-17.066V340.329h477.859V442.728z"/>
			<path d="M254.999,442.728c23.526,0,42.666-19.14,42.666-42.666s-19.14-42.666-42.666-42.666
				c-11.502,0-21.948,4.583-29.629,12.009c-0.186,0.157-0.37,0.317-0.545,0.492c-0.178,0.178-0.341,0.364-0.5,0.553
				c-7.416,7.68-11.993,18.118-11.993,29.612C212.333,423.588,231.473,442.728,254.999,442.728z M280.599,400.062
				c0,14.114-11.486,25.6-25.6,25.6s-25.6-11.486-25.6-25.6c0-3.946,0.899-7.685,2.501-11.027l17.066,17.06
				c1.664,1.664,3.848,2.5,6.033,2.5s4.369-0.828,6.033-2.5c3.336-3.336,3.336-8.729,0-12.066l-17.068-17.062
				c3.344-1.604,7.086-2.505,11.035-2.505C269.122,374.462,280.599,385.948,280.599,400.062z"/>
			<path d="M75.802,425.661c14.122,0,25.6-11.486,25.6-25.6s-11.486-25.6-25.6-25.6c-14.114,0-25.6,11.486-25.6,25.6
				S61.688,425.661,75.802,425.661z M75.802,391.529c4.71,0,8.533,3.823,8.533,8.533c0,4.71-3.831,8.533-8.533,8.533
				c-4.702,0-8.533-3.823-8.533-8.533C67.269,395.351,71.101,391.529,75.802,391.529z"/>
			<path d="M132.556,259.115c1.109,1.093,2.461,1.843,3.912,2.204c31.613,17.296,73.121,27.811,118.531,27.811
				c45.401,0,86.905-10.513,118.517-27.805c1.468-0.362,2.84-1.122,3.963-2.233c34.883-20.253,56.717-49.023,56.717-80.893
				c0-61.166-80.391-110.931-179.197-110.931c-98.814,0-179.197,49.766-179.197,110.931
				C75.802,210.081,97.65,238.861,132.556,259.115z M154.748,251.918l15.412-11.033c23.708,8.916,52.915,14.113,84.84,14.113
				c31.925,0,61.134-5.198,84.844-14.116l15.413,11.034c-27.608,12.612-62.44,20.149-100.257,20.149
				C217.185,272.064,182.355,264.529,154.748,251.918z M306.125,199.123c-13.874,2.807-30.97,4.676-51.126,4.676
				c-19.997,0-36.981-1.84-50.796-4.61c-0.249-0.061-0.501-0.112-0.754-0.151c-27.656-5.66-42.314-15.064-42.314-20.839
				c0-8.687,33.134-25.6,93.865-25.6s93.865,16.913,93.865,25.6c0,5.778-14.679,15.191-42.371,20.85
				C306.37,199.069,306.248,199.097,306.125,199.123z M365.931,178.199c0-26.568-50.195-41.116-102.398-42.547v-17.043
				c65.588,2.129,119.465,28.551,119.465,59.59c0,16.848-15.879,32.335-40.884,43.316l-14.447-10.34
				C350.414,204.023,365.931,192.969,365.931,178.199z M246.466,135.652c-52.203,1.431-102.398,15.978-102.398,42.547
				c0,14.772,15.52,25.826,38.271,32.978l-14.446,10.341c-25.009-10.982-40.892-26.47-40.892-43.32
				c0-31.038,53.877-57.46,119.465-59.59V135.652z M204.227,216.497c15.798,2.897,33.318,4.368,50.773,4.368
				c17.457,0,34.98-1.471,50.779-4.369l16.89,12.091c-19.775,5.895-43.042,9.344-67.67,9.344c-24.625,0-47.89-3.449-67.664-9.343
				L204.227,216.497z M417.13,178.199c0,25.114-17.128,47.957-44.974,64.819l-14.253-10.202
				c26.176-13.821,42.162-33.048,42.162-54.617c0-41.549-59.314-74.404-136.531-76.669V84.464
				C348.983,87.041,417.13,128.102,417.13,178.199z M246.466,84.464v17.066c-77.225,2.265-136.531,35.121-136.531,76.669
				c0,21.572,15.988,40.801,42.169,54.623l-14.252,10.202C110,226.16,92.869,203.316,92.869,178.199
				C92.869,128.102,161.015,87.042,246.466,84.464z"/>
			<path d="M419.63,257.498l-34.133,34.133c-2.44,2.44-3.174,6.11-1.852,9.301c1.314,3.191,4.437,5.265,7.885,5.265h68.266
				c3.456,0,6.571-2.074,7.885-5.265c1.323-3.191,0.589-6.861-1.852-9.301l-34.133-34.133
				C428.36,254.161,422.967,254.161,419.63,257.498z M412.13,289.13l13.534-13.534l13.534,13.534H412.13z"/>
		</g>
	</g>
</g>
<g>
</g>
<g>
</g>
<g>
</g>
<g>
</g>
<g>
</g>
<g>
</g>
<g>
</g>
<g>
</g>
<g>
</g>
<g>
</g>
<g>
</g>
<g>
</g>
<g>
</g>
<g>
</g>
<g>
</g>
</svg>
