<?xml version="1.0" encoding="iso-8859-1"?>
<!-- Generator: Adobe Illustrator 19.0.0, SVG Export Plug-In . SVG Version: 6.00 Build 0)  -->
<svg version="1.1" id="Capa_1" xmlns="http://www.w3.org/2000/svg" xmlns:xlink="http://www.w3.org/1999/xlink" x="0px" y="0px"
	 viewBox="0 0 512 512" style="enable-background:new 0 0 512 512;" xml:space="preserve">
<g transform="translate(1 1)">
	<g>
		<g>
			<path d="M502.467,255.004h-179.2c-4.719,0-8.533,3.814-8.533,8.533v25.6H151.966c-0.191-1.311-0.41-2.616-0.689-3.908
				l153.383-77.544l10.961,22.138c1.007,2.031,2.782,3.576,4.932,4.301c0.879,0.299,1.801,0.444,2.714,0.444
				c1.306,0,2.62-0.307,3.823-0.905l170.667-85.333c4.198-2.099,5.914-7.202,3.831-11.418l-14.917-30.128
				c-0.071-0.169-0.138-0.34-0.221-0.507l-7.595-15.258c-5.06-10.214-13.781-17.852-24.585-21.495
				c-10.812-3.644-22.374-2.867-32.631,2.21L91.134,237.963c-29.521,0.847-53.732,23.221-57.48,51.94
				C13.946,293.664-1,311.017-1,331.804c0,32.93,26.795,59.733,59.733,59.733h187.733c9.412,0,17.067,7.654,17.067,17.067
				c0,9.412-7.654,17.067-17.067,17.067H7.533c-4.71,0-8.533,3.814-8.533,8.533s3.823,8.533,8.533,8.533h238.933
				c18.825,0,34.133-15.309,34.133-34.133c0-18.825-15.309-34.133-34.133-34.133H58.733c-23.526,0-42.667-19.14-42.667-42.667
				c0-11.422,7.523-21.119,17.872-24.405c4.661,28.32,29.304,50.005,58.928,50.005h375.467c11.392,0,22.11-4.437,30.182-12.493
				c8.047-8.064,12.484-18.782,12.484-30.174v-17.067v-34.133C511,258.819,507.186,255.004,502.467,255.004z M331.8,272.071h162.133
				v17.067H331.8V272.071z M327.115,214.573l-7.225-14.588l155.063-78.394l7.571,15.286L327.115,214.573z M50.2,297.662
				c0-23.526,19.14-42.667,43.008-42.667c1.331,0,2.645-0.307,3.831-0.905L429.259,87c3.593-1.775,7.45-2.671,11.341-2.671
				c2.748,0,5.521,0.452,8.218,1.365c6.477,2.193,11.716,6.767,14.754,12.911l3.816,7.666l-163.082,81.541
				c-1.173,0.586-2.144,1.413-2.9,2.383l-164.088,82.95c-3.831,1.946-5.623,6.417-4.198,10.47c1.604,4.523,2.415,9.242,2.415,14.046
				c0,23.526-19.14,42.667-42.667,42.667C69.34,340.329,50.2,321.189,50.2,297.662z M493.933,314.738
				c0,6.844-2.662,13.269-7.492,18.099c-4.83,4.838-11.264,7.501-18.108,7.501H134.612c9.164-8.969,15.459-20.85,17.368-34.133
				h171.286h170.667V314.738z"/>
			<path d="M118.467,297.671c0-14.114-11.486-25.6-25.6-25.6s-25.6,11.486-25.6,25.6s11.486,25.6,25.6,25.6
				S118.467,311.785,118.467,297.671z M84.333,297.671c0-4.71,3.831-8.533,8.533-8.533c4.702,0,8.533,3.823,8.533,8.533
				s-3.831,8.533-8.533,8.533C88.165,306.204,84.333,302.381,84.333,297.671z"/>
		</g>
	</g>
</g>
<g>
</g>
<g>
</g>
<g>
</g>
<g>
</g>
<g>
</g>
<g>
</g>
<g>
</g>
<g>
</g>
<g>
</g>
<g>
</g>
<g>
</g>
<g>
</g>
<g>
</g>
<g>
</g>
<g>
</g>
</svg>
