<?xml version="1.0" encoding="iso-8859-1"?>
<!-- Generator: Adobe Illustrator 19.0.0, SVG Export Plug-In . SVG Version: 6.00 Build 0)  -->
<svg version="1.1" id="Capa_1" xmlns="http://www.w3.org/2000/svg" xmlns:xlink="http://www.w3.org/1999/xlink" x="0px" y="0px"
	 viewBox="0 0 512 512" style="enable-background:new 0 0 512 512;" xml:space="preserve">
<g transform="translate(1 1)">
	<g>
		<g>
			<path d="M485.4,135.533h-25.6v-25.6c0-32.939-26.803-59.733-59.733-59.733H109.933C76.995,50.2,50.2,76.995,50.2,109.933v25.6
				H24.6c-14.114,0-25.6,11.486-25.6,25.6V434.2c0,14.114,11.486,25.6,25.6,25.6h460.8c14.114,0,25.6-11.486,25.6-25.6V161.133
				C511,147.019,499.514,135.533,485.4,135.533z M67.267,109.933c0-23.526,19.14-42.667,42.667-42.667h290.133
				c23.526,0,42.667,19.14,42.667,42.667v25.6h-17.067v-17.067c0-18.825-15.309-34.133-34.133-34.133H118.467
				c-18.825,0-34.133,15.309-34.133,34.133v17.067H67.267V109.933z M408.6,135.533H101.4v-17.067
				c0-9.412,7.654-17.067,17.067-17.067h273.067c9.412,0,17.067,7.654,17.067,17.067V135.533z M493.933,434.2
				c0,4.71-3.823,8.533-8.533,8.533H24.6c-4.702,0-8.533-3.823-8.533-8.533V161.133c0-4.702,3.831-8.533,8.533-8.533h34.133h34.133
				h324.267h34.133H485.4c4.71,0,8.533,3.831,8.533,8.533V434.2z"/>
			<path d="M459.8,169.667H50.2c-9.412,0-17.067,7.654-17.067,17.067V408.6c0,9.412,7.654,17.067,17.067,17.067h409.6
				c9.412,0,17.067-7.654,17.067-17.067V186.733C476.867,177.321,469.212,169.667,459.8,169.667z M459.8,408.6H50.2V186.733
				l409.6-0.009V408.6z"/>
			<path d="M67.267,297.667c0,13.571,3.2,26.403,8.86,37.806c0.086,0.179,0.173,0.356,0.271,0.528
				c14.066,27.847,42.931,47,76.202,47c33.271,0,62.136-19.152,76.202-46.999c0.098-0.172,0.186-0.35,0.271-0.529
				c5.66-11.403,8.86-24.235,8.86-37.805c0-13.57-3.199-26.401-8.859-37.804c-0.086-0.18-0.174-0.358-0.272-0.531
				c-14.067-27.847-42.931-46.999-76.202-46.999c-33.271,0-62.136,19.152-76.202,47c-0.097,0.172-0.185,0.349-0.271,0.528
				C70.466,271.264,67.267,284.096,67.267,297.667z M84.886,306.2h135.428c-0.747,5.96-2.26,11.683-4.447,17.067H89.333
				C87.146,317.883,85.633,312.16,84.886,306.2z M220.314,289.133H84.886c0.747-5.96,2.26-11.683,4.447-17.067h126.534
				C218.054,277.451,219.567,283.173,220.314,289.133z M152.6,365.933c-21.506,0-40.711-10.008-53.233-25.6h106.466
				C193.311,355.925,174.106,365.933,152.6,365.933z M152.6,229.4c21.506,0,40.711,10.008,53.233,25.6H99.367
				C111.89,239.408,131.094,229.4,152.6,229.4z"/>
			<path d="M400.067,297.667c-23.526,0-42.667,19.14-42.667,42.667c0,23.526,19.14,42.667,42.667,42.667
				c23.526,0,42.667-19.14,42.667-42.667C442.733,316.807,423.593,297.667,400.067,297.667z M400.067,365.933
				c-14.114,0-25.6-11.486-25.6-25.6c0-11.123,7.135-20.608,17.067-24.132V331.8c0,4.719,3.814,8.533,8.533,8.533
				c4.719,0,8.533-3.814,8.533-8.533v-15.598c9.931,3.523,17.067,13.009,17.067,24.132
				C425.667,354.448,414.181,365.933,400.067,365.933z"/>
			<path d="M272.067,280.6h153.6c9.412,0,17.067-7.654,17.067-17.067v-42.667c0-9.412-7.654-17.067-17.067-17.067h-153.6
				c-9.412,0-17.067,7.654-17.067,17.067v42.667C255,272.946,262.654,280.6,272.067,280.6z M272.067,220.867h153.6v42.667h-25.6V255
				c0-4.71-3.814-8.533-8.533-8.533c-4.719,0-8.533,3.823-8.533,8.533v8.533h-25.6v-17.067c0-4.71-3.814-8.533-8.533-8.533
				s-8.533,3.823-8.533,8.533v17.067h-25.6V255c0-4.71-3.814-8.533-8.533-8.533s-8.533,3.823-8.533,8.533v8.533h-25.6V220.867z"/>
		</g>
	</g>
</g>
<g>
</g>
<g>
</g>
<g>
</g>
<g>
</g>
<g>
</g>
<g>
</g>
<g>
</g>
<g>
</g>
<g>
</g>
<g>
</g>
<g>
</g>
<g>
</g>
<g>
</g>
<g>
</g>
<g>
</g>
</svg>
