<?xml version="1.0" encoding="iso-8859-1"?>
<!-- Generator: Adobe Illustrator 19.0.0, SVG Export Plug-In . SVG Version: 6.00 Build 0)  -->
<svg version="1.1" id="Capa_1" xmlns="http://www.w3.org/2000/svg" xmlns:xlink="http://www.w3.org/1999/xlink" x="0px" y="0px"
	 viewBox="0 0 512 512" style="enable-background:new 0 0 512 512;" xml:space="preserve">
<g transform="translate(1 1)">
	<g>
		<g>
			<path d="M485.4-1H331.8c-14.114,0-25.6,11.486-25.6,25.6h-68.267v-8.533C237.933,6.654,230.279-1,220.867-1H84.333
				c-9.412,0-17.067,7.654-17.067,17.067V101.4c0,0.794,0.111,1.587,0.324,2.347l15.3,53.538c2.082,7.287,8.832,12.382,16.41,12.382
				h2.099v17.067c0,6.508,3.661,12.171,9.031,15.049c1.731,11.25,7.874,21.065,16.599,27.618c-8.2,6.158-14.117,15.196-16.238,25.6
				H88.071c-3.678,0-6.946,2.355-8.107,5.837c-1.161,3.482,0.043,7.322,2.978,9.523l29.073,21.811l-18.971,52.177
				c-0.132,0.303-0.243,0.615-0.339,0.933l-7.084,19.483c-4.506,12.407-1.391,26.462,7.945,35.797l8.038,8.038H41.667
				C18.14,408.6-1,427.74-1,451.267v17.067C-1,491.86,18.14,511,41.667,511h273.067h162.133C495.691,511,511,495.691,511,476.867
				V24.6C511,10.486,499.514-1,485.4-1z M323.267,24.6c0-4.702,3.823-8.533,8.533-8.533h153.6c4.71,0,8.533,3.831,8.533,8.533
				v273.067H323.267V101.4V33.133V24.6z M122.264,278.509l-8.593-6.443h4.796h68.267h0.427l-3.849,11.554
				c-1.212,3.635-1.152,7.62,0.154,11.221l16.405,45.114c-5.96-1.576-12.07-3.178-18.385-4.743
				c-22.247-5.689-46.902-3.485-67.174,0.6l13.747-37.805C130.644,290.891,128.323,283.058,122.264,278.509z M236.372,292.751
				l1.724,4.036c6.025,14.054,1.894,30.549-10.044,40.098l-8.625,6.899l-19.919-54.771l5.647-16.942
				C218.764,272.132,231.007,280.229,236.372,292.751z M219.117,400.553c9.335-9.335,12.45-23.39,7.936-35.797l-1.465-4.029
				l13.13-10.503c17.92-14.336,24.115-39.066,15.078-60.151l-1.732-4.036C243.983,267.186,225.509,255,205.003,255h-5.999h-4.596
				c-2.12-10.404-8.038-19.442-16.238-25.6c8.725-6.553,14.868-16.367,16.599-27.618c5.369-2.878,9.031-8.541,9.031-15.049v-17.067
				h2.099c7.578,0,14.327-5.094,16.401-12.373l13.532-47.36H306.2V408.6h-95.13L219.117,400.553z M306.2,41.667v51.2h-68.267v-51.2
				H306.2z M84.333,100.205V16.067h136.533v17.067v67.072L205.891,152.6h-10.624h-85.333H99.301L84.333,100.205z M186.733,169.667
				v17.067h-68.267v-17.067H186.733z M128.459,203.8h48.282c-3.524,9.933-13.013,17.067-24.141,17.067
				C141.473,220.867,131.983,213.733,128.459,203.8z M152.591,237.933c11.127,0,20.617,7.134,24.141,17.067h-48.273
				C131.983,245.067,141.464,237.933,152.591,237.933z M105.633,388.495c-4.668-4.668-6.229-11.691-3.968-17.903l5.716-15.719
				c19.857-4.986,46.78-9.025,69.941-3.106c7.851,1.954,15.334,3.934,22.605,5.862l7.048,1.86l4.037,11.102
				c2.261,6.204,0.7,13.235-3.968,17.903L186.938,408.6h-61.201L105.633,388.495z M41.667,425.667h80.538h68.267H306.2v17.067
				H17.535C21.058,432.802,30.544,425.667,41.667,425.667z M16.067,468.333V459.8H306.2v34.133H41.667
				C27.553,493.933,16.067,482.448,16.067,468.333z M476.867,493.933h-153.6v-76.8v-102.4h170.667v162.133
				C493.933,486.279,486.279,493.933,476.867,493.933z"/>
			<path d="M459.8,357.4H357.4c-9.412,0-17.067,7.654-17.067,17.067V434.2c0,9.412,7.654,17.067,17.067,17.067h102.4
				c9.412,0,17.067-7.654,17.067-17.067v-59.733C476.867,365.054,469.212,357.4,459.8,357.4z M459.8,434.2H357.4l-0.017-59.733
				h0.017h102.4V434.2z"/>
			<path d="M391.533,417.133c4.719,0,8.533-3.814,8.533-8.533v-8.533c0-4.719-3.814-8.533-8.533-8.533
				c-4.719,0-8.533,3.814-8.533,8.533v8.533C383,413.319,386.814,417.133,391.533,417.133z"/>
			<path d="M425.667,417.133c4.719,0,8.533-3.814,8.533-8.533v-8.533c0-4.719-3.814-8.533-8.533-8.533s-8.533,3.814-8.533,8.533
				v8.533C417.133,413.319,420.948,417.133,425.667,417.133z"/>
			<path d="M374.467,212.525v8.342c0,14.114,11.486,25.6,25.6,25.6h17.067c14.114,0,25.6-11.486,25.6-25.6v-153.6
				c0-0.014-0.001-0.027-0.001-0.041c0-0.005,0-0.01,0-0.015c-0.03-14.089-11.503-25.545-25.599-25.545h-17.067
				c-14.114,0-25.6,11.486-25.6,25.6V109.8c-0.002,0.108-0.002,0.216,0,0.324V161c-0.002,0.108-0.002,0.216,0,0.324V212.2
				C374.465,212.309,374.464,212.416,374.467,212.525z M391.533,165.127l34.133-28.444v28.983l-34.133,28.444V165.127z
				 M425.667,114.466l-34.133,28.444v-28.983l34.133-28.444V114.466z M417.133,229.4h-17.067c-4.71,0-8.533-3.831-8.533-8.533v-4.54
				l34.133-28.444v32.984C425.667,225.569,421.844,229.4,417.133,229.4z M400.067,58.733h17.067c3.498,0,6.502,2.115,7.82,5.128
				l-33.42,27.85V67.267C391.533,62.565,395.356,58.733,400.067,58.733z"/>
		</g>
	</g>
</g>
<g>
</g>
<g>
</g>
<g>
</g>
<g>
</g>
<g>
</g>
<g>
</g>
<g>
</g>
<g>
</g>
<g>
</g>
<g>
</g>
<g>
</g>
<g>
</g>
<g>
</g>
<g>
</g>
<g>
</g>
</svg>
