<?xml version="1.0" encoding="iso-8859-1"?>
<!-- Generator: Adobe Illustrator 19.0.0, SVG Export Plug-In . SVG Version: 6.00 Build 0)  -->
<svg version="1.1" id="Capa_1" xmlns="http://www.w3.org/2000/svg" xmlns:xlink="http://www.w3.org/1999/xlink" x="0px" y="0px"
	 viewBox="0 0 512 512" style="enable-background:new 0 0 512 512;" xml:space="preserve">
<g transform="translate(1 1)">
	<g>
		<g>
			<path d="M407.455,408.6h-6.656V168.154c5.593-1.719,10.722-4.855,14.797-9.163c6.426-6.793,9.813-16.026,9.284-25.353
				l-4.352-78.216C418.788,23.781,392.59-1,360.897-1h-210.33c-31.684,0-57.89,24.781-59.648,56.414l-4.344,78.225
				c-0.512,9.335,2.876,18.568,9.284,25.352c4.074,4.307,9.21,7.443,14.805,9.162v69.779c-14.114,0-25.6,11.486-25.6,25.6
				s11.486,25.6,25.6,25.6V408.6h-6.664c-5.129,0-9.933,2.278-13.193,6.238c-3.26,3.968-4.548,9.131-3.541,14.174l9.54,47.684
				C100.784,496.579,118.38,511,138.647,511H372.81c20.267,0,37.871-14.421,41.847-34.304l4.724-23.639
				c0.011-0.05,0.02-0.1,0.03-0.15l4.777-23.903c1.007-5.026-0.282-10.189-3.541-14.174
				C417.379,410.878,412.584,408.6,407.455,408.6z M103.626,134.595l4.343-78.225c1.254-22.605,19.968-40.303,42.598-40.303h210.33
				c22.63,0,41.353,17.698,42.598,40.303l4.352,78.225c0.256,4.659-1.434,9.276-4.651,12.672c-3.209,3.388-7.723,5.333-12.39,5.333
				h-83.874h-102.4h-83.874c-4.668,0-9.19-1.946-12.39-5.333C105.059,143.879,103.37,139.254,103.626,134.595z M230.133,272.067V255
				h51.2v17.067H230.133z M161.866,220.867c4.71,0,8.533-3.823,8.533-8.533v-42.667h25.6v25.6c0,4.71,3.823,8.533,8.533,8.533h8.533
				v34.133h-85.333v-68.267h25.6v42.667C153.333,217.044,157.155,220.867,161.866,220.867z M281.333,237.933h-51.2h0V203.8h51.2
				V237.933z M289.866,186.733h-68.267h-8.533v-17.067h85.333v17.067H289.866z M102.133,263.533c0-4.71,3.831-8.533,8.533-8.533
				h102.4v17.067h-102.4C105.964,272.067,102.133,268.244,102.133,263.533z M127.733,289.133h93.867h25.6v8.533
				c0,4.719,3.823,8.533,8.533,8.533c4.71,0,8.533-3.814,8.533-8.533v-8.533h17.067c9.404,0,17.067-7.654,17.067-17.067v-25.6V203.8
				h8.533c4.71,0,8.533-3.823,8.533-8.533v-25.6h25.6v42.667c0,4.71,3.814,8.533,8.533,8.533c4.71,0,8.533-3.823,8.533-8.533
				v-42.667h25.6V408.6h-92.971l1.877-18.766c3.191,1.141,6.561,1.734,9.968,1.734c4.361,0,8.781-0.956,12.971-2.944
				c12.672-6.067,19.345-19.874,16.239-33.57c-3.115-13.696-15.095-23.253-29.141-23.253c-0.009,0-0.017,0-0.026,0
				c-1.436,0.005-2.861,0.117-4.268,0.323c0.082-2.224-0.698-4.397-2.192-6.049c-1.613-1.792-3.917-2.807-6.323-2.807h-68.267
				c-2.415,0-4.71,1.016-6.323,2.807c-1.621,1.783-2.406,4.181-2.167,6.579l7.595,75.947h-92.971V289.133z M231.029,340.333h49.408
				l-2.29,22.898c-14.822-4.021-30.023-5.971-45.409-5.809L231.029,340.333z M296.579,350.427c1.87-1.002,3.962-1.555,6.095-1.561
				h0.008c6.016,0,11.136,4.096,12.467,9.967c1.348,5.88-1.519,11.785-6.946,14.387c-4.621,2.187-9.947,1.451-13.731-1.731
				L296.579,350.427z M234.444,374.491c14.215,0.012,28.294,1.992,41.979,5.973L273.61,408.6h-35.755L234.444,374.491z
				 M119.199,425.667h110.933h51.2h110.933h15.189l-3.415,17.067H107.416l-3.415-17.067H119.199z M372.81,493.933H138.647
				c-12.16,0-22.716-8.661-25.105-20.582L110.83,459.8h289.796l-2.711,13.551C395.534,485.272,384.978,493.933,372.81,493.933z"/>
			<path d="M255.733,135.533c28.228,0,51.2-22.963,51.2-51.2c0-28.237-22.963-51.2-51.2-51.2c-13.798,0-26.327,5.493-35.543,14.395
				c-0.229,0.186-0.451,0.385-0.664,0.598s-0.412,0.435-0.598,0.664c-8.902,9.215-14.395,21.745-14.395,35.543
				C204.533,112.57,227.496,135.533,255.733,135.533z M289.866,84.333c0,18.825-15.309,34.133-34.133,34.133
				s-34.133-15.309-34.133-34.133c0-6.323,1.733-12.244,4.74-17.327l23.36,23.36c1.664,1.664,3.849,2.5,6.033,2.5
				c2.185,0,4.361-0.836,6.033-2.5c3.336-3.337,3.336-8.73,0-12.066l-23.36-23.36c5.083-3.007,11.004-4.74,17.327-4.74
				C274.557,50.2,289.866,65.509,289.866,84.333z"/>
		</g>
	</g>
</g>
<g>
</g>
<g>
</g>
<g>
</g>
<g>
</g>
<g>
</g>
<g>
</g>
<g>
</g>
<g>
</g>
<g>
</g>
<g>
</g>
<g>
</g>
<g>
</g>
<g>
</g>
<g>
</g>
<g>
</g>
</svg>
