<?xml version="1.0" encoding="iso-8859-1"?>
<!-- Generator: Adobe Illustrator 19.0.0, SVG Export Plug-In . SVG Version: 6.00 Build 0)  -->
<svg version="1.1" id="Capa_1" xmlns="http://www.w3.org/2000/svg" xmlns:xlink="http://www.w3.org/1999/xlink" x="0px" y="0px"
	 viewBox="0 0 512 512" style="enable-background:new 0 0 512 512;" xml:space="preserve">
<g transform="translate(1 1)">
	<g>
		<g>
			<path d="M395.672,387.395c-10.399-10.399-22.643-18.281-35.988-23.351c16.247-10.204,27.889-27.151,30.987-47.492l8.363-54.178
				c10.394-3.251,18.014-12.979,18.099-24.371c0-0.034,0-0.06,0-0.085c-0.034-14.063-11.511-25.54-25.6-25.583h-22.981
				c11.553-10.237,19.62-24.437,22.119-40.849l8.363-54.178c10.394-3.251,18.014-12.979,18.099-24.371c0-0.034,0-0.06,0-0.085
				c-0.034-14.063-11.511-25.54-25.6-25.583h-0.486C386.788,28.926,354.198-1,314.733-1H195.267
				c-39.457,0-72.053,29.926-76.314,68.267h-0.545c-13.986,0.102-25.438,11.554-25.532,25.626
				c0.034,11.46,7.671,21.214,18.108,24.439l8.354,54.135c2.504,16.422,10.573,30.627,22.126,40.866h-23.048
				c-13.986,0.102-25.438,11.563-25.54,25.626c0.034,11.46,7.672,21.205,18.108,24.439l8.354,54.127
				c3.107,20.379,14.77,37.346,31.039,47.549c-38.568,14.697-66.043,52.059-66.043,95.725v42.667c0,4.719,3.823,8.533,8.533,8.533
				h324.267c4.719,0,8.533-3.814,8.533-8.533V459.8C425.667,432.459,415.017,406.74,395.672,387.395z M304.741,16.067
				c-3.524,9.933-13.013,17.067-24.141,17.067h-51.2c-11.128,0-20.617-7.134-24.141-17.067H304.741z M187.702,16.556
				C191.855,35.762,208.969,50.2,229.4,50.2h51.2c20.431,0,37.545-14.438,41.698-33.644c26.579,3.374,47.761,24.266,51.555,50.711
				H136.139C139.94,40.822,161.123,19.93,187.702,16.556z M136.199,168.882l-9.301-60.245c-0.64-4.156-4.207-7.228-8.405-7.236
				c-4.702-0.017-8.55-3.857-8.559-8.474c0.034-4.702,3.891-8.559,8.533-8.593H127h256h8.508c4.693,0.009,8.525,3.831,8.559,8.516
				c-0.06,4.685-3.9,8.516-8.593,8.55c-4.19,0.034-7.731,3.098-8.371,7.236l-9.301,60.262
				c-3.831,25.172-25.095,43.433-50.566,43.435H186.748C161.294,212.332,140.039,194.071,136.199,168.882z M136.199,313.94
				l-9.301-60.245c-0.64-4.156-4.207-7.228-8.405-7.236c-4.702-0.017-8.55-3.857-8.559-8.474c0.034-4.702,3.891-8.559,8.533-8.593
				h67.902c0.128,0.001,0.254,0.009,0.382,0.009c0.026,0,0.051,0,0.068,0h136.354c0.026,0,0.043,0,0.068,0
				c0.128,0,0.254-0.008,0.382-0.009h67.885c4.693,0.009,8.525,3.831,8.559,8.516c-0.06,4.685-3.9,8.516-8.593,8.55
				c-4.19,0.034-7.731,3.098-8.371,7.236l-9.301,60.262c-3.831,25.182-25.088,43.443-50.56,43.443c-0.017,0-0.043,0-0.06,0H186.81
				c-0.026,0-0.043,0-0.068,0C161.295,357.4,140.039,339.139,136.199,313.94z M408.6,493.933H101.4V459.8
				c0-47.053,38.281-85.333,85.333-85.333h0.009c0.026,0,0.051,0,0.077,0h136.354c0.026,0,0.051,0,0.077,0h0.017
				c22.784,0,44.22,8.875,60.339,24.994c16.119,16.12,24.994,37.555,24.994,60.339V493.933z"/>
			<path d="M255,391.533c-23.526,0-42.667,19.14-42.667,42.667c0,23.526,19.14,42.667,42.667,42.667
				c23.526,0,42.667-19.14,42.667-42.667C297.667,410.674,278.526,391.533,255,391.533z M255,459.8c-14.114,0-25.6-11.486-25.6-25.6
				c0-11.123,7.135-20.608,17.067-24.132v15.598c0,4.719,3.823,8.533,8.533,8.533c4.719,0,8.533-3.814,8.533-8.533v-15.598
				c9.931,3.523,17.067,13.009,17.067,24.132C280.6,448.314,269.114,459.8,255,459.8z"/>
			<path d="M340.333,459.8h-25.6c-4.719,0-8.533,3.814-8.533,8.533s3.814,8.533,8.533,8.533h25.6c4.719,0,8.533-3.814,8.533-8.533
				S345.052,459.8,340.333,459.8z"/>
			<path d="M357.4,255c0-4.71-3.814-8.533-8.533-8.533H161.133c-4.71,0-8.533,3.823-8.533,8.533c0,4.719,3.823,8.533,8.533,8.533
				h187.733C353.586,263.533,357.4,259.719,357.4,255z"/>
			<path d="M348.867,118.467c4.719,0,8.533-3.823,8.533-8.533s-3.814-8.533-8.533-8.533H161.133c-4.71,0-8.533,3.823-8.533,8.533
				s3.823,8.533,8.533,8.533H348.867z"/>
		</g>
	</g>
</g>
<g>
</g>
<g>
</g>
<g>
</g>
<g>
</g>
<g>
</g>
<g>
</g>
<g>
</g>
<g>
</g>
<g>
</g>
<g>
</g>
<g>
</g>
<g>
</g>
<g>
</g>
<g>
</g>
<g>
</g>
</svg>
