<?xml version="1.0" encoding="iso-8859-1"?>
<!-- Generator: Adobe Illustrator 19.0.0, SVG Export Plug-In . SVG Version: 6.00 Build 0)  -->
<svg version="1.1" id="Capa_1" xmlns="http://www.w3.org/2000/svg" xmlns:xlink="http://www.w3.org/1999/xlink" x="0px" y="0px"
	 viewBox="0 0 512 512" style="enable-background:new 0 0 512 512;" xml:space="preserve">
<g transform="translate(1 1)">
	<g>
		<g>
			<path d="M414.606,48.669c-0.225-0.222-0.461-0.436-0.716-0.636l-0.213-0.169c-1.469-1.282-3.001-2.492-4.591-3.627L358.808,4.513
				C354.319,0.954,348.679-1,342.945-1h-175.88c-5.734,0-11.366,1.954-15.872,5.513L100.947,44.21
				c-1.616,1.152-3.172,2.381-4.664,3.685l-0.174,0.138c-0.245,0.194-0.475,0.4-0.693,0.614C83.373,59.582,75.8,75.356,75.8,92.867
				v409.6c0,4.719,3.823,8.533,8.533,8.533h341.333c4.719,0,8.533-3.814,8.533-8.533v-409.6
				C434.2,75.368,426.635,59.603,414.606,48.669z M161.773,17.901c1.502-1.178,3.379-1.835,5.291-1.835h175.88
				c1.903,0,3.78,0.649,5.282,1.835l19.275,15.232H142.494L161.773,17.901z M417.133,493.933H92.867V92.867
				c0-12.56,5.458-23.867,14.123-31.682l4.336-3.426c6.883-4.761,15.223-7.559,24.208-7.559h238.933
				c8.941,0,17.245,2.77,24.109,7.489l4.547,3.593c8.602,7.811,14.011,19.078,14.011,31.585V493.933z"/>
			<path d="M365.933,67.267H144.067c-18.825,0-34.133,15.309-34.133,34.133v358.4c0,9.412,7.654,17.067,17.067,17.067h42.667H229.4
				h51.2h59.733H383c9.412,0,17.067-7.654,17.067-17.067V101.4C400.067,82.575,384.758,67.267,365.933,67.267z M144.067,84.333
				h221.867c9.412,0,17.067,7.654,17.067,17.067v187.733h-28.856l1.456-2.91c1.178-2.364,1.801-5.001,1.801-7.637v-71.023
				c0-5.367-1.647-10.513-4.77-14.891l-4.245-5.939h0.481c4.719,0,8.533-3.823,8.533-8.533s-3.814-8.533-8.533-8.533H331.8h-42.667
				h-17.067c-4.719,0-8.533,3.823-8.533,8.533s3.814,8.533,8.533,8.533h0.48l-4.251,5.948c-3.115,4.369-4.762,9.515-4.762,14.882
				v71.023c0,2.628,0.623,5.274,1.792,7.629l1.46,2.918h-36.391l7.437-104.166c0.529-5.837-0.99-11.725-4.292-16.597l-11.11-16.265
				c-0.939-1.382-1.434-3.004-1.434-4.676v-29.022c-0.034-4.574-1.852-8.866-5.103-12.075c-3.268-3.217-7.492-4.881-12.092-4.932
				h-16.998c-4.497-0.009-8.883,1.724-12.143,4.932c-3.26,3.217-5.069,7.501-5.103,12.134v28.962c0,1.672-0.503,3.285-1.425,4.651
				l-11.145,16.316c-3.285,4.855-4.804,10.735-4.284,16.41l7.446,104.329H127V101.4C127,91.988,134.654,84.333,144.067,84.333z
				 M280.6,278.586v-71.023c0-1.792,0.546-3.507,1.579-4.958l11.341-15.872h33.886l11.332,15.863
				c1.05,1.459,1.596,3.174,1.596,4.966v71.023l-5.274,10.547h-49.186L280.6,278.586z M177.258,289.133l-3.657-51.2h43.335
				l-3.654,51.2H177.258z M169.709,183.431c-0.179-1.92,0.316-3.857,1.382-5.427l11.145-16.316
				c2.867-4.224,4.378-9.148,4.378-14.251l0.119-28.971h17.186v28.971c0,5.094,1.51,10.027,4.395,14.276l11.11,16.265
				c1.084,1.587,1.579,3.524,1.391,5.615l-0.224,3.14h-50.646L169.709,183.431z M171.164,203.8h48.209l-1.218,17.067h-45.772
				L171.164,203.8z M174.94,459.8l-5.274-10.556V378.23c0-1.766,0.563-3.533,1.587-4.966l11.332-15.863h33.886l11.341,15.872
				c1.024,1.434,1.587,3.2,1.587,4.966v71.014l-5.274,10.547H174.94z M285.874,459.8l-5.274-10.556v-88.081
				c0-1.801,0.546-3.516,1.579-4.966l11.341-15.863h33.886l11.341,15.863c1.041,1.451,1.587,3.166,1.587,4.966v88.09L335.06,459.8
				H285.874z M354.139,459.8l1.46-2.918c1.178-2.364,1.801-5.001,1.801-7.637v-88.081c0-5.367-1.647-10.522-4.77-14.882
				l-4.251-5.948h0.487c4.719,0,8.533-3.814,8.533-8.533c0-4.719-3.814-8.533-8.533-8.533H331.8h-42.667h-17.067
				c-4.719,0-8.533,3.814-8.533,8.533c0,4.719,3.814,8.533,8.533,8.533h0.487l-4.251,5.948c-3.123,4.36-4.77,9.506-4.77,14.882
				v88.09c0,2.628,0.623,5.274,1.792,7.629l1.46,2.918h-23.579l1.46-2.918c1.178-2.364,1.801-5.001,1.801-7.637V378.23
				c0-5.367-1.647-10.513-4.779-14.882l-4.248-5.948h0.493c4.71,0,8.533-3.814,8.533-8.533s-3.823-8.533-8.533-8.533h-17.067H178.2
				h-17.067c-4.71,0-8.533,3.814-8.533,8.533s3.823,8.533,8.533,8.533h0.491l-4.254,5.956c-3.123,4.369-4.77,9.506-4.77,14.882
				v71.014c0,2.628,0.623,5.274,1.792,7.629l1.46,2.918H127V306.2h42.005c0.05,0.001,0.1,0,0.151,0H280.6h59.733H383v153.6H354.139z
				"/>
		</g>
	</g>
</g>
<g>
</g>
<g>
</g>
<g>
</g>
<g>
</g>
<g>
</g>
<g>
</g>
<g>
</g>
<g>
</g>
<g>
</g>
<g>
</g>
<g>
</g>
<g>
</g>
<g>
</g>
<g>
</g>
<g>
</g>
</svg>
