<?xml version="1.0" encoding="iso-8859-1"?>
<!-- Generator: Adobe Illustrator 19.0.0, SVG Export Plug-In . SVG Version: 6.00 Build 0)  -->
<svg version="1.1" id="Capa_1" xmlns="http://www.w3.org/2000/svg" xmlns:xlink="http://www.w3.org/1999/xlink" x="0px" y="0px"
	 viewBox="0 0 512.001 512.001" style="enable-background:new 0 0 512.001 512.001;" xml:space="preserve">
<g transform="translate(1 1)">
	<g>
		<path d="M508.46,160.11c-2.739-4.702-7.39-7.509-12.442-7.509h-70.357h-7.683c5.155-23.819,7.742-48.172,7.683-72.525
			c0.026-22.588-2.219-45.278-6.673-67.507c-1.655-7.902-8.969-13.662-16.751-13.568H107.803c-0.034,0-0.06,0-0.085,0
			c-8.038,0-15.061,5.7-16.734,13.653c-4.437,22.144-6.673,44.834-6.656,67.396c-0.052,24.383,2.53,48.733,7.683,72.55h-7.683
			H13.971c-5.043,0-9.702,2.807-12.433,7.518c-3.328,5.717-3.379,13.124-0.128,18.876l7.467,13.175
			c3.285,6.767,9.993,11.221,17.963,11.631h31.889v25.6v42.667v154.459c-19.451,3.964-34.133,21.203-34.133,41.808
			c0,23.526,19.14,42.667,42.667,42.667c23.526,0,42.667-19.14,42.667-42.667h273.067v25.6c0,9.412,7.654,17.067,17.067,17.067
			h34.133c9.412,0,17.067-7.654,17.067-17.067v-34.133V272.068v-42.667v-25.603l32.35-0.014c7.509-0.393,14.225-4.847,17.263-11.145
			l7.714-13.653C511.84,173.235,511.797,165.828,508.46,160.11z M126.995,263.534v-25.6h256v25.6H126.995z M75.795,237.934h34.133
			v25.6H75.795V237.934z M400.061,237.934h34.133v25.6h-34.133V237.934z M107.761,16.068l294.511-0.06
			c4.224,21.043,6.349,42.59,6.323,64.085c0.063,24.384-2.673,48.745-8.105,72.508h-17.495v-25.6c0-14.114-11.486-25.6-25.6-25.6
			H161.128c-14.114,0-25.6,11.486-25.6,25.6v25.6h-25.6H109.5c-5.431-23.769-8.16-48.126-8.105-72.542
			C101.378,58.598,103.502,37.051,107.761,16.068z M152.595,152.601v-25.6c0-4.702,3.831-8.533,8.533-8.533h196.267
			c4.71,0,8.533,3.831,8.533,8.533v25.6H152.595z M102.76,169.668h7.168h297.301h1.365h17.067c4.71,0,8.533,3.831,8.533,8.533
			v42.667h-42.667H118.461H75.795v-42.667c0-4.702,3.831-8.533,8.533-8.533H102.76z M27.283,186.743
			c-1.314-0.068-2.492-0.853-3.311-2.509l-7.723-13.653c-0.137-0.247-0.188-0.589-0.188-0.913h44.135
			c-0.948,2.671-1.468,5.542-1.468,8.533v8.535L27.283,186.743z M67.261,493.934c-14.114,0-25.6-11.486-25.6-25.6
			s11.486-25.6,25.6-25.6c11.738,0,21.642,7.938,24.654,18.721c0.064,0.328,0.148,0.648,0.248,0.961
			c0.452,1.901,0.698,3.881,0.698,5.918C92.861,482.449,81.376,493.934,67.261,493.934z M106.355,451.268
			c-5.494-12.534-16.835-21.944-30.56-24.741V280.601h42.667h273.067h42.667v170.667H106.355z M400.061,493.934v-25.6h34.133v25.6
			H400.061z M493.74,170.589l-7.97,14.123c-0.58,1.186-1.749,1.963-2.62,2.022h-31.889v-8.533c0-2.991-0.521-5.862-1.468-8.533
			h44.135C493.928,169.992,493.877,170.333,493.74,170.589z"/>
	</g>
</g>
<g>
</g>
<g>
</g>
<g>
</g>
<g>
</g>
<g>
</g>
<g>
</g>
<g>
</g>
<g>
</g>
<g>
</g>
<g>
</g>
<g>
</g>
<g>
</g>
<g>
</g>
<g>
</g>
<g>
</g>
</svg>
