<?xml version="1.0" encoding="iso-8859-1"?>
<!-- Generator: Adobe Illustrator 19.0.0, SVG Export Plug-In . SVG Version: 6.00 Build 0)  -->
<svg version="1.1" id="Capa_1" xmlns="http://www.w3.org/2000/svg" xmlns:xlink="http://www.w3.org/1999/xlink" x="0px" y="0px"
	 viewBox="0 0 511.985 511.985" style="enable-background:new 0 0 511.985 511.985;" xml:space="preserve">
<g transform="translate(1)">
	<g>
		<path d="M481.915,92.093C437.573,20.348,352.736-14.416,270.824,5.653c-81.929,20.043-141.128,90.023-147.329,174.246
			c-2.678,43.6-21.007,84.795-51.532,115.917l-37.877,37.877c-9.015,9.015-7.173,24.65,1.263,42.445l-15.839,15.833
			c-27.369,27.429-27.344,72.027,0.051,99.422c13.706,13.706,31.719,20.563,49.732,20.563c17.987,0,35.984-6.849,49.69-20.529
			l15.749-15.742c11.08,5.288,19.635,7.247,26.239,7.247c7.923,0,13.032-2.815,16.282-6.064l25.474-25.468
			c0.009-0.009,0.019-0.016,0.028-0.025c0.01-0.01,0.017-0.02,0.027-0.03l12.4-12.397c13.661-13.796,29.38-25.071,46.458-33.533
			c0.343-0.144,0.677-0.308,0.998-0.495c20.311-9.903,42.515-15.838,65.467-17.273c52.726-2.968,102.552-27.787,136.676-68.095
			C519.366,255.243,526.24,163.847,481.915,92.093z M260.096,161.314c1.679,3.2,3.799,6.206,6.37,8.913
			c6.891,7.241,16.017,11.488,25.664,12.188c0.691,9.305,4.682,18.175,11.463,24.947c6.772,6.781,15.634,10.763,24.947,11.454
			c0.691,9.646,4.938,18.781,12.188,25.664c2.706,2.569,5.707,4.699,8.907,6.377l-162.108,92.666
			c-3.465-3.19-6.917-6.494-10.332-9.908c-3.367-3.367-6.624-6.767-9.772-10.18L260.096,161.314z M165.134,345.675
			c24.592,24.592,50.698,43.797,72.358,53.711c-4.092,2.563-8.09,5.287-11.989,8.163c-1.969,0.106-3.906,0.905-5.434,2.434
			c-4.81,2.226-33.297-8.512-71.942-47.156c-36.111-36.111-49.911-66.022-47.242-71.856c0.998-1.443,1.489-3.087,1.513-4.72
			c3.142-4.281,6.114-8.675,8.894-13.178C121.152,294.757,140.394,320.936,165.134,345.675z M190.854,439.153
			c-5.03,2.091-33.411-8.732-71.87-47.191c-38.653-38.653-49.4-67.123-47.344-71.703c0,0,0,0,0,0l12.444-12.444
			c0.745-0.76,1.476-1.532,2.208-2.302c7.843,22.822,32.147,51.76,49.767,69.374c18.039,18.039,37.041,33.101,53.519,42.414
			c5.751,3.248,11.022,5.696,15.808,7.352c-0.764,0.746-1.529,1.492-2.281,2.252L190.854,439.153z M106.933,479.358
			c-20.776,20.742-54.56,20.717-75.31-0.026c-20.751-20.759-20.768-54.534-0.043-75.31l12.399-12.394
			c8.844,13.959,20.705,28.423,33.811,41.528c13.563,13.563,27.887,25.227,41.479,33.871L106.933,479.358z M140.383,459.46
			c-0.797-0.399-1.604-0.822-2.412-1.251c-0.527-0.365-1.083-0.668-1.662-0.901c-14.69-8.068-31.015-20.766-46.46-36.212
			c-17.85-17.854-29.463-34.054-36.396-46.874c-0.15-0.322-0.318-0.637-0.511-0.942c-7.879-14.872-9.325-25-6.796-27.529
			l10.99-10.99c7.81,22.624,31.827,51.306,49.787,69.26c17.958,17.965,46.642,41.981,69.271,49.786l-10.993,10.991
			C163.3,466.709,155.13,466.829,140.383,459.46z M451.791,308.506c0,0.009,0,0.009,0,0.009
			c-31.122,36.751-76.547,59.387-124.684,62.099c-24.432,1.524-48.085,7.689-69.815,17.953c-14.93-3.83-35.269-15.981-56.157-33.181
			l178.017-101.76c0.502-0.227,0.981-0.501,1.432-0.819l13.389-7.654c4.085-2.337,5.51-7.548,3.173-11.633
			c-2.328-4.085-7.548-5.501-11.633-3.173l-13.013,7.439c-7.219,1.529-14.647-0.553-20.037-5.665
			c-5.621-5.339-8.06-13.049-6.516-20.64c0.571-2.797-0.307-5.697-2.32-7.719s-4.913-2.891-7.719-2.337
			c-7.403,1.493-14.943-0.802-20.256-6.115c-5.314-5.322-7.608-12.887-6.124-20.256c0.563-2.797-0.316-5.697-2.328-7.71
			c-2.013-2.013-4.904-2.891-7.71-2.328c-7.582,1.535-15.318-0.913-20.657-6.525c-5.115-5.393-7.196-12.827-5.662-20.05
			l7.436-13.008c2.337-4.085,0.913-9.297-3.173-11.633c-4.077-2.337-9.305-0.921-11.633,3.173l-7.715,13.497
			c-0.271,0.398-0.514,0.814-0.717,1.254l-101.82,178.121c-17.502-21.205-29.767-41.81-33.429-56.796
			c10.538-22.474,16.855-46.887,18.399-72.007c5.655-76.718,59.651-140.548,134.365-158.834c14.107-3.446,28.29-5.117,42.329-5.117
			c60.274,0,117.401,30.875,150.211,83.959C507.852,166.491,501.574,249.862,451.791,308.506z"/>
	</g>
</g>
<g>
</g>
<g>
</g>
<g>
</g>
<g>
</g>
<g>
</g>
<g>
</g>
<g>
</g>
<g>
</g>
<g>
</g>
<g>
</g>
<g>
</g>
<g>
</g>
<g>
</g>
<g>
</g>
<g>
</g>
</svg>
