<?xml version="1.0" encoding="iso-8859-1"?>
<!-- Generator: Adobe Illustrator 19.0.0, SVG Export Plug-In . SVG Version: 6.00 Build 0)  -->
<svg version="1.1" id="Capa_1" xmlns="http://www.w3.org/2000/svg" xmlns:xlink="http://www.w3.org/1999/xlink" x="0px" y="0px"
	 viewBox="0 0 512 512" style="enable-background:new 0 0 512 512;" xml:space="preserve">
<g transform="translate(1 1)">
	<g>
		<g>
			<path d="M255-1C113.842-1-1,113.842-1,255s114.842,256,256,256s256-114.842,256-256S396.158-1,255-1z M255,493.933
				C123.254,493.933,16.067,386.746,16.067,255S123.254,16.067,255,16.067S493.933,123.254,493.933,255S386.746,493.933,255,493.933
				z"/>
			<path d="M412.788,99.192c-0.27-0.376-0.565-0.739-0.903-1.077c-0.336-0.336-0.697-0.629-1.071-0.897
				C370.722,57.62,315.671,33.133,255,33.133c-60.662,0-115.708,24.483-155.801,64.075c-0.378,0.271-0.744,0.567-1.084,0.907
				s-0.636,0.706-0.907,1.084C57.616,139.292,33.133,194.338,33.133,255c0,60.669,24.485,115.718,64.081,155.81
				c0.269,0.375,0.563,0.738,0.9,1.075c0.336,0.336,0.699,0.63,1.073,0.898c40.093,39.595,95.142,64.08,155.809,64.083
				c0.001,0,0.002,0,0.003,0c0.001,0,0.001,0,0.002,0c0.002,0,0.005,0,0.007,0c60.328-0.072,115.121-24.38,155.166-63.67
				c0.608-0.359,1.186-0.789,1.711-1.311c0.526-0.526,0.959-1.107,1.319-1.719c39.285-40.046,63.59-94.837,63.662-155.166
				C476.867,194.335,452.383,139.285,412.788,99.192z M442.733,263.533h16.865c-2.121,49.984-22.248,95.414-54.049,129.95
				l-11.764-11.764c-3.337-3.336-8.73-3.337-12.066,0c-3.336,3.337-3.336,8.73,0,12.066l11.764,11.764
				c-34.537,31.803-79.968,51.93-129.95,54.049v-16.866c0-4.719-3.814-8.533-8.533-8.533c-4.71,0-8.533,3.814-8.533,8.533v16.876
				c-50.041-2.062-95.503-22.161-130.045-53.961l11.867-11.861c3.337-3.337,3.337-8.73,0-12.066c-3.336-3.336-8.73-3.336-12.066,0
				l-11.867,11.861c-31.802-34.542-51.902-80.006-53.964-130.048h16.875c4.71,0,8.533-3.814,8.533-8.533
				c0-4.71-3.823-8.533-8.533-8.533H50.391c2.062-50.041,22.162-95.504,53.963-130.047l11.868,11.868
				c1.664,1.664,3.849,2.5,6.033,2.5c2.185,0,4.369-0.836,6.033-2.5c3.336-3.336,3.336-8.73,0-12.066l-11.868-11.868
				c34.542-31.801,80.005-51.901,130.047-53.963v16.875c0,4.71,3.823,8.533,8.533,8.533c4.719,0,8.533-3.823,8.533-8.533V50.391
				c50.042,2.062,95.506,22.163,130.049,53.964l-11.862,11.867c-3.337,3.337-3.337,8.738,0,12.066c1.664,1.664,3.849,2.5,6.033,2.5
				c2.185,0,4.361-0.836,6.033-2.5l11.862-11.867c31.802,34.543,51.901,80.006,53.961,130.046h-16.876
				c-4.719,0-8.533,3.823-8.533,8.533C434.2,259.719,438.014,263.533,442.733,263.533z"/>
			<path d="M348.867,229.4h-56.201l62.234-62.234c3.336-3.336,3.337-8.73,0-12.066s-8.73-3.337-12.066,0L280.6,217.334v-98.927
				c-0.102-13.986-11.563-25.438-25.626-25.54c-14.054,0.043-25.532,11.52-25.574,25.6v113.99
				c-5.305,6.017-8.533,13.908-8.533,22.544c0,6.323,1.733,12.244,4.74,17.327l-16.786,16.786
				c-9.322-3.946-20.529-2.131-28.121,5.448l-24.141,24.141c-1.604,1.596-2.5,3.772-2.5,6.033c0,2.27,0.896,4.429,2.5,6.033
				L180.7,354.9c1.664,1.664,3.849,2.5,6.033,2.5c2.185,0,4.369-0.836,6.033-2.5l24.141-24.132
				c8.133-8.14,9.633-20.437,4.504-30.113l16.262-16.262c5.083,3.007,11.004,4.74,17.327,4.74c8.636,0,16.526-3.228,22.544-8.533
				h71.383c13.986-0.094,25.438-11.554,25.54-25.617C374.433,240.92,362.955,229.443,348.867,229.4z M254.94,109.933
				c4.702,0.034,8.559,3.891,8.593,8.533v103.48c-2.728-0.705-5.588-1.08-8.533-1.08s-5.805,0.375-8.533,1.08V118.492
				C246.484,113.79,250.324,109.942,254.94,109.933z M204.841,318.701l-18.108,18.099l-12.075-12.066l18.108-18.099
				c3.337-3.345,8.747-3.328,12.075-0.009C208.169,309.963,208.169,315.373,204.841,318.701z M242.994,267.115
				c-0.018-0.018-0.033-0.039-0.051-0.057s-0.038-0.033-0.057-0.051c-3.058-3.086-4.952-7.328-4.952-12.006
				c0-4.905,2.09-9.319,5.413-12.435c0.221-0.181,0.432-0.373,0.633-0.575c2.976-2.525,6.82-4.057,11.021-4.057
				c4.192,0,8.029,1.524,11.003,4.04c0.212,0.214,0.435,0.416,0.668,0.607c0.11,0.104,0.228,0.199,0.335,0.305
				c0.018,0.018,0.033,0.039,0.052,0.057s0.039,0.034,0.057,0.052c0.106,0.107,0.201,0.225,0.304,0.335
				c0.19,0.233,0.393,0.455,0.606,0.667c2.516,2.974,4.042,6.812,4.042,11.004c0,4.184-1.518,8.015-4.025,10.986
				c-0.225,0.222-0.438,0.456-0.637,0.701c-3.114,3.303-7.516,5.379-12.404,5.379C250.321,272.067,246.08,270.173,242.994,267.115z
				 M348.867,263.533h-60.813c0.705-2.728,1.08-5.588,1.08-8.533s-0.375-5.805-1.08-8.533h60.787c4.71,0.017,8.55,3.857,8.559,8.474
				C357.366,259.642,353.509,263.499,348.867,263.533z"/>
		</g>
	</g>
</g>
<g>
</g>
<g>
</g>
<g>
</g>
<g>
</g>
<g>
</g>
<g>
</g>
<g>
</g>
<g>
</g>
<g>
</g>
<g>
</g>
<g>
</g>
<g>
</g>
<g>
</g>
<g>
</g>
<g>
</g>
</svg>
