<?xml version="1.0" encoding="iso-8859-1"?>
<!-- Generator: Adobe Illustrator 19.0.0, SVG Export Plug-In . SVG Version: 6.00 Build 0)  -->
<svg version="1.1" id="Capa_1" xmlns="http://www.w3.org/2000/svg" xmlns:xlink="http://www.w3.org/1999/xlink" x="0px" y="0px"
	 viewBox="0 0 511.997 511.997" style="enable-background:new 0 0 511.997 511.997;" xml:space="preserve">
<g transform="translate(0 1)">
	<g>
		<g>
			<path d="M504.117,143.98L367.424,7.304c-9.661-9.653-26.488-9.644-36.141,0l-148.972,148.98l-20.3-13.531
				c-6.279-4.183-14.688-3.348-20.005,1.977l-0.87,0.87c-24.915-24.107-18.849-37.32-10.487-55.456
				c6.484-14.058,13.828-29.99,5.47-50.889C117.282-7.827,19.338-1.062,8.219-0.151C3.533,0.241,0.049,4.348,0.441,9.042
				c0.392,4.694,4.584,8.154,9.193,7.787c26.684-2.215,98.626-1.355,110.664,28.755c5.632,14.092,0.648,24.903-5.12,37.419
				c-8.676,18.826-19.432,42.179,13.935,74.68c-4.733,5.341-5.329,13.301-1.326,19.294l13.532,20.302L7.904,330.7
				c-4.831,4.822-7.489,11.246-7.489,18.071c0,6.833,2.667,13.257,7.489,18.071l136.684,136.692
				c4.976,4.976,11.519,7.463,18.062,7.463c6.552-0.009,13.095-2.496,18.079-7.48l323.388-323.388
				C514.077,170.161,514.077,153.948,504.117,143.98z M153.372,157.466l16.656,11.101l-16.418,16.418l-11.11-16.656L153.372,157.466
				z M492.07,168.082L168.682,491.47c-3.331,3.323-8.733,3.331-12.056,0.008L19.943,354.786c-1.602-1.602-2.488-3.732-2.488-6.015
				c0-2.275,0.886-4.413,2.496-6.024L343.339,19.351c1.602-1.602,3.74-2.488,6.023-2.488c2.266,0,4.413,0.886,6.024,2.488
				l136.675,136.675C495.393,159.358,495.393,164.759,492.07,168.082z"/>
			<path d="M95.224,336.724l-13.879-13.887c-6.441-6.45-17.679-6.432-24.094,0l-13.879,13.887c-6.645,6.646-6.645,17.457,0,24.094
				l13.887,13.896c3.323,3.314,7.676,4.967,12.039,4.967s8.724-1.661,12.047-4.976l13.879-13.887
				C101.869,354.181,101.869,343.361,95.224,336.724z M69.298,362.658l-13.887-13.879l0.008-0.008l13.879-13.887l13.879,13.887
				L69.298,362.658z"/>
			<path d="M141.904,383.396L128.017,369.5c-6.637-6.628-17.449-6.62-24.086,0.009l-13.879,13.887
				c-3.178,3.169-4.993,7.566-4.993,12.047c0,4.55,1.772,8.827,4.993,12.047l13.879,13.887c3.323,3.323,7.685,4.984,12.047,4.984
				c4.362,0,8.724-1.661,12.047-4.984l13.879-13.887C148.55,400.853,148.55,390.033,141.904,383.396z M115.978,409.33
				l-19.902-19.911l6.023,6.024l13.879-13.887l13.879,13.887L115.978,409.33z"/>
			<path d="M174.697,416.197c-6.637-6.637-17.457-6.637-24.094,0l-13.879,13.879c-3.22,3.221-4.993,7.506-4.993,12.064
				c0.009,4.55,1.781,8.827,4.993,12.03l13.879,13.887c3.323,3.323,7.685,4.984,12.047,4.984c4.371,0,8.733-1.67,12.047-4.984
				l13.879-13.887c6.645-6.637,6.645-17.457,0-24.094L174.697,416.197z M162.65,456.01l-13.879-13.887l13.879-13.879l13.879,13.879
				L162.65,456.01z"/>
			<path d="M103.931,328.017c3.323,3.323,7.685,4.984,12.047,4.984c4.362,0,8.724-1.661,12.047-4.984l13.879-13.879
				c6.646-6.637,6.646-17.457,0-24.094l-13.879-13.887c-6.441-6.441-17.679-6.441-24.094,0l-13.879,13.887
				c-3.221,3.221-4.993,7.497-4.993,12.047c0,4.481,1.815,8.878,4.993,12.047L103.931,328.017z M115.978,288.203l13.879,13.887
				l-13.879,13.879L102.1,302.091L115.978,288.203z"/>
			<path d="M150.603,322.837l-13.879,13.887c-3.22,3.221-4.993,7.497-4.993,12.047s1.772,8.827,4.993,12.047l13.879,13.887
				c3.323,3.323,7.685,4.976,12.047,4.976s8.724-1.661,12.047-4.976l13.879-13.887c6.645-6.637,6.645-17.457,0-24.094
				l-13.879-13.887C168.06,316.2,157.24,316.2,150.603,322.837z M162.65,362.658l-19.902-19.911l6.023,6.023l13.879-13.887
				l13.879,13.887L162.65,362.658z"/>
			<path d="M221.369,369.5c-6.637-6.628-17.44-6.62-24.086,0.008l-13.879,13.887c-6.646,6.645-6.646,17.457,0,24.094l13.879,13.887
				c3.323,3.323,7.685,4.984,12.047,4.984c4.362,0,8.724-1.661,12.047-4.984l13.879-13.887c6.646-6.637,6.646-17.457,0-24.094
				L221.369,369.5z M209.33,409.33l-13.887-13.879l0.009-0.008l13.879-13.887l13.879,13.887L209.33,409.33z"/>
			<path d="M150.603,281.345c3.323,3.323,7.685,4.984,12.047,4.984c4.371,0,8.733-1.67,12.047-4.984l13.879-13.879
				c6.645-6.654,6.645-17.457,0-24.103l-13.879-13.879c-6.637-6.645-17.457-6.645-24.094,0l-13.879,13.879
				c-6.645,6.646-6.645,17.457,0,24.103L150.603,281.345z M162.65,241.532l13.879,13.887l-13.879,13.879l-13.887-13.87
				L162.65,241.532z"/>
			<path d="M209.33,333.001c4.362,0,8.724-1.661,12.047-4.984l13.879-13.879c6.646-6.637,6.646-17.457,0-24.094l-13.879-13.887
				c-6.637-6.637-17.457-6.637-24.094,0l-13.879,13.887c-6.646,6.645-6.646,17.457,0,24.094l13.879,13.879
				C200.606,331.339,204.968,333.001,209.33,333.001z M195.451,302.091l13.879-13.887l13.879,13.887L209.33,315.97l-13.887-13.87
				L195.451,302.091z"/>
			<path d="M197.283,234.665c3.323,3.323,7.685,4.984,12.047,4.984c4.362,0,8.724-1.661,12.056-4.984l13.879-13.879
				c3.221-3.221,4.993-7.497,4.993-12.047c0-4.558-1.772-8.835-4.993-12.047l-13.887-13.887c-6.637-6.628-17.44-6.645-24.094,0
				l-13.879,13.887c-6.646,6.646-6.646,17.449,0,24.094L197.283,234.665z M195.451,208.739l13.879-13.887l13.879,13.887
				l-13.879,13.879l-13.887-13.87L195.451,208.739z"/>
			<path d="M256.002,286.329c4.362,0,8.733-1.67,12.047-4.984l13.887-13.879c6.646-6.654,6.646-17.457,0-24.103l-13.887-13.879
				c-6.646-6.654-17.449-6.645-24.094,0l-13.879,13.879c-3.22,3.221-4.993,7.497-4.993,12.056c0,4.481,1.815,8.878,4.993,12.047
				l13.879,13.879C247.278,284.668,251.64,286.329,256.002,286.329z M256.002,241.523l13.887,13.887l-13.887,13.879l-13.879-13.879
				L256.002,241.523z"/>
			<path d="M243.955,187.993c3.323,3.323,7.685,4.984,12.047,4.984c4.362,0,8.733-1.661,12.047-4.984l13.887-13.879
				c3.221-3.221,4.993-7.497,4.993-12.056c0-4.55-1.772-8.827-4.993-12.047l-13.887-13.879c-6.646-6.646-17.449-6.646-24.094,0
				l-13.879,13.879c-3.22,3.22-4.993,7.497-4.993,12.056c0,4.55,1.772,8.827,4.993,12.047L243.955,187.993z M242.123,162.059
				l13.879-13.879l13.887,13.879l-13.887,13.887L236.1,156.035L242.123,162.059z"/>
			<path d="M302.682,239.649c4.362,0,8.724-1.661,12.047-4.984l13.887-13.879c3.22-3.221,4.993-7.497,4.993-12.047
				c0-4.558-1.772-8.835-4.993-12.047l-13.887-13.887c-6.654-6.628-17.457-6.637-24.094,0.009l-13.887,13.879
				c-6.637,6.637-6.637,17.44,0,24.094l13.887,13.879C293.958,237.987,298.32,239.649,302.682,239.649z M302.682,194.852
				l13.887,13.887l-13.887,13.879l-13.887-13.879L302.682,194.852z"/>
			<path d="M290.635,141.313c3.323,3.323,7.685,4.984,12.047,4.984c4.362,0,8.724-1.661,12.047-4.984l13.887-13.879
				c6.645-6.645,6.645-17.449,0-24.094l-13.887-13.879c-6.637-6.645-17.457-6.645-24.094,0l-13.887,13.879
				c-6.637,6.637-6.637,17.449,0,24.094L290.635,141.313z M302.682,101.5l13.887,13.879l-13.887,13.879l-13.887-13.879
				L302.682,101.5z"/>
			<path d="M349.362,192.977c4.354,0,8.724-1.661,12.047-4.984l13.887-13.879c3.221-3.221,4.993-7.497,4.993-12.056
				c0-4.55-1.772-8.827-4.993-12.047l-13.887-13.879c-6.637-6.646-17.457-6.646-24.094,0l-13.887,13.879l-0.009,0.008
				c-6.62,6.645-6.62,17.449,0.009,24.094l13.887,13.879C340.638,191.316,345,192.977,349.362,192.977z M349.362,148.18
				l13.887,13.879l-13.887,13.887l-13.879-13.896L349.362,148.18z"/>
			<path d="M408.081,182.804c-6.654-6.628-17.457-6.637-24.094,0.009L370.1,196.692l-0.009,0.009
				c-6.62,6.637-6.62,17.44,0.009,24.086l13.887,13.879c3.323,3.323,7.685,4.984,12.047,4.984c4.362,0,8.724-1.661,12.047-4.984
				l13.887-13.879c3.22-3.221,4.993-7.497,4.993-12.047c0-4.558-1.772-8.835-4.993-12.047L408.081,182.804z M396.034,222.618
				l-13.879-13.887l13.879-13.879l13.887,13.887L396.034,222.618z"/>
			<path d="M454.761,136.141c-6.637-6.645-17.457-6.645-24.094,0L416.78,150.02c-3.212,3.212-4.984,7.489-4.984,12.013
				c-0.017,4.49,1.798,8.895,4.984,12.081l13.887,13.879c3.323,3.314,7.676,4.976,12.047,4.976c4.354,0,8.724-1.661,12.047-4.967
				l13.887-13.879c3.221-3.22,4.993-7.497,4.993-12.056c0-4.55-1.772-8.827-4.993-12.047L454.761,136.141z M442.714,175.946
				l-13.879-13.896l13.879-13.87l13.887,13.879L442.714,175.946z"/>
			<path d="M361.401,229.485c-6.637-6.645-17.457-6.645-24.094,0L230.076,336.724c-6.645,6.637-6.645,17.457,0,24.094l13.887,13.896
				c3.323,3.314,7.676,4.967,12.039,4.967c4.362,0,8.733-1.661,12.056-4.976l107.231-107.239c6.646-6.654,6.646-17.457,0-24.103
				L361.401,229.485z M256.002,362.658l-13.887-13.879l0.008-0.008l107.239-107.239l13.879,13.887L256.002,362.658z"/>
			<path d="M383.987,141.313c3.221,3.221,7.497,4.993,12.047,4.993c4.55,0,8.827-1.772,12.047-4.993l13.887-13.879
				c3.22-3.22,4.993-7.497,4.993-12.047c0-4.558-1.772-8.835-4.993-12.047l-60.559-60.559c-6.637-6.646-17.457-6.646-24.094,0
				L323.428,56.66c-3.221,3.221-4.993,7.497-4.993,12.047c0,4.55,1.772,8.827,4.993,12.047L383.987,141.313z M349.362,54.828
				l60.559,60.559l-13.887,13.879l-60.559-60.559L349.362,54.828z"/>
		</g>
	</g>
</g>
<g>
</g>
<g>
</g>
<g>
</g>
<g>
</g>
<g>
</g>
<g>
</g>
<g>
</g>
<g>
</g>
<g>
</g>
<g>
</g>
<g>
</g>
<g>
</g>
<g>
</g>
<g>
</g>
<g>
</g>
</svg>
