<?xml version="1.0" encoding="iso-8859-1"?>
<!-- Generator: Adobe Illustrator 19.0.0, SVG Export Plug-In . SVG Version: 6.00 Build 0)  -->
<svg version="1.1" id="Capa_1" xmlns="http://www.w3.org/2000/svg" xmlns:xlink="http://www.w3.org/1999/xlink" x="0px" y="0px"
	 viewBox="0 0 512 512" style="enable-background:new 0 0 512 512;" xml:space="preserve">
<g transform="translate(1 1)">
	<g>
		<g>
			<path d="M58.733,101.4h102.4c14.114,0,25.6-11.486,25.6-25.6V58.733c0-14.114-11.486-25.6-25.6-25.6h-102.4
				c-14.114,0-25.6,11.486-25.6,25.6V75.8C33.133,89.914,44.619,101.4,58.733,101.4z M50.2,58.733c0-4.702,3.831-8.533,8.533-8.533
				h102.4c4.702,0,8.533,3.831,8.533,8.533V75.8c0,4.702-3.831,8.533-8.533,8.533h-102.4c-4.702,0-8.533-3.831-8.533-8.533V58.733z"
				/>
			<path d="M493.933,152.6H220.867V24.574C220.824,10.52,209.347-0.957,195.267-1H24.574C10.52-0.957-0.957,10.52-1,24.6v460.826
				c0.043,14.063,11.52,25.54,25.6,25.574h170.684c14.063-0.034,25.54-11.511,25.583-25.6v-42.667H280.6v22.089l-19.32,15.841
				c-5.513,4.497-7.663,12.049-5.359,18.773c2.295,6.733,8.627,11.383,15.957,11.563v0h85.931c7.117-0.179,13.44-4.83,15.744-11.554
				c2.295-6.733,0.154-14.285-5.35-18.773l-19.337-15.857v-22.083h145.067c9.412,0,17.067-7.654,17.067-17.067v-256
				C511,160.254,503.346,152.6,493.933,152.6z M493.933,374.467H135.532l-0.001-21.881c0-0.021,0.001-0.041,0-0.062l-0.002-58.494
				c0.002-0.062-0.001-0.124,0-0.186l-0.001-38.731c0-0.038,0.006-0.075,0.006-0.113s-0.005-0.075-0.006-0.113l-0.001-33.885
				c0.001-0.045,0.007-0.09,0.007-0.135c0-0.046-0.006-0.09-0.007-0.135l-0.001-42.368c0.001-0.055,0.008-0.108,0.008-0.163
				c0-0.055-0.007-0.109-0.008-0.164l0-8.37h0.009h358.4V374.467z M169.667,152.6h-34.133c-9.412,0-17.067,7.654-17.067,17.067
				H58.759c-4.702-0.009-8.55-3.857-8.559-8.533v-17.041c0.009-4.702,3.857-8.55,8.533-8.559h102.374
				c4.702,0.009,8.55,3.857,8.559,8.533V152.6z M118.467,347.373c-9.925,3.554-21.196,0.678-28.194-7.645
				c-8.021-9.54-8.021-23.39,0-32.93c6.99-8.323,18.273-11.206,28.194-7.649V347.373z M203.8,485.374
				c-0.008,4.71-3.857,8.55-8.533,8.559H24.617c-4.693-0.009-8.542-3.849-8.55-8.533V24.626c0.009-4.702,3.857-8.55,8.533-8.559
				h170.641c4.702,0.009,8.55,3.857,8.559,8.533v128h-17.067v-8.559c-0.043-14.054-11.52-25.532-25.6-25.574H58.708
				c-14.054,0.043-25.532,11.52-25.574,25.6v17.092c0.043,14.054,11.52,25.532,25.6,25.574h59.733v25.6H84.333
				c-4.71,0-8.533,3.823-8.533,8.533c0,4.71,3.823,8.533,8.533,8.533h34.133v17.067H84.333c-4.71,0-8.533,3.823-8.533,8.533
				c0,4.719,3.823,8.533,8.533,8.533h34.133v17.929c-14.993-3.096-30.926,2.067-41.259,14.352
				c-13.372,15.915-13.372,38.997,0,54.903c8.371,9.958,20.412,15.241,32.657,15.241c2.871,0,5.752-0.302,8.602-0.891V383H101.4
				c-14.114,0-25.6,11.486-25.6,25.6s11.486,25.6,25.6,25.6h19.375c2.956,5.093,8.456,8.533,14.758,8.533H203.8V485.374z
				 M101.4,417.133c-4.702,0-8.533-3.823-8.533-8.533s3.831-8.533,8.533-8.533h17.067v17.067H101.4z M272.084,493.865l20.736-16.998
				h43.836l20.932,17.067L272.084,493.865z M331.8,459.8h-34.133v-17.067H331.8V459.8z M340.333,425.667h-51.2h-153.6v-34.133h358.4
				v34.133H340.333z"/>
			<path d="M161.133,212.333c2.185,0,4.369-0.836,6.033-2.5l8.533-8.533c3.337-3.336,3.337-8.73,0-12.066
				c-3.336-3.337-8.73-3.337-12.066,0l-8.533,8.533c-3.337,3.336-3.337,8.73,0,12.066
				C156.764,211.497,158.949,212.333,161.133,212.333z"/>
			<path d="M206.3,189.234l-51.2,51.2c-3.337,3.337-3.337,8.73,0,12.066c1.664,1.664,3.849,2.5,6.033,2.5
				c2.185,0,4.369-0.836,6.033-2.5l51.2-51.2c3.337-3.336,3.337-8.73,0-12.066C215.03,185.897,209.637,185.897,206.3,189.234z"/>
		</g>
	</g>
</g>
<g>
</g>
<g>
</g>
<g>
</g>
<g>
</g>
<g>
</g>
<g>
</g>
<g>
</g>
<g>
</g>
<g>
</g>
<g>
</g>
<g>
</g>
<g>
</g>
<g>
</g>
<g>
</g>
<g>
</g>
</svg>
