<?xml version="1.0" encoding="iso-8859-1"?>
<!-- Generator: Adobe Illustrator 19.0.0, SVG Export Plug-In . SVG Version: 6.00 Build 0)  -->
<svg version="1.1" id="Capa_1" xmlns="http://www.w3.org/2000/svg" xmlns:xlink="http://www.w3.org/1999/xlink" x="0px" y="0px"
	 viewBox="0 0 511.998 511.998" style="enable-background:new 0 0 511.998 511.998;" xml:space="preserve">
<g transform="translate(0 -1)">
	<g>
		<g>
			<path d="M500.809,138.324l-6.931-6.932c-0.027-0.027-0.049-0.057-0.076-0.084L381.694,19.2c-0.002-0.002-0.004-0.003-0.006-0.005
				l-7.002-7.002c-14.911-14.919-39.184-14.919-54.112,0L236.487,96.28c-14.919,14.919-14.919,39.193,0,54.112l0.979,0.979
				l-29.622,29.551c-12.803,12.803-24.112,24.427-34.533,35.48c-4.938,5.173-9.853,10.398-14.75,15.649
				c-16.772,17.968-33.253,36.354-49.221,54.918c-2.088,2.425-4.177,4.85-6.247,7.281C72.486,330.063,42.725,367.43,14.67,405.291
				l-1.818,2.424c-19.323,26.1-16.584,63.091,6.376,86.059c12.709,12.709,29.719,19.221,46.798,19.221
				c13.793,0,27.628-4.242,39.287-12.896l2.33-1.75c37.566-27.73,74.554-57.166,109.893-87.478c0.113-0.087,0.228-0.169,0.337-0.262
				c27.056-22.959,53.831-47.079,79.581-71.694c0.057-0.055,0.106-0.115,0.161-0.171c11.571-11.014,23.157-22.312,34.457-33.611
				l29.543-29.614l0.996,0.996c7.46,7.46,17.258,11.189,27.056,11.189c9.807,0,19.596-3.73,27.056-11.181l84.087-84.087
				C515.728,177.517,515.728,153.243,500.809,138.324z M475.699,137.351l-43.008,43.017c-0.521,0.512-1.434,0.512-1.955,0
				l-98.093-98.102c-0.247-0.256-0.401-0.615-0.401-0.973c0-0.367,0.145-0.717,0.401-0.973l43.013-43.013l50.222,50.219
				L475.699,137.351z M97.468,484.676l-2.347,1.758c-19.366,14.33-46.789,12.299-63.825-4.72
				c-17.027-17.036-19.067-44.476-4.754-63.791l1.818-2.432c25.146-33.931,51.656-67.426,78.912-99.76
				c9.612,19.904,22.501,37.786,38.368,53.202c14.945,15.289,32.059,27.803,51,37.333C164.58,433.38,131.296,459.716,97.468,484.676
				z M320.003,293.09c-11.249,11.258-22.788,22.515-34.336,33.491c0,0,0,0-0.001,0.001c-0.009,0.009-0.019,0.018-0.028,0.027
				c-22.243,21.204-45.174,42.013-68.33,62.013c-0.688,0.593-1.376,1.184-2.065,1.775c-1.459,1.256-2.919,2.503-4.38,3.753
				c-19.883-9.004-37.7-21.489-53.163-37.302c-16.385-15.925-29.221-34.563-38.225-55.471c0.643-0.751,1.286-1.501,1.931-2.251
				c1.532-1.784,3.068-3.567,4.61-5.348c1.66-1.916,3.327-3.83,4.998-5.742c0.95-1.088,1.899-2.176,2.852-3.263
				c2.203-2.51,4.416-5.014,6.635-7.514c0.512-0.577,1.022-1.155,1.535-1.732c2.553-2.869,5.118-5.731,7.691-8.586
				c0.257-0.285,0.512-0.571,0.77-0.856c2.648-2.935,5.308-5.86,7.974-8.778c0.251-0.275,0.501-0.551,0.752-0.826
				c2.35-2.568,4.711-5.124,7.074-7.677c0.636-0.687,1.27-1.379,1.907-2.065c1.412-1.521,2.832-3.031,4.248-4.546
				c4.387-4.69,8.788-9.36,13.21-13.987c0.054-0.056,0.099-0.117,0.15-0.174c10.321-10.931,21.473-22.397,34.101-35.025
				l29.634-29.557l100.014,100.014L320.003,293.09z M488.749,180.367l-84.087,84.087c-8.27,8.27-21.705,8.27-29.975,0l-6.781-6.781
				c-0.085-0.092-0.162-0.188-0.251-0.277L255.589,145.331c-0.115-0.116-0.239-0.217-0.359-0.325l-6.674-6.674
				c-8.262-8.27-8.262-21.713,0-29.975l84.087-84.087c4.14-4.131,9.559-6.196,14.988-6.196c5.42,0,10.848,2.057,14.979,6.188
				l0.977,0.977l-43.012,43.012c-3.482,3.474-5.403,8.108-5.403,13.042c0,4.925,1.92,9.559,5.403,13.042l98.093,98.102
				c3.431,3.44,8.185,5.403,13.042,5.403s9.61-1.972,13.05-5.411l43.009-43.016l0.981,0.981
				C497.011,158.663,497.011,172.105,488.749,180.367z"/>
			<path d="M304.614,138.324c-3.337-3.337-8.731-3.337-12.069,0c-3.337,3.337-3.337,8.731,0,12.069l35.028,35.036
				c1.664,1.664,3.849,2.501,6.034,2.501c2.185,0,4.37-0.836,6.034-2.501c3.337-3.337,3.337-8.731,0-12.069L304.614,138.324z"/>
			<path d="M367.671,201.381c-3.337-3.329-8.731-3.337-12.069,0c-3.337,3.337-3.337,8.74,0,12.077l7.007,7.007
				c1.664,1.656,3.849,2.492,6.034,2.492c2.185,0,4.37-0.828,6.034-2.492c3.337-3.337,3.337-8.74,0-12.077L367.671,201.381z"/>
			<path d="M243.349,229.572c-12.06,3.013-24.453,10.421-34.891,20.86c-10.43,10.43-17.838,22.823-20.86,34.891
				c-3.406,13.613-0.973,25.417,6.845,33.235c5.616,5.616,13.246,8.313,21.798,8.313c14.569,0,31.819-7.81,46.32-22.328
				c23.036-23.036,29.181-52.96,14.015-68.127C268.758,228.599,256.954,226.166,243.349,229.572z M250.493,292.475
				c-17.087,17.087-36.897,21.09-43.99,14.015c-3.363-3.354-4.216-9.568-2.356-17.019c2.245-8.979,8.211-18.803,16.37-26.962
				c8.16-8.16,17.992-14.126,26.971-16.37c2.586-0.649,5.027-0.964,7.246-0.964c4.174,0,7.579,1.118,9.773,3.312
				C271.592,255.57,267.58,275.379,250.493,292.475z"/>
		</g>
	</g>
</g>
<g>
</g>
<g>
</g>
<g>
</g>
<g>
</g>
<g>
</g>
<g>
</g>
<g>
</g>
<g>
</g>
<g>
</g>
<g>
</g>
<g>
</g>
<g>
</g>
<g>
</g>
<g>
</g>
<g>
</g>
</svg>
