<?xml version="1.0" encoding="iso-8859-1"?>
<!-- Generator: Adobe Illustrator 19.0.0, SVG Export Plug-In . SVG Version: 6.00 Build 0)  -->
<svg version="1.1" id="Capa_1" xmlns="http://www.w3.org/2000/svg" xmlns:xlink="http://www.w3.org/1999/xlink" x="0px" y="0px"
	 viewBox="0 0 512.005 512.005" style="enable-background:new 0 0 512.005 512.005;" xml:space="preserve">
<g transform="translate(1 1)">
	<g>
		<g>
			<path d="M493.336,148.466L361.575,16.525c-15.053-15.07-37.192-21.021-57.761-15.497c-20.577,5.507-36.774,21.721-42.272,42.298
				l-12.607,47.181L34.435,305.312c-46.951,46.96-46.968,123.402-0.043,170.396c23.488,23.523,54.38,35.297,85.279,35.297
				c30.814,0,61.637-11.706,85.126-35.117l214.512-214.808l47.2-12.649c20.56-5.516,36.748-21.704,42.255-42.247
				C514.28,185.641,508.372,163.527,493.336,148.466z M192.724,463.806c-40.368,40.232-105.967,40.172-146.25-0.171
				c-40.275-40.334-40.257-105.942,0.043-146.25l193.599-193.874l-16.482,61.682l-92.614,92.9
				c-18.075,17.998-25.222,44.484-18.647,69.125c6.574,24.641,25.956,44.057,50.589,50.666c6.088,1.631,12.286,2.425,18.443,2.425
				c18.767,0,37.15-7.385,50.717-20.978l92.635-92.912l61.587-16.504L192.724,463.806z M228.892,281.183
				c11.33,11.322,26.665,17.478,42.315,17.478c5.14,0,10.323-0.666,15.411-2.024l5.235-1.403l-71.816,72.031
				c-13.721,13.738-33.897,19.16-52.646,14.122c-18.758-5.029-33.521-19.817-38.516-38.576s0.444-38.926,14.216-52.646
				l71.713-71.934l-1.401,5.242C207.905,244.025,213.839,266.139,228.892,281.183z M492.26,201.761
				c-3.936,14.677-15.497,26.238-30.182,30.174l-179.891,48.207c-14.686,3.962-30.481-0.29-41.222-11.031
				c-10.75-10.75-14.993-26.537-11.065-41.222l48.138-180.147c3.928-14.703,15.497-26.281,30.2-30.217
				c3.629-0.965,7.317-1.443,10.989-1.443c11.194,0,22.157,4.406,30.259,12.517L481.238,160.53
				C491.979,171.288,496.205,187.084,492.26,201.761z"/>
			<path d="M362.096,71.486c-8.06-8.06-18.775-12.5-30.174-12.5s-22.114,4.44-30.165,12.5c-8.06,8.06-12.5,18.775-12.5,30.165
				c0,11.398,4.44,22.114,12.5,30.174c8.052,8.06,18.767,12.5,30.165,12.5s22.114-4.44,30.174-12.5
				C378.728,115.193,378.728,88.118,362.096,71.486z M350.023,119.752c-9.674,9.665-26.52,9.665-36.193,0
				c-4.833-4.841-7.496-11.262-7.496-18.101c0-6.831,2.664-13.26,7.496-18.092c4.833-4.833,11.253-7.497,18.092-7.497
				s13.268,2.664,18.101,7.497C359.995,93.54,359.995,109.779,350.023,119.752z"/>
			<path d="M411.276,134.924c-11.398,0-22.114,4.44-30.165,12.5c-8.06,8.06-12.5,18.775-12.5,30.174
				c0,11.39,4.44,22.105,12.5,30.165c8.052,8.06,18.767,12.5,30.165,12.5s22.114-4.44,30.174-12.5
				c16.632-16.632,16.632-43.707,0-60.339C433.39,139.364,422.674,134.924,411.276,134.924z M429.377,195.69
				c-9.674,9.674-26.52,9.674-36.193,0c-4.833-4.833-7.496-11.262-7.496-18.092c0-6.839,2.664-13.268,7.496-18.101
				c4.833-4.833,11.253-7.497,18.092-7.497c6.839,0,13.268,2.664,18.101,7.497C439.349,169.478,439.349,185.718,429.377,195.69z"/>
			<path d="M297.795,169.905c-11.398,0-22.114,4.44-30.165,12.5c-8.06,8.06-12.5,18.775-12.5,30.174
				c0,11.398,4.44,22.114,12.5,30.174c8.316,8.325,19.245,12.474,30.165,12.474c10.92,0,21.849-4.158,30.165-12.474
				c8.06-8.06,12.5-18.775,12.5-30.174c0-11.398-4.44-22.114-12.5-30.174C319.909,174.345,309.193,169.905,297.795,169.905z
				 M315.887,230.68c-9.973,9.973-26.212,9.973-36.185,0c-4.833-4.841-7.497-11.262-7.497-18.101c0-6.839,2.664-13.268,7.497-18.101
				c4.833-4.833,11.253-7.497,18.092-7.497c6.839,0,13.26,2.664,18.092,7.497c4.833,4.841,7.497,11.262,7.497,18.101
				C323.384,219.418,320.72,225.847,315.887,230.68z"/>
			<path d="M167.306,308.932c-3.338-3.338-8.735-3.339-12.073,0c-3.338,3.338-3.338,8.735,0,12.073l34.136,34.136
				c1.665,1.665,3.851,2.502,6.036,2.502c2.177,0,4.363-0.837,6.036-2.502c3.338-3.338,3.338-8.735,0-12.073L167.306,308.932z"/>
		</g>
	</g>
</g>
<g>
</g>
<g>
</g>
<g>
</g>
<g>
</g>
<g>
</g>
<g>
</g>
<g>
</g>
<g>
</g>
<g>
</g>
<g>
</g>
<g>
</g>
<g>
</g>
<g>
</g>
<g>
</g>
<g>
</g>
</svg>
