<?xml version="1.0" encoding="iso-8859-1"?>
<!-- Generator: Adobe Illustrator 19.0.0, SVG Export Plug-In . SVG Version: 6.00 Build 0)  -->
<svg version="1.1" id="Capa_1" xmlns="http://www.w3.org/2000/svg" xmlns:xlink="http://www.w3.org/1999/xlink" x="0px" y="0px"
	 viewBox="0 0 512 512" style="enable-background:new 0 0 512 512;" xml:space="preserve">
<g transform="translate(1 1)">
	<g>
		<g>
			<path d="M383,186.733c32.93,0,59.733-26.795,59.733-59.733S415.93,67.267,383,67.267c-32.93,0-59.733,26.795-59.733,59.733
				S350.07,186.733,383,186.733z M383,84.333c23.526,0,42.667,19.14,42.667,42.667c0,23.526-19.14,42.667-42.667,42.667
				c-23.526,0-42.667-19.14-42.667-42.667C340.333,103.474,359.474,84.333,383,84.333z"/>
			<path d="M383,374.467c32.93,0,59.733-26.803,59.733-59.733C442.733,281.803,415.93,255,383,255
				c-32.93,0-59.733,26.803-59.733,59.733C323.267,347.664,350.07,374.467,383,374.467z M383,272.067
				c23.526,0,42.667,19.14,42.667,42.667c0,23.526-19.14,42.667-42.667,42.667c-23.526,0-42.667-19.14-42.667-42.667
				C340.333,291.207,359.474,272.067,383,272.067z"/>
			<path d="M383,340.333c14.114,0,25.6-11.486,25.6-25.6s-11.486-25.6-25.6-25.6s-25.6,11.486-25.6,25.6
				S368.886,340.333,383,340.333z M383,306.2c4.71,0,8.533,3.823,8.533,8.533s-3.823,8.533-8.533,8.533s-8.533-3.823-8.533-8.533
				S378.29,306.2,383,306.2z"/>
			<path d="M161.142,220.867C212.837,220.807,254.94,178.703,255,127c0-51.755-42.112-93.867-93.867-93.867
				c-51.755,0-93.867,42.112-93.867,93.867C67.267,178.755,109.379,220.867,161.142,220.867z M161.133,50.2
				c42.342,0,76.8,34.458,76.8,76.791c-0.051,42.308-34.5,76.757-76.809,76.809c-42.342,0-76.792-34.458-76.792-76.8
				S118.791,50.2,161.133,50.2z"/>
			<path d="M161.133,186.733c32.939,0,59.733-26.795,59.733-59.733s-26.795-59.733-59.733-59.733S101.4,94.061,101.4,127
				S128.195,186.733,161.133,186.733z M161.133,84.333c23.526,0,42.667,19.14,42.667,42.667c0,23.526-19.14,42.667-42.667,42.667
				c-23.526,0-42.667-19.14-42.667-42.667C118.467,103.474,137.607,84.333,161.133,84.333z"/>
			<path d="M161.133,152.6c14.114,0,25.6-11.486,25.6-25.6s-11.486-25.6-25.6-25.6s-25.6,11.486-25.6,25.6
				S147.019,152.6,161.133,152.6z M161.133,118.467c4.702,0,8.533,3.831,8.533,8.533s-3.831,8.533-8.533,8.533
				c-4.702,0-8.533-3.831-8.533-8.533S156.431,118.467,161.133,118.467z"/>
			<path d="M161.133,255c-32.939,0-59.733,26.803-59.733,59.733c0,32.93,26.795,59.733,59.733,59.733s59.733-26.803,59.733-59.733
				C220.867,281.803,194.072,255,161.133,255z M161.133,357.4c-23.526,0-42.667-19.14-42.667-42.667
				c0-23.526,19.14-42.667,42.667-42.667c23.526,0,42.667,19.14,42.667,42.667C203.8,338.26,184.66,357.4,161.133,357.4z"/>
			<path d="M451.267-1H58.733C35.207-1,16.067,18.14,16.067,41.667v426.667c0,23.526,19.14,42.667,42.667,42.667h392.533
				c23.526,0,42.667-19.14,42.667-42.667V41.667C493.933,18.14,474.793-1,451.267-1z M58.733,16.067h392.533
				c14.114,0,25.6,11.486,25.6,25.6v349.867H33.133V41.667C33.133,27.553,44.619,16.067,58.733,16.067z M451.267,493.933H58.733
				c-14.114,0-25.6-11.486-25.6-25.6V408.6h443.733v59.733C476.867,482.448,465.381,493.933,451.267,493.933z"/>
			<path d="M127,425.667c-14.114,0-25.6,11.486-25.6,25.6c0,14.114,11.486,25.6,25.6,25.6s25.6-11.486,25.6-25.6
				C152.6,437.153,141.114,425.667,127,425.667z M127,459.8c-4.702,0-8.533-3.823-8.533-8.533c0-4.71,3.831-8.533,8.533-8.533
				s8.533,3.823,8.533,8.533C135.533,455.977,131.702,459.8,127,459.8z"/>
			<path d="M212.333,425.667c-14.114,0-25.6,11.486-25.6,25.6c0,14.114,11.486,25.6,25.6,25.6c14.114,0,25.6-11.486,25.6-25.6
				C237.933,437.153,226.447,425.667,212.333,425.667z M212.333,459.8c-4.702,0-8.533-3.823-8.533-8.533
				c0-4.71,3.831-8.533,8.533-8.533c4.702,0,8.533,3.823,8.533,8.533C220.867,455.977,217.035,459.8,212.333,459.8z"/>
			<path d="M297.667,425.667c-14.114,0-25.6,11.486-25.6,25.6c0,14.114,11.486,25.6,25.6,25.6s25.6-11.486,25.6-25.6
				C323.267,437.153,311.781,425.667,297.667,425.667z M297.667,459.8c-4.71,0-8.533-3.823-8.533-8.533
				c0-4.71,3.823-8.533,8.533-8.533s8.533,3.823,8.533,8.533C306.2,455.977,302.377,459.8,297.667,459.8z"/>
			<path d="M383,425.667c-14.114,0-25.6,11.486-25.6,25.6c0,14.114,11.486,25.6,25.6,25.6s25.6-11.486,25.6-25.6
				C408.6,437.153,397.114,425.667,383,425.667z M383,459.8c-4.71,0-8.533-3.823-8.533-8.533c0-4.71,3.823-8.533,8.533-8.533
				s8.533,3.823,8.533,8.533C391.533,455.977,387.71,459.8,383,459.8z"/>
		</g>
	</g>
</g>
<g>
</g>
<g>
</g>
<g>
</g>
<g>
</g>
<g>
</g>
<g>
</g>
<g>
</g>
<g>
</g>
<g>
</g>
<g>
</g>
<g>
</g>
<g>
</g>
<g>
</g>
<g>
</g>
<g>
</g>
</svg>
