<?xml version="1.0" encoding="iso-8859-1"?>
<!-- Generator: Adobe Illustrator 19.0.0, SVG Export Plug-In . SVG Version: 6.00 Build 0)  -->
<svg version="1.1" id="Capa_1" xmlns="http://www.w3.org/2000/svg" xmlns:xlink="http://www.w3.org/1999/xlink" x="0px" y="0px"
	 viewBox="0 0 512 512" style="enable-background:new 0 0 512 512;" xml:space="preserve">
<g transform="translate(1 1)">
	<g>
		<g>
			<path d="M505.11,178.951l-73.47-98.023c-6.417-8.559-16.631-13.662-27.315-13.662H105.667c-10.684,0-20.898,5.103-27.307,13.653
				L4.564,179.344c-0.031,0.041-0.055,0.084-0.084,0.125C1.052,183.824-1,189.309-1,195.267V383c0,14.114,11.486,25.6,25.6,25.6
				v8.533c0,14.114,11.486,25.6,25.6,25.6h8.533c14.114,0,25.6-11.486,25.6-25.6V408.6h341.333v8.533
				c0,14.114,11.486,25.6,25.6,25.6h8.533c14.114,0,25.6-11.486,25.6-25.6V408.6c14.114,0,25.6-11.486,25.6-25.6V195.267
				C511,189.072,508.786,183.384,505.11,178.951z M92.013,91.16c3.209-4.275,8.312-6.827,13.653-6.827h298.658
				c5.342,0,10.462,2.552,13.67,6.827l58.836,78.507H33.15L92.013,91.16z M67.267,417.133c0,4.71-3.831,8.533-8.533,8.533H50.2
				c-4.702,0-8.533-3.823-8.533-8.533V408.6h25.6V417.133z M468.333,417.133c0,4.71-3.823,8.533-8.533,8.533h-8.533
				c-4.71,0-8.533-3.823-8.533-8.533V408.6h25.6V417.133z M493.933,383c0,4.71-3.823,8.533-8.533,8.533h-8.533H434.2H75.8H33.133
				H24.6c-4.702,0-8.533-3.823-8.533-8.533V195.267c0-4.702,3.831-8.533,8.533-8.533h460.8c2.601,0,4.927,1.171,6.492,3.009
				c0.044,0.055,0.091,0.106,0.136,0.16c1.19,1.467,1.905,3.334,1.905,5.364V383z"/>
			<path d="M365.933,212.333h-307.2c-14.114,0-25.6,11.486-25.6,25.6v102.4c0,14.114,11.486,25.6,25.6,25.6h307.2
				c14.114,0,25.6-11.486,25.6-25.6v-102.4C391.533,223.819,380.047,212.333,365.933,212.333z M374.467,340.333
				c0,4.71-3.823,8.533-8.533,8.533h-307.2c-4.702,0-8.533-3.823-8.533-8.533v-102.4c0-4.702,3.831-8.533,8.533-8.533h307.2
				c4.71,0,8.533,3.831,8.533,8.533V340.333z"/>
			<path d="M459.8,297.667h-34.133c-4.719,0-8.533,3.814-8.533,8.533s3.814,8.533,8.533,8.533H459.8
				c4.719,0,8.533-3.814,8.533-8.533S464.519,297.667,459.8,297.667z"/>
			<path d="M459.8,331.8h-34.133c-4.719,0-8.533,3.814-8.533,8.533c0,4.719,3.814,8.533,8.533,8.533H459.8
				c4.719,0,8.533-3.814,8.533-8.533C468.333,335.614,464.519,331.8,459.8,331.8z"/>
			<path d="M152.6,152.6c19.14,0,34.133-11.247,34.133-25.6s-14.993-25.6-34.133-25.6c-19.14,0-34.133,11.247-34.133,25.6
				S133.46,152.6,152.6,152.6z M152.6,118.467c10.419,0,17.067,5.052,17.067,8.533c0,3.482-6.647,8.533-17.067,8.533
				c-10.419,0-17.067-5.052-17.067-8.533C135.533,123.518,142.181,118.467,152.6,118.467z"/>
			<path d="M255,152.6c19.14,0,34.133-11.247,34.133-25.6S274.14,101.4,255,101.4s-34.133,11.247-34.133,25.6
				S235.86,152.6,255,152.6z M255,118.467c10.419,0,17.067,5.052,17.067,8.533c0,3.482-6.648,8.533-17.067,8.533
				s-17.067-5.052-17.067-8.533C237.933,123.518,244.581,118.467,255,118.467z"/>
			<path d="M357.4,152.6c19.14,0,34.133-11.247,34.133-25.6s-14.993-25.6-34.133-25.6s-34.133,11.247-34.133,25.6
				S338.26,152.6,357.4,152.6z M357.4,118.467c10.419,0,17.067,5.052,17.067,8.533c0,3.482-6.647,8.533-17.067,8.533
				s-17.067-5.052-17.067-8.533C340.333,123.518,346.981,118.467,357.4,118.467z"/>
			<path d="M101.4,246.467H84.333c-9.412,0-17.067,7.654-17.067,17.067v51.2c0,9.412,7.654,17.067,17.067,17.067H101.4
				c9.412,0,17.067-7.654,17.067-17.067v-51.2C118.467,254.121,110.812,246.467,101.4,246.467z M84.333,263.533H101.4V280.6H84.328
				l-0.003-17.067H84.333z M84.333,314.733l-0.003-17.067h17.07v17.067H84.333z"/>
			<path d="M169.667,246.467H152.6c-9.412,0-17.067,7.654-17.067,17.067v51.2c0,9.412,7.654,17.067,17.067,17.067h17.067
				c9.412,0,17.067-7.654,17.067-17.067v-51.2C186.733,254.121,179.079,246.467,169.667,246.467z M152.6,263.533h17.067V280.6
				h-17.072l-0.003-17.067H152.6z M152.6,314.733l-0.003-17.067h17.07v17.067H152.6z"/>
			<path d="M272.067,246.467H255c-9.412,0-17.067,7.654-17.067,17.067v51.2c0,9.412,7.654,17.067,17.067,17.067h17.067
				c9.412,0,17.067-7.654,17.067-17.067v-51.2C289.133,254.121,281.479,246.467,272.067,246.467z M255,263.533h17.067V280.6h-17.072
				l-0.003-17.067H255z M255,314.733l-0.003-17.067h17.07v17.067H255z"/>
			<path d="M340.333,246.467h-17.067c-9.412,0-17.067,7.654-17.067,17.067v51.2c0,9.412,7.654,17.067,17.067,17.067h17.067
				c9.412,0,17.067-7.654,17.067-17.067v-51.2C357.4,254.121,349.746,246.467,340.333,246.467z M323.267,263.533h17.067V280.6
				h-17.078l-0.006-17.067H323.267z M323.267,314.733l-0.006-17.067h17.072v17.067H323.267z"/>
		</g>
	</g>
</g>
<g>
</g>
<g>
</g>
<g>
</g>
<g>
</g>
<g>
</g>
<g>
</g>
<g>
</g>
<g>
</g>
<g>
</g>
<g>
</g>
<g>
</g>
<g>
</g>
<g>
</g>
<g>
</g>
<g>
</g>
</svg>
