<?xml version="1.0" encoding="iso-8859-1"?>
<!-- Generator: Adobe Illustrator 19.0.0, SVG Export Plug-In . SVG Version: 6.00 Build 0)  -->
<svg version="1.1" id="Capa_1" xmlns="http://www.w3.org/2000/svg" xmlns:xlink="http://www.w3.org/1999/xlink" x="0px" y="0px"
	 viewBox="0 0 512.002 512.002" style="enable-background:new 0 0 512.002 512.002;" xml:space="preserve">
<g transform="translate(1 1)">
	<g>
		<g>
			<path d="M505.528,213.612c-0.023-0.03-0.042-0.061-0.065-0.091l-68.011-85.453c-4.89-6.101-12.177-9.6-19.985-9.6h-34.466V58.781
				c0.002-0.304-0.013-0.607-0.044-0.909c-0.004-0.039-0.012-0.076-0.016-0.114c-0.027-0.237-0.061-0.473-0.108-0.707
				c-0.02-0.1-0.049-0.197-0.073-0.296c-0.04-0.17-0.079-0.339-0.13-0.507c-0.036-0.12-0.082-0.235-0.123-0.352
				c-0.05-0.143-0.098-0.287-0.156-0.427c-0.054-0.13-0.117-0.254-0.177-0.38c-0.058-0.123-0.112-0.247-0.177-0.367
				c-0.078-0.147-0.167-0.287-0.254-0.429c-0.057-0.093-0.109-0.189-0.17-0.28c-0.132-0.198-0.274-0.387-0.422-0.573
				c-0.025-0.031-0.046-0.064-0.071-0.095c-0.192-0.236-0.397-0.46-0.613-0.674L329.336,1.538c-0.214-0.217-0.44-0.422-0.677-0.615
				c-0.031-0.026-0.065-0.047-0.096-0.072c-0.186-0.147-0.375-0.29-0.573-0.421c-0.085-0.057-0.174-0.105-0.26-0.158
				c-0.148-0.091-0.296-0.184-0.45-0.266c-0.113-0.06-0.229-0.111-0.344-0.166c-0.134-0.064-0.266-0.131-0.404-0.188
				c-0.132-0.055-0.267-0.099-0.402-0.147c-0.126-0.045-0.249-0.093-0.378-0.132c-0.159-0.048-0.321-0.085-0.482-0.124
				c-0.107-0.026-0.211-0.057-0.32-0.078c-0.226-0.045-0.453-0.077-0.681-0.104c-0.047-0.005-0.092-0.016-0.14-0.02
				c-0.302-0.031-0.604-0.045-0.907-0.044H144.068c-9.412,0-17.067,7.654-17.067,17.067v102.4H92.535
				c-7.808,0-15.095,3.499-20.011,9.626L5.805,212.047c-4.219,4.566-6.804,10.664-6.804,17.356v187.733
				c0,14.114,11.486,25.6,25.6,25.6h102.4v51.2c0,9.412,7.654,17.067,17.067,17.067h221.867c9.412,0,17.067-7.654,17.067-17.067
				v-51.2h102.4c14.114,0,25.6-11.486,25.6-25.6V229.402C511.001,223.448,508.951,217.966,505.528,213.612z M331.801,28.135
				l22.067,22.067h-22.067V28.135z M144.068,16.069h170.667v42.667c0,4.71,3.814,8.533,8.533,8.533h42.667v102.4H144.068V16.069z
				 M85.862,138.744c1.638-2.039,4.07-3.209,6.673-3.209h34.466v42.667c0,4.71,3.823,8.533,8.533,8.533h238.933
				c4.719,0,8.533-3.823,8.533-8.533v-42.667h34.466c2.603,0,5.035,1.169,6.647,3.183l51.802,65.084H34.151L85.862,138.744z
				 M127.001,383.002h-17.05c-4.693-0.008-8.542-3.849-8.55-8.533v-25.574c0.009-4.71,3.857-8.55,8.533-8.559h17.067V383.002z
				 M365.934,493.935H144.068v-153.6h221.867V493.935z M400.042,340.336c4.71,0.008,8.55,3.849,8.559,8.533v25.574
				c-0.009,4.71-3.849,8.55-8.533,8.559h-17.067v-42.667H400.042z M493.934,417.135c0,4.71-3.823,8.533-8.533,8.533h-102.4v-25.6
				h17.092c14.063-0.034,25.54-11.511,25.574-25.6v-25.626c-0.034-14.063-11.511-25.54-25.6-25.574h-290.15
				c-14.063,0.034-25.54,11.511-25.583,25.6v25.626c0.043,14.063,11.52,25.54,25.6,25.574h17.067v25.6h-102.4
				c-4.702,0-8.533-3.823-8.533-8.533V229.402c0-4.702,3.831-8.533,8.533-8.533h460.8c2.608,0,4.941,1.178,6.507,3.025l0.201,0.252
				c0.003,0.004,0.006,0.007,0.009,0.01c1.134,1.449,1.817,3.268,1.817,5.246V417.135z"/>
			<path d="M331.801,408.602h-153.6c-4.71,0-8.533,3.814-8.533,8.533s3.823,8.533,8.533,8.533h153.6
				c4.719,0,8.533-3.814,8.533-8.533S336.52,408.602,331.801,408.602z"/>
			<path d="M331.801,365.935h-153.6c-4.71,0-8.533,3.814-8.533,8.533s3.823,8.533,8.533,8.533h153.6
				c4.719,0,8.533-3.814,8.533-8.533S336.52,365.935,331.801,365.935z"/>
			<path d="M255.001,263.535h-68.267c-4.71,0-8.533,3.814-8.533,8.533c0,4.719,3.823,8.533,8.533,8.533h68.267
				c4.719,0,8.533-3.814,8.533-8.533C263.534,267.35,259.72,263.535,255.001,263.535z"/>
		</g>
	</g>
</g>
<g>
</g>
<g>
</g>
<g>
</g>
<g>
</g>
<g>
</g>
<g>
</g>
<g>
</g>
<g>
</g>
<g>
</g>
<g>
</g>
<g>
</g>
<g>
</g>
<g>
</g>
<g>
</g>
<g>
</g>
</svg>
