<?xml version="1.0" encoding="iso-8859-1"?>
<!-- Generator: Adobe Illustrator 19.0.0, SVG Export Plug-In . SVG Version: 6.00 Build 0)  -->
<svg version="1.1" id="Capa_1" xmlns="http://www.w3.org/2000/svg" xmlns:xlink="http://www.w3.org/1999/xlink" x="0px" y="0px"
	 viewBox="0 0 512 512" style="enable-background:new 0 0 512 512;" xml:space="preserve">
<g transform="translate(1 1)">
	<g>
		<g>
			<path d="M492.491,344.133c-0.413-0.619-0.905-1.198-1.493-1.709l-55.945-48.538c-4.352-3.115-9.481-4.753-14.848-4.753h-28.672
				V169.667c0-14.114-11.486-25.6-25.6-25.6s-25.6,11.486-25.6,25.6v119.467H169.667V169.667c0-14.114-11.486-25.6-25.6-25.6
				s-25.6,11.486-25.6,25.6v119.467H89.795c-5.359,0-10.487,1.647-15.497,5.248l-55.296,48.043c-0.59,0.512-1.084,1.092-1.497,1.712
				C6.525,349.815-1,361.273-1,374.467V459.8c0,18.825,15.309,34.133,34.133,34.133h443.733c18.825,0,34.133-15.309,34.133-34.133
				v-85.333C511,361.271,503.473,349.812,492.491,344.133z M357.4,169.667c0-4.702,3.823-8.533,8.533-8.533s8.533,3.831,8.533,8.533
				v134.76c-1.35,0.733-4.38,1.773-9.139,1.773c-3.92-0.114-6.641-1.058-7.927-1.767V169.667z M135.533,169.667
				c0-4.702,3.831-8.533,8.533-8.533c4.702,0,8.533,3.831,8.533,8.533v134.765c-1.325,0.726-4.265,1.768-8.533,1.768h-0.606
				c-3.927-0.114-6.648-1.057-7.927-1.767V169.667z M84.845,307.779c1.442-1.041,3.157-1.579,4.949-1.579h28.672
				c0,9.634,10.078,16.649,24.747,17.067h0.853c14.831,0,25.6-7.177,25.6-17.067h170.667c0,9.634,10.078,16.649,24.508,17.067
				c0.024,0,0.118,0,0.239,0h0.853c14.831,0,25.6-7.177,25.6-17.067h28.672c1.766,0,3.516,0.563,4.301,1.067l38.059,33.067H47.416
				L84.845,307.779z M493.933,459.8c0,9.412-7.654,17.067-17.067,17.067H33.133c-9.412,0-17.067-7.654-17.067-17.067v-85.333
				c0-9.412,7.654-17.067,17.067-17.067h443.733c9.412,0,17.067,7.654,17.067,17.067V459.8z"/>
			<path d="M80.835,152.6c1.971,0,3.942-0.674,5.555-2.057c3.575-3.063,3.985-8.457,0.922-12.032
				c-26.914-31.386-26.914-76.962,0-108.356c3.063-3.576,2.654-8.969-0.93-12.032c-3.567-3.063-8.96-2.645-12.032,0.922
				c-32.435,37.828-32.435,92.749,0,130.577C76.039,151.585,78.428,152.6,80.835,152.6z"/>
			<path d="M104.344,133.059c1.673,1.647,3.84,2.475,6.016,2.475c2.193,0,4.386-0.836,6.05-2.517
				c3.319-3.354,3.302-8.755-0.043-12.075c-9.66-9.591-15.121-22.895-14.967-36.702c-0.154-13.611,5.308-26.923,14.976-36.514
				c3.336-3.328,3.362-8.73,0.043-12.075c-3.328-3.328-8.713-3.354-12.075-0.043C91.425,48.434,84.129,66.226,84.333,84.24
				C84.129,102.441,91.425,120.233,104.344,133.059z"/>
			<path d="M201.249,138.512c-3.072,3.576-2.654,8.96,0.922,12.032c1.604,1.382,3.584,2.057,5.547,2.057
				c2.406,0,4.796-1.007,6.485-2.978c32.435-37.828,32.435-92.749,0-130.577c-3.072-3.584-8.465-3.985-12.032-0.922
				c-3.576,3.072-3.985,8.457-0.922,12.032C228.171,61.541,228.171,107.117,201.249,138.512z"/>
			<path d="M172.141,133.008c1.664,1.681,3.866,2.526,6.059,2.526c2.167,0,4.343-0.819,6.007-2.475
				c12.928-12.826,20.224-30.626,20.019-48.631c0.205-18.202-7.091-35.994-20.019-48.819c-3.345-3.319-8.764-3.302-12.066,0.051
				c-3.319,3.345-3.294,8.747,0.051,12.066c9.668,9.591,15.13,22.895,14.967,36.702c0.154,13.611-5.299,26.923-14.967,36.514
				C168.847,124.261,168.822,129.662,172.141,133.008z"/>
			<path d="M144.067,109.933c14.114,0,25.6-11.486,25.6-25.6s-11.486-25.6-25.6-25.6s-25.6,11.486-25.6,25.6
				S129.953,109.933,144.067,109.933z M144.067,75.8c4.702,0,8.533,3.831,8.533,8.533c0,4.702-3.831,8.533-8.533,8.533
				c-4.702,0-8.533-3.831-8.533-8.533C135.533,79.632,139.365,75.8,144.067,75.8z"/>
			<path d="M302.701,152.6c1.963,0,3.942-0.674,5.547-2.057c3.584-3.063,3.994-8.457,0.922-12.032
				c-26.906-31.386-26.906-76.962,0-108.356c3.081-3.576,2.662-8.969-0.922-12.032c-3.567-3.063-8.951-2.654-12.023,0.922
				c-32.435,37.828-32.435,92.749,0,130.577C297.906,151.585,300.304,152.6,302.701,152.6z"/>
			<path d="M326.219,133.059c1.655,1.647,3.831,2.475,6.007,2.475c2.193,0,4.386-0.836,6.059-2.517
				c3.32-3.354,3.302-8.755-0.051-12.075c-9.668-9.591-15.13-22.895-14.968-36.702c-0.162-13.611,5.299-26.923,14.968-36.514
				c3.354-3.328,3.371-8.73,0.051-12.075c-3.328-3.354-8.738-3.362-12.066-0.043C313.283,48.442,305.995,66.234,306.2,84.24
				C305.995,102.433,313.283,120.233,326.219,133.059z"/>
			<path d="M423.124,138.512c-3.081,3.576-2.662,8.969,0.922,12.032c1.604,1.382,3.584,2.057,5.547,2.057
				c2.398,0,4.787-1.007,6.477-2.978c32.435-37.828,32.435-92.749,0-130.577c-3.055-3.575-8.448-3.985-12.023-0.922
				c-3.584,3.063-3.994,8.457-0.922,12.032C450.029,61.541,450.029,107.117,423.124,138.512z"/>
			<path d="M409.027,84.427c0.154,13.611-5.299,26.923-14.968,36.514c-3.354,3.328-3.371,8.73-0.051,12.075
				c1.664,1.673,3.866,2.517,6.059,2.517c2.176,0,4.352-0.819,6.007-2.475c12.937-12.834,20.224-30.626,20.019-48.631
				c0.205-18.193-7.083-35.994-20.019-48.819c-3.328-3.319-8.738-3.302-12.066,0.043c-3.32,3.354-3.302,8.755,0.051,12.075
				C403.728,57.317,409.189,70.62,409.027,84.427z"/>
			<path d="M365.933,109.933c14.114,0,25.6-11.486,25.6-25.6s-11.486-25.6-25.6-25.6s-25.6,11.486-25.6,25.6
				S351.819,109.933,365.933,109.933z M365.933,75.8c4.71,0,8.533,3.831,8.533,8.533c0,4.702-3.823,8.533-8.533,8.533
				s-8.533-3.831-8.533-8.533C357.4,79.632,361.223,75.8,365.933,75.8z"/>
			<path d="M75.8,374.467c-23.526,0-42.667,19.14-42.667,42.667c0,23.526,19.14,42.667,42.667,42.667
				c23.526,0,42.667-19.14,42.667-42.667C118.467,393.607,99.326,374.467,75.8,374.467z M75.8,442.733
				c-14.114,0-25.6-11.486-25.6-25.6c0-11.123,7.135-20.608,17.067-24.132v24.132c0,4.719,3.823,8.533,8.533,8.533
				s8.533-3.814,8.533-8.533v-24.132c9.931,3.523,17.067,13.009,17.067,24.132C101.4,431.248,89.914,442.733,75.8,442.733z"/>
			<path d="M263.533,383h-51.2c-4.71,0-8.533,3.814-8.533,8.533v34.133c0,4.719,3.823,8.533,8.533,8.533v8.533
				c0,4.719,3.823,8.533,8.533,8.533H255c4.719,0,8.533-3.814,8.533-8.533V434.2c4.719,0,8.533-3.814,8.533-8.533v-34.133
				C272.067,386.814,268.252,383,263.533,383z M255,417.133c-4.71,0-8.533,3.814-8.533,8.533v8.533H229.4v-8.533
				c0-4.719-3.823-8.533-8.533-8.533v-17.067H255V417.133z"/>
			<path d="M348.867,383h-51.2c-4.719,0-8.533,3.814-8.533,8.533v34.133c0,4.719,3.814,8.533,8.533,8.533v8.533
				c0,4.719,3.814,8.533,8.533,8.533h34.133c4.719,0,8.533-3.814,8.533-8.533V434.2c4.719,0,8.533-3.814,8.533-8.533v-34.133
				C357.4,386.814,353.586,383,348.867,383z M340.333,417.133c-4.719,0-8.533,3.814-8.533,8.533v8.533h-17.067v-8.533
				c0-4.719-3.814-8.533-8.533-8.533v-17.067h34.133V417.133z"/>
			<path d="M434.2,383H383c-4.719,0-8.533,3.814-8.533,8.533v34.133c0,4.719,3.814,8.533,8.533,8.533v8.533
				c0,4.719,3.814,8.533,8.533,8.533h34.133c4.719,0,8.533-3.814,8.533-8.533V434.2c4.719,0,8.533-3.814,8.533-8.533v-34.133
				C442.733,386.814,438.919,383,434.2,383z M425.667,417.133c-4.719,0-8.533,3.814-8.533,8.533v8.533h-17.067v-8.533
				c0-4.719-3.814-8.533-8.533-8.533v-17.067h34.133V417.133z"/>
		</g>
	</g>
</g>
<g>
</g>
<g>
</g>
<g>
</g>
<g>
</g>
<g>
</g>
<g>
</g>
<g>
</g>
<g>
</g>
<g>
</g>
<g>
</g>
<g>
</g>
<g>
</g>
<g>
</g>
<g>
</g>
<g>
</g>
</svg>
