<?xml version="1.0" encoding="iso-8859-1"?>
<!-- Generator: Adobe Illustrator 19.0.0, SVG Export Plug-In . SVG Version: 6.00 Build 0)  -->
<svg version="1.1" id="Capa_1" xmlns="http://www.w3.org/2000/svg" xmlns:xlink="http://www.w3.org/1999/xlink" x="0px" y="0px"
	 viewBox="0 0 512 512" style="enable-background:new 0 0 512 512;" xml:space="preserve">
<g transform="translate(1 1)">
	<g>
		<g>
			<path d="M459.8,340.333c14.114,0,25.6-11.486,25.6-25.6v-204.8c0-14.114-11.486-25.6-25.6-25.6v-25.6
				C459.8,25.795,432.997-1,400.067-1H109.933C76.995-1,50.2,25.795,50.2,58.733v25.6c-14.114,0-25.6,11.486-25.6,25.6v204.8
				c0,14.114,11.486,25.6,25.6,25.6h34.133v25.6H50.2c-14.114,0-25.6,11.486-25.6,25.6v51.2c0,14.114,11.486,25.6,25.6,25.6V485.4
				c0,14.114,11.486,25.6,25.6,25.6h17.067c14.114,0,25.6-11.486,25.6-25.6v-17.067h273.067V485.4c0,14.114,11.486,25.6,25.6,25.6
				H434.2c14.114,0,25.6-11.486,25.6-25.6v-17.067c14.114,0,25.6-11.486,25.6-25.6v-51.2c0-14.114-11.486-25.6-25.6-25.6h-34.133
				v-25.6H459.8z M67.267,58.733c0-23.526,19.14-42.667,42.667-42.667h290.133c23.526,0,42.667,19.14,42.667,42.667v25.6h-17.067
				V75.8c0-23.526-19.14-42.667-42.667-42.667H127c-23.526,0-42.667,19.14-42.667,42.667v8.533H67.267V58.733z M408.6,84.333H101.4
				V75.8c0-14.114,11.486-25.6,25.6-25.6h256c14.114,0,25.6,11.486,25.6,25.6V84.333z M41.667,314.733v-204.8
				c0-4.702,3.831-8.533,8.533-8.533h8.533h34.133h324.267h34.133h8.533c4.71,0,8.533,3.831,8.533,8.533v204.8
				c0,4.71-3.823,8.533-8.533,8.533h-42.667h-51.2H144.067h-51.2H50.2C45.498,323.267,41.667,319.444,41.667,314.733z
				 M297.667,365.933h-85.333H152.6v-25.6h204.8v25.6H297.667z M220.867,383h68.267v8.533c0,4.71-3.823,8.533-8.533,8.533h-51.2
				c-4.702,0-8.533-3.823-8.533-8.533V383z M101.4,340.333h34.133v25.6H101.4V340.333z M101.4,485.4c0,4.71-3.831,8.533-8.533,8.533
				H75.8c-4.702,0-8.533-3.823-8.533-8.533v-17.067H101.4V485.4z M442.733,485.4c0,4.71-3.823,8.533-8.533,8.533h-17.067
				c-4.71,0-8.533-3.823-8.533-8.533v-17.067h34.133V485.4z M468.333,391.533v51.2c0,4.71-3.823,8.533-8.533,8.533h-8.533h-51.2
				H109.933h-51.2H50.2c-4.702,0-8.533-3.823-8.533-8.533v-51.2c0-4.71,3.831-8.533,8.533-8.533h42.667h51.2H203.8v8.533
				c0,14.114,11.486,25.6,25.6,25.6h51.2c14.114,0,25.6-11.486,25.6-25.6V383h59.733h51.2H459.8
				C464.51,383,468.333,386.823,468.333,391.533z M408.6,365.933h-34.133v-25.6H408.6V365.933z"/>
			<path d="M191.734,306.2c6.929,0,13.124-4.13,15.77-10.53c2.645-6.4,1.195-13.705-3.703-18.603l-44.678-44.678
				c-0.091-0.099-0.188-0.189-0.283-0.283l-70.973-70.973c-4.898-4.898-12.194-6.349-18.603-3.703
				c-6.4,2.654-10.53,8.841-10.53,15.77v115.934c0,9.412,7.654,17.067,17.067,17.067H191.734z M100.295,289.133l51.811-39.627
				l13.537,13.537l-33.865,26.091H100.295z M114.436,211.836L75.8,241.581v-23.769l25.208-19.405L114.436,211.836z M75.8,263.107
				l50.803-39.105l13.328,13.328L75.8,286.387V263.107z M159.734,289.133l18.075-13.925l13.925,13.925H159.734z M88.841,186.24
				L75.8,196.279v-23.079L88.841,186.24z"/>
			<path d="M120.555,166.754c0.011,0.011,0.022,0.021,0.032,0.032l51.124,51.124c0.044,0.045,0.088,0.089,0.133,0.133l25.467,25.467
				c0.044,0.045,0.088,0.089,0.133,0.133l19.891,19.891c3.268,3.268,7.603,5.001,12.049,5.001c2.202,0,4.429-0.427,6.562-1.297
				c6.391-2.662,10.522-8.849,10.522-15.77V135.533c0-9.412-7.654-17.067-17.067-17.067H113.466c-6.921,0-13.116,4.13-15.77,10.539
				c-2.645,6.4-1.195,13.696,3.703,18.594L120.555,166.754z M204.911,135.527l-51.819,39.633l-13.536-13.536l33.871-26.095
				L204.911,135.527z M190.76,212.827l38.64-29.748v23.778l-25.206,19.404L190.76,212.827z M229.4,161.545l-50.807,39.115
				l-13.325-13.325l64.131-49.05V161.545z M216.36,238.428l13.04-10.038v23.078L216.36,238.428z M145.469,135.531l-18.078,13.928
				l-13.925-13.925L145.469,135.531z"/>
			<path d="M274.072,267.245c2.125,0.87,4.343,1.297,6.545,1.297c4.429,0,8.781-1.732,12.049-5.009l70.236-70.236
				c0.04-0.037,0.076-0.077,0.115-0.115l25.485-25.485c0.04-0.037,0.076-0.077,0.115-0.115l19.983-19.983
				c4.898-4.898,6.349-12.194,3.703-18.611c-2.662-6.391-8.849-10.522-15.77-10.522H280.6c-9.412,0-17.067,7.654-17.067,17.067
				v115.934C263.533,258.388,267.663,264.574,274.072,267.245z M306.612,135.533l39.115,50.807l-13.325,13.325l-49.05-64.131
				H306.612z M351.923,135.533l19.404,25.206l-13.438,13.438l-29.752-38.645H351.923z M320.231,211.836l-13.54,13.54l-26.095-33.871
				l-0.002-31.495L320.231,211.836z M280.6,251.467l-0.002-32.003l13.928,18.078L280.6,251.467z M383.489,148.578l-10.042-13.044
				h23.086L383.489,148.578z"/>
			<path d="M351.783,231.484L306.2,277.067c-4.898,4.898-6.349,12.186-3.703,18.611c2.662,6.391,8.841,10.522,15.77,10.522H434.2
				c9.412,0,17.067-7.654,17.067-17.067V173.199c0-6.929-4.13-13.124-10.53-15.77c-6.409-2.645-13.705-1.203-18.603,3.703
				l-70.236,70.236C351.858,231.407,351.822,231.446,351.783,231.484z M382.401,224.998l49.053,64.135h-23.266l-39.115-50.807
				L382.401,224.998z M408.11,199.29l26.09,33.865v31.483l-39.627-51.811L408.11,199.29z M386.658,289.133h-23.781l-19.404-25.206
				l13.438-13.438L386.658,289.133z M331.307,276.093l10.039,13.041h-23.079L331.307,276.093z M434.2,173.199v32l-13.925-18.075
				L434.2,173.199z"/>
		</g>
	</g>
</g>
<g>
</g>
<g>
</g>
<g>
</g>
<g>
</g>
<g>
</g>
<g>
</g>
<g>
</g>
<g>
</g>
<g>
</g>
<g>
</g>
<g>
</g>
<g>
</g>
<g>
</g>
<g>
</g>
<g>
</g>
</svg>
