<?xml version="1.0" encoding="iso-8859-1"?>
<!-- Generator: Adobe Illustrator 19.0.0, SVG Export Plug-In . SVG Version: 6.00 Build 0)  -->
<svg version="1.1" id="Capa_1" xmlns="http://www.w3.org/2000/svg" xmlns:xlink="http://www.w3.org/1999/xlink" x="0px" y="0px"
	 viewBox="0 0 512 512" style="enable-background:new 0 0 512 512;" xml:space="preserve">
<g transform="translate(1 1)">
	<g>
		<g>
			<path d="M511,178.175c-0.034-9.378-7.671-17.015-17.067-17.041h-17.067V41.667c0-0.009,0-0.017,0-0.026
				C476.79,18.2,457.667-0.932,434.2-1H75.775C52.334-0.932,33.202,18.2,33.134,41.667v119.467H16.05
				C6.672,161.159-0.974,168.805-1,178.2v25.6c0,0.054,0.007,0.107,0.008,0.161c0.003,0.141,0.012,0.282,0.021,0.424
				c0.011,0.157,0.023,0.314,0.042,0.469c0.013,0.101,0.03,0.202,0.046,0.303c0.031,0.197,0.067,0.391,0.112,0.583
				c0.015,0.062,0.032,0.124,0.048,0.186c0.058,0.227,0.124,0.45,0.2,0.669c0.006,0.018,0.01,0.037,0.017,0.056l93.372,263.139
				v24.145c0,9.412,7.654,17.067,17.067,17.067h290.133c9.412,0,17.067-7.654,17.067-17.067v-24.136l93.372-263.139
				c0.011-0.03,0.017-0.06,0.027-0.09c0.067-0.195,0.125-0.393,0.178-0.594c0.022-0.085,0.046-0.169,0.065-0.254
				c0.04-0.174,0.072-0.35,0.101-0.527c0.019-0.117,0.039-0.234,0.054-0.351c0.018-0.145,0.029-0.291,0.039-0.438
				c0.011-0.148,0.02-0.296,0.022-0.443c0.001-0.054,0.008-0.107,0.008-0.161V178.175z M402.576,459.8H107.425L19.622,212.334
				h50.023l28.307,84.898c3.49,10.47,13.252,17.502,24.286,17.502H387.77c11.034,0,20.787-7.031,24.286-17.502l28.297-84.898h50.036
				L402.576,459.8z M263.534,212.334h25.6v8.533c0,4.702-3.823,8.533-8.533,8.533h-51.2c-4.702,0-8.533-3.831-8.533-8.533v-8.533
				H263.534z M229.4,246.467h51.2c14.114,0,25.6-11.486,25.6-25.6v-8.533h116.165l-26.496,79.497
				c-1.161,3.499-4.42,5.837-8.098,5.837H122.239c-3.686,0-6.938-2.338-8.107-5.828l-26.499-79.505H203.8v8.533
				C203.8,234.981,215.286,246.467,229.4,246.467z M50.2,41.692c0.043-14.089,11.537-25.583,25.6-25.626h358.374
				c14.089,0.043,25.583,11.537,25.626,25.626v119.441h-17.067v-102.4c0-14.114-11.486-25.6-25.6-25.6H92.867
				c-14.114,0-25.6,11.486-25.6,25.6v102.4H50.2V41.692z M406.403,161.134c1.447-5.579,2.212-11.333,2.197-17.067
				c0-37.641-30.626-68.267-68.267-68.267c-16.135,0-30.972,5.64-42.669,15.033c-19.178-15.452-45.217-19.437-68.452-9.981
				c-6.214,2.532-11.891,5.898-16.94,9.929c-19.171-15.408-45.174-19.383-68.393-9.937c-25.822,10.522-42.496,35.337-42.47,63.198
				c-0.019,5.751,0.745,11.513,2.195,17.092h-19.27v-102.4c0-4.702,3.831-8.533,8.533-8.533h324.267c4.71,0,8.533,3.831,8.533,8.533
				v102.4H406.403z M369.876,161.134c2.913-5.024,4.591-10.851,4.591-17.067c0-18.825-15.309-34.133-34.133-34.133
				c-18.825,0-34.133,15.309-34.133,34.133c0,6.215,1.677,12.042,4.591,17.067h-15.854h-2.853
				c-1.951-5.458-2.969-11.263-2.95-17.067c0-13.724,5.435-26.192,14.253-35.394c0.081-0.073,0.166-0.139,0.245-0.216
				c0.229-0.223,0.439-0.457,0.637-0.698c9.261-9.199,22.008-14.893,36.064-14.893c28.237,0,51.2,22.972,51.2,51.226
				c0.02,5.778-0.998,11.582-2.95,17.041H369.876z M323.267,144.067c0-9.412,7.654-17.067,17.067-17.067
				c9.412,0,17.067,7.654,17.067,17.067c0,9.412-7.654,17.067-17.067,17.067C330.921,161.134,323.267,153.479,323.267,144.067z
				 M121.426,161.134c-1.949-5.458-2.964-11.265-2.951-17.075c-0.017-20.915,12.484-39.526,31.846-47.411
				c16.899-6.882,35.772-4.278,50.003,6.447c-3.461,4.614-6.325,9.66-8.517,15.024c-5.965-5.097-13.696-8.185-22.141-8.185
				c-18.825,0-34.133,15.309-34.133,34.133c0,6.215,1.677,12.042,4.591,17.067H121.426z M152.6,144.067
				c0-9.412,7.654-17.067,17.067-17.067c9.412,0,17.067,7.654,17.067,17.067c0,9.412-7.654,17.067-17.067,17.067
				C160.255,161.134,152.6,153.479,152.6,144.067z M209.603,161.134h-2.857c-1.952-5.448-2.963-11.25-2.937-17.067
				c-0.011-13.321,5.062-25.701,13.745-34.977c0.256-0.199,0.506-0.409,0.744-0.641c0.325-0.317,0.609-0.658,0.873-1.009
				c4.645-4.531,10.2-8.225,16.484-10.784c16.924-6.884,35.823-4.269,50.064,6.494c-3.448,4.589-6.321,9.628-8.536,15.005
				c-5.971-5.119-13.719-8.221-22.184-8.221c-18.825,0-34.133,15.309-34.133,34.133c0,6.215,1.677,12.042,4.591,17.067H209.603z
				 M237.934,144.067c0-9.412,7.654-17.067,17.067-17.067c9.412,0,17.067,7.654,17.067,17.067c0,9.412-7.654,17.067-17.067,17.067
				C245.588,161.134,237.934,153.479,237.934,144.067z M16.067,178.2h25.6h167.936h85.333h173.397h25.6v17.067h-59.428
				c-0.172-0.007-0.343-0.004-0.514,0H297.667h-34.133h-51.2H16.067V178.2z M400.067,493.934H109.934v-17.067h290.133V493.934z"/>
			<path d="M357.4,280.6c14.114,0,25.6-11.486,25.6-25.6c0-14.114-11.486-25.6-25.6-25.6s-25.6,11.486-25.6,25.6
				C331.8,269.114,343.286,280.6,357.4,280.6z M357.4,246.467c4.71,0,8.533,3.831,8.533,8.533c0,4.71-3.823,8.533-8.533,8.533
				s-8.533-3.823-8.533-8.533C348.867,250.298,352.69,246.467,357.4,246.467z"/>
		</g>
	</g>
</g>
<g>
</g>
<g>
</g>
<g>
</g>
<g>
</g>
<g>
</g>
<g>
</g>
<g>
</g>
<g>
</g>
<g>
</g>
<g>
</g>
<g>
</g>
<g>
</g>
<g>
</g>
<g>
</g>
<g>
</g>
</svg>
