<?xml version="1.0" encoding="iso-8859-1"?>
<!-- Generator: Adobe Illustrator 19.0.0, SVG Export Plug-In . SVG Version: 6.00 Build 0)  -->
<svg version="1.1" id="Capa_1" xmlns="http://www.w3.org/2000/svg" xmlns:xlink="http://www.w3.org/1999/xlink" x="0px" y="0px"
	 viewBox="0 0 512 512" style="enable-background:new 0 0 512 512;" xml:space="preserve">
<g transform="translate(1 1)">
	<g>
		<g>
			<path d="M419.842,94.241C351.804,11.253,234.044-7.598,144.162,47.296C142.652,20.407,120.312-1,93.05-1
				c-28.237,0-51.2,22.963-51.2,51.2c0,25.505,18.736,46.701,43.169,50.566c-41.79,55.081-53.174,125.306-34.636,188.575v161.926
				c0,32.93,26.795,59.733,59.733,59.733H400.25c32.939,0,59.733-26.803,59.733-59.733V288.065
				C478.605,222.985,465.833,150.348,419.842,94.241z M58.916,50.2c0-18.825,15.309-34.133,34.133-34.133
				s34.133,15.309,34.133,34.133S111.874,84.333,93.05,84.333C74.225,84.333,58.916,69.025,58.916,50.2z M108.571,98.989
				c14.122-4.502,25.595-14.973,31.45-28.437c84-60.833,200.675-45.912,266.62,34.517c66.406,81.024,57.549,199.518-20.173,269.756
				c-29.18,26.376-64.151,42.406-100.364,48.212c2.056-4.388,3.212-9.279,3.212-14.437c0-18.825-15.309-34.133-34.133-34.133
				S221.05,389.775,221.05,408.6c0,5.177,1.164,10.086,3.234,14.486c-39.689-6.281-77.775-24.785-108.237-55.378
				c-5.727-5.752-11.023-11.773-15.893-18.021c-0.196-0.294-0.412-0.572-0.642-0.838c-14.488-18.794-25.124-39.614-31.874-61.389
				c-0.084-0.446-0.206-0.877-0.357-1.296c-0.12-0.598-0.305-1.172-0.543-1.718C48.34,221.53,62.099,151.154,108.571,98.989z
				 M101.583,377.307c0.785,0.813,1.564,1.63,2.364,2.433c40.745,40.929,94.031,61.96,147.679,62.807
				c1.169,0.122,2.356,0.186,3.557,0.186c1.205,0,2.395-0.065,3.567-0.187c49.771-0.873,99.412-19.13,139.17-55.066
				c3.773-3.41,7.389-6.929,10.863-10.54v57.234c-0.043,14.08-11.546,25.583-25.6,25.626H127.209
				c-14.089-0.043-25.583-11.546-25.626-25.6V377.307z M238.116,408.6c0-9.412,7.654-17.067,17.067-17.067
				c9.412,0,17.067,7.654,17.067,17.067c0,8.615-6.419,15.739-14.723,16.887c-1.554,0.02-3.107,0.021-4.66,0.004
				C244.549,424.354,238.116,417.224,238.116,408.6z M400.25,493.933H110.116c-23.526,0-42.667-19.14-42.667-42.667V330.769
				c4.969,9.166,10.661,18.042,17.067,26.549v76.907c0.068,23.441,19.2,42.564,42.667,42.641h256.026
				c23.441-0.077,42.573-19.2,42.641-42.667v-77.332c6.41-8.561,12.099-17.511,17.067-26.761v121.16
				C442.916,474.793,423.776,493.933,400.25,493.933z"/>
			<path d="M221.05,161.133h8.533c4.719,0,8.533-3.823,8.533-8.533c0-4.71-3.823-8.533-8.533-8.533h-8.533
				c-4.71,0-8.533,3.823-8.533,8.533C212.516,157.31,216.339,161.133,221.05,161.133z"/>
			<path d="M195.45,144.067c4.719,0,8.533-3.823,8.533-8.533V127c0-4.71-3.823-8.533-8.533-8.533s-8.533,3.823-8.533,8.533v8.533
				C186.916,140.244,190.739,144.067,195.45,144.067z"/>
			<path d="M314.916,144.067c4.719,0,8.533-3.823,8.533-8.533V127c0-4.71-3.814-8.533-8.533-8.533s-8.533,3.823-8.533,8.533v8.533
				C306.383,140.244,310.198,144.067,314.916,144.067z"/>
			<path d="M195.45,186.733c4.719,0,8.533-3.823,8.533-8.533v-8.533c0-4.71-3.823-8.533-8.533-8.533s-8.533,3.823-8.533,8.533v8.533
				C186.916,182.91,190.739,186.733,195.45,186.733z"/>
			<path d="M221.05,280.6h8.533c4.719,0,8.533-3.814,8.533-8.533c0-4.719-3.823-8.533-8.533-8.533h-8.533
				c-4.71,0-8.533,3.814-8.533,8.533C212.516,276.786,216.339,280.6,221.05,280.6z"/>
			<path d="M195.45,263.533c4.719,0,8.533-3.814,8.533-8.533v-8.533c0-4.71-3.823-8.533-8.533-8.533s-8.533,3.823-8.533,8.533V255
				C186.916,259.719,190.739,263.533,195.45,263.533z"/>
			<path d="M195.45,306.2c4.719,0,8.533-3.814,8.533-8.533v-8.533c0-4.719-3.823-8.533-8.533-8.533s-8.533,3.814-8.533,8.533v8.533
				C186.916,302.386,190.739,306.2,195.45,306.2z"/>
			<path d="M280.783,161.133h8.533c4.719,0,8.533-3.823,8.533-8.533c0-4.71-3.814-8.533-8.533-8.533h-8.533
				c-4.719,0-8.533,3.823-8.533,8.533C272.25,157.31,276.064,161.133,280.783,161.133z"/>
			<path d="M314.916,186.733c4.719,0,8.533-3.823,8.533-8.533v-8.533c0-4.71-3.814-8.533-8.533-8.533s-8.533,3.823-8.533,8.533
				v8.533C306.383,182.91,310.198,186.733,314.916,186.733z"/>
			<path d="M289.316,263.533h-8.533c-4.719,0-8.533,3.814-8.533,8.533c0,4.719,3.814,8.533,8.533,8.533h8.533
				c4.719,0,8.533-3.814,8.533-8.533C297.85,267.348,294.035,263.533,289.316,263.533z"/>
			<path d="M314.916,263.533c4.719,0,8.533-3.814,8.533-8.533v-8.533c0-4.71-3.814-8.533-8.533-8.533s-8.533,3.823-8.533,8.533V255
				C306.383,259.719,310.198,263.533,314.916,263.533z"/>
			<path d="M314.916,306.2c4.719,0,8.533-3.814,8.533-8.533v-8.533c0-4.719-3.814-8.533-8.533-8.533s-8.533,3.814-8.533,8.533v8.533
				C306.383,302.386,310.198,306.2,314.916,306.2z"/>
			<path d="M229.583,212.333c0,14.114,11.486,25.6,25.6,25.6c14.123,0,25.6-11.486,25.6-25.6c0-14.114-11.486-25.6-25.6-25.6
				C241.069,186.733,229.583,198.219,229.583,212.333z M255.183,203.8c4.71,0,8.533,3.831,8.533,8.533
				c0,4.702-3.831,8.533-8.533,8.533c-4.702,0-8.533-3.831-8.533-8.533C246.65,207.631,250.481,203.8,255.183,203.8z"/>
			<path d="M203.983,357.4h102.409c32.905-0.026,59.699-26.829,59.725-59.733v-204.8c0-0.043-0.006-0.084-0.006-0.127
				c-0.003-0.194-0.013-0.386-0.029-0.579c-0.008-0.098-0.016-0.196-0.028-0.294c-0.02-0.172-0.048-0.343-0.078-0.514
				c-0.02-0.112-0.04-0.223-0.064-0.333c-0.034-0.155-0.076-0.308-0.119-0.462c-0.033-0.116-0.064-0.232-0.102-0.346
				c-0.049-0.149-0.104-0.295-0.161-0.441c-0.043-0.11-0.085-0.22-0.132-0.328c-0.065-0.149-0.138-0.294-0.211-0.439
				c-0.05-0.098-0.098-0.197-0.152-0.293c-0.082-0.147-0.172-0.291-0.263-0.433c-0.057-0.089-0.113-0.179-0.173-0.265
				c-0.094-0.136-0.195-0.268-0.298-0.399c-0.07-0.09-0.14-0.179-0.214-0.266c-0.098-0.115-0.201-0.226-0.306-0.337
				c-0.093-0.099-0.187-0.196-0.285-0.29c-0.093-0.089-0.189-0.176-0.287-0.261c-0.124-0.109-0.25-0.214-0.38-0.316
				c-0.043-0.034-0.081-0.071-0.125-0.104c-63.3-47.479-151.731-47.479-215.04,0c-0.055,0.041-0.103,0.088-0.157,0.13
				c-0.105,0.083-0.208,0.169-0.309,0.257c-0.121,0.105-0.239,0.211-0.353,0.321c-0.075,0.073-0.146,0.147-0.219,0.222
				c-0.127,0.132-0.25,0.266-0.367,0.404c-0.053,0.063-0.103,0.128-0.154,0.192c-0.122,0.154-0.241,0.309-0.352,0.47
				c-0.044,0.064-0.084,0.129-0.126,0.194c-0.107,0.164-0.21,0.33-0.304,0.5c-0.042,0.076-0.081,0.155-0.121,0.233
				c-0.084,0.163-0.166,0.327-0.239,0.495c-0.041,0.093-0.077,0.189-0.114,0.284c-0.062,0.159-0.123,0.318-0.176,0.48
				c-0.034,0.106-0.064,0.213-0.094,0.32c-0.045,0.16-0.088,0.32-0.124,0.483c-0.023,0.106-0.042,0.214-0.062,0.321
				c-0.031,0.173-0.059,0.346-0.08,0.52c-0.011,0.097-0.02,0.195-0.028,0.293c-0.016,0.192-0.026,0.385-0.029,0.578
				c-0.001,0.043-0.006,0.085-0.006,0.128v204.809C144.275,330.571,171.07,357.374,203.983,357.4z M161.316,97.211
				c55.855-39.64,131.855-39.647,187.733,0v200.447c-0.017,23.509-19.166,42.658-42.667,42.675H203.992
				c-23.509-0.017-42.658-19.166-42.675-42.667V97.211z"/>
			<path d="M84.516,237.933h25.6c4.719,0,8.533-3.823,8.533-8.533s-3.823-8.533-8.533-8.533h-25.6c-4.71,0-8.533,3.823-8.533,8.533
				S79.806,237.933,84.516,237.933z"/>
			<path d="M115.945,271l-24.055,8.755c-4.42,1.613-6.707,6.511-5.094,10.94c1.254,3.465,4.531,5.615,8.013,5.615
				c0.973,0,1.954-0.171,2.927-0.521l24.055-8.755c4.42-1.604,6.707-6.502,5.094-10.931
				C125.272,271.666,120.382,269.396,115.945,271z"/>
			<path d="M91.898,179.053l24.055,8.747c0.964,0.35,1.946,0.521,2.918,0.521c3.482,0,6.758-2.15,8.021-5.615
				c1.613-4.429-0.674-9.327-5.103-10.94l-24.055-8.755c-4.412-1.604-9.327,0.666-10.94,5.103
				C85.182,172.542,87.469,177.441,91.898,179.053z"/>
			<path d="M391.716,229.4c0,4.71,3.814,8.533,8.533,8.533h25.6c4.719,0,8.533-3.823,8.533-8.533s-3.814-8.533-8.533-8.533h-25.6
				C395.531,220.867,391.716,224.69,391.716,229.4z"/>
			<path d="M388.585,287.034l24.055,8.755c0.964,0.35,1.954,0.521,2.918,0.521c3.482,0,6.758-2.15,8.013-5.623
				c1.613-4.42-0.666-9.327-5.103-10.931L394.413,271c-4.403-1.604-9.327,0.674-10.931,5.103
				C381.869,280.523,384.147,285.43,388.585,287.034z"/>
			<path d="M391.503,188.321c0.964,0,1.954-0.162,2.918-0.521l24.055-8.755c4.437-1.613,6.716-6.511,5.103-10.94
				c-1.604-4.429-6.519-6.716-10.931-5.103l-24.055,8.755c-4.437,1.613-6.716,6.511-5.103,10.94
				C384.745,186.17,388.022,188.321,391.503,188.321z"/>
		</g>
	</g>
</g>
<g>
</g>
<g>
</g>
<g>
</g>
<g>
</g>
<g>
</g>
<g>
</g>
<g>
</g>
<g>
</g>
<g>
</g>
<g>
</g>
<g>
</g>
<g>
</g>
<g>
</g>
<g>
</g>
<g>
</g>
</svg>
