<?xml version="1.0" encoding="iso-8859-1"?>
<!-- Generator: Adobe Illustrator 19.0.0, SVG Export Plug-In . SVG Version: 6.00 Build 0)  -->
<svg version="1.1" id="Capa_1" xmlns="http://www.w3.org/2000/svg" xmlns:xlink="http://www.w3.org/1999/xlink" x="0px" y="0px"
	 viewBox="0 0 512 512" style="enable-background:new 0 0 512 512;" xml:space="preserve">
<g transform="translate(1 1)">
	<g>
		<g>
			<path d="M485.4-1H24.6C10.486-1-1,10.486-1,24.6v170.667c0,14.114,11.486,25.6,25.6,25.6h196.267V255
				c0,6.302,3.44,11.802,8.533,14.758v27.908c0,9.412,7.654,17.067,17.067,17.067v8.533c0,14.114,11.486,25.6,25.6,25.6H395.8
				c16.469,0,29.867,13.397,29.867,29.867c0,16.469-13.397,29.867-29.867,29.867H178.2v-42.667c0-23.526-19.14-42.667-42.667-42.667
				h-51.2c-3.234,0-6.187,1.826-7.637,4.719c-3.806,7.612-11.46,12.348-19.977,12.348H24.6c-14.114,0-25.6,11.486-25.6,25.6v102.4
				c0,14.114,11.486,25.6,25.6,25.6h32.12c8.516,0,16.171,4.736,19.977,12.348c1.451,2.893,4.403,4.719,7.637,4.719h51.2
				c23.526,0,42.667-19.14,42.667-42.667v-42.667h217.6c25.873,0,46.933-21.06,46.933-46.933c0-25.873-21.06-46.933-46.933-46.933
				H272.067c-4.71,0-8.533-3.823-8.533-8.533v-8.533c9.412,0,17.067-7.654,17.067-17.067v-27.908
				c5.093-2.956,8.533-8.456,8.533-14.758v-34.133H485.4c14.114,0,25.6-11.486,25.6-25.6V24.6C511,10.486,499.514-1,485.4-1z
				 M161.133,468.333c0,14.114-11.486,25.6-25.6,25.6H89.189c-7.287-10.641-19.294-17.067-32.469-17.067H24.6
				c-4.702,0-8.533-3.823-8.533-8.533v-102.4c0-4.71,3.831-8.533,8.533-8.533h32.12c13.175,0,25.182-6.426,32.469-17.067h46.345
				c14.114,0,25.6,11.486,25.6,25.6V468.333z M16.067,195.267V24.6c0-4.702,3.831-8.533,8.533-8.533h221.867V203.8H229.4H24.6
				C19.898,203.8,16.067,199.969,16.067,195.267z M263.533,297.667h-17.067v-25.6h17.067V297.667z M272.067,255h-34.133v-34.133
				h34.133V255z M493.933,195.267c0,4.702-3.823,8.533-8.533,8.533H280.6h-17.067V16.067H485.4c4.71,0,8.533,3.831,8.533,8.533
				V195.267z"/>
			<path d="M152.6,92.867V58.733c0-9.412-7.654-17.067-17.067-17.067h-17.067c-9.412,0-17.067,7.654-17.067,17.067v34.133
				c0,9.412,7.654,17.067,17.067,17.067h17.067C144.946,109.933,152.6,102.279,152.6,92.867z M135.533,92.867h-17.067l-0.009-34.133
				h0.009h17.067V92.867z"/>
			<path d="M92.867,127H58.733c-9.412,0-17.067,7.654-17.067,17.067v17.067c0,9.412,7.654,17.067,17.067,17.067h34.133
				c9.412,0,17.067-7.654,17.067-17.067v-17.067C109.933,134.654,102.279,127,92.867,127z M92.867,161.133H58.733l-0.009-17.067
				h0.009h34.133V161.133z"/>
			<path d="M195.267,127h-34.133c-9.412,0-17.067,7.654-17.067,17.067v17.067c0,9.412,7.654,17.067,17.067,17.067h34.133
				c9.412,0,17.067-7.654,17.067-17.067v-17.067C212.333,134.654,204.679,127,195.267,127z M195.267,161.133h-34.133l-0.009-17.067
				h0.009h34.133V161.133z"/>
			<path d="M408.6,92.867V58.733c0-9.412-7.654-17.067-17.067-17.067h-17.067c-9.412,0-17.067,7.654-17.067,17.067v34.133
				c0,9.412,7.654,17.067,17.067,17.067h17.067C400.946,109.933,408.6,102.279,408.6,92.867z M391.533,92.867h-17.067V58.733h17.067
				V92.867z"/>
			<path d="M348.867,127h-34.133c-9.412,0-17.067,7.654-17.067,17.067v17.067c0,9.412,7.654,17.067,17.067,17.067h34.133
				c9.412,0,17.067-7.654,17.067-17.067v-17.067C365.933,134.654,358.279,127,348.867,127z M348.867,161.133h-34.133v-17.067h34.133
				V161.133z"/>
			<path d="M451.267,127h-34.133c-9.412,0-17.067,7.654-17.067,17.067v17.067c0,9.412,7.654,17.067,17.067,17.067h34.133
				c9.412,0,17.067-7.654,17.067-17.067v-17.067C468.333,134.654,460.679,127,451.267,127z M451.267,161.133h-34.133v-17.067h34.133
				V161.133z"/>
			<path d="M75.8,408.6H41.667c-4.71,0-8.533,3.814-8.533,8.533s3.823,8.533,8.533,8.533H75.8c4.71,0,8.533-3.814,8.533-8.533
				S80.51,408.6,75.8,408.6z"/>
			<path d="M118.467,434.2c-4.71,0-8.533,3.814-8.533,8.533V459.8c0,4.719,3.823,8.533,8.533,8.533S127,464.519,127,459.8v-17.067
				C127,438.014,123.177,434.2,118.467,434.2z"/>
			<path d="M118.467,365.933c-4.71,0-8.533,3.814-8.533,8.533v17.067c0,4.719,3.823,8.533,8.533,8.533s8.533-3.814,8.533-8.533
				v-17.067C127,369.748,123.177,365.933,118.467,365.933z"/>
		</g>
	</g>
</g>
<g>
</g>
<g>
</g>
<g>
</g>
<g>
</g>
<g>
</g>
<g>
</g>
<g>
</g>
<g>
</g>
<g>
</g>
<g>
</g>
<g>
</g>
<g>
</g>
<g>
</g>
<g>
</g>
<g>
</g>
</svg>
