<?xml version="1.0" encoding="iso-8859-1"?>
<!-- Generator: Adobe Illustrator 19.0.0, SVG Export Plug-In . SVG Version: 6.00 Build 0)  -->
<svg version="1.1" id="Capa_1" xmlns="http://www.w3.org/2000/svg" xmlns:xlink="http://www.w3.org/1999/xlink" x="0px" y="0px"
	 viewBox="0 0 512 512" style="enable-background:new 0 0 512 512;" xml:space="preserve">
<g transform="translate(1 1)">
	<g>
		<g>
			<path d="M468.333-1H41.667C18.14-1-1,18.14-1,41.667v426.667C-1,491.86,18.14,511,41.667,511h426.667
				C491.86,511,511,491.86,511,468.333V41.667C511,18.14,491.86-1,468.333-1z M493.933,468.333c0,14.114-11.486,25.6-25.6,25.6
				H41.667c-14.114,0-25.6-11.486-25.6-25.6V41.667c0-14.114,11.486-25.6,25.6-25.6h426.667c14.114,0,25.6,11.486,25.6,25.6V468.333
				z"/>
			<path d="M442.733,58.733H408.6c-11.17,0-20.688,7.197-24.175,17.195C383.961,75.85,383.487,75.8,383,75.8h-17.067v-8.533
				c0-14.114-11.486-25.6-25.6-25.6H169.667c-14.114,0-25.6,11.486-25.6,25.6V75.8H127c-0.487,0-0.96,0.05-1.425,0.128
				c-3.487-9.998-13.005-17.195-24.175-17.195H67.267c-14.114,0-25.6,11.486-25.6,25.6v34.133c0,11.123,7.135,20.608,17.067,24.132
				v233.337c-9.931,3.523-17.067,13.009-17.067,24.132V434.2c0,14.114,11.486,25.6,25.6,25.6H101.4c14.114,0,25.6-11.486,25.6-25.6
				v-34.133c0-11.123-7.135-20.608-17.067-24.132V142.598c7.303-2.591,13.089-8.406,15.642-15.727
				C126.04,126.95,126.513,127,127,127h17.067v8.533c0,14.114,11.486,25.6,25.6,25.6h170.667c14.114,0,25.6-11.486,25.6-25.6V127
				H383c0.487,0,0.961-0.05,1.425-0.128c2.553,7.32,8.339,13.136,15.642,15.727v233.337C390.135,379.458,383,388.944,383,400.067
				V434.2c0,14.114,11.486,25.6,25.6,25.6h34.133c14.114,0,25.6-11.486,25.6-25.6v-34.133c0-11.123-7.135-20.608-17.067-24.132
				V142.598c9.931-3.523,17.067-13.009,17.067-24.132V84.333C468.333,70.219,456.847,58.733,442.733,58.733z M92.867,374.467H75.8
				v-230.4h17.067V374.467z M109.933,434.2c0,4.71-3.831,8.533-8.533,8.533H67.267c-4.702,0-8.533-3.823-8.533-8.533v-34.133
				c0-4.71,3.831-8.533,8.533-8.533H101.4c4.702,0,8.533,3.823,8.533,8.533V434.2z M109.933,118.467
				c0,4.702-3.831,8.533-8.533,8.533H67.267c-4.702,0-8.533-3.831-8.533-8.533V84.333c0-4.702,3.831-8.533,8.533-8.533H101.4
				c4.702,0,8.533,3.831,8.533,8.533V118.467z M127,109.933V92.867h17.067v17.067H127z M348.867,135.533
				c0,4.702-3.823,8.533-8.533,8.533H169.667c-4.702,0-8.533-3.831-8.533-8.533V67.267c0-4.702,3.831-8.533,8.533-8.533h170.667
				c4.71,0,8.533,3.831,8.533,8.533V135.533z M365.933,109.933V92.867H383v17.067H365.933z M434.2,374.467h-17.067v-230.4H434.2
				V374.467z M451.267,434.2c0,4.71-3.823,8.533-8.533,8.533H408.6c-4.71,0-8.533-3.823-8.533-8.533v-34.133
				c0-4.71,3.823-8.533,8.533-8.533h34.133c4.71,0,8.533,3.823,8.533,8.533V434.2z M451.267,118.467
				c0,4.702-3.823,8.533-8.533,8.533H408.6c-4.71,0-8.533-3.831-8.533-8.533V84.333c0-4.702,3.823-8.533,8.533-8.533h34.133
				c4.71,0,8.533,3.831,8.533,8.533V118.467z"/>
			<path d="M314.733,75.8h-76.414c-0.119-0.005-0.237,0-0.355,0h-42.697c-9.412,0-17.067,7.654-17.067,17.067v17.067
				c0,9.412,7.654,17.067,17.067,17.067h119.467c9.412,0,17.067-7.654,17.067-17.067V92.867C331.8,83.454,324.146,75.8,314.733,75.8
				z M232.518,109.933l10.242-17.07l22.764-0.002l-10.243,17.072H232.518z M195.267,92.867l27.589-0.002l-10.241,17.069h-17.348
				V92.867z M314.733,109.933h-39.549l10.244-17.073l29.305-0.002V109.933z"/>
			<path d="M314.733,434.2h-17.067c-4.719,0-8.533,3.814-8.533,8.533c0,4.719,3.814,8.533,8.533,8.533h17.067
				c4.719,0,8.533-3.814,8.533-8.533C323.267,438.014,319.452,434.2,314.733,434.2z"/>
			<path d="M263.533,434.2h-68.267c-4.71,0-8.533,3.814-8.533,8.533c0,4.719,3.823,8.533,8.533,8.533h68.267
				c4.719,0,8.533-3.814,8.533-8.533C272.067,438.014,268.252,434.2,263.533,434.2z"/>
		</g>
	</g>
</g>
<g>
</g>
<g>
</g>
<g>
</g>
<g>
</g>
<g>
</g>
<g>
</g>
<g>
</g>
<g>
</g>
<g>
</g>
<g>
</g>
<g>
</g>
<g>
</g>
<g>
</g>
<g>
</g>
<g>
</g>
</svg>
