<?xml version="1.0" encoding="iso-8859-1"?>
<!-- Generator: Adobe Illustrator 19.0.0, SVG Export Plug-In . SVG Version: 6.00 Build 0)  -->
<svg version="1.1" id="Capa_1" xmlns="http://www.w3.org/2000/svg" xmlns:xlink="http://www.w3.org/1999/xlink" x="0px" y="0px"
	 viewBox="0 0 512 512" style="enable-background:new 0 0 512 512;" xml:space="preserve">
<g transform="translate(1 1)">
	<g>
		<g>
			<path d="M459.8,357.4H297.667v-22.467c11.427-2.952,22.388-7.071,32.762-12.204c0.179-0.083,0.357-0.169,0.531-0.265
				c21.503-10.733,40.442-25.864,55.617-44.22c0.022-0.021,0.045-0.039,0.066-0.06c0.458-0.458,0.846-0.957,1.179-1.481
				c15.053-18.643,26.278-40.499,32.444-64.37h1.133c25.873,0,46.933-21.052,46.933-46.933s-21.06-46.933-46.933-46.933h-3.583
				c-6.281-19.93-16.126-38.294-28.787-54.339c-0.288-0.438-0.624-0.852-1.001-1.242c-7.333-9.117-15.573-17.475-24.598-24.918
				c-0.064-0.053-0.129-0.104-0.194-0.156C333.762,13.572,296.052-1,255-1c-40.499,0-77.741,14.189-107.037,37.844
				c-0.524,0.332-1.023,0.721-1.481,1.179c-0.022,0.022-0.04,0.046-0.061,0.068c-18.364,15.181-33.499,34.13-44.233,55.644
				c-0.08,0.146-0.15,0.294-0.221,0.443c-3.854,7.782-7.138,15.895-9.783,24.289H88.6c-25.882,0-46.933,21.052-46.933,46.933
				c0,25.882,21.052,46.933,46.933,46.933h1.133c6.23,24.118,17.622,46.181,32.91,64.949c0.323,0.5,0.701,0.976,1.139,1.415
				c0.03,0.03,0.064,0.055,0.094,0.085c22.566,27.072,53.335,47.078,88.456,56.151V357.4H50.2c-14.114,0-25.6,11.486-25.6,25.6
				v42.667c0,18.914,10.311,35.449,25.6,44.314V485.4c0,14.114,11.486,25.6,25.6,25.6h17.067c14.114,0,25.6-11.486,25.6-25.6v-8.533
				h273.067v8.533c0,14.114,11.486,25.6,25.6,25.6H434.2c14.114,0,25.6-11.486,25.6-25.6v-15.419
				c15.289-8.865,25.6-25.401,25.6-44.314V383C485.4,368.886,473.914,357.4,459.8,357.4z M167.202,295.624l15.841-15.865
				l12.066,12.066L182.1,304.834C176.949,302.045,171.978,298.964,167.202,295.624z M141.503,273.052l17.43-17.403l12.045,12.045
				l-17.288,17.319C149.412,281.252,145.34,277.261,141.503,273.052z M121.208,245.039l13.557-13.557l12.1,12.1l-16.193,16.169
				C127.25,255.041,124.088,250.131,121.208,245.039z M129.419,81.325l17.47,17.47l-12.083,12.084l-14.67-14.67
				C122.951,91.062,126.054,86.095,129.419,81.325z M152.111,55.721l18.921,18.929l-12.077,12.079L140.09,67.864
				C143.872,63.6,147.883,59.543,152.111,55.721z M180.179,35.566l14.994,14.942l-12.074,12.075L165.462,44.94
				C170.175,41.547,175.089,38.418,180.179,35.566z M214.489,21.499l4.835,4.835l-12.111,12.067L196.45,27.674
				C202.291,25.256,208.313,23.19,214.489,21.499z M314.198,27.939l-10.49,10.507l-12.061-12.059l4.669-4.669
				C302.439,23.43,308.408,25.511,314.198,27.939z M345.037,45.305l-17.206,17.261l-12.057-12.054l14.608-14.63
				C335.453,38.749,340.344,41.897,345.037,45.305z M370.312,68.318l-18.332,18.34l-12.047-12.062l18.412-18.465
				C362.556,59.968,366.548,64.04,370.312,68.318z M390.166,96.763l-14.05,14.058l-12.075-12.09l16.892-16.9
				C384.281,86.618,387.37,91.6,390.166,96.763z M379.728,259.203l-15.64-15.64l12.048-12.092l12.968,13.011
				C386.252,249.574,383.121,254.489,379.728,259.203z M356.802,284.576l-16.885-16.885l12.076-12.09l16.954,16.954
				C365.125,276.783,361.067,280.794,356.802,284.576z M328.455,304.531l-12.68-12.67l12.083-12.097l15.483,15.483
				C338.571,298.613,333.603,301.716,328.455,304.531z M231.316,303.9l-12.082-12.082l12.067-12.063l12.058,12.102L231.316,303.9z
				 M101.4,169.667c0-6.308,0.391-12.525,1.133-18.636l2.033,2.047c0.239,0.239,0.486,0.461,0.751,0.666l17.378,17.378
				l-19.815,19.815C101.912,183.982,101.4,176.883,101.4,169.667z M207.209,62.612l11.998,11.998l-12.046,12.046l-11.996-12
				L207.209,62.612z M279.628,86.638l12.06,12.06l-12.101,12.057l-12.016-12.016L279.628,86.638z M339.913,98.73l-12.067,12.072
				l-12.09-12.091l12.074-12.078L339.913,98.73z M406.279,153.086c0.008-0.008,0.014-0.016,0.022-0.024l1.255-1.255
				c0.682,5.861,1.044,11.819,1.044,17.86c0,6.93-0.47,13.751-1.363,20.44l-0.881-0.882c-0.23-0.239-0.495-0.461-0.759-0.666
				l-17.391-17.393l18.052-18.061C406.264,153.099,406.272,153.093,406.279,153.086z M376.126,207.371l-12.057-12.056l12.076-12.082
				l12.04,12.039L376.126,207.371z M351.977,231.527l-12.052-12.057l12.072-12.078l12.036,12.035L351.977,231.527z M231.337,255.68
				l-12.065-12.109l12.004-12.01l12.092,12.082L231.337,255.68z M195.089,219.458l12.083-12.082l12.074,12.074l-12.077,12.083
				L195.089,219.458z M170.982,195.268l12.041-12.04l12.08,12.08l-12.04,12.041L170.982,195.268z M279.576,134.978l12.056,12.055
				l-12.058,12.063l-12.056-12.061L279.576,134.978z M303.718,110.813l12.062,12.061l-12.076,12.082l-12.089-12.088L303.718,110.813
				z M291.657,195.326l-12.049,12.056l-12.086-12.086l12.052-12.058L291.657,195.326z M291.64,171.167L303.7,159.1l12.085,12.084
				l-12.063,12.07L291.64,171.167z M303.718,207.392l12.077,12.082l-12.044,12.05l-12.079-12.079L303.718,207.392z M315.784,195.32
				l12.066-12.072l12.08,12.079l-12.069,12.075L315.784,195.32z M339.922,171.17l12.076-12.082l12.08,12.079l-12.076,12.082
				L339.922,171.17z M327.857,159.106l-12.085-12.084l12.076-12.082l12.084,12.083L327.857,159.106z M267.508,171.167l-12.055,12.06
				l-12.065-12.065l12.06-12.059L267.508,171.167z M231.309,207.382l-12.071-12.071l12.084-12.083l12.068,12.068L231.309,207.382z
				 M207.169,183.242l-12.08-12.08l12.084-12.083l12.079,12.079L207.169,183.242z M231.318,159.091l-12.078-12.078l12.065-12.065
				l12.074,12.079L231.318,159.091z M207.168,134.942l-12.08-12.08l12.07-12.07l12.077,12.082L207.168,134.942z M195.102,147.008
				l-12.083,12.084l-12.081-12.081l12.083-12.083L195.102,147.008z M170.953,171.158l-12.04,12.041l-12.082-12.082l12.041-12.041
				L170.953,171.158z M243.343,219.488l12.117-12.122l12.086,12.086l-12.111,12.118L243.343,219.488z M279.608,231.514
				l12.079,12.079l-12.102,12.108l-12.084-12.074L279.608,231.514z M303.753,255.66l12.03,12.03l-12.088,12.102l-12.039-12.029
				L303.753,255.66z M315.817,243.591l12.042-12.047l12.019,12.024l-12.035,12.049L315.817,243.591z M376.14,159.1L364.06,147.02
				l12.046-12.052l12.073,12.087L376.14,159.1z M351.996,134.954l-12.083-12.084l12.06-12.066l12.076,12.09L351.996,134.954z
				 M303.725,86.603l-12.003-12.003l11.991-12.01l12.013,12.011L303.725,86.603z M267.544,122.862l-12.097,12.098l-12.074-12.078
				l12.096-12.095L267.544,122.862z M231.302,110.806l-12.077-12.082l12.048-12.048l12.079,12.079L231.302,110.806z M195.094,98.722
				l-12.073,12.073l-11.998-11.998l12.075-12.075L195.094,98.722z M170.955,122.861l-12.083,12.083l-11.998-11.998l12.083-12.083
				L170.955,122.861z M146.806,147.011l-12.041,12.041l-11.998-11.998l12.041-12.041L146.806,147.011z M134.761,183.188
				l12.082,12.082l-12.079,12.079l-12.082-12.082L134.761,183.188z M158.912,207.338l12.116,12.116l-12.088,12.07l-12.108-12.108
				L158.912,207.338z M183.055,231.567l12.004,12.004l-12.026,12.047l-12.024-12.024L183.055,231.567z M207.156,255.611
				l12.062,12.105l-12.043,12.043L195.1,267.685L207.156,255.611z M243.421,267.72l12.015-12.021l12.085,12.074l-12.042,12.048
				L243.421,267.72z M279.592,279.833l12.044,12.033l-12.018,12.032l-12.044-12.041L279.592,279.833z M293.973,318.251l-2.28-2.279
				l12.022-12.036l8.342,8.335C306.198,314.624,300.161,316.626,293.973,318.251z M388.226,219.416l12.07-12.114l2.871,2.874
				c-1.691,6.177-3.757,12.198-6.175,18.04L388.226,219.416z M403.181,129.206c0.034,0.127,0.064,0.256,0.103,0.38
				c0.167,0.618,0.34,1.234,0.5,1.855l-3.537,3.539l-12.073-12.087l9.677-9.682C399.912,118.41,401.689,123.75,403.181,129.206z
				 M279.577,38.458l12.07,12.068l-12.02,12.039l-12.059-12.099L279.577,38.458z M267.53,74.605l-12.069,12.109l-12.113-12.113
				l12.109-12.109L267.53,74.605z M231.282,62.535l-12.031-12.031l12.101-12.057l12.009,12.009L231.282,62.535z M122.741,122.946
				l-12.063,12.064l-4.269-4.294c0.1-0.38,0.206-0.758,0.308-1.137c0.034-0.107,0.059-0.217,0.088-0.325
				c1.553-5.687,3.421-11.244,5.592-16.65L122.741,122.946z M107.033,210.916l3.583-3.583l12.083,12.083l-9.433,9.433
				C110.832,223.043,108.747,217.056,107.033,210.916z M207.165,303.882l12.084,12.084l-2.482,2.482
				c-6.24-1.604-12.326-3.593-18.235-5.937L207.165,303.882z M237.396,322.046c0.235-0.235,0.449-0.483,0.651-0.737l17.415-17.415
				l17.446,17.438c0.197,0.246,0.406,0.486,0.635,0.714c0.031,0.031,0.065,0.056,0.096,0.087c-6.112,0.743-12.33,1.134-18.639,1.134
				c-6.022,0-11.961-0.36-17.805-1.038C237.261,322.166,237.331,322.111,237.396,322.046z M451.267,165.4
				c0,15.674-12.137,28.556-27.506,29.765c1.252-8.32,1.906-16.834,1.906-25.498c0-11.679-1.182-23.086-3.427-34.112
				C438.321,136.002,451.267,149.212,451.267,165.4z M276.345,17.557l-20.876,20.876l-17.408-17.408
				c-0.205-0.265-0.427-0.512-0.666-0.751l-2.843-2.843c6.691-0.894,13.515-1.364,20.447-1.364
				C262.243,16.067,269.366,16.582,276.345,17.557z M58.733,165.4c0-16.188,12.946-29.398,29.027-29.845
				c-2.246,11.026-3.427,22.433-3.427,34.112c0,8.664,0.654,17.178,1.906,25.498C70.87,193.956,58.733,181.074,58.733,165.4z
				 M229.4,338.413c8.353,1.262,16.901,1.92,25.6,1.92s17.247-0.658,25.6-1.92V357.4h-51.2V338.413z M101.4,485.4
				c0,4.71-3.831,8.533-8.533,8.533H75.8c-4.702,0-8.533-3.823-8.533-8.533v-8.533H75.8h25.6V485.4z M442.733,476.867v8.533
				c0,4.71-3.823,8.533-8.533,8.533h-17.067c-4.71,0-8.533-3.823-8.533-8.533v-8.533h25.6H442.733z M468.333,425.667
				c0,18.825-15.309,34.133-34.133,34.133h-34.133H109.933H75.8c-18.825,0-34.133-15.309-34.133-34.133V383
				c0-4.71,3.831-8.533,8.533-8.533h170.667h68.267H459.8c4.71,0,8.533,3.823,8.533,8.533V425.667z"/>
			<path d="M391.533,391.533c-14.114,0-25.6,11.486-25.6,25.6s11.486,25.6,25.6,25.6c14.114,0,25.6-11.486,25.6-25.6
				S405.647,391.533,391.533,391.533z M391.533,425.667c-4.71,0-8.533-3.823-8.533-8.533s3.823-8.533,8.533-8.533
				c4.71,0,8.533,3.823,8.533,8.533S396.244,425.667,391.533,425.667z"/>
		</g>
	</g>
</g>
<g>
</g>
<g>
</g>
<g>
</g>
<g>
</g>
<g>
</g>
<g>
</g>
<g>
</g>
<g>
</g>
<g>
</g>
<g>
</g>
<g>
</g>
<g>
</g>
<g>
</g>
<g>
</g>
<g>
</g>
</svg>
