<?xml version="1.0" encoding="iso-8859-1"?>
<!-- Generator: Adobe Illustrator 19.0.0, SVG Export Plug-In . SVG Version: 6.00 Build 0)  -->
<svg version="1.1" id="Capa_1" xmlns="http://www.w3.org/2000/svg" xmlns:xlink="http://www.w3.org/1999/xlink" x="0px" y="0px"
	 viewBox="0 0 512 512" style="enable-background:new 0 0 512 512;" xml:space="preserve">
<g transform="translate(1 1)">
	<g>
		<g>
			<path d="M417.133,186.733c-32.93,0-59.733,26.795-59.733,59.733c0,32.93,26.803,59.733,59.733,59.733
				c32.93,0,59.733-26.803,59.733-59.733C476.867,213.528,450.063,186.733,417.133,186.733z M417.133,289.133
				c-23.526,0-42.667-19.14-42.667-42.667c0-10.567,3.87-20.241,10.255-27.702l25.678,32.95c1.681,2.159,4.198,3.285,6.741,3.285
				c1.835,0,3.678-0.589,5.231-1.801c3.729-2.893,4.386-8.252,1.493-11.972l-25.693-32.968c5.716-2.848,12.152-4.459,18.96-4.459
				c23.526,0,42.667,19.14,42.667,42.667C459.8,269.993,440.66,289.133,417.133,289.133z"/>
			<path d="M451.267-1H75.8C33.458-1-1,33.458-1,75.8v8.533c0,18.825,15.309,34.133,34.133,34.133H127v17.067h-8.533
				c-11.563-0.137-22.118,4.437-30.174,12.493C80.237,156.09,75.8,166.808,75.8,178.2v25.6H33.133
				c-4.557,0-8.841,1.775-12.066,5.001s-5.001,7.509-5.001,12.066v68.267c0,27.884,13.446,52.685,34.193,68.267h-8.593
				C18.14,357.4-1,376.54-1,400.067v42.667c0,18.825,15.309,34.133,34.133,34.133v8.533c0,14.114,11.486,25.6,25.6,25.6h34.133
				c14.114,0,25.6-11.486,25.6-25.6v-8.533h273.067v8.533c0,14.114,11.486,25.6,25.6,25.6h34.133c14.114,0,25.6-11.486,25.6-25.6
				v-8.533c18.825,0,34.133-15.309,34.133-34.133v-76.8v-256V75.8V58.733C511,25.795,484.197-1,451.267-1z M254.941,357.4
				c20.747-15.581,34.193-40.382,34.193-68.267v-68.267c0-9.412-7.654-17.067-17.067-17.067H229.4v-25.6
				c0-11.392-4.437-22.11-12.493-30.174c-8.055-8.055-18.773-12.493-30.157-12.493c-0.009,0-0.009,0-0.017,0H178.2v-17.067h145.067
				V357.4H254.941z M340.333,118.467h153.6V357.4h-153.6V118.467z M75.8,16.067h375.467c23.526,0,42.667,19.14,42.667,42.667v8.533
				h-68.267v-8.533c0-14.114-11.486-25.6-25.6-25.6h-51.2c-14.114,0-25.6,11.486-25.6,25.6v8.533H203.8v-8.533
				c0-14.114-11.486-25.6-25.6-25.6H127c-14.114,0-25.6,11.486-25.6,25.6v8.533H16.673C20.828,38.356,45.754,16.067,75.8,16.067z
				 M408.6,67.267h-68.267v-8.533c0-4.702,3.823-8.533,8.533-8.533h51.2c4.71,0,8.533,3.831,8.533,8.533V67.267z M186.733,67.267
				h-68.267v-8.533c0-4.702,3.831-8.533,8.533-8.533h51.2c4.702,0,8.533,3.831,8.533,8.533V67.267z M16.067,84.333h93.867h85.333
				H331.8h85.333h76.8V101.4H331.8H33.133C23.721,101.4,16.067,93.746,16.067,84.333z M144.067,118.467h17.067v17.067h-17.067
				V118.467z M92.867,178.2c0-6.844,2.662-13.269,7.509-18.108c4.83-4.83,11.255-7.492,18.091-7.492h0.009h68.267h0.009
				c6.835,0,13.252,2.662,18.091,7.501c4.83,4.83,7.492,11.255,7.492,18.099v25.6h-17.067v-8.559
				c-0.043-14.054-11.52-25.532-25.6-25.574h-34.159c-14.054,0.043-25.532,11.52-25.574,25.6v8.533H92.867V178.2z M161.133,203.8
				v-17.067h8.508c4.702,0.009,8.55,3.857,8.559,8.533v8.533H161.133z M127,203.8v-8.508c0.009-4.702,3.857-8.55,8.533-8.559h8.533
				V203.8H127z M33.133,289.133v-68.267h238.933v68.267c0,37.641-30.626,68.267-68.267,68.267H101.4
				C63.759,357.4,33.133,326.774,33.133,289.133z M101.4,485.4c0,4.71-3.831,8.533-8.533,8.533H58.733
				c-4.702,0-8.533-3.823-8.533-8.533v-8.533h51.2V485.4z M459.8,485.4c0,4.71-3.823,8.533-8.533,8.533h-34.133
				c-4.71,0-8.533-3.823-8.533-8.533v-8.533h51.2V485.4z M493.933,442.733c0,9.412-7.654,17.067-17.067,17.067h-8.533h-68.267
				H109.933H41.667h-8.533c-9.412,0-17.067-7.654-17.067-17.067v-42.667c0-14.114,11.486-25.6,25.6-25.6H101.4h102.4h128h162.133
				V442.733z"/>
		</g>
	</g>
</g>
<g>
</g>
<g>
</g>
<g>
</g>
<g>
</g>
<g>
</g>
<g>
</g>
<g>
</g>
<g>
</g>
<g>
</g>
<g>
</g>
<g>
</g>
<g>
</g>
<g>
</g>
<g>
</g>
<g>
</g>
</svg>
