<?xml version="1.0" encoding="iso-8859-1"?>
<!-- Generator: Adobe Illustrator 19.0.0, SVG Export Plug-In . SVG Version: 6.00 Build 0)  -->
<svg version="1.1" id="Capa_1" xmlns="http://www.w3.org/2000/svg" xmlns:xlink="http://www.w3.org/1999/xlink" x="0px" y="0px"
	 viewBox="0 0 512 512" style="enable-background:new 0 0 512 512;" xml:space="preserve">
<g transform="translate(1 1)">
	<g>
		<g>
			<path d="M340.121,230.996c-0.201-0.253-0.415-0.5-0.649-0.734c-0.234-0.234-0.481-0.448-0.734-0.649
				c-21.575-21.227-51.15-34.346-83.738-34.346s-62.163,13.119-83.738,34.346c-0.253,0.201-0.5,0.415-0.734,0.649
				s-0.448,0.481-0.649,0.734c-21.227,21.575-34.346,51.15-34.346,83.738s13.119,62.163,34.346,83.738
				c0.201,0.253,0.415,0.5,0.649,0.734c0.234,0.234,0.48,0.447,0.732,0.648C192.836,421.081,222.412,434.2,255,434.2
				c32.583,0,62.155-13.115,83.728-34.337c0.256-0.204,0.506-0.42,0.743-0.658c0.234-0.234,0.448-0.481,0.649-0.734
				c21.227-21.575,34.346-51.15,34.346-83.738S361.348,252.57,340.121,230.996z M348.867,323.267h8.175
				c-1.81,21.834-10.499,41.743-23.889,57.553l-5.747-5.747c-3.337-3.337-8.73-3.337-12.066,0c-3.337,3.337-3.337,8.73,0,12.066
				l5.747,5.747c-15.81,13.39-35.719,22.079-57.553,23.889V408.6c0-4.719-3.814-8.533-8.533-8.533c-4.71,0-8.533,3.814-8.533,8.533
				v8.175c-21.834-1.81-41.743-10.499-57.553-23.889l5.747-5.747c3.336-3.337,3.336-8.73,0-12.066c-3.337-3.337-8.73-3.337-12.066,0
				l-5.747,5.747c-13.39-15.81-22.079-35.719-23.889-57.553h8.175c4.71,0,8.533-3.814,8.533-8.533s-3.823-8.533-8.533-8.533h-8.175
				c1.81-21.834,10.499-41.743,23.889-57.553l5.747,5.747c1.664,1.664,3.849,2.5,6.033,2.5c2.185,0,4.361-0.836,6.033-2.5
				c3.336-3.337,3.336-8.73,0-12.066l-5.747-5.747c15.81-13.39,35.719-22.079,57.553-23.889v8.175c0,4.71,3.823,8.533,8.533,8.533
				c4.719,0,8.533-3.823,8.533-8.533v-8.175c21.834,1.81,41.743,10.499,57.553,23.889l-5.747,5.747
				c-3.337,3.337-3.337,8.73,0,12.066c1.664,1.664,3.849,2.5,6.033,2.5c2.185,0,4.369-0.836,6.033-2.5l5.747-5.747
				c13.39,15.81,22.079,35.719,23.889,57.553h-8.175c-4.719,0-8.533,3.814-8.533,8.533S344.148,323.267,348.867,323.267z"/>
			<path d="M434.2,459.8h-17.067V212.333c0-32.939-26.803-59.733-59.733-59.733h-42.667v-51.2h51.2
				c25.071,0,48.64-9.762,66.372-27.494C450.029,56.173,459.8,32.604,459.8,7.533c0-4.71-3.814-8.533-8.533-8.533H58.733
				C54.023-1,50.2,2.823,50.2,7.533c0,51.755,42.112,93.867,93.867,93.867h51.2v51.2H152.6c-32.939,0-59.733,26.795-59.733,59.733
				V459.8H75.8c-18.825,0-34.133,15.309-34.133,34.133v8.533c0,4.719,3.823,8.533,8.533,8.533h409.6
				c4.719,0,8.533-3.814,8.533-8.533v-8.533C468.333,475.109,453.025,459.8,434.2,459.8z M67.736,16.067h374.528
				c-1.894,17.289-9.549,33.297-22.025,45.773c-14.507,14.507-33.801,22.494-54.306,22.494H306.2h-25.6V67.267
				c0-14.114-11.486-25.6-25.6-25.6s-25.6,11.486-25.6,25.6v17.067h-25.6h-59.733C104.6,84.333,71.994,54.415,67.736,16.067z
				 M263.533,84.333h-17.067V67.267c0-4.702,3.831-8.533,8.533-8.533c4.71,0,8.533,3.831,8.533,8.533V84.333z M212.333,101.4h25.6
				h34.133h25.6v51.2h-85.333V101.4z M109.933,212.333c0-23.526,19.14-42.667,42.667-42.667h51.2h102.4h51.2
				c23.526,0,42.667,19.14,42.667,42.667V459.8H109.933V212.333z M58.733,493.933c0-9.412,7.654-17.067,17.067-17.067h25.6h307.2
				h25.6c9.412,0,17.067,7.654,17.067,17.067H58.733z"/>
			<path d="M283.433,234.281c-4.446-1.57-9.31,0.759-10.88,5.197l-17.552,49.653c-10.537,0.004-20.437,6.579-24.142,17.069
				c-3.707,10.489-0.138,21.817,8.06,28.447l-3.333,9.424c-1.57,4.437,0.751,9.31,5.197,10.88c0.939,0.333,1.894,0.495,2.842,0.495
				c3.507,0,6.801-2.176,8.047-5.692l3.332-9.422c10.536-0.012,20.428-6.579,24.137-17.066c3.707-10.49,0.137-21.819-8.063-28.449
				l17.552-49.648C290.209,240.724,287.879,235.851,283.433,234.281z M263.047,317.583c-1.567,4.41-6.438,6.729-10.859,5.206
				c-0.007-0.003-0.014-0.006-0.021-0.009c-0.01-0.004-0.021-0.006-0.031-0.009c-4.422-1.579-6.75-6.45-5.182-10.888
				c1.57-4.429,6.434-6.733,10.897-5.197C262.279,308.257,264.617,313.138,263.047,317.583z"/>
		</g>
	</g>
</g>
<g>
</g>
<g>
</g>
<g>
</g>
<g>
</g>
<g>
</g>
<g>
</g>
<g>
</g>
<g>
</g>
<g>
</g>
<g>
</g>
<g>
</g>
<g>
</g>
<g>
</g>
<g>
</g>
<g>
</g>
</svg>
