<?xml version="1.0" encoding="iso-8859-1"?>
<!-- Generator: Adobe Illustrator 19.0.0, SVG Export Plug-In . SVG Version: 6.00 Build 0)  -->
<svg version="1.1" id="Capa_1" xmlns="http://www.w3.org/2000/svg" xmlns:xlink="http://www.w3.org/1999/xlink" x="0px" y="0px"
	 viewBox="0 0 512 512" style="enable-background:new 0 0 512 512;" xml:space="preserve">
<g transform="translate(1 1)">
	<g>
		<path d="M374.467,272.067h-85.333h-3.251L294.416,255H331.8c14.114,0,25.6-11.486,25.6-25.6c0-11.123-7.135-20.608-17.067-24.132
			v-54.137c9.931-3.523,17.067-13.009,17.067-24.132s-7.135-20.608-17.067-24.132V48.732C350.265,45.208,357.4,35.723,357.4,24.6
			c0-14.114-11.486-25.6-25.6-25.6H178.2c-14.114,0-25.6,11.486-25.6,25.6c0,11.123,7.135,20.608,17.067,24.132v54.137
			C159.735,106.392,152.6,115.877,152.6,127s7.135,20.608,17.067,24.132v54.137c-9.931,3.523-17.067,13.009-17.067,24.132
			c0,14.114,11.486,25.6,25.6,25.6h37.389l8.533,17.067h-3.255h-85.333c-23.526,0-42.667,19.14-42.667,42.667v187.733
			c0,4.719,3.823,8.533,8.533,8.533h59.733h187.733H408.6c4.719,0,8.533-3.814,8.533-8.533V314.733
			C417.133,291.207,397.993,272.067,374.467,272.067z M398.598,306.2H297.667v-17.067h76.8
			C385.589,289.133,395.075,296.269,398.598,306.2z M280.6,391.533V357.4h8.533h8.533v34.133H280.6z M272.067,340.333h-34.133H229.4
			v-51.2h51.2v51.2H272.067z M212.333,391.533V357.4h8.533h8.533v34.133H212.333z M186.733,152.6h136.533v51.2H186.733V152.6z
			 M186.733,101.4V50.2h136.533v51.2H186.733z M178.2,16.067h153.6c4.71,0,8.533,3.831,8.533,8.533c0,4.702-3.823,8.533-8.533,8.533
			H178.2c-4.702,0-8.533-3.831-8.533-8.533C169.667,19.898,173.498,16.067,178.2,16.067z M178.2,118.467h153.6
			c4.71,0,8.533,3.831,8.533,8.533s-3.823,8.533-8.533,8.533H178.2c-4.702,0-8.533-3.831-8.533-8.533S173.498,118.467,178.2,118.467
			z M169.667,229.4c0-4.702,3.831-8.533,8.533-8.533h153.6c4.71,0,8.533,3.831,8.533,8.533c0,4.702-3.823,8.533-8.533,8.533H221.202
			c-0.119-0.005-0.238,0-0.357,0H178.2C173.498,237.933,169.667,234.102,169.667,229.4z M234.674,255h40.657l-8.533,17.067h-23.59
			L234.674,255z M135.533,289.133h76.8V306.2H111.402C114.925,296.269,124.411,289.133,135.533,289.133z M109.933,323.267h102.4
			v17.067H203.8h-8.533c-23.526,0-42.667,19.14-42.667,42.667v110.933h-42.667V323.267z M169.667,493.933V383
			c0-14.114,11.486-25.6,25.6-25.6v34.133c0,9.412,7.654,17.067,17.067,17.067v8.533c0,4.719,3.823,8.533,8.533,8.533
			c4.71,0,8.533-3.814,8.533-8.533V408.6c9.412,0,17.067-7.654,17.067-17.067V357.4h17.067v34.133
			c0,9.412,7.654,17.067,17.067,17.067v8.533c0,4.719,3.814,8.533,8.533,8.533s8.533-3.814,8.533-8.533V408.6
			c9.412,0,17.067-7.654,17.067-17.067V357.4c14.114,0,25.6,11.486,25.6,25.6v110.933H169.667z M357.4,493.933V383
			c0-23.526-19.14-42.667-42.667-42.667H306.2h-8.533v-17.067h102.4v170.667H357.4z"/>
	</g>
</g>
<g>
</g>
<g>
</g>
<g>
</g>
<g>
</g>
<g>
</g>
<g>
</g>
<g>
</g>
<g>
</g>
<g>
</g>
<g>
</g>
<g>
</g>
<g>
</g>
<g>
</g>
<g>
</g>
<g>
</g>
</svg>
