<?xml version="1.0" encoding="iso-8859-1"?>
<!-- Generator: Adobe Illustrator 19.0.0, SVG Export Plug-In . SVG Version: 6.00 Build 0)  -->
<svg version="1.1" id="Capa_1" xmlns="http://www.w3.org/2000/svg" xmlns:xlink="http://www.w3.org/1999/xlink" x="0px" y="0px"
	 viewBox="0 0 512.002 512.002" style="enable-background:new 0 0 512.002 512.002;" xml:space="preserve">
<g transform="translate(1 1)">
	<g>
		<g>
			<path d="M352.75,120.525c-72.909-11.546-138.479,25.856-163.26,42.47c-10.01,6.665-13.961,19.576-9.404,30.686l8.055,19.738
				c4.07,9.771,13.747,15.889,24.055,15.983h25.728h85.333h25.165c0.077,0,0.171,0,0.256,0c14.089,0,25.626-11.392,25.779-25.6
				v-57.958c0-0.017,0-0.034,0-0.043C374.39,133.12,365.26,122.487,352.75,120.525z M246.459,212.335v-8.533
				c0-4.702,3.831-8.533,8.533-8.533h51.2c4.71,0,8.533,3.831,8.533,8.533v8.533H246.459z M357.392,203.716
				c-0.051,4.804-4.292,8.405-8.892,8.619h-16.708v-8.533c0-14.114-11.486-25.6-25.6-25.6h-51.2c-14.114,0-25.6,11.486-25.6,25.6
				v8.533h-17.246c-0.017,0-0.034,0-0.043,0c-3.601,0-6.818-2.15-8.175-5.427l-8.038-19.686c-1.493-3.627-0.205-7.842,3.089-10.027
				c23.117-15.514,84.164-50.44,151.108-39.799c4.207,0.666,7.279,4.233,7.305,8.491V203.716z"/>
			<path d="M485.938,31.812c1.783-7.919,15.036-14.583,19.524-16.29c4.412-1.664,6.639-6.579,4.992-10.991s-6.588-6.63-10.991-4.992
				c-2.645,0.998-26.018,10.24-30.157,28.476c-1.493,6.545-0.973,16.725,9.933,28.092c13.389,13.943,12.74,19.004,12.621,19.541
				c-0.521,2.33-7.603,5.06-11.827,6.69c-0.352,0.136-0.7,0.271-1.049,0.406c-3.962-5.26-10.697-7.931-17.281-6.61l-40.025,7.925
				l-11.362-24.028c-3.004-6.451-9.677-10.368-16.879-9.762C341.614,54.835,79.513,88.508,7.961,303.514
				c-0.033,0.1-0.052,0.202-0.081,0.303l-1.353,1.353c-7.347,7.339-9.532,18.295-5.547,27.913
				c3.985,9.591,13.269,15.787,23.637,15.787c0.017,0,0.026,0,0.034,0h8.995c0.747,20.341-2.864,40.817-10.608,59.742
				c-2.509,6.349-6.588,12.023-11.75,16.375c-11.008,9.182-15.13,24.388-10.266,37.862c3.985,11.017,13.329,19.081,24.431,21.666
				c3.482,15.155,17.084,26.487,33.271,26.487s29.79-11.332,33.263-26.479c11.102-2.586,20.454-10.65,24.431-21.666
				c4.872-13.474,0.742-28.689-10.223-37.828c-5.205-4.395-9.284-10.069-11.827-16.503c-7.706-18.842-11.313-39.309-10.571-59.657
				h86.383c0.747,20.341-2.864,40.817-10.608,59.742c-2.509,6.349-6.588,12.023-11.75,16.375
				c-11.008,9.182-15.13,24.388-10.266,37.862c3.985,11.017,13.329,19.081,24.431,21.666c3.482,15.155,17.084,26.487,33.271,26.487
				c16.188,0,29.79-11.332,33.263-26.479c11.102-2.586,20.454-10.65,24.431-21.666c4.872-13.474,0.742-28.689-10.223-37.828
				c-5.205-4.395-9.284-10.069-11.827-16.503c-7.706-18.842-11.313-39.309-10.571-59.657h86.391
				c0.747,20.342-2.864,40.818-10.608,59.75c-2.509,6.332-6.588,12.006-11.759,16.375c-10.999,9.182-15.121,24.388-10.257,37.854
				c3.985,11.017,13.32,19.081,24.431,21.666c3.482,15.155,17.075,26.487,33.263,26.487c16.188,0,29.781-11.332,33.271-26.479
				c11.102-2.586,20.446-10.65,24.431-21.666c4.873-13.474,0.751-28.689-10.223-37.828c-5.205-4.386-9.276-10.061-11.819-16.503
				c-7.722-18.844-11.33-39.313-10.582-59.656h26.07c0.009,0,0.017,0,0.034,0c8.926,0,17.058-4.531,21.76-12.143
				c4.634-7.501,5.069-17.05,1.126-24.926l-4.727-9.429c-0.253-0.501-0.55-0.965-0.881-1.393c0.581-8.691,2.592-16.999,5.837-24.67
				c0.263-0.46,0.483-0.947,0.658-1.457c12.003-26.805,38.903-45.557,70.12-45.594c2.927,0,5.641-1.502,7.202-3.968
				c1.57-2.475,1.758-5.564,0.512-8.209l-35.512-75.097l31.203-30.853c3.45-3.4,5.21-7.957,5.116-12.565
				c0.263-0.101,0.524-0.202,0.789-0.303c8.363-3.234,19.84-7.654,22.34-18.91c2.142-9.634-3.251-20.779-16.964-35.063
				C487.03,39.569,485.136,35.371,485.938,31.812z M383.376,297.668H28.142c2.201-5.836,4.56-11.521,7.058-17.067h351.347
				C384.988,286.106,383.903,291.807,383.376,297.668z M78.54,414.891c3.541,8.96,9.301,16.981,16.7,23.219
				c5.513,4.591,7.578,12.203,5.137,18.944c-1.598,4.415-4.922,7.871-9.036,9.74c-1.436-4.655-3.863-8.987-7.178-12.685
				c-3.14-3.507-8.533-3.806-12.049-0.666c-3.507,3.149-3.806,8.542-0.657,12.049c2.799,3.132,4.343,7.168,4.335,11.358
				c0,0.003,0,0.006,0,0.009c0,0.003,0,0.006,0,0.008c0,9.412-7.654,17.067-17.067,17.067c-6.909,0-12.857-4.131-15.539-10.047
				c4.663-1.435,9.002-3.861,12.706-7.181c3.507-3.14,3.806-8.542,0.666-12.049c-3.149-3.507-8.525-3.814-12.049-0.666
				c-3.132,2.799-7.159,4.343-11.349,4.343c-0.013,0-0.019,0-0.026,0c-7.168-0.009-13.619-4.54-16.06-11.29
				c-2.441-6.741-0.375-14.353,5.171-18.978c7.356-6.195,13.116-14.217,16.623-23.083c8.548-20.89,12.592-43.566,11.856-66.116
				h15.995C65.982,371.418,70.027,394.094,78.54,414.891z M215.073,414.891c3.541,8.96,9.301,16.981,16.7,23.219
				c5.513,4.591,7.578,12.203,5.137,18.944c-1.598,4.415-4.922,7.871-9.036,9.74c-1.436-4.655-3.862-8.987-7.178-12.685
				c-3.14-3.507-8.533-3.806-12.049-0.666c-3.507,3.149-3.806,8.542-0.657,12.049c2.799,3.132,4.344,7.168,4.335,11.358
				c0,0.003,0,0.006,0,0.009c0,0.003,0,0.006,0,0.008c0,9.412-7.654,17.067-17.067,17.067c-6.909,0-12.857-4.131-15.539-10.047
				c4.663-1.435,9.002-3.861,12.706-7.181c3.507-3.14,3.806-8.542,0.666-12.049c-3.149-3.507-8.533-3.814-12.049-0.666
				c-3.132,2.799-7.159,4.343-11.349,4.343c-0.013,0-0.019,0-0.026,0c-7.168-0.009-13.619-4.54-16.06-11.29
				c-2.44-6.741-0.375-14.353,5.171-18.978c7.356-6.195,13.116-14.217,16.623-23.083c8.548-20.89,12.592-43.566,11.856-66.116
				h15.995C202.515,371.418,206.561,394.094,215.073,414.891z M351.615,414.891c3.541,8.96,9.293,16.981,16.691,23.219
				c5.513,4.591,7.569,12.203,5.137,18.944c-1.599,4.416-4.924,7.873-9.039,9.742c-1.438-4.661-3.865-8.999-7.183-12.694
				c-3.149-3.507-8.542-3.797-12.049-0.649c-3.507,3.14-3.797,8.542-0.648,12.049c2.799,3.123,4.343,7.159,4.335,11.358
				c0,0.001,0,0.003,0,0.004c0,0.001,0,0.003,0,0.004c0,9.412-7.654,17.067-17.067,17.067c-6.909,0-12.857-4.132-15.54-10.048
				c4.666-1.437,9.006-3.867,12.707-7.189c3.507-3.14,3.797-8.542,0.649-12.049s-8.542-3.797-12.049-0.649
				c-3.115,2.79-7.142,4.335-11.332,4.335c-0.008,0-0.017,0-0.026,0c-7.168-0.009-13.619-4.54-16.043-11.29
				c-2.441-6.741-0.367-14.353,5.171-18.978c7.364-6.212,13.124-14.225,16.623-23.083c8.54-20.89,12.59-43.566,11.856-66.116h15.975
				C339.041,371.427,343.088,394.095,351.615,414.891z M390.22,327.757c-1.57,2.534-4.275,4.045-7.27,4.045h-0.008h-67.865
				c-0.184-0.006-0.369-0.005-0.555,0H178.446c-0.132-0.004-0.264-0.002-0.397,0H41.913c-0.131-0.004-0.264-0.002-0.397,0H24.635
				h-0.009c-3.456,0-6.554-2.065-7.876-5.256c-1.331-3.209-0.606-6.861,1.852-9.31l2.5-2.5h367.127l2.366,4.719
				C391.909,322.074,391.764,325.256,390.22,327.757z M393.234,263.535H43.564C130.959,99.08,348.918,71.321,394.862,67.277
				l68.958,145.826C432.976,217.444,406.894,236.814,393.234,263.535z M441.337,125.631l-12.117-25.624l36.136-7.011l2.927,5.99
				L441.337,125.631z"/>
		</g>
	</g>
</g>
<g>
</g>
<g>
</g>
<g>
</g>
<g>
</g>
<g>
</g>
<g>
</g>
<g>
</g>
<g>
</g>
<g>
</g>
<g>
</g>
<g>
</g>
<g>
</g>
<g>
</g>
<g>
</g>
<g>
</g>
</svg>
