<?xml version="1.0" encoding="iso-8859-1"?>
<!-- Generator: Adobe Illustrator 19.0.0, SVG Export Plug-In . SVG Version: 6.00 Build 0)  -->
<svg version="1.1" id="Capa_1" xmlns="http://www.w3.org/2000/svg" xmlns:xlink="http://www.w3.org/1999/xlink" x="0px" y="0px"
	 viewBox="0 0 512 512" style="enable-background:new 0 0 512 512;" xml:space="preserve">
<g transform="translate(1 1)">
	<g>
		<g>
			<path d="M468.333,54.467H459.8h-51.2H41.667C18.14,54.467-1,73.607-1,97.133v179.2c0,9.412,7.654,17.067,17.067,17.067h25.6
				h43.188c0.746,20.342-2.865,40.818-10.617,59.75c-2.5,6.332-6.579,12.006-11.742,16.367
				c-11.008,9.182-15.138,24.397-10.266,37.862c3.985,11.017,13.329,19.081,24.431,21.666c3.482,15.155,17.084,26.487,33.271,26.487
				s29.79-11.332,33.254-26.488c11.102-2.586,20.446-10.65,24.431-21.666c4.873-13.474,0.742-28.689-10.223-37.828
				c-5.205-4.395-9.284-10.069-11.827-16.503c-7.714-18.841-11.321-39.308-10.574-59.648h86.394
				c0.746,20.342-2.865,40.818-10.617,59.75c-2.5,6.332-6.579,12.006-11.742,16.367c-11.008,9.182-15.138,24.397-10.266,37.862
				c3.985,11.017,13.329,19.081,24.431,21.666c3.482,15.155,17.084,26.487,33.271,26.487s29.781-11.332,33.263-26.488
				c11.102-2.586,20.446-10.65,24.431-21.666c4.873-13.474,0.751-28.689-10.223-37.828c-5.214-4.395-9.284-10.069-11.827-16.503
				c-7.721-18.841-11.323-39.308-10.574-59.648h86.394c0.747,20.342-2.864,40.818-10.608,59.75
				c-2.509,6.332-6.588,12.006-11.75,16.367c-11.017,9.182-15.13,24.397-10.266,37.862c3.985,11.017,13.321,19.081,24.431,21.666
				c3.482,15.155,17.075,26.487,33.263,26.487c16.188,0,29.781-11.332,33.289-26.488c11.102-2.586,20.446-10.65,24.431-21.666
				c4.873-13.474,0.751-28.689-10.223-37.828c-5.214-4.395-9.284-10.069-11.827-16.503c-7.721-18.841-11.323-39.308-10.574-59.648
				h60.238h25.6c9.412,0,17.067-7.654,17.067-17.067v-179.2C511,73.607,491.86,54.467,468.333,54.467z M451.267,71.533v25.6
				c0,9.412-7.654,17.067-17.067,17.067s-17.067-7.654-17.067-17.067v-25.6H451.267z M417.133,276.333h-17.06
				c-0.039,0-0.079-0.001-0.118,0h-8.421v-17.067h25.6V276.333z M374.467,276.333h-8.218c-0.166-0.005-0.333-0.004-0.5,0h-16.882
				v-17.067h25.6V276.333z M331.8,276.333h-25.6v-17.067h25.6V276.333z M289.133,276.333h-25.6v-17.067h25.6V276.333z
				 M246.467,276.333h-16.703c-0.198-0.007-0.398-0.007-0.599,0h-8.298v-17.067h25.6V276.333z M203.8,276.333h-25.6v-17.067h25.6
				V276.333z M161.133,276.333h-25.6v-17.067h25.6V276.333z M118.467,276.333H93.228c-0.12-0.004-0.24-0.012-0.362-0.011v-17.056
				h25.6V276.333z M75.8,276.333H50.2V267.8c0-4.71,3.831-8.533,8.533-8.533H75.8V276.333z M129.739,359.414
				c3.541,8.96,9.301,16.981,16.7,23.219c5.504,4.591,7.578,12.203,5.137,18.944c-1.597,4.411-4.917,7.866-9.026,9.736
				c-1.438-4.656-3.864-8.988-7.179-12.68c-3.157-3.507-8.542-3.806-12.058-0.649c-3.507,3.14-3.806,8.542-0.657,12.049
				c2.787,3.101,4.318,7.103,4.339,11.269c0,0.03-0.004,0.059-0.004,0.089c0,9.412-7.654,17.067-17.067,17.067
				c-6.905,0-12.85-4.127-15.535-10.038c4.664-1.435,9.005-3.861,12.71-7.183c3.507-3.149,3.806-8.542,0.657-12.049
				c-3.14-3.507-8.533-3.806-12.049-0.666c-3.106,2.783-7.106,4.323-11.27,4.34c-0.035,0-0.069-0.005-0.105-0.005
				c-7.168-0.009-13.619-4.54-16.06-11.281c-2.441-6.741-0.367-14.353,5.18-18.978c7.356-6.204,13.116-14.225,16.614-23.083
				c8.556-20.883,12.6-43.564,11.865-66.116h15.985C117.181,315.951,121.221,338.621,129.739,359.414z M266.273,359.414
				c3.533,8.96,9.293,16.973,16.7,23.219c5.513,4.591,7.569,12.203,5.137,18.944c-1.598,4.415-4.922,7.871-9.035,9.74
				c-1.438-4.651-3.861-8.98-7.169-12.676c-3.14-3.524-8.55-3.797-12.049-0.666c-3.507,3.14-3.806,8.542-0.666,12.049
				c2.787,3.109,4.326,7.11,4.339,11.276c0,0.03-0.005,0.06-0.005,0.09c0,9.412-7.654,17.067-17.067,17.067
				c-6.905,0-12.85-4.127-15.535-10.038c4.664-1.435,9.005-3.861,12.71-7.183c3.507-3.149,3.806-8.542,0.657-12.049
				c-3.132-3.507-8.533-3.806-12.049-0.666c-3.106,2.783-7.106,4.323-11.27,4.34c-0.035,0-0.069-0.005-0.105-0.005
				c-7.168-0.009-13.619-4.54-16.06-11.281c-2.44-6.741-0.367-14.353,5.18-18.978c7.356-6.204,13.116-14.225,16.614-23.083
				c8.556-20.883,12.6-43.564,11.864-66.116h15.985C253.714,315.949,257.755,338.614,266.273,359.414z M402.832,359.414
				c3.533,8.96,9.293,16.973,16.7,23.219c5.513,4.591,7.569,12.203,5.137,18.944c-1.601,4.423-4.934,7.883-9.058,9.751
				c-1.437-4.654-3.862-8.988-7.173-12.686c-3.14-3.524-8.559-3.797-12.049-0.666c-3.507,3.14-3.806,8.542-0.666,12.049
				c2.807,3.132,4.352,7.168,4.344,11.366c0,0.058,0.007,0.114,0.008,0.172c-0.094,9.333-7.704,16.895-17.058,16.895
				c-6.908,0-12.855-4.131-15.539-10.046c4.654-1.436,8.987-3.859,12.68-7.175c3.507-3.14,3.806-8.542,0.666-12.049
				c-3.149-3.516-8.55-3.797-12.049-0.666c-3.102,2.78-7.105,4.319-11.257,4.34c-0.031,0-0.061-0.005-0.093-0.005
				c-7.168-0.009-13.619-4.54-16.06-11.281c-2.44-6.741-0.375-14.353,5.171-18.978c7.364-6.212,13.124-14.225,16.623-23.083
				c8.541-20.89,12.59-43.566,11.856-66.116h15.992C390.267,315.949,394.314,338.614,402.832,359.414z M434.2,276.333v-17.067
				h17.067c4.71,0,8.533,3.823,8.533,8.533v8.533H434.2z M493.933,276.333h-17.067V267.8c0-14.114-11.486-25.6-25.6-25.6H58.733
				c-14.114,0-25.6,11.486-25.6,25.6v8.533H16.067v-179.2c0-14.114,11.486-25.6,25.6-25.6h358.4v25.6
				c0,18.825,15.309,34.133,34.133,34.133c18.825,0,34.133-15.309,34.133-34.133v-25.6c14.114,0,25.6,11.486,25.6,25.6V276.333z"/>
			<path d="M306.2,148.333h-3.251l2.355-4.71c2.108-4.216,0.401-9.344-3.814-11.452c-4.207-2.099-9.335-0.401-11.452,3.814
				l-6.174,12.348h-13.266c-2.576-7.26-8.338-13.023-15.598-15.598v-13.266l12.348-6.174c4.215-2.108,5.922-7.236,3.814-11.452
				c-2.108-4.215-7.236-5.931-11.452-3.814l-4.71,2.355v-3.251c0-4.71-3.823-8.533-8.533-8.533s-8.533,3.823-8.533,8.533v3.26
				l-4.71-2.355c-4.233-2.116-9.344-0.401-11.452,3.814c-2.108,4.215-0.401,9.344,3.814,11.452l12.348,6.174v13.257
				c-7.26,2.576-13.023,8.338-15.598,15.598h-13.261l-6.178-12.356c-2.108-4.207-7.219-5.931-11.452-3.814
				c-4.215,2.108-5.922,7.236-3.814,11.452l2.359,4.719h-3.255c-4.71,0-8.533,3.823-8.533,8.533c0,4.71,3.823,8.533,8.533,8.533
				h3.264l-2.359,4.719c-2.108,4.215-0.401,9.344,3.814,11.452c1.22,0.606,2.526,0.896,3.806,0.896c3.132,0,6.144-1.724,7.646-4.71
				l6.178-12.356h13.253c2.576,7.26,8.338,13.023,15.598,15.598v13.253l-12.356,6.178c-4.216,2.108-5.922,7.236-3.814,11.452
				c1.502,2.995,4.514,4.719,7.646,4.719c1.28,0,2.586-0.29,3.806-0.905l4.719-2.359v3.264c0,4.71,3.823,8.533,8.533,8.533
				S255,221.31,255,216.6v-3.255l4.719,2.359c1.22,0.606,2.526,0.896,3.806,0.896c3.132,0,6.144-1.724,7.646-4.71
				c2.108-4.216,0.401-9.344-3.814-11.452L255,194.26v-13.261c7.26-2.576,13.023-8.338,15.598-15.598h13.257l6.174,12.348
				c1.502,2.995,4.514,4.719,7.646,4.719c1.28,0,2.586-0.29,3.806-0.905c4.215-2.108,5.922-7.236,3.814-11.452l-2.355-4.71h3.26
				c4.719,0,8.533-3.823,8.533-8.533C314.733,152.156,310.919,148.333,306.2,148.333z M246.467,165.4
				c-4.702,0-8.533-3.831-8.533-8.533c0-4.702,3.831-8.533,8.533-8.533c4.702,0,8.533,3.831,8.533,8.533
				C255,161.569,251.169,165.4,246.467,165.4z"/>
		</g>
	</g>
</g>
<g>
</g>
<g>
</g>
<g>
</g>
<g>
</g>
<g>
</g>
<g>
</g>
<g>
</g>
<g>
</g>
<g>
</g>
<g>
</g>
<g>
</g>
<g>
</g>
<g>
</g>
<g>
</g>
<g>
</g>
</svg>
