<?xml version="1.0" encoding="iso-8859-1"?>
<!-- Generator: Adobe Illustrator 19.0.0, SVG Export Plug-In . SVG Version: 6.00 Build 0)  -->
<svg version="1.1" id="Capa_1" xmlns="http://www.w3.org/2000/svg" xmlns:xlink="http://www.w3.org/1999/xlink" x="0px" y="0px"
	 viewBox="0 0 512 512" style="enable-background:new 0 0 512 512;" xml:space="preserve">
<g transform="translate(1 1)">
	<g>
		<g>
			<path d="M468.333,75.8H41.667C18.14,75.8-1,94.94-1,118.467V357.4c0,23.526,19.14,42.667,42.667,42.667v8.533
				c0,14.114,11.486,25.6,25.6,25.6h17.067c14.114,0,25.6-11.486,25.6-25.6v-8.533h290.133v8.533c0,14.114,11.486,25.6,25.6,25.6
				h17.067c14.114,0,25.6-11.486,25.6-25.6v-8.533c23.526,0,42.667-19.14,42.667-42.667V118.467C511,94.94,491.86,75.8,468.333,75.8
				z M16.067,357.4V118.467c0-14.114,11.486-25.6,25.6-25.6h247.467V383H101.4H50.2h-8.533C27.553,383,16.067,371.514,16.067,357.4z
				 M92.867,408.6c0,4.71-3.831,8.533-8.533,8.533H67.267c-4.702,0-8.533-3.823-8.533-8.533v-8.533h34.133V408.6z M451.267,408.6
				c0,4.71-3.823,8.533-8.533,8.533h-17.067c-4.71,0-8.533-3.823-8.533-8.533v-8.533h34.133V408.6z M493.933,357.4
				c0,14.114-11.486,25.6-25.6,25.6H459.8h-51.2H306.2V92.867h162.133c14.114,0,25.6,11.486,25.6,25.6V357.4z"/>
			<path d="M74.162,316.372c0.234,0.234,0.48,0.447,0.732,0.648c20.03,19.684,47.473,31.847,77.706,31.847
				c30.209,0,57.631-12.144,77.657-31.799c0.273-0.212,0.539-0.437,0.79-0.687c0.255-0.255,0.484-0.526,0.701-0.804
				c19.647-20.024,31.786-47.441,31.786-77.643s-12.138-57.619-31.786-77.643c-0.216-0.278-0.445-0.549-0.701-0.804
				c-0.255-0.255-0.526-0.484-0.804-0.701C210.219,139.138,182.802,127,152.6,127c-30.233,0-57.675,12.163-77.705,31.846
				c-0.253,0.201-0.5,0.415-0.734,0.649c-0.234,0.234-0.448,0.481-0.649,0.734c-19.683,20.03-31.846,47.472-31.846,77.705
				s12.163,57.675,31.846,77.705C73.714,315.891,73.927,316.138,74.162,316.372z M80.501,177.901l51.5,51.5H59.125
				C60.89,209.916,68.631,192.132,80.501,177.901z M246.075,229.4h-72.875l51.5-51.5C236.569,192.132,244.31,209.916,246.075,229.4z
				 M224.699,297.966l-51.5-51.5h72.875C244.31,265.951,236.569,283.735,224.699,297.966z M144.067,331.408
				c-19.484-1.765-37.268-9.506-51.499-21.376l51.499-51.499V331.408z M161.133,258.533l51.499,51.499
				c-14.231,11.87-32.016,19.611-51.499,21.376V258.533z M161.133,217.334v-72.875c19.484,1.765,37.268,9.506,51.5,21.376
				L161.133,217.334z M144.067,217.334l-51.5-51.5c14.231-11.87,32.016-19.611,51.5-21.376V217.334z M132.001,246.467l-51.5,51.5
				c-11.87-14.231-19.611-32.016-21.376-51.5H132.001z"/>
			<path d="M331.8,152.6h136.533c4.719,0,8.533-3.823,8.533-8.533c0-4.71-3.814-8.533-8.533-8.533H331.8
				c-4.719,0-8.533,3.823-8.533,8.533C323.267,148.777,327.081,152.6,331.8,152.6z"/>
			<path d="M331.8,186.733h136.533c4.719,0,8.533-3.823,8.533-8.533s-3.814-8.533-8.533-8.533H331.8
				c-4.719,0-8.533,3.823-8.533,8.533S327.081,186.733,331.8,186.733z"/>
			<path d="M331.8,220.867h136.533c4.719,0,8.533-3.823,8.533-8.533c0-4.71-3.814-8.533-8.533-8.533H331.8
				c-4.719,0-8.533,3.823-8.533,8.533C323.267,217.044,327.081,220.867,331.8,220.867z"/>
			<path d="M331.8,255h136.533c4.719,0,8.533-3.823,8.533-8.533s-3.814-8.533-8.533-8.533H331.8c-4.719,0-8.533,3.823-8.533,8.533
				S327.081,255,331.8,255z"/>
			<path d="M371.523,289.048c-2.773-5.154-8.226-8.448-14.123-8.448s-11.349,3.294-14.123,8.439l-17.843,25.719
				c-2.927,5.112-3.012,11.281-0.256,16.503c2.756,5.197,7.893,8.576,14.438,9.071l36.241-0.026
				c5.862-0.469,11.008-3.857,13.764-9.054c2.756-5.222,2.671-11.383-0.657-17.135L371.523,289.048z M339.847,323.873l17.553-25.25
				l17.783,24.644L339.847,323.873z"/>
			<path d="M460.517,280.6l-36.241,0.026c-5.862,0.469-11.008,3.857-13.764,9.054c-2.756,5.222-2.671,11.383,0.657,17.135
				l17.442,25.071c2.773,5.154,8.226,8.448,14.123,8.448s11.349-3.294,14.123-8.439l17.843-25.719
				c2.927-5.112,3.012-11.281,0.256-16.503C472.199,284.474,467.062,281.095,460.517,280.6z M442.733,322.311l-17.783-24.644
				l35.337-0.606L442.733,322.311z"/>
		</g>
	</g>
</g>
<g>
</g>
<g>
</g>
<g>
</g>
<g>
</g>
<g>
</g>
<g>
</g>
<g>
</g>
<g>
</g>
<g>
</g>
<g>
</g>
<g>
</g>
<g>
</g>
<g>
</g>
<g>
</g>
<g>
</g>
</svg>
