<?xml version="1.0" encoding="iso-8859-1"?>
<!-- Generator: Adobe Illustrator 19.0.0, SVG Export Plug-In . SVG Version: 6.00 Build 0)  -->
<svg version="1.1" id="Capa_1" xmlns="http://www.w3.org/2000/svg" xmlns:xlink="http://www.w3.org/1999/xlink" x="0px" y="0px"
	 viewBox="0 0 512 512" style="enable-background:new 0 0 512 512;" xml:space="preserve">
<g transform="translate(1 1)">
	<g>
		<g>
			<path d="M255,212.333c4.719,0,8.533-3.823,8.533-8.533c0-4.71-3.814-8.533-8.533-8.533h-17.067V178.2
				c0-4.71-3.823-8.533-8.533-8.533s-8.533,3.823-8.533,8.533v153.6c0,4.719,3.823,8.533,8.533,8.533s8.533-3.814,8.533-8.533
				v-17.067H255c4.719,0,8.533-3.814,8.533-8.533s-3.814-8.533-8.533-8.533h-17.067V280.6H255c4.719,0,8.533-3.814,8.533-8.533
				c0-4.719-3.814-8.533-8.533-8.533h-17.067v-17.067H255c4.719,0,8.533-3.823,8.533-8.533S259.719,229.4,255,229.4h-17.067v-17.067
				H255z"/>
			<path d="M255,135.533h-25.6c-23.526,0-42.667,19.14-42.667,42.667v153.6c0,23.526,19.14,42.667,42.667,42.667H255
				c23.526,0,42.667-19.14,42.667-42.667V178.2C297.667,154.674,278.526,135.533,255,135.533z M280.6,331.8
				c0,14.114-11.486,25.6-25.6,25.6h-25.6c-14.114,0-25.6-11.486-25.6-25.6V178.2c0-14.114,11.486-25.6,25.6-25.6H255
				c14.114,0,25.6,11.486,25.6,25.6V331.8z"/>
			<path d="M476.867,280.6V161.133c0-32.939-26.803-59.733-59.733-59.733h-59.561c-2.74-11.774-5.638-23.514-8.706-35.213V50.2
				c0-14.114-11.486-25.6-25.6-25.6h-1.08C318.389,9.893,305.012-1,289.133-1H178.2c-15.879,0-29.256,10.893-33.054,25.6h-1.08
				c-14.114,0-25.6,11.486-25.6,25.6v8.533h-51.2c-3.149,0-6.042,1.732-7.526,4.514c-1.485,2.773-1.323,6.135,0.427,8.755
				l49.118,73.685L33.372,457.786c-0.01,0.043-0.014,0.087-0.024,0.13c-0.042,0.188-0.074,0.379-0.104,0.571
				c-0.018,0.114-0.039,0.228-0.052,0.343c-0.023,0.206-0.033,0.417-0.042,0.627c-0.004,0.096-0.014,0.192-0.014,0.288
				c0,0.019-0.003,0.037-0.003,0.055v8.533C33.133,491.86,52.274,511,75.8,511h273.067c23.526,0,42.667-19.14,42.667-42.667V459.8
				H434.2c14.114,0,25.6-11.486,25.6-25.6s-11.486-25.6-25.6-25.6h-42.667v-11.554c0-7.653-0.074-15.304-0.209-22.953
				C439.195,369.865,476.867,329.549,476.867,280.6z M368.408,152.6h40.167c9.404,0.026,17.067,7.697,17.092,17.067V280.6
				c0,21.347-15.76,39.082-36.255,42.184C386.151,265.664,379.128,208.798,368.408,152.6z M178.2,16.067h110.933
				c6.306,0,11.827,3.439,14.78,8.533H163.429C166.381,19.506,171.894,16.067,178.2,16.067z M135.533,50.2
				c0-4.702,3.831-8.533,8.533-8.533h8.533h162.133h8.533c4.71,0,8.533,3.831,8.533,8.533v8.533H135.533V50.2z M126.761,146.081
				c0.563-2.313,0.128-4.77-1.195-6.75L83.215,75.8H127h206.746c5.884,22.838,11.135,45.826,15.752,68.934
				c0.053,0.686,0.184,1.348,0.389,1.979c12.072,60.92,19.723,122.664,22.893,184.69c-0.006,0.133-0.02,0.263-0.02,0.397
				c0,0.437,0.043,0.863,0.106,1.282c1.06,21.296,1.6,42.624,1.6,63.964v20.087v34.133H52.521L126.761,146.081z M348.867,493.933
				H75.8c-14.114,0-25.6-11.486-25.6-25.6h324.267C374.467,482.448,362.981,493.933,348.867,493.933z M434.2,425.667
				c4.71,0,8.533,3.823,8.533,8.533s-3.823,8.533-8.533,8.533h-42.667v-17.067H434.2z M390.911,356.994
				c-0.176-5.708-0.393-11.414-0.643-17.119c29.514-3.6,52.466-28.806,52.466-59.275V169.641
				c-0.06-18.756-15.36-34.057-34.133-34.108h-43.559c-1.166-5.697-2.373-11.385-3.615-17.067h55.707
				c23.526,0,42.667,19.14,42.667,42.667V280.6C459.8,320.28,429.558,353.022,390.911,356.994z"/>
		</g>
	</g>
</g>
<g>
</g>
<g>
</g>
<g>
</g>
<g>
</g>
<g>
</g>
<g>
</g>
<g>
</g>
<g>
</g>
<g>
</g>
<g>
</g>
<g>
</g>
<g>
</g>
<g>
</g>
<g>
</g>
<g>
</g>
</svg>
