<?xml version="1.0" encoding="iso-8859-1"?>
<!-- Generator: Adobe Illustrator 19.0.0, SVG Export Plug-In . SVG Version: 6.00 Build 0)  -->
<svg version="1.1" id="Capa_1" xmlns="http://www.w3.org/2000/svg" xmlns:xlink="http://www.w3.org/1999/xlink" x="0px" y="0px"
	 viewBox="0 0 512 512" style="enable-background:new 0 0 512 512;" xml:space="preserve">
<g transform="translate(1 1)">
	<g>
		<g>
			<path d="M467.434,498.652l-16.171-32.341v-15.044c0-11.123-7.135-20.608-17.067-24.132v-52.668c0-7.563-3.3-14.368-8.533-19.059
				V118.467c0-31.915-12.425-61.918-34.995-84.471C368.115,11.425,338.111-1,306.197-1h-34.133
				c-31.915,0-61.918,12.425-84.471,34.995c-22.571,22.562-34.995,52.557-34.995,84.471v76.8h-34.133h-0.009
				C85.55,195.292,58.756,222.087,58.73,255v153.6c-9.412,0-17.067,7.654-17.067,17.067v68.267c0,9.412,7.654,17.067,17.067,17.067
				h17.067c9.412,0,17.067-7.654,17.067-17.067v-25.6H263.53v25.6c0,9.412,7.654,17.067,17.067,17.067h17.067
				c9.404,0,17.067-7.654,17.067-17.067v-68.267c0-9.412-7.654-17.067-17.067-17.067V254.991
				c-0.026-32.905-26.829-59.699-59.733-59.725h-34.133v-76.8c0-37.641,30.626-68.267,68.267-68.267h34.133
				c37.641,0,68.267,30.626,68.267,68.267v236.941c-5.233,4.691-8.533,11.496-8.533,19.059v52.668
				c-9.931,3.523-17.067,13.009-17.067,24.132v15.036l-16.171,32.341c-1.323,2.645-1.186,5.786,0.375,8.303S337.369,511,340.33,511
				h119.467c2.961,0,5.7-1.527,7.262-4.045C468.62,504.438,468.757,501.298,467.434,498.652z M382.997,374.467
				c0-4.71,3.823-8.533,8.533-8.533h17.067c4.71,0,8.533,3.823,8.533,8.533v51.2h-34.133V374.467z M126.997,323.267h102.4v25.6
				c0,6.844-2.662,13.269-7.492,18.108c-4.838,4.83-11.264,7.492-18.108,7.492h-51.2c-6.844,0-13.269-2.662-18.099-7.492
				c-4.838-4.838-7.501-11.264-7.501-18.108V323.267z M75.797,493.933H58.73l-0.017-68.267h0.017h17.067V493.933z M297.663,493.933
				h-17.067l-0.008-33.965c0.001-0.057,0.008-0.112,0.008-0.169c0-0.058-0.007-0.113-0.009-0.17l-0.008-33.963h0.017h17.067V493.933
				z M280.597,255v153.6c-9.412,0-17.067,7.654-17.067,17.067v25.6H92.864v-25.6c0-9.412-7.654-17.067-17.067-17.067V255.009
				c0.015-20.595,14.696-37.832,34.133-41.81v135.668c-0.009,11.392,4.429,22.11,12.493,30.174
				c8.055,8.055,18.773,12.493,30.174,12.493h51.2c11.401,0,22.118-4.437,30.174-12.493c8.055-8.064,12.493-18.782,12.493-30.174
				V213.2C265.899,217.183,280.582,234.422,280.597,255z M229.397,212.333V306.2h-102.4v-93.867h25.6V255
				c0,14.114,11.486,25.6,25.6,25.6s25.6-11.486,25.6-25.6v-42.667H229.397z M306.197,33.133h-34.133
				c-47.053,0-85.333,38.281-85.333,85.333V255c0,4.71-3.831,8.533-8.533,8.533c-4.702,0-8.533-3.823-8.533-8.533V118.467
				c0-27.349,10.658-53.06,29.995-72.405s45.056-29.995,72.405-29.995h34.133c27.358,0,53.069,10.65,72.405,29.995
				c19.345,19.337,29.995,45.047,29.995,72.405v230.4H391.53v-230.4C391.53,71.414,353.25,33.133,306.197,33.133z M365.93,451.267
				c0-4.71,3.823-8.533,8.533-8.533h51.2c4.71,0,8.533,3.823,8.533,8.533v8.533H365.93V451.267z M354.137,493.933l8.533-17.067
				h74.786l8.533,17.067H354.137z"/>
			<path d="M169.663,357.4h17.067c4.71,0,8.533-3.814,8.533-8.533s-3.823-8.533-8.533-8.533h-17.067
				c-4.71,0-8.533,3.814-8.533,8.533S164.953,357.4,169.663,357.4z"/>
		</g>
	</g>
</g>
<g>
</g>
<g>
</g>
<g>
</g>
<g>
</g>
<g>
</g>
<g>
</g>
<g>
</g>
<g>
</g>
<g>
</g>
<g>
</g>
<g>
</g>
<g>
</g>
<g>
</g>
<g>
</g>
<g>
</g>
</svg>
