<?xml version="1.0" encoding="iso-8859-1"?>
<!-- Generator: Adobe Illustrator 19.0.0, SVG Export Plug-In . SVG Version: 6.00 Build 0)  -->
<svg version="1.1" id="Capa_1" xmlns="http://www.w3.org/2000/svg" xmlns:xlink="http://www.w3.org/1999/xlink" x="0px" y="0px"
	 viewBox="0 0 512 512" style="enable-background:new 0 0 512 512;" xml:space="preserve">
<g transform="translate(1 1)">
	<g>
		<g>
			<path d="M493.933,127h-25.6c0-37.641-30.626-68.267-68.267-68.267H306.2c0-28.237-22.963-51.2-51.2-51.2s-51.2,22.963-51.2,51.2
				h-93.867c-37.641,0-68.267,30.626-68.267,68.267h-25.6C6.654,127-1,134.654-1,144.067v25.6c0,9.412,7.654,17.067,17.067,17.067
				h17.067v238.933c0,18.825,15.309,34.133,34.133,34.133v17.067c0,14.114,11.486,25.6,25.6,25.6h42.667
				c14.114,0,25.6-11.486,25.6-25.6V459.8h187.733v17.067c0,14.114,11.486,25.6,25.6,25.6h42.667c14.114,0,25.6-11.486,25.6-25.6
				V459.8c18.825,0,34.133-15.309,34.133-34.133V186.733h17.067c9.412,0,17.067-7.654,17.067-17.067v-25.6
				C511,134.654,503.346,127,493.933,127z M255,24.6c18.825,0,34.133,15.309,34.133,34.133h-68.267
				C220.867,39.909,236.175,24.6,255,24.6z M109.933,75.8h290.133c28.237,0,51.2,22.963,51.2,51.2H58.733
				C58.733,98.763,81.697,75.8,109.933,75.8z M144.067,476.867c0,4.71-3.831,8.533-8.533,8.533H92.867
				c-4.702,0-8.533-3.823-8.533-8.533V459.8h51.2h8.533V476.867z M365.933,442.733H357.4H152.6h-8.533v-51.2
				c0-32.93,26.795-59.733,59.733-59.733h102.4c32.93,0,59.733,26.803,59.733,59.733V442.733z M425.667,476.867
				c0,4.71-3.823,8.533-8.533,8.533h-42.667c-4.71,0-8.533-3.823-8.533-8.533V459.8h8.533h51.2V476.867z M459.8,425.667
				c0,9.412-7.654,17.067-17.067,17.067H434.2H383v-51.2c0-42.351-34.449-76.8-76.8-76.8H203.8c-42.342,0-76.8,34.449-76.8,76.8
				v51.2H75.8h-8.533c-9.412,0-17.067-7.654-17.067-17.067V186.733h409.6V425.667z M493.933,169.667h-25.6H41.667h-25.6l-0.009-25.6
				h0.009H50.2h409.6h34.133V169.667z"/>
			<path d="M323.267,367.402V357.4c0-4.719-3.814-8.533-8.533-8.533s-8.533,3.814-8.533,8.533v10.002
				c-9.931,3.523-17.067,13.009-17.067,24.132c0,14.114,11.486,25.6,25.6,25.6s25.6-11.486,25.6-25.6
				C340.333,380.411,333.198,370.925,323.267,367.402z M314.733,400.067c-4.71,0-8.533-3.823-8.533-8.533
				c0-4.71,3.823-8.533,8.533-8.533s8.533,3.823,8.533,8.533C323.267,396.244,319.444,400.067,314.733,400.067z"/>
			<path d="M212.333,272.067H255c4.719,0,8.533-3.814,8.533-8.533S259.719,255,255,255h-42.667c-4.71,0-8.533,3.814-8.533,8.533
				S207.623,272.067,212.333,272.067z"/>
			<path d="M289.133,272.067h8.533c4.719,0,8.533-3.814,8.533-8.533S302.386,255,297.667,255h-8.533
				c-4.719,0-8.533,3.814-8.533,8.533S284.414,272.067,289.133,272.067z"/>
			<path d="M218.365,402.562c1.602-3.342,2.502-7.082,2.502-11.029c0-14.114-11.486-25.6-25.6-25.6s-25.6,11.486-25.6,25.6
				c0,14.114,11.486,25.6,25.6,25.6c3.948,0,7.69-0.9,11.034-2.504l7.074,7.069c1.664,1.664,3.849,2.5,6.033,2.5
				c2.176,0,4.369-0.836,6.033-2.5c3.337-3.337,3.337-8.73,0-12.066L218.365,402.562z M186.733,391.533
				c0-4.71,3.831-8.533,8.533-8.533c4.702,0,8.533,3.823,8.533,8.533c0,4.71-3.831,8.533-8.533,8.533
				C190.565,400.067,186.733,396.244,186.733,391.533z"/>
		</g>
	</g>
</g>
<g>
</g>
<g>
</g>
<g>
</g>
<g>
</g>
<g>
</g>
<g>
</g>
<g>
</g>
<g>
</g>
<g>
</g>
<g>
</g>
<g>
</g>
<g>
</g>
<g>
</g>
<g>
</g>
<g>
</g>
</svg>
