<?xml version="1.0" encoding="iso-8859-1"?>
<!-- Generator: Adobe Illustrator 19.0.0, SVG Export Plug-In . SVG Version: 6.00 Build 0)  -->
<svg version="1.1" id="Capa_1" xmlns="http://www.w3.org/2000/svg" xmlns:xlink="http://www.w3.org/1999/xlink" x="0px" y="0px"
	 viewBox="0 0 512 512" style="enable-background:new 0 0 512 512;" xml:space="preserve">
<g transform="translate(1 1)">
	<g>
		<g>
			<path d="M255.009,357.4c89.301-0.102,162.022-72.823,162.125-162.133c0-89.404-72.73-162.133-162.133-162.133
				S92.867,105.863,92.867,195.267S165.596,357.4,255.009,357.4z M255,50.2c79.992,0,145.067,65.075,145.067,145.058
				c-0.085,79.906-65.169,144.99-145.075,145.075c-79.983-0.009-145.058-65.084-145.058-145.067
				C109.933,115.275,175.009,50.2,255,50.2z"/>
			<path d="M365.933,459.8h-37.461l-5.675-11.025c-9.916-19.797-15.13-41.941-15.061-64.094v-0.418
				c82.599-23.177,143.424-99.148,143.531-188.997C451.267,87.047,363.228-1,255-1C146.78-1,58.733,87.047,58.733,195.267
				c0,89.959,60.834,165.96,143.522,189.058v0.382c0.068,22.118-5.137,44.271-15.002,63.983l-5.724,11.11h-37.463
				c-18.825,0-34.133,15.309-34.133,34.133c0,9.412,7.654,17.067,17.067,17.067h256c9.412,0,17.067-7.654,17.067-17.067
				C400.067,475.109,384.758,459.8,365.933,459.8z M75.8,195.267c0-98.816,80.384-179.2,179.2-179.2
				c98.807,0,179.2,80.384,179.2,179.192c-0.111,98.696-80.512,179.098-179.2,179.208c-14.332,0-28.273-1.702-41.64-4.895
				c-0.327-0.103-0.663-0.182-1.006-0.246C134.062,350.14,75.8,279.383,75.8,195.267z M202.46,456.412
				c10.566-21.091,16.343-44.595,16.819-68.148c11.59,2.14,23.53,3.269,35.73,3.269c12.19-0.014,24.121-1.157,35.704-3.309
				c0.472,23.589,6.244,47.096,16.861,68.282l1.69,3.294H200.728L202.46,456.412z M127,493.933c0-9.412,7.654-17.067,17.067-17.067
				h42.667h136.533h42.667c9.412,0,17.067,7.654,17.067,17.067H127z"/>
			<path d="M195.028,283.527c1.161,0.094,2.321,0.137,3.482,0.137c11.204,0,22.246-4.079,30.754-11.452
				c5.052-4.395,9.045-9.702,11.878-15.795l11.146-24.095c0.844,0.059,1.692,0.099,2.551,0.099c5.563,0,10.836-1.256,15.558-3.49
				l6.449,3.738c2.782,1.613,4.506,4.617,4.514,7.876c0.009,1.126-0.205,2.219-0.614,3.191
				c-8.038,18.739-0.119,40.713,18.193,50.108c5.231,2.543,10.965,3.823,16.7,3.823c4.565,0,9.131-0.811,13.474-2.432
				c9.771-3.686,17.681-11.324,21.734-21.001l11.554-27.955c2.321-5.623,3.524-11.571,3.541-17.741
				c-0.034-18.995-11.392-35.994-28.979-43.307c-6.195-2.534-12.638-3.721-19.439-3.524l-28.709,0.906
				c-2.142-5.454-5.557-10.27-9.882-14.082l0.694-5.171c0.589-4.412,4.386-7.757,8.67-7.774
				c20.19,0.009,37.658-15.394,39.313-35.866c0.666-10.453-3.063-20.821-10.223-28.467c-7.168-7.646-17.28-12.032-27.759-12.032
				h-30.199c-0.017,0-0.026,0-0.043,0c-12.279,0-24.294,4.992-32.964,13.713c-8.798,8.866-13.653,20.634-13.67,33.084
				c-0.043,6.69,1.425,13.431,4.215,19.422l11.464,25.308c-5.899,6.187-9.654,14.43-10.057,23.536l-4.675,3.039
				c-3.703,2.449-8.661,1.766-11.494-1.536c-13.133-15.684-36.343-18.492-52.958-6.289c-8.653,6.596-14.071,16.597-14.891,27.401
				c-0.811,10.027,2.492,20.13,9.071,27.716l19.814,22.946C171.245,276.862,182.851,282.674,195.028,283.527z M254.838,176.476
				c9.359,0,17.186,6.651,19.021,15.473c0.035,0.525,0.114,1.038,0.24,1.535c0.1,0.798,0.169,1.606,0.169,2.431
				c0,10.718-8.713,19.439-19.43,19.439s-19.439-8.721-19.439-19.439C235.399,185.197,244.12,176.476,254.838,176.476z
				 M318.036,198.765c4.378-0.137,8.482,0.64,12.416,2.244c11.162,4.642,18.398,15.471,18.423,27.52
				c-0.017,3.891-0.768,7.663-2.244,11.221l-11.546,27.93c-2.236,5.325-6.613,9.549-12.015,11.588
				c-5.393,2.031-11.469,1.749-16.503-0.683c-10.206-5.231-14.652-17.579-10.112-28.16c1.331-3.174,1.997-6.545,1.971-9.95
				c-0.009-9.267-5.001-17.911-13.022-22.571l-1.022-0.592c3.685-5.077,6.103-11.131,6.766-17.7L318.036,198.765z M238.522,104.958
				c5.478-5.513,13.082-8.67,20.864-8.67c0.009,0,0.017,0,0.026,0h30.199c5.786,0,11.358,2.415,15.317,6.63
				c3.951,4.224,6.007,9.95,5.649,15.565c-0.93,11.409-10.786,19.814-22.212,20.036c-12.67,0.058-23.485,9.387-25.524,21.785
				c-2.578-0.579-5.254-0.895-8.003-0.895c-4.169,0-8.173,0.712-11.908,2.005l-10.458-23.082c-1.775-3.797-2.688-8.021-2.662-12.245
				C229.818,118.117,232.916,110.607,238.522,104.958z M151.363,218.238c0.461-5.999,3.456-11.529,8.107-15.078
				c9.25-6.784,22.272-5.214,29.705,3.652c8.262,9.647,22.287,11.801,32.972,5.323c3.083,6.189,7.866,11.388,13.742,14.971
				l-10.234,22.125c-1.809,3.883-4.369,7.287-7.595,10.095c-5.956,5.171-13.867,7.765-21.794,7.185
				c-7.714-0.538-15.036-4.215-20.096-10.086l-19.831-22.963C152.728,229.298,150.919,223.768,151.363,218.238z"/>
		</g>
	</g>
</g>
<g>
</g>
<g>
</g>
<g>
</g>
<g>
</g>
<g>
</g>
<g>
</g>
<g>
</g>
<g>
</g>
<g>
</g>
<g>
</g>
<g>
</g>
<g>
</g>
<g>
</g>
<g>
</g>
<g>
</g>
</svg>
