<?xml version="1.0" encoding="iso-8859-1"?>
<!-- Generator: Adobe Illustrator 19.0.0, SVG Export Plug-In . SVG Version: 6.00 Build 0)  -->
<svg version="1.1" id="Capa_1" xmlns="http://www.w3.org/2000/svg" xmlns:xlink="http://www.w3.org/1999/xlink" x="0px" y="0px"
	 viewBox="0 0 512.004 512.004" style="enable-background:new 0 0 512.004 512.004;" xml:space="preserve">
<g transform="translate(1 1)">
	<g>
		<g>
			<path d="M195.269,118.469h-128c-18.825,0-34.133,15.309-34.133,34.133v128c0,18.825,15.309,34.133,34.133,34.133h128
				c18.825,0,34.133-15.309,34.133-34.133v-34.133v-51.2v-42.667C229.402,133.778,214.093,118.469,195.269,118.469z
				 M195.269,297.669h-128c-9.412,0-17.067-7.654-17.067-17.067v-128c0-9.412,7.654-17.067,17.067-17.067h128
				c9.412,0,17.067,7.654,17.067,17.067v34.133h-24.469c-12.651-24.001-39.156-37.546-66.403-33.323
				c-29.175,4.548-51.337,28.271-53.888,57.694c-2.543,29.423,15.198,56.61,43.162,66.108c6.801,2.304,13.773,3.422,20.642,3.413
				c19.818,0,38.853-9.247,51.108-25.626h29.847v25.6C212.336,290.014,204.681,297.669,195.269,297.669z M212.336,237.935h-8.533
				v-34.133h8.533V237.935z M178.202,237.935c-4.702,0-8.533-3.831-8.533-8.533v-17.067c0-4.702,3.831-8.533,8.533-8.533h4.212
				c0.012,0,0.023,0,0.035,0h4.286v34.133H178.202z M163.748,250.516c-12.415,11.926-30.638,16.288-47.523,10.528
				c-20.506-6.963-33.519-26.897-31.65-48.469s18.116-38.963,39.509-42.3c17.503-2.75,34.58,4.55,44.782,18.232
				c-9.51,3.74-16.264,13.009-16.264,23.829v17.067C152.602,238.157,157.024,245.897,163.748,250.516z"/>
			<path d="M101.402,331.802h-51.2c-9.412,0-17.067,7.654-17.067,17.067v25.6c0,9.412,7.654,17.067,17.067,17.067h51.2
				c9.412,0,17.067-7.654,17.067-17.067v-25.6C118.469,339.457,110.814,331.802,101.402,331.802z M101.402,374.469h-51.2
				l-0.009-25.6h0.009h51.2V374.469z"/>
			<path d="M127.002,109.935c14.114,0,25.6-11.486,25.6-25.6s-11.486-25.6-25.6-25.6s-25.6,11.486-25.6,25.6
				S112.888,109.935,127.002,109.935z M127.002,75.802c4.702,0,8.533,3.831,8.533,8.533c0,4.702-3.831,8.533-8.533,8.533
				s-8.533-3.831-8.533-8.533C118.469,79.634,122.3,75.802,127.002,75.802z"/>
			<path d="M178.202,84.335h42.667c4.71,0,8.533-3.823,8.533-8.533s-3.823-8.533-8.533-8.533h-42.667
				c-4.71,0-8.533,3.823-8.533,8.533S173.492,84.335,178.202,84.335z"/>
			<path d="M442.735,118.469h-128c-18.825,0-34.133,15.309-34.133,34.133v42.667v51.2v34.133c0,18.825,15.309,34.133,34.133,34.133
				h128c18.825,0,34.133-15.309,34.133-34.133v-128C476.869,133.778,461.56,118.469,442.735,118.469z M341.135,188.505
				c10.206-13.69,27.279-20.977,44.836-18.282c21.427,3.336,37.692,20.745,39.561,42.342c1.877,21.598-11.162,41.549-31.684,48.521
				c-16.917,5.754-35.173,1.382-47.597-10.567c6.727-4.618,11.151-12.36,11.151-21.117v-17.067
				C357.402,201.514,350.647,192.245,341.135,188.505z M327.556,203.802c0.009,0,0.018,0,0.027,0h4.218
				c4.71,0,8.533,3.831,8.533,8.533v17.067c0,4.702-3.823,8.533-8.533,8.533h-8.533v-34.133H327.556z M306.202,237.935h-8.533
				v-34.133h8.533V237.935z M459.802,280.602c0,9.412-7.654,17.067-17.067,17.067h-128c-9.412,0-17.067-7.654-17.067-17.067v-25.6
				h29.844c12.258,16.404,31.32,25.668,51.172,25.668c6.869,0,13.833-1.109,20.634-3.43c27.998-9.506,45.764-36.71,43.204-66.15
				c-2.543-29.448-24.721-53.188-53.939-57.737c-27.324-4.249-53.81,9.339-66.454,33.382h-24.46v-34.133
				c0-9.412,7.654-17.067,17.067-17.067h128c9.412,0,17.067,7.654,17.067,17.067V280.602z"/>
			<path d="M459.802,331.802h-51.2c-9.412,0-17.067,7.654-17.067,17.067v25.6c0,9.412,7.654,17.067,17.067,17.067h51.2
				c9.412,0,17.067-7.654,17.067-17.067v-25.6C476.869,339.457,469.214,331.802,459.802,331.802z M408.602,374.469v-25.6h51.2
				l0.017,25.6H408.602z"/>
			<path d="M383.002,109.935c14.114,0,25.6-11.486,25.6-25.6s-11.486-25.6-25.6-25.6s-25.6,11.486-25.6,25.6
				S368.888,109.935,383.002,109.935z M383.002,75.802c4.71,0,8.533,3.831,8.533,8.533c0,4.702-3.823,8.533-8.533,8.533
				s-8.533-3.831-8.533-8.533C374.469,79.634,378.292,75.802,383.002,75.802z"/>
			<path d="M289.135,84.335h42.667c4.719,0,8.533-3.823,8.533-8.533s-3.814-8.533-8.533-8.533h-42.667
				c-4.719,0-8.533,3.823-8.533,8.533S284.417,84.335,289.135,84.335z"/>
			<path d="M510.959,40.806c-0.004-0.039-0.012-0.076-0.016-0.114c-0.027-0.237-0.061-0.473-0.108-0.707
				c-0.02-0.101-0.049-0.198-0.073-0.297c-0.04-0.169-0.079-0.339-0.13-0.506c-0.036-0.12-0.082-0.235-0.124-0.353
				c-0.05-0.143-0.098-0.286-0.156-0.426c-0.054-0.13-0.117-0.254-0.177-0.38c-0.058-0.123-0.112-0.247-0.177-0.367
				c-0.078-0.147-0.167-0.287-0.254-0.429c-0.057-0.093-0.109-0.189-0.17-0.28c-0.132-0.198-0.274-0.387-0.422-0.573
				c-0.025-0.031-0.046-0.064-0.071-0.095c-0.192-0.236-0.397-0.461-0.613-0.675L474.369,1.502c-1.596-1.604-3.763-2.5-6.033-2.5
				H255.002H41.669c-2.261,0-4.437,0.896-6.033,2.5L1.502,35.636c-0.198,0.198-0.386,0.407-0.565,0.624
				c-0.089,0.108-0.166,0.221-0.249,0.332c-0.083,0.112-0.169,0.22-0.247,0.336c-0.092,0.138-0.173,0.28-0.257,0.422
				c-0.057,0.097-0.118,0.19-0.171,0.289c-0.082,0.152-0.152,0.309-0.224,0.465c-0.044,0.096-0.093,0.189-0.133,0.287
				c-0.067,0.162-0.123,0.327-0.18,0.492c-0.034,0.098-0.072,0.193-0.102,0.292c-0.055,0.18-0.098,0.363-0.141,0.546
				c-0.02,0.087-0.046,0.172-0.064,0.26c-0.048,0.237-0.082,0.475-0.109,0.714c-0.004,0.037-0.012,0.073-0.016,0.11
				c-0.031,0.302-0.045,0.605-0.044,0.908v460.755c0,4.719,3.823,8.533,8.533,8.533h247.467h247.467
				c4.719,0,8.533-3.814,8.533-8.533V41.715C511.004,41.411,510.989,41.108,510.959,40.806z M331.819,442.735h-34.15v-17.067h34.142
				L331.819,442.735z M340.336,408.602h-51.2h-25.6v-358.4h162.133v42.667c0,4.71,3.814,8.533,8.533,8.533h59.733v307.2H340.336z
				 M178.202,425.669h34.133v17.067h-34.133V425.669z M220.869,408.602h-51.2h-153.6v-307.2h59.733c4.71,0,8.533-3.823,8.533-8.533
				V50.202h162.133v358.4H220.869z M16.069,50.202h51.2v34.133h-51.2V50.202z M493.935,50.202v34.133h-51.2V50.202H493.935z
				 M481.869,33.135H263.535V16.069h201.267L481.869,33.135z M45.202,16.069h201.267v17.067H28.135L45.202,16.069z M16.069,425.669
				h145.067v17.067c0,9.412,7.654,17.067,17.067,17.067h34.133c9.412,0,17.067-7.654,17.067-17.067v-17.067h17.067v68.267h-230.4
				V425.669z M263.535,493.935v-68.267h17.067v17.067c0,9.412,7.654,17.067,17.067,17.067h34.133
				c9.412,0,17.067-7.654,17.067-17.067v-17.067h145.067v68.267H263.535z"/>
		</g>
	</g>
</g>
<g>
</g>
<g>
</g>
<g>
</g>
<g>
</g>
<g>
</g>
<g>
</g>
<g>
</g>
<g>
</g>
<g>
</g>
<g>
</g>
<g>
</g>
<g>
</g>
<g>
</g>
<g>
</g>
<g>
</g>
</svg>
