<?xml version="1.0" encoding="iso-8859-1"?>
<!-- Generator: Adobe Illustrator 19.0.0, SVG Export Plug-In . SVG Version: 6.00 Build 0)  -->
<svg version="1.1" id="Capa_1" xmlns="http://www.w3.org/2000/svg" xmlns:xlink="http://www.w3.org/1999/xlink" x="0px" y="0px"
	 viewBox="0 0 512.001 512.001" style="enable-background:new 0 0 512.001 512.001;" xml:space="preserve">
<g transform="translate(1 1)">
	<g>
		<g>
			<path d="M105.665,186.735c39.995,0,72.532-32.537,72.532-72.532s-32.537-72.532-72.532-72.532s-72.532,32.537-72.532,72.532
				S65.67,186.735,105.665,186.735z M105.665,58.737c30.583,0,55.466,24.883,55.466,55.466s-24.883,55.466-55.466,55.466
				s-55.466-24.883-55.466-55.466S75.082,58.737,105.665,58.737z"/>
			<path d="M105.665,152.602c21.171,0,38.399-17.229,38.399-38.399s-17.229-38.399-38.399-38.399s-38.399,17.229-38.399,38.399
				S84.494,152.602,105.665,152.602z M105.665,92.87c11.759,0,21.333,9.574,21.333,21.333c0,11.759-9.574,21.333-21.333,21.333
				s-21.333-9.574-21.333-21.333C84.332,102.444,93.906,92.87,105.665,92.87z"/>
			<path d="M503.986,37.14c-2.671-12.8-14.541-21.512-27.494-20.266c-15.693,1.476-31.197,4.872-45.96,10.052
				c-11.409,3.834-22.298,8.943-32.523,15.212c-2.888-5.338-8.532-8.982-15.015-9H357.42c-0.017,0-0.034,0-0.051,0
				c-4.902,0-9.373,2.104-12.492,5.407C275.881,14.049,188.83-0.995,145.6-0.995C64.765-0.995-1,50.682-1,114.203
				c0,39.781,26.361,76.909,69.126,97.848L73.088,255h-3.885c-7.27,0.026-14.199,3.14-19.021,8.55
				c-4.83,5.427-7.134,12.663-6.332,19.857l4.693,42.683c1.459,12.987,12.407,22.775,25.463,22.775h9.925l5.495,47.564
				c2.292,19.959,18.056,35.328,37.572,37.495v13.072c0,16.469,13.397,29.866,29.866,29.866c7.057,0,12.8,5.743,12.8,12.8v12.8
				c0,4.719,3.823,8.533,8.533,8.533s8.533-3.823,8.533-8.533v-12.8c0-16.469-13.397-29.866-29.866-29.866
				c-7.057,0-12.8-5.743-12.8-12.8v-12.8h8.533c11.4,0,22.118-4.437,30.173-12.493c8.055-8.064,12.493-18.782,12.493-30.173v-8.533
				c0-4.719-3.823-8.533-8.533-8.533c-9.412,0-17.066-7.654-17.066-17.066c0-9.412,7.654-17.066,17.066-17.066
				c4.71,0,8.533-3.814,8.533-8.533v-25.6c0-2.27-0.896-4.437-2.5-6.042c-1.604-1.596-3.772-2.492-6.033-2.492
				c-0.009,0-0.017,0-0.034,0c-4.557,0-8.832-1.775-12.049-4.992c-3.217-3.226-4.983-7.509-4.983-12.066c0-0.009,0-0.009,0-0.017
				c0-4.565,1.766-8.849,4.992-12.075c3.217-3.217,7.492-4.992,12.04-4.992c0.017,0,0.026,0,0.034,0c2.27,0,4.429-0.896,6.033-2.492
				c1.604-1.604,2.5-3.772,2.5-6.042V225.34c50.842-6.885,101.085-18.841,149.585-35.585c3.131,3.4,7.601,5.513,12.495,5.513
				c0.017,0,0.034,0,0.051,0h25.625c6.463-0.018,12.1-3.659,14.987-9.002c10.217,6.264,21.088,11.354,32.423,15.163
				c14.873,5.222,30.37,8.618,46.045,10.086c0.836,0.085,1.655,0.119,2.483,0.119c12.006,0,22.536-8.405,25.062-20.531
				c4.796-25.326,7.151-51.199,6.972-76.91C511.171,88.484,508.815,62.603,503.986,37.14z M16.066,114.203
				c0-54.117,58.111-98.132,129.534-98.132c42.056,0,127.317,14.84,194.727,38.973V173.27
				c-50.082,17.367-102.077,29.531-154.656,36.138c-0.055,0.007-0.107,0.021-0.162,0.029c-13.239,1.742-26.715,2.719-39.961,2.898
				c-23.156-0.153-45.076-4.507-65.983-13.749C40.401,180.87,16.066,148.539,16.066,114.203z M73.998,331.799
				c-4.36,0-8.013-3.277-8.499-7.595l-4.693-42.683c-0.265-2.398,0.503-4.804,2.116-6.613c1.604-1.801,3.917-2.833,6.306-2.842
				h5.831l6.9,59.732H73.998z M178.197,247.534c-5.862,1.493-11.23,4.54-15.616,8.926c-6.349,6.349-9.992,15.146-9.984,24.14
				c-0.009,8.994,3.635,17.792,9.984,24.14c4.386,4.395,9.753,7.432,15.616,8.934v10.675c-14.703,3.789-25.6,17.177-25.6,33.049
				c0,15.872,10.897,29.26,25.6,33.049v1.084c0,6.835-2.662,13.261-7.492,18.099c-4.838,4.83-11.264,7.492-18.107,7.492h-20.753
				c-0.026,0-0.051,0-0.077,0c-12.996,0-23.91-9.719-25.395-22.656L86.167,219.528c19.097,6.673,38.92,9.992,59.545,9.881
				c10.794-0.145,21.683-0.794,32.486-1.92V247.534z M382.994,178.202h-25.589c-0.004-0.034-0.006-0.068-0.011-0.102V50.241
				c0.002-0.012,0.002-0.024,0.004-0.037l25.596,0.009v6.562v114.857V178.202z M493.925,114.245
				c0.171,24.635-2.074,49.416-6.639,73.522c-0.887,4.267-4.872,7.151-9.19,6.758c-14.319-1.34-28.45-4.437-42.128-9.233
				c-12.783-4.292-24.849-10.359-35.908-18.048V61.143c11.068-7.697,23.133-13.764,36.019-18.09
				c13.568-4.762,27.699-7.859,42.034-9.199c4.378-0.495,8.277,2.492,9.139,6.605c4.599,24.251,6.844,49.04,6.673,73.667
				C493.925,114.169,493.925,114.211,493.925,114.245z"/>
		</g>
	</g>
</g>
<g>
</g>
<g>
</g>
<g>
</g>
<g>
</g>
<g>
</g>
<g>
</g>
<g>
</g>
<g>
</g>
<g>
</g>
<g>
</g>
<g>
</g>
<g>
</g>
<g>
</g>
<g>
</g>
<g>
</g>
</svg>
