<?xml version="1.0" encoding="iso-8859-1"?>
<!-- Generator: Adobe Illustrator 19.0.0, SVG Export Plug-In . SVG Version: 6.00 Build 0)  -->
<svg version="1.1" id="Capa_1" xmlns="http://www.w3.org/2000/svg" xmlns:xlink="http://www.w3.org/1999/xlink" x="0px" y="0px"
	 viewBox="0 0 512 512" style="enable-background:new 0 0 512 512;" xml:space="preserve">
<g transform="translate(1 1)">
	<g>
		<g>
			<path d="M161.133,331.8c37.641,0,68.267-30.626,68.267-68.267c0-37.641-30.626-68.267-68.267-68.267
				c-37.641,0-68.267,30.626-68.267,68.267C92.867,301.174,123.493,331.8,161.133,331.8z M152.6,213.058v50.476
				c0,4.719,3.823,8.533,8.533,8.533c4.71,0,8.533-3.814,8.533-8.533v-50.476c24.186,4.075,42.667,25.147,42.667,50.476
				c0,28.237-22.963,51.2-51.2,51.2c-28.237,0-51.2-22.963-51.2-51.2C109.933,238.205,128.414,217.132,152.6,213.058z"/>
			<path d="M118.467,152.6v17.067c0,4.71,3.823,8.533,8.533,8.533s8.533-3.823,8.533-8.533V152.6c0-4.71-3.823-8.533-8.533-8.533
				S118.467,147.89,118.467,152.6z"/>
			<path d="M161.133,178.2c4.71,0,8.533-3.823,8.533-8.533V152.6c0-4.71-3.823-8.533-8.533-8.533c-4.71,0-8.533,3.823-8.533,8.533
				v17.067C152.6,174.377,156.423,178.2,161.133,178.2z"/>
			<path d="M186.733,152.6v17.067c0,4.71,3.823,8.533,8.533,8.533s8.533-3.823,8.533-8.533V152.6c0-4.71-3.823-8.533-8.533-8.533
				S186.733,147.89,186.733,152.6z"/>
			<path d="M127,348.867c-4.71,0-8.533,3.814-8.533,8.533v17.067c0,4.719,3.823,8.533,8.533,8.533s8.533-3.814,8.533-8.533V357.4
				C135.533,352.681,131.71,348.867,127,348.867z"/>
			<path d="M161.133,348.867c-4.71,0-8.533,3.814-8.533,8.533v17.067c0,4.719,3.823,8.533,8.533,8.533
				c4.71,0,8.533-3.814,8.533-8.533V357.4C169.667,352.681,165.844,348.867,161.133,348.867z"/>
			<path d="M195.267,348.867c-4.71,0-8.533,3.814-8.533,8.533v17.067c0,4.719,3.823,8.533,8.533,8.533s8.533-3.814,8.533-8.533
				V357.4C203.8,352.681,199.977,348.867,195.267,348.867z"/>
			<path d="M118.467,92.867c14.114,0,25.6-11.486,25.6-25.6s-11.486-25.6-25.6-25.6s-25.6,11.486-25.6,25.6
				S104.353,92.867,118.467,92.867z M118.467,58.733c4.702,0,8.533,3.831,8.533,8.533c0,4.702-3.831,8.533-8.533,8.533
				s-8.533-3.831-8.533-8.533C109.933,62.565,113.765,58.733,118.467,58.733z"/>
			<path d="M203.8,92.867c14.114,0,25.6-11.486,25.6-25.6s-11.486-25.6-25.6-25.6s-25.6,11.486-25.6,25.6
				S189.686,92.867,203.8,92.867z M203.8,58.733c4.702,0,8.533,3.831,8.533,8.533c0,4.702-3.831,8.533-8.533,8.533
				c-4.702,0-8.533-3.831-8.533-8.533C195.267,62.565,199.098,58.733,203.8,58.733z"/>
			<path d="M502.467,84.333C502.467,37.281,464.186-1,417.133-1S331.8,37.281,331.8,84.333c0,38.137,25.15,70.505,59.733,81.405
				V229.4v34.133V459.8H246.467v-17.067H255c32.93,0,59.733-26.803,59.733-59.733V7.533c0-4.71-3.814-8.533-8.533-8.533H255H67.267
				h-51.2c-4.71,0-8.533,3.823-8.533,8.533V383c0,30.033,22.291,54.959,51.2,59.114V485.4c0,14.114,11.486,25.6,25.6,25.6
				s25.6-11.486,25.6-25.6v-42.667h85.333v25.6c0,23.526,19.14,42.667,42.667,42.667h162.133c23.526,0,42.667-19.14,42.667-42.667
				v-204.8V229.4v-63.662C477.317,154.838,502.467,122.47,502.467,84.333z M425.667,255H408.6v-17.067h17.067V255z M297.667,383
				c0,20.605-14.682,37.844-34.133,41.808V16.067h34.133V383z M246.467,16.067v409.6H101.4H75.8v-409.6H246.467z M24.6,383V16.067
				h34.133v408.741C39.282,420.844,24.6,403.605,24.6,383z M84.333,493.933c-4.702,0-8.533-3.823-8.533-8.533v-8.533h17.067v8.533
				C92.867,490.11,89.035,493.933,84.333,493.933z M92.867,459.8H75.8v-17.067h17.067V459.8z M400.067,493.933H237.933
				c-14.114,0-25.6-11.486-25.6-25.6v-25.6H229.4V459.8c0,9.412,7.654,17.067,17.067,17.067h145.067
				c9.412,0,17.067-7.654,17.067-17.067V272.067h17.067v196.267C425.667,482.448,414.181,493.933,400.067,493.933z M425.667,220.867
				H408.6v-51.628c2.807,0.28,5.653,0.428,8.533,0.428s5.726-0.148,8.533-0.428V220.867z M417.133,152.6
				c-37.641,0-68.267-30.626-68.267-68.267c0-37.641,30.626-68.267,68.267-68.267c37.641,0,68.267,30.626,68.267,68.267
				C485.4,121.974,454.774,152.6,417.133,152.6z"/>
		</g>
	</g>
</g>
<g>
</g>
<g>
</g>
<g>
</g>
<g>
</g>
<g>
</g>
<g>
</g>
<g>
</g>
<g>
</g>
<g>
</g>
<g>
</g>
<g>
</g>
<g>
</g>
<g>
</g>
<g>
</g>
<g>
</g>
</svg>
