<?xml version="1.0" encoding="iso-8859-1"?>
<!-- Generator: Adobe Illustrator 19.0.0, SVG Export Plug-In . SVG Version: 6.00 Build 0)  -->
<svg version="1.1" id="Capa_1" xmlns="http://www.w3.org/2000/svg" xmlns:xlink="http://www.w3.org/1999/xlink" x="0px" y="0px"
	 viewBox="0 0 512 512" style="enable-background:new 0 0 512 512;" xml:space="preserve">
<g transform="translate(1 1)">
	<g>
		<g>
			<path d="M220.867,101.4c4.71,0,8.533-3.823,8.533-8.533V75.8c0-4.71-3.823-8.533-8.533-8.533c-4.71,0-8.533,3.823-8.533,8.533
				v17.067C212.334,97.577,216.157,101.4,220.867,101.4z"/>
			<path d="M255,101.4c4.71,0,8.533-3.823,8.533-8.533V75.8c0-4.71-3.823-8.533-8.533-8.533s-8.533,3.823-8.533,8.533v17.067
				C246.467,97.577,250.29,101.4,255,101.4z"/>
			<path d="M289.134,101.4c4.719,0,8.533-3.823,8.533-8.533V75.8c0-4.71-3.814-8.533-8.533-8.533S280.6,71.09,280.6,75.8v17.067
				C280.6,97.577,284.415,101.4,289.134,101.4z"/>
			<path d="M314.734,195.267c9.412,0,17.067-7.654,17.067-17.067v-42.667c0-9.412-7.654-17.067-17.067-17.067h-8.489
				c-0.03,0-0.059,0-0.089,0h-42.577c-0.03,0-0.059,0-0.089,0h-68.222c-9.412,0-17.067,7.654-17.067,17.067V178.2
				c0,9.412,7.654,17.067,17.067,17.067H314.734z M285.601,135.533L242.934,178.2H224.4l42.667-42.667H285.601z M314.734,178.2
				h-47.667l42.667-42.667h5V178.2z M195.267,135.533h47.667L200.268,178.2h-5.001l-0.008-42.667H195.267z"/>
			<path d="M212.334,212.333h-17.067c-4.71,0-8.533,3.823-8.533,8.533c0,4.71,3.823,8.533,8.533,8.533h17.067
				c4.71,0,8.533-3.823,8.533-8.533C220.867,216.156,217.044,212.333,212.334,212.333z"/>
			<path d="M212.334,246.467h-17.067c-4.71,0-8.533,3.823-8.533,8.533c0,4.719,3.823,8.533,8.533,8.533h17.067
				c4.71,0,8.533-3.814,8.533-8.533C220.867,250.29,217.044,246.467,212.334,246.467z"/>
			<path d="M212.334,280.6h-17.067c-4.71,0-8.533,3.814-8.533,8.533s3.823,8.533,8.533,8.533h17.067c4.71,0,8.533-3.814,8.533-8.533
				S217.044,280.6,212.334,280.6z"/>
			<path d="M195.267,331.8h17.067c4.71,0,8.533-3.814,8.533-8.533c0-4.719-3.823-8.533-8.533-8.533h-17.067
				c-4.71,0-8.533,3.814-8.533,8.533C186.734,327.986,190.557,331.8,195.267,331.8z"/>
			<path d="M263.534,212.333h-17.067c-4.71,0-8.533,3.823-8.533,8.533c0,4.71,3.823,8.533,8.533,8.533h17.067
				c4.719,0,8.533-3.823,8.533-8.533C272.067,216.156,268.253,212.333,263.534,212.333z"/>
			<path d="M263.534,246.467h-17.067c-4.71,0-8.533,3.823-8.533,8.533c0,4.719,3.823,8.533,8.533,8.533h17.067
				c4.719,0,8.533-3.814,8.533-8.533C272.067,250.29,268.253,246.467,263.534,246.467z"/>
			<path d="M263.534,280.6h-17.067c-4.71,0-8.533,3.814-8.533,8.533s3.823,8.533,8.533,8.533h17.067
				c4.719,0,8.533-3.814,8.533-8.533S268.253,280.6,263.534,280.6z"/>
			<path d="M263.534,314.733h-17.067c-4.71,0-8.533,3.814-8.533,8.533c0,4.719,3.823,8.533,8.533,8.533h17.067
				c4.719,0,8.533-3.814,8.533-8.533C272.067,318.548,268.253,314.733,263.534,314.733z"/>
			<path d="M314.734,212.333h-17.067c-4.719,0-8.533,3.823-8.533,8.533c0,4.71,3.814,8.533,8.533,8.533h17.067
				c4.719,0,8.533-3.823,8.533-8.533C323.267,216.156,319.453,212.333,314.734,212.333z"/>
			<path d="M314.734,246.467h-17.067c-4.719,0-8.533,3.823-8.533,8.533c0,4.719,3.814,8.533,8.533,8.533h17.067
				c4.719,0,8.533-3.814,8.533-8.533C323.267,250.29,319.453,246.467,314.734,246.467z"/>
			<path d="M314.734,280.6h-17.067c-4.719,0-8.533,3.814-8.533,8.533s3.814,8.533,8.533,8.533h17.067
				c4.719,0,8.533-3.814,8.533-8.533S319.453,280.6,314.734,280.6z"/>
			<path d="M314.734,314.733h-17.067c-4.719,0-8.533,3.814-8.533,8.533c0,4.719,3.814,8.533,8.533,8.533h17.067
				c4.719,0,8.533-3.814,8.533-8.533C323.267,318.548,319.453,314.733,314.734,314.733z"/>
			<path d="M438.373,459.22c-10.666-50.122-39.355-93.745-80.973-123.342V109.933c0-22.69-9.9-43.108-25.6-57.181V24.6
				c0-14.114-11.486-25.6-25.6-25.6s-25.6,11.486-25.6,25.6v8.533h-51.2c-42.342,0-76.8,34.458-76.8,76.8v225.945
				c-41.626,29.604-70.315,73.227-80.964,123.325c-2.714,12.663,0.384,25.719,8.508,35.823
				c8.124,10.095,20.207,15.906,33.203,15.974H255h141.696c12.954-0.068,25.045-5.888,33.161-15.974
				C437.972,484.939,441.07,471.875,438.373,459.22z M297.667,24.6c0-4.702,3.823-8.533,8.533-8.533s8.533,3.831,8.533,8.533v16.563
				c-5.365-2.674-11.084-4.731-17.067-6.094V24.6z M169.667,109.933c0-32.939,26.795-59.733,59.733-59.733h51.2
				c32.93,0,59.733,26.795,59.733,59.733v264.533c0,32.93-26.803,59.733-59.733,59.733h-51.2c-32.939,0-59.733-26.803-59.733-59.733
				V109.933z M416.553,484.325c-4.873,6.067-12.151,9.566-19.9,9.609H255c-0.057,0-0.112,0.007-0.169,0.009H113.39
				c-7.791-0.043-15.061-3.541-19.942-9.609c-4.89-6.076-6.758-13.918-5.12-21.555c8.893-41.824,31.493-78.703,64.273-105.444
				v17.133c0,42.351,34.458,76.8,76.8,76.8h51.2c42.351,0,76.8-34.449,76.8-76.8v-17.133
				c32.773,26.735,55.374,63.614,64.282,105.445C423.303,470.398,421.435,478.258,416.553,484.325z"/>
		</g>
	</g>
</g>
<g>
</g>
<g>
</g>
<g>
</g>
<g>
</g>
<g>
</g>
<g>
</g>
<g>
</g>
<g>
</g>
<g>
</g>
<g>
</g>
<g>
</g>
<g>
</g>
<g>
</g>
<g>
</g>
<g>
</g>
</svg>
