<?xml version="1.0" encoding="iso-8859-1"?>
<!-- Generator: Adobe Illustrator 19.0.0, SVG Export Plug-In . SVG Version: 6.00 Build 0)  -->
<svg version="1.1" id="Capa_1" xmlns="http://www.w3.org/2000/svg" xmlns:xlink="http://www.w3.org/1999/xlink" x="0px" y="0px"
	 viewBox="0 0 512 512" style="enable-background:new 0 0 512 512;" xml:space="preserve">
<g transform="translate(1 1)">
	<g>
		<g>
			<path d="M485.4,400.067h-25.6v-230.4c0-11.401-4.437-22.118-12.493-30.174C439.243,131.437,428.534,127,417.15,127
				c0,0-0.008,0-0.017,0H383c-9.412,0-17.067-7.654-17.067-17.067c0-9.412,7.654-17.067,17.067-17.067h4.284
				c25.822-0.043,46.874-21.086,46.916-46.925c0.017-12.356-4.983-24.465-13.73-33.212C411.621,3.873,399.845-1,387.326-1
				c-0.017,0-0.043,0-0.06,0H63C37.118-1,16.067,20.052,16.067,45.933S37.118,92.867,63,92.867h4.267
				c9.412,0,17.067,7.654,17.067,17.067c0,9.412-7.654,17.067-17.067,17.067h-25.6c0,0-0.009,0-0.017,0
				c-11.392,0-22.101,4.437-30.157,12.493C3.437,147.557-1,158.275-1,169.667v281.626c0.043,14.063,11.52,25.54,25.6,25.574v8.533
				c0,14.114,11.486,25.6,25.6,25.6h34.133c14.114,0,25.6-11.486,25.6-25.6v-8.533H357.4v8.533c0,14.114,11.486,25.6,25.6,25.6
				h34.133c14.114,0,25.6-11.486,25.6-25.6v-10.018c9.905-3.537,17.04-13.013,17.067-24.115h25.6c14.114,0,25.6-11.486,25.6-25.6
				S499.514,400.067,485.4,400.067z M67.267,75.8H63c-16.469,0-29.867-13.397-29.867-29.867c0-16.469,13.397-29.867,29.867-29.867
				h324.275c0.017,0,0.026,0,0.043,0c7.962,0,15.445,3.098,21.086,8.738c5.641,5.641,8.747,13.141,8.73,21.12
				c-0.026,16.444-13.431,29.85-29.867,29.875H383c-18.825,0-34.133,15.309-34.133,34.133c0,6.212,1.664,12.041,4.582,17.067H96.818
				c2.918-5.026,4.582-10.854,4.582-17.067C101.4,91.109,86.091,75.8,67.267,75.8z M92.867,485.4c0,4.71-3.831,8.533-8.533,8.533
				H50.2c-4.702,0-8.533-3.823-8.533-8.533v-8.533h51.2V485.4z M425.667,485.4c0,4.71-3.823,8.533-8.533,8.533H383
				c-4.71,0-8.533-3.823-8.533-8.533v-8.533h51.2V485.4z M442.733,451.241c-0.008,4.71-3.849,8.55-8.533,8.559h-68.267H101.4H33.133
				h-8.516c-4.693-0.009-8.542-3.849-8.55-8.533v-281.6c0-6.844,2.662-13.269,7.501-18.108c4.83-4.83,11.255-7.492,18.091-7.492
				h0.009h25.6H383h34.133c0.009,0,0.009,0,0.017,0c6.827,0,13.261,2.654,18.091,7.492c4.83,4.838,7.492,11.264,7.492,18.108V408.6
				v34.133V451.241z M485.4,434.2h-25.6v-17.067h25.6c4.71,0,8.533,3.823,8.533,8.533S490.11,434.2,485.4,434.2z"/>
			<path d="M340.333,306.2c-28.237,0-51.2,22.963-51.2,51.2c0,28.237,22.963,51.2,51.2,51.2c28.237,0,51.2-22.963,51.2-51.2
				C391.533,329.163,368.57,306.2,340.333,306.2z M340.333,391.533c-18.825,0-34.133-15.309-34.133-34.133
				s15.309-34.133,34.133-34.133c18.825,0,34.133,15.309,34.133,34.133S359.158,391.533,340.333,391.533z"/>
		</g>
	</g>
</g>
<g>
</g>
<g>
</g>
<g>
</g>
<g>
</g>
<g>
</g>
<g>
</g>
<g>
</g>
<g>
</g>
<g>
</g>
<g>
</g>
<g>
</g>
<g>
</g>
<g>
</g>
<g>
</g>
<g>
</g>
</svg>
