<?xml version="1.0" encoding="iso-8859-1"?>
<!-- Generator: Adobe Illustrator 19.0.0, SVG Export Plug-In . SVG Version: 6.00 Build 0)  -->
<svg version="1.1" id="Capa_1" xmlns="http://www.w3.org/2000/svg" xmlns:xlink="http://www.w3.org/1999/xlink" x="0px" y="0px"
	 viewBox="0 0 512 512" style="enable-background:new 0 0 512 512;" xml:space="preserve">
<g transform="translate(1 1)">
	<g>
		<g>
			<path d="M407.599,432.24l26.543-253.069c0.036-0.319,0.059-0.642,0.059-0.971c0-98.816-80.393-179.2-179.2-179.2
				C156.211-1,75.844,79.342,75.802,178.123c-0.003,0.321,0.009,0.642,0.042,0.965l26.555,253.172
				c-0.145,0.624-0.23,1.272-0.23,1.941c0,1.296,0.297,2.519,0.813,3.619l5.297,50.5C109.738,501.246,120.644,511,133.657,511
				h121.344h121.344c13.013,0,23.919-9.754,25.378-22.741l5.288-50.419c0.522-1.105,0.822-2.335,0.822-3.64
				C407.833,433.524,407.747,432.87,407.599,432.24z M255.001,16.067c86.537,0,157.457,68.156,161.911,153.6H255.001H93.09
				C97.544,84.222,168.465,16.067,255.001,16.067z M255.001,186.733h161.195l-25.064,238.933h-25.197V357.4
				c0-56.465-45.935-102.4-102.4-102.4c-56.465,0-102.4,45.935-102.4,102.4v68.267h-42.269L93.807,186.733H255.001z M212.326,408.6
				h17.075h68.267h17.067v17.067h-102.4L212.326,408.6z M289.135,391.533h-51.2v-25.6c0-4.71,3.831-8.533,8.533-8.533h34.133
				c4.71,0,8.533,3.823,8.533,8.533V391.533z M314.735,391.533h-8.533v-25.6c0-14.114-11.486-25.6-25.6-25.6h-34.133
				c-14.114,0-25.6,11.486-25.6,25.6v25.6h-8.533c-9.412,0-17.067,7.654-17.067,17.067v17.067h-17.067V357.4
				c0-47.053,38.281-85.333,85.333-85.333s85.333,38.281,85.333,85.333v68.267h-17.067V408.6
				C331.801,399.188,324.147,391.533,314.735,391.533z M376.345,493.933H255.001H133.657c-4.318,0-7.936-3.234-8.414-7.458
				l-4.588-43.742h49.012h34.133h119.467h34.133h31.94l-4.582,43.682C384.29,490.699,380.663,493.933,376.345,493.933z"/>
			<path d="M331.801,84.333c0-28.706-33.732-51.2-76.8-51.2s-76.8,22.494-76.8,51.2c0,28.706,33.732,51.2,76.8,51.2
				S331.801,113.039,331.801,84.333z M255.001,50.2c27.241,0,50.925,11.069,57.754,25.6H197.248
				C204.076,61.269,227.76,50.2,255.001,50.2z M197.248,92.867h115.507c-6.828,14.531-30.512,25.6-57.754,25.6
				S204.076,107.398,197.248,92.867z"/>
		</g>
	</g>
</g>
<g>
</g>
<g>
</g>
<g>
</g>
<g>
</g>
<g>
</g>
<g>
</g>
<g>
</g>
<g>
</g>
<g>
</g>
<g>
</g>
<g>
</g>
<g>
</g>
<g>
</g>
<g>
</g>
<g>
</g>
</svg>
