<?xml version="1.0" encoding="iso-8859-1"?>
<!-- Generator: Adobe Illustrator 19.0.0, SVG Export Plug-In . SVG Version: 6.00 Build 0)  -->
<svg version="1.1" id="Capa_1" xmlns="http://www.w3.org/2000/svg" xmlns:xlink="http://www.w3.org/1999/xlink" x="0px" y="0px"
	 viewBox="0 0 512 512" style="enable-background:new 0 0 512 512;" xml:space="preserve">
<g transform="translate(1 1)">
	<g>
		<path d="M418.093,486.347l-65.408-131.772c-1.835-3.729-4.548-6.921-7.91-9.301c-0.01-0.009-0.022-0.016-0.032-0.024
			c-0.48-0.418-1.003-0.788-1.569-1.091c-3.458-2.137-7.336-3.416-11.369-3.738v-25.056l34.031-221.201
			c0.006-0.041,0.007-0.082,0.012-0.123c0.028-0.203,0.048-0.408,0.062-0.615c0.008-0.114,0.014-0.227,0.017-0.341
			c0.002-0.073,0.011-0.145,0.011-0.218V58.733c0-14.114-11.486-25.6-25.6-25.6h-42.667V24.6c0-14.114-11.486-25.6-25.6-25.6
			h-34.133c-14.114,0-25.6,11.486-25.6,25.6v8.533h-42.667c-14.114,0-25.6,11.486-25.6,25.6v34.133c0,0.091,0.011,0.179,0.014,0.269
			c0.002,0.081,0.007,0.162,0.012,0.243c0.013,0.225,0.034,0.446,0.065,0.666c0.005,0.04,0.006,0.079,0.012,0.119l34.031,221.201
			v25.056c-8.945,0.704-16.827,5.983-20.873,14.138l-65.425,131.78c-2.645,5.316-2.364,11.511,0.777,16.597
			c3.14,5.043,8.559,8.064,14.507,8.064h45.414h204.8h45.414c5.862,0,11.418-3.098,14.498-8.081
			C420.448,497.859,420.747,491.655,418.093,486.347z M195.271,323.267h119.467v49.001c-18.743,7.669-39.142,11.368-60.006,10.75
			c-20.22,0.603-40.694-3.082-59.46-10.748V323.267z M248.485,289.133h6.519h6.519c3.26,0,6.187,1.809,7.629,4.71l6.176,12.356
			h-40.653l6.172-12.348C242.306,290.942,245.233,289.133,248.485,289.133z M229.404,24.6c0-4.702,3.831-8.533,8.533-8.533h34.133
			c4.71,0,8.533,3.831,8.533,8.533v8.533h-51.2V24.6z M161.137,58.733c0-4.702,3.831-8.533,8.533-8.533h51.2h68.267h51.2
			c4.71,0,8.533,3.831,8.533,8.533v25.6h-51.2h-85.333h-51.2V58.733z M280.604,101.4l-10.24,13.653
			c-1.613,2.142-4.156,3.413-6.827,3.413h-17.067c-2.671,0-5.222-1.28-6.827-3.413l-10.24-13.653H280.604z M208.07,101.4
			l17.921,23.902c4.813,6.409,12.467,10.231,20.48,10.231h17.067c8.013,0,15.667-3.823,20.48-10.24l17.92-23.893h45.517
			l-31.505,204.8h-21.533l-9.989-19.985c-4.067-8.118-11.95-13.376-20.894-14.065c0-0.028,0.004-0.055,0.004-0.083v-8.414h25.6
			c4.719,0,8.533-3.823,8.533-8.533c0-4.71-3.814-8.533-8.533-8.533h-25.6v-0.119c0-4.71-3.823-8.533-8.533-8.533
			c-4.71,0-8.533,3.823-8.533,8.533v0.119h-25.6c-4.71,0-8.533,3.823-8.533,8.533c0,4.719,3.823,8.533,8.533,8.533h25.6v8.414
			c0,0.028,0.004,0.055,0.004,0.083c-8.944,0.69-16.826,5.948-20.885,14.065l-9.989,19.985h-21.542l-31.514-204.8H208.07z
			 M165.728,493.933l24.303-54.664c1.374-3.081,4.429-5.069,7.799-5.069h114.355c3.362,0,6.417,1.988,7.782,5.069l24.303,54.664
			H165.728z M362.958,493.933l-27.391-61.602c-4.105-9.233-13.278-15.198-23.381-15.198H197.831
			c-10.112,0-19.294,5.965-23.39,15.198l-27.375,61.602H107.19l65.425-131.797c1.138-2.288,3.188-3.884,5.589-4.474v19.965
			c-0.001,0.043,0.001,0.086,0,0.13v0.123c0,0.034,0.005,0.066,0.005,0.099c0.003,0.237,0.013,0.472,0.036,0.707
			c0.007,0.071,0.017,0.141,0.025,0.212c0.024,0.201,0.053,0.401,0.091,0.6c0.018,0.096,0.041,0.19,0.063,0.285
			c0.039,0.17,0.081,0.34,0.13,0.507c0.032,0.107,0.067,0.213,0.102,0.318c0.052,0.155,0.107,0.308,0.168,0.46
			c0.042,0.104,0.086,0.205,0.132,0.307c0.069,0.153,0.141,0.304,0.218,0.453c0.047,0.089,0.095,0.176,0.145,0.264
			c0.09,0.158,0.183,0.313,0.283,0.466c0.045,0.069,0.092,0.136,0.139,0.204c0.114,0.164,0.233,0.323,0.358,0.479
			c0.041,0.051,0.084,0.101,0.126,0.151c0.136,0.161,0.278,0.318,0.427,0.47c0.041,0.042,0.083,0.082,0.125,0.123
			c0.153,0.149,0.311,0.294,0.476,0.432c0.049,0.041,0.1,0.081,0.15,0.121c0.16,0.128,0.323,0.252,0.494,0.369
			c0.068,0.047,0.138,0.09,0.207,0.135c0.159,0.102,0.319,0.202,0.487,0.295c0.089,0.049,0.18,0.094,0.27,0.14
			c0.114,0.058,0.223,0.123,0.341,0.177c20.949,9.515,44.023,14.49,66.611,14.49c1.638,0,3.285-0.026,4.915-0.085
			c24.653,0.853,49.596-4.198,72.073-14.404c0.103-0.047,0.198-0.104,0.299-0.154c0.112-0.056,0.224-0.111,0.332-0.172
			c0.148-0.082,0.289-0.171,0.43-0.261c0.089-0.057,0.178-0.113,0.265-0.173c0.15-0.104,0.294-0.213,0.435-0.326
			c0.072-0.057,0.143-0.113,0.213-0.172c0.142-0.12,0.278-0.245,0.41-0.373c0.066-0.063,0.132-0.127,0.195-0.192
			c0.123-0.127,0.241-0.258,0.356-0.391c0.068-0.079,0.135-0.159,0.201-0.24c0.099-0.124,0.193-0.251,0.284-0.38
			c0.073-0.102,0.144-0.206,0.212-0.312c0.073-0.114,0.143-0.23,0.211-0.347c0.074-0.128,0.146-0.257,0.214-0.389
			c0.053-0.104,0.102-0.208,0.151-0.314c0.068-0.148,0.134-0.297,0.194-0.45c0.04-0.101,0.076-0.202,0.111-0.305
			c0.055-0.157,0.107-0.314,0.153-0.475c0.032-0.111,0.059-0.223,0.086-0.335c0.036-0.151,0.072-0.302,0.1-0.456
			c0.025-0.135,0.043-0.271,0.062-0.407c0.018-0.135,0.037-0.269,0.049-0.405c0.014-0.159,0.019-0.319,0.024-0.48
			c0.003-0.089,0.013-0.175,0.013-0.265v-20.227c0.692,0.173,1.362,0.432,1.997,0.78c0.247,0.188,0.503,0.367,0.768,0.538
			c1.203,0.768,2.176,1.852,2.825,3.166l65.425,131.797H362.958z"/>
	</g>
</g>
<g>
</g>
<g>
</g>
<g>
</g>
<g>
</g>
<g>
</g>
<g>
</g>
<g>
</g>
<g>
</g>
<g>
</g>
<g>
</g>
<g>
</g>
<g>
</g>
<g>
</g>
<g>
</g>
<g>
</g>
</svg>
