<?xml version="1.0" encoding="iso-8859-1"?>
<!-- Generator: Adobe Illustrator 19.0.0, SVG Export Plug-In . SVG Version: 6.00 Build 0)  -->
<svg version="1.1" id="Capa_1" xmlns="http://www.w3.org/2000/svg" xmlns:xlink="http://www.w3.org/1999/xlink" x="0px" y="0px"
	 viewBox="0 0 512 512" style="enable-background:new 0 0 512 512;" xml:space="preserve">
<g transform="translate(1 1)">
	<g>
		<g>
			<path d="M416.99,297.778c-2.526-2.862-5.646-5.066-9.078-6.535L377.08,29.148C375.049,11.962,360.482-1,343.177-1H166.835
				c-17.306,0-31.881,12.962-33.894,30.148l-30.815,261.944c-3.454,1.507-6.572,3.805-9.112,6.685
				c-4.89,5.513-7.151,12.86-6.221,20.147l20.395,163.183c2.167,17.007,16.734,29.858,33.894,29.892H368.93
				c17.152-0.034,31.71-12.885,33.886-29.918l20.395-163.14C424.133,310.637,421.863,303.29,416.99,297.778z M149.888,31.137
				c1.007-8.593,8.294-15.07,16.947-15.07h176.333c8.653,0,15.949,6.477,16.956,15.07l30.35,257.997h-17.207l-28.349-240.93
				c-1.015-8.593-8.294-15.07-16.947-15.07H182.033c-8.644,0-15.932,6.477-16.947,15.078l-28.349,240.922h-17.199L149.888,31.137z
				 M161.135,297.667c0-4.273-3.138-7.794-7.229-8.423l0.013-0.11h41.349V306.2h-33.741
				C161.273,303.388,161.135,300.543,161.135,297.667z M212.335,289.133h17.067V306.2h-17.067V289.133z M338.011,135.533h-23.276
				v-17.067h21.268L338.011,135.533z M350.06,237.933h-35.325v-17.067h33.316L350.06,237.933z M297.669,237.933h-17.067v-17.067
				h17.067V237.933z M246.469,272.067V255h17.067v17.067H246.469z M263.535,289.133V306.2h-17.067v-17.067H263.535z M263.535,152.6
				v17.067h-17.067V152.6H263.535z M246.469,135.533v-17.067h17.067v17.067H246.469z M263.535,186.733V203.8h-17.067v-17.067
				H263.535z M263.535,220.867v17.067h-17.067v-17.067H263.535z M280.602,255h17.067v17.067h-17.067V255z M280.602,203.8v-17.067
				h17.067V203.8H280.602z M280.602,169.667V152.6h17.067v17.067H280.602z M280.602,135.533v-17.067h17.067v17.067H280.602z
				 M333.995,101.4h-19.26V84.333h17.251L333.995,101.4z M297.669,101.4h-17.067V84.333h17.067V101.4z M263.535,101.4h-17.067
				V84.333h17.067V101.4z M229.402,101.4h-17.067V84.333h17.067V101.4z M229.402,118.467v17.067h-17.067v-17.067H229.402z
				 M229.402,152.6v17.067h-17.067V152.6H229.402z M229.402,186.733V203.8h-17.067v-17.067H229.402z M229.402,220.867v17.067
				h-17.067v-17.067H229.402z M229.402,255v17.067h-17.067V255H229.402z M229.402,323.267v17.067h-17.067v-17.067H229.402z
				 M246.469,323.267h17.067v17.067h-17.067V323.267z M280.602,323.267h17.067v17.067h-17.067V323.267z M280.602,306.2v-17.067
				h17.067V306.2H280.602z M314.735,289.133h41.349l0.013,0.11c-4.096,0.628-7.228,4.15-7.228,8.424
				c0,2.877-0.137,5.722-0.392,8.533h-33.741V289.133z M314.735,272.067V255h37.333l2.008,17.067H314.735z M314.735,203.8v-17.067
				h29.3l2.008,17.067H314.735z M314.735,169.667V152.6h25.284l2.008,17.067H314.735z M314.735,67.267V50.2h13.235l2.008,17.067
				H314.735z M297.669,67.267h-17.067V50.2h17.067V67.267z M263.535,67.267h-17.067V50.2h17.067V67.267z M229.402,67.267h-17.067
				V50.2h17.067V67.267z M195.268,67.267h-15.243l2.008-17.067h13.235V67.267z M178.017,84.333h17.251V101.4h-19.26L178.017,84.333z
				 M174.001,118.467h21.268v17.067h-23.276L174.001,118.467z M169.985,152.6h25.284v17.067h-27.292L169.985,152.6z
				 M165.968,186.733h29.3V203.8H163.96L165.968,186.733z M161.952,220.867h33.316v17.067h-35.325L161.952,220.867z M157.936,255
				h37.333v17.067h-39.341L157.936,255z M195.268,323.267v17.067h-23.862c-2.772-5.408-5.033-11.118-6.722-17.067H195.268z
				 M195.268,357.4v12.619c-4.593-3.799-8.82-8.026-12.619-12.619H195.268z M212.335,357.4h17.067v30.584
				c-5.949-1.689-11.659-3.95-17.067-6.722V357.4z M246.469,357.4h17.067v33.741c-2.812,0.255-5.656,0.392-8.533,0.392
				c-2.877,0-5.722-0.137-8.533-0.392V357.4z M280.602,357.4h17.067v23.864c-5.408,2.771-11.118,5.032-17.067,6.721V357.4z
				 M314.735,357.4h12.622c-3.8,4.594-8.027,8.822-12.622,12.622V357.4z M338.599,340.333h-23.864v-17.067h30.585
				C343.632,329.215,341.37,334.926,338.599,340.333z M406.281,315.809L385.886,478.94c-1.084,8.533-8.388,14.976-16.964,14.993
				H141.107c-8.593-0.017-15.898-6.46-16.981-14.968l-20.395-163.183c-0.316-2.423,0.444-4.864,2.074-6.716
				c1.604-1.826,3.934-2.867,6.409-2.867c0.009,0,0.017,0,0.026,0h32.154c4.372,57.195,52.312,102.4,110.608,102.4
				s106.236-45.205,110.608-102.4h32.18c0.017,0,0.026,0,0.034,0c2.441,0,4.77,1.05,6.391,2.876
				C405.837,310.919,406.588,313.359,406.281,315.809z"/>
			<path d="M280.602,425.667h-51.2c-14.114,0-25.6,11.486-25.6,25.6c0,14.114,11.486,25.6,25.6,25.6h51.2
				c14.123,0,25.6-11.486,25.6-25.6C306.202,437.153,294.716,425.667,280.602,425.667z M280.602,459.8h-51.2
				c-4.702,0-8.533-3.823-8.533-8.533c0-4.71,3.831-8.533,8.533-8.533h51.2c4.71,0,8.533,3.823,8.533,8.533
				C289.135,455.977,285.312,459.8,280.602,459.8z"/>
		</g>
	</g>
</g>
<g>
</g>
<g>
</g>
<g>
</g>
<g>
</g>
<g>
</g>
<g>
</g>
<g>
</g>
<g>
</g>
<g>
</g>
<g>
</g>
<g>
</g>
<g>
</g>
<g>
</g>
<g>
</g>
<g>
</g>
</svg>
