<?xml version="1.0" encoding="iso-8859-1"?>
<!-- Generator: Adobe Illustrator 19.0.0, SVG Export Plug-In . SVG Version: 6.00 Build 0)  -->
<svg version="1.1" id="Capa_1" xmlns="http://www.w3.org/2000/svg" xmlns:xlink="http://www.w3.org/1999/xlink" x="0px" y="0px"
	 viewBox="0 0 512 512" style="enable-background:new 0 0 512 512;" xml:space="preserve">
<g transform="translate(1 1)">
	<g>
		<g>
			<path d="M502.467,376.775V149.912c0-17.417-13.056-32-30.37-33.92l-20.83-2.315v-20.81c0-14.114-11.486-25.6-25.6-25.6H331.8
				c-14.114,0-25.6,11.486-25.6,25.6v4.689l-34.133-3.793v-0.895c0-11.123-7.135-20.608-17.067-24.132V50.2
				c9.412,0,17.067-7.654,17.067-17.067V16.067C272.067,6.654,264.412-1,255-1H33.133c-9.412,0-17.067,7.654-17.067,17.067v17.067
				c0,9.412,7.654,17.067,17.067,17.067v18.535c-9.931,3.523-17.067,13.009-17.067,24.132v281.6C6.654,374.467-1,382.121-1,391.533
				v85.333C-1,495.691,14.309,511,33.133,511h443.733C495.691,511,511,495.691,511,476.867v-85.333
				C511,385.231,507.56,379.731,502.467,376.775z M246.467,84.333c4.702,0,8.533,3.831,8.533,8.533v8.533v261l-19.567-19.567
				c-1.596-1.604-3.772-2.5-6.033-2.5h-42.667V152.6c0-6.302-3.44-11.802-8.533-14.758V84.333H246.467z M161.133,135.533H127v-51.2
				h34.133V135.533z M118.458,152.6h0.009h51.2v187.733h-51.2L118.458,152.6z M109.933,357.4H178.2h47.667l17.067,17.067H45.199
				L62.266,357.4H109.933z M272.067,153.601L485.4,177.305v197.162H272.067V153.601z M323.267,92.867
				c0-4.702,3.823-8.533,8.533-8.533h93.867c4.71,0,8.533,3.831,8.533,8.533v18.914L323.267,99.452V92.867z M313.146,115.498
				c0.391,0.074,0.793,0.115,1.201,0.134l155.872,17.325c8.653,0.956,15.181,8.243,15.181,16.956v10.229l-213.333-23.704v-25.505
				L313.146,115.498z M33.125,16.067h0.009H255v17.067h-17.067H50.2H33.133L33.125,16.067z M237.933,50.2v17.067h-68.267h-51.2H50.2
				L50.191,50.2H237.933z M41.667,84.333h68.267v53.508c-5.093,2.956-8.533,8.456-8.533,14.758v187.733H58.733
				c-2.261,0-4.437,0.896-6.033,2.5l-19.567,19.567V92.867C33.133,88.165,36.965,84.333,41.667,84.333z M16.067,391.533H24.6
				h238.933h230.4V459.8H16.065l-0.007-68.267H16.067z M476.867,493.933H33.133c-9.412,0-17.067-7.654-17.067-17.067h477.867
				C493.933,486.279,486.279,493.933,476.867,493.933z"/>
			<path d="M374.467,263.533c-14.114,0-25.6,11.486-25.6,25.6V331.8c0,14.114,11.486,25.6,25.6,25.6s25.6-11.486,25.6-25.6v-42.667
				C400.067,275.019,388.581,263.533,374.467,263.533z M383,331.8c0,4.71-3.823,8.533-8.533,8.533s-8.533-3.823-8.533-8.533v-42.667
				c0-4.71,3.823-8.533,8.533-8.533s8.533,3.823,8.533,8.533V331.8z"/>
			<path d="M442.733,263.533c-14.114,0-25.6,11.486-25.6,25.6V331.8c0,14.114,11.486,25.6,25.6,25.6s25.6-11.486,25.6-25.6v-42.667
				C468.333,275.019,456.847,263.533,442.733,263.533z M451.267,331.8c0,4.71-3.823,8.533-8.533,8.533s-8.533-3.823-8.533-8.533
				v-42.667c0-4.71,3.823-8.533,8.533-8.533s8.533,3.823,8.533,8.533V331.8z"/>
		</g>
	</g>
</g>
<g>
</g>
<g>
</g>
<g>
</g>
<g>
</g>
<g>
</g>
<g>
</g>
<g>
</g>
<g>
</g>
<g>
</g>
<g>
</g>
<g>
</g>
<g>
</g>
<g>
</g>
<g>
</g>
<g>
</g>
</svg>
