<?xml version="1.0" encoding="iso-8859-1"?>
<!-- Generator: Adobe Illustrator 19.0.0, SVG Export Plug-In . SVG Version: 6.00 Build 0)  -->
<svg version="1.1" id="Capa_1" xmlns="http://www.w3.org/2000/svg" xmlns:xlink="http://www.w3.org/1999/xlink" x="0px" y="0px"
	 viewBox="0 0 512 512" style="enable-background:new 0 0 512 512;" xml:space="preserve">
<g transform="translate(1 1)">
	<g>
		<g>
			<path d="M485.4,186.733c14.114,0,25.6-11.486,25.6-25.6v-42.667c0-14.114-11.486-25.6-25.6-25.6h-17.067v-17.05
				c0.008-9.139-3.541-17.715-9.993-24.166c-6.34-6.349-15.121-9.984-24.098-9.984c-0.017,0-0.026,0-0.043,0V7.533
				c0-4.71-3.814-8.533-8.533-8.533s-8.533,3.823-8.533,8.533v34.133h-17.067V7.533c0-4.71-3.814-8.533-8.533-8.533
				C386.814-1,383,2.823,383,7.533v34.133h-17.067V7.533c0-4.71-3.814-8.533-8.533-8.533s-8.533,3.823-8.533,8.533v34.133H109.933
				V24.6h8.533c4.71,0,8.533-3.823,8.533-8.533s-3.823-8.533-8.533-8.533H84.333c-4.71,0-8.533,3.823-8.533,8.533
				s3.823,8.533,8.533,8.533h8.533v17.067H33.15c-0.017,0-0.034,0-0.051,0c-9.105,0-17.672,3.55-24.115,9.984
				C2.541,58.102-1.009,66.686-1,75.8v102.4c0,0.922,0.151,1.808,0.422,2.641l30.409,98.735
				c3.234,10.667,13.252,18.091,24.354,18.091c0.034,0,0.077,0,0.111,0h4.437v25.6c0,11.123,7.135,20.608,17.067,24.132V383
				c0,4.719,3.823,8.533,8.533,8.533c4.71,0,8.533-3.814,8.533-8.533v-35.602c9.931-3.523,17.067-13.009,17.067-24.132v-25.6h8.55
				c14.063-0.034,25.54-11.511,25.583-25.6v-85.333h147.177l-26.706,213.333H24.6c-14.114,0-25.6,11.486-25.6,25.6v51.2
				C-1,495.691,14.309,511,33.133,511h443.733C495.691,511,511,495.691,511,476.867v-51.2c0-14.114-11.486-25.6-25.6-25.6h-17.067
				V186.733H485.4z M485.4,109.933c4.71,0,8.533,3.831,8.533,8.533v42.667c0,4.702-3.823,8.533-8.533,8.533h-17.067v-34.133v-25.6
				H485.4z M92.867,280.6H75.8V58.733h17.067V280.6z M54.253,280.6c-0.009,0-0.026,0-0.034,0c-3.678,0-6.989-2.449-8.064-6.007
				L16.067,176.91V75.791c0-4.565,1.766-8.849,4.992-12.066c3.217-3.217,7.492-4.992,12.058-4.992c0,0,0.009,0,0.017,0h25.6V280.6
				H54.253z M92.867,323.267c0,4.71-3.831,8.533-8.533,8.533c-4.702,0-8.533-3.823-8.533-8.533v-25.6h17.067V323.267z M127,272.041
				c-0.009,4.71-3.857,8.55-8.533,8.559h-8.533V58.733h324.275c0.009,0,0.017,0,0.026,0c4.548,0,8.823,1.775,12.041,4.992
				c3.226,3.217,5,7.501,4.992,12.075v25.6v34.133v34.133H135.533c-4.71,0-8.533,3.823-8.533,8.533V272.041z M186.733,493.933h-128
				v-42.667h128V493.933z M493.933,425.667v51.2c0,9.412-7.654,17.067-17.067,17.067H203.8v-42.667
				c0-9.412-7.654-17.067-17.067-17.067h-128c-9.412,0-17.067,7.654-17.067,17.067v42.667h-8.533
				c-9.412,0-17.067-7.654-17.067-17.067v-51.2c0-4.71,3.831-8.533,8.533-8.533h247.467H459.8h25.6
				C490.11,417.133,493.933,420.956,493.933,425.667z M281.735,400.067l26.704-213.333h142.828v213.333H281.735z"/>
			<path d="M408.6,263.533h-42.667c-14.114,0-25.6,11.486-25.6,25.6V357.4c0,14.114,11.486,25.6,25.6,25.6H408.6
				c14.114,0,25.6-11.486,25.6-25.6v-68.267C434.2,275.019,422.714,263.533,408.6,263.533z M365.933,280.6H408.6
				c4.71,0,8.533,3.823,8.533,8.533v25.6H357.4v-25.6C357.4,284.423,361.223,280.6,365.933,280.6z M408.6,365.933h-42.667
				c-4.71,0-8.533-3.823-8.533-8.533v-25.6h59.733v25.6C417.133,362.11,413.31,365.933,408.6,365.933z"/>
			<path d="M135.533,152.6h290.133c4.719,0,8.533-3.823,8.533-8.533V84.333c0-4.71-3.814-8.533-8.533-8.533H135.533
				c-4.71,0-8.533,3.823-8.533,8.533v59.733C127,148.777,130.823,152.6,135.533,152.6z M246.467,114.2
				c0-11.759,9.574-21.333,21.333-21.333c11.768,0,21.333,9.574,21.333,21.333c0,11.759-9.566,21.333-21.333,21.333
				C256.041,135.533,246.467,125.959,246.467,114.2z M383,114.2c0,11.759-9.566,21.333-21.333,21.333s-21.333-9.574-21.333-21.333
				c0-11.759,9.566-21.333,21.333-21.333S383,102.441,383,114.2z M329.757,135.533h-30.045c4.095-6.106,6.488-13.445,6.488-21.333
				s-2.394-15.227-6.49-21.333h30.048c-4.096,6.106-6.49,13.445-6.49,21.333S325.661,129.427,329.757,135.533z M417.133,135.533
				h-23.555c4.095-6.106,6.488-13.445,6.488-21.333s-2.394-15.227-6.49-21.333h23.557V135.533z M144.067,92.867h91.824
				c-4.096,6.106-6.49,13.445-6.49,21.333s2.394,15.227,6.49,21.333h-91.824V92.867z"/>
		</g>
	</g>
</g>
<g>
</g>
<g>
</g>
<g>
</g>
<g>
</g>
<g>
</g>
<g>
</g>
<g>
</g>
<g>
</g>
<g>
</g>
<g>
</g>
<g>
</g>
<g>
</g>
<g>
</g>
<g>
</g>
<g>
</g>
</svg>
