<?xml version="1.0" encoding="iso-8859-1"?>
<!-- Generator: Adobe Illustrator 19.0.0, SVG Export Plug-In . SVG Version: 6.00 Build 0)  -->
<svg version="1.1" id="Capa_1" xmlns="http://www.w3.org/2000/svg" xmlns:xlink="http://www.w3.org/1999/xlink" x="0px" y="0px"
	 viewBox="0 0 512 512" style="enable-background:new 0 0 512 512;" xml:space="preserve">
<g transform="translate(1 1)">
	<g>
		<g>
			<path d="M451.274,290.106c0.037-2.138-0.309-4.239-1.151-6.547L399.075,36.687C396.915,6.98,307.877-1,254.999-1
				c-52.84,0-141.783,7.968-144.065,37.623l-51.156,247.36c-0.718,1.911-1.074,3.914-1.045,5.78
				c-0.008,0.374,0.006,0.744,0.046,1.109c0.721,14.173,17.85,24.571,42.62,32.066v36.763c-5.096,2.952-8.533,8.451-8.533,14.765
				c0,9.426,7.641,17.067,17.067,17.067s17.067-7.641,17.067-17.067c0-6.313-3.437-11.813-8.533-14.765v-32.294
				c14.815,3.364,31.266,5.952,48.015,7.895c-18.953,28.986-29.595,62.341-30.948,97.532c0,72.124,61.67,78.165,119.467,78.165
				s119.467-6.042,119.458-78.481c-1.346-34.913-11.987-68.228-30.94-97.208C398.991,328.89,451.268,315.437,451.274,290.106z
				 M254.999,16.067c77.022,0,122.112,13.696,126.899,21.726c-4.787,8.03-49.886,21.726-126.899,21.726
				S132.887,45.822,128.108,37.793C132.887,29.763,177.977,16.067,254.999,16.067z M357.399,432.835
				c0,51.362-35.994,61.099-102.4,61.099s-102.4-9.737-102.409-60.783c1.342-34.786,12.831-67.836,33.276-95.884
				c25.053,2.192,49.599,3.067,69.133,3.067c19.534,0,44.078-0.875,69.131-3.063C344.575,365.312,356.065,398.35,357.399,432.835z
				 M327.947,319.957c-0.383,0.012-0.766,0.044-1.146,0.108c-20.94,1.988-44.881,3.202-71.802,3.202
				c-26.883,0-50.794-1.21-71.714-3.192c-0.445-0.079-0.893-0.119-1.342-0.127C113.74,313.339,77.868,298.5,75.825,290.715
				l0.406-1.966c0.083-0.265,0.167-0.531,0.224-0.802l0.102-0.503c0.067-0.318,0.11-0.634,0.139-0.948l47.676-230.571
				c27.252,15.891,89.744,20.661,130.625,20.661c40.877,0,103.365-4.769,130.624-20.656l47.679,230.574
				c0.056,0.596,0.181,1.194,0.369,1.784l0.46,2.224C432.445,298.343,396.53,313.318,327.947,319.957z"/>
			<path d="M301.932,468.333c21.171,0,38.4-17.229,38.4-38.4s-17.229-38.4-38.4-38.4s-38.4,17.229-38.4,38.4
				S280.761,468.333,301.932,468.333z M301.932,408.6c11.767,0,21.333,9.566,21.333,21.333c0,11.768-9.566,21.333-21.333,21.333
				s-21.333-9.566-21.333-21.333C280.599,418.166,290.164,408.6,301.932,408.6z"/>
		</g>
	</g>
</g>
<g>
</g>
<g>
</g>
<g>
</g>
<g>
</g>
<g>
</g>
<g>
</g>
<g>
</g>
<g>
</g>
<g>
</g>
<g>
</g>
<g>
</g>
<g>
</g>
<g>
</g>
<g>
</g>
<g>
</g>
</svg>
