<?xml version="1.0" encoding="iso-8859-1"?>
<!-- Generator: Adobe Illustrator 19.0.0, SVG Export Plug-In . SVG Version: 6.00 Build 0)  -->
<svg version="1.1" id="Capa_1" xmlns="http://www.w3.org/2000/svg" xmlns:xlink="http://www.w3.org/1999/xlink" x="0px" y="0px"
	 viewBox="0 0 512 512" style="enable-background:new 0 0 512 512;" xml:space="preserve">
<g transform="translate(1 1)">
	<g>
		<g>
			<path d="M485.4,45.933H24.6c-14.114,0-25.6,11.486-25.6,25.6v290.133c0,14.114,11.486,25.6,25.6,25.6h141.759L146.448,447
				h-27.981c-4.71,0-8.533,3.814-8.533,8.533c0,4.719,3.823,8.533,8.533,8.533H152.6h204.8h34.133c4.719,0,8.533-3.814,8.533-8.533
				c0-4.719-3.814-8.533-8.533-8.533h-27.989l-19.911-59.733H485.4c14.114,0,25.6-11.486,25.6-25.6V71.533
				C511,57.419,499.514,45.933,485.4,45.933z M16.067,97.133h477.867v238.933H16.067V97.133z M24.6,63h460.8
				c4.71,0,8.533,3.831,8.533,8.533v8.533H16.067v-8.533C16.067,66.831,19.898,63,24.6,63z M345.556,447h-181.12l19.917-59.733
				h141.295L345.556,447z M485.4,370.2H331.8H178.2H24.6c-4.702,0-8.533-3.823-8.533-8.533v-8.533h477.867v8.533
				C493.933,366.377,490.11,370.2,485.4,370.2z"/>
			<path d="M41.667,182.467c2.185,0,4.369-0.836,6.033-2.5l51.2-51.2c3.337-3.337,3.337-8.73,0-12.066
				c-3.336-3.336-8.73-3.336-12.066,0l-51.2,51.2c-3.337,3.337-3.337,8.73,0,12.066C37.298,181.63,39.482,182.467,41.667,182.467z"
				/>
			<path d="M138.034,116.7l-102.4,102.4c-3.337,3.337-3.337,8.73,0,12.066c1.664,1.664,3.849,2.5,6.033,2.5
				c2.185,0,4.369-0.836,6.033-2.5l102.4-102.4c3.337-3.337,3.337-8.73,0-12.066C146.763,113.364,141.37,113.364,138.034,116.7z"/>
			<path d="M462.3,253.234l-51.2,51.2c-3.337,3.337-3.337,8.73,0,12.066c1.664,1.664,3.849,2.5,6.033,2.5
				c2.185,0,4.369-0.836,6.033-2.5l51.2-51.2c3.336-3.337,3.337-8.73,0-12.066C471.03,249.897,465.637,249.897,462.3,253.234z"/>
			<path d="M474.366,202.034c-3.337-3.337-8.73-3.337-12.066,0l-102.4,102.4c-3.336,3.337-3.336,8.73,0,12.066
				c1.664,1.664,3.849,2.5,6.033,2.5c2.185,0,4.369-0.836,6.033-2.5l102.4-102.4C477.703,210.763,477.703,205.37,474.366,202.034z"
				/>
		</g>
	</g>
</g>
<g>
</g>
<g>
</g>
<g>
</g>
<g>
</g>
<g>
</g>
<g>
</g>
<g>
</g>
<g>
</g>
<g>
</g>
<g>
</g>
<g>
</g>
<g>
</g>
<g>
</g>
<g>
</g>
<g>
</g>
</svg>
