<?xml version="1.0" encoding="iso-8859-1"?>
<!-- Generator: Adobe Illustrator 19.0.0, SVG Export Plug-In . SVG Version: 6.00 Build 0)  -->
<svg version="1.1" id="Capa_1" xmlns="http://www.w3.org/2000/svg" xmlns:xlink="http://www.w3.org/1999/xlink" x="0px" y="0px"
	 viewBox="0 0 512 512" style="enable-background:new 0 0 512 512;" xml:space="preserve">
<g transform="translate(1 1)">
	<g>
		<g>
			<path d="M383-1H127c-9.412,0-17.067,7.654-17.067,17.067v460.8c0,4.719,3.823,8.533,8.533,8.533v8.533
				c0,9.412,7.654,17.067,17.067,17.067h25.6c9.412,0,17.067-7.654,17.067-17.067V485.4h153.6v8.533
				c0,9.412,7.654,17.067,17.067,17.067h25.6c9.412,0,17.067-7.654,17.067-17.067V485.4c4.719,0,8.533-3.814,8.533-8.533v-460.8
				C400.067,6.654,392.412-1,383-1z M383,468.333h-42.667H169.667H127l-0.002-119.467H383V468.333z M126.997,331.8l-0.001-68.267
				H383V331.8H126.997z M383,246.467H263.533v-230.4H383V246.467z M246.467,16.067v230.4H126.996l-0.004-230.4H246.467z
				 M161.133,493.933h-25.6V485.4h25.6V493.933z M374.467,493.933h-25.6V485.4h25.6V493.933z"/>
			<path d="M161.133,229.4H178.2c9.412,0,17.067-7.654,17.067-17.067v-68.267c0-9.412-7.654-17.067-17.067-17.067h-17.067
				c-9.412,0-17.067,7.654-17.067,17.067v68.267C144.067,221.746,151.721,229.4,161.133,229.4z M161.133,212.333l-0.004-34.133
				H178.2v34.133H161.133z M161.133,144.067H178.2v17.067h-17.073l-0.002-17.067H161.133z"/>
			<path d="M161.133,391.533h187.733c9.412,0,17.067-7.654,17.067-17.067v-8.533c0-4.719-3.814-8.533-8.533-8.533
				s-8.533,3.814-8.533,8.533v8.533H161.133v-8.533c0-4.719-3.823-8.533-8.533-8.533c-4.71,0-8.533,3.814-8.533,8.533v8.533
				C144.067,383.879,151.721,391.533,161.133,391.533z"/>
			<path d="M357.4,280.6c-4.719,0-8.533,3.814-8.533,8.533v8.533H161.133v-8.533c0-4.719-3.823-8.533-8.533-8.533
				c-4.71,0-8.533,3.814-8.533,8.533v8.533c0,9.412,7.654,17.067,17.067,17.067h187.733c9.412,0,17.067-7.654,17.067-17.067v-8.533
				C365.933,284.414,362.119,280.6,357.4,280.6z"/>
			<path d="M220.867,220.867c4.71,0,8.533-3.823,8.533-8.533V50.2c0-4.71-3.823-8.533-8.533-8.533c-4.71,0-8.533,3.823-8.533,8.533
				v162.133C212.333,217.044,216.156,220.867,220.867,220.867z"/>
			<path d="M289.133,220.867c4.719,0,8.533-3.823,8.533-8.533V50.2c0-4.71-3.814-8.533-8.533-8.533S280.6,45.49,280.6,50.2v162.133
				C280.6,217.044,284.414,220.867,289.133,220.867z"/>
		</g>
	</g>
</g>
<g>
</g>
<g>
</g>
<g>
</g>
<g>
</g>
<g>
</g>
<g>
</g>
<g>
</g>
<g>
</g>
<g>
</g>
<g>
</g>
<g>
</g>
<g>
</g>
<g>
</g>
<g>
</g>
<g>
</g>
</svg>
