<?xml version="1.0" encoding="iso-8859-1"?>
<!-- Generator: Adobe Illustrator 19.0.0, SVG Export Plug-In . SVG Version: 6.00 Build 0)  -->
<svg version="1.1" id="Capa_1" xmlns="http://www.w3.org/2000/svg" xmlns:xlink="http://www.w3.org/1999/xlink" x="0px" y="0px"
	 viewBox="0 0 512 512" style="enable-background:new 0 0 512 512;" xml:space="preserve">
<g transform="translate(1 1)">
	<g>
		<g>
			<path d="M485.4,84.333H24.6c-14.114,0-25.6,11.486-25.6,25.6v256c0,14.114,11.486,25.6,25.6,25.6V408.6
				c0,9.412,7.654,17.067,17.067,17.067H75.8c9.412,0,17.067-7.654,17.067-17.067v-17.067h324.267V408.6
				c0,9.412,7.654,17.067,17.067,17.067h34.133c9.412,0,17.067-7.654,17.067-17.067v-17.067c14.114,0,25.6-11.486,25.6-25.6v-256
				C511,95.819,499.514,84.333,485.4,84.333z M16.067,365.933v-256c0-4.702,3.831-8.533,8.533-8.533h332.8v273.067H84.333h-51.2
				H24.6C19.898,374.467,16.067,370.644,16.067,365.933z M75.8,408.6H41.667v-17.067H75.8V408.6z M468.333,408.6H434.2v-17.067
				h34.133V408.6z M493.933,365.933c0,4.71-3.823,8.533-8.533,8.533h-8.533h-51.2h-51.2V101.4H485.4c4.71,0,8.533,3.831,8.533,8.533
				V365.933z"/>
			<path d="M434.2,263.533c-23.526,0-42.667,19.14-42.667,42.667c0,23.526,19.14,42.667,42.667,42.667
				c23.526,0,42.667-19.14,42.667-42.667C476.867,282.674,457.726,263.533,434.2,263.533z M434.2,331.8
				c-14.114,0-25.6-11.486-25.6-25.6s11.486-25.6,25.6-25.6s25.6,11.486,25.6,25.6S448.314,331.8,434.2,331.8z"/>
			<path d="M186.733,357.4c84.693,0,153.6-53.589,153.6-119.467c0-3.394-0.193-6.754-0.552-10.077
				c-0.007-0.078-0.017-0.154-0.026-0.231c-6.743-61.068-72.794-109.158-153.022-109.158c-84.693,0-153.6,53.589-153.6,119.467
				S102.04,357.4,186.733,357.4z M186.733,340.333c-54.81,0-102.175-24.353-123.886-59.388
				c28.246,25.649,73.742,42.321,123.886,42.321c50.148,0,95.649-16.679,123.894-42.333
				C288.919,315.975,241.549,340.333,186.733,340.333z M186.733,135.533c71.066,0,129.62,40.938,135.955,93.024
				c-6.668,42.894-67.34,77.643-135.955,77.643c-68.61,0-129.277-34.747-135.957-77.63
				C57.104,176.478,115.661,135.533,186.733,135.533z"/>
			<path d="M459.8,127h-51.2c-14.114,0-25.6,11.486-25.6,25.6c0,14.114,11.486,25.6,25.6,25.6h51.2c14.114,0,25.6-11.486,25.6-25.6
				C485.4,138.486,473.914,127,459.8,127z M459.8,161.133h-51.2c-4.71,0-8.533-3.831-8.533-8.533c0-4.702,3.823-8.533,8.533-8.533
				h51.2c4.71,0,8.533,3.831,8.533,8.533C468.333,157.302,464.51,161.133,459.8,161.133z"/>
		</g>
	</g>
</g>
<g>
</g>
<g>
</g>
<g>
</g>
<g>
</g>
<g>
</g>
<g>
</g>
<g>
</g>
<g>
</g>
<g>
</g>
<g>
</g>
<g>
</g>
<g>
</g>
<g>
</g>
<g>
</g>
<g>
</g>
</svg>
