<?xml version="1.0" encoding="iso-8859-1"?>
<!-- Generator: Adobe Illustrator 19.0.0, SVG Export Plug-In . SVG Version: 6.00 Build 0)  -->
<svg version="1.1" id="Capa_1" xmlns="http://www.w3.org/2000/svg" xmlns:xlink="http://www.w3.org/1999/xlink" x="0px" y="0px"
	 viewBox="0 0 512 512" style="enable-background:new 0 0 512 512;" xml:space="preserve">
<g transform="translate(1 1)">
	<g>
		<g>
			<path d="M84.333,263.533c-32.939,0-59.733,26.803-59.733,59.733C24.6,356.197,51.395,383,84.333,383
				c32.939,0,59.733-26.803,59.733-59.733C144.067,290.337,117.272,263.533,84.333,263.533z M84.333,365.933
				c-23.526,0-42.667-19.14-42.667-42.667c0-23.526,19.14-42.667,42.667-42.667c23.526,0,42.667,19.14,42.667,42.667
				C127,346.793,107.86,365.933,84.333,365.933z"/>
			<path d="M101.4,127c-23.526,0-42.667,19.14-42.667,42.667c0,23.526,19.14,42.667,42.667,42.667
				c23.526,0,42.667-19.14,42.667-42.667C144.067,146.14,124.926,127,101.4,127z M101.4,195.267c-14.114,0-25.6-11.486-25.6-25.6
				s11.486-25.6,25.6-25.6s25.6,11.486,25.6,25.6S115.514,195.267,101.4,195.267z"/>
			<path d="M50.2,255c14.114,0,25.6-11.486,25.6-25.6s-11.486-25.6-25.6-25.6s-25.6,11.486-25.6,25.6S36.086,255,50.2,255z
				 M50.2,220.867c4.702,0,8.533,3.831,8.533,8.533c0,4.702-3.831,8.533-8.533,8.533c-4.702,0-8.533-3.831-8.533-8.533
				C41.667,224.698,45.498,220.867,50.2,220.867z"/>
			<path d="M493.933,92.867H357.4c-9.412,0-17.067,7.654-17.067,17.067V203.8H169.667v-93.867c0-9.412-7.654-17.067-17.067-17.067
				H16.067C6.654,92.867-1,100.521-1,109.933V408.6c0,4.719,3.823,8.533,8.533,8.533h153.6h187.733h153.6
				c4.719,0,8.533-3.814,8.533-8.533V109.933C511,100.521,503.346,92.867,493.933,92.867z M340.333,220.867V306.2H169.667v-85.333
				H340.333z M16.058,109.933H152.6v102.4v187.733H16.067L16.058,109.933z M169.667,323.267h170.667v76.8H169.667V323.267z
				 M493.933,400.067H357.4V212.333v-102.4h136.533V400.067z"/>
			<path d="M425.667,383c32.93,0,59.733-26.803,59.733-59.733c0-32.93-26.803-59.733-59.733-59.733
				c-32.93,0-59.733,26.803-59.733,59.733C365.933,356.197,392.737,383,425.667,383z M425.667,280.6
				c23.526,0,42.667,19.14,42.667,42.667c0,23.526-19.14,42.667-42.667,42.667S383,346.793,383,323.267
				C383,299.74,402.14,280.6,425.667,280.6z"/>
			<path d="M408.6,212.333c23.526,0,42.667-19.14,42.667-42.667c0-23.526-19.14-42.667-42.667-42.667
				c-23.526,0-42.667,19.14-42.667,42.667C365.933,193.193,385.074,212.333,408.6,212.333z M408.6,144.067
				c14.114,0,25.6,11.486,25.6,25.6s-11.486,25.6-25.6,25.6s-25.6-11.486-25.6-25.6S394.486,144.067,408.6,144.067z"/>
			<path d="M434.2,229.4c0,14.114,11.486,25.6,25.6,25.6c14.114,0,25.6-11.486,25.6-25.6s-11.486-25.6-25.6-25.6
				C445.686,203.8,434.2,215.286,434.2,229.4z M459.8,220.867c4.71,0,8.533,3.831,8.533,8.533c0,4.702-3.823,8.533-8.533,8.533
				s-8.533-3.831-8.533-8.533C451.267,224.698,455.09,220.867,459.8,220.867z"/>
			<path d="M186.733,289.133h136.533c4.719,0,8.533-3.814,8.533-8.533v-34.133c0-4.71-3.814-8.533-8.533-8.533H186.733
				c-4.71,0-8.533,3.823-8.533,8.533V280.6C178.2,285.319,182.023,289.133,186.733,289.133z M314.733,272.067H280.6V255h34.133
				V272.067z M195.267,255h68.267v17.067h-68.267V255z"/>
			<path d="M203.8,340.333c-14.114,0-25.6,11.486-25.6,25.6s11.486,25.6,25.6,25.6s25.6-11.486,25.6-25.6
				S217.914,340.333,203.8,340.333z M203.8,374.467c-4.702,0-8.533-3.823-8.533-8.533s3.831-8.533,8.533-8.533
				c4.702,0,8.533,3.823,8.533,8.533S208.502,374.467,203.8,374.467z"/>
			<path d="M306.2,340.333c-14.114,0-25.6,11.486-25.6,25.6s11.486,25.6,25.6,25.6s25.6-11.486,25.6-25.6
				S320.314,340.333,306.2,340.333z M306.2,374.467c-4.71,0-8.533-3.823-8.533-8.533s3.823-8.533,8.533-8.533
				s8.533,3.823,8.533,8.533S310.91,374.467,306.2,374.467z"/>
			<path d="M263.533,340.333h-17.067c-4.71,0-8.533,3.814-8.533,8.533s3.823,8.533,8.533,8.533h17.067
				c4.719,0,8.533-3.814,8.533-8.533S268.252,340.333,263.533,340.333z"/>
			<path d="M263.533,365.933h-17.067c-4.71,0-8.533,3.814-8.533,8.533s3.823,8.533,8.533,8.533h17.067
				c4.719,0,8.533-3.814,8.533-8.533S268.252,365.933,263.533,365.933z"/>
		</g>
	</g>
</g>
<g>
</g>
<g>
</g>
<g>
</g>
<g>
</g>
<g>
</g>
<g>
</g>
<g>
</g>
<g>
</g>
<g>
</g>
<g>
</g>
<g>
</g>
<g>
</g>
<g>
</g>
<g>
</g>
<g>
</g>
</svg>
