<?xml version="1.0" encoding="iso-8859-1"?>
<!-- Generator: Adobe Illustrator 19.0.0, SVG Export Plug-In . SVG Version: 6.00 Build 0)  -->
<svg version="1.1" id="Capa_1" xmlns="http://www.w3.org/2000/svg" xmlns:xlink="http://www.w3.org/1999/xlink" x="0px" y="0px"
	 viewBox="0 0 512 512" style="enable-background:new 0 0 512 512;" xml:space="preserve">
<g transform="translate(1 1)">
	<g>
		<g>
			<path d="M485.4,58.733H24.6c-14.114,0-25.6,11.486-25.6,25.6v307.2c0,14.114,11.486,25.6,25.6,25.6V434.2
				c0,9.412,7.654,17.067,17.067,17.067H75.8c9.412,0,17.067-7.654,17.067-17.067v-17.067h324.267V434.2
				c0,9.412,7.654,17.067,17.067,17.067h34.133c9.412,0,17.067-7.654,17.067-17.067v-17.067c14.114,0,25.6-11.486,25.6-25.6v-307.2
				C511,70.219,499.514,58.733,485.4,58.733z M75.8,434.2H41.667v-17.067H75.8V434.2z M468.333,434.2H434.2v-17.067h34.133V434.2z
				 M493.933,391.533c0,4.71-3.823,8.533-8.533,8.533h-8.533h-51.2H84.333h-51.2H24.6c-4.702,0-8.533-3.823-8.533-8.533v-307.2
				c0-4.702,3.831-8.533,8.533-8.533h460.8c4.71,0,8.533,3.831,8.533,8.533V391.533z"/>
			<path d="M365.933,92.867H50.2c-9.412,0-17.067,7.654-17.067,17.067v256c0,9.412,7.654,17.067,17.067,17.067h315.733
				c4.719,0,8.533-3.814,8.533-8.533V101.4C374.467,96.69,370.652,92.867,365.933,92.867z M50.2,109.933h307.2V331.8h-25.6v-8.533
				c0-14.114-11.486-25.6-25.6-25.6H101.4c-14.114,0-25.6,11.486-25.6,25.6v8.533H50.199l-0.007-221.867H50.2z M314.733,331.8
				H92.867v-8.533c0-4.71,3.831-8.533,8.533-8.533h204.8c4.71,0,8.533,3.823,8.533,8.533V331.8z M50.2,365.933l-0.001-17.067h34.134
				h238.933H357.4v17.067H50.2z"/>
			<path d="M434.2,92.867c-23.526,0-42.667,19.14-42.667,42.667c0,23.526,19.14,42.667,42.667,42.667
				c23.526,0,42.667-19.14,42.667-42.667C476.867,112.007,457.726,92.867,434.2,92.867z M434.2,161.133
				c-14.114,0-25.6-11.486-25.6-25.6s11.486-25.6,25.6-25.6s25.6,11.486,25.6,25.6S448.314,161.133,434.2,161.133z"/>
			<path d="M434.2,195.267c-23.526,0-42.667,19.14-42.667,42.667c0,23.526,19.14,42.667,42.667,42.667
				c23.526,0,42.667-19.14,42.667-42.667C476.867,214.407,457.726,195.267,434.2,195.267z M434.2,263.533
				c-14.114,0-25.6-11.486-25.6-25.6s11.486-25.6,25.6-25.6s25.6,11.486,25.6,25.6S448.314,263.533,434.2,263.533z"/>
			<path d="M468.333,323.267h-68.267c-4.719,0-8.533,3.814-8.533,8.533v34.133c0,9.412,7.654,17.067,17.067,17.067h51.2
				c9.412,0,17.067-7.654,17.067-17.067V331.8C476.867,327.081,473.052,323.267,468.333,323.267z M459.8,365.933h-51.2v-25.6h51.2
				V365.933z"/>
			<path d="M67.267,195.267h17.067c4.71,0,8.533-3.823,8.533-8.533s-3.823-8.533-8.533-8.533H67.267
				c-4.71,0-8.533,3.823-8.533,8.533S62.556,195.267,67.267,195.267z"/>
			<path d="M118.467,195.267h17.067c4.71,0,8.533-3.823,8.533-8.533s-3.823-8.533-8.533-8.533h-17.067
				c-4.71,0-8.533,3.823-8.533,8.533S113.756,195.267,118.467,195.267z"/>
			<path d="M169.667,195.267h17.067c4.71,0,8.533-3.823,8.533-8.533s-3.823-8.533-8.533-8.533h-17.067
				c-4.71,0-8.533,3.823-8.533,8.533S164.956,195.267,169.667,195.267z"/>
			<path d="M220.867,195.267h17.067c4.71,0,8.533-3.823,8.533-8.533s-3.823-8.533-8.533-8.533h-17.067
				c-4.71,0-8.533,3.823-8.533,8.533S216.156,195.267,220.867,195.267z"/>
			<path d="M272.067,195.267h17.067c4.719,0,8.533-3.823,8.533-8.533s-3.814-8.533-8.533-8.533h-17.067
				c-4.719,0-8.533,3.823-8.533,8.533S267.348,195.267,272.067,195.267z"/>
			<path d="M323.267,195.267h17.067c4.719,0,8.533-3.823,8.533-8.533s-3.814-8.533-8.533-8.533h-17.067
				c-4.719,0-8.533,3.823-8.533,8.533S318.548,195.267,323.267,195.267z"/>
			<path d="M67.267,229.4h17.067c4.71,0,8.533-3.823,8.533-8.533c0-4.71-3.823-8.533-8.533-8.533H67.267
				c-4.71,0-8.533,3.823-8.533,8.533C58.733,225.577,62.556,229.4,67.267,229.4z"/>
			<path d="M118.467,229.4h17.067c4.71,0,8.533-3.823,8.533-8.533c0-4.71-3.823-8.533-8.533-8.533h-17.067
				c-4.71,0-8.533,3.823-8.533,8.533C109.933,225.577,113.756,229.4,118.467,229.4z"/>
			<path d="M169.667,229.4h17.067c4.71,0,8.533-3.823,8.533-8.533c0-4.71-3.823-8.533-8.533-8.533h-17.067
				c-4.71,0-8.533,3.823-8.533,8.533C161.133,225.577,164.956,229.4,169.667,229.4z"/>
			<path d="M220.867,229.4h17.067c4.71,0,8.533-3.823,8.533-8.533c0-4.71-3.823-8.533-8.533-8.533h-17.067
				c-4.71,0-8.533,3.823-8.533,8.533C212.333,225.577,216.156,229.4,220.867,229.4z"/>
			<path d="M272.067,229.4h17.067c4.719,0,8.533-3.823,8.533-8.533c0-4.71-3.814-8.533-8.533-8.533h-17.067
				c-4.719,0-8.533,3.823-8.533,8.533C263.533,225.577,267.348,229.4,272.067,229.4z"/>
			<path d="M323.267,229.4h17.067c4.719,0,8.533-3.823,8.533-8.533c0-4.71-3.814-8.533-8.533-8.533h-17.067
				c-4.719,0-8.533,3.823-8.533,8.533C314.733,225.577,318.548,229.4,323.267,229.4z"/>
			<path d="M67.267,263.533h17.067c4.71,0,8.533-3.814,8.533-8.533c0-4.71-3.823-8.533-8.533-8.533H67.267
				c-4.71,0-8.533,3.823-8.533,8.533C58.733,259.719,62.556,263.533,67.267,263.533z"/>
			<path d="M118.467,263.533h17.067c4.71,0,8.533-3.814,8.533-8.533c0-4.71-3.823-8.533-8.533-8.533h-17.067
				c-4.71,0-8.533,3.823-8.533,8.533C109.933,259.719,113.756,263.533,118.467,263.533z"/>
			<path d="M169.667,263.533h17.067c4.71,0,8.533-3.814,8.533-8.533c0-4.71-3.823-8.533-8.533-8.533h-17.067
				c-4.71,0-8.533,3.823-8.533,8.533C161.133,259.719,164.956,263.533,169.667,263.533z"/>
			<path d="M220.867,263.533h17.067c4.71,0,8.533-3.814,8.533-8.533c0-4.71-3.823-8.533-8.533-8.533h-17.067
				c-4.71,0-8.533,3.823-8.533,8.533C212.333,259.719,216.156,263.533,220.867,263.533z"/>
			<path d="M272.067,263.533h17.067c4.719,0,8.533-3.814,8.533-8.533c0-4.71-3.814-8.533-8.533-8.533h-17.067
				c-4.719,0-8.533,3.823-8.533,8.533C263.533,259.719,267.348,263.533,272.067,263.533z"/>
			<path d="M323.267,263.533h17.067c4.719,0,8.533-3.814,8.533-8.533c0-4.71-3.814-8.533-8.533-8.533h-17.067
				c-4.719,0-8.533,3.823-8.533,8.533C314.733,259.719,318.548,263.533,323.267,263.533z"/>
		</g>
	</g>
</g>
<g>
</g>
<g>
</g>
<g>
</g>
<g>
</g>
<g>
</g>
<g>
</g>
<g>
</g>
<g>
</g>
<g>
</g>
<g>
</g>
<g>
</g>
<g>
</g>
<g>
</g>
<g>
</g>
<g>
</g>
</svg>
