<?xml version="1.0" encoding="iso-8859-1"?>
<!-- Generator: Adobe Illustrator 19.0.0, SVG Export Plug-In . SVG Version: 6.00 Build 0)  -->
<svg version="1.1" id="Capa_1" xmlns="http://www.w3.org/2000/svg" xmlns:xlink="http://www.w3.org/1999/xlink" x="0px" y="0px"
	 viewBox="0 0 512 512" style="enable-background:new 0 0 512 512;" xml:space="preserve">
<g transform="translate(1 1)">
	<g>
		<path d="M383-1H127c-9.412,0-17.067,7.654-17.067,17.067v460.8c0,4.719,3.823,8.533,8.533,8.533v8.533
			c0,9.412,7.654,17.067,17.067,17.067h25.6c9.412,0,17.067-7.654,17.067-17.067V485.4h153.6v8.533
			c0,9.412,7.654,17.067,17.067,17.067h25.6c9.412,0,17.067-7.654,17.067-17.067V485.4c4.719,0,8.533-3.814,8.533-8.533v-76.8
			v-85.333V152.6V67.267v-51.2C400.067,6.654,392.412-1,383-1z M383,391.533h-8.533c-4.71,0-8.533-3.823-8.533-8.533v-51.2
			c0-4.71,3.823-8.533,8.533-8.533H383V391.533z M374.467,306.2c-14.114,0-25.6,11.486-25.6,25.6V383
			c0,14.114,11.486,25.6,25.6,25.6H383v59.733h-42.667H169.667H127L126.996,255H383v51.2H374.467z M383,237.933H126.996l0-17.067
			H383V237.933z M383,144.067h-8.533c-4.71,0-8.533-3.831-8.533-8.533v-51.2c0-4.702,3.823-8.533,8.533-8.533H383V144.067z
			 M383,16.067v42.667h-8.533c-14.114,0-25.6,11.486-25.6,25.6v51.2c0,14.114,11.486,25.6,25.6,25.6H383V203.8H126.995
			l-0.004-187.733H383z M161.133,493.933h-25.6V485.4h25.6V493.933z M374.467,493.933h-25.6V485.4h25.6V493.933z"/>
	</g>
</g>
<g>
</g>
<g>
</g>
<g>
</g>
<g>
</g>
<g>
</g>
<g>
</g>
<g>
</g>
<g>
</g>
<g>
</g>
<g>
</g>
<g>
</g>
<g>
</g>
<g>
</g>
<g>
</g>
<g>
</g>
</svg>
