<?xml version="1.0" encoding="iso-8859-1"?>
<!-- Generator: Adobe Illustrator 19.0.0, SVG Export Plug-In . SVG Version: 6.00 Build 0)  -->
<svg version="1.1" id="Capa_1" xmlns="http://www.w3.org/2000/svg" xmlns:xlink="http://www.w3.org/1999/xlink" x="0px" y="0px"
	 viewBox="0 0 512.001 512.001" style="enable-background:new 0 0 512.001 512.001;" xml:space="preserve">
<g transform="translate(1 1)">
	<g>
		<g>
			<path d="M468.01-0.999H42.068c-14.447-0.128-25.865,11.315-26.001,25.6v460.885c0.068,6.886,2.807,13.321,7.714,18.142
				c4.847,4.762,11.247,7.373,17.954,7.373c0.085,0,0.171,0,0.256,0h425.984c0.06,0,0.128,0,0.205,0
				c6.784,0,13.184-2.611,18.039-7.373c4.907-4.821,7.646-11.264,7.714-18.227V24.516C493.797,10.316,481.927-0.931,468.01-0.999z
				 M67.267,84.334h145.067h85.333h145.067h34.142v102.4H33.134v-102.4H67.267z M81.074,67.268l6.178-12.348
				c1.451-2.91,4.378-4.719,7.629-4.719h89.839c3.251,0,6.178,1.809,7.629,4.719l6.178,12.348H81.074z M311.474,67.268l6.17-12.348
				c1.459-2.91,4.386-4.719,7.637-4.719h89.839c3.251,0,6.17,1.809,7.629,4.719l6.178,12.348H311.474z M33.134,203.801h443.742
				v221.867H33.134V203.801z M41.906,16.068c0.034,0,0.06,0,0.085,0h426.095c0.034,0,0.06,0,0.085,0
				c4.762,0,8.661,3.849,8.704,8.533v42.667h-28.872l-9.989-19.985c-4.369-8.73-13.141-14.148-22.903-14.148h-89.83
				c-9.754,0-18.526,5.419-22.904,14.148l-9.989,19.985h-74.784l-9.989-19.985c-4.369-8.73-13.141-14.148-22.895-14.148H94.881
				c-9.754,0-18.526,5.419-22.895,14.148l-9.989,19.985H33.134V24.686C33.177,19.916,37.068,16.068,41.906,16.068z M474.265,491.451
				c-1.638,1.596-3.789,2.483-6.084,2.483c-0.051,0-0.119,0-0.171,0H41.906c-2.406-0.111-4.514-0.862-6.17-2.483
				c-1.656-1.63-2.586-3.806-2.603-6.05v-42.667h443.742v42.581C476.85,487.645,475.92,489.821,474.265,491.451z"/>
			<path d="M84.334,169.668c18.825,0,34.133-15.309,34.133-34.133c0-18.825-15.309-34.133-34.133-34.133
				s-34.133,15.309-34.133,34.133S65.509,169.668,84.334,169.668z M84.334,118.468c9.412,0,17.067,7.654,17.067,17.067
				c0,9.412-7.654,17.067-17.067,17.067c-9.412,0-17.067-7.654-17.067-17.067C67.267,126.122,74.922,118.468,84.334,118.468z"/>
			<path d="M169.667,169.668c18.825,0,34.133-15.309,34.133-34.133c0-18.825-15.309-34.133-34.133-34.133
				s-34.133,15.309-34.133,34.133S150.843,169.668,169.667,169.668z M169.667,118.468c9.412,0,17.067,7.654,17.067,17.067
				c0,9.412-7.654,17.067-17.067,17.067c-9.412,0-17.067-7.654-17.067-17.067C152.601,126.122,160.255,118.468,169.667,118.468z"/>
			<path d="M255.001,169.668c18.825,0,34.133-15.309,34.133-34.133c0-18.825-15.309-34.133-34.133-34.133
				s-34.133,15.309-34.133,34.133S236.176,169.668,255.001,169.668z M255.001,118.468c9.412,0,17.067,7.654,17.067,17.067
				c0,9.412-7.654,17.067-17.067,17.067c-9.412,0-17.067-7.654-17.067-17.067C237.934,126.122,245.588,118.468,255.001,118.468z"/>
			<path d="M340.334,169.668c18.825,0,34.133-15.309,34.133-34.133c0-18.825-15.309-34.133-34.133-34.133
				c-18.825,0-34.133,15.309-34.133,34.133S321.509,169.668,340.334,169.668z M340.334,118.468c9.412,0,17.067,7.654,17.067,17.067
				c0,9.412-7.654,17.067-17.067,17.067c-9.412,0-17.067-7.654-17.067-17.067C323.267,126.122,330.922,118.468,340.334,118.468z"/>
			<path d="M425.667,169.668c18.825,0,34.133-15.309,34.133-34.133c0-18.825-15.309-34.133-34.133-34.133
				s-34.133,15.309-34.133,34.133S406.843,169.668,425.667,169.668z M425.667,118.468c9.412,0,17.067,7.654,17.067,17.067
				c0,9.412-7.654,17.067-17.067,17.067s-17.067-7.654-17.067-17.067C408.601,126.122,416.255,118.468,425.667,118.468z"/>
			<path d="M383.001,220.868h-256c-14.114,0-25.6,11.486-25.6,25.6v136.533c0,14.114,11.486,25.6,25.6,25.6h256
				c14.114,0,25.6-11.486,25.6-25.6V246.468C408.601,232.354,397.115,220.868,383.001,220.868z M391.534,383.001
				c0,4.71-3.823,8.533-8.533,8.533h-256c-4.702,0-8.533-3.823-8.533-8.533V246.468c0-4.702,3.831-8.533,8.533-8.533h256
				c4.71,0,8.533,3.831,8.533,8.533V383.001z"/>
			<path d="M152.601,280.601h-8.533c-4.71,0-8.533,3.814-8.533,8.533s3.823,8.533,8.533,8.533h8.533c4.71,0,8.533-3.814,8.533-8.533
				S157.311,280.601,152.601,280.601z"/>
			<path d="M195.267,280.601h-8.533c-4.71,0-8.533,3.814-8.533,8.533s3.823,8.533,8.533,8.533h8.533c4.71,0,8.533-3.814,8.533-8.533
				S199.978,280.601,195.267,280.601z"/>
			<path d="M237.934,280.601h-8.533c-4.71,0-8.533,3.814-8.533,8.533s3.823,8.533,8.533,8.533h8.533c4.71,0,8.533-3.814,8.533-8.533
				S242.644,280.601,237.934,280.601z"/>
			<path d="M280.601,280.601h-8.533c-4.719,0-8.533,3.814-8.533,8.533s3.814,8.533,8.533,8.533h8.533
				c4.719,0,8.533-3.814,8.533-8.533S285.319,280.601,280.601,280.601z"/>
			<path d="M323.267,280.601h-8.533c-4.719,0-8.533,3.814-8.533,8.533s3.814,8.533,8.533,8.533h8.533
				c4.719,0,8.533-3.814,8.533-8.533S327.986,280.601,323.267,280.601z"/>
			<path d="M365.934,280.601h-8.533c-4.719,0-8.533,3.814-8.533,8.533s3.814,8.533,8.533,8.533h8.533
				c4.719,0,8.533-3.814,8.533-8.533S370.653,280.601,365.934,280.601z"/>
			<path d="M152.601,340.334h-8.533c-4.71,0-8.533,3.814-8.533,8.533s3.823,8.533,8.533,8.533h8.533c4.71,0,8.533-3.814,8.533-8.533
				S157.311,340.334,152.601,340.334z"/>
			<path d="M195.267,340.334h-8.533c-4.71,0-8.533,3.814-8.533,8.533s3.823,8.533,8.533,8.533h8.533c4.71,0,8.533-3.814,8.533-8.533
				S199.978,340.334,195.267,340.334z"/>
			<path d="M237.934,340.334h-8.533c-4.71,0-8.533,3.814-8.533,8.533s3.823,8.533,8.533,8.533h8.533c4.71,0,8.533-3.814,8.533-8.533
				S242.644,340.334,237.934,340.334z"/>
			<path d="M280.601,340.334h-8.533c-4.719,0-8.533,3.814-8.533,8.533s3.814,8.533,8.533,8.533h8.533
				c4.719,0,8.533-3.814,8.533-8.533S285.319,340.334,280.601,340.334z"/>
			<path d="M323.267,340.334h-8.533c-4.719,0-8.533,3.814-8.533,8.533s3.814,8.533,8.533,8.533h8.533
				c4.719,0,8.533-3.814,8.533-8.533S327.986,340.334,323.267,340.334z"/>
			<path d="M365.934,340.334h-8.533c-4.719,0-8.533,3.814-8.533,8.533s3.814,8.533,8.533,8.533h8.533
				c4.719,0,8.533-3.814,8.533-8.533S370.653,340.334,365.934,340.334z"/>
		</g>
	</g>
</g>
<g>
</g>
<g>
</g>
<g>
</g>
<g>
</g>
<g>
</g>
<g>
</g>
<g>
</g>
<g>
</g>
<g>
</g>
<g>
</g>
<g>
</g>
<g>
</g>
<g>
</g>
<g>
</g>
<g>
</g>
</svg>
