<?xml version="1.0" encoding="iso-8859-1"?>
<!-- Generator: Adobe Illustrator 19.0.0, SVG Export Plug-In . SVG Version: 6.00 Build 0)  -->
<svg version="1.1" id="Capa_1" xmlns="http://www.w3.org/2000/svg" xmlns:xlink="http://www.w3.org/1999/xlink" x="0px" y="0px"
	 viewBox="0 0 512.001 512.001" style="enable-background:new 0 0 512.001 512.001;" xml:space="preserve">
<g transform="translate(1 1)">
	<g>
		<g>
			<path d="M468.01-0.999H42.068c-14.447-0.128-25.865,11.315-26.001,25.6v460.885c0.068,6.886,2.807,13.321,7.714,18.142
				c4.847,4.762,11.247,7.373,17.954,7.373c0.085,0,0.171,0,0.256,0h425.984c0.06,0,0.128,0,0.205,0
				c6.784,0,13.184-2.611,18.039-7.373c4.907-4.821,7.646-11.264,7.714-18.227V24.516C493.797,10.316,481.927-0.931,468.01-0.999z
				 M33.134,434.201V92.868h443.742v341.333H33.134z M468.086,16.068c0.034,0,0.06,0,0.085,0c4.762,0,8.661,3.849,8.704,8.533v51.2
				H178.201V16.068H468.086z M41.906,16.068c0.034,0,0.06,0,0.085,0h119.142v59.733h-128V24.686
				C33.177,19.916,37.068,16.068,41.906,16.068z M41.906,493.934c-2.406-0.111-4.514-0.862-6.17-2.483
				c-1.656-1.63-2.586-3.806-2.603-6.05v-34.133h332.8v42.667H41.906z M474.265,491.451c-1.638,1.596-3.789,2.483-6.084,2.483
				c-0.051,0-0.119,0-0.171,0h-85.009v-42.667h93.875v34.048C476.85,487.645,475.92,489.821,474.265,491.451z"/>
			<path d="M442.734,58.734c4.719,0,8.533-3.823,8.533-8.533v-8.533c0-4.71-3.814-8.533-8.533-8.533
				c-4.719,0-8.533,3.823-8.533,8.533v8.533C434.201,54.911,438.015,58.734,442.734,58.734z"/>
			<path d="M408.601,58.734c4.719,0,8.533-3.823,8.533-8.533v-8.533c0-4.71-3.814-8.533-8.533-8.533s-8.533,3.823-8.533,8.533v8.533
				C400.067,54.911,403.882,58.734,408.601,58.734z"/>
			<path d="M67.267,58.734h59.733c4.71,0,8.533-3.823,8.533-8.533s-3.823-8.533-8.533-8.533H67.267c-4.71,0-8.533,3.823-8.533,8.533
				S62.557,58.734,67.267,58.734z"/>
			<path d="M425.667,220.868h-22.033c-20.844-71.966-91-118.905-166.076-109.824c-49.505,5.959-91.184,35.072-114.722,75.691H92.842
				c-14.054,0.043-25.532,11.52-25.574,25.6V314.76c0.043,14.063,11.52,25.54,25.6,25.574h29.771
				c23.568,40.921,65.504,70.229,115.304,76.1c6.076,0.717,12.109,1.067,18.099,1.067c67.98,0,128.708-45.115,147.704-111.3h21.922
				c9.412,0,17.067-7.654,17.067-17.067v-51.2C442.734,228.522,435.079,220.868,425.667,220.868z M92.884,323.268
				c-4.693-0.008-8.542-3.849-8.55-8.533V212.36c0.009-4.702,3.857-8.55,8.533-8.559h21.457
				c-7.858,18.533-12.181,38.864-12.156,60.1c0.028,20.968,4.289,41.042,12.003,59.366H92.884z M239.948,399.487
				c-68.727-8.115-120.619-66.406-120.704-135.603s51.661-127.625,120.363-135.902c64.989-7.787,125.963,31.614,146.161,92.885
				h-18.068c-20.075-52.749-73.805-84.238-130.192-75.341c-58.436,9.216-100.856,58.846-100.856,118.007
				c0,59.162,42.419,108.792,100.855,118.016c6.383,0.998,12.715,1.493,18.987,1.493c49.106,0,93.382-30.057,111.196-76.843h18.196
				C365.872,367.544,305.048,407.147,239.948,399.487z M340.334,306.201h8.863c-18.899,41.501-62.933,65.704-109.028,58.487
				c-50.091-7.902-86.451-50.449-86.451-101.154c0-50.714,36.361-93.252,86.443-101.154c46.075-7.264,90.133,16.968,109.032,58.487
				h-8.859c-9.412,0-17.067,7.654-17.067,17.067v51.2C323.267,298.547,330.922,306.201,340.334,306.201z M425.667,289.134h-63.885
				c-0.028,0-0.055,0-0.082,0h-21.366v-51.2h56.844c0.081-0.001,0.162,0.003,0.244,0h28.246V289.134z"/>
		</g>
	</g>
</g>
<g>
</g>
<g>
</g>
<g>
</g>
<g>
</g>
<g>
</g>
<g>
</g>
<g>
</g>
<g>
</g>
<g>
</g>
<g>
</g>
<g>
</g>
<g>
</g>
<g>
</g>
<g>
</g>
<g>
</g>
</svg>
