<?xml version="1.0" encoding="iso-8859-1"?>
<!-- Generator: Adobe Illustrator 19.0.0, SVG Export Plug-In . SVG Version: 6.00 Build 0)  -->
<svg version="1.1" id="Capa_1" xmlns="http://www.w3.org/2000/svg" xmlns:xlink="http://www.w3.org/1999/xlink" x="0px" y="0px"
	 viewBox="0 0 512 512" style="enable-background:new 0 0 512 512;" xml:space="preserve">
<g>
	<g>
		<path d="M429.181,125.49h-7.027v-21.082h7.027c5.544,0,10.039-4.495,10.039-10.039c0-5.545-4.496-10.039-10.039-10.039h-7.027
			V28.11c0-15.5-12.61-28.11-28.11-28.11H100.899c-15.505,0-28.12,12.61-28.12,28.11v455.78c0,15.5,12.615,28.11,28.12,28.11
			h246.463c41.24,0,74.792-33.551,74.792-74.792V145.569h7.027c5.544,0,10.039-4.495,10.039-10.039S434.725,125.49,429.181,125.49z
			 M402.076,437.208c0,30.169-24.544,54.714-54.714,54.714H100.899c-4.434,0-8.041-3.603-8.041-8.031V28.11
			c0-4.428,3.607-8.031,8.041-8.031h293.145c4.428,0,8.031,3.603,8.031,8.031V437.208z"/>
	</g>
</g>
<g>
	<g>
		<path d="M355.895,52.204H139.048c-5.544,0-10.039,4.495-10.039,10.039v179.702c0,5.545,4.495,10.039,10.039,10.039h216.847
			c5.544,0,10.039-4.495,10.039-10.039V62.243C365.934,56.698,361.439,52.204,355.895,52.204z M345.856,231.906H149.087V209.82
			h196.769V231.906z M345.856,189.741H149.087V72.282h196.769V189.741z"/>
	</g>
</g>
<g>
	<g>
		<path d="M206.14,321.426h-23.512v-23.512c0-5.545-4.496-10.039-10.039-10.039c-5.544,0-10.039,4.495-10.039,10.039v23.512h-23.502
			c-5.544,0-10.039,4.495-10.039,10.039c0,5.545,4.495,10.039,10.039,10.039h23.502v23.502c0,5.545,4.496,10.039,10.039,10.039
			c5.544,0,10.039-4.495,10.039-10.039v-23.502h23.512c5.544,0,10.039-4.495,10.039-10.039
			C216.179,325.92,211.684,321.426,206.14,321.426z"/>
	</g>
</g>
<g>
	<g>
		<path d="M239.512,424.086c-3.921-3.92-10.276-3.92-14.197,0l-20.831,20.831c-3.92,3.92-3.92,10.277,0,14.198
			c1.961,1.96,4.53,2.94,7.099,2.94c2.569,0,5.138-0.981,7.099-2.94l20.831-20.831C243.432,434.364,243.432,428.007,239.512,424.086
			z"/>
	</g>
</g>
<g>
	<g>
		<path d="M305.268,424.086c-3.921-3.92-10.276-3.92-14.198,0l-20.831,20.831c-3.92,3.92-3.92,10.277,0,14.198
			c1.961,1.96,4.53,2.94,7.099,2.94s5.138-0.981,7.099-2.94l20.831-20.831C309.189,434.364,309.189,428.007,305.268,424.086z"/>
	</g>
</g>
<g>
	<g>
		<path d="M331.801,281.811c-14.918,0-27.056,12.141-27.056,27.066c0,14.918,12.137,27.056,27.056,27.056
			c14.918,0,27.056-12.137,27.056-27.056C358.857,293.952,346.719,281.811,331.801,281.811z M331.801,315.854
			c-3.847,0-6.977-3.13-6.977-6.977c0-3.853,3.13-6.987,6.977-6.987c3.847,0,6.977,3.134,6.977,6.987
			C338.778,312.724,335.648,315.854,331.801,315.854z"/>
	</g>
</g>
<g>
	<g>
		<path d="M284.316,329.296c-14.918,0-27.056,12.137-27.056,27.056c0,14.924,12.137,27.066,27.056,27.066
			c14.924,0,27.066-12.141,27.066-27.066C311.381,341.434,299.24,329.296,284.316,329.296z M284.316,363.339
			c-3.847,0-6.977-3.134-6.977-6.987c0-3.848,3.13-6.977,6.977-6.977c3.853,0,6.987,3.13,6.987,6.977
			C291.303,360.205,288.169,363.339,284.316,363.339z"/>
	</g>
</g>
<g>
	<g>
		<path d="M282.828,83.827h-90.347c-5.544,0-10.039,4.495-10.039,10.039c0,5.545,4.495,10.039,10.039,10.039h90.347
			c5.544,0,10.039-4.495,10.039-10.039C292.867,88.322,288.371,83.827,282.828,83.827z"/>
	</g>
</g>
<g>
	<g>
		<path d="M314.785,83.827c-12.919,0-12.941,20.078,0,20.078C327.704,103.906,327.725,83.827,314.785,83.827z"/>
	</g>
</g>
<g>
</g>
<g>
</g>
<g>
</g>
<g>
</g>
<g>
</g>
<g>
</g>
<g>
</g>
<g>
</g>
<g>
</g>
<g>
</g>
<g>
</g>
<g>
</g>
<g>
</g>
<g>
</g>
<g>
</g>
</svg>
