<?xml version="1.0" encoding="iso-8859-1"?>
<!-- Generator: Adobe Illustrator 19.0.0, SVG Export Plug-In . SVG Version: 6.00 Build 0)  -->
<svg version="1.1" id="Capa_1" xmlns="http://www.w3.org/2000/svg" xmlns:xlink="http://www.w3.org/1999/xlink" x="0px" y="0px"
	 viewBox="0 0 512 512" style="enable-background:new 0 0 512 512;" xml:space="preserve">
<g>
	<g>
		<path d="M472.787,13.051H39.213C17.591,13.051,0,30.642,0,52.264v258.128c0,0.801,0.103,1.576,0.281,2.322v41.62
			c0,21.622,17.591,39.213,39.213,39.213h140.398v43.159h-41.07c-3.242,0-6.285,1.566-8.169,4.204l-30.118,42.165
			c-2.185,3.06-2.478,7.086-0.757,10.429c1.721,3.344,5.166,5.445,8.927,5.445h294.871c3.761,0,7.206-2.101,8.927-5.445
			s1.429-7.369-0.757-10.429l-30.118-42.165c-1.885-2.638-4.928-4.204-8.17-4.204h-41.07v-43.159h140.398
			c21.621,0,39.213-17.591,39.213-39.213v-43.942V52.264C512,30.642,494.409,13.051,472.787,13.051z M368.293,456.784l15.776,22.086
			H128.213l15.776-22.086H368.293z M199.971,436.706v-43.159H312.31v43.159H199.971z M491.922,354.334
			c0,10.55-8.583,19.135-19.135,19.135H39.494c-10.551,0-19.135-8.583-19.135-19.135v-33.902h471.562V354.334z M491.922,300.353
			H20.078V52.264c0-10.551,8.584-19.135,19.135-19.135h433.574c10.551,0,19.135,8.584,19.135,19.135V300.353z"/>
	</g>
</g>
<g>
	<g>
		<path d="M275.747,336.906h-39.213c-5.545,0-10.039,4.495-10.039,10.039s4.495,10.039,10.039,10.039h39.213
			c5.544,0,10.039-4.495,10.039-10.039S281.291,336.906,275.747,336.906z"/>
	</g>
</g>
<g>
	<g>
		<path d="M95.619,118.114H85.375c-8.428,0-15.284-6.857-15.284-15.284s6.857-15.284,15.284-15.284h10.244
			c5.545,0,10.039-4.495,10.039-10.039c0-5.545-4.495-10.039-10.039-10.039H85.375c-19.499,0-35.362,15.863-35.362,35.362
			s15.863,35.362,35.362,35.362h10.244c5.545,0,10.039-4.495,10.039-10.039C105.658,122.609,101.163,118.114,95.619,118.114z"/>
	</g>
</g>
<g>
	<g>
		<path d="M129.173,67.469c-12.919,0-12.941,20.078,0,20.078C142.092,87.547,142.113,67.469,129.173,67.469z"/>
	</g>
</g>
<g>
	<g>
		<path d="M130.512,118.114c-12.919,0-12.941,20.078,0,20.078C143.431,138.193,143.452,118.114,130.512,118.114z"/>
	</g>
</g>
<g>
	<g>
		<path d="M192.782,68.023c-5.236-1.817-10.959,0.956-12.775,6.194l-17.569,50.646c-1.817,5.238,0.956,10.959,6.194,12.776
			c1.089,0.377,2.199,0.557,3.291,0.557c4.157,0,8.045-2.603,9.484-6.752l17.569-50.646C200.793,75.559,198.02,69.84,192.782,68.023
			z"/>
	</g>
</g>
<g>
	<g>
		<path d="M317.856,166.991H152.794c-5.545,0-10.039,4.495-10.039,10.039c0,5.545,4.495,10.039,10.039,10.039h165.062
			c5.544,0,10.039-4.495,10.039-10.039C327.895,171.486,323.399,166.991,317.856,166.991z"/>
	</g>
</g>
<g>
	<g>
		<path d="M221.523,210.508H56.463c-5.545,0-10.039,4.495-10.039,10.039c0,5.545,4.495,10.039,10.039,10.039h165.061
			c5.545,0,10.039-4.495,10.039-10.039C231.563,215.003,227.068,210.508,221.523,210.508z"/>
	</g>
</g>
<g>
	<g>
		<path d="M380.581,253.663c-12.919,0-12.941,20.078,0,20.078C393.5,273.741,393.522,253.663,380.581,253.663z"/>
	</g>
</g>
<g>
	<g>
		<path d="M418.06,253.663c-12.919,0-12.941,20.078,0,20.078C430.981,273.741,431.002,253.663,418.06,253.663z"/>
	</g>
</g>
<g>
	<g>
		<path d="M455.54,253.663c-12.919,0-12.941,20.078,0,20.078C468.46,273.741,468.481,253.663,455.54,253.663z"/>
	</g>
</g>
<g>
	<g>
		<path d="M105.114,166.991H56.463c-5.545,0-10.039,4.495-10.039,10.039c0,5.545,4.495,10.039,10.039,10.039h48.651
			c5.545,0,10.039-4.495,10.039-10.039C115.153,171.486,110.658,166.991,105.114,166.991z"/>
	</g>
</g>
<g>
	<g>
		<path d="M344.439,253.663H56.463c-5.545,0-10.039,4.494-10.039,10.039s4.495,10.039,10.039,10.039h287.977
			c5.544,0,10.039-4.495,10.039-10.039S349.983,253.663,344.439,253.663z"/>
	</g>
</g>
<g>
	<g>
		<path d="M378.09,210.508H264.125c-5.544,0-10.039,4.495-10.039,10.039c0,5.545,4.496,10.039,10.039,10.039H378.09
			c5.545,0,10.039-4.495,10.039-10.039C388.129,215.003,383.634,210.508,378.09,210.508z"/>
	</g>
</g>
<g>
	<g>
		<path d="M455.54,166.991h-93.03c-5.544,0-10.039,4.495-10.039,10.039c0,5.545,4.496,10.039,10.039,10.039h93.03
			c5.544,0,10.039-4.495,10.039-10.039C465.58,171.486,461.084,166.991,455.54,166.991z"/>
	</g>
</g>
<g>
	<g>
		<path d="M423.584,63.581h-90.347c-5.544,0-10.039,4.495-10.039,10.039c0,5.545,4.495,10.039,10.039,10.039h90.347
			c5.544,0,10.039-4.495,10.039-10.039C433.623,68.076,429.127,63.581,423.584,63.581z"/>
	</g>
</g>
<g>
	<g>
		<path d="M455.54,63.581c-12.919,0-12.941,20.078,0,20.078C468.46,83.66,468.481,63.581,455.54,63.581z"/>
	</g>
</g>
<g>
</g>
<g>
</g>
<g>
</g>
<g>
</g>
<g>
</g>
<g>
</g>
<g>
</g>
<g>
</g>
<g>
</g>
<g>
</g>
<g>
</g>
<g>
</g>
<g>
</g>
<g>
</g>
<g>
</g>
</svg>
