<?xml version="1.0" encoding="iso-8859-1"?>
<!-- Generator: Adobe Illustrator 19.0.0, SVG Export Plug-In . SVG Version: 6.00 Build 0)  -->
<svg version="1.1" id="Capa_1" xmlns="http://www.w3.org/2000/svg" xmlns:xlink="http://www.w3.org/1999/xlink" x="0px" y="0px"
	 viewBox="0 0 512 512" style="enable-background:new 0 0 512 512;" xml:space="preserve">
<g>
	<g>
		<path d="M373.54,449.228c1.472-1.664,2.755-3.527,3.787-5.58c4.43-8.807,3.53-19.197-2.348-27.112l-34.865-46.958v-21.709
			c0-13.215-9.977-24.138-22.796-25.654l-14.095-121.932h13.791c6.152,0,11.948-2.397,16.336-6.766
			c4.362-4.363,6.764-10.164,6.764-16.334c0-8.981-5.278-17.217-13.459-20.99l-27.411-12.591
			c7.356-4.881,13.915-10.983,19.264-18.051c10.357-13.688,15.833-30.018,15.833-47.225C334.341,35.137,299.2,0,256.005,0
			c-43.195,0-78.336,35.137-78.336,78.326c0,17.205,5.474,33.534,15.831,47.221c5.348,7.068,11.908,13.169,19.263,18.052
			l-27.448,12.608c-4.02,1.862-7.399,4.81-9.764,8.511c-2.39,3.731-3.654,8.04-3.654,12.465c0,12.738,10.358,23.1,23.09,23.1h13.801
			l-14.103,121.932c-12.814,1.516-22.788,12.44-22.788,25.654v21.708l-34.875,46.959c-5.879,7.917-6.779,18.305-2.349,27.113
			c1.033,2.053,2.316,3.916,3.789,5.581c-4.113,5.154-6.581,11.677-6.581,18.769v33.961c0,5.545,4.495,10.039,10.039,10.039h228.161
			c5.545,0,10.039-4.495,10.039-10.039v-33.963C380.12,460.905,377.653,454.382,373.54,449.228z M197.747,78.326
			c0-32.117,26.134-58.248,58.258-58.248c32.123,0,58.258,26.13,58.258,58.248c0,25.573-17.094,48.529-41.584,55.829
			c-10.752,3.225-22.615,3.22-33.356,0c-0.004-0.001-0.008-0.002-0.011-0.003C214.839,126.846,197.747,103.89,197.747,78.326z
			 M194.986,180.202c-1.66,0.002-3.011-1.353-3.011-3.02c0-0.576,0.167-1.139,0.488-1.642c0.307-0.48,0.754-0.865,1.262-1.101
			l43.613-20.033c6.077,1.491,12.336,2.256,18.666,2.256c6.328,0,12.587-0.766,18.657-2.256l43.599,20.026
			c1.077,0.497,1.774,1.576,1.774,2.75c0,1.09-0.554,1.807-0.868,2.121c-0.413,0.411-1.12,0.899-2.153,0.899h-25.058h-71.901
			H194.986z M297.083,322.028h-82.165l14.082-121.746h54.01L297.083,322.028z M191.974,347.869c0.001-3.177,2.586-5.762,5.763-5.762
			h5.782c0.004,0,0.007,0,0.01,0h104.786c0.007,0,0.014,0.001,0.021,0.001c0.006,0,0.011-0.001,0.017-0.001h5.908
			c3.182,0,5.773,2.585,5.773,5.762v14.989h-128.06V347.869z M153.141,428.507l33.843-45.571h138.039l33.834,45.57
			c1.943,2.615,1.019,5.151,0.531,6.121c-0.488,0.97-1.974,3.224-5.231,3.224h-4.176H162.027h-4.186
			c-3.259,0-4.745-2.255-5.231-3.224C152.123,433.657,151.2,431.122,153.141,428.507z M151.959,491.922v-23.923
			c0-5.552,4.518-10.069,10.069-10.069h187.954c5.547,0,10.059,4.518,10.059,10.069v23.923H151.959z"/>
	</g>
</g>
<g>
	<g>
		<path d="M290.049,400.354h-90.347c-5.545,0-10.039,4.495-10.039,10.039s4.495,10.039,10.039,10.039h90.347
			c5.545,0,10.039-4.495,10.039-10.039S295.594,400.354,290.049,400.354z"/>
	</g>
</g>
<g>
	<g>
		<path d="M322.006,400.354c-12.919,0-12.941,20.078,0,20.078C334.925,420.432,334.946,400.354,322.006,400.354z"/>
	</g>
</g>
<g>
</g>
<g>
</g>
<g>
</g>
<g>
</g>
<g>
</g>
<g>
</g>
<g>
</g>
<g>
</g>
<g>
</g>
<g>
</g>
<g>
</g>
<g>
</g>
<g>
</g>
<g>
</g>
<g>
</g>
</svg>
