<?xml version="1.0" encoding="iso-8859-1"?>
<!-- Generator: Adobe Illustrator 19.0.0, SVG Export Plug-In . SVG Version: 6.00 Build 0)  -->
<svg version="1.1" id="Capa_1" xmlns="http://www.w3.org/2000/svg" xmlns:xlink="http://www.w3.org/1999/xlink" x="0px" y="0px"
	 viewBox="0 0 512 512" style="enable-background:new 0 0 512 512;" xml:space="preserve">
<g>
	<g>
		<path d="M302.846,18.695c-4.423-4.422-11.594-4.422-16.018,0L3.317,302.208c-4.423,4.423-4.423,11.594,0,16.017
			c2.212,2.211,5.11,3.317,8.008,3.317s5.798-1.107,8.008-3.317L302.846,34.712C307.269,30.289,307.269,23.117,302.846,18.695z"/>
	</g>
</g>
<g>
	<g>
		<path d="M334.824,395.561H51.368c-6.255,0-11.326,5.071-11.326,11.326c0,6.255,5.07,11.326,11.326,11.326h283.455
			c6.256,0,11.327-5.071,11.327-11.326C346.15,400.632,341.079,395.561,334.824,395.561z"/>
	</g>
</g>
<g>
	<g>
		<path d="M391.452,55.477c-6.255,0-11.326,5.071-11.326,11.326v283.455c0,6.255,5.07,11.326,11.326,11.326
			c6.255,0,11.326-5.071,11.326-11.326V66.803C402.778,60.548,397.707,55.477,391.452,55.477z"/>
	</g>
</g>
<g>
	<g>
		<path d="M339.162,56.339c-4.231-1.753-9.104-0.784-12.343,2.454L43.358,342.243c-3.239,3.239-4.209,8.11-2.455,12.343
			s5.883,6.991,10.464,6.991h283.461c6.255,0,11.326-5.071,11.326-11.326V66.803C346.153,62.223,343.393,58.092,339.162,56.339z
			 M323.502,338.927H78.709L323.502,94.146V338.927z"/>
	</g>
</g>
<g>
	<g>
		<path d="M83.322,93.539h-6.303v-19.82c0-6.255-5.071-11.326-11.326-11.326s-11.326,5.071-11.326,11.326v70.562
			c0,6.255,5.071,11.326,11.326,11.326h17.629c17.111,0,31.033-13.922,31.033-31.034C114.355,107.46,100.433,93.539,83.322,93.539z
			 M83.322,132.955h-6.303V116.19h6.303c4.622,0,8.381,3.76,8.381,8.382C91.703,129.194,87.943,132.955,83.322,132.955z"/>
	</g>
</g>
<g>
	<g>
		<path d="M208.646,473.97h-14.251c-3.047,0-5.525-2.478-5.525-5.525s2.478-5.525,5.525-5.525h14.251
			c6.255,0,11.326-5.071,11.326-11.326c0-6.255-5.071-11.326-11.326-11.326h-14.251c-15.537,0-28.176,12.641-28.176,28.176
			s12.64,28.176,28.176,28.176h14.251c6.255,0,11.326-5.07,11.326-11.326S214.901,473.97,208.646,473.97z"/>
	</g>
</g>
<g>
	<g>
		<path d="M500.674,222.224c-1.792,0-3.296-1.258-3.674-2.938c-0.017-0.102-0.035-0.204-0.055-0.305
			c-0.024-0.171-0.036-0.345-0.036-0.522v-24.163c0-12.192-9.919-22.11-22.111-22.11h-6.938v0
			c-16.628,0-30.156,13.528-30.156,30.156s13.527,30.156,30.156,30.156h10.446c4.68,7.431,12.958,12.378,22.37,12.378
			c6.255,0,11.326-5.071,11.326-11.326C512,227.295,506.929,222.224,500.674,222.224z M474.257,209.847h-6.398
			c-4.138,0-7.504-3.367-7.504-7.504c0-4.137,3.367-7.504,7.504-7.504h6.398V209.847z"/>
	</g>
</g>
<g>
	<g>
		<path d="M253.633,298.891H151.708c-6.255,0-11.326,5.071-11.326,11.326c0,6.255,5.07,11.326,11.326,11.326h101.925
			c6.255,0,11.326-5.071,11.326-11.326C264.959,303.961,259.888,298.891,253.633,298.891z"/>
	</g>
</g>
<g>
	<g>
		<path d="M289.686,298.891c-14.576,0-14.6,22.652,0,22.652C304.262,321.542,304.285,298.891,289.686,298.891z"/>
	</g>
</g>
<g>
</g>
<g>
</g>
<g>
</g>
<g>
</g>
<g>
</g>
<g>
</g>
<g>
</g>
<g>
</g>
<g>
</g>
<g>
</g>
<g>
</g>
<g>
</g>
<g>
</g>
<g>
</g>
<g>
</g>
</svg>
