<?xml version="1.0" encoding="iso-8859-1"?>
<!-- Generator: Adobe Illustrator 19.0.0, SVG Export Plug-In . SVG Version: 6.00 Build 0)  -->
<svg version="1.1" id="Capa_1" xmlns="http://www.w3.org/2000/svg" xmlns:xlink="http://www.w3.org/1999/xlink" x="0px" y="0px"
	 viewBox="0 0 512.001 512.001" style="enable-background:new 0 0 512.001 512.001;" xml:space="preserve">
<g>
	<g>
		<path d="M478.871,143.865c-14.765,0-27.3,9.716-31.561,23.09h-20.17c-3.885-12.84-16.334-28.376-48.857-42.243
			c-0.066-0.03-0.128-0.066-0.195-0.094c-9.76-4.148-20.755-7.893-32.739-11.179v-0.764c0-7.181-2.795-13.93-7.87-19.006
			c-5.082-5.082-11.83-7.88-19.005-7.88c-11.405,0-21.167,7.142-25.067,17.185c-25.086-3.507-51.634-5.289-79.08-5.289
			c-31.247,0-61.293,2.296-89.307,6.825c-21.183,3.428-40.446,8.014-57.255,13.631c-4.096,1.368-6.858,5.203-6.858,9.521v6.689
			c-11.248,0.031-21.819,4.425-29.776,12.384c-5.565,5.564-9.383,12.408-11.19,19.869h-9.903C4.496,166.605,0,171.1,0,176.644
			c0,5.544,4.496,10.039,10.039,10.039h9.918c4.51,18.447,21.147,32.188,40.951,32.243v7.412c0,4.322,2.766,8.158,6.866,9.524
			c7.985,2.661,16.59,5.111,25.586,7.292c4.341,2.221,6.193,7.981,6.977,12.525c4.122,23.895-10.766,67.169-39.496,93.506
			c-12.446,11.409-15.764,26.312-9.1,40.888c9.447,20.668,36.989,36.138,62.62,36.138c2.343,0,4.674-0.13,6.969-0.397
			c23.875-2.773,40.616-19.584,45.928-46.124c8.097-40.421,15.971-76.372,27.02-98.878c4.461,13.736,12.956,30.288,29.077,41.264
			c1.73,1.179,3.695,1.742,5.641,1.742c3.21,0,6.365-1.536,8.306-4.39c3.12-4.583,1.936-10.828-2.648-13.948
			c-17.782-12.108-23.115-35.154-24.631-45.17c4.013-2.717,8.333-4.007,13.309-4.007c0.451,0,0.89-0.04,1.326-0.097
			c23.775-0.388,46.813-2.12,68.642-5.17c3.828,10.186,13.666,17.455,25.174,17.455c14.819,0,26.875-12.061,26.875-26.885v-1.05
			c12.181-3.346,23.268-7.133,33.004-11.301c32.481-13.859,44.907-29.39,48.789-42.223h20.169
			c4.262,13.374,16.797,23.09,31.561,23.09c18.267,0,33.129-14.862,33.129-33.129C512.001,158.725,497.138,143.865,478.871,143.865z
			 M60.908,198.852c-12.19-0.067-22.086-10.003-22.086-22.208c0-5.935,2.311-11.515,6.506-15.71
			c4.166-4.166,9.695-6.474,15.58-6.505V198.852z M99.076,223.883c-6.267-1.5-12.325-3.136-18.09-4.886V208.89v-64.502v-9.39
			c10.886-3.308,22.807-6.189,35.599-8.618v101.223C110.594,226.467,104.725,225.231,99.076,223.883z M147.57,375.749
			c-3.645,18.211-13.253,28.345-28.556,30.123c-20.311,2.353-43.023-11.043-49.012-24.145c-3.011-6.588-1.61-12.224,4.406-17.738
			c15.593-14.294,28.839-33.983,37.293-55.439c8.014-20.336,11.084-40.851,8.423-56.283c-0.226-1.309-0.49-2.554-0.782-3.751
			c1.861,0.324,3.722,0.651,5.602,0.954c19.558,3.16,40.108,5.208,61.334,6.176C168.116,279.04,158.253,322.416,147.57,375.749z
			 M291.589,231.005c-21.682,3.079-44.649,4.81-68.425,5.152c-2.737,0.046-5.626,0.068-8.836,0.068
			c-27.031,0-53.102-1.79-77.663-5.298V123.063c24.535-3.509,50.607-5.3,77.663-5.3c26.871,0,52.818,1.756,77.262,5.223V231.005z
			 M318.474,248.414c-3.753,0-6.807-3.054-6.807-6.807v-1.968V114.351v-1.677c0-3.753,3.054-6.807,6.807-6.807
			c1.811,0,3.519,0.71,4.807,1.999c1.282,1.282,1.989,2.991,1.989,4.808v128.934h0.001
			C325.271,245.36,322.222,248.414,318.474,248.414z M364.122,213.355c-5.808,2.241-12.079,4.355-18.773,6.328v-85.372
			c6.664,1.963,12.936,4.076,18.773,6.326V213.355z M384.201,204.111v-54.228c15.651,8.728,24.365,18.283,24.365,27.111
			C408.566,185.822,399.852,195.382,384.201,204.111z M478.871,190.045c-7.191,0-13.041-5.855-13.041-13.051
			s5.85-13.051,13.041-13.051c7.196,0,13.051,5.855,13.051,13.051S486.067,190.045,478.871,190.045z"/>
	</g>
</g>
<g>
	<g>
		<path d="M221.885,137.72c-3.821-0.099-7.734-0.149-11.63-0.149c-13.206,0-26.157,0.57-38.491,1.695
			c-5.521,0.503-9.588,5.387-9.085,10.909c0.476,5.211,4.854,9.129,9.986,9.129c0.306,0,0.613-0.014,0.924-0.042
			c11.732-1.07,24.068-1.612,36.667-1.612c3.724,0,7.461,0.048,11.108,0.144c5.554,0.149,10.153-4.234,10.297-9.775
			C231.804,142.475,227.426,137.864,221.885,137.72z"/>
	</g>
</g>
<g>
	<g>
		<path d="M251.984,139.799c-12.919,0-12.941,20.078,0,20.078C264.904,159.878,264.925,139.799,251.984,139.799z"/>
	</g>
</g>
<g>
</g>
<g>
</g>
<g>
</g>
<g>
</g>
<g>
</g>
<g>
</g>
<g>
</g>
<g>
</g>
<g>
</g>
<g>
</g>
<g>
</g>
<g>
</g>
<g>
</g>
<g>
</g>
<g>
</g>
</svg>
