<?xml version="1.0" encoding="iso-8859-1"?>
<!-- Generator: Adobe Illustrator 19.0.0, SVG Export Plug-In . SVG Version: 6.00 Build 0)  -->
<svg version="1.1" id="Capa_1" xmlns="http://www.w3.org/2000/svg" xmlns:xlink="http://www.w3.org/1999/xlink" x="0px" y="0px"
	 viewBox="0 0 512.001 512.001" style="enable-background:new 0 0 512.001 512.001;" xml:space="preserve">
<g>
	<g>
		<path d="M159.97,32.795c-24.857,0-48.019,11.472-63.095,30.971c-1.073-0.052-2.136-0.078-3.185-0.078
			c-38.031,0-68.972,30.946-68.972,68.983c0,11.808,2.933,23.155,8.551,33.303C12.282,184.078,0,210.545,0,238.512
			c0,33.219,17.004,63.653,44.851,81.139c-0.708,4.387-1.064,8.839-1.064,13.311c0,20.036,7.227,39.394,20.346,54.504
			c10.975,12.639,25.452,21.634,41.44,25.887c0.663,36.425,30.499,65.852,67.08,65.852c36.988,0,67.081-30.097,67.081-67.091
			V112.569C239.734,68.582,203.952,32.795,159.97,32.795z M219.712,156.756c0,32.948-26.8,59.753-59.743,59.753
			c-5.528,0-10.011,4.482-10.011,10.011s4.483,10.011,10.011,10.011c23.762,0,45.118-10.459,59.743-27v124.985
			c-3.23-2.023-6.804-3.676-10.701-4.902c-22.836-7.182-49.839,2.544-64.207,23.126c-3.165,4.534-2.056,10.774,2.479,13.939
			c4.532,3.163,10.773,2.055,13.938-2.479c10.76-15.412,29.164-19.457,41.784-15.487c6.24,1.962,16.708,7.753,16.708,24.483v38.921
			c0,25.954-21.111,47.07-47.06,47.07c-25.954,0-47.07-21.115-47.07-47.07c0-1.816,0.117-3.701,0.347-5.602
			c0.653-5.378-3.091-10.299-8.448-11.105c-30.598-4.603-53.674-31.449-53.674-62.447c0-5.362,0.674-10.683,2.002-15.816
			c3.975-14.85,18.386-32.022,18.527-32.187c3.576-4.216,3.056-10.534-1.161-14.11c-4.215-3.576-10.533-3.055-14.109,1.161
			c-0.559,0.659-11.007,13.078-17.959,27.696c-19.407-14.162-31.087-36.721-31.087-61.195c0-24.682,12.101-47.891,32.37-62.084
			c0.064-0.045,0.122-0.098,0.185-0.144c0.148-0.109,0.298-0.214,0.441-0.332c17.879-14.745,44.749-19.84,45.006-19.888
			c5.44-0.99,9.046-6.202,8.055-11.641c-0.988-5.441-6.204-9.047-11.641-8.057c-1.128,0.205-24.412,4.572-44.899,17.486
			c-3.158-6.558-4.802-13.74-4.802-21.182c0-26.997,21.96-48.962,48.951-48.962c2.135,0,4.375,0.155,6.658,0.461
			c3.812,0.516,7.575-1.204,9.69-4.414c11.116-16.869,29.782-26.939,49.933-26.939c32.942,0,59.743,26.805,59.743,59.753V156.756z"
			/>
	</g>
</g>
<g>
	<g>
		<path d="M512.001,238.512c0-27.966-12.281-54.432-33.266-72.538c5.625-10.153,8.561-21.5,8.561-33.304
			c0-38.037-30.946-68.983-68.983-68.983c-1.049,0-2.111,0.026-3.184,0.078c-15.078-19.499-38.236-30.971-63.088-30.971
			c-43.987,0-79.774,35.787-79.774,79.774v299.546c-0.001,36.994,30.092,67.091,67.081,67.091c36.581,0,66.417-29.427,67.08-65.852
			c15.988-4.253,30.465-13.247,41.44-25.887c13.12-15.112,20.346-34.468,20.346-54.505c0-4.472-0.356-8.924-1.064-13.31
			C494.997,302.171,512.001,271.737,512.001,238.512z M460.893,299.709c-6.951-14.619-17.4-27.039-17.959-27.697
			c-3.572-4.214-9.884-4.733-14.1-1.163c-4.217,3.57-4.742,9.885-1.176,14.105c0.146,0.172,14.556,17.344,18.532,32.194
			c1.328,5.132,2.002,10.454,2.002,15.816c0,30.998-23.075,57.845-53.674,62.447c-5.358,0.806-9.102,5.727-8.448,11.105
			c0.229,1.901,0.347,3.786,0.347,5.602c0,25.954-21.115,47.07-47.07,47.07c-25.949,0-47.061-21.115-47.061-47.07v-38.922
			c0-16.73,10.469-22.52,16.709-24.483c12.623-3.969,31.026,0.076,41.784,15.487c3.163,4.534,9.406,5.643,13.938,2.479
			c4.534-3.164,5.644-9.405,2.479-13.939c-14.368-20.582-41.368-30.308-64.208-23.126c-3.898,1.226-7.471,2.879-10.701,4.902
			V209.526c14.627,16.543,35.986,27.003,59.753,27.003c5.528,0,10.011-4.482,10.011-10.011s-4.482-10.011-10.01-10.011
			c-32.948,0-59.753-26.805-59.753-59.753v-44.187c0-32.949,26.805-59.753,59.753-59.753c20.144,0,38.807,10.072,49.922,26.94
			c2.116,3.209,5.888,4.929,9.69,4.414c2.283-0.306,4.525-0.461,6.658-0.461c26.997,0,48.962,21.964,48.962,48.962
			c0,7.439-1.647,14.621-4.81,21.183c-20.486-12.915-43.763-17.282-44.891-17.487c-5.433-0.99-10.636,2.611-11.632,8.044
			c-0.997,5.433,2.603,10.647,8.034,11.651c0.269,0.05,27.131,5.145,45.009,19.89c0.149,0.123,0.305,0.233,0.459,0.346
			c0.057,0.042,0.109,0.089,0.167,0.13c20.269,14.195,32.37,37.403,32.37,62.084C491.979,262.992,480.3,285.551,460.893,299.709z"/>
	</g>
</g>
<g>
	<g>
		<path d="M415.231,248.66c-12.883,0-12.904,20.021,0,20.021C428.114,268.681,428.135,248.66,415.231,248.66z"/>
	</g>
</g>
<g>
</g>
<g>
</g>
<g>
</g>
<g>
</g>
<g>
</g>
<g>
</g>
<g>
</g>
<g>
</g>
<g>
</g>
<g>
</g>
<g>
</g>
<g>
</g>
<g>
</g>
<g>
</g>
<g>
</g>
</svg>
