<?xml version="1.0" encoding="iso-8859-1"?>
<!-- Generator: Adobe Illustrator 19.0.0, SVG Export Plug-In . SVG Version: 6.00 Build 0)  -->
<svg version="1.1" id="Capa_1" xmlns="http://www.w3.org/2000/svg" xmlns:xlink="http://www.w3.org/1999/xlink" x="0px" y="0px"
	 viewBox="0 0 512.001 512.001" style="enable-background:new 0 0 512.001 512.001;" xml:space="preserve">
<g>
	<g>
		<path d="M371.446,330.641c-5.521-0.442-10.372,3.661-10.823,9.188c-1.083,13.264-6.872,25.759-16.298,35.185
			c-21.943,21.945-57.652,21.947-79.597,0.002c-21.938-21.946-21.938-57.656-0.003-79.599c21.947-21.938,57.655-21.938,79.602,0
			c3.92,3.92,10.278,3.919,14.197-0.003c3.919-3.92,3.918-10.277-0.003-14.197c-29.772-29.762-78.217-29.762-107.993,0.003
			c-29.762,29.772-29.762,78.218,0.001,107.992c14.887,14.886,34.443,22.33,53.997,22.33s39.11-7.444,53.997-22.33
			c12.787-12.788,20.641-29.745,22.11-47.748C381.085,335.937,376.972,331.091,371.446,330.641z"/>
	</g>
</g>
<g>
	<g>
		<path d="M471.254,453.4l-66.133-66.133c10.22-19.788,14.464-42.494,11.959-64.787c-2.851-25.357-14.376-49.277-32.454-67.355
			c-2.931-2.931-6.034-5.696-9.247-8.278v-20.191c0-5.544-4.496-10.039-10.039-10.039c-6.504,0-11.796-5.292-11.796-11.796
			c0-6.509,5.292-11.806,11.796-11.806c5.544,0,10.039-4.496,10.039-10.039v-26.524c0-5.544-4.496-10.039-10.039-10.039
			c-6.504,0-11.796-5.292-11.796-11.796c0-6.504,5.292-11.796,11.796-11.796c5.544,0,10.039-4.496,10.039-10.039V86.257
			c0-5.544-4.496-10.039-10.039-10.039c-6.504,0-11.796-5.296-11.796-11.806c0-6.504,5.292-11.796,11.796-11.796
			c5.544,0,10.039-4.496,10.039-10.039V10.039C375.378,4.496,370.883,0,365.339,0h-35.167c-5.544,0-10.039,4.496-10.039,10.039
			c0,6.504-5.292,11.796-11.796,11.796c-6.504,0-11.796-5.292-11.796-11.796C296.54,4.496,292.045,0,286.501,0h-26.534
			c-5.544,0-10.039,4.496-10.039,10.039c0,6.504-5.292,11.796-11.796,11.796s-11.796-5.292-11.796-11.796
			C226.336,4.496,221.841,0,216.297,0h-26.524c-5.544,0-10.039,4.496-10.039,10.039c0,6.504-5.292,11.796-11.796,11.796
			c-6.51,0-11.807-5.292-11.807-11.796C156.131,4.496,151.635,0,146.092,0h-26.524c-5.544,0-10.039,4.496-10.039,10.039
			c0,6.504-5.292,11.796-11.796,11.796c-6.504,0-11.796-5.292-11.796-11.796C85.937,4.496,81.441,0,75.897,0H40.73
			c-5.544,0-10.039,4.496-10.039,10.039v32.537c0,5.544,4.496,10.039,10.039,10.039c6.504,0,11.796,5.292,11.796,11.796
			c0,6.509-5.292,11.806-11.796,11.806c-5.544,0-10.039,4.496-10.039,10.039v26.524c0,5.544,4.496,10.039,10.039,10.039
			c6.504,0,11.796,5.292,11.796,11.796s-5.292,11.796-11.796,11.796c-5.544,0-10.039,4.496-10.039,10.039v26.524
			c0,5.544,4.496,10.039,10.039,10.039c6.504,0,11.796,5.296,11.796,11.806c0,6.504-5.292,11.796-11.796,11.796
			c-5.544,0-10.039,4.496-10.039,10.039v26.525c0,5.544,4.496,10.039,10.039,10.039c6.504,0,11.796,5.292,11.796,11.796
			c0,6.504-5.292,11.796-11.796,11.796c-5.544,0-10.039,4.496-10.039,10.039v26.534c0,5.544,4.496,10.039,10.039,10.039
			c6.504,0,11.796,5.292,11.796,11.796c0,6.504-5.292,11.796-11.796,11.796c-5.544,0-10.039,4.496-10.039,10.039v32.537
			c0,5.544,4.496,10.039,10.039,10.039h35.166c5.544,0,10.039-4.496,10.039-10.039c0-6.509,5.292-11.807,11.796-11.807
			s11.796,5.297,11.796,11.807c0,5.544,4.496,10.039,10.039,10.039h26.524c5.544,0,10.039-4.496,10.039-10.039
			c0-6.509,5.296-11.807,11.807-11.807c6.504,0,11.796,5.297,11.796,11.807c0,5.544,4.496,10.039,10.039,10.039h26.524
			c0.881,0,1.731-0.125,2.546-0.338c1.791,2.068,3.654,4.081,5.596,6.023c18.084,18.078,42.007,29.605,67.362,32.458
			c4.197,0.473,8.408,0.706,12.612,0.706c18.133,0,36.125-4.35,52.189-12.646l66.111,66.111
			c6.487,6.485,15.108,10.057,24.276,10.057c9.176,0,17.796-3.575,24.262-10.054c6.487-6.48,10.06-15.1,10.06-24.272
			C481.31,468.506,477.738,459.885,471.254,453.4z M198.193,389.552c-4.214-12.679-16.185-21.845-30.256-21.845
			c-14.076,0-26.051,9.168-30.266,21.846h-9.683c-4.213-12.679-16.185-21.846-30.256-21.846c-14.071,0-26.042,9.168-30.256,21.846
			H50.769v-14.078c12.672-4.214,21.835-16.185,21.835-30.255s-9.163-26.04-21.835-30.255v-9.694
			c12.672-4.215,21.835-16.185,21.835-30.255s-9.163-26.04-21.835-30.255v-9.685c12.672-4.214,21.835-16.185,21.835-30.255
			c0-14.075-9.163-26.048-21.835-30.264v-9.684c12.672-4.214,21.835-16.185,21.835-30.255c0-14.07-9.163-26.04-21.835-30.255v-9.684
			c12.672-4.216,21.835-16.19,21.835-30.264c0-14.07-9.163-26.04-21.835-30.255v-14.08h16.708
			c4.214,12.672,16.185,21.835,30.255,21.835s26.04-9.163,30.255-21.835h9.684c4.216,12.672,16.191,21.835,30.265,21.835
			c14.07,0,26.04-9.163,30.255-21.835h9.684c4.214,12.672,16.185,21.835,30.255,21.835c14.07,0,26.041-9.163,30.255-21.835h9.694
			c4.214,12.672,16.185,21.835,30.255,21.835s26.04-9.163,30.255-21.835H355.3v14.078c-12.672,4.214-21.835,16.185-21.835,30.255
			c0,14.075,9.163,26.048,21.835,30.264v9.684c-12.672,4.214-21.835,16.185-21.835,30.255s9.163,26.04,21.835,30.255v9.684
			c-12.672,4.216-21.835,16.19-21.835,30.264c0,9.913,4.56,18.769,11.68,24.62c-9.759-3.75-20.02-6.122-30.574-7.042V74.411
			c0-5.544-4.496-10.039-10.039-10.039H101.538c-5.544,0-10.039,4.496-10.039,10.039v260.809c0,5.544,4.496,10.039,10.039,10.039
			h90.179c1.371,15.574,5.915,30.623,13.402,44.293H198.193z M262.265,102.4c-5.544,0-10.039,4.496-10.039,10.039v7.027h-10.401
			v-7.027c0-5.544-4.496-10.039-10.039-10.039s-10.039,4.496-10.039,10.039v7.027h-10.411v-7.027
			c0-5.544-4.496-10.039-10.039-10.039c-5.544,0-10.039,4.496-10.039,10.039v17.067v65.265h-11.344v-7.027
			c0-5.544-4.496-10.039-10.039-10.039s-10.039,4.496-10.039,10.039v7.027H148.15v-7.027c0-5.544-4.496-10.039-10.039-10.039
			c-5.544,0-10.039,4.496-10.039,10.039v17.067v41.151h-16.495V84.45H294.49v137.941c-7.553,0.66-14.965,2.06-22.186,4.204v-97.089
			v-17.067C272.305,106.896,267.809,102.4,262.265,102.4z M159.535,309.017h34.795c-1.261,5.313-2.148,10.707-2.628,16.164h-80.124
			v-59.142h103.247c-5.478,7.073-10.058,14.729-13.705,22.899h-41.585c-5.544,0-10.039,4.496-10.039,10.039
			S153.991,309.017,159.535,309.017z M148.15,245.961v-31.112h53.147c5.544,0,10.039-4.496,10.039-10.039v-65.265h40.89v95.193
			c-6.15,3.203-11.994,6.955-17.429,11.223H148.15z M353.086,414.789c-36.823,22.511-83.886,16.884-114.452-13.673
			c-4.655-4.654-8.799-9.767-12.324-15.206c-9.796-15.077-14.974-32.604-14.974-50.689c0-11.241,1.988-22.25,5.911-32.728
			c4.665-12.484,11.86-23.643,21.388-33.169c1.972-1.972,4.008-3.832,6.102-5.573c6.549-5.511,13.827-10.08,21.646-13.582
			c11.853-5.328,25.044-8.143,38.149-8.143c19.918,0,38.896,6.176,54.883,17.863c0.003,0.002,0.005,0.004,0.008,0.005
			c3.866,2.821,7.569,5.993,11.005,9.431c30.557,30.557,36.175,77.616,13.656,114.452c-3.803,6.239-8.399,12.075-13.656,17.34
			C365.178,406.366,359.345,410.967,353.086,414.789z M457.048,487.752c-2.684,2.688-6.256,4.169-10.06,4.169
			c-3.805,0-7.384-1.484-10.078-4.177l-62.993-62.993c3.751-2.913,7.335-6.064,10.715-9.443c3.377-3.382,6.523-6.965,9.427-10.708
			l62.997,62.997c2.693,2.693,4.175,6.271,4.175,10.076C461.231,481.479,459.749,485.054,457.048,487.752z"/>
	</g>
</g>
<g>
	<g>
		<path d="M231.786,148.078c-5.544,0-10.039,4.496-10.039,10.039v20.078c0,5.544,4.496,10.039,10.039,10.039
			s10.039-4.496,10.039-10.039v-20.078C241.826,152.574,237.33,148.078,231.786,148.078z"/>
	</g>
</g>
<g>
	<g>
		<path d="M154.575,101.296c-15.555,0-28.21,12.654-28.21,28.21c0,15.556,12.654,28.21,28.21,28.21
			c15.556,0,28.211-12.654,28.211-28.21C182.786,113.95,170.131,101.296,154.575,101.296z M154.575,137.638
			c-4.484,0-8.132-3.648-8.132-8.132c0-4.484,3.648-8.132,8.132-8.132c4.484,0,8.133,3.648,8.133,8.132
			C162.708,133.989,159.059,137.638,154.575,137.638z"/>
	</g>
</g>
<g>
	<g>
		<path d="M366.809,302.055c-12.919,0-12.941,20.078,0,20.078C379.728,322.133,379.749,302.055,366.809,302.055z"/>
	</g>
</g>
<g>
</g>
<g>
</g>
<g>
</g>
<g>
</g>
<g>
</g>
<g>
</g>
<g>
</g>
<g>
</g>
<g>
</g>
<g>
</g>
<g>
</g>
<g>
</g>
<g>
</g>
<g>
</g>
<g>
</g>
</svg>
