<?xml version="1.0" encoding="iso-8859-1"?>
<!-- Generator: Adobe Illustrator 19.0.0, SVG Export Plug-In . SVG Version: 6.00 Build 0)  -->
<svg version="1.1" id="Capa_1" xmlns="http://www.w3.org/2000/svg" xmlns:xlink="http://www.w3.org/1999/xlink" x="0px" y="0px"
	 viewBox="0 0 512 512" style="enable-background:new 0 0 512 512;" xml:space="preserve">
<g>
	<g>
		<path d="M382.769,0H129.23c-27.174,0-49.282,22.107-49.282,49.283v413.425c0,27.179,22.108,49.293,49.282,49.293h253.539
			c27.174,0,49.284-22.112,49.284-49.293V49.283C432.053,22.107,409.944,0,382.769,0z M411.974,462.707
			c0,16.109-13.101,29.214-29.205,29.214H129.23c-16.104,0-29.204-13.105-29.204-29.214V49.283
			c0-16.103,13.101-29.204,29.204-29.204h253.539c16.104,0,29.205,13.101,29.205,29.204V462.707z"/>
	</g>
</g>
<g>
	<g>
		<path d="M377.309,48.459H134.701c-5.545,0-10.039,4.496-10.039,10.039v349.706c0,5.544,4.495,10.039,10.039,10.039h242.608
			c5.544,0,10.039-4.496,10.039-10.039V58.499C387.348,52.954,382.853,48.459,377.309,48.459z M367.27,398.165H144.74V68.538H367.27
			V398.165z"/>
	</g>
</g>
<g>
	<g>
		<path d="M271.673,444.235h-59.506c-5.545,0-10.039,4.496-10.039,10.039s4.495,10.039,10.039,10.039h59.506
			c5.544,0,10.039-4.496,10.039-10.039S277.218,444.235,271.673,444.235z"/>
	</g>
</g>
<g>
	<g>
		<path d="M299.843,444.235c-12.919,0-12.941,20.078,0,20.078C312.763,464.314,312.784,444.235,299.843,444.235z"/>
	</g>
</g>
<g>
	<g>
		<path d="M297.846,158.683c-5.544,0-10.039,4.496-10.039,10.039v4.958c0,1.745-1.419,3.164-3.164,3.164
			c-1.745,0-3.164-1.42-3.164-3.164v-47.375h11.963c5.544,0,10.039-4.496,10.039-10.039c0-5.544-4.496-10.039-10.039-10.039h-79.29
			c-5.545,0-10.039,4.496-10.039,10.039c0,5.544,4.497,10.038,10.041,10.038h13.208v8.214c0,17.099-6.659,33.176-18.75,45.267
			c-3.92,3.92-3.92,10.277,0,14.198c1.961,1.96,4.53,2.94,7.099,2.94c2.569,0,5.139-0.981,7.099-2.94
			c15.883-15.884,24.63-37.002,24.63-59.464v-8.214H261.4v47.375c0,12.817,10.427,23.243,23.243,23.243
			c12.816,0,23.243-10.427,23.243-23.243v-4.958C307.886,163.178,303.39,158.683,297.846,158.683z"/>
	</g>
</g>
<g>
	<g>
		<path d="M298.646,329.199l5.732-5.732c3.923-3.921,3.923-10.278,0.002-14.198c-3.921-3.919-10.276-3.919-14.198,0L284.45,315
			l-5.731-5.732c-3.919-3.918-10.274-3.919-14.198,0c-3.92,3.92-3.92,10.277,0,14.198l5.732,5.732l-5.732,5.732
			c-3.92,3.92-3.92,10.277,0,14.198c1.961,1.96,4.53,2.94,7.099,2.94c2.569,0,5.138-0.981,7.099-2.94l5.731-5.732l5.731,5.732
			c1.961,1.96,4.53,2.94,7.099,2.94s5.138-0.981,7.099-2.94c3.92-3.92,3.92-10.277,0-14.198L298.646,329.199z"/>
	</g>
</g>
<g>
	<g>
		<path d="M219.487,338.408C218.593,336.219,218.994,337.507,219.487,338.408L219.487,338.408z"/>
	</g>
</g>
<g>
	<g>
		<path d="M262.447,284.181C263.343,286.369,262.94,285.081,262.447,284.181L262.447,284.181z"/>
	</g>
</g>
<g>
	<g>
		<path d="M281.299,277.576c-7.083-17.947-30.945-20.367-42.412-5.25c-3.835,5.056-6.014,11.131-7.164,17.494
			c-1.292,0-2.584,0-3.876,0c-12.919,0-12.941,20.078,0,20.078c0.998,0,1.997,0,2.995,0c0.028,0.46,0.053,0.924,0.085,1.379
			c0,0.006,0,0.012,0,0.018c0.254,3.581,0.339,7.176,0.187,10.764c-0.051,1.207-0.138,2.409-0.236,3.612
			c-0.045,0.552-0.106,1.105-0.172,1.655c-0.018,0.11-0.038,0.231-0.063,0.369c-0.481,2.661-1.073,5.287-2.019,7.827
			c-0.002,0.006-0.003,0.009-0.005,0.015c-0.022,0.041-0.041,0.078-0.068,0.132c-0.271,0.534-0.589,1.055-0.849,1.592
			c-0.278,0.577-0.37,0.794-0.397,0.861c0.027-0.086,0.051-0.289-0.636,0.618c-0.06,0.079-0.41,0.407-0.648,0.638
			c-0.262,0.18-0.59,0.408-0.684,0.453c-0.191,0.091-0.294,0.147-0.345,0.18c-0.473,0.151-0.951,0.282-1.438,0.381
			c-0.084-0.006-0.191-0.011-0.348-0.012c-1.063-0.01-0.048,0.15-1.212-0.022c-0.206-0.031-0.348-0.048-0.447-0.056
			c-0.062-0.038-0.179-0.095-0.393-0.185c-0.068-0.028-0.12-0.049-0.174-0.071c-0.06-0.032-0.133-0.071-0.23-0.121
			c-0.076-0.04-0.34-0.309-0.569-0.545c-0.138-0.19-0.295-0.398-0.349-0.454c-0.109-0.116-0.229-0.307-0.345-0.519
			c0.139,0.338,0.303,0.748,0.509,1.268c-1.989-5.041-6.72-8.558-12.349-7.011c-4.801,1.319-9.013,7.277-7.011,12.349
			c7.083,17.947,30.945,20.367,42.412,5.25c8.131-10.719,8.878-25.999,7.961-38.951c0-0.006,0-0.012,0-0.012
			c-0.033-0.471-0.055-0.938-0.082-1.403c1.624,0,3.249,0,4.874,0c12.919-0.001,12.941-20.079-0.001-20.079
			c-1.122,0-2.244,0-3.366,0c0.259-0.926,0.539-1.846,0.876-2.753c0.002-0.006,0.003-0.009,0.005-0.015
			c0.022-0.042,0.041-0.078,0.068-0.132c0.271-0.534,0.589-1.055,0.849-1.592c0.278-0.577,0.37-0.794,0.397-0.861
			c-0.027,0.086-0.05,0.288,0.638-0.619c0.06-0.079,0.41-0.407,0.648-0.637c0.262-0.18,0.59-0.408,0.684-0.453
			c0.191-0.092,0.294-0.148,0.345-0.18c0.473-0.151,0.951-0.282,1.439-0.382c0.084,0.006,0.191,0.01,0.347,0.012
			c1.063,0.01,0.048-0.15,1.212,0.023c0.206,0.03,0.348,0.048,0.447,0.056c0.062,0.038,0.179,0.095,0.393,0.184
			c0.069,0.028,0.12,0.049,0.175,0.071c0.06,0.032,0.133,0.071,0.23,0.122c0.076,0.04,0.34,0.309,0.569,0.545
			c0.138,0.19,0.296,0.398,0.349,0.455c0.109,0.116,0.229,0.307,0.344,0.519c-0.138-0.338-0.303-0.748-0.509-1.268
			c1.989,5.041,6.72,8.558,12.349,7.011C279.088,288.606,283.301,282.648,281.299,277.576z M230.728,327.196
			C230.786,326.756,230.783,326.846,230.728,327.196L230.728,327.196z"/>
	</g>
</g>
<g>
	<g>
		<path d="M331.331,223.31H183.172c-5.545,0-10.039,4.496-10.039,10.039s4.495,10.039,10.039,10.039h148.159
			c5.544,0,10.039-4.496,10.039-10.039S336.875,223.31,331.331,223.31z"/>
	</g>
</g>
<g>
</g>
<g>
</g>
<g>
</g>
<g>
</g>
<g>
</g>
<g>
</g>
<g>
</g>
<g>
</g>
<g>
</g>
<g>
</g>
<g>
</g>
<g>
</g>
<g>
</g>
<g>
</g>
<g>
</g>
</svg>
