<?xml version="1.0" encoding="iso-8859-1"?>
<!-- Generator: Adobe Illustrator 19.0.0, SVG Export Plug-In . SVG Version: 6.00 Build 0)  -->
<svg version="1.1" id="Capa_1" xmlns="http://www.w3.org/2000/svg" xmlns:xlink="http://www.w3.org/1999/xlink" x="0px" y="0px"
	 viewBox="0 0 512.001 512.001" style="enable-background:new 0 0 512.001 512.001;" xml:space="preserve">
<g>
	<g>
		<path d="M246.904,292.735c-3.127,0-6.219,0.372-9.216,1.096V247.96v-62.052c0-3.939-2.304-7.514-5.891-9.142
			c-3.587-1.627-7.795-1.007-10.76,1.587c-3.503,3.066-7.989,4.754-12.633,4.754c-10.6,0-19.225-8.625-19.225-19.224
			c0-10.596,8.625-19.216,19.225-19.216c4.651,0,9.135,1.687,12.626,4.748c2.964,2.599,7.173,3.222,10.762,1.596
			c3.59-1.626,5.896-5.203,5.896-9.144V79.813c0-5.544-4.495-10.039-10.039-10.039h-62.042c-3.939,0-7.514,2.304-9.142,5.891
			c-1.627,3.586-1.007,7.794,1.587,10.759c3.066,3.504,4.755,7.994,4.755,12.644c0,10.595-8.625,19.216-19.225,19.216
			c-10.595,0-19.215-8.621-19.215-19.216c0-4.657,1.686-9.145,4.748-12.636c2.598-2.963,3.223-7.173,1.596-10.762
			c-1.626-3.59-5.203-5.896-9.144-5.896H59.512c-5.545,0-10.039,4.496-10.039,10.039v46.104c-3.283-0.876-6.695-1.329-10.17-1.329
			C17.631,124.588,0,142.215,0,163.881c0,21.672,17.631,39.302,39.304,39.302c3.474,0,6.888-0.453,10.17-1.329v46.105v62.052
			c0,3.941,2.306,7.517,5.896,9.144c3.59,1.627,7.799,1.002,10.762-1.596c3.491-3.061,7.978-4.748,12.636-4.748
			c10.595,0,19.215,8.621,19.215,19.216c0,10.595-8.62,19.215-19.215,19.215c-4.658,0-9.146-1.687-12.636-4.748
			c-2.963-2.599-7.172-3.225-10.762-1.596c-3.59,1.626-5.896,5.203-5.896,9.144v62.052c0,5.544,4.495,10.039,10.039,10.039h45.871
			c-0.724,2.996-1.096,6.088-1.096,9.217c0,21.667,17.627,39.294,39.294,39.294c21.672,0,39.304-17.627,39.304-39.294
			c0-3.126-0.373-6.218-1.098-9.217h45.863c5.545,0,10.039-4.496,10.039-10.039v-45.87c2.997,0.724,6.088,1.096,9.216,1.096
			c21.672,0,39.304-17.627,39.304-39.293S268.576,292.735,246.904,292.735z M63.454,175.791c-3.698-1.577-7.981-0.798-10.885,1.984
			c-3.59,3.437-8.3,5.332-13.265,5.332c-10.6,0-19.225-8.625-19.225-19.224c0-10.596,8.625-19.216,19.225-19.216
			c4.963,0,9.677,1.892,13.272,5.33c2.905,2.777,7.186,3.552,10.883,1.975c3.696-1.58,6.094-5.211,6.094-9.231V89.852h35.83
			c-0.722,2.995-1.094,6.087-1.094,9.216c0,21.667,17.627,39.294,39.294,39.294c21.672,0,39.304-17.628,39.304-39.294
			c0-3.127-0.373-6.219-1.096-9.216h35.822v35.828c-2.992-0.722-6.081-1.093-9.206-1.093c-21.672,0-39.304,17.628-39.304,39.294
			c0,21.672,17.632,39.302,39.304,39.302c3.124,0,6.212-0.372,9.206-1.095v35.831h-52.003c-3.939,0-7.514,2.304-9.142,5.891
			c-1.627,3.586-1.007,7.794,1.587,10.759c3.066,3.504,4.755,7.991,4.755,12.634c0,10.6-8.625,19.224-19.225,19.224
			c-10.595,0-19.215-8.625-19.215-19.224c0-4.651,1.686-9.136,4.748-12.626c2.598-2.963,3.223-7.173,1.596-10.762
			c-1.626-3.59-5.203-5.896-9.144-5.896H69.552v-52.896C69.552,181.002,67.152,177.369,63.454,175.791z M246.904,351.243
			c-4.651,0-9.141-1.689-12.643-4.753c-2.964-2.595-7.171-3.215-10.759-1.588c-3.588,1.627-5.892,5.203-5.892,9.142v52.013h-52.003
			c-3.937,0-7.511,2.302-9.14,5.886c-1.628,3.585-1.011,7.791,1.578,10.757c3.07,3.515,4.761,8.008,4.761,12.652
			c0,10.595-8.625,19.215-19.225,19.215c-10.595,0-19.215-8.62-19.215-19.215c0-4.651,1.689-9.142,4.754-12.644
			c2.594-2.965,3.216-7.173,1.588-10.76c-1.627-3.587-5.203-5.891-9.142-5.891H69.552v-35.83c2.996,0.723,6.087,1.095,9.216,1.095
			c21.667,0,39.293-17.627,39.293-39.293s-17.627-39.294-39.293-39.294c-3.129,0-6.22,0.372-9.216,1.094v-35.83h35.829
			c-0.722,2.992-1.093,6.081-1.093,9.206c0,21.672,17.627,39.302,39.294,39.302c21.672,0,39.304-17.632,39.304-39.302
			c0-3.123-0.372-6.212-1.095-9.206h35.821v52.003c0,3.937,2.302,7.511,5.886,9.14c3.585,1.628,7.79,1.012,10.757-1.578
			c3.508-3.064,8.001-4.751,12.651-4.751c10.6,0,19.225,8.621,19.225,19.216C266.13,342.624,257.505,351.243,246.904,351.243z"/>
	</g>
</g>
<g>
	<g>
		<path d="M472.697,140.681c-3.125,0-6.213,0.371-9.206,1.093V95.906c0-5.544-4.495-10.039-10.039-10.039h-45.873
			c0.725-2.998,1.098-6.089,1.098-9.217c0-21.667-17.632-39.294-39.304-39.294c-21.667,0-39.294,17.627-39.294,39.294
			c0,3.128,0.373,6.219,1.096,9.217h-45.871c-5.545,0-10.039,4.496-10.039,10.039v62.052c0,3.939,2.304,7.514,5.892,9.142
			c3.589,1.629,7.796,1.008,10.76-1.588c3.502-3.065,7.991-4.753,12.643-4.753c10.595,0,19.215,8.62,19.215,19.215
			c0,10.601-8.62,19.225-19.215,19.225c-4.643,0-9.137-1.691-12.651-4.76c-2.966-2.59-7.171-3.208-10.756-1.579
			s-5.887,5.203-5.887,9.14v62.042c0,5.544,4.495,10.039,10.039,10.039h45.871c-0.723,2.997-1.096,6.088-1.096,9.217
			c0,21.672,17.627,39.302,39.293,39.302c21.672,0,39.304-17.632,39.304-39.302c0-3.126-0.373-6.218-1.098-9.217h45.873
			c5.545,0,10.039-4.496,10.039-10.039v-45.86c2.993,0.723,6.082,1.095,9.206,1.095c21.672,0,39.304-17.632,39.304-39.304
			C512,158.307,494.368,140.681,472.697,140.681z M472.697,199.199c-4.644,0-9.131-1.689-12.633-4.754
			c-2.965-2.593-7.172-3.214-10.76-1.587c-3.587,1.627-5.891,5.203-5.891,9.142v52.003h-52.013c-3.937,0-7.511,2.302-9.14,5.886
			c-1.628,3.585-1.011,7.791,1.578,10.757c3.07,3.515,4.761,8.008,4.761,12.652c0,10.6-8.625,19.224-19.225,19.224
			c-10.595,0-19.215-8.625-19.215-19.224c0-4.652,1.689-9.142,4.753-12.644c2.595-2.964,3.217-7.172,1.588-10.76
			c-1.627-3.587-5.202-5.891-9.142-5.891h-52.013v-35.824c2.998,0.725,6.09,1.098,9.216,1.098c21.667,0,39.294-17.632,39.294-39.304
			c0-21.667-17.627-39.293-39.294-39.293c-3.127,0-6.22,0.372-9.216,1.096v-35.832h52.013c3.939,0,7.514-2.304,9.142-5.891
			c1.628-3.588,1.007-7.796-1.588-10.76c-3.065-3.502-4.753-7.992-4.753-12.644c0-10.595,8.62-19.215,19.215-19.215
			c10.6,0,19.225,8.62,19.225,19.215c0,4.643-1.691,9.138-4.761,12.652c-2.59,2.966-3.206,7.172-1.578,10.757
			c1.629,3.584,5.203,5.886,9.14,5.886h52.013v52.013c0,3.941,2.306,7.517,5.896,9.144c3.591,1.628,7.799,1.001,10.763-1.596
			c3.491-3.062,7.973-4.748,12.625-4.748c10.6,0,19.225,8.62,19.225,19.215C491.922,190.574,483.297,199.199,472.697,199.199z"/>
	</g>
</g>
<g>
	<g>
		<path d="M415.624,157.695c-5.545,0-10.039,4.496-10.039,10.039v55.807c0,5.544,4.495,10.039,10.039,10.039
			s10.039-4.496,10.039-10.039v-55.807C425.663,162.191,421.168,157.695,415.624,157.695z"/>
	</g>
</g>
<g>
	<g>
		<path d="M415.624,125.738c-12.919,0-12.941,20.078,0,20.078C428.543,145.817,428.564,125.738,415.624,125.738z"/>
	</g>
</g>
<g>
</g>
<g>
</g>
<g>
</g>
<g>
</g>
<g>
</g>
<g>
</g>
<g>
</g>
<g>
</g>
<g>
</g>
<g>
</g>
<g>
</g>
<g>
</g>
<g>
</g>
<g>
</g>
<g>
</g>
</svg>
