<?xml version="1.0" encoding="iso-8859-1"?>
<!-- Generator: Adobe Illustrator 19.0.0, SVG Export Plug-In . SVG Version: 6.00 Build 0)  -->
<svg version="1.1" id="Capa_1" xmlns="http://www.w3.org/2000/svg" xmlns:xlink="http://www.w3.org/1999/xlink" x="0px" y="0px"
	 viewBox="0 0 512 512" style="enable-background:new 0 0 512 512;" xml:space="preserve">
<g>
	<g>
		<path d="M468.49,245.961h-32.788c-5.545,0-10.039,4.496-10.039,10.039c0,5.544,4.495,10.039,10.039,10.039h32.788
			c12.92,0,23.432,10.507,23.432,23.421v97.049c0,12.914-10.511,23.421-23.432,23.421H348.03V266.039h26.768
			c5.545,0,10.039-4.496,10.039-10.039c0-5.544-4.495-10.039-10.039-10.039H337.99H202.893c-6.833,0-13.257,1.775-18.844,4.88
			V125.49c0-23.987-19.514-43.5-43.5-43.5H43.51C19.518,81.99,0,101.503,0,125.49V256v130.51c0,23.987,19.518,43.5,43.51,43.5
			h97.039c12.76,0,24.254-5.524,32.219-14.305c7.144,8.725,17.993,14.305,30.125,14.305H337.99h130.5
			c23.991,0,43.51-19.514,43.51-43.5v-97.049C512,265.475,492.482,245.961,468.49,245.961z M163.971,284.873V386.51
			c0,12.914-10.507,23.421-23.422,23.421H43.51c-12.92,0-23.432-10.507-23.432-23.421V266.039h143.892V284.873z M163.971,245.961
			H20.078V125.49c0-12.914,10.511-23.421,23.432-23.421h97.039c12.914,0,23.422,10.507,23.422,23.421V245.961z M327.951,409.931
			H202.893c-10.391,0-18.844-8.449-18.844-18.834V284.873c0-10.385,8.453-18.834,18.844-18.834h125.059V409.931z"/>
	</g>
</g>
<g>
	<g>
		<path d="M59.678,133.804c-12.919,0-12.941,20.078,0,20.078C72.598,153.882,72.619,133.804,59.678,133.804z"/>
	</g>
</g>
<g>
	<g>
		<path d="M124.378,133.804c-12.919,0-12.941,20.078,0,20.078C137.297,153.882,137.318,133.804,124.378,133.804z"/>
	</g>
</g>
<g>
	<g>
		<path d="M59.678,194.145c-12.919,0-12.941,20.078,0,20.078C72.598,214.224,72.619,194.145,59.678,194.145z"/>
	</g>
</g>
<g>
	<g>
		<path d="M124.378,194.145c-12.919,0-12.941,20.078,0,20.078C137.297,214.224,137.318,194.145,124.378,194.145z"/>
	</g>
</g>
<g>
	<g>
		<path d="M387.622,297.776c-12.919,0-12.941,20.078,0,20.078C400.542,317.855,400.563,297.776,387.622,297.776z"/>
	</g>
</g>
<g>
	<g>
		<path d="M452.322,297.776c-12.919,0-12.941,20.078,0,20.078C465.241,317.855,465.262,297.776,452.322,297.776z"/>
	</g>
</g>
<g>
	<g>
		<path d="M387.622,358.118c-12.919,0-12.941,20.078,0,20.078C400.542,378.196,400.563,358.118,387.622,358.118z"/>
	</g>
</g>
<g>
	<g>
		<path d="M452.322,358.118c-12.92,0-12.942,20.078,0,20.078C465.241,378.196,465.262,358.118,452.322,358.118z"/>
	</g>
</g>
<g>
	<g>
		<path d="M419.972,327.947c-12.919,0-12.941,20.078,0,20.078C432.891,348.025,432.912,327.947,419.972,327.947z"/>
	</g>
</g>
<g>
	<g>
		<path d="M59.678,297.776c-12.919,0-12.941,20.078,0,20.078C72.599,317.855,72.62,297.776,59.678,297.776z"/>
	</g>
</g>
<g>
	<g>
		<path d="M92.029,327.947c-12.919,0-12.941,20.078,0,20.078C104.948,348.025,104.969,327.947,92.029,327.947z"/>
	</g>
</g>
<g>
	<g>
		<path d="M124.378,358.118c-12.919,0-12.941,20.078,0,20.078C137.297,378.196,137.319,358.118,124.378,358.118z"/>
	</g>
</g>
<g>
	<g>
		<path d="M223.651,297.776c-12.919,0-12.941,20.078,0,20.078C236.57,317.855,236.591,297.776,223.651,297.776z"/>
	</g>
</g>
<g>
	<g>
		<path d="M256,327.947c-12.919,0-12.941,20.078,0,20.078C268.919,348.025,268.941,327.947,256,327.947z"/>
	</g>
</g>
<g>
	<g>
		<path d="M288.349,358.118c-12.919,0-12.941,20.078,0,20.078C301.269,378.196,301.291,358.118,288.349,358.118z"/>
	</g>
</g>
<g>
	<g>
		<path d="M405.584,245.958c-12.919,0-12.941,20.078,0,20.078C418.504,266.036,418.525,245.958,405.584,245.958z"/>
	</g>
</g>
<g>
</g>
<g>
</g>
<g>
</g>
<g>
</g>
<g>
</g>
<g>
</g>
<g>
</g>
<g>
</g>
<g>
</g>
<g>
</g>
<g>
</g>
<g>
</g>
<g>
</g>
<g>
</g>
<g>
</g>
</svg>
