<?xml version="1.0" encoding="iso-8859-1"?>
<!-- Generator: Adobe Illustrator 19.0.0, SVG Export Plug-In . SVG Version: 6.00 Build 0)  -->
<svg version="1.1" id="Capa_1" xmlns="http://www.w3.org/2000/svg" xmlns:xlink="http://www.w3.org/1999/xlink" x="0px" y="0px"
	 viewBox="0 0 512 512" style="enable-background:new 0 0 512 512;" xml:space="preserve">
<g>
	<g>
		<path d="M413.746,92.813h-15.59v-0.221c0-25.463-20.717-46.18-46.18-46.18h-15.591V46.18c0-25.464-20.716-46.18-46.18-46.18
			H98.254c-25.463,0-46.18,20.717-46.18,46.18v326.817c0,25.469,20.717,46.19,46.18,46.19h15.591v0.221
			c0,25.463,20.717,46.18,46.18,46.18h15.59v0.231c0,25.464,20.717,46.18,46.18,46.18h191.95c25.463,0,46.18-20.717,46.18-46.18
			V139.003C459.926,113.534,439.209,92.813,413.746,92.813z M98.254,399.109c-14.392,0-26.102-11.714-26.102-26.112V46.18
			c0-14.393,11.71-26.102,26.102-26.102h191.95c14.393,0,26.102,11.709,26.102,26.102v326.817c0,14.398-11.709,26.112-26.102,26.112
			H98.254z M160.026,445.51c-14.393,0-26.102-11.709-26.102-26.102v-0.221h156.28c25.464,0,46.18-20.721,46.18-46.19V66.49h15.591
			c14.393,0,26.102,11.709,26.102,26.102v326.817c0,14.393-11.709,26.102-26.102,26.102H160.026z M439.849,465.82
			c0,14.393-11.71,26.102-26.102,26.102h-191.95c-14.393,0-26.102-11.709-26.102-26.102v-0.231h156.28
			c25.464,0,46.18-20.717,46.18-46.18V112.891h15.591c14.392,0,26.102,11.714,26.102,26.112V465.82z"/>
	</g>
</g>
<g>
	<g>
		<path d="M241.515,248.832h-15.823V100.874c0-4.595-1.893-9.069-5.205-12.284l-14.383-13.92
			c-6.662-6.417-17.093-6.415-23.765,0.017l-14.38,13.916c-3.3,3.206-5.192,7.678-5.192,12.272v147.958h-15.822v-0.001
			c-5.544,0-10.039,4.496-10.039,10.039s4.496,10.039,10.039,10.039h15.822v44.193c0,17.349,14.114,31.463,31.463,31.463
			c8.406,0,16.307-3.273,22.247-9.214c5.943-5.942,9.216-13.843,9.216-22.249V268.91h15.823c5.544,0,10.039-4.496,10.039-10.039
			S247.059,248.832,241.515,248.832z M205.614,313.103c0,3.042-1.184,5.9-3.335,8.051c-2.149,2.15-5.007,3.333-8.049,3.333
			c-6.278,0-11.384-5.107-11.384-11.384V268.91h22.769V313.103z M205.614,248.832h-22.769V102.137l11.384-11.017l11.384,11.018
			V248.832z"/>
	</g>
</g>
<g>
	<g>
		<path d="M140.381,67.871h-7.089v-7.089c0-5.544-4.496-10.039-10.039-10.039c-5.544,0-10.039,4.496-10.039,10.039v7.089h-7.088
			c-5.544,0-10.039,4.496-10.039,10.039s4.496,10.039,10.039,10.039h7.088v7.088c0,5.544,4.496,10.039,10.039,10.039
			c5.544,0,10.039-4.496,10.039-10.039V87.95h7.089c5.544,0,10.039-4.496,10.039-10.039S145.925,67.871,140.381,67.871z"/>
	</g>
</g>
<g>
	<g>
		<path d="M288.247,164.44h-7.088v-7.089c0-5.544-4.496-10.039-10.039-10.039c-5.544,0-10.039,4.496-10.039,10.039v7.089h-7.089
			c-5.544,0-10.039,4.496-10.039,10.039c0,5.544,4.496,10.039,10.039,10.039h7.089v7.088c0,5.544,4.496,10.039,10.039,10.039
			c5.544,0,10.039-4.496,10.039-10.039v-7.088h7.088c5.544,0,10.039-4.496,10.039-10.039
			C298.287,168.936,293.791,164.44,288.247,164.44z"/>
	</g>
</g>
<g>
	<g>
		<path d="M245.668,50.652c-12.919,0-12.941,20.078,0,20.078C258.588,70.73,258.609,50.652,245.668,50.652z"/>
	</g>
</g>
<g>
	<g>
		<path d="M275.835,86.233c-12.919,0-12.942,20.078,0,20.078C288.754,106.311,288.776,86.233,275.835,86.233z"/>
	</g>
</g>
<g>
	<g>
		<path d="M126.549,145.793c-12.919,0-12.941,20.078,0,20.078C139.468,165.871,139.49,145.793,126.549,145.793z"/>
	</g>
</g>
<g>
	<g>
		<path d="M103.344,193.75c-12.919,0-12.941,20.078,0,20.078C116.264,213.828,116.285,193.75,103.344,193.75z"/>
	</g>
</g>
<g>
	<g>
		<path d="M257.37,359.404h-90.347c-5.544,0-10.039,4.496-10.039,10.039c0,5.544,4.496,10.039,10.039,10.039h90.347
			c5.544,0,10.039-4.496,10.039-10.039C267.409,363.899,262.914,359.404,257.37,359.404z"/>
	</g>
</g>
<g>
	<g>
		<path d="M289.327,359.404c-12.919,0-12.941,20.078,0,20.078C302.246,379.482,302.268,359.404,289.327,359.404z"/>
	</g>
</g>
<g>
</g>
<g>
</g>
<g>
</g>
<g>
</g>
<g>
</g>
<g>
</g>
<g>
</g>
<g>
</g>
<g>
</g>
<g>
</g>
<g>
</g>
<g>
</g>
<g>
</g>
<g>
</g>
<g>
</g>
</svg>
