<?xml version="1.0" encoding="iso-8859-1"?>
<!-- Generator: Adobe Illustrator 19.0.0, SVG Export Plug-In . SVG Version: 6.00 Build 0)  -->
<svg version="1.1" id="Capa_1" xmlns="http://www.w3.org/2000/svg" xmlns:xlink="http://www.w3.org/1999/xlink" x="0px" y="0px"
	 viewBox="0 0 512 512" style="enable-background:new 0 0 512 512;" xml:space="preserve">
<g>
	<g>
		<path d="M403.911,316.095h-76.04c-5.544,0-10.039,4.496-10.039,10.039s4.496,10.039,10.039,10.039h76.04
			c5.544,0,10.039-4.496,10.039-10.039S409.454,316.095,403.911,316.095z"/>
	</g>
</g>
<g>
	<g>
		<path d="M501.961,296.388h-20.428c-7.176-12.467-20.593-20.45-35.32-20.45h-14.17c-0.127-25.276-12.828-48.438-33.67-62.148
			c0.397-2.924,0.596-5.878,0.596-8.84c0-15.737-5.676-30.94-15.983-42.811c-8.212-9.457-18.921-16.315-30.773-19.828
			c-1.478-28.005-24.722-50.333-53.083-50.333c-17.738,0-33.465,8.74-43.128,22.131c-9.664-13.391-25.39-22.131-43.128-22.131
			c-28.365,0-51.614,22.329-53.093,50.333c-11.854,3.514-22.561,10.37-30.774,19.829c-10.307,11.869-15.982,27.073-15.982,42.81
			c0,2.966,0.2,5.921,0.597,8.844c-20.841,13.709-33.544,36.869-33.671,62.144H65.797c-14.734,0-28.154,7.987-35.324,20.45H10.039
			C4.495,296.388,0,300.884,0,306.427c0,5.544,4.495,10.039,10.039,10.039h15.046c-0.009,2.045,0.115,4.096,0.412,6.133l1.154,7.815
			c3.661,24.892,16.166,47.658,35.209,64.104c19.041,16.444,43.382,25.501,68.54,25.501c24.978,0,49.187-8.94,68.167-25.172
			s31.565-38.759,35.436-63.432l1.325-8.435c0.339-2.16,0.484-4.34,0.474-6.514h40.396c-0.009,2.045,0.117,4.093,0.418,6.123
			l1.146,7.83c3.667,24.892,16.173,47.657,35.214,64.101c19.041,16.444,43.384,25.501,68.545,25.501
			c24.978,0,49.186-8.94,68.166-25.172s31.564-38.759,35.436-63.431l1.325-8.436c0.339-2.16,0.484-4.34,0.475-6.514h15.039
			c5.544,0,10.039-4.496,10.039-10.039C512,300.885,507.504,296.388,501.961,296.388z M215.493,319.868l-1.325,8.435
			c-6.513,41.511-41.743,71.639-83.768,71.639c-41.746,0-77.808-31.146-83.886-72.453l-1.151-7.805
			c-0.496-3.401-0.177-6.727,0.955-9.904c2.917-8.232,10.746-13.764,19.48-13.764h129.295c8.735,0,16.564,5.532,19.48,13.764
			c0.001,0.004,0.003,0.008,0.004,0.012C215.727,313.024,216.034,316.415,215.493,319.868z M281.59,296.388h-51.176
			c-7.174-12.467-20.591-20.45-35.321-20.45h-95.066c0.114-16.548,7.596-31.848,20.118-42.055
			c5.085,9.753,11.579,17.568,12.565,18.73c1.986,2.343,4.815,3.548,7.663,3.548c2.294,0,4.6-0.781,6.486-2.38
			c4.229-3.585,4.753-9.921,1.168-14.15c-2.944-3.473-11.095-14.429-13.489-23.347c-0.954-3.674-1.438-7.487-1.438-11.332
			c0-22.211,16.528-41.443,38.445-44.737c5.365-0.806,9.119-5.727,8.477-11.114c-0.16-1.341-0.241-2.671-0.241-3.953
			c0-18.245,14.844-33.089,33.089-33.089c18.245,0,33.09,14.845,33.09,33.09v29.405c0,10.509-5.925,14.578-10.897,16.141
			c-8.464,2.661-21.432-0.207-28.798-10.763c-3.173-4.548-9.433-5.663-13.978-2.488c-4.547,3.172-5.661,9.431-2.488,13.978
			c8.919,12.78,23.966,20.308,38.808,20.308c4.224,0,8.433-0.609,12.479-1.881c1.706-0.536,3.322-1.189,4.874-1.917v68.39
			c0,5.544,4.495,10.039,10.039,10.039c5.544,0,10.039-4.496,10.039-10.039v-68.39c1.552,0.729,3.168,1.381,4.874,1.917
			c4.047,1.273,8.253,1.882,12.479,1.881c14.841-0.001,29.889-7.528,38.808-20.308c3.172-4.547,2.059-10.805-2.489-13.979
			c-4.546-3.17-10.805-2.059-13.979,2.489c-7.367,10.556-20.341,13.422-28.797,10.763c-4.971-1.563-10.897-5.632-10.897-16.141
			v-29.405c0-18.245,14.844-33.089,33.089-33.089c18.24,0,33.079,14.844,33.079,33.089c0,1.278-0.081,2.609-0.241,3.953
			c-0.643,5.387,3.113,10.309,8.477,11.114c21.918,3.293,38.446,22.526,38.446,44.737c0,3.832-0.482,7.647-1.431,11.337
			c-2.387,8.852-10.552,19.853-13.498,23.341c-3.584,4.23-3.062,10.564,1.168,14.15c1.887,1.599,4.192,2.38,6.486,2.38
			c2.848,0,5.677-1.206,7.664-3.548c0.986-1.163,7.481-8.979,12.569-18.732c12.52,10.208,20,25.51,20.114,42.057h-95.053
			C302.186,275.938,288.77,283.923,281.59,296.388z M466.614,319.867l-1.325,8.436c-6.513,41.511-41.743,71.639-83.767,71.639
			c-41.742,0-77.81-31.147-83.893-72.442l-1.147-7.834c-0.414-2.8-0.259-5.556,0.442-8.221c0.592-1.024,1.006-2.16,1.207-3.371
			c3.347-7.279,10.673-12.057,18.779-12.057h129.305c8.732,0,16.561,5.533,19.481,13.767c0.001,0.003,0.003,0.007,0.004,0.011
			C466.847,313.024,467.156,316.414,466.614,319.867z"/>
	</g>
</g>
<g>
	<g>
		<path d="M435.14,316.095c-12.919,0-12.941,20.078,0,20.078C448.059,336.174,448.08,316.095,435.14,316.095z"/>
	</g>
</g>
<g>
</g>
<g>
</g>
<g>
</g>
<g>
</g>
<g>
</g>
<g>
</g>
<g>
</g>
<g>
</g>
<g>
</g>
<g>
</g>
<g>
</g>
<g>
</g>
<g>
</g>
<g>
</g>
<g>
</g>
</svg>
