<?xml version="1.0" encoding="iso-8859-1"?>
<!-- Generator: Adobe Illustrator 19.0.0, SVG Export Plug-In . SVG Version: 6.00 Build 0)  -->
<svg version="1.1" id="Capa_1" xmlns="http://www.w3.org/2000/svg" xmlns:xlink="http://www.w3.org/1999/xlink" x="0px" y="0px"
	 viewBox="0 0 512 512" style="enable-background:new 0 0 512 512;" xml:space="preserve">
<g>
	<g>
		<path d="M387.042,78.366H124.958c-25.691,0-46.592,20.901-46.592,46.592v262.084c0,25.691,20.901,46.592,46.592,46.592h262.084
			c25.691,0,46.592-20.901,46.592-46.592V124.958C433.634,99.267,412.733,78.366,387.042,78.366z M413.555,387.042
			c0,14.62-11.894,26.514-26.514,26.514H124.958c-14.62,0-26.514-11.894-26.514-26.514V124.958c0-14.62,11.894-26.514,26.514-26.514
			h262.084c14.619,0,26.514,11.893,26.514,26.514V387.042z"/>
	</g>
</g>
<g>
	<g>
		<path d="M377.033,124.918H134.957c-5.545,0-10.039,4.496-10.039,10.039v121.042v0.002v121.032c0,5.544,4.495,10.039,10.039,10.039
			h242.076c5.545,0,10.039-4.496,10.039-10.039V134.957C387.072,129.414,382.577,124.918,377.033,124.918z M144.996,144.996h86.766
			l-86.766,86.767V144.996z M366.994,366.994H144.996V260.159l115.163-115.163h106.834V366.994z"/>
	</g>
</g>
<g>
	<g>
		<path d="M168.318,0c-5.545,0-10.039,4.496-10.039,10.039v42.677c0,5.544,4.495,10.039,10.039,10.039s10.039-4.496,10.039-10.039
			V10.039C178.357,4.496,173.862,0,168.318,0z"/>
	</g>
</g>
<g>
	<g>
		<path d="M225.481,0c-5.545,0-10.039,4.496-10.039,10.039v42.677c0,5.544,4.495,10.039,10.039,10.039
			c5.545,0,10.039-4.496,10.039-10.039V10.039C235.52,4.496,231.025,0,225.481,0z"/>
	</g>
</g>
<g>
	<g>
		<path d="M282.644,0c-5.545,0-10.039,4.496-10.039,10.039v42.677c0,5.544,4.495,10.039,10.039,10.039s10.039-4.496,10.039-10.039
			V10.039C292.683,4.496,288.189,0,282.644,0z"/>
	</g>
</g>
<g>
	<g>
		<path d="M339.797,0c-5.545,0-10.039,4.496-10.039,10.039v42.677c0,5.544,4.495,10.039,10.039,10.039s10.039-4.496,10.039-10.039
			V10.039C349.837,4.496,345.342,0,339.797,0z"/>
	</g>
</g>
<g>
	<g>
		<path d="M52.716,333.633H10.039C4.495,333.633,0,338.129,0,343.672s4.495,10.039,10.039,10.039h42.677
			c5.545,0,10.039-4.496,10.039-10.039S58.261,333.633,52.716,333.633z"/>
	</g>
</g>
<g>
	<g>
		<path d="M52.716,276.47H10.039C4.495,276.47,0,280.966,0,286.509s4.495,10.039,10.039,10.039h42.677
			c5.545,0,10.039-4.496,10.039-10.039S58.261,276.47,52.716,276.47z"/>
	</g>
</g>
<g>
	<g>
		<path d="M52.716,219.317H10.039C4.495,219.317,0,223.812,0,229.356c0,5.544,4.495,10.039,10.039,10.039h42.677
			c5.545,0,10.039-4.496,10.039-10.039C62.755,223.812,58.261,219.317,52.716,219.317z"/>
	</g>
</g>
<g>
	<g>
		<path d="M52.716,162.153H10.039C4.495,162.153,0,166.649,0,172.193c0,5.544,4.495,10.039,10.039,10.039h42.677
			c5.545,0,10.039-4.496,10.039-10.039C62.755,166.649,58.261,162.153,52.716,162.153z"/>
	</g>
</g>
<g>
	<g>
		<path d="M343.672,449.245c-5.545,0-10.039,4.496-10.039,10.039v42.677c0,5.544,4.495,10.039,10.039,10.039
			s10.039-4.496,10.039-10.039v-42.677C353.712,453.74,349.217,449.245,343.672,449.245z"/>
	</g>
</g>
<g>
	<g>
		<path d="M286.509,449.245c-5.545,0-10.039,4.496-10.039,10.039v42.677c0,5.544,4.495,10.039,10.039,10.039
			s10.039-4.496,10.039-10.039v-42.677C296.548,453.74,292.054,449.245,286.509,449.245z"/>
	</g>
</g>
<g>
	<g>
		<path d="M229.356,449.245c-5.545,0-10.039,4.496-10.039,10.039v42.677c0,5.544,4.495,10.039,10.039,10.039
			c5.545,0,10.039-4.496,10.039-10.039v-42.677C239.395,453.74,234.901,449.245,229.356,449.245z"/>
	</g>
</g>
<g>
	<g>
		<path d="M172.193,449.245c-5.545,0-10.039,4.496-10.039,10.039v42.677c0,5.544,4.495,10.039,10.039,10.039
			c5.545,0,10.039-4.496,10.039-10.039v-42.677C182.232,453.74,177.737,449.245,172.193,449.245z"/>
	</g>
</g>
<g>
	<g>
		<path d="M501.961,158.278h-42.677c-5.545,0-10.039,4.496-10.039,10.039s4.495,10.039,10.039,10.039h42.677
			c5.545,0,10.039-4.496,10.039-10.039S507.505,158.278,501.961,158.278z"/>
	</g>
</g>
<g>
	<g>
		<path d="M501.961,215.442h-42.677c-5.545,0-10.039,4.496-10.039,10.039c0,5.544,4.495,10.039,10.039,10.039h42.677
			c5.545,0,10.039-4.496,10.039-10.039C512,219.937,507.505,215.442,501.961,215.442z"/>
	</g>
</g>
<g>
	<g>
		<path d="M501.961,272.605h-42.677c-5.545,0-10.039,4.496-10.039,10.039s4.495,10.039,10.039,10.039h42.677
			c5.545,0,10.039-4.496,10.039-10.039S507.505,272.605,501.961,272.605z"/>
	</g>
</g>
<g>
	<g>
		<path d="M501.961,329.758h-42.677c-5.545,0-10.039,4.496-10.039,10.039s4.495,10.039,10.039,10.039h42.677
			c5.545,0,10.039-4.496,10.039-10.039S507.505,329.758,501.961,329.758z"/>
	</g>
</g>
<g>
	<g>
		<path d="M285.195,333.633h-90.347c-5.545,0-10.039,4.496-10.039,10.039s4.495,10.039,10.039,10.039h90.347
			c5.545,0,10.039-4.496,10.039-10.039S290.74,333.633,285.195,333.633z"/>
	</g>
</g>
<g>
	<g>
		<path d="M317.152,333.633c-12.919,0-12.941,20.078,0,20.078C330.071,353.712,330.092,333.633,317.152,333.633z"/>
	</g>
</g>
<g>
</g>
<g>
</g>
<g>
</g>
<g>
</g>
<g>
</g>
<g>
</g>
<g>
</g>
<g>
</g>
<g>
</g>
<g>
</g>
<g>
</g>
<g>
</g>
<g>
</g>
<g>
</g>
<g>
</g>
</svg>
