<?xml version="1.0" encoding="iso-8859-1"?>
<!-- Generator: Adobe Illustrator 19.0.0, SVG Export Plug-In . SVG Version: 6.00 Build 0)  -->
<svg version="1.1" id="Capa_1" xmlns="http://www.w3.org/2000/svg" xmlns:xlink="http://www.w3.org/1999/xlink" x="0px" y="0px"
	 viewBox="0 0 512 512" style="enable-background:new 0 0 512 512;" xml:space="preserve">
<g>
	<g>
		<path d="M390.165,55.575C354.326,19.737,306.679,0,256,0C151.376,0,66.259,85.117,66.259,189.741v242.116v40.157
			c0,22.048,17.938,39.986,39.986,39.986c11.909,0,22.616-5.231,29.948-13.518c7.334,8.286,18.044,13.518,29.956,13.518
			c11.909,0,22.616-5.231,29.948-13.518c7.334,8.286,18.044,13.518,29.956,13.518c11.906,0,22.615-5.231,29.947-13.517
			c7.332,8.285,18.04,13.517,29.947,13.517c11.912,0,22.622-5.231,29.956-13.518c7.332,8.286,18.039,13.518,29.948,13.518
			c11.911,0,22.622-5.231,29.956-13.518c7.332,8.286,18.039,13.518,29.948,13.518c22.048,0,39.986-17.938,39.986-39.986v-40.157
			V189.741C445.741,139.063,426.004,91.415,390.165,55.575z M86.337,392.533h159.624v29.284H86.337V392.533z M425.663,472.014
			c0,10.978-8.931,19.908-19.908,19.908s-19.908-8.931-19.908-19.908c0-5.544-4.495-10.039-10.039-10.039
			s-10.039,4.496-10.039,10.039c0,10.978-8.935,19.908-19.918,19.908c-10.978,0-19.908-8.931-19.908-19.908
			c0-5.544-4.495-10.039-10.039-10.039s-10.039,4.496-10.039,10.039c0,10.978-8.935,19.908-19.918,19.908
			c-10.978,0-19.908-8.931-19.908-19.908c0-5.544-4.495-10.039-10.039-10.039c-5.545,0-10.039,4.496-10.039,10.039
			c0,10.978-8.931,19.908-19.908,19.908c-10.983,0-19.918-8.931-19.918-19.908c0-5.544-4.495-10.039-10.039-10.039
			s-10.039,4.496-10.039,10.039c0,10.978-8.931,19.908-19.908,19.908c-10.983,0-19.918-8.931-19.918-19.908
			c0-5.544-4.495-10.039-10.039-10.039s-10.039,4.496-10.039,10.039c0,10.978-8.931,19.908-19.908,19.908
			c-10.977,0-19.908-8.931-19.908-19.908v-30.118h339.326V472.014z M425.663,421.818H266.039v-29.284h159.624V421.818z
			 M425.663,372.455H86.337v-86.337h339.326V372.455z M425.663,266.039H86.337v-28.11h339.326V266.039z M425.663,217.851H86.337
			v-28.11c0-93.552,76.11-169.663,169.663-169.663c45.316,0,87.921,17.649,119.968,49.695
			c32.046,32.047,49.695,74.652,49.695,119.968V217.851z"/>
	</g>
</g>
<g>
	<g>
		<path d="M256.01,40.95c-42.409,0-76.91,34.497-76.91,76.9c0,42.409,34.502,76.91,76.91,76.91c42.409,0,76.91-34.502,76.91-76.91
			C332.92,75.448,298.419,40.95,256.01,40.95z M278.568,117.85c0,12.445-10.12,22.568-22.558,22.568
			c-12.445,0-22.568-10.125-22.568-22.568c0-12.439,10.124-22.558,22.568-22.558C268.449,95.292,278.568,105.412,278.568,117.85z
			 M256.01,174.681c-31.336,0-56.832-25.496-56.832-56.832c0-27.904,20.229-51.159,46.793-55.915v14.485
			c-18.685,4.527-32.607,21.38-32.607,41.432c0,23.516,19.132,42.647,42.647,42.647c23.51,0,42.637-19.132,42.637-42.647
			c0-20.051-13.917-36.904-32.597-41.432V61.934c26.563,4.756,46.793,28.01,46.793,55.915
			C312.842,149.187,287.346,174.681,256.01,174.681z"/>
	</g>
</g>
<g>
	<g>
		<path d="M355.438,297.502c-17.155,0-31.112,13.961-31.112,31.122c0,17.155,13.957,31.112,31.112,31.112
			c17.16,0,31.122-13.957,31.122-31.112C386.56,311.463,372.599,297.502,355.438,297.502z M355.438,339.657
			c-6.084,0-11.033-4.95-11.033-11.033c0-6.089,4.949-11.043,11.033-11.043c6.089,0,11.043,4.954,11.043,11.043
			C366.482,334.706,361.527,339.657,355.438,339.657z"/>
	</g>
</g>
<g>
	<g>
		<path d="M292.091,318.584H169.328c-5.545,0-10.039,4.496-10.039,10.039c0,5.544,4.495,10.039,10.039,10.039h122.763
			c5.545,0,10.039-4.496,10.039-10.039C302.13,323.08,297.636,318.584,292.091,318.584z"/>
	</g>
</g>
<g>
	<g>
		<path d="M135.195,318.577c-12.919,0-12.941,20.078,0,20.078C148.115,338.656,148.136,318.577,135.195,318.577z"/>
	</g>
</g>
<g>
</g>
<g>
</g>
<g>
</g>
<g>
</g>
<g>
</g>
<g>
</g>
<g>
</g>
<g>
</g>
<g>
</g>
<g>
</g>
<g>
</g>
<g>
</g>
<g>
</g>
<g>
</g>
<g>
</g>
</svg>
