<?xml version="1.0" encoding="iso-8859-1"?>
<!-- Generator: Adobe Illustrator 19.0.0, SVG Export Plug-In . SVG Version: 6.00 Build 0)  -->
<svg version="1.1" id="Capa_1" xmlns="http://www.w3.org/2000/svg" xmlns:xlink="http://www.w3.org/1999/xlink" x="0px" y="0px"
	 viewBox="0 0 512 512" style="enable-background:new 0 0 512 512;" xml:space="preserve">
<g>
	<g>
		<path d="M380.869,281c-17.471-21.734-42.336-35.118-70.011-37.688c-15.073-1.406-30.219,0.506-44.561,5.542v-9.98
			c10.107-0.495,24.776-3.198,35.171-13.594c0.001,0,0.002-0.001,0.002-0.001c16.379-16.391,13.661-43.381,13.298-46.405
			c-0.553-4.593-4.172-8.213-8.764-8.767c-3.026-0.365-30.031-3.093-46.41,13.298c-15.52,15.52-13.897,40.561-13.374,45.723v19.903
			c-14.495-5.172-29.826-7.143-45.076-5.719c-27.676,2.569-52.54,15.954-70.011,37.688c-18.413,22.903-26.484,52.115-22.728,82.252
			c3.672,29.52,20.109,67.639,41.873,97.113c24.737,33.5,52.415,51.637,78.525,51.635c1.723,0,3.442-0.079,5.15-0.238
			c7.556-0.704,14.949-2.969,22.049-6.749c7.1,3.781,14.492,6.046,22.05,6.749c1.709,0.159,3.425,0.238,5.15,0.238
			c26.108,0,53.788-18.138,78.524-51.635c21.764-29.473,38.201-67.593,41.874-97.111C407.353,333.115,399.282,303.903,380.869,281z
			 M273.793,197.601c5.305-5.31,14.133-7.178,21.128-7.655c-0.486,6.96-2.355,15.836-7.652,21.139
			c-5.307,5.307-14.135,7.176-21.131,7.655C266.624,211.776,268.492,202.899,273.793,197.601z M383.672,360.772
			c-3.28,26.352-18.235,60.761-38.101,87.666c-21.709,29.4-45.647,45.195-65.661,43.332c-6.222-0.579-12.408-2.87-18.385-6.81
			c-1.676-1.104-3.6-1.656-5.524-1.656c-1.924,0-3.849,0.552-5.525,1.656c-5.976,3.939-12.162,6.23-18.385,6.81
			c-20.022,1.868-43.953-13.931-65.662-43.332c-19.866-26.904-34.823-61.315-38.102-87.668c-3.079-24.697,3.474-48.56,18.45-67.189
			c14.037-17.461,34.003-28.213,56.226-30.276c16.535-1.542,33.232,1.865,48.292,9.855c1.514,0.804,3.182,1.187,4.847,1.163
			c0.039,0,0.077,0.006,0.116,0.006c2.166,0,4.166-0.693,5.807-1.859c14.702-7.485,30.89-10.662,46.932-9.165
			c0.002,0,0.004,0,0.005,0c22.217,2.063,42.184,12.815,56.221,30.275C380.197,312.21,386.75,336.072,383.672,360.772z"/>
	</g>
</g>
<g>
	<g>
		<path d="M362.159,331.425c-2.391-9.347-6.624-17.846-12.583-25.265c-10.601-13.189-25.671-21.311-42.433-22.871
			c-5.519-0.514-10.413,3.545-10.927,9.066c-0.513,5.52,3.546,10.412,9.066,10.926c11.305,1.052,21.478,6.541,28.642,15.456
			c4.151,5.167,7.106,11.11,8.781,17.664c1.161,4.538,5.242,7.553,9.72,7.553c0.822,0,1.659-0.102,2.494-0.315
			C360.292,342.266,363.533,336.797,362.159,331.425z"/>
	</g>
</g>
<g>
	<g>
		<path d="M304.092,35.138c-5.544,0-10.039,4.495-10.039,10.039v74.007c0,5.545,4.495,10.039,10.039,10.039
			s10.039-4.495,10.039-10.039V45.177C314.131,39.632,309.636,35.138,304.092,35.138z"/>
	</g>
</g>
<g>
	<g>
		<path d="M255.954,0c-5.544,0-10.039,4.495-10.039,10.039v119.184c0,5.545,4.495,10.039,10.039,10.039
			c5.544,0,10.039-4.495,10.039-10.039V10.039C265.993,4.495,261.498,0,255.954,0z"/>
	</g>
</g>
<g>
	<g>
		<path d="M207.817,35.138c-5.544,0-10.039,4.495-10.039,10.039v104.124c0,5.545,4.495,10.039,10.039,10.039
			s10.039-4.495,10.039-10.039V45.177C217.856,39.632,213.36,35.138,207.817,35.138z"/>
	</g>
</g>
<g>
	<g>
		<path d="M354.632,353.88c-12.919,0-12.94,20.078,0,20.078C367.551,373.958,367.573,353.88,354.632,353.88z"/>
	</g>
</g>
<g>
</g>
<g>
</g>
<g>
</g>
<g>
</g>
<g>
</g>
<g>
</g>
<g>
</g>
<g>
</g>
<g>
</g>
<g>
</g>
<g>
</g>
<g>
</g>
<g>
</g>
<g>
</g>
<g>
</g>
</svg>
