<?xml version="1.0" encoding="iso-8859-1"?>
<!-- Generator: Adobe Illustrator 19.0.0, SVG Export Plug-In . SVG Version: 6.00 Build 0)  -->
<svg version="1.1" id="Capa_1" xmlns="http://www.w3.org/2000/svg" xmlns:xlink="http://www.w3.org/1999/xlink" x="0px" y="0px"
	 viewBox="0 0 512 512" style="enable-background:new 0 0 512 512;" xml:space="preserve">
<g>
	<g>
		<path d="M443.747,446.173L309.564,213.765c-1.793-3.106-5.108-5.02-8.694-5.02h-89.742c-3.586,0-6.901,1.913-8.694,5.02
			L68.251,446.173c-1.793,3.106-1.793,6.933,0,10.039s5.108,5.02,8.694,5.02h358.109c3.586,0,6.901-1.913,8.694-5.02
			S445.54,449.279,443.747,446.173z M94.333,441.153l122.592-212.329h78.149l122.591,212.329H94.333z"/>
	</g>
</g>
<g>
	<g>
		<path d="M501.153,444.065L340.214,165.327V78.276h1.004c21.583,0,39.143-17.559,39.143-39.142c0-10.45-4.072-20.276-11.464-27.67
			C361.504,4.072,351.675,0,341.218,0H170.792c-21.583,0-39.143,17.555-39.143,39.133c0,10.443,4.069,20.27,11.472,27.686
			c7.402,7.387,17.229,11.456,27.671,11.456h0.994v87.051L10.847,444.065c-8.185,14.177-8.183,31.107,0.004,45.289
			C19.038,503.534,33.7,512,50.071,512h411.859c16.371,0,31.032-8.466,39.219-22.646
			C509.336,475.172,509.338,458.242,501.153,444.065z M170.793,58.197c-5.087,0-9.879-1.986-13.476-5.576
			c-3.605-3.612-5.59-8.402-5.59-13.489c0-10.507,8.552-19.054,19.064-19.054h170.426c5.093,0,9.882,1.983,13.482,5.584
			c3.601,3.6,5.584,8.385,5.584,13.472c0,10.512-8.552,19.063-19.064,19.063H170.793z M483.761,479.314
			c-4.558,7.894-12.719,12.607-21.831,12.607H50.071c-9.113,0-17.273-4.712-21.831-12.607s-4.56-17.32-0.004-25.21l162.284-281.068
			c0.881-1.526,1.345-3.257,1.345-5.02V78.276h55.487v52.568c0,5.544,4.496,10.039,10.039,10.039
			c5.544,0,10.039-4.496,10.039-10.039V78.276h52.706v89.742c0,1.763,0.464,3.494,1.345,5.02l162.284,281.068
			C488.32,461.995,488.319,471.419,483.761,479.314z"/>
	</g>
</g>
<g>
	<g>
		<path d="M257.39,249.063c-21.882,0-39.685,17.807-39.685,39.695c0,21.888,17.803,39.695,39.685,39.695
			c21.889,0,39.695-17.807,39.695-39.695C297.086,266.869,279.279,249.063,257.39,249.063z M257.39,308.375
			c-10.811,0-19.607-8.8-19.607-19.617s8.796-19.617,19.607-19.617c10.816,0,19.617,8.8,19.617,19.617
			S268.207,308.375,257.39,308.375z"/>
	</g>
</g>
<g>
	<g>
		<path d="M197.035,361.753c-16.308,0-29.576,13.268-29.576,29.576c0,16.308,13.268,29.576,29.576,29.576
			c16.314,0,29.587-13.268,29.587-29.576C226.621,375.021,213.348,361.753,197.035,361.753z M197.035,400.826
			c-5.236,0-9.497-4.261-9.497-9.497s4.261-9.497,9.497-9.497c5.242,0,9.508,4.261,9.508,9.497S202.276,400.826,197.035,400.826z"/>
	</g>
</g>
<g>
	<g>
		<path d="M314.966,338.733c-16.315,0-29.587,13.268-29.587,29.576s13.273,29.576,29.587,29.576
			c16.308,0,29.576-13.268,29.576-29.576S331.274,338.733,314.966,338.733z M314.965,377.806c-5.242,0-9.508-4.261-9.508-9.497
			s4.267-9.497,9.508-9.497c5.236,0,9.497,4.261,9.497,9.497S320.202,377.806,314.965,377.806z"/>
	</g>
</g>
<g>
	<g>
		<path d="M257.39,151.926c-12.919,0-12.941,20.078,0,20.078C270.31,172.005,270.331,151.926,257.39,151.926z"/>
	</g>
</g>
<g>
</g>
<g>
</g>
<g>
</g>
<g>
</g>
<g>
</g>
<g>
</g>
<g>
</g>
<g>
</g>
<g>
</g>
<g>
</g>
<g>
</g>
<g>
</g>
<g>
</g>
<g>
</g>
<g>
</g>
</svg>
