<?xml version="1.0" encoding="iso-8859-1"?>
<!-- Generator: Adobe Illustrator 19.0.0, SVG Export Plug-In . SVG Version: 6.00 Build 0)  -->
<svg version="1.1" id="Capa_1" xmlns="http://www.w3.org/2000/svg" xmlns:xlink="http://www.w3.org/1999/xlink" x="0px" y="0px"
	 viewBox="0 0 512.001 512.001" style="enable-background:new 0 0 512.001 512.001;" xml:space="preserve">
<g>
	<g>
		<path d="M357.326,126.675c-37.579,0-73.198,13.372-101.326,37.832c-28.128-24.459-63.748-37.832-101.326-37.832
			C69.386,126.675,0,196.066,0,281.36c0,85.288,69.386,154.674,154.674,154.674c37.581,0,73.202-13.374,101.327-37.831
			c28.128,24.459,63.747,37.831,101.326,37.831c85.288,0,154.674-69.386,154.674-154.674
			C512,196.066,442.614,126.675,357.326,126.675z M276.281,223.634h-40.562c5.302-11.119,12.15-21.536,20.281-30.841
			C264.131,202.099,270.979,212.515,276.281,223.634z M223.106,271.32c0.69-9.386,2.35-18.621,4.962-27.608h55.865
			c2.612,8.987,4.273,18.222,4.962,27.608H223.106z M288.896,291.399c-0.691,9.386-2.35,18.621-4.962,27.608h-55.865
			c-2.612-8.987-4.273-18.222-4.962-27.608H288.896z M154.675,415.955c-74.217,0-134.597-60.379-134.597-134.596
			c0-74.222,60.38-134.606,134.596-134.606c32.184,0,62.721,11.265,87.015,31.915c-13.38,15.076-23.822,32.758-30.435,51.697
			c-5.708,16.355-8.603,33.512-8.603,50.994s2.894,34.639,8.603,50.995c6.614,18.944,17.057,36.624,30.433,51.688
			C217.396,404.69,186.858,415.955,154.675,415.955z M256,369.921c-8.13-9.3-14.979-19.715-20.281-30.835h40.562
			C270.979,350.204,264.131,360.619,256,369.921z M357.326,415.955c-32.182,0-62.718-11.264-87.012-31.914
			c13.378-15.067,23.819-32.746,30.433-51.689c5.708-16.355,8.603-33.512,8.603-50.994s-2.894-34.639-8.603-50.995
			c-6.613-18.94-17.055-36.622-30.434-51.696c24.291-20.649,54.83-31.915,87.015-31.915c74.216,0,134.596,60.384,134.596,134.606
			C491.922,355.577,431.542,415.955,357.326,415.955z"/>
	</g>
</g>
<g>
	<g>
		<path d="M444.445,315.764c-4.904-2.582-10.978-0.697-13.559,4.209c-9.99,18.986-27.376,33.692-47.699,40.344
			c-5.27,1.725-8.143,7.394-6.419,12.663c1.385,4.233,5.315,6.92,9.539,6.92c1.035,0,2.088-0.162,3.125-0.501
			c25.239-8.261,46.825-26.513,59.222-50.077C451.238,324.416,449.352,318.346,444.445,315.764z"/>
	</g>
</g>
<g>
	<g>
		<path d="M375.85,61.38c-5.197-5.198-12.104-8.06-19.448-8.06h-5.592V35.751c0-5.545-4.495-10.04-10.039-10.04
			s-10.039,4.496-10.039,10.039v27.608v34.936c0,5.544,4.495,10.039,10.039,10.039h15.631c15.167,0,27.507-12.34,27.507-27.507
			C383.91,73.485,381.047,66.579,375.85,61.38z M356.402,88.254h-5.592V73.396h5.592c1.98,0.001,3.844,0.775,5.248,2.18
			c1.406,1.406,2.181,3.271,2.181,5.25C363.831,84.922,360.498,88.254,356.402,88.254z"/>
	</g>
</g>
<g>
	<g>
		<path d="M269.784,466.212h-12.629c-2.702,0-4.899-2.194-4.899-4.899c0-2.697,2.198-4.889,4.899-4.889h12.629
			c5.545,0,10.039-4.496,10.039-10.039s-4.495-10.039-10.039-10.039h-12.629c-13.773,0-24.978,11.2-24.978,24.978
			c0,13.768,11.205,24.968,24.978,24.968h12.629c5.545,0,10.039-4.496,10.039-10.039
			C279.823,470.707,275.328,466.212,269.784,466.212z"/>
	</g>
</g>
<g>
	<g>
		<path d="M177.564,86.78c-1.826,0-3.029-1.366-3.272-2.717c-0.004-0.021-0.011-0.042-0.015-0.063
			c-0.003-0.017-0.004-0.034-0.007-0.05c-0.026-0.138-0.04-0.314-0.04-0.513V62.023c0.001-10.81-8.79-19.607-19.596-19.607h-6.154
			c-7.142,0-13.856,2.781-18.904,7.83c-5.05,5.048-7.831,11.762-7.831,18.905c0,14.742,11.993,26.734,26.734,26.734h9.262
			c4.173,6.657,11.551,10.974,19.821,10.974c5.545,0,10.039-4.496,10.039-10.039C187.603,91.276,183.108,86.78,177.564,86.78z
			 M148.48,75.807c-3.67,0-6.656-2.987-6.656-6.656c0-1.778,0.692-3.451,1.949-4.706c1.256-1.257,2.928-1.949,4.706-1.949h5.672
			v13.311H148.48z"/>
	</g>
</g>
<g>
	<g>
		<path d="M450.427,287.792c-12.919,0-12.942,20.078,0,20.078C463.346,307.87,463.367,287.792,450.427,287.792z"/>
	</g>
</g>
<g>
</g>
<g>
</g>
<g>
</g>
<g>
</g>
<g>
</g>
<g>
</g>
<g>
</g>
<g>
</g>
<g>
</g>
<g>
</g>
<g>
</g>
<g>
</g>
<g>
</g>
<g>
</g>
<g>
</g>
</svg>
