<?xml version="1.0" encoding="iso-8859-1"?>
<!-- Generator: Adobe Illustrator 19.0.0, SVG Export Plug-In . SVG Version: 6.00 Build 0)  -->
<svg version="1.1" id="Capa_1" xmlns="http://www.w3.org/2000/svg" xmlns:xlink="http://www.w3.org/1999/xlink" x="0px" y="0px"
	 viewBox="0 0 512 512" style="enable-background:new 0 0 512 512;" xml:space="preserve">
<g>
	<g>
		<path d="M305.414,232.502H229.31v0c-4.522,0-8.485,3.023-9.682,7.383l-13.274,48.387l-0.502-2.054
			c-1.097-4.497-5.125-7.66-9.753-7.66h-33.21c-5.545,0-10.039,4.496-10.039,10.039s4.495,10.039,10.039,10.039h25.325l7.818,32.036
			c1.084,4.445,5.037,7.594,9.611,7.659c0.048,0.001,0.096,0.001,0.145,0.001c4.515,0,8.483-3.019,9.68-7.383l21.499-78.369h68.448
			c5.545,0,10.039-4.496,10.039-10.039S310.959,232.502,305.414,232.502z"/>
	</g>
</g>
<g>
	<g>
		<path d="M286.517,299.556l11.005-11.004c3.92-3.921,3.921-10.278,0-14.198c-3.92-3.918-10.277-3.919-14.197,0l-11.005,11.005
			l-11.005-11.005c-3.92-3.919-10.277-3.919-14.197,0c-3.92,3.92-3.92,10.277,0,14.198l11.005,11.004l-11.005,11.004
			c-3.92,3.92-3.921,10.277,0,14.198c1.961,1.96,4.53,2.94,7.099,2.94s5.139-0.981,7.099-2.94l11.005-11.005l11.005,11.005
			c1.961,1.96,4.53,2.94,7.099,2.94c2.569,0,5.139-0.981,7.099-2.94c3.92-3.92,3.92-10.277,0-14.198L286.517,299.556z"/>
	</g>
</g>
<g>
	<g>
		<path d="M297.335,178.343l7.158-7.157c3.92-3.92,3.921-10.277,0-14.198c-3.921-3.918-10.277-3.919-14.197,0l-7.158,7.158
			l-7.158-7.158c-3.92-3.919-10.277-3.919-14.197,0c-3.92,3.92-3.92,10.277,0,14.198l7.158,7.157l-7.158,7.157
			c-3.92,3.92-3.921,10.277,0,14.198c1.961,1.96,4.53,2.94,7.099,2.94c2.569,0,5.139-0.981,7.099-2.94l7.158-7.158l7.158,7.158
			c1.961,1.96,4.53,2.94,7.099,2.94c2.569,0,5.139-0.981,7.099-2.94c3.92-3.92,3.92-10.277,0-14.198L297.335,178.343z"/>
	</g>
</g>
<g>
	<g>
		<path d="M278.562,121.281c-7.76-19.767-33.95-21.24-45.856-4.565c-3.934,5.51-6.125,12.108-7.249,18.987c-1.736,0-3.472,0-5.208,0
			c-12.919,0-12.941,20.078,0,20.078c1.458,0,2.915,0,4.372,0c0.047,0.891,0.102,1.775,0.165,2.647c0,0.007,0,0.013,0,0.02
			c0.29,4.072,0.381,8.16,0.196,12.239c-0.269,5.907-0.447,9.049-2.897,15.254c-0.037,0.064-0.084,0.151-0.154,0.283
			c-0.351,0.672-0.702,1.331-1.081,1.988c-0.187,0.323-0.393,0.642-0.607,0.956c-0.083,0.078-0.444,0.498-0.767,0.828
			c-1.09,1.114-2.16,1.622-3.25,1.825c0.471-0.087-2.716,0.015-3.079-0.061c-1.321-0.279-1.409-0.636-1.646-0.776
			c-0.073-0.043-0.369-0.343-0.611-0.587c-0.203-0.275-0.469-0.626-0.543-0.732c-0.327-0.467-0.502-0.728-0.576-0.838
			c-2.263-4.234-6.608-6.949-11.67-5.558c-4.808,1.321-9.004,7.274-7.011,12.349c7.759,19.767,33.949,21.24,45.855,4.564
			c8.274-11.589,8.896-27.982,7.921-41.713c0-0.007,0-0.013,0-0.02c-0.063-0.888-0.112-1.778-0.156-2.667c2.199,0,4.396,0,6.595,0
			c12.919,0,12.941-20.078,0-20.078c-1.782,0-3.564,0-5.346,0c0.385-1.421,0.901-2.956,1.609-4.747
			c0.037-0.064,0.084-0.15,0.154-0.283c0.351-0.672,0.702-1.331,1.081-1.988c0.187-0.323,0.393-0.643,0.607-0.956
			c0.083-0.078,0.444-0.498,0.767-0.828c1.09-1.114,2.16-1.622,3.25-1.824c-0.471,0.087,2.716-0.015,3.079,0.061
			c1.321,0.279,1.409,0.636,1.646,0.776c0.073,0.043,0.37,0.343,0.611,0.587c0.203,0.275,0.47,0.627,0.543,0.732
			c0.327,0.467,0.501,0.728,0.576,0.838c2.263,4.235,6.608,6.949,11.67,5.558C276.359,132.309,280.555,126.356,278.562,121.281z"/>
	</g>
</g>
<g>
	<g>
		<path d="M163.571,171.726c-5.545,0-10.039,4.496-10.039,10.039v5.509c0,2.554-2.077,4.631-4.631,4.631
			c-2.554,0-4.631-2.077-4.631-4.631v-53.752h14.406c5.545,0,10.039-4.496,10.039-10.039c0-5.544-4.495-10.039-10.039-10.039H70.58
			c-5.545,0-10.039,4.496-10.039,10.039c0,5.544,4.495,10.038,10.039,10.038H86.37v10.24c0,19.297-7.514,37.438-21.16,51.084
			c-3.92,3.92-3.92,10.277,0,14.198c1.961,1.96,4.53,2.94,7.099,2.94s5.139-0.981,7.099-2.94
			c17.437-17.438,27.04-40.622,27.04-65.281v-10.24h17.743v53.752c0,13.625,11.085,24.71,24.71,24.71
			c13.624,0,24.709-11.084,24.709-24.71v-5.509C173.61,176.222,169.116,171.726,163.571,171.726z"/>
	</g>
</g>
<g>
	<g>
		<path d="M441.427,201.949c5.545,0,10.039-4.496,10.039-10.039v-13.427c0-5.544-4.495-10.039-10.039-10.039h-78.462
			c-4.06,0-7.721,2.447-9.275,6.197c-1.554,3.752-0.695,8.07,2.175,10.941l32.133,32.133l-32.133,32.133
			c-2.87,2.872-3.73,7.19-2.175,10.942c1.554,3.751,5.214,6.197,9.275,6.197h78.462c5.545,0,10.039-4.496,10.039-10.039v-13.427
			c0-5.544-4.495-10.039-10.039-10.039s-10.039,4.496-10.039,10.039v3.388h-44.187l22.093-22.093c3.92-3.92,3.92-10.277,0-14.198
			l-22.093-22.093h44.187v3.388C431.388,197.454,435.883,201.949,441.427,201.949z"/>
	</g>
</g>
<g>
	<g>
		<path d="M501.961,19.577H10.039C4.495,19.577,0,24.073,0,29.616v44.173v295.675c0,5.544,4.495,10.039,10.039,10.039h226.925
			l-66.547,97.21c-3.132,4.575-1.963,10.822,2.613,13.955c1.735,1.188,3.708,1.756,5.662,1.756c3.201,0,6.348-1.528,8.292-4.37
			l69.019-100.819l69.019,100.819c1.946,2.842,5.091,4.37,8.292,4.37c1.954,0,3.928-0.569,5.662-1.756
			c4.575-3.132,5.745-9.381,2.613-13.954l-66.547-97.21h226.917c5.545,0,10.039-4.496,10.039-10.039V73.789V29.616
			C512,24.073,507.505,19.577,501.961,19.577z M491.922,359.424H256.093c-0.015,0-0.029,0-0.044,0h-0.11c-0.003,0-0.007,0-0.01,0
			H20.078V83.828h471.843V359.424z M491.922,63.75H20.078V39.655h471.843V63.75z"/>
	</g>
</g>
<g>
	<g>
		<path d="M409.471,307.619h-60.317c-5.545,0-10.039,4.496-10.039,10.039c0,5.544,4.495,10.039,10.039,10.039h60.317
			c5.545,0,10.039-4.496,10.039-10.039C419.51,312.115,415.015,307.619,409.471,307.619z"/>
	</g>
</g>
<g>
	<g>
		<path d="M441.427,307.619c-12.919,0-12.941,20.078,0,20.078C454.347,327.698,454.368,307.619,441.427,307.619z"/>
	</g>
</g>
<g>
</g>
<g>
</g>
<g>
</g>
<g>
</g>
<g>
</g>
<g>
</g>
<g>
</g>
<g>
</g>
<g>
</g>
<g>
</g>
<g>
</g>
<g>
</g>
<g>
</g>
<g>
</g>
<g>
</g>
</svg>
