<?xml version="1.0" encoding="iso-8859-1"?>
<!-- Generator: Adobe Illustrator 19.0.0, SVG Export Plug-In . SVG Version: 6.00 Build 0)  -->
<svg version="1.1" id="Capa_1" xmlns="http://www.w3.org/2000/svg" xmlns:xlink="http://www.w3.org/1999/xlink" x="0px" y="0px"
	 viewBox="0 0 512 512" style="enable-background:new 0 0 512 512;" xml:space="preserve">
<g>
	<g>
		<path d="M277.248,121.213H202.79c-5.544,0-10.039,4.496-10.039,10.039s4.496,10.039,10.039,10.039h74.458
			c5.544,0,10.039-4.495,10.039-10.039S282.792,121.213,277.248,121.213z"/>
	</g>
</g>
<g>
	<g>
		<path d="M309.205,121.213c-12.919,0-12.94,20.078,0,20.078C322.124,141.291,322.145,121.213,309.205,121.213z"/>
	</g>
</g>
<g>
	<g>
		<path d="M486.85,33.36h-36.825c-5.544,0-10.039,4.496-10.039,10.039v5.281h-80.072c-5.544,0-10.039,4.496-10.039,10.039v10.21
			H187.521v-15.49h61.63h36.825c5.544,0,10.039-4.496,10.039-10.039v-33.36C296.016,4.496,291.52,0,285.976,0h-36.825h-97.38
			c-5.544,0-10.039,4.496-10.039,10.039v33.36c0,5.544,4.496,10.039,10.039,10.039h15.671v15.49H138.39
			c-5.544,0-10.039,4.496-10.039,10.039v4.416H61.975c-5.544,0-10.039,4.496-10.039,10.039v4.769H25.15
			c-5.544,0.001-10.039,4.495-10.039,10.04v46.04c0,5.544,4.496,10.039,10.039,10.039h26.785v4.779
			c0,5.544,4.496,10.039,10.039,10.039h66.378v4.417c0,5.544,4.496,10.039,10.039,10.039h85.062v22.316h-6.957
			c-5.544,0-10.039,4.496-10.039,10.039v31.474c0,5.544,4.496,10.039,10.039,10.039h29.936v36.101h-14.978
			c-3.82,0-7.309,2.167-9.001,5.592L129.39,497.51c-2.456,4.971-0.417,10.992,4.554,13.448c1.43,0.706,2.946,1.04,4.439,1.04
			c3.7,0,7.258-2.053,9.009-5.594l90.299-182.773h8.741v178.326c0,5.544,4.496,10.039,10.039,10.039s10.039-4.496,10.039-10.039
			V323.632h8.741l90.31,182.773c2.455,4.969,8.474,7.011,13.447,4.553c4.97-2.456,7.009-8.476,4.553-13.447l-93.073-188.365
			c-1.692-3.424-5.18-5.592-9-5.592H266.51v-36.101h29.937c5.544,0,10.039-4.496,10.039-10.039v-31.473
			c0-5.544-4.496-10.039-10.039-10.039h-6.957v-22.317h60.385v10.21c0,5.544,4.496,10.039,10.039,10.039h80.072v5.271
			c0,5.544,4.496,10.039,10.039,10.039h36.825c5.544,0,10.039-4.496,10.039-10.039V43.399
			C496.889,37.856,492.393,33.36,486.85,33.36z M259.193,20.078h16.746V33.36h-16.746V20.078z M51.935,144.233H35.189v-25.961
			h16.746V144.233z M128.353,159.05H72.014v-4.779v-46.04v-4.769h56.339V159.05z M161.813,33.36V20.078h77.302V33.36H161.813z
			 M286.409,247.375h-59.874V235.98h59.874V247.375z M243.532,215.901v-22.316h25.881v22.316H243.532z M349.877,173.507h-70.424
			h-45.959h-85.062v-4.417V93.424v-4.417h201.445V173.507z M439.988,193.756h-70.033v-10.21V78.968v-10.21h70.033V193.756z
			 M476.813,209.065h-16.746V53.438h16.746V209.065z"/>
	</g>
</g>
<g>
</g>
<g>
</g>
<g>
</g>
<g>
</g>
<g>
</g>
<g>
</g>
<g>
</g>
<g>
</g>
<g>
</g>
<g>
</g>
<g>
</g>
<g>
</g>
<g>
</g>
<g>
</g>
<g>
</g>
</svg>
