<?xml version="1.0" encoding="iso-8859-1"?>
<!-- Generator: Adobe Illustrator 19.0.0, SVG Export Plug-In . SVG Version: 6.00 Build 0)  -->
<svg version="1.1" id="Capa_1" xmlns="http://www.w3.org/2000/svg" xmlns:xlink="http://www.w3.org/1999/xlink" x="0px" y="0px"
	 viewBox="0 0 512.001 512.001" style="enable-background:new 0 0 512.001 512.001;" xml:space="preserve">
<g>
	<g>
		<path d="M408.315,381.183l0.31-0.203c6.097-3.985,9.738-10.714,9.742-18.001c0.005-7.292-3.634-14.031-9.782-18.059l-0.278-0.18
			c-0.599-0.392-0.647-1.024-0.647-1.208c0-0.163,0.031-0.331,0.088-0.491c2.378-6.597,1.389-13.959-2.647-19.696
			c-4.032-5.731-10.589-9.11-17.61-9.138h-3.504c-0.001,0-0.002,0-0.003,0c-0.612,0-1.142-0.371-1.349-0.949l-0.949-2.647
			c-0.726-2.015-1.748-3.89-3.009-5.583V69.15c0-0.111-0.013-0.219-0.017-0.329c-0.005-0.121-0.011-0.24-0.019-0.36
			c-0.028-0.415-0.075-0.823-0.153-1.223c-0.004-0.019-0.005-0.038-0.009-0.057c-0.087-0.442-0.211-0.868-0.355-1.287
			c-0.028-0.081-0.058-0.161-0.088-0.241c-0.147-0.393-0.311-0.776-0.503-1.143c-0.014-0.028-0.026-0.056-0.04-0.084
			c-0.209-0.391-0.447-0.761-0.704-1.117c-0.057-0.08-0.117-0.16-0.178-0.238c-0.273-0.357-0.561-0.703-0.878-1.021L316.617,2.943
			c-0.318-0.318-0.665-0.607-1.024-0.881c-0.078-0.059-0.155-0.118-0.234-0.175c-0.358-0.257-0.73-0.497-1.121-0.706
			c-0.025-0.013-0.051-0.024-0.077-0.037c-0.37-0.194-0.756-0.359-1.151-0.507c-0.078-0.029-0.156-0.059-0.235-0.086
			c-0.42-0.145-0.848-0.268-1.291-0.355c-0.017-0.003-0.034-0.004-0.05-0.008c-0.402-0.077-0.813-0.125-1.231-0.153
			c-0.119-0.008-0.235-0.014-0.353-0.018C309.737,0.013,309.629,0,309.517,0H103.673c-5.545,0-10.039,4.496-10.039,10.039v352.928
			c0,5.544,4.495,10.039,10.039,10.039h169.883c1.66,3.151,4.102,5.888,7.179,7.92l0.261,0.177c0.044,0.03,0.09,0.061,0.135,0.09
			c0.601,0.393,0.649,1.026,0.649,1.211c0,0.167-0.029,0.33-0.087,0.489c-2.376,6.589-1.391,13.946,2.636,19.679
			c4.027,5.734,10.613,9.157,17.648,9.157l3.455-0.01c0.625,0,1.164,0.375,1.373,0.963l0.951,2.648
			c0.471,1.303,1.059,2.536,1.747,3.699l-8.614,81.883c-0.391,3.713,1.312,7.336,4.418,9.405c3.106,2.071,7.108,2.245,10.382,0.454
			l29.027-15.87l29.036,15.87c1.505,0.822,3.16,1.231,4.814,1.231c1.946,0,3.887-0.565,5.568-1.685
			c3.106-2.07,4.808-5.693,4.417-9.405l-8.619-81.92c0.688-1.167,1.293-2.394,1.771-3.715l0.918-2.584
			c0.213-0.591,0.758-0.974,1.359-0.974l3.488,0.01c0.011,0,0.021,0,0.033,0c5.746,0,11.14-2.228,15.192-6.273
			c4.032-4.025,6.343-9.579,6.343-15.24c0-2.494-0.435-4.959-1.287-7.322C407.519,382.255,407.75,381.554,408.315,381.183z
			 M319.556,34.273l24.842,24.838h-24.842V34.273z M286.751,320.475c-4.033,4.027-6.345,9.582-6.345,15.245
			c0,2.497,0.436,4.963,1.288,7.321c0.23,0.635-0.002,1.335-0.513,1.668l-0.374,0.242c-3.112,2.039-5.578,4.797-7.25,7.975H113.712
			V20.078h185.765V69.15c0,5.544,4.496,10.039,10.039,10.039h49.083v217.369c-3.132,0.418-6.202,1.518-8.976,3.339l-4.128,2.705
			c-0.472,0.311-1.088,0.31-1.573-0.009l-4.102-2.695c-5.551-3.641-12.347-4.524-18.644-2.413
			c-6.294,2.106-11.188,6.896-13.426,13.14l-0.944,2.629c-0.205,0.57-0.747,0.953-1.37,0.953c-0.001,0-0.002,0-0.003,0h-3.466
			c-0.013,0-0.024,0-0.036,0C296.189,314.207,290.8,316.432,286.751,320.475z M349.529,474.649c-3-1.641-6.63-1.641-9.631,0
			l-17.039,9.315l5.729-54.454c3.908-0.1,7.813-1.234,11.251-3.488l4.068-2.682c0.491-0.319,1.119-0.323,1.596-0.012l4.116,2.707
			c3.429,2.249,7.33,3.386,11.232,3.487l5.728,54.446L349.529,474.649z M397.627,364.179l-0.316,0.208
			c-8.375,5.483-11.85,15.894-8.449,25.324c0.063,0.179,0.094,0.339,0.094,0.504c0,0.363-0.169,0.75-0.451,1.032
			c-0.361,0.36-0.747,0.403-0.993,0.403c-0.001,0-0.002,0-0.003,0l-3.502-0.01c-9.057,0-17.207,5.725-20.293,14.291l-0.913,2.572
			c-0.081,0.226-0.191,0.407-0.35,0.565c-0.334,0.332-1.095,0.656-1.812,0.186l-4.114-2.705c-3.581-2.351-7.687-3.527-11.8-3.527
			c-4.115,0-8.237,1.179-11.842,3.537l-4.078,2.688c-0.725,0.478-1.487,0.153-1.844-0.203c-0.135-0.134-0.243-0.314-0.316-0.518
			l-0.942-2.622c-3.055-8.531-11.203-14.264-20.302-14.264l-3.454,0.01c-0.501,0-0.901-0.208-1.19-0.618
			c-0.288-0.41-0.348-0.856-0.175-1.338c0.845-2.352,1.274-4.805,1.274-7.289c0-7.269-3.614-13.981-9.673-17.972l-0.256-0.173
			c-0.04-0.027-0.081-0.055-0.122-0.081c-0.162-0.105-0.651-0.427-0.651-1.21c0-0.792,0.491-1.114,0.59-1.18l0.361-0.234
			c8.39-5.478,11.873-15.892,8.468-25.336c-0.063-0.176-0.093-0.333-0.093-0.496c0-0.365,0.17-0.753,0.453-1.035
			c0.357-0.357,0.737-0.4,1.009-0.4c0.001,0,0.003,0,0.004,0h3.463c0.016,0,0.028,0,0.044,0c9.053-0.001,17.187-5.721,20.248-14.248
			l0.945-2.632c0.157-0.438,0.46-0.733,0.899-0.88c0.444-0.149,0.869-0.094,1.256,0.16l4.093,2.688
			c7.189,4.725,16.471,4.723,23.624,0.008l4.114-2.696c0.751-0.494,1.438-0.108,1.654,0.041c0.022,0.018,0.046,0.033,0.068,0.05
			c0.199,0.161,0.343,0.371,0.436,0.626l0.942,2.627c3.057,8.528,11.191,14.252,20.231,14.252c0.014,0,0.028,0,0.043,0h3.497
			c0.001,0,0.002,0,0.002,0c0.492,0,0.888,0.206,1.173,0.611c0.29,0.412,0.351,0.86,0.177,1.344
			c-0.846,2.354-1.275,4.807-1.275,7.29c0,7.302,3.647,14.041,9.788,18.047l0.262,0.169c0.437,0.285,0.658,0.696,0.658,1.22
			C398.287,363.747,397.799,364.066,397.627,364.179z"/>
	</g>
</g>
<g>
	<g>
		<path d="M344.715,329.005c-18.721,0-33.953,15.235-33.953,33.963s15.232,33.963,33.953,33.963
			c18.727,0,33.963-15.235,33.963-33.963C378.677,344.24,363.442,329.005,344.715,329.005z M344.715,376.851
			c-7.65,0-13.874-6.228-13.874-13.884s6.224-13.884,13.874-13.884c7.656,0,13.884,6.228,13.884,13.884
			S352.371,376.851,344.715,376.851z"/>
	</g>
</g>
<g>
	<g>
		<path d="M239.563,260.668h-71.298c-5.545,0-10.039,4.496-10.039,10.039s4.495,10.039,10.039,10.039h71.298
			c5.545,0,10.039-4.496,10.039-10.039S245.108,260.668,239.563,260.668z"/>
	</g>
</g>
<g>
	<g>
		<path d="M310.873,218.563H168.266c-5.545,0-10.039,4.496-10.039,10.039s4.495,10.039,10.039,10.039h142.607
			c5.544,0,10.039-4.496,10.039-10.039S316.416,218.563,310.873,218.563z"/>
	</g>
</g>
<g>
	<g>
		<path d="M310.873,176.459H168.266c-5.545,0-10.039,4.496-10.039,10.039s4.495,10.039,10.039,10.039h142.607
			c5.544,0,10.039-4.496,10.039-10.039S316.416,176.459,310.873,176.459z"/>
	</g>
</g>
<g>
	<g>
		<path d="M310.872,134.355H168.265c-5.545,0-10.039,4.496-10.039,10.039s4.495,10.039,10.039,10.039h142.607
			c5.544,0,10.039-4.496,10.039-10.039S316.415,134.355,310.872,134.355z"/>
	</g>
</g>
<g>
	<g>
		<path d="M239.563,92.25h-71.298c-5.545,0-10.039,4.495-10.039,10.039c0,5.544,4.495,10.039,10.039,10.039h71.298
			c5.545,0,10.039-4.496,10.039-10.039S245.108,92.25,239.563,92.25z"/>
	</g>
</g>
<g>
	<g>
		<path d="M227.273,37.647h-74.459c-5.545,0-10.039,4.496-10.039,10.039s4.495,10.039,10.039,10.039h74.459
			c5.545,0,10.039-4.496,10.039-10.039S232.818,37.647,227.273,37.647z"/>
	</g>
</g>
<g>
	<g>
		<path d="M259.23,37.647c-12.919,0-12.94,20.078,0,20.078C272.15,57.725,272.171,37.647,259.23,37.647z"/>
	</g>
</g>
<g>
</g>
<g>
</g>
<g>
</g>
<g>
</g>
<g>
</g>
<g>
</g>
<g>
</g>
<g>
</g>
<g>
</g>
<g>
</g>
<g>
</g>
<g>
</g>
<g>
</g>
<g>
</g>
<g>
</g>
</svg>
