<?xml version="1.0" encoding="iso-8859-1"?>
<!-- Generator: Adobe Illustrator 19.0.0, SVG Export Plug-In . SVG Version: 6.00 Build 0)  -->
<svg version="1.1" id="Capa_1" xmlns="http://www.w3.org/2000/svg" xmlns:xlink="http://www.w3.org/1999/xlink" x="0px" y="0px"
	 viewBox="0 0 512 512" style="enable-background:new 0 0 512 512;" xml:space="preserve">
<g>
	<g>
		<path d="M505.829,198.086l-119.917-50.065l-46.435-44.522l-3.402-11.216c-5.265-17.381-15.758-32.289-30.347-43.112
			c-14.588-10.821-31.897-16.543-50.057-16.543c-18.163,0-35.474,5.72-50.062,16.543c-14.586,10.82-25.082,25.728-30.353,43.114
			l-3.394,11.216l-46.944,45.01L6.172,198.086c-4.274,1.784-6.772,6.26-6.048,10.834c0.724,4.575,4.483,8.059,9.099,8.436
			l118.92,9.708l45.615,43.733c1.869,1.792,4.358,2.792,6.947,2.792h19.36l-55.273,192.98c-0.867,3.031-0.263,6.292,1.634,8.807
			c1.897,2.516,4.865,3.996,8.016,3.996h202.45c3.146,0,6.11-1.475,8.008-3.985c1.897-2.509,2.509-5.763,1.651-8.79l-54.65-193.009
			h18.728c2.59,0,5.08-1.001,6.949-2.794l45.532-43.67l119.665-9.768c4.616-0.378,8.375-3.862,9.1-8.437
			C512.6,204.347,510.101,199.87,505.829,198.086z M194.47,98.106c8.233-27.155,32.827-45.399,61.199-45.399
			c28.375,0,52.965,18.243,61.19,45.401l0.236,0.779H194.233L194.47,98.106z M184.741,118.966h141.856l29.254,28.05H155.487
			L184.741,118.966z M343.617,459.295H167.762l53.19-185.705h70.085L343.617,459.295z M326.595,253.51H213.162
			c-0.004,0-0.008,0-0.012,0h-28.409l-24.884-23.857l95.326,7.781c0.272,0.022,0.544,0.033,0.816,0.033
			c0.272,0,0.545-0.011,0.816-0.033l94.59-7.722L326.595,253.51z M256,217.356L52.016,200.705l80.506-33.61h246.956l80.505,33.61
			L256,217.356z"/>
	</g>
</g>
<g>
	<g>
		<path d="M356.897,179.197c-12.919,0-12.941,20.078,0,20.078C369.817,199.276,369.838,179.197,356.897,179.197z"/>
	</g>
</g>
<g>
	<g>
		<path d="M255.668,183.213c-12.919,0-12.941,20.078,0,20.078C268.589,203.291,268.61,183.213,255.668,183.213z"/>
	</g>
</g>
<g>
	<g>
		<path d="M154.44,179.197c-12.919,0-12.941,20.078,0,20.078C167.359,199.276,167.381,179.197,154.44,179.197z"/>
	</g>
</g>
<g>
	<g>
		<path d="M256,336.955c-5.545,0-10.039,4.496-10.039,10.039v90.347c0,5.545,4.495,10.039,10.039,10.039
			c5.545,0,10.039-4.496,10.039-10.039v-90.347C266.04,341.451,261.545,336.955,256,336.955z"/>
	</g>
</g>
<g>
	<g>
		<path d="M256,304.999c-12.919,0-12.942,20.078,0,20.078C268.92,325.077,268.941,304.999,256,304.999z"/>
	</g>
</g>
<g>
</g>
<g>
</g>
<g>
</g>
<g>
</g>
<g>
</g>
<g>
</g>
<g>
</g>
<g>
</g>
<g>
</g>
<g>
</g>
<g>
</g>
<g>
</g>
<g>
</g>
<g>
</g>
<g>
</g>
</svg>
