<?xml version="1.0" encoding="iso-8859-1"?>
<!-- Generator: Adobe Illustrator 19.0.0, SVG Export Plug-In . SVG Version: 6.00 Build 0)  -->
<svg version="1.1" id="Capa_1" xmlns="http://www.w3.org/2000/svg" xmlns:xlink="http://www.w3.org/1999/xlink" x="0px" y="0px"
	 viewBox="0 0 512 512" style="enable-background:new 0 0 512 512;" xml:space="preserve">
<g>
	<g>
		<path d="M495.846,133.646C450.908,51.21,364.724,0,270.927,0C202.547,0,138.26,26.628,89.908,74.981S14.927,187.62,14.927,256
			s26.629,132.667,74.981,181.02C138.26,485.372,202.547,512,270.927,512c44.589,0,88.499-11.644,126.983-33.674
			c37.314-21.359,68.921-52.034,91.405-88.707c1.416-2.309,1.838-5.092,1.172-7.717c-0.667-2.625-2.365-4.871-4.71-6.224
			L291.006,263.218l201.045-116.073C496.77,144.42,498.454,138.43,495.846,133.646z M265.908,254.524
			c-3.106,1.793-5.02,5.107-5.02,8.694c0,3.586,1.913,6.901,5.02,8.694l200.714,115.891
			c-44.009,65.388-116.416,104.119-195.694,104.119C140.839,491.922,35.006,386.087,35.006,256S140.84,20.078,270.927,20.078
			c83.171,0,159.849,43.695,202.426,114.677L265.908,254.524z"/>
	</g>
</g>
<g>
	<g>
		<path d="M184.244,419.347c-31.375-16.382-57.257-41.292-74.847-72.035c-2.754-4.812-8.885-6.483-13.7-3.729
			c-4.812,2.753-6.481,8.887-3.728,13.698c19.501,34.084,48.195,61.7,82.981,79.863c1.484,0.774,3.073,1.142,4.638,1.142
			c3.619,0,7.116-1.964,8.908-5.394C191.063,427.978,189.159,421.912,184.244,419.347z"/>
	</g>
</g>
<g>
	<g>
		<path d="M270.927,84.329c-21.866,0-39.655,17.789-39.655,39.655s17.789,39.655,39.655,39.655s39.655-17.789,39.655-39.655
			S292.794,84.329,270.927,84.329z M270.927,143.561c-10.794,0-19.576-8.782-19.576-19.576c0-10.794,8.782-19.576,19.576-19.576
			c10.794,0,19.576,8.782,19.576,19.576C290.504,134.779,281.722,143.561,270.927,143.561z"/>
	</g>
</g>
<g>
	<g>
		<path d="M208.35,431.017c-12.919,0-12.941,20.078,0,20.078C221.27,451.095,221.291,431.017,208.35,431.017z"/>
	</g>
</g>
<g>
</g>
<g>
</g>
<g>
</g>
<g>
</g>
<g>
</g>
<g>
</g>
<g>
</g>
<g>
</g>
<g>
</g>
<g>
</g>
<g>
</g>
<g>
</g>
<g>
</g>
<g>
</g>
<g>
</g>
</svg>
