<?xml version="1.0" encoding="iso-8859-1"?>
<!-- Generator: Adobe Illustrator 19.0.0, SVG Export Plug-In . SVG Version: 6.00 Build 0)  -->
<svg version="1.1" id="Capa_1" xmlns="http://www.w3.org/2000/svg" xmlns:xlink="http://www.w3.org/1999/xlink" x="0px" y="0px"
	 viewBox="0 0 512 512" style="enable-background:new 0 0 512 512;" xml:space="preserve">
<g>
	<g>
		<path d="M445.149,391.349h-11.696v-9.768c0-13.346-10.854-24.204-24.195-24.204h-49.995c-13.341,0-24.196,10.857-24.196,24.204
			v9.768h-35.97V203.301c38.023-16.909,63.117-55.056,63.117-97.086C362.215,47.648,314.567,0,256,0
			c-58.567,0-106.215,47.648-106.215,106.215c0,42.03,25.093,80.176,63.117,97.086v188.048h-35.971v-9.768
			c0-13.346-10.853-24.205-24.195-24.205h-49.995c-13.34,0-24.195,10.857-24.195,24.204v9.768H66.851
			c-5.544,0-10.039,4.496-10.039,10.039v100.574c0,5.544,4.496,10.039,10.039,10.039h378.298c5.544,0,10.039-4.496,10.039-10.039
			V401.388C455.188,395.844,450.693,391.349,445.149,391.349z M359.264,377.455h49.995c2.27,0,4.116,1.851,4.116,4.125v9.768
			h-58.227v-9.768h-0.001C355.147,379.306,356.995,377.455,359.264,377.455z M169.864,106.215c0-47.497,38.64-86.136,86.136-86.136
			c47.497,0,86.136,38.64,86.136,86.136c0,36.023-22.717,68.54-56.529,80.916c-9.462,3.464-19.424,5.22-29.608,5.22
			c-10.184,0-20.146-1.757-29.608-5.22C192.58,174.755,169.864,142.238,169.864,106.215z M279.02,209.926v181.423h-46.04V209.926
			c7.517,1.662,15.217,2.504,23.02,2.504S271.503,211.589,279.02,209.926z M102.741,377.455h49.995c2.27,0,4.117,1.851,4.117,4.125
			v9.768H98.626v-9.768h-0.001C98.625,379.306,100.471,377.455,102.741,377.455z M76.89,491.922v-80.494h11.696h78.306h56.049
			h66.117h56.049h78.306h11.696v80.494H76.89z"/>
	</g>
</g>
<g>
	<g>
		<path d="M285.195,441.635h-90.347c-5.544,0-10.039,4.496-10.039,10.039s4.496,10.039,10.039,10.039h90.347
			c5.544,0,10.039-4.496,10.039-10.039S290.74,441.635,285.195,441.635z"/>
	</g>
</g>
<g>
	<g>
		<path d="M317.152,441.635c-12.919,0-12.941,20.078,0,20.078C330.071,461.714,330.092,441.635,317.152,441.635z"/>
	</g>
</g>
<g>
</g>
<g>
</g>
<g>
</g>
<g>
</g>
<g>
</g>
<g>
</g>
<g>
</g>
<g>
</g>
<g>
</g>
<g>
</g>
<g>
</g>
<g>
</g>
<g>
</g>
<g>
</g>
<g>
</g>
</svg>
