<?xml version="1.0" encoding="iso-8859-1"?>
<!-- Generator: Adobe Illustrator 19.0.0, SVG Export Plug-In . SVG Version: 6.00 Build 0)  -->
<svg version="1.1" id="Capa_1" xmlns="http://www.w3.org/2000/svg" xmlns:xlink="http://www.w3.org/1999/xlink" x="0px" y="0px"
	 viewBox="0 0 512 512" style="enable-background:new 0 0 512 512;" xml:space="preserve">
<g>
	<g>
		<path d="M435.14,224.116h-74.401c-5.544,0-10.039,4.495-10.039,10.039c0,5.545,4.496,10.039,10.039,10.039h74.401
			c5.544,0,10.039-4.495,10.039-10.039C445.179,228.61,440.684,224.116,435.14,224.116z"/>
	</g>
</g>
<g>
	<g>
		<path d="M501.961,204.405h-20.443c-1.25-2.174-2.695-4.252-4.355-6.191c-7.749-9.059-19.029-14.255-30.951-14.255H316.907
			c-14.72,0-28.138,7.983-35.318,20.45h-51.177c-7.174-12.466-20.591-20.45-35.321-20.45H65.797
			c-11.846,0-23.081,5.14-30.824,14.102c-1.712,1.982-3.201,4.111-4.484,6.344H10.039C4.495,204.405,0,208.899,0,214.444
			s4.495,10.039,10.039,10.039h15.034c-0.01,2.038,0.123,4.088,0.424,6.133l9.217,62.627c2.922,19.838,20.248,34.798,40.3,34.798
			h110.251c20.19,0,37.112-14.474,40.236-34.413l9.828-62.626c0.339-2.16,0.484-4.34,0.475-6.514H276.2
			c-0.009,2.047,0.117,4.097,0.418,6.13l9.217,62.627c2.923,19.839,20.244,34.798,40.29,34.798h110.261
			c20.177,0,37.098-14.471,40.236-34.413l9.828-62.626c0.341-2.174,0.501-4.353,0.491-6.518h15.02
			c5.544,0,10.039-4.495,10.039-10.039C512,208.9,507.504,204.405,501.961,204.405z M215.493,227.89l-9.828,62.627
			c-1.584,10.108-10.164,17.446-20.401,17.446H75.013c-10.169,0-18.954-7.587-20.436-17.645l-9.216-62.622
			c-0.873-5.946,0.878-11.964,4.806-16.51c3.925-4.544,9.623-7.15,15.63-7.15h129.295c8.735,0,16.564,5.531,19.484,13.775
			C215.726,221.045,216.034,224.436,215.493,227.89z M466.614,227.89l-9.828,62.621c-1.591,10.113-10.171,17.452-20.401,17.452
			H326.124c-10.163,0-18.944-7.587-20.426-17.645l-9.218-62.632c-0.414-2.799-0.259-5.556,0.442-8.221
			c0.592-1.023,1.006-2.159,1.207-3.37c3.348-7.279,10.673-12.058,18.779-12.058h129.305c6.045,0,11.764,2.634,15.693,7.227
			C465.835,215.858,467.55,221.918,466.614,227.89z"/>
	</g>
</g>
<g>
	<g>
		<path d="M327.278,224.878c-12.919,0-12.941,20.078,0,20.078C340.198,244.957,340.219,224.878,327.278,224.878z"/>
	</g>
</g>
<g>
</g>
<g>
</g>
<g>
</g>
<g>
</g>
<g>
</g>
<g>
</g>
<g>
</g>
<g>
</g>
<g>
</g>
<g>
</g>
<g>
</g>
<g>
</g>
<g>
</g>
<g>
</g>
<g>
</g>
</svg>
