<?xml version="1.0" encoding="iso-8859-1"?>
<!-- Generator: Adobe Illustrator 19.0.0, SVG Export Plug-In . SVG Version: 6.00 Build 0)  -->
<svg version="1.1" id="Capa_1" xmlns="http://www.w3.org/2000/svg" xmlns:xlink="http://www.w3.org/1999/xlink" x="0px" y="0px"
	 viewBox="0 0 511.999 511.999" style="enable-background:new 0 0 511.999 511.999;" xml:space="preserve">
<g>
	<g>
		<path d="M487.79,32.986c-0.293-17.616-14.322-31.644-31.94-31.938l-63.547-1.044c-8.771-0.147-17.296,3.318-23.509,9.516l-0.2,0.2
			H41.18c-5.544,0-10.039,4.496-10.039,10.039v204.296c0,46.815,11.176,93.283,32.365,134.884l-26.615,26.615
			c-18.305,18.308-18.305,48.096-0.004,66.398c8.852,8.865,20.642,13.747,33.195,13.747c12.547,0,24.337-4.88,33.203-13.745
			l16.318-16.32c37.116,36.64,83.18,62.846,133.843,76.04c0.826,0.216,1.687,0.324,2.54,0.324s1.704-0.108,2.53-0.323
			c130.897-34.08,222.317-152.353,222.317-287.619v-105.66c5.233-6.016,8.132-13.864,8.001-21.871L487.79,32.986z M51.219,224.057
			V29.8h297.297l-34.835,34.836H153.588c-5.544,0-10.039,4.495-10.039,10.039c0,26.167-21.288,47.456-47.455,47.456
			c-5.544,0-10.039,4.495-10.039,10.039v91.887c0,14.067,1.234,28.21,3.665,42.035c3.105,17.675,8.186,34.97,15.119,51.515
			l-26.351,26.351C60.617,306.693,51.219,265.523,51.219,224.057z M256.475,360.859l-30.004,16.162l-31.23-31.23l-52.193-52.194
			l-31.082-31.081l16.056-30.11l16.039,16.039c0.003,0.003,0.006,0.007,0.009,0.01c0.003,0.003,0.007,0.006,0.01,0.009
			L256.475,360.859z M176.024,252.014l59.331,1.47l1.47,59.331L176.024,252.014z M280.212,356.201l-18.53-18.53l144.149-144.15
			v30.537c0,95.227-60.074,179.242-149.844,210.101c-31.199-10.734-59.765-28.456-83.325-51.588l15.481-15.483l29.413,29.413
			c1.932,1.93,4.501,2.94,7.102,2.94c1.622,0,3.258-0.394,4.758-1.201l48.459-26.102c2.794-1.505,4.711-4.242,5.172-7.382
			C283.505,361.617,282.455,358.445,280.212,356.201z M135.949,314.894l37.996,37.996l-24.753,24.755l-37.998-37.997
			L135.949,314.894z M118.665,297.611l3.086,3.085l-1.447,1.447C119.739,300.638,119.197,299.127,118.665,297.611z M132.637,208.626
			c-2.25-2.249-5.432-3.302-8.577-2.83c-3.146,0.468-5.883,2.399-7.381,5.206l-10.438,19.575c-0.064-2.174-0.107-4.348-0.107-6.52
			v-82.593c29.216-4.374,52.375-27.534,56.749-56.75h130.721L151.168,227.157L132.637,208.626z M89.086,437.759
			c-5.071,5.07-11.819,7.862-19.004,7.862s-13.929-2.79-18.993-7.862c-10.478-10.478-10.478-27.527,0-38.005l5.751-5.751l38.001,38
			L89.086,437.759z M112.791,414.053c-0.003,0.003-0.007,0.006-0.011,0.009c-0.013,0.012-0.023,0.025-0.036,0.037l-3.705,3.706
			l-38-37.999l11.95-11.951c0.016-0.016,0.032-0.031,0.047-0.047l13.961-13.961l37.999,37.998L112.791,414.053z M460.754,224.058
			c0.001,125.258-84.066,234.888-204.772,267.518c-46.205-12.497-88.209-36.634-122.18-70.139l24.65-24.652
			c26.569,26.125,59.007,45.916,94.412,57.505c1.015,0.332,2.07,0.498,3.123,0.498c1.055,0,2.11-0.167,3.124-0.499
			c48.662-15.938,90.329-46.303,120.499-87.811c30.289-41.671,46.298-90.918,46.298-142.419v-50.615l34.846-34.846V224.058z
			 M465.134,105.825l-1.426,1.426c-0.009,0.008-0.017,0.017-0.025,0.025l-54.904,54.903c-0.005,0.005-0.01,0.01-0.015,0.015
			L256.941,314.016l-1.642-66.276L411.384,91.653c3.92-3.92,3.92-10.277,0-14.198c-3.921-3.919-10.276-3.919-14.198,0L241.1,233.542
			l-66.278-1.642L379.579,27.131c0.099-0.092,0.197-0.187,0.293-0.283l3.123-3.132c2.371-2.365,5.667-3.687,8.978-3.634
			l63.546,1.044c6.726,0.11,12.083,5.467,12.195,12.193l1.044,63.538C468.813,100.197,467.491,103.467,465.134,105.825z"/>
	</g>
</g>
<g>
	<g>
		<path d="M96.997,45.19c-16.257,0-29.485,13.228-29.485,29.485s13.228,29.485,29.485,29.485s29.485-13.227,29.485-29.485
			C126.482,58.417,113.255,45.19,96.997,45.19z M96.997,84.081c-5.187,0-9.407-4.219-9.407-9.407c0-5.187,4.219-9.407,9.407-9.407
			c5.187,0,9.407,4.219,9.407,9.407C106.404,79.862,102.184,84.081,96.997,84.081z"/>
	</g>
</g>
<g>
	<g>
		<path d="M425.648,52.71c-12.919,0-12.94,20.078,0,20.078C438.568,72.788,438.589,52.71,425.648,52.71z"/>
	</g>
</g>
<g>
</g>
<g>
</g>
<g>
</g>
<g>
</g>
<g>
</g>
<g>
</g>
<g>
</g>
<g>
</g>
<g>
</g>
<g>
</g>
<g>
</g>
<g>
</g>
<g>
</g>
<g>
</g>
<g>
</g>
</svg>
