<?xml version="1.0" encoding="iso-8859-1"?>
<!-- Generator: Adobe Illustrator 19.0.0, SVG Export Plug-In . SVG Version: 6.00 Build 0)  -->
<svg version="1.1" id="Capa_1" xmlns="http://www.w3.org/2000/svg" xmlns:xlink="http://www.w3.org/1999/xlink" x="0px" y="0px"
	 viewBox="0 0 512 512" style="enable-background:new 0 0 512 512;" xml:space="preserve">
<g>
	<g>
		<path d="M335.941,196.529C317.205,171.383,287.319,156.37,256,156.37c-5.545,0-10.039,4.496-10.039,10.039
			s4.495,10.039,10.039,10.039c25.382,0,48.651,11.692,63.841,32.076c1.971,2.645,4.995,4.042,8.057,4.042
			c2.085,0,4.189-0.648,5.99-1.99C338.336,207.264,339.254,200.976,335.941,196.529z"/>
	</g>
</g>
<g>
	<g>
		<path d="M470.31,197.703c-23.752-14.659-56.836-26.624-95.858-34.685c-13.402-17.036-30.533-31.186-49.766-41.059
			c-21.082-10.824-44.834-16.546-68.685-16.546c-23.851,0-47.603,5.721-68.685,16.545c-19.232,9.874-36.364,24.024-49.766,41.059
			c-39.023,8.061-72.107,20.026-95.858,34.685C14.416,214.535,0,234.693,0,256c0,21.307,14.416,41.467,41.691,58.299
			c23.751,14.658,56.833,26.62,95.856,34.682c13.402,17.037,30.534,31.188,49.767,41.061c21.082,10.823,44.834,16.545,68.685,16.545
			c23.851,0,47.603-5.721,68.685-16.545c19.234-9.874,36.366-24.026,49.768-41.062c39.021-8.062,72.104-20.025,95.855-34.682
			C497.584,297.467,512,277.308,512,256C512,234.693,497.585,214.535,470.31,197.703z M127.923,230.775
			c3.701-18.886,11.747-37.059,23.266-52.566c0.026-0.034,0.055-0.063,0.081-0.097c24.917-33.442,63.089-52.621,104.73-52.621
			c41.641,0,79.813,19.179,104.73,52.621c0.02,0.026,0.043,0.048,0.063,0.075c11.529,15.512,19.581,33.694,23.282,52.584
			c1.616,8.265,2.435,16.753,2.435,25.23c0,6.521-0.491,13.055-1.453,19.495c-31.664,9.808-79.249,15.602-129.057,15.602
			c-49.807,0-97.39-5.794-129.059-15.603c-0.961-6.433-1.451-12.966-1.451-19.494C125.49,247.522,126.308,239.034,127.923,230.775z
			 M256,386.51c-32.052,0-62.042-11.374-85.522-31.859c27.257,3.82,55.901,5.757,85.522,5.757s58.265-1.938,85.522-5.758
			C318.043,375.136,288.052,386.51,256,386.51z M459.764,297.212c-22.484,13.876-54.621,25.229-92.935,32.827
			c-33.957,6.732-72.28,10.29-110.829,10.29s-76.872-3.558-110.827-10.289c-38.316-7.6-70.452-18.952-92.937-32.828
			c-14.67-9.053-32.158-23.552-32.158-41.212c0-17.659,17.486-32.159,32.157-41.213c17.792-10.981,41.647-20.372,69.805-27.583
			c-5.555,10.821-9.799,22.311-12.593,34.105c-23.999,9.243-36.16,20.899-36.16,34.69c0,14.758,13.913,27.067,41.345,36.587
			c0.03,0.011,0.06,0.021,0.089,0.032c0.021,0.007,0.041,0.015,0.063,0.022c33.984,11.778,85.455,18.534,141.217,18.534
			s107.233-6.755,141.212-18.532c0.013-0.005,0.026-0.009,0.039-0.014c0.093-0.033,0.187-0.063,0.278-0.098
			c27.326-9.514,41.185-21.803,41.185-36.531c0-13.784-12.161-25.438-36.16-34.69c-2.793-11.793-7.038-23.284-12.593-34.106
			c28.158,7.211,52.011,16.602,69.804,27.584c14.67,9.053,32.158,23.553,32.158,41.212
			C491.922,273.661,474.434,288.159,459.764,297.212z M105.819,267.108c-9.877-5.224-12.455-9.518-12.455-11.107
			c0-1.588,2.574-5.88,12.455-11.106c-0.27,3.694-0.408,7.402-0.408,11.106C105.412,259.706,105.549,263.413,105.819,267.108z
			 M406.181,244.9c9.877,5.226,12.455,9.514,12.455,11.1c0,1.589-2.578,5.883-12.457,11.108c0.271-3.697,0.41-7.405,0.41-11.108
			C406.588,252.298,406.452,248.594,406.181,244.9z"/>
	</g>
</g>
<g>
	<g>
		<path d="M342.839,215.844c-12.919,0-12.941,20.078,0,20.078C355.759,235.922,355.78,215.844,342.839,215.844z"/>
	</g>
</g>
<g>
</g>
<g>
</g>
<g>
</g>
<g>
</g>
<g>
</g>
<g>
</g>
<g>
</g>
<g>
</g>
<g>
</g>
<g>
</g>
<g>
</g>
<g>
</g>
<g>
</g>
<g>
</g>
<g>
</g>
</svg>
