<?xml version="1.0" encoding="iso-8859-1"?>
<!-- Generator: Adobe Illustrator 19.0.0, SVG Export Plug-In . SVG Version: 6.00 Build 0)  -->
<svg version="1.1" id="Capa_1" xmlns="http://www.w3.org/2000/svg" xmlns:xlink="http://www.w3.org/1999/xlink" x="0px" y="0px"
	 viewBox="0 0 512 512" style="enable-background:new 0 0 512 512;" xml:space="preserve">
<g>
	<g>
		<path d="M166.952,363.695c-14.581,0-26.443,11.862-26.443,26.443c0,14.586,11.862,26.453,26.443,26.453
			c14.586,0,26.453-11.866,26.453-26.453C193.405,375.558,181.538,363.695,166.952,363.695z M166.952,396.513
			c-3.51,0-6.365-2.86-6.365-6.375c0-3.51,2.855-6.365,6.365-6.365c3.515,0,6.375,2.855,6.375,6.365
			C173.327,393.653,170.467,396.513,166.952,396.513z"/>
	</g>
</g>
<g>
	<g>
		<path d="M486.98,146.222c-1.385-2.274-3.618-3.903-6.206-4.531c-2.588-0.63-5.319-0.201-7.592,1.184l-66.426,40.49l-56.637-39.521
			l0.024-19.718l56.615-39.532l66.424,40.489c4.732,2.882,10.91,1.386,13.797-3.346l23.552-38.631
			c2.886-4.733,1.388-10.911-3.346-13.797l-84.626-51.595c-11.062-6.732-25.066-6.305-35.678,1.093l-49.852,34.756l-53.341-0.057
			c-0.004,0-0.007,0-0.011,0c-5.539,0-10.032,4.487-10.039,10.026l-0.028,22.8l-128.683-0.153
			c-15.129-20.539-38.892-32.644-64.632-32.644C36.02,53.534,0,89.554,0,133.827c0,37.024,25.142,68.896,60.528,77.824
			l51.586,121.908c-0.754,0.862-1.373,1.857-1.804,2.967L75.343,426.46H10.24c-5.545,0-10.039,4.496-10.039,10.039v52.516
			c0,5.544,4.495,10.039,10.039,10.039h430.481c5.545,0,10.039-4.496,10.039-10.039v-52.516c0-5.544-4.495-10.039-10.039-10.039
			H258.56l-34.968-89.935c-1.501-3.859-5.216-6.401-9.357-6.401h-0.204l-62.944-148.738l122.407,0.146l-0.028,22.808
			c-0.007,5.545,4.482,10.045,10.026,10.052l53.622,0.067l49.768,34.694c5.51,3.838,11.969,5.868,18.679,5.868
			c6.014,0,11.899-1.655,17.001-4.78l84.62-51.582c4.733-2.886,6.232-9.063,3.347-13.798L486.98,146.222z M350.21,68.848
			l48.154-33.572c4.086-2.847,9.486-3.011,13.749-0.417l76.049,46.366l-13.1,21.487l-63.451-38.676
			c-3.4-2.071-7.705-1.94-10.973,0.341l-50.465,35.238L350.21,68.848z M69.534,193.086c-28.656-5.162-49.455-30.084-49.455-59.259
			c0-33.203,27.013-60.214,60.215-60.214c20.654,0,39.615,10.395,50.767,27.813c0.093,0.153,0.184,0.306,0.285,0.454
			c5.911,9.421,9.069,20.287,9.155,31.481c-0.008,0.166-0.025,0.329-0.025,0.497c0,0.163,0.017,0.321,0.024,0.482
			c-0.094,11.244-3.294,22.17-9.291,31.649c-0.655,1.039-1.303,2.001-1.976,2.922c-11.305,15.737-29.6,25.132-48.94,25.132
			C76.677,194.042,73.057,193.72,69.534,193.086z M430.682,446.537v32.438H20.279v-32.438h61.932h169.482H430.682z M207.369,350.204
			l29.65,76.256H96.885l29.65-76.258h80.808C207.352,350.202,207.361,350.204,207.369,350.204z M192.23,330.123h-59.765v0.001
			L83.348,214.055c19-0.729,37.062-8.226,50.95-20.825L192.23,330.123z M273.52,161.453l-117.772-0.14
			c2.046-5.617,3.448-11.458,4.198-17.417h35.743c5.545,0,10.039-4.496,10.039-10.039s-4.495-10.039-10.039-10.039h-35.734
			c-0.749-6.007-2.162-11.892-4.227-17.549l117.859,0.14L273.52,161.453z M330.036,149.036c0,0.013-0.002,0.027-0.002,0.04
			c0,0.01,0.002,0.02,0.002,0.031l-0.054,45.264l-36.423-0.045l0.027-22.404c0.006-0.135,0.021-0.269,0.021-0.407l0.07-73.838
			c0-0.008-0.001-0.016-0.001-0.023l0.029-24.06l36.421,0.038L330.036,149.036z M412.098,233.108
			c-1.962,1.201-4.221,1.835-6.535,1.835c-2.586,0-5.077-0.782-7.199-2.262l-48.311-33.678l0.037-30.697l50.55,35.275
			c3.267,2.28,7.57,2.41,10.97,0.339l63.45-38.675l13.102,21.495L412.098,233.108z"/>
	</g>
</g>
<g>
	<g>
		<path d="M80.294,95.386c-21.196,0-38.44,17.244-38.44,38.44c0,21.196,17.244,38.44,38.44,38.44c21.196,0,38.44-17.244,38.44-38.44
			C118.734,112.631,101.489,95.386,80.294,95.386z M80.294,152.188c-10.125,0-18.362-8.237-18.362-18.362
			c0-10.125,8.237-18.362,18.362-18.362c10.125,0,18.362,8.237,18.362,18.362S90.418,152.188,80.294,152.188z"/>
	</g>
</g>
<g>
	<g>
		<path d="M227.645,123.818c-12.919,0-12.94,20.078,0,20.078C240.564,143.897,240.585,123.818,227.645,123.818z"/>
	</g>
</g>
<g>
</g>
<g>
</g>
<g>
</g>
<g>
</g>
<g>
</g>
<g>
</g>
<g>
</g>
<g>
</g>
<g>
</g>
<g>
</g>
<g>
</g>
<g>
</g>
<g>
</g>
<g>
</g>
<g>
</g>
</svg>
