<?xml version="1.0" encoding="iso-8859-1"?>
<!-- Generator: Adobe Illustrator 19.0.0, SVG Export Plug-In . SVG Version: 6.00 Build 0)  -->
<svg version="1.1" id="Capa_1" xmlns="http://www.w3.org/2000/svg" xmlns:xlink="http://www.w3.org/1999/xlink" x="0px" y="0px"
	 viewBox="0 0 512 512" style="enable-background:new 0 0 512 512;" xml:space="preserve">
<g>
	<g>
		<path d="M367.32,452.39c1.28-1.507,2.406-3.171,3.324-4.995c4.269-8.487,3.401-18.5-2.266-26.13l-32.676-43.998v-20.232
			c0-12.275-8.931-22.496-20.635-24.525l-4.399-205.686l33.141-18.962c0.041-0.024,0.078-0.052,0.118-0.076
			c0.178-0.104,0.348-0.218,0.519-0.333c0.104-0.07,0.211-0.138,0.312-0.213c0.149-0.109,0.29-0.226,0.433-0.343
			c0.109-0.089,0.222-0.176,0.326-0.269c0.123-0.11,0.238-0.23,0.355-0.346c0.177-0.174,0.345-0.352,0.507-0.537
			c0.139-0.159,0.278-0.315,0.407-0.483c0.071-0.092,0.133-0.191,0.201-0.285c0.118-0.166,0.238-0.331,0.346-0.505
			c0.053-0.085,0.099-0.175,0.15-0.261c0.11-0.19,0.221-0.379,0.319-0.577c0.042-0.083,0.076-0.17,0.116-0.254
			c0.094-0.203,0.187-0.407,0.268-0.617c0.036-0.094,0.066-0.191,0.099-0.287c0.07-0.201,0.139-0.402,0.197-0.607
			c0.034-0.121,0.06-0.244,0.089-0.366c0.043-0.181,0.087-0.36,0.12-0.545c0.029-0.157,0.048-0.315,0.069-0.474
			c0.016-0.117,0.04-0.233,0.051-0.351l8.764-89.108c0.277-2.82-0.65-5.626-2.553-7.724C353.123,1.197,350.421,0,347.588,0h-40.789
			c-5.545,0-10.039,4.496-10.039,10.039v19.747h-12.147V10.039C284.612,4.496,280.117,0,274.573,0h-37.145
			c-5.545,0-10.039,4.496-10.039,10.039v19.747h-12.147V10.039C215.241,4.496,210.746,0,205.202,0h-40.789
			c-2.775,0-5.426,1.148-7.324,3.172c-1.897,2.025-2.873,4.745-2.695,7.513l5.751,89.108c0.004,0.061,0.016,0.119,0.021,0.18
			c0.016,0.187,0.038,0.373,0.064,0.558c0.021,0.155,0.043,0.307,0.071,0.459c0.029,0.156,0.065,0.31,0.102,0.465
			c0.04,0.173,0.081,0.344,0.13,0.512c0.039,0.135,0.085,0.266,0.13,0.399c0.059,0.176,0.12,0.351,0.188,0.523
			c0.054,0.136,0.117,0.268,0.178,0.402c0.07,0.156,0.14,0.311,0.218,0.462c0.083,0.161,0.176,0.316,0.267,0.473
			c0.066,0.112,0.13,0.228,0.201,0.337c0.122,0.192,0.256,0.376,0.393,0.56c0.05,0.067,0.097,0.137,0.149,0.202
			c0.163,0.209,0.337,0.409,0.518,0.605c0.033,0.036,0.064,0.073,0.097,0.108c0.191,0.202,0.394,0.395,0.603,0.582
			c0.031,0.027,0.06,0.056,0.091,0.083c0.203,0.177,0.416,0.344,0.635,0.506c0.047,0.035,0.093,0.071,0.142,0.105
			c0.202,0.144,0.413,0.278,0.627,0.409c0.074,0.045,0.149,0.09,0.224,0.133c0.089,0.051,0.173,0.109,0.264,0.158l35.867,19.026
			l-4.394,205.468c-11.704,2.029-20.635,12.25-20.635,24.525v20.232l-32.676,43.998c-5.667,7.631-6.535,17.643-2.266,26.13
			c0.918,1.824,2.043,3.489,3.324,4.995c-3.764,4.885-6.008,10.997-6.008,17.626v31.946c0,5.544,4.495,10.039,10.039,10.039h214.578
			c5.545,0,10.039-4.496,10.039-10.039v-31.945C373.328,463.386,371.083,457.275,367.32,452.39z M179.822,92.906l-4.701-72.828
			h20.041v19.747c0,5.544,4.495,10.039,10.039,10.039h32.226c5.545,0,10.039-4.496,10.039-10.039V20.078h17.067v19.747
			c0,5.544,4.495,10.039,10.039,10.039h32.226c5.545,0,10.039-4.496,10.039-10.039V20.078h19.675l-7.173,72.929l-31.505,18.026
			h-83.841L179.822,92.906z M294.976,332.137h-77.953l4.299-201.025h69.354L294.976,332.137z M196.377,357.035
			c0-2.657,2.161-4.819,4.819-4.819h109.608c2.657,0,4.819,2.161,4.819,4.819v13.513H196.377V357.035z M159.742,433.234
			l31.645-42.608h129.227l31.645,42.608c1.631,2.197,0.857,4.325,0.448,5.137c-0.409,0.813-1.654,2.701-4.385,2.701h-3.935H167.615
			h-3.935c-2.732,0-3.977-1.888-4.385-2.701C158.886,437.559,158.111,435.431,159.742,433.234z M353.25,491.922h-194.5v-21.906
			c0-4.888,3.977-8.865,8.865-8.865h176.771c4.888,0,8.865,3.977,8.865,8.865V491.922z"/>
	</g>
</g>
<g>
	<g>
		<path d="M256,192.391c-5.545,0-10.039,4.496-10.039,10.039v90.347c0,5.544,4.495,10.039,10.039,10.039
			c5.545,0,10.039-4.496,10.039-10.039V202.43C266.039,196.885,261.545,192.391,256,192.391z"/>
	</g>
</g>
<g>
	<g>
		<path d="M256,160.434c-12.919,0-12.941,20.078,0,20.078C268.919,180.512,268.941,160.434,256,160.434z"/>
	</g>
</g>
<g>
</g>
<g>
</g>
<g>
</g>
<g>
</g>
<g>
</g>
<g>
</g>
<g>
</g>
<g>
</g>
<g>
</g>
<g>
</g>
<g>
</g>
<g>
</g>
<g>
</g>
<g>
</g>
<g>
</g>
</svg>
