<?xml version="1.0" encoding="iso-8859-1"?>
<!-- Generator: Adobe Illustrator 19.0.0, SVG Export Plug-In . SVG Version: 6.00 Build 0)  -->
<svg version="1.1" id="Capa_1" xmlns="http://www.w3.org/2000/svg" xmlns:xlink="http://www.w3.org/1999/xlink" x="0px" y="0px"
	 viewBox="0 0 512 512" style="enable-background:new 0 0 512 512;" xml:space="preserve">
<g>
	<g>
		<path d="M437.462,256.432c-45.999-46.223-106.587-72.722-171.423-75.208v-48.743c24.626,12.687,69.261,34.261,88.014,34.261
			c28.061,0,50.889-22.833,50.889-50.899c0-28.061-22.828-50.889-50.889-50.889c-21.731,0-78.216,28.962-98.045,39.499
			c-18.141-9.643-76.087-39.499-98.051-39.499c-28.06,0-50.888,22.828-50.888,50.889c0,28.066,22.828,50.899,50.888,50.899
			c18.426,0,62.232-21.025,88.004-34.274v48.756c-64.83,2.484-125.417,28.982-171.418,75.204C26.473,304.729,0,368.86,0,437.007
			c0,5.545,4.496,10.039,10.039,10.039c0.002,0,0.003,0,0.005,0s0.003,0,0.005,0h491.912c5.544,0,10.039-4.495,10.039-10.039
			C512,368.861,485.529,304.731,437.462,256.432z M354.053,85.032c16.989,0,30.81,13.822,30.81,30.81
			c0,16.994-13.822,30.82-30.81,30.82c-11.99,0-48.186-16.45-76.417-30.819C305.863,101.477,342.056,85.032,354.053,85.032z
			 M157.957,146.663c-16.988,0-30.809-13.826-30.809-30.82c0-16.988,13.822-30.81,30.809-30.81
			c12.358,0,49.848,17.314,76.407,30.808C202.13,132.254,168.844,146.663,157.957,146.663z M254.96,201.093
			c0.34-0.008,0.691-0.007,1.04-0.007c0.354,0.002,0.704-0.001,1.079,0.008c29.02,0.624,50.912,25.9,64.166,46.994
			c17.55,27.93,30.978,66.362,38.359,109.386c-32.081-6.963-66.737-10.579-103.282-10.773c-0.104-0.003-0.206-0.016-0.311-0.016
			h-1.385h-0.024h-1.36c-0.101,0-0.201,0.012-0.301,0.015c-35.451,0.189-69.155,3.603-100.434,10.169
			c7.419-42.888,20.857-81.182,38.382-108.99C204.119,226.88,225.975,201.718,254.96,201.093z M196.182,208.795
			c-30.734,30.649-54.413,84.8-64.841,153.092c-55.065,14.607-90.557,36.485-110.088,51.598
			C31.117,314.719,102.38,233.464,196.182,208.795z M36.887,426.968c19.257-14.204,53.592-34.343,105.835-47.278
			c0.037-0.009,0.076-0.018,0.113-0.027c0.032-0.008,0.065-0.015,0.098-0.023c34.162-8.444,71.742-12.777,111.678-12.876
			c41.134,0.099,79.722,4.681,114.694,13.621c50.624,12.936,84.102,32.621,103.036,46.583H36.887z M380.779,362.657
			c-7.493-49.604-22.142-92.8-42.533-125.252c-6.989-11.123-14.466-20.662-22.337-28.57
			c94.501,24.9,166.111,107.227,175.062,207.019C472.47,400.986,437.038,378.038,380.779,362.657z"/>
	</g>
</g>
<g>
	<g>
		<path d="M445.695,327.029c-11.826-25.448-30.828-48.293-54.951-66.064c-4.464-3.287-10.749-2.336-14.037,2.128
			c-3.291,4.464-2.338,10.749,2.126,14.038c21.419,15.779,38.242,35.959,48.653,58.36c1.7,3.659,5.325,5.811,9.111,5.811
			c1.416,0,2.855-0.301,4.224-0.938C445.85,338.026,448.032,332.057,445.695,327.029z"/>
	</g>
</g>
<g>
	<g>
		<path d="M447.463,348.711c-12.919,0-12.941,20.078,0,20.078C460.382,368.79,460.404,348.711,447.463,348.711z"/>
	</g>
</g>
<g>
</g>
<g>
</g>
<g>
</g>
<g>
</g>
<g>
</g>
<g>
</g>
<g>
</g>
<g>
</g>
<g>
</g>
<g>
</g>
<g>
</g>
<g>
</g>
<g>
</g>
<g>
</g>
<g>
</g>
</svg>
