<?xml version="1.0" encoding="iso-8859-1"?>
<!-- Generator: Adobe Illustrator 19.0.0, SVG Export Plug-In . SVG Version: 6.00 Build 0)  -->
<svg version="1.1" id="Capa_1" xmlns="http://www.w3.org/2000/svg" xmlns:xlink="http://www.w3.org/1999/xlink" x="0px" y="0px"
	 viewBox="0 0 512.001 512.001" style="enable-background:new 0 0 512.001 512.001;" xml:space="preserve">
<g>
	<g>
		<path d="M501.917,167.262c5.568,0,10.084-4.515,10.084-10.084s-4.516-10.084-10.084-10.084h-5.92
			c9.939-10.93,16.004-25.442,16.004-41.344c-0.001-16.428-6.4-31.873-18.02-43.493c-11.619-11.62-27.065-18.019-43.493-18.019
			H10.084C4.516,44.239,0,48.753,0,54.322s4.516,10.084,10.084,10.084h10.084v82.688H10.084C4.516,147.094,0,151.609,0,157.178
			s4.516,10.084,10.084,10.084h25.917c-2.915,2.302-5.716,4.785-8.382,7.451C9.809,192.524,0,216.203,0,241.389
			c0,30.042,14.122,56.847,36.076,74.127H10.084C4.516,315.516,0,320.03,0,325.6s4.516,10.084,10.084,10.084h10.084v83.659
			c0,0.007-0.001,0.013-0.001,0.019c0,0.006,0.001,0.013,0.001,0.019v28.214H10.084C4.516,447.595,0,452.109,0,457.679
			s4.516,10.084,10.084,10.084h425.793c41.974,0,76.123-34.149,76.123-76.123c0-20.335-7.918-39.452-22.293-53.829
			c-0.729-0.729-1.479-1.431-2.233-2.127h14.443c5.568,0,10.084-4.515,10.084-10.084c0-5.569-4.516-10.084-10.084-10.084h-10.084
			V167.262H501.917z M20.168,241.389c0-19.799,7.71-38.414,21.712-52.415c14.001-14.002,32.616-21.712,52.415-21.712h356.194h21.176
			v148.254H94.295C53.422,315.516,20.168,282.262,20.168,241.389z M491.832,391.639c0,30.855-25.102,55.956-55.956,55.956H40.336
			v-18.149h305.351c5.568,0,10.084-4.515,10.084-10.084s-4.516-10.084-10.084-10.084H40.336v-73.594h53.959h341.582
			c14.948,0,29.001,5.819,39.568,16.387C486.013,362.639,491.832,376.691,491.832,391.639z M450.488,147.094H40.336v-31.26h179.493
			c5.568,0,10.084-4.515,10.084-10.084s-4.516-10.084-10.084-10.084H40.336v-31.26h410.153c11.04,0,21.421,4.302,29.231,12.112
			c7.811,7.81,12.113,18.191,12.113,29.232C491.832,128.547,473.285,147.094,450.488,147.094z"/>
	</g>
</g>
<g>
	<g>
		<path d="M454.018,264.068H206.962c-5.568,0-10.084,4.515-10.084,10.084c0,5.569,4.516,10.084,10.084,10.084h247.056
			c5.568,0,10.084-4.515,10.084-10.084C464.102,268.582,459.586,264.068,454.018,264.068z"/>
	</g>
</g>
<g>
	<g>
		<path d="M353.269,211.631H106.204c-5.568,0-10.084,4.515-10.084,10.084s4.516,10.084,10.084,10.084h247.066
			c5.569,0,10.084-4.515,10.084-10.084C363.353,216.146,358.838,211.631,353.269,211.631z"/>
	</g>
</g>
<g>
	<g>
		<path d="M381.174,409.278c-12.977,0-12.998,20.168,0,20.168C394.151,429.446,394.172,409.278,381.174,409.278z"/>
	</g>
</g>
<g>
</g>
<g>
</g>
<g>
</g>
<g>
</g>
<g>
</g>
<g>
</g>
<g>
</g>
<g>
</g>
<g>
</g>
<g>
</g>
<g>
</g>
<g>
</g>
<g>
</g>
<g>
</g>
<g>
</g>
</svg>
