<?xml version="1.0" encoding="iso-8859-1"?>
<!-- Generator: Adobe Illustrator 19.0.0, SVG Export Plug-In . SVG Version: 6.00 Build 0)  -->
<svg version="1.1" id="Capa_1" xmlns="http://www.w3.org/2000/svg" xmlns:xlink="http://www.w3.org/1999/xlink" x="0px" y="0px"
	 viewBox="0 0 512 512" style="enable-background:new 0 0 512 512;" xml:space="preserve">
<g>
	<g>
		<path d="M254.786,218.845c-20.487,0-37.155,16.668-37.155,37.155c0,20.482,16.668,37.145,37.155,37.145
			c20.482,0,37.145-16.663,37.145-37.145C291.931,235.513,275.268,218.845,254.786,218.845z M254.786,273.067
			c-9.416,0-17.077-7.656-17.077-17.067c0-9.416,7.66-17.077,17.077-17.077c9.411,0,17.067,7.66,17.067,17.077
			C271.853,265.411,264.197,273.067,254.786,273.067z"/>
	</g>
</g>
<g>
	<g>
		<path d="M479.21,324.4c4.964-8.591,6.284-18.602,3.715-28.19c-2.568-9.584-8.713-17.597-17.314-22.567
			c-11.244-6.477-24.623-6.58-35.67-0.822c-5.463-5.583-11.294-11.211-17.465-16.84c24.774-22.599,43.899-44.888,55.594-64.893
			c18.644-31.894,14.865-51.912,8.412-63.089c-4.187-7.252-10.645-12.987-19.193-17.044c-5.006-2.377-10.996-0.243-13.373,4.766
			c-2.377,5.009-0.244,10.997,4.766,13.374c4.866,2.309,8.271,5.234,10.413,8.944c5.361,9.286,2.392,24.528-8.358,42.918
			c-10.951,18.731-29.365,39.959-53.469,61.719c-15.785-13.274-33.182-26.362-51.873-39.018
			c-1.612-22.497-4.235-44.107-7.843-64.402c20.041-6.488,38.632-10.999,55.363-13.423c5.487-0.795,9.29-5.888,8.495-11.375
			c-0.795-5.488-5.891-9.288-11.375-8.495c-17.207,2.494-36.145,7.022-56.414,13.473c-7.183-32.757-16.923-60.467-28.402-80.601
			C286.92,6.737,267.693,0,254.786,0c-11.278,0-27.655,5.176-43.965,28.552c-2.937-0.733-5.966-1.114-9.012-1.114
			c-20.487,0-37.155,16.663-37.155,37.145c0,12.98,6.603,24.622,17.127,31.313c-2.095,7.5-4.053,15.363-5.848,23.544
			c-31.958-10.157-60.826-15.577-84.004-15.701c-0.275-0.001-0.544-0.002-0.817-0.002c-36.355,0-51.627,13.169-58.032,24.265
			c-6.453,11.178-10.23,31.198,8.42,63.094c11.7,20.01,30.832,42.303,55.613,64.905c-24.781,22.596-43.913,44.888-55.614,64.903
			c-18.65,31.899-14.872,51.92-8.418,63.101c5.64,9.764,18.31,21.354,46.705,23.79c0.833,2.91,2.016,5.725,3.54,8.364
			c6.875,11.906,19.39,18.57,32.241,18.57c6.296,0,12.672-1.599,18.505-4.965c11.249-6.49,18.033-18.029,18.567-30.489
			c7.593-1.949,15.383-4.184,23.315-6.708c7.183,32.755,16.923,60.465,28.401,80.6C222.654,505.263,241.88,512,254.786,512
			c12.906,0,32.133-6.738,50.432-38.839c11.479-20.138,21.22-47.853,28.403-80.614c31.962,10.16,60.833,15.582,84.011,15.709
			c0.279,0.001,0.556,0.002,0.833,0.002c36.347,0,51.613-13.166,58.018-24.261c5.64-9.773,9.347-26.548-2.746-52.35
			C475.842,329.47,477.688,327.037,479.21,324.4z M58.832,180.961c-10.754-18.393-13.725-33.636-8.364-42.922
			c5.302-9.184,19.72-14.225,40.645-14.225c0.233,0,0.472,0,0.708,0.002c21.703,0.116,49.295,5.451,80.191,15.448
			c-3.617,20.379-6.236,41.998-7.838,64.433c-18.652,12.617-36.058,25.691-51.861,38.988
			C88.206,220.925,69.787,199.695,58.832,180.961z M162.818,282.951c-12.413-8.822-24.14-17.837-35.107-26.951
			c10.966-9.114,22.693-18.127,35.107-26.951c-0.322,8.944-0.503,17.948-0.503,26.951S162.496,274.008,162.818,282.951z
			 M124.036,412.37c-8.153,4.704-18.615,1.899-23.322-6.253c-1.434-2.484-2.223-5.294-2.281-8.141
			c-0.138-6.243,3.133-12.059,8.533-15.178c2.629-1.517,5.547-2.292,8.504-2.292c1.484,0,2.977,0.195,4.448,0.589
			c4.403,1.18,8.083,4.004,10.368,7.966c0.86,1.487,1.491,3.079,1.872,4.732C133.829,401.137,130.566,408.602,124.036,412.37z
			 M148.045,379.721c-0.128-0.234-0.241-0.476-0.374-0.707c-4.957-8.597-12.968-14.746-22.555-17.315
			c-9.583-2.568-19.593-1.252-28.187,3.707c-8.552,4.938-14.63,12.986-17.202,22.225c-11.772-1.208-24.096-4.733-29.258-13.671
			c-5.361-9.286-2.39-24.532,8.364-42.926c10.956-18.737,29.373-39.965,53.482-61.721c15.807,13.3,33.215,26.375,51.862,38.989
			c1.602,22.448,4.225,44.065,7.845,64.428C163.843,375.377,155.828,377.715,148.045,379.721z M324.115,189.831
			c-7.596-4.756-15.307-9.416-23.097-13.912c-7.775-4.491-15.667-8.839-23.599-13.047c13.866-6.344,27.54-11.994,40.906-16.931
			C320.732,159.98,322.676,174.646,324.115,189.831z M238.953,64.583c0-9.868-3.927-19.153-10.644-26.004
			c6.934-9.592,16.151-18.501,26.476-18.501c10.722,0,22.438,10.192,32.989,28.698c10.748,18.852,19.924,45.414,26.715,77.172
			c-19.392,7.029-39.419,15.566-59.705,25.417c-20.275-9.846-40.306-18.383-59.712-25.416c1.812-8.456,3.795-16.566,5.932-24.252
			c0.268,0.006,0.534,0.03,0.803,0.03C222.29,101.728,238.953,85.065,238.953,64.583z M232.134,162.864
			c-7.902,4.191-15.79,8.551-23.59,13.054c-7.839,4.528-15.553,9.177-23.087,13.898c1.435-15.142,3.376-29.805,5.786-43.874
			C204.61,150.879,218.28,156.526,232.134,162.864z M201.809,47.516c2.911,0,5.668,0.703,8.19,2.084
			c5.475,3.007,8.877,8.747,8.877,14.983c0,9.411-7.656,17.067-17.067,17.067c-1.714,0-3.412-0.252-5.049-0.751
			c-7.195-2.231-12.027-8.785-12.027-16.316C184.733,55.172,192.393,47.516,201.809,47.516z M185.456,322.184
			c7.535,4.721,15.251,9.371,23.09,13.899c7.799,4.502,15.685,8.86,23.587,13.048c-13.853,6.337-27.519,11.983-40.886,16.919
			C188.836,351.988,186.892,337.33,185.456,322.184z M287.775,463.218c-10.552,18.509-22.268,28.703-32.989,28.703
			s-22.437-10.194-32.989-28.703c-10.748-18.854-19.924-45.418-26.716-77.177c19.403-7.032,39.432-15.568,59.713-25.416
			c20.239,9.834,40.264,18.371,59.696,25.415C307.699,417.799,298.523,444.364,287.775,463.218z M318.324,366.049
			c-13.38-4.943-27.048-10.59-40.885-16.922c7.9-4.191,15.783-8.547,23.576-13.043c7.793-4.499,15.508-9.163,23.102-13.925
			C322.681,337.316,320.737,351.983,318.324,366.049z M325.993,297.093c-11.349,7.456-23.09,14.719-35.013,21.599
			c-11.943,6.89-24.096,13.454-36.188,19.549c-12.098-6.088-24.257-12.649-36.205-19.546c-12.044-6.957-23.794-14.198-35.006-21.565
			c-0.774-13.534-1.188-27.336-1.188-41.131c0-13.795,0.414-27.596,1.188-41.131c11.206-7.364,22.958-14.605,35.003-21.563
			c11.946-6.895,24.094-13.457,36.178-19.545c12.162,6.131,24.324,12.677,36.216,19.546c11.924,6.883,23.667,14.137,35.015,21.576
			c0.773,13.535,1.187,27.332,1.187,41.118C327.18,269.778,326.766,283.566,325.993,297.093z M346.754,229.039
			c12.428,8.839,24.156,17.852,35.112,26.951c-10.977,9.119-22.706,18.132-35.112,26.949c0.322-8.942,0.503-17.943,0.503-26.94
			C347.257,246.996,347.077,237.988,346.754,229.039z M459.093,373.963c-5.361,9.285-20.047,14.313-41.352,14.218
			c-21.7-0.119-49.293-5.454-80.189-15.452c3.62-20.357,6.243-41.977,7.845-64.434c18.636-12.607,36.044-25.681,51.869-38.99
			c6.4,5.778,12.432,11.55,18.036,17.264c-0.14,0.23-0.294,0.449-0.429,0.682c-4.964,8.591-6.284,18.602-3.714,28.19
			c2.568,9.584,8.713,17.597,17.313,22.566c5.754,3.317,12.167,4.97,18.574,4.97c3.116,0,6.228-0.408,9.265-1.19
			C461.152,352.581,464.258,365.015,459.093,373.963z M461.825,314.358c-1.457,2.523-3.444,4.559-5.914,6.057
			c-5.329,3.237-12.001,3.313-17.404,0.2c-3.948-2.282-6.772-5.965-7.953-10.372c-1.181-4.405-0.575-9.003,1.7-12.941
			c0.865-1.496,1.939-2.846,3.188-4.015c5.521-5.106,13.615-6.008,20.136-2.253c3.948,2.282,6.772,5.965,7.953,10.371
			C464.711,305.812,464.106,310.41,461.825,314.358z"/>
	</g>
</g>
<g>
	<g>
		<path d="M423.779,104.408c-12.919,0-12.941,20.078,0,20.078C436.699,124.486,436.72,104.408,423.779,104.408z"/>
	</g>
</g>
<g>
</g>
<g>
</g>
<g>
</g>
<g>
</g>
<g>
</g>
<g>
</g>
<g>
</g>
<g>
</g>
<g>
</g>
<g>
</g>
<g>
</g>
<g>
</g>
<g>
</g>
<g>
</g>
<g>
</g>
</svg>
