<?xml version="1.0" encoding="iso-8859-1"?>
<!-- Generator: Adobe Illustrator 19.0.0, SVG Export Plug-In . SVG Version: 6.00 Build 0)  -->
<svg version="1.1" id="Capa_1" xmlns="http://www.w3.org/2000/svg" xmlns:xlink="http://www.w3.org/1999/xlink" x="0px" y="0px"
	 viewBox="0 0 512 512" style="enable-background:new 0 0 512 512;" xml:space="preserve">
<g>
	<g>
		<path d="M444.742,101.727c5.545,0,10.039-4.495,10.039-10.039V10.039C454.781,4.495,450.287,0,444.742,0H67.258
			c-5.545,0-10.039,4.495-10.039,10.039v491.922c0,5.545,4.495,10.039,10.039,10.039h377.485c5.545,0,10.039-4.495,10.039-10.039
			V155.106c0-5.545-4.495-10.039-10.039-10.039s-10.039,4.495-10.039,10.039v336.816H77.297V20.078h357.406v71.61
			C434.703,97.233,439.198,101.727,444.742,101.727z"/>
	</g>
</g>
<g>
	<g>
		<path d="M240.936,40.157H107.415c-5.545,0-10.039,4.495-10.039,10.039v83.326c0,5.545,4.495,10.039,10.039,10.039h133.522
			c5.545,0,10.039-4.495,10.039-10.039V50.196C250.975,44.651,246.481,40.157,240.936,40.157z M230.897,123.482H117.454V60.235
			h113.443V123.482z"/>
	</g>
</g>
<g>
	<g>
		<path d="M179.205,288.638h-71.79c-5.545,0-10.039,4.495-10.039,10.039v163.127c0,5.545,4.495,10.039,10.039,10.039h71.79
			c5.545,0,10.039-4.495,10.039-10.039V298.677C189.244,293.132,184.75,288.638,179.205,288.638z M169.166,451.765h-51.712V308.716
			h51.712V451.765z"/>
	</g>
</g>
<g>
	<g>
		<path d="M291.895,288.638h-71.78c-5.545,0-10.039,4.495-10.039,10.039v163.127c0,5.545,4.495,10.039,10.039,10.039h71.78
			c5.545,0,10.039-4.495,10.039-10.039V298.677C301.934,293.132,297.44,288.638,291.895,288.638z M281.856,451.765h-51.702V308.716
			h51.702V451.765z"/>
	</g>
</g>
<g>
	<g>
		<path d="M404.585,288.638h-71.78c-5.545,0-10.039,4.495-10.039,10.039v163.127c0,5.545,4.495,10.039,10.039,10.039h71.78
			c5.545,0,10.039-4.495,10.039-10.039V298.677C414.625,293.132,410.13,288.638,404.585,288.638z M394.546,451.765h-51.702V308.716
			h51.702V451.765z"/>
	</g>
</g>
<g>
	<g>
		<path d="M404.585,165.145H107.415c-5.545,0-10.039,4.495-10.039,10.039v83.336c0,5.545,4.495,10.039,10.039,10.039h297.171
			c5.545,0,10.039-4.495,10.039-10.039v-83.336C414.625,169.64,410.13,165.145,404.585,165.145z M394.546,248.481H117.454v-63.257
			h277.092V248.481z"/>
	</g>
</g>
<g>
	<g>
		<path d="M404.585,40.157H281.093c-5.545,0-10.039,4.495-10.039,10.039v83.326c0,5.545,4.495,10.039,10.039,10.039h123.492
			c5.545,0,10.039-4.495,10.039-10.039V50.196C414.625,44.651,410.13,40.157,404.585,40.157z M394.546,123.482H291.132V60.235
			h103.414V123.482z"/>
	</g>
</g>
<g>
	<g>
		<path d="M444.742,111.937c-12.919,0-12.941,20.078,0,20.078C457.662,132.016,457.683,111.937,444.742,111.937z"/>
	</g>
</g>
<g>
</g>
<g>
</g>
<g>
</g>
<g>
</g>
<g>
</g>
<g>
</g>
<g>
</g>
<g>
</g>
<g>
</g>
<g>
</g>
<g>
</g>
<g>
</g>
<g>
</g>
<g>
</g>
<g>
</g>
</svg>
