<?xml version="1.0" encoding="iso-8859-1"?>
<!-- Generator: Adobe Illustrator 19.0.0, SVG Export Plug-In . SVG Version: 6.00 Build 0)  -->
<svg version="1.1" id="Capa_1" xmlns="http://www.w3.org/2000/svg" xmlns:xlink="http://www.w3.org/1999/xlink" x="0px" y="0px"
	 viewBox="0 0 512 512" style="enable-background:new 0 0 512 512;" xml:space="preserve">
<g>
	<g>
		<path d="M401.398,67.97H110.602c-18.162,0-32.939,14.772-32.939,32.929v157.987c0,18.162,14.777,32.939,32.939,32.939h290.796
			c18.157,0,32.929-14.777,32.929-32.939V100.899C434.326,82.742,419.555,67.97,401.398,67.97z M414.248,258.886
			c0,7.091-5.765,12.86-12.85,12.86H110.602c-7.091,0-12.86-5.77-12.86-12.86V100.899c0-7.086,5.77-12.85,12.86-12.85h290.796
			c7.086,0,12.85,5.765,12.85,12.85V258.886z"/>
	</g>
</g>
<g>
	<g>
		<path d="M511.434,470.822l-37.517-106.908c-1.412-4.023-5.209-6.714-9.473-6.714H435.32v-25.219h29.124
			c5.545,0,10.039-4.495,10.039-10.039V37.853c0-5.545-4.495-10.039-10.039-10.039H47.546c-5.545,0-10.039,4.495-10.039,10.039
			v284.09c0,5.545,4.495,10.039,10.039,10.039h29.134V357.2H47.546c-4.264,0-8.061,2.693-9.473,6.715L0.566,470.823
			c-1.077,3.072-0.599,6.475,1.283,9.13c1.882,2.655,4.935,4.234,8.19,4.234h491.922c3.255,0,6.308-1.578,8.19-4.234
			C512.033,477.297,512.511,473.894,511.434,470.822z M57.585,311.903V47.892h396.82v264.011h-29.124H86.719H57.585z
			 M415.242,331.982V357.2H96.758v-25.219H415.242z M24.2,464.108l30.462-86.829h402.665l30.471,86.829H24.2z"/>
	</g>
</g>
<g>
	<g>
		<path d="M167.655,107.455h-38.48c-5.545,0-10.039,4.495-10.039,10.039s4.495,10.039,10.039,10.039h38.48
			c5.545,0,10.039-4.495,10.039-10.039S173.199,107.455,167.655,107.455z"/>
	</g>
</g>
<g>
	<g>
		<path d="M425.276,410.656H294.87c-5.545,0-10.039,4.495-10.039,10.039s4.495,10.039,10.039,10.039h130.406
			c5.545,0,10.039-4.495,10.039-10.039S430.821,410.656,425.276,410.656z"/>
	</g>
</g>
<g>
	<g>
		<path d="M136.533,410.656H91.357c-5.545,0-10.039,4.495-10.039,10.039s4.495,10.039,10.039,10.039h45.176
			c5.545,0,10.039-4.495,10.039-10.039S142.078,410.656,136.533,410.656z"/>
	</g>
</g>
<g>
	<g>
		<path d="M167.655,410.656c-12.919,0-12.941,20.078,0,20.078C180.574,430.734,180.595,410.656,167.655,410.656z"/>
	</g>
</g>
<g>
</g>
<g>
</g>
<g>
</g>
<g>
</g>
<g>
</g>
<g>
</g>
<g>
</g>
<g>
</g>
<g>
</g>
<g>
</g>
<g>
</g>
<g>
</g>
<g>
</g>
<g>
</g>
<g>
</g>
</svg>
