<?xml version="1.0" encoding="iso-8859-1"?>
<!-- Generator: Adobe Illustrator 19.0.0, SVG Export Plug-In . SVG Version: 6.00 Build 0)  -->
<svg version="1.1" id="Capa_1" xmlns="http://www.w3.org/2000/svg" xmlns:xlink="http://www.w3.org/1999/xlink" x="0px" y="0px"
	 viewBox="0 0 512 512" style="enable-background:new 0 0 512 512;" xml:space="preserve">
<g>
	<g>
		<path d="M453.773,0H256H58.227C26.121,0,0,26.121,0,58.227V256v197.773C0,485.879,26.121,512,58.227,512H256h197.773
			C485.879,512,512,485.879,512,453.773V256V58.227C512,26.121,485.879,0,453.773,0z M245.961,491.922H58.227
			c-21.035,0-38.149-17.114-38.149-38.149V266.039h225.882V491.922z M245.961,245.961H20.078V58.227
			c0-21.035,17.114-38.149,38.149-38.149h187.733V245.961z M491.922,453.773c0,21.035-17.114,38.149-38.149,38.149H266.039V266.039
			h225.882V453.773z M491.922,245.961H266.039V20.078h187.733c21.035,0,38.149,17.114,38.149,38.149V245.961z"/>
	</g>
</g>
<g>
	<g>
		<path d="M390.159,140.549l16.803-16.807c3.919-3.921,3.918-10.277-0.003-14.197c-3.92-3.919-10.278-3.918-14.197,0.003
			l-16.798,16.802l-16.799-16.803c-3.92-3.92-10.275-3.92-14.198,0c-3.92,3.92-3.92,10.277,0,14.197l16.802,16.805l-16.802,16.805
			c-3.92,3.921-3.92,10.277,0,14.197c1.961,1.961,4.53,2.94,7.099,2.94c2.569,0,5.138-0.981,7.099-2.94l16.799-16.803l16.798,16.802
			c1.96,1.962,4.53,2.943,7.1,2.943c2.569,0,5.137-0.98,7.097-2.938c3.921-3.92,3.922-10.276,0.003-14.197L390.159,140.549z"/>
	</g>
</g>
<g>
	<g>
		<path d="M409.761,373.499h-23.753v-23.763c0-5.545-4.496-10.039-10.039-10.039c-5.544,0-10.039,4.495-10.039,10.039v23.763
			h-23.763c-5.544,0-10.039,4.495-10.039,10.039s4.496,10.039,10.039,10.039h23.763v23.753c0,5.545,4.496,10.039,10.039,10.039
			c5.544,0,10.039-4.495,10.039-10.039v-23.753h23.753c5.544,0,10.039-4.495,10.039-10.039S415.304,373.499,409.761,373.499z"/>
	</g>
</g>
<g>
	<g>
		<path d="M462.808,98.216c-5.544,0-10.039,4.495-10.039,10.039v90.347c0,5.545,4.496,10.039,10.039,10.039
			s10.039-4.495,10.039-10.039v-90.347C472.847,102.71,468.352,98.216,462.808,98.216z"/>
	</g>
</g>
<g>
	<g>
		<path d="M462.808,66.259c-12.919,0-12.941,20.078,0,20.078C475.727,86.337,475.748,66.259,462.808,66.259z"/>
	</g>
</g>
<g>
	<g>
		<path d="M133.017,92.905c-12.919,0-12.942,20.078,0,20.078C145.936,112.983,145.957,92.905,133.017,92.905z"/>
	</g>
</g>
<g>
	<g>
		<path d="M133.017,168.115c-12.919,0-12.941,20.078,0,20.078C145.936,188.193,145.957,168.115,133.017,168.115z"/>
	</g>
</g>
<g>
	<g>
		<path d="M166.815,130.51H99.218c-5.544,0-10.039,4.495-10.039,10.039c0,5.545,4.496,10.039,10.039,10.039h67.597
			c5.544,0,10.039-4.495,10.039-10.039C176.854,135.004,172.358,130.51,166.815,130.51z"/>
	</g>
</g>
<g>
	<g>
		<path d="M166.815,373.495H99.218c-5.544,0-10.039,4.495-10.039,10.039c0,5.545,4.496,10.039,10.039,10.039h67.597
			c5.544,0,10.039-4.495,10.039-10.039C176.854,377.99,172.359,373.495,166.815,373.495z"/>
	</g>
</g>
<g>
</g>
<g>
</g>
<g>
</g>
<g>
</g>
<g>
</g>
<g>
</g>
<g>
</g>
<g>
</g>
<g>
</g>
<g>
</g>
<g>
</g>
<g>
</g>
<g>
</g>
<g>
</g>
<g>
</g>
</svg>
