<?xml version="1.0" encoding="iso-8859-1"?>
<!-- Generator: Adobe Illustrator 19.0.0, SVG Export Plug-In . SVG Version: 6.00 Build 0)  -->
<svg version="1.1" id="Capa_1" xmlns="http://www.w3.org/2000/svg" xmlns:xlink="http://www.w3.org/1999/xlink" x="0px" y="0px"
	 viewBox="0 0 512 512" style="enable-background:new 0 0 512 512;" xml:space="preserve">
<g>
	<g>
		<path d="M497.702,215.22c-0.001,0-0.002,0-0.002-0.001c-18.132-28.142-51.51-39.557-64.483-43.065
			C430.309,77.005,352.021,0.492,256.174,0.469c-0.003,0-0.007,0-0.01,0c-0.006,0-0.011,0-0.017,0c-0.005,0-0.011,0-0.016,0h-0.581
			c-0.002,0-0.005,0-0.007,0c-0.01,0-0.019,0-0.029,0c-47.014,0.17-93.033,19.83-126.257,53.94
			c-30.882,31.706-48.538,72.909-50.15,116.643c-13.558,3.743-46.574,15.375-64.625,43.406
			c-22.614,35.099-12.107,80.93-11.648,82.865c1.088,4.593,5.188,7.711,9.741,7.711c0.64,0,1.29-0.062,1.941-0.189
			c1.95-0.383,48.016-9.783,70.617-44.882l-0.001,0.002c3.01-4.672,5.428-9.534,7.366-14.457
			c16.006,38.449,45.18,70.087,81.862,89.257H145.08c-47.923,0-86.911,38.988-86.911,86.911v79.836
			c0,5.535,4.486,10.021,10.021,10.021h375.903c5.534,0,10.021-4.486,10.021-10.021v-79.836c0-47.923-38.988-86.911-86.911-86.911
			h-27.124c-0.391-0.196-0.794-0.362-1.203-0.504c36.434-19.323,65.356-50.985,81.167-89.383c1.983,5.243,4.508,10.428,7.708,15.396
			c22.334,34.683,67.84,43.964,69.766,44.341c0.651,0.127,1.3,0.188,1.94,0.188c4.554,0,8.652-3.118,9.741-7.71
			C509.651,295.181,520.036,249.903,497.702,215.22z M68.283,249.109c0,0-0.001,0.001-0.001,0.002
			c-12.276,19.064-34.592,28.897-47.558,33.225c-1.446-13.566-1.738-37.868,10.606-57.027
			c12.268-19.051,34.561-28.878,47.531-33.208C80.285,205.706,80.555,230.062,68.283,249.109z M135.059,491.49H78.211v-69.815
			c0-33.467,24.714-61.266,56.848-66.117V491.49z M377.223,355.559c32.135,4.85,56.848,32.65,56.848,66.116v69.815h-56.848V355.559z
			 M412.931,167.28c-78.223-5.096-141.597-67.469-146.983-146.468C344.608,25.681,407.792,88.69,412.931,167.28z M345.397,194.872
			c0,15.333-12.475,27.808-27.808,27.808c-15.333,0-27.808-12.475-27.808-27.808c0-15.333,12.475-27.808,27.808-27.808
			C332.922,167.064,345.397,179.539,345.397,194.872z M255.83,69.657c10.99,30.801,30.221,57.611,54.979,77.856
			c-13.958,1.988-25.986,10.02-33.355,21.354c-5.807-4.768-13.232-7.635-21.313-7.635c-8.082,0-15.506,2.867-21.313,7.635
			c-7.474-11.495-19.74-19.588-33.949-21.431C225.613,127.192,244.837,100.407,255.83,69.657z M222.501,194.872
			c0,15.333-12.475,27.808-27.808,27.808s-27.808-12.475-27.808-27.808c0-15.333,12.475-27.808,27.808-27.808
			S222.501,179.539,222.501,194.872z M143.614,68.392C170.775,40.506,207.541,23.5,245.73,20.867
			c-5.405,78.66-68.498,140.981-146.374,146.363C101.805,130.177,117.302,95.404,143.614,68.392z M246.12,443.39h-13.598
			c-5.534,0-10.021,4.486-10.021,10.021c0,5.535,4.486,10.021,10.021,10.021h13.598v28.058h-91.019V354.805h18.527l72.493,72.493
			V443.39z M201.971,354.805h108.34l-54.17,54.17L201.971,354.805z M357.181,354.806V491.49h-91.02v-28.058h13.598
			c5.535,0,10.021-4.486,10.021-10.021s-4.486-10.021-10.021-10.021h-13.598v-16.09l72.493-72.493H357.181z M256.141,334.764
			c-83.391,0-151.804-65.301-156.821-147.46c17.891-1.093,35.102-4.848,51.23-10.888c-2.385,5.683-3.707,11.918-3.707,18.456
			c0,26.385,21.465,47.85,47.85,47.85s47.85-21.465,47.85-47.85c0-7.498,6.1-13.598,13.598-13.598c7.499,0,13.598,6.1,13.598,13.598
			c0,26.385,21.465,47.85,47.85,47.85c26.385,0,47.85-21.465,47.85-47.85c0-6.426-1.282-12.557-3.589-18.161
			c16.097,5.938,33.266,9.609,51.11,10.636C407.925,269.482,339.519,334.764,256.141,334.764z M491.272,282.117
			c-12.778-4.258-34.566-13.898-46.671-32.696c-12.051-18.711-11.822-42.62-10.431-56.045c12.779,4.258,34.57,13.897,46.681,32.695
			C492.896,244.776,492.664,268.69,491.272,282.117z"/>
	</g>
</g>
<g>
	<g>
		<path d="M393.463,131.087c-9.999-26.428-27.889-49.555-50.374-65.121c-4.551-3.151-10.793-2.015-13.943,2.535
			c-3.15,4.55-2.015,10.794,2.535,13.944c19.177,13.276,34.462,33.069,43.037,55.734c1.517,4.008,5.328,6.477,9.375,6.477
			c1.178,0,2.377-0.209,3.544-0.651C392.814,142.046,395.422,136.263,393.463,131.087z"/>
	</g>
</g>
<g>
	<g>
		<path d="M309.589,51.247c-12.896,0-12.917,20.042,0,20.042C322.485,71.289,322.506,51.247,309.589,51.247z"/>
	</g>
</g>
<g>
	<g>
		<path d="M174.551,256.742c-12.896,0-12.917,20.042,0,20.042C187.447,276.784,187.468,256.742,174.551,256.742z"/>
	</g>
</g>
<g>
	<g>
		<path d="M208.121,256.742c-12.896,0-12.917,20.042,0,20.042C221.017,276.784,221.038,256.742,208.121,256.742z"/>
	</g>
</g>
<g>
	<g>
		<path d="M191.336,280.477c-12.896,0-12.917,20.042,0,20.042C204.232,300.518,204.253,280.477,191.336,280.477z"/>
	</g>
</g>
<g>
	<g>
		<path d="M304.154,256.742c-12.896,0-12.917,20.042,0,20.042C317.05,276.784,317.071,256.742,304.154,256.742z"/>
	</g>
</g>
<g>
	<g>
		<path d="M337.724,256.742c-12.896,0-12.917,20.042,0,20.042C350.62,276.784,350.641,256.742,337.724,256.742z"/>
	</g>
</g>
<g>
	<g>
		<path d="M320.939,280.477c-12.896,0-12.917,20.042,0,20.042C333.835,300.518,333.856,280.477,320.939,280.477z"/>
	</g>
</g>
<g>
</g>
<g>
</g>
<g>
</g>
<g>
</g>
<g>
</g>
<g>
</g>
<g>
</g>
<g>
</g>
<g>
</g>
<g>
</g>
<g>
</g>
<g>
</g>
<g>
</g>
<g>
</g>
<g>
</g>
</svg>
