<?xml version="1.0" encoding="iso-8859-1"?>
<!-- Generator: Adobe Illustrator 19.0.0, SVG Export Plug-In . SVG Version: 6.00 Build 0)  -->
<svg version="1.1" id="Capa_1" xmlns="http://www.w3.org/2000/svg" xmlns:xlink="http://www.w3.org/1999/xlink" x="0px" y="0px"
	 viewBox="0 0 512 512" style="enable-background:new 0 0 512 512;" xml:space="preserve">
<g>
	<g>
		<path d="M416.266,160.276C416.266,71.9,344.366,0,255.99,0S95.714,71.9,95.714,160.276c0,61.05,34.795,116.729,89.178,143.666
			v28.386h-8.021c-5.544,0-10.039,4.495-10.039,10.039s4.496,10.039,10.039,10.039h8.021v22.669h-8.021
			c-5.544,0-10.039,4.495-10.039,10.039s4.496,10.039,10.039,10.039h8.021v22.669h-8.021c-5.544,0-10.039,4.495-10.039,10.039
			s4.496,10.039,10.039,10.039h8.021v9.718c0,14.847,12.083,26.925,26.935,26.925h6.847v17.237c0,11.149,9.069,20.219,20.219,20.219
			h34.204c11.149,0,20.219-9.07,20.219-20.219v-17.237h6.857c14.852,0,26.935-12.078,26.935-26.925v-9.718h8.021
			c5.544,0,10.039-4.495,10.039-10.039s-4.496-10.039-10.039-10.039h-8.021v-22.669h8.021c5.544,0,10.039-4.495,10.039-10.039
			s-4.496-10.039-10.039-10.039h-8.021v-22.669h8.021c5.544,0,10.039-4.495,10.039-10.039s-4.496-10.039-10.039-10.039h-8.021
			v-28.397C381.48,276.987,416.266,221.313,416.266,160.276z M273.097,491.922h-34.204c-0.077,0-0.141-0.063-0.141-0.141v-17.237
			h34.485v17.237h0C273.237,491.858,273.174,491.922,273.097,491.922z M307.029,447.619c0,3.775-3.075,6.847-6.857,6.847h-16.896
			h-54.563h-16.886c-3.781,0-6.857-3.072-6.857-6.847v-52.465h102.059V447.619z M307.03,375.075h-102.06v-62.827
			c8.55,2.87,17.344,5.023,26.291,6.41c8.157,1.257,16.477,1.894,24.73,1.894c8.259,0,16.583-0.638,24.755-1.896
			c8.946-1.392,17.738-3.548,26.285-6.417V375.075z M242.83,299.834v-41.134c-0.001-7.257,5.907-13.165,13.17-13.171
			c3.514,0,6.819,1.369,9.305,3.856c2.488,2.488,3.857,5.796,3.857,9.315v41.134C260.417,300.641,251.573,300.641,242.83,299.834z
			 M312.98,288.404c-7.646,3.409-15.599,6.103-23.74,8.087v-37.79c0-8.883-3.458-17.233-9.737-23.513
			c-2.878-2.878-6.194-5.155-9.794-6.786l26.123-64.349c2.085-5.137-0.388-10.993-5.526-13.078
			c-5.14-2.085-10.993,0.39-13.078,5.526l-21.229,52.293l-21.236-52.294c-2.087-5.136-7.938-7.613-13.079-5.524
			c-5.137,2.086-7.61,7.942-5.525,13.079l26.139,64.367c-11.515,5.234-19.547,16.836-19.547,30.279v37.794
			c-8.136-1.98-16.084-4.671-23.73-8.081c-0.001,0-0.002-0.001-0.002-0.001c-0.069-0.031-0.135-0.066-0.206-0.096
			c-50.44-22.549-83.021-72.781-83.021-128.04c0-77.306,62.892-140.198,140.198-140.198c77.305,0,140.197,62.892,140.197,140.198
			C396.187,215.595,363.527,265.888,312.98,288.404z"/>
	</g>
</g>
<g>
	<g>
		<path d="M358.321,111.509c-2.386-5.005-8.378-7.131-13.381-4.744c-5.006,2.385-7.13,8.377-4.745,13.382
			c13.977,29.326,11.556,64.359-6.316,91.429c-3.055,4.627-1.781,10.854,2.846,13.909c1.703,1.124,3.622,1.662,5.523,1.662
			c3.259,0,6.457-1.585,8.387-4.509C372.362,189.733,375.306,147.15,358.321,111.509z"/>
	</g>
</g>
<g>
	<g>
		<path d="M499.692,159.232h-37.185c-5.544,0-10.039,4.495-10.039,10.039c0,5.545,4.496,10.039,10.039,10.039h37.185
			c5.544,0,10.039-4.495,10.039-10.039C509.731,163.727,505.236,159.232,499.692,159.232z"/>
	</g>
</g>
<g>
	<g>
		<path d="M501.086,103.597c-1.436-5.356-6.937-8.535-12.296-7.099l-35.919,9.628c-5.356,1.436-8.533,6.941-7.098,12.296
			c1.202,4.486,5.259,7.443,9.691,7.443c0.859,0,1.735-0.111,2.605-0.344l35.919-9.628
			C499.345,114.457,502.522,108.952,501.086,103.597z"/>
	</g>
</g>
<g>
	<g>
		<path d="M59.129,106.126L23.21,96.498c-5.358-1.437-10.86,1.743-12.296,7.098s1.742,10.86,7.098,12.296l35.919,9.628
			c0.87,0.233,1.745,0.344,2.605,0.344c4.432,0,8.489-2.958,9.691-7.443C67.662,113.067,64.485,107.561,59.129,106.126z"/>
	</g>
</g>
<g>
	<g>
		<path d="M49.493,159.232H12.308c-5.545,0-10.039,4.495-10.039,10.039c0,5.545,4.496,10.039,10.039,10.039h37.185
			c5.544,0,10.039-4.495,10.039-10.039C59.533,163.727,55.037,159.232,49.493,159.232z"/>
	</g>
</g>
<g>
	<g>
		<path d="M66.228,220.122c-1.436-5.355-6.937-8.533-12.296-7.099l-35.919,9.628c-5.356,1.436-8.533,6.941-7.098,12.296
			c1.202,4.486,5.259,7.443,9.691,7.443c0.859,0,1.735-0.111,2.605-0.344l35.919-9.628
			C64.486,230.982,67.663,225.477,66.228,220.122z"/>
	</g>
</g>
<g>
	<g>
		<path d="M493.989,222.65l-35.919-9.628c-5.358-1.435-10.86,1.744-12.296,7.098c-1.436,5.357,1.742,10.861,7.098,12.297
			l35.919,9.628c0.87,0.233,1.745,0.344,2.605,0.344c4.432,0,8.489-2.958,9.691-7.443
			C502.522,229.591,499.345,224.085,493.989,222.65z"/>
	</g>
</g>
<g>
	<g>
		<path d="M328.282,77.302c-12.919,0-12.941,20.078,0,20.078C341.202,97.38,341.223,77.302,328.282,77.302z"/>
	</g>
</g>
<g>
</g>
<g>
</g>
<g>
</g>
<g>
</g>
<g>
</g>
<g>
</g>
<g>
</g>
<g>
</g>
<g>
</g>
<g>
</g>
<g>
</g>
<g>
</g>
<g>
</g>
<g>
</g>
<g>
</g>
</svg>
