<?xml version="1.0" encoding="iso-8859-1"?>
<!-- Generator: Adobe Illustrator 19.0.0, SVG Export Plug-In . SVG Version: 6.00 Build 0)  -->
<svg version="1.1" id="Capa_1" xmlns="http://www.w3.org/2000/svg" xmlns:xlink="http://www.w3.org/1999/xlink" x="0px" y="0px"
	 viewBox="0 0 511.999 511.999" style="enable-background:new 0 0 511.999 511.999;" xml:space="preserve">
<g>
	<g>
		<path d="M256,6.425c-55.118,0-99.96,44.842-99.96,99.96c0,55.112,44.842,99.95,99.96,99.95c55.118,0,99.961-44.838,99.961-99.95
			C355.961,51.267,311.118,6.425,256,6.425z M335.23,96.346h-31.33c-0.969-21.576-5.043-41.69-11.723-57.461
			c-0.699-1.648-1.424-3.232-2.17-4.763C314.201,45.554,331.755,68.784,335.23,96.346z M221.984,34.127
			c-0.746,1.529-1.471,3.11-2.168,4.757c-6.681,15.771-10.756,35.885-11.724,57.461h-31.32
			C180.245,68.788,197.794,45.561,221.984,34.127z M176.772,116.424h31.32c0.969,21.573,5.043,41.684,11.725,57.453
			c0.698,1.646,1.423,3.228,2.169,4.757C197.794,167.202,180.245,143.978,176.772,116.424z M256,186.257
			c-10.634,0-25.732-26.89-27.811-69.833h55.612C281.724,159.366,266.631,186.257,256,186.257z M228.189,96.346
			c2.078-42.949,17.177-69.843,27.811-69.843c10.631,0,25.724,26.894,27.802,69.843H228.189z M290.005,178.638
			c0.747-1.531,1.472-3.113,2.17-4.762c6.681-15.77,10.755-35.881,11.723-57.453h31.33
			C331.755,143.982,314.201,167.208,290.005,178.638z"/>
	</g>
</g>
<g>
	<g>
		<path d="M184.591,346.202h-25.219v-25.229c0-5.545-4.495-10.039-10.039-10.039h-32.627c-5.545,0-10.039,4.495-10.039,10.039
			v25.229H81.448c-5.545,0-10.039,4.495-10.039,10.039v32.617c0,5.545,4.495,10.039,10.039,10.039h25.219v25.229
			c0,5.545,4.495,10.039,10.039,10.039h32.627c5.545,0,10.039-4.495,10.039-10.039v-25.229h25.219
			c5.545,0,10.039-4.495,10.039-10.039v-32.617C194.63,350.696,190.136,346.202,184.591,346.202z M174.552,378.819h-25.219
			c-5.545,0-10.039,4.495-10.039,10.039v25.229h-12.549v-25.229c0-5.545-4.495-10.039-10.039-10.039H91.487V366.28h25.219
			c5.545,0,10.039-4.495,10.039-10.039v-25.229h12.549v25.229c0,5.545,4.495,10.039,10.039,10.039h25.219V378.819z"/>
	</g>
</g>
<g>
	<g>
		<path d="M370.788,300.694c-15.411,0-27.949,12.538-27.949,27.949s12.538,27.949,27.949,27.949
			c15.411,0,27.949-12.538,27.949-27.949S386.2,300.694,370.788,300.694z M370.788,336.514c-4.34,0-7.871-3.531-7.871-7.871
			c0-4.34,3.531-7.871,7.871-7.871c4.34,0,7.871,3.531,7.871,7.871C378.659,332.983,375.128,336.514,370.788,336.514z"/>
	</g>
</g>
<g>
	<g>
		<path d="M370.788,388.507c-15.411,0-27.949,12.538-27.949,27.949c0,15.411,12.538,27.949,27.949,27.949
			c15.411,0,27.949-12.538,27.949-27.949C398.738,401.045,386.2,388.507,370.788,388.507z M370.788,424.327
			c-4.34,0-7.871-3.531-7.871-7.871s3.531-7.871,7.871-7.871c4.34,0,7.871,3.531,7.871,7.871S375.128,424.327,370.788,424.327z"/>
	</g>
</g>
<g>
	<g>
		<path d="M326.888,344.094c-15.412,0-27.95,12.538-27.95,27.949c0,15.416,12.538,27.959,27.95,27.959
			c15.411,0,27.949-12.543,27.949-27.959C354.837,356.632,342.299,344.094,326.888,344.094z M326.887,379.924
			c-4.34,0-7.872-3.535-7.872-7.881c0-4.34,3.532-7.871,7.872-7.871c4.34,0,7.871,3.531,7.871,7.871
			C334.758,376.389,331.227,379.924,326.887,379.924z"/>
	</g>
</g>
<g>
	<g>
		<path d="M414.69,344.094c-15.411,0-27.949,12.538-27.949,27.949c0,15.416,12.538,27.959,27.949,27.959
			c15.417,0,27.959-12.543,27.959-27.959C442.649,356.632,430.107,344.094,414.69,344.094z M414.69,379.924
			c-4.34,0-7.871-3.536-7.871-7.881c0-4.34,3.531-7.871,7.871-7.871c4.345,0,7.881,3.531,7.881,7.871
			C422.571,376.389,419.036,379.924,414.69,379.924z"/>
	</g>
</g>
<g>
	<g>
		<path d="M237.478,374.402c-5.545,0-10.039,4.495-10.039,10.039v28.21c0,5.545,4.495,10.039,10.039,10.039
			s10.039-4.495,10.039-10.039v-28.21C247.517,378.897,243.022,374.402,237.478,374.402z"/>
	</g>
</g>
<g>
	<g>
		<path d="M274.512,374.402c-5.544,0-10.039,4.495-10.039,10.039v28.21c0,5.545,4.496,10.039,10.039,10.039
			s10.039-4.495,10.039-10.039v-28.21C284.552,378.897,280.056,374.402,274.512,374.402z"/>
	</g>
</g>
<g>
	<g>
		<path d="M469.659,275.675c-4.057-3.779-10.411-3.553-14.188,0.504c-3.78,4.058-3.553,10.41,0.504,14.188
			c23.162,21.572,35.928,50.737,35.947,82.12c0.014,30.183-11.73,58.562-33.065,79.907c-21.333,21.344-49.701,33.1-79.876,33.1
			c-8.381,0-17.176-2.341-26.138-6.955c-29.898-15.419-63.388-23.57-96.847-23.57c-33.46,0-66.95,8.151-96.844,23.568
			c-8.956,4.616-17.748,6.956-26.131,6.956c-30.181,0-58.551-11.755-79.884-33.1C31.8,431.05,20.06,402.672,20.078,372.489
			c0.027-62.239,51.22-112.875,114.116-112.875h67.052v42.225c0,5.545,4.495,10.039,10.039,10.039h83.858
			c5.544,0,10.039-4.495,10.039-10.039v-42.225h72.614c11.154,0,22.189,1.602,32.794,4.763c5.318,1.585,10.904-1.442,12.488-6.754
			c1.583-5.314-1.442-10.905-6.755-12.488c-12.468-3.716-25.43-5.599-38.528-5.599H134.194C60.231,239.535,0.032,299.174,0,372.479
			c-0.021,35.548,13.806,68.97,38.934,94.112c25.127,25.139,58.541,38.984,94.086,38.984c11.613,0,23.5-3.091,35.331-9.188
			c54.88-28.304,120.408-28.305,175.294,0.003c11.838,6.095,23.728,9.185,35.335,9.185c35.54,0,68.951-13.845,94.078-38.984
			c25.127-25.14,38.957-58.563,38.941-94.112C511.979,335.464,496.941,301.086,469.659,275.675z M221.325,261.712h63.779v30.088
			h-63.779V261.712z"/>
	</g>
</g>
<g>
	<g>
		<path d="M410.604,96.346h-23.592c-5.544,0-10.039,4.495-10.039,10.039c0,5.545,4.496,10.039,10.039,10.039h23.592
			c5.544,0,10.039-4.495,10.039-10.039C420.643,100.84,416.148,96.346,410.604,96.346z"/>
	</g>
</g>
<g>
	<g>
		<path d="M415.03,63.771c-1.434-5.354-6.933-8.534-12.294-7.1l-22.789,6.104c-5.356,1.435-8.535,6.939-7.1,12.295
			c1.201,4.487,5.258,7.444,9.691,7.444c0.858,0,1.734-0.111,2.603-0.344l22.789-6.104C413.286,74.631,416.466,69.127,415.03,63.771
			z"/>
	</g>
</g>
<g>
	<g>
		<path d="M132.043,62.775l-22.789-6.104c-5.358-1.435-10.86,1.745-12.295,7.1c-1.435,5.356,1.745,10.86,7.1,12.295l22.789,6.104
			c0.87,0.233,1.744,0.344,2.604,0.344c4.433,0,8.49-2.959,9.691-7.444C140.577,69.714,137.399,64.209,132.043,62.775z"/>
	</g>
</g>
<g>
	<g>
		<path d="M124.978,96.346h-23.592c-5.545,0-10.039,4.495-10.039,10.039c0,5.545,4.495,10.039,10.039,10.039h23.592
			c5.545,0,10.039-4.495,10.039-10.039C135.017,100.84,130.523,96.346,124.978,96.346z"/>
	</g>
</g>
<g>
	<g>
		<path d="M139.144,137.689c-1.435-5.355-6.938-8.532-12.295-7.1l-22.789,6.104c-5.355,1.435-8.534,6.939-7.1,12.295
			c1.201,4.487,5.258,7.444,9.691,7.444c0.859,0,1.734-0.111,2.604-0.344l22.789-6.104
			C137.399,148.55,140.578,143.045,139.144,137.689z"/>
	</g>
</g>
<g>
	<g>
		<path d="M407.931,136.693l-22.789-6.104c-5.353-1.432-10.859,1.745-12.294,7.1c-1.436,5.356,1.744,10.86,7.1,12.295l22.789,6.104
			c0.869,0.233,1.743,0.344,2.603,0.344c4.433,0,8.49-2.959,9.691-7.444C416.466,143.633,413.286,138.128,407.931,136.693z"/>
	</g>
</g>
<g>
	<g>
		<path d="M439.718,256.067c-12.919,0-12.941,20.078,0,20.078C452.637,276.145,452.658,256.067,439.718,256.067z"/>
	</g>
</g>
<g>
</g>
<g>
</g>
<g>
</g>
<g>
</g>
<g>
</g>
<g>
</g>
<g>
</g>
<g>
</g>
<g>
</g>
<g>
</g>
<g>
</g>
<g>
</g>
<g>
</g>
<g>
</g>
<g>
</g>
</svg>
