<?xml version="1.0" encoding="iso-8859-1"?>
<!-- Generator: Adobe Illustrator 19.0.0, SVG Export Plug-In . SVG Version: 6.00 Build 0)  -->
<svg version="1.1" id="Capa_1" xmlns="http://www.w3.org/2000/svg" xmlns:xlink="http://www.w3.org/1999/xlink" x="0px" y="0px"
	 viewBox="0 0 512 512" style="enable-background:new 0 0 512 512;" xml:space="preserve">
<g>
	<g>
		<path d="M456.533,101.808h-95.009c-1.716-12.462-7.399-23.974-16.449-33.025c-10.977-10.963-25.557-17-41.057-17
			c-29.283,0-53.559,21.801-57.488,50.025H55.467C24.882,101.808,0,126.69,0,157.274v247.467c0,30.59,24.882,55.477,55.467,55.477
			h401.067c30.584,0,55.467-24.887,55.467-55.477V157.274C512,126.69,487.118,101.808,456.533,101.808z M304.018,71.861
			c10.142,0,19.683,3.952,26.864,11.124c5.239,5.239,8.75,11.744,10.267,18.824h-74.245
			C270.603,84.712,285.835,71.861,304.018,71.861z M256,182.633c15.157,0,29.399,5.9,40.109,16.619
			c10.713,10.705,16.613,24.946,16.613,40.103v83.315c0,31.282-25.445,56.732-56.722,56.732c-31.276,0-56.722-25.449-56.722-56.732
			v-83.315C199.278,208.079,224.724,182.633,256,182.633z M491.922,404.741c0,19.518-15.875,35.398-35.388,35.398H55.467
			c-19.513,0-35.388-15.879-35.388-35.398V157.274c0-19.513,15.875-35.388,35.388-35.388h190.494v41.347
			c-36.317,4.766-64.734,34.981-66.655,72.107h-5.627c-5.545,0-10.039,4.495-10.039,10.039c0,5.545,4.495,10.039,10.039,10.039
			h5.522v9.035h-5.522c-5.545,0-10.039,4.495-10.039,10.039s4.495,10.039,10.039,10.039h5.522v38.139
			c0,42.353,34.453,76.81,76.8,76.81c42.347,0,76.8-34.457,76.8-76.81v-83.315c0-20.522-7.99-39.809-22.494-54.3
			c-12.104-12.114-27.553-19.664-44.267-21.832v-41.336h190.494c19.513,0,35.388,15.875,35.388,35.388V404.741z"/>
	</g>
</g>
<g>
	<g>
		<path d="M256,203.214c-5.545,0-10.039,4.495-10.039,10.039v36.141c0,5.545,4.495,10.039,10.039,10.039
			c5.545,0,10.039-4.494,10.039-10.039v-36.141C266.039,207.708,261.545,203.214,256,203.214z"/>
	</g>
</g>
<g>
	<g>
		<path d="M462.808,247.322c-5.545,0-10.039,4.495-10.039,10.039v90.347c0,5.545,4.495,10.039,10.039,10.039
			s10.039-4.495,10.039-10.039v-90.347C472.847,251.817,468.353,247.322,462.808,247.322z"/>
	</g>
</g>
<g>
	<g>
		<path d="M462.808,215.365c-12.919,0-12.941,20.078,0,20.078C475.727,235.444,475.748,215.365,462.808,215.365z"/>
	</g>
</g>
<g>
</g>
<g>
</g>
<g>
</g>
<g>
</g>
<g>
</g>
<g>
</g>
<g>
</g>
<g>
</g>
<g>
</g>
<g>
</g>
<g>
</g>
<g>
</g>
<g>
</g>
<g>
</g>
<g>
</g>
</svg>
