<?xml version="1.0" encoding="iso-8859-1"?>
<!-- Generator: Adobe Illustrator 19.0.0, SVG Export Plug-In . SVG Version: 6.00 Build 0)  -->
<svg version="1.1" id="Capa_1" xmlns="http://www.w3.org/2000/svg" xmlns:xlink="http://www.w3.org/1999/xlink" x="0px" y="0px"
	 viewBox="0 0 512 512" style="enable-background:new 0 0 512 512;" xml:space="preserve">
<g>
	<g>
		<path d="M477.704,200.487h-16.032c-1.813-45.039-18.432-88.507-47.271-123.218c-0.016-0.02-0.033-0.041-0.05-0.061
			c-0.015-0.018-0.031-0.038-0.046-0.056C375.042,29.953,317.341,2.883,256,2.883c-54.985,0-106.678,21.412-145.556,60.288
			c-4.471,4.471-8.763,9.177-12.749,13.981c-0.018,0.022-0.037,0.045-0.055,0.067c-0.012,0.014-0.023,0.03-0.036,0.044
			c-28.843,34.713-45.463,78.184-47.276,123.225H34.296C15.385,200.487,0,215.868,0,234.773v118.848
			c0,18.905,15.385,34.285,34.296,34.285h26.045h48.984c5.626,0,10.186-4.56,10.186-10.186V210.673
			c0-5.626-4.56-10.186-10.186-10.186H70.712c1.65-36.932,14.357-72.648,36.346-102.278c9.685,6.823,21.078,11.001,32.998,11.971
			c15.809,1.293,31.527-3.142,44.266-12.471C206.556,81.422,230.671,73.165,256,73.165c25.339,0,49.455,8.258,71.68,24.546
			c11.293,8.271,24.93,12.69,38.893,12.69c1.788,0,3.581-0.072,5.375-0.218c11.922-0.971,23.313-5.148,32.996-11.97
			c21.986,29.624,34.695,65.342,36.345,102.277h-38.613c-5.626,0-10.186,4.56-10.186,10.186v167.047
			c0,5.626,4.56,10.186,10.186,10.186h38.798v4.594c0,37.819-28.197,69.158-64.67,74.145v-10.495c0-5.626-4.56-10.186-10.186-10.186
			H295.45c-5.626,0-10.186,4.56-10.186,10.186v42.78c0,5.626,4.56,10.186,10.186,10.186h71.168c5.626,0,10.186-4.56,10.186-10.186
			v-11.75c47.736-5.1,85.041-45.614,85.041-94.682v-4.594h15.859c18.91,0,34.296-15.381,34.296-34.285V234.773
			C512,215.868,496.615,200.487,477.704,200.487z M99.138,220.859v146.676H60.341H34.296c-7.678,0-13.924-6.242-13.924-13.914
			V234.773c0-7.672,6.246-13.914,13.924-13.914h15.859v100.33c0,5.626,4.56,10.186,10.186,10.186s10.186-4.56,10.186-10.186v-100.33
			H99.138z M339.718,81.277C313.93,62.377,285.763,52.793,256,52.793c-29.75,0-57.915,9.583-83.715,28.482
			c-15.422,11.293-36.406,11.39-52.129,1.187c1.537-1.654,3.098-3.29,4.693-4.885c35.03-35.03,81.608-54.322,131.151-54.322
			c51.834,0,100.782,21.454,135.854,59.204C376.132,92.669,355.146,92.574,339.718,81.277z M356.432,488.746h-50.797v-22.409h50.797
			V488.746z M441.473,367.535h-28.612V220.859h28.612V367.535z M491.628,353.621c0,7.672-6.246,13.914-13.924,13.914h-15.859
			V220.859h15.859c7.678,0,13.924,6.242,13.924,13.914V353.621z"/>
	</g>
</g>
<g>
	<g>
		<path d="M60.341,340.033c-13.108,0-13.13,20.372,0,20.372C73.449,360.405,73.47,340.033,60.341,340.033z"/>
	</g>
</g>
<g>
</g>
<g>
</g>
<g>
</g>
<g>
</g>
<g>
</g>
<g>
</g>
<g>
</g>
<g>
</g>
<g>
</g>
<g>
</g>
<g>
</g>
<g>
</g>
<g>
</g>
<g>
</g>
<g>
</g>
</svg>
