<?xml version="1.0" encoding="iso-8859-1"?>
<!-- Generator: Adobe Illustrator 19.0.0, SVG Export Plug-In . SVG Version: 6.00 Build 0)  -->
<svg version="1.1" id="Capa_1" xmlns="http://www.w3.org/2000/svg" xmlns:xlink="http://www.w3.org/1999/xlink" x="0px" y="0px"
	 viewBox="0 0 512 512" style="enable-background:new 0 0 512 512;" xml:space="preserve">
<g>
	<g>
		<path d="M478.875,169.192H33.125C14.859,169.192,0,184.053,0,202.317v107.366c0,18.265,14.859,33.125,33.125,33.125h163.76
			c14.73,0,27.831-9.894,31.858-24.055l23.731-83.311h7.053l23.73,83.307c4.028,14.165,17.129,24.058,31.859,24.058h163.76
			c18.266,0,33.125-14.86,33.125-33.125V202.317C512,184.053,497.141,169.192,478.875,169.192z M491.615,309.683
			c0,7.026-5.715,12.74-12.74,12.74h-163.76c-5.666,0-10.704-3.804-12.253-9.254l-25.839-90.712
			c-1.248-4.38-5.248-7.401-9.802-7.401h-22.443c-4.554,0-8.555,3.021-9.802,7.401l-25.84,90.716
			c-1.549,5.446-6.587,9.25-12.252,9.25H33.125c-7.026,0-12.74-5.716-12.74-12.74V202.317c0-7.026,5.715-12.74,12.74-12.74h445.75
			c7.026,0,12.74,5.715,12.74,12.74V309.683z"/>
	</g>
</g>
<g>
	<g>
		<path d="M212.661,206.488c-1.933-2.418-4.863-3.824-7.959-3.824H48.444c-5.628,0-10.192,4.563-10.192,10.192v86.288
			c0,5.629,4.564,10.192,10.192,10.192h136.852c4.768,0,8.897-3.304,9.944-7.956l19.406-86.288
			C215.326,212.071,214.595,208.905,212.661,206.488z M177.141,288.952H58.636v-65.903h133.327L177.141,288.952z"/>
	</g>
</g>
<g>
	<g>
		<path d="M463.587,202.664h-37.375c-5.628,0-10.192,4.563-10.192,10.192c0,5.629,4.564,10.192,10.192,10.192h27.183v65.903H334.837
			l-14.83-65.903h35.367c5.628,0,10.192-4.563,10.192-10.192c0-5.629-4.564-10.192-10.192-10.192h-48.108
			c-3.096,0-6.025,1.408-7.959,3.825c-1.933,2.419-2.664,5.584-1.984,8.604l19.416,86.288c1.046,4.651,5.177,7.955,9.944,7.955
			h136.903c5.628,0,10.192-4.563,10.192-10.192v-86.288C473.779,207.227,469.215,202.664,463.587,202.664z"/>
	</g>
</g>
<g>
	<g>
		<path d="M393.086,201.981c-13.116,0-13.138,20.385,0,20.385C406.203,222.365,406.224,201.981,393.086,201.981z"/>
	</g>
</g>
<g>
</g>
<g>
</g>
<g>
</g>
<g>
</g>
<g>
</g>
<g>
</g>
<g>
</g>
<g>
</g>
<g>
</g>
<g>
</g>
<g>
</g>
<g>
</g>
<g>
</g>
<g>
</g>
<g>
</g>
</svg>
