<?xml version="1.0" encoding="iso-8859-1"?>
<!-- Generator: Adobe Illustrator 19.0.0, SVG Export Plug-In . SVG Version: 6.00 Build 0)  -->
<svg version="1.1" id="Capa_1" xmlns="http://www.w3.org/2000/svg" xmlns:xlink="http://www.w3.org/1999/xlink" x="0px" y="0px"
	 viewBox="0 0 512 512" style="enable-background:new 0 0 512 512;" xml:space="preserve">
<g>
	<g>
		<path d="M445.161,111.712h-90.855V10.47c0-5.782-4.687-10.47-10.47-10.47H190.465c-5.782,0-10.47,4.687-10.47,10.47v17.757H66.839
			c-5.782,0-10.47,4.687-10.47,10.47V501.53c0,5.782,4.687,10.47,10.47,10.47h123.626h153.371h101.325
			c5.781,0,10.47-4.687,10.47-10.47V122.181C455.631,116.399,450.942,111.712,445.161,111.712z M179.996,491.061H77.309V49.166
			h102.687V491.061z M333.366,491.061H200.935V20.939h132.431V491.061z M434.691,491.061h-80.385v-59.792h80.385V491.061z
			 M354.306,410.329V213.373h80.385v196.956H354.306z M434.692,192.433h-80.386v-59.782h80.386V192.433z"/>
	</g>
</g>
<g>
	<g>
		<path d="M128.652,162.28c-5.782,0-10.47,4.687-10.47,10.47v194.716c0,5.782,4.687,10.47,10.47,10.47
			c5.782,0,10.47-4.687,10.47-10.47V172.75C139.122,166.968,134.435,162.28,128.652,162.28z"/>
	</g>
</g>
<g>
	<g>
		<path d="M267.449,76.523c-5.781,0-10.47,4.687-10.47,10.47v287.435c0,5.782,4.688,10.47,10.47,10.47s10.47-4.687,10.47-10.47
			V86.993C277.919,81.21,273.231,76.523,267.449,76.523z"/>
	</g>
</g>
<g>
	<g>
		<path d="M297.089,435.425h-59.876c-5.782,0-10.47,4.687-10.47,10.47s4.687,10.47,10.47,10.47h59.876
			c5.781,0,10.47-4.687,10.47-10.47S302.87,435.425,297.089,435.425z"/>
	</g>
</g>
<g>
	<g>
		<path d="M394.499,240.295c-5.781,0-10.47,4.687-10.47,10.47v94.221c0,5.782,4.688,10.47,10.47,10.47
			c5.781,0,10.47-4.687,10.47-10.47v-94.221C404.969,244.983,400.28,240.295,394.499,240.295z"/>
	</g>
</g>
<g>
	<g>
		<path d="M394.499,367.844c-13.473,0-13.495,20.939,0,20.939C407.973,388.783,407.994,367.844,394.499,367.844z"/>
	</g>
</g>
<g>
</g>
<g>
</g>
<g>
</g>
<g>
</g>
<g>
</g>
<g>
</g>
<g>
</g>
<g>
</g>
<g>
</g>
<g>
</g>
<g>
</g>
<g>
</g>
<g>
</g>
<g>
</g>
<g>
</g>
</svg>
