<?xml version="1.0" encoding="iso-8859-1"?>
<!-- Generator: Adobe Illustrator 19.0.0, SVG Export Plug-In . SVG Version: 6.00 Build 0)  -->
<svg version="1.1" id="Capa_1" xmlns="http://www.w3.org/2000/svg" xmlns:xlink="http://www.w3.org/1999/xlink" x="0px" y="0px"
	 viewBox="0 0 511.999 511.999" style="enable-background:new 0 0 511.999 511.999;" xml:space="preserve">
<g>
	<g>
		<path d="M334.713,419.008h-8.222v-33.17c0-18.465-12.651-34.029-29.74-38.485v-21.558h3.82c7.931,0,15.001-4.436,18.449-11.577
			c3.449-7.141,2.528-15.437-2.403-21.649c-9.74-12.275-15.104-27.66-15.104-43.321c0-0.988,0.023-2.02,0.07-3.132l8.262-185.201
			c0.201-4.493-2.615-8.569-6.888-9.973l-10.499-3.449V31.499c0-10.28-6.561-19.339-16.32-22.54l-23.67-7.783
			c-7.208-2.363-15.182-1.119-21.329,3.334c-6.145,4.451-9.814,11.635-9.814,19.219v0.395l-6.027-1.98
			c-3.121-1.026-6.546-0.455-9.168,1.523c-2.622,1.978-4.108,5.116-3.979,8.398l8.433,214.229
			c0.656,16.623-4.663,32.954-14.979,46.001l-0.069,0.083c-0.052,0.062-0.104,0.125-0.154,0.188
			c-4.931,6.213-5.853,14.509-2.404,21.65c3.448,7.141,10.518,11.577,18.449,11.577h3.82v21.558
			c-17.089,4.456-29.74,20.02-29.74,38.485v33.17h-8.222c-22.161,0-42.993,8.628-58.658,24.293
			c-15.673,15.663-24.306,36.5-24.306,58.673c0,5.538,4.489,10.027,10.027,10.027h303.3c5.538,0,10.027-4.489,10.027-10.027
			C417.677,456.226,380.459,419.008,334.713,419.008z M241.38,23.728c0-1.63,0.955-2.566,1.524-2.978
			c0.57-0.412,1.759-1.029,3.306-0.522l23.67,7.783c1.509,0.495,2.524,1.897,2.524,3.487v9.404L241.38,30.709V23.728z
			 M211.429,305.741c-0.177-0.001-0.273-0.001-0.391-0.245c-0.099-0.206-0.072-0.293,0.004-0.397l0.045-0.054
			c0.053-0.063,0.104-0.126,0.155-0.19c13.344-16.819,20.228-37.897,19.381-59.35L222.759,45.7l56.63,18.607
			c0.031,0.01,0.061,0.021,0.092,0.03l9.991,3.283l-7.924,177.626c-0.06,1.421-0.089,2.73-0.089,4.003
			c0,20.169,6.908,39.981,19.45,55.788c0.11,0.138,0.17,0.216,0.053,0.46c-0.118,0.245-0.215,0.245-0.391,0.245H211.429z
			 M276.696,325.795v20.275h-41.392v-20.275H276.696z M225.277,366.125h61.446c9.743,0,17.837,7.112,19.414,16.414H205.862
			C207.439,373.237,215.533,366.125,225.277,366.125z M205.563,402.593L205.563,402.593h100.873v16.414H205.563V402.593z
			 M115.166,491.944c2.069-13,8.153-24.981,17.642-34.462c11.879-11.878,27.676-18.421,44.479-18.421h18.249h120.927h18.249
			c31.278,0,57.298,22.942,62.112,52.883H115.166z"/>
	</g>
</g>
<g>
	<g>
		<path d="M285.16,455.476h-90.238c-5.538,0-10.027,4.489-10.027,10.027c0,5.538,4.489,10.027,10.027,10.027h90.238
			c5.538,0,10.027-4.489,10.027-10.027C295.187,459.965,290.698,455.476,285.16,455.476z"/>
	</g>
</g>
<g>
	<g>
		<path d="M317.078,455.477c-12.904,0-12.925,20.054,0,20.054C329.982,475.531,330.003,455.477,317.078,455.477z"/>
	</g>
</g>
<g>
</g>
<g>
</g>
<g>
</g>
<g>
</g>
<g>
</g>
<g>
</g>
<g>
</g>
<g>
</g>
<g>
</g>
<g>
</g>
<g>
</g>
<g>
</g>
<g>
</g>
<g>
</g>
<g>
</g>
</svg>
