<?xml version="1.0" encoding="iso-8859-1"?>
<!-- Generator: Adobe Illustrator 19.0.0, SVG Export Plug-In . SVG Version: 6.00 Build 0)  -->
<svg version="1.1" id="Capa_1" xmlns="http://www.w3.org/2000/svg" xmlns:xlink="http://www.w3.org/1999/xlink" x="0px" y="0px"
	 viewBox="0 0 512 512" style="enable-background:new 0 0 512 512;" xml:space="preserve">
<g>
	<g>
		<path d="M508.156,211.626c0,0,0-0.001,0-0.002c-0.016-0.09-0.031-0.181-0.049-0.27c-7.393-42.045-25.464-81.936-52.274-115.377
			c-3.47-4.326-9.787-5.022-14.113-1.552c-4.326,3.469-5.021,9.786-1.553,14.112c21.871,27.28,37.426,59.212,45.433,93.057
			l-34.189-4.418C425.637,111.338,346.251,51.963,256,51.963S86.362,111.339,60.59,197.175l-34.195,4.419
			C51.272,95.625,145.716,20.078,256,20.078c50.902,0,99.369,15.952,140.163,46.131c4.456,3.297,10.743,2.358,14.041-2.1
			c3.298-4.457,2.357-10.744-2.1-14.041C363.829,17.314,311.233,0,256,0C195.391,0,136.599,21.565,90.453,60.725
			C44.917,99.366,14.189,152.842,3.901,211.321c-0.021,0.105-0.04,0.211-0.058,0.317C1.293,226.181,0,241.106,0,256
			c0,14.9,1.294,29.833,3.844,44.374c0,0,0,0.001,0,0.002c0.017,0.096,0.034,0.192,0.053,0.286
			c10.288,58.49,41.017,111.969,86.556,150.612C136.599,490.435,195.391,512,256,512s119.401-21.565,165.547-60.725
			c45.536-38.641,76.264-92.117,86.552-150.596c0.021-0.105,0.04-0.211,0.058-0.317C510.707,285.82,512,270.894,512,256
			C512,241.1,510.706,226.167,508.156,211.626z M439.96,256c0,13.728-1.526,27.367-4.52,40.644l-116.592,15.068
			c13.268-14.989,21.151-34.624,21.151-55.712c0-21.088-7.881-40.724-21.146-55.71l116.587,15.067
			C438.434,228.633,439.96,242.272,439.96,256z M272.371,317.803c-10.644,2.81-22.12,2.807-32.752,0
			c-27.99-7.391-47.539-32.805-47.539-61.803c0-28.997,19.552-54.412,47.549-61.803c5.319-1.404,10.826-2.116,16.371-2.116
			c5.538,0,11.042,0.713,16.361,2.116c0.001,0,0.003,0.001,0.004,0.001c27.999,7.382,47.555,32.795,47.555,61.802
			C319.92,284.997,300.367,310.412,272.371,317.803z M286.83,336.095v101.273c-20.32,3.416-41.45,3.409-61.781-0.017v-101.27h0
			l10.169,1.314c6.766,1.722,13.753,2.603,20.782,2.603c7.023,0,14.006-0.881,20.77-2.603L286.83,336.095z M306.909,333.5
			l122.41-15.82c-19.791,55.344-65.896,98.798-122.41,115.128V333.5z M256,72.041c78.313,0,147.558,49.577,173.365,122.286
			l-152.604-19.721c-13.54-3.443-28.005-3.44-41.533,0l-152.593,19.72C108.442,121.618,177.687,72.041,256,72.041z M76.561,215.356
			l116.591-15.068c-13.268,14.989-21.151,34.624-21.151,55.712c0,21.087,7.881,40.724,21.147,55.712L76.561,296.644
			c-2.995-13.276-4.52-26.915-4.52-40.644C72.041,242.272,73.567,228.633,76.561,215.356z M204.971,333.486v99.293
			c-56.453-16.357-102.51-59.798-122.289-115.098L204.971,333.486z M20.078,256c0-11.272,0.816-22.557,2.402-33.654l33.026-4.269
			c-2.342,12.458-3.544,25.156-3.544,37.923c0,12.767,1.202,25.466,3.545,37.923l-33.027-4.269
			C20.895,278.56,20.078,267.274,20.078,256z M256,491.922c-110.282,0-204.725-75.543-229.604-181.516l34.185,4.418
			c10.113,33.643,28.829,64.176,54.409,88.643c27.306,26.119,61.162,44.103,97.909,52.008c14.076,3.027,28.577,4.562,43.101,4.562
			c14.44,0,28.852-1.52,42.835-4.513c0.035-0.007,0.071-0.014,0.106-0.021c0.011-0.002,0.021-0.004,0.032-0.006
			c36.774-7.885,70.658-25.861,97.989-51.987c25.605-24.476,44.338-55.023,54.456-88.686l34.186-4.418
			C460.728,416.375,366.284,491.922,256,491.922z M489.519,289.654l-33.026,4.269c2.342-12.457,3.545-25.156,3.545-37.922
			c-0.001-12.767-1.203-25.466-3.545-37.923l33.026,4.268c1.586,11.094,2.402,22.38,2.402,33.654
			C491.922,267.272,491.105,278.557,489.519,289.654z"/>
	</g>
</g>
<g>
	<g>
		<path d="M256,224.206c-17.531,0-31.794,14.263-31.794,31.794s14.263,31.794,31.794,31.794s31.794-14.263,31.794-31.794
			C287.794,238.469,273.531,224.206,256,224.206z M256,267.716c-6.46,0-11.716-5.256-11.716-11.716
			c0-6.46,5.256-11.716,11.716-11.716c6.46,0,11.716,5.256,11.716,11.716C267.716,262.46,262.46,267.716,256,267.716z"/>
	</g>
</g>
<g>
	<g>
		<path d="M145.739,244.294h-13.382v-13.392c0-5.545-4.495-10.039-10.039-10.039s-10.039,4.495-10.039,10.039v13.392H98.886
			c-5.545,0-10.039,4.495-10.039,10.039c0,5.545,4.495,10.039,10.039,10.039h13.392v13.382c0,5.545,4.495,10.039,10.039,10.039
			s10.039-4.495,10.039-10.039v-13.382h13.382c5.545,0,10.039-4.495,10.039-10.039S151.284,244.294,145.739,244.294z"/>
	</g>
</g>
<g>
	<g>
		<path d="M425.161,66.761c-12.919,0-12.941,20.078,0,20.078C438.08,86.839,438.101,66.761,425.161,66.761z"/>
	</g>
</g>
<g>
	<g>
		<path d="M365.598,245.964c-12.919,0-12.941,20.078,0,20.078C378.518,266.042,378.539,245.964,365.598,245.964z"/>
	</g>
</g>
<g>
	<g>
		<path d="M413.117,245.964c-12.919,0-12.941,20.078,0,20.078C426.036,266.042,426.058,245.964,413.117,245.964z"/>
	</g>
</g>
<g>
	<g>
		<path d="M389.358,269.724c-12.919,0-12.941,20.078,0,20.078C402.277,289.802,402.298,269.724,389.358,269.724z"/>
	</g>
</g>
<g>
	<g>
		<path d="M389.358,222.205c-12.919,0-12.941,20.078,0,20.078C402.277,242.283,402.298,222.205,389.358,222.205z"/>
	</g>
</g>
<g>
</g>
<g>
</g>
<g>
</g>
<g>
</g>
<g>
</g>
<g>
</g>
<g>
</g>
<g>
</g>
<g>
</g>
<g>
</g>
<g>
</g>
<g>
</g>
<g>
</g>
<g>
</g>
<g>
</g>
</svg>
