<?xml version="1.0" encoding="iso-8859-1"?>
<!-- Generator: Adobe Illustrator 19.0.0, SVG Export Plug-In . SVG Version: 6.00 Build 0)  -->
<svg version="1.1" id="Capa_1" xmlns="http://www.w3.org/2000/svg" xmlns:xlink="http://www.w3.org/1999/xlink" x="0px" y="0px"
	 viewBox="0 0 512 512" style="enable-background:new 0 0 512 512;" xml:space="preserve">
<g>
	<g>
		<path d="M469.323,174.753h-61.55v-25.53c0-38.351-31.205-69.552-69.562-69.552h-22.689c-34.947,0-63.946,25.903-68.828,59.512
			h-11.787c-5.544,0-10.039,4.495-10.039,10.039v25.53H42.677C19.145,174.753,0,193.897,0,217.429v172.223
			c0,23.532,19.145,42.677,42.677,42.677h426.647c23.531,0,42.677-19.145,42.677-42.677V217.429
			C512,193.897,492.855,174.753,469.323,174.753z M315.523,99.75h22.689c27.286,0,49.483,22.194,49.483,49.473v25.53H287.122v-25.53
			c0-5.545-4.496-10.039-10.039-10.039h-10.017C271.718,116.701,291.677,99.75,315.523,99.75z M244.947,159.262h22.096v15.49
			h-22.096V159.262z M491.922,389.652c0,12.461-10.138,22.598-22.598,22.598H42.677c-12.461,0-22.598-10.138-22.598-22.598V217.429
			c0-12.461,10.138-22.598,22.598-22.598h192.231h42.175h192.241c12.461,0,22.598,10.138,22.598,22.598V389.652z"/>
	</g>
</g>
<g>
	<g>
		<path d="M174.682,274.924h-30.118v-30.108c0-5.545-4.496-10.039-10.039-10.039H97.38c-5.544,0-10.039,4.495-10.039,10.039v30.108
			H57.224c-5.544,0-10.039,4.495-10.039,10.039v37.155c0,5.545,4.496,10.039,10.039,10.039h30.118v30.118
			c0,5.545,4.496,10.039,10.039,10.039h37.145c5.544,0,10.039-4.495,10.039-10.039v-30.118h30.118
			c5.544,0,10.039-4.495,10.039-10.039v-37.155C184.722,279.419,180.226,274.924,174.682,274.924z M164.643,312.079h-30.118
			c-5.544,0-10.039,4.495-10.039,10.039v30.118H107.42v-30.118c0-5.545-4.496-10.039-10.039-10.039H67.263v-17.077H97.38
			c5.544,0,10.039-4.495,10.039-10.039v-30.108h17.067v30.108c0,5.545,4.496,10.039,10.039,10.039h30.118V312.079z"/>
	</g>
</g>
<g>
	<g>
		<path d="M386.721,223.112c-16.784,0-30.439,13.65-30.439,30.429c0,16.785,13.654,30.439,30.439,30.439
			s30.439-13.655,30.439-30.439C417.16,236.762,403.504,223.112,386.721,223.112z M386.721,263.901
			c-5.712,0-10.36-4.648-10.36-10.36c0-5.707,4.648-10.35,10.36-10.35s10.36,4.643,10.36,10.35
			C397.081,259.253,392.433,263.901,386.721,263.901z"/>
	</g>
</g>
<g>
	<g>
		<path d="M386.721,323.102c-16.785,0-30.439,13.655-30.439,30.439s13.655,30.439,30.439,30.439s30.439-13.655,30.439-30.439
			C417.16,336.757,403.505,323.102,386.721,323.102z M386.721,363.902c-5.712,0-10.36-4.647-10.36-10.361
			c0-5.713,4.648-10.36,10.36-10.36s10.36,4.648,10.36,10.36C397.081,359.253,392.433,363.902,386.721,363.902z"/>
	</g>
</g>
<g>
	<g>
		<path d="M336.725,272.535c-16.784,0-30.439,13.65-30.439,30.429c0,16.785,13.655,30.439,30.439,30.439
			s30.439-13.654,30.439-30.439C367.164,286.185,353.509,272.535,336.725,272.535z M336.725,313.324
			c-5.712,0-10.36-4.648-10.36-10.361c0-5.707,4.648-10.35,10.36-10.35c5.712,0,10.36,4.643,10.36,10.35
			C347.086,308.676,342.439,313.324,336.725,313.324z"/>
	</g>
</g>
<g>
	<g>
		<path d="M436.716,272.535c-16.779,0-30.429,13.65-30.429,30.429c0,16.785,13.65,30.439,30.429,30.439
			c16.785,0,30.439-13.655,30.439-30.439C467.155,286.185,453.5,272.535,436.716,272.535z M436.716,313.324
			c-5.707,0-10.35-4.648-10.35-10.361c0-5.707,4.643-10.35,10.35-10.35c5.712,0,10.36,4.643,10.36,10.35
			C447.076,308.676,442.428,313.324,436.716,313.324z"/>
	</g>
</g>
<g>
	<g>
		<path d="M234.918,369.303h-32.125c-5.544,0-10.039,4.495-10.039,10.039s4.496,10.039,10.039,10.039h32.125
			c5.544,0,10.039-4.495,10.039-10.039S240.461,369.303,234.918,369.303z"/>
	</g>
</g>
<g>
	<g>
		<path d="M309.208,369.303h-32.125c-5.544,0-10.039,4.495-10.039,10.039s4.496,10.039,10.039,10.039h32.125
			c5.544,0,10.039-4.495,10.039-10.039S314.752,369.303,309.208,369.303z"/>
	</g>
</g>
<g>
	<g>
		<path d="M285.195,223.112h-90.347c-5.544,0-10.039,4.495-10.039,10.039c0,5.545,4.496,10.039,10.039,10.039h90.347
			c5.544,0,10.039-4.495,10.039-10.039C295.234,227.606,290.739,223.112,285.195,223.112z"/>
	</g>
</g>
<g>
	<g>
		<path d="M317.152,223.112c-12.919,0-12.941,20.078,0,20.078C330.071,243.19,330.092,223.112,317.152,223.112z"/>
	</g>
</g>
<g>
</g>
<g>
</g>
<g>
</g>
<g>
</g>
<g>
</g>
<g>
</g>
<g>
</g>
<g>
</g>
<g>
</g>
<g>
</g>
<g>
</g>
<g>
</g>
<g>
</g>
<g>
</g>
<g>
</g>
</svg>
