<?xml version="1.0" encoding="iso-8859-1"?>
<!-- Generator: Adobe Illustrator 19.0.0, SVG Export Plug-In . SVG Version: 6.00 Build 0)  -->
<svg version="1.1" id="Capa_1" xmlns="http://www.w3.org/2000/svg" xmlns:xlink="http://www.w3.org/1999/xlink" x="0px" y="0px"
	 viewBox="0 0 512 512" style="enable-background:new 0 0 512 512;" xml:space="preserve">
<g>
	<g>
		<path d="M367.296,334.861h-27.181c-0.392-0.197-0.795-0.362-1.205-0.505c56.236-29.826,94.633-88.985,94.633-156.952
			c0-16.522-2.27-32.882-6.745-48.615c-0.319-1.13-0.65-2.259-0.992-3.379c-0.021-0.071-0.051-0.137-0.074-0.207
			c-3.1-10.085-7.18-19.988-12.165-29.487c-19.366-36.897-50.811-65.984-88.545-81.905C276.25-6.766,219.297-4.226,172.67,20.605
			l-0.427,0.227c-0.503,0.267-1.01,0.537-1.512,0.813c-0.822,0.453-1.644,0.917-2.466,1.391c-0.003,0.002-0.006,0.003-0.009,0.004
			c-0.007,0.004-0.014,0.008-0.021,0.012c-0.01,0.005-0.019,0.01-0.029,0.016c-0.005,0.003-0.01,0.007-0.015,0.01
			c-23.089,13.161-43.284,31.691-58.402,53.593C94.351,99.035,84.15,125.04,80.291,151.859c-1.215,8.357-1.832,16.952-1.832,25.546
			c0,68.352,38.832,127.797,95.588,157.457h-29.342c-48.023,0-87.094,39.07-87.094,87.094v80.004
			C57.613,507.504,62.109,512,67.655,512h376.692c5.546,0,10.042-4.496,10.042-10.042v-80.004
			C454.389,373.931,415.319,334.861,367.296,334.861z M134.665,491.917H77.697v-69.962c0-33.537,24.765-61.394,56.968-66.256
			V491.917z M317.213,32.315c32.972,13.912,61.609,40.423,78.569,72.736c3.662,6.977,6.774,14.194,9.291,21.538
			c-21.799,10.943-46.054,16.693-70.645,16.693c-43.766,0-85.916-18.426-115.646-50.556c-14.926-16.117-26.406-35.357-33.493-56.04
			C226.022,16.211,275.06,14.53,317.213,32.315z M345.444,194.676c0,15.365-12.501,27.866-27.866,27.866
			s-27.866-12.501-27.866-27.866s12.5-27.866,27.866-27.866C332.943,166.809,345.444,179.311,345.444,194.676z M167.686,47.061
			c6.963,18.865,17.168,36.575,30.052,52.1c-26.088,25.223-59.313,40.373-95.322,43.502
			C111.197,103.973,134.75,69.474,167.686,47.061z M98.544,177.404c0-4.813,0.242-9.617,0.674-14.375
			c21.66-1.291,42.602-6.456,62.369-15.404c18.514-8.381,35.231-19.722,49.833-33.765c21.538,20.654,47.921,35.464,76.425,43.24
			c-4.088,3.242-7.635,7.131-10.486,11.517c-5.819-4.778-13.259-7.651-21.358-7.651c-8.099,0-15.539,2.873-21.358,7.651
			c-8.558-13.162-23.384-21.89-40.219-21.89c-26.44,0-47.95,21.51-47.95,47.95s21.51,47.95,47.95,47.95s47.95-21.51,47.95-47.95
			c0-7.513,6.112-13.627,13.627-13.627c7.514,0,13.627,6.113,13.627,13.627c0,26.44,21.51,47.95,47.95,47.95
			c26.44,0,47.95-21.51,47.95-47.95c0-12.431-4.756-23.77-12.542-32.298c19.911-2.088,39.341-7.521,57.384-16.053
			c2.04,10.185,3.088,20.592,3.088,31.079c0,86.822-70.635,157.457-157.457,157.457S98.544,264.226,98.544,177.404z M222.29,194.676
			c0,15.365-12.501,27.866-27.866,27.866c-15.365,0-27.866-12.501-27.866-27.866s12.501-27.866,27.866-27.866
			C209.789,166.809,222.29,179.311,222.29,194.676z M245.959,443.716h-13.627c-5.546,0-10.042,4.496-10.042,10.042
			c0,5.546,4.496,10.042,10.042,10.042h13.627v28.117h-91.211V354.946h18.565l72.645,72.645V443.716z M201.717,354.946h108.567
			l-54.284,54.284L201.717,354.946z M357.254,491.917h-91.211V463.8h13.627c5.546,0,10.042-4.496,10.042-10.042
			s-4.496-10.042-10.042-10.042h-13.627v-16.125l72.645-72.645h18.565V491.917z M434.305,491.917h-56.968V355.7
			c32.202,4.86,56.968,32.719,56.968,66.256V491.917z"/>
	</g>
</g>
<g>
	<g>
		<path d="M372.178,104.358c-15.231-23.871-37.525-42.884-62.774-53.536c-5.109-2.156-11,0.238-13.156,5.348
			c-2.155,5.108,0.24,10.998,5.349,13.154c21.535,9.086,40.587,25.364,53.65,45.836c1.915,3.002,5.161,4.642,8.474,4.642
			c1.849,0,3.719-0.51,5.393-1.578C373.79,115.241,375.161,109.033,372.178,104.358z"/>
	</g>
</g>
<g>
	<g>
		<path d="M355.927,252.049c-1.89-2.607-4.915-4.151-8.133-4.151H164.198c-3.219,0-6.244,1.543-8.133,4.151
			c-1.889,2.607-2.412,5.962-1.409,9.021c0.218,0.665,5.518,16.464,20.764,32.017c13.921,14.201,39.202,31.13,80.581,31.13
			c41.381,0,66.658-16.929,80.577-31.13c15.244-15.553,20.541-31.353,20.759-32.018C358.34,258.01,357.816,254.656,355.927,252.049z
			 M256.001,304.133c-43.65,0-65.523-21.508-75.357-36.151h150.618C321.354,282.594,299.388,304.133,256.001,304.133z"/>
	</g>
</g>
<g>
	<g>
		<path d="M224.7,274.007c-12.923,0-12.945,20.084,0,20.084C237.623,294.091,237.644,274.007,224.7,274.007z"/>
	</g>
</g>
<g>
	<g>
		<path d="M257.126,274.258c-12.924,0-12.945,20.084,0,20.084C270.049,294.342,270.07,274.258,257.126,274.258z"/>
	</g>
</g>
<g>
	<g>
		<path d="M287.295,273.505c-12.923,0-12.944,20.084,0,20.084C300.218,293.589,300.239,273.505,287.295,273.505z"/>
	</g>
</g>
<g>
	<g>
		<path d="M275.583,43.043c-12.923,0-12.945,20.084,0,20.084C288.506,63.127,288.527,43.043,275.583,43.043z"/>
	</g>
</g>
<g>
</g>
<g>
</g>
<g>
</g>
<g>
</g>
<g>
</g>
<g>
</g>
<g>
</g>
<g>
</g>
<g>
</g>
<g>
</g>
<g>
</g>
<g>
</g>
<g>
</g>
<g>
</g>
<g>
</g>
</svg>
