<?xml version="1.0" encoding="iso-8859-1"?>
<!-- Generator: Adobe Illustrator 17.1.0, SVG Export Plug-In . SVG Version: 6.00 Build 0)  -->
<!DOCTYPE svg PUBLIC "-//W3C//DTD SVG 1.1//EN" "http://www.w3.org/Graphics/SVG/1.1/DTD/svg11.dtd">
<svg version="1.1" id="Capa_1" xmlns="http://www.w3.org/2000/svg" xmlns:xlink="http://www.w3.org/1999/xlink" x="0px" y="0px"
	 viewBox="0 0 286.264 286.264" style="enable-background:new 0 0 286.264 286.264;" xml:space="preserve">
<g>
	<path style="fill:#000002;" d="M268.037,42.851c-10.503-10.502-25.646-17.474-39.518-18.193c-4.132-0.212-7.664,2.963-7.879,7.101
		c-0.215,4.136,2.965,7.664,7.102,7.878c10.166,0.528,21.82,5.953,29.688,13.821c7.941,7.943,13.374,19.721,13.841,30.004
		c0.183,4.022,3.501,7.16,7.486,7.16c0.114,0,0.23-0.003,0.346-0.008c4.138-0.188,7.34-3.694,7.152-7.832
		C285.62,68.755,278.639,53.455,268.037,42.851z"/>
	<path style="fill:#000002;" d="M221.467,49.901c-4.148-0.216-7.665,2.963-7.881,7.1c-0.215,4.136,2.964,7.665,7.1,7.88
		c5.23,0.273,12.559,3.862,17.046,8.351c4.527,4.527,8.12,11.928,8.358,17.216c0.181,4.023,3.499,7.162,7.486,7.162
		c0.113,0,0.229-0.002,0.343-0.008c4.139-0.186,7.342-3.691,7.155-7.83c-0.469-10.425-6.734-21.146-12.735-27.147
		C242.393,56.678,231.777,50.438,221.467,49.901z"/>
	<path style="fill:#000002;" d="M229.852,214.649V102.637c0-12.407-10.094-22.5-22.5-22.5H39.363c-12.406,0-22.5,10.093-22.5,22.5
		v112.012C7.51,214.988,0,222.682,0,232.116v12c0,9.649,7.851,17.5,17.5,17.5h211.713c9.649,0,17.5-7.851,17.5-17.5v-12
		C246.713,222.683,239.204,214.988,229.852,214.649z M39.363,95.137h167.988c4.136,0,7.5,3.364,7.5,7.5v111.979H31.863V102.637
		C31.863,98.501,35.228,95.137,39.363,95.137z M231.713,244.116c0,1.355-1.145,2.5-2.5,2.5H17.5c-1.355,0-2.5-1.145-2.5-2.5v-12
		c0-1.355,1.145-2.5,2.5-2.5h211.713c1.355,0,2.5,1.145,2.5,2.5V244.116z"/>
</g>
<g>
</g>
<g>
</g>
<g>
</g>
<g>
</g>
<g>
</g>
<g>
</g>
<g>
</g>
<g>
</g>
<g>
</g>
<g>
</g>
<g>
</g>
<g>
</g>
<g>
</g>
<g>
</g>
<g>
</g>
</svg>
