<?xml version="1.0" encoding="iso-8859-1"?>
<!-- Generator: Adobe Illustrator 17.1.0, SVG Export Plug-In . SVG Version: 6.00 Build 0)  -->
<!DOCTYPE svg PUBLIC "-//W3C//DTD SVG 1.1//EN" "http://www.w3.org/Graphics/SVG/1.1/DTD/svg11.dtd">
<svg version="1.1" id="Capa_1" xmlns="http://www.w3.org/2000/svg" xmlns:xlink="http://www.w3.org/1999/xlink" x="0px" y="0px"
	 viewBox="0 0 301.211 301.211" style="enable-background:new 0 0 301.211 301.211;" xml:space="preserve">
<path style="fill:#000002;" d="M301.211,186.788c0-25.181-15.364-45.941-34.952-48.326c-3.446-4.105-7.957-7.287-13.104-9.117
	v-2.882c0-27.604-10.767-55.478-29.54-76.475c-19.713-22.049-45.642-34.192-73.009-34.192S97.311,27.939,77.597,49.988
	c-18.773,20.998-29.54,48.872-29.54,76.475v2.882c-5.147,1.83-9.658,5.011-13.104,9.117C15.364,140.847,0,161.607,0,186.788
	c0,25.183,15.364,45.945,34.954,48.328c5.57,6.635,13.919,10.862,23.239,10.862c16.731,0,30.344-13.611,30.344-30.342v-57.697
	c0-15.075-11.054-27.612-25.481-29.947v-1.529c0-11.417,2.059-22.517,5.77-32.873c18.188-21.764,53.591-38.831,81.779-38.831
	c28.188,0,63.59,17.067,81.779,38.831c3.711,10.356,5.77,21.457,5.77,32.873v1.529c-14.427,2.335-25.48,14.872-25.48,29.947v57.697
	c0,16.73,13.612,30.342,30.344,30.342c9.32,0,17.669-4.228,23.239-10.862c1.232-0.15,2.446-0.376,3.643-0.669
	c-5.672,21.692-26.124,35.967-53.579,35.967h-3.055c-9.391,0-18.251-1.736-26.038-5.054c1.668-3.312,2.614-7.047,2.614-11.002
	c0-13.53-11.008-24.538-24.539-24.538h-7.405c-13.53,0-24.538,11.008-24.538,24.538c0,13.531,11.008,24.539,24.538,24.539h7.405
	c3.768,0,7.339-0.855,10.532-2.379c10.932,5.824,23.784,8.896,37.431,8.896h3.055c18.997,0,36.464-5.987,49.182-16.859
	c12.771-10.916,20.118-26.314,20.902-43.617C295.411,216.039,301.211,202.251,301.211,186.788z M157.897,263.898
	c-5.26,0-9.538-4.279-9.538-9.539c0-5.259,4.278-9.538,9.538-9.538h7.405c5.26,0,9.539,4.279,9.539,9.538
	c0,5.26-4.279,9.539-9.539,9.539H157.897z M286.211,186.788c0,12.703-5.3,24.023-12.873,29.701c0.008-0.284,0.021-0.566,0.021-0.852
	v-57.697c0-0.285-0.014-0.567-0.021-0.851C280.911,162.768,286.211,174.086,286.211,186.788z M15,186.788
	c0-12.702,5.3-24.02,12.873-29.699c-0.008,0.283-0.021,0.565-0.021,0.851v57.697c0,0.286,0.014,0.568,0.021,0.852
	C20.3,210.811,15,199.491,15,186.788z M73.537,157.939v57.697c0,8.459-6.883,15.342-15.344,15.342
	c-8.46,0-15.342-6.882-15.342-15.342v-57.697c0-8.46,6.882-15.342,15.342-15.342C66.654,142.598,73.537,149.48,73.537,157.939z
	 M150.605,44.759c-22.364,0-48.109,9.321-68.349,23.435c16.336-22.455,41.385-37.397,68.349-37.397
	c26.964,0,52.013,14.942,68.349,37.398C198.715,54.081,172.97,44.759,150.605,44.759z M243.018,230.979
	c-8.461,0-15.344-6.882-15.344-15.342v-57.697c0-8.46,6.883-15.342,15.344-15.342c8.46,0,15.342,6.882,15.342,15.342v57.697
	C258.359,224.096,251.477,230.979,243.018,230.979z"/>
<g>
</g>
<g>
</g>
<g>
</g>
<g>
</g>
<g>
</g>
<g>
</g>
<g>
</g>
<g>
</g>
<g>
</g>
<g>
</g>
<g>
</g>
<g>
</g>
<g>
</g>
<g>
</g>
<g>
</g>
</svg>
