<?xml version="1.0" encoding="iso-8859-1"?>
<!-- Generator: Adobe Illustrator 17.1.0, SVG Export Plug-In . SVG Version: 6.00 Build 0)  -->
<!DOCTYPE svg PUBLIC "-//W3C//DTD SVG 1.1//EN" "http://www.w3.org/Graphics/SVG/1.1/DTD/svg11.dtd">
<svg version="1.1" id="Capa_1" xmlns="http://www.w3.org/2000/svg" xmlns:xlink="http://www.w3.org/1999/xlink" x="0px" y="0px"
	 viewBox="0 0 305.691 305.691" style="enable-background:new 0 0 305.691 305.691;" xml:space="preserve">
<g>
	<path style="fill:#000002;" d="M141.448,125.859c-36.576,0-66.333,29.757-66.333,66.333s29.757,66.333,66.333,66.333
		c36.576,0,66.333-29.757,66.333-66.333S178.024,125.859,141.448,125.859z M186.988,225.296h-91.08
		c-3.305-4.534-5.944-9.577-7.788-14.989h106.656C192.933,215.719,190.293,220.762,186.988,225.296z M85.708,200.307
		c-0.385-2.65-0.593-5.358-0.593-8.114c0-2.329,0.158-4.621,0.435-6.877h111.797c0.276,2.256,0.435,4.548,0.435,6.877
		c0,2.756-0.208,5.464-0.593,8.114H85.708z M87.701,175.316c1.696-5.392,4.188-10.431,7.328-14.991h92.626
		c0.067,0,0.131-0.018,0.198-0.02c3.146,4.565,5.644,9.611,7.342,15.011H87.701z M179.09,150.324h-75.283
		c9.984-8.985,23.184-14.465,37.642-14.465C155.906,135.859,169.105,141.339,179.09,150.324z M105.232,235.296h72.432
		c-9.8,8.247-22.435,13.23-36.216,13.23C127.667,248.525,115.032,243.543,105.232,235.296z"/>
	<path style="fill:#000002;" d="M151.164,110.591h11c4.143,0,7.5-3.357,7.5-7.5c0-4.142-3.357-7.5-7.5-7.5h-11
		c-4.143,0-7.5,3.358-7.5,7.5C143.664,107.233,147.021,110.591,151.164,110.591z"/>
	<path style="fill:#000002;" d="M185.164,110.591h11c4.143,0,7.5-3.357,7.5-7.5c0-4.142-3.357-7.5-7.5-7.5h-11
		c-4.143,0-7.5,3.358-7.5,7.5C177.664,107.233,181.021,110.591,185.164,110.591z"/>
	<path style="fill:#000002;" d="M236.572,94.984h-5.295v-8.932c0-9.65-7.851-17.5-17.5-17.5h-12.035V10c0-5.522-4.478-10-10-10
		c-5.522,0-10,4.478-10,10v58.553H69.119c-9.649,0-17.5,7.85-17.5,17.5v202.139c0,9.649,7.851,17.5,17.5,17.5h144.658
		c9.649,0,17.5-7.851,17.5-17.5V109.984h5.295c1.355,0,2.5,1.145,2.5,2.5v97.352c0,4.143,3.357,7.5,7.5,7.5s7.5-3.357,7.5-7.5
		v-97.352C254.072,102.835,246.222,94.984,236.572,94.984z M216.277,288.191c0,1.355-1.145,2.5-2.5,2.5H69.119
		c-1.355,0-2.5-1.145-2.5-2.5V86.053c0-1.355,1.145-2.5,2.5-2.5h144.658c1.355,0,2.5,1.145,2.5,2.5V288.191z"/>
</g>
<g>
</g>
<g>
</g>
<g>
</g>
<g>
</g>
<g>
</g>
<g>
</g>
<g>
</g>
<g>
</g>
<g>
</g>
<g>
</g>
<g>
</g>
<g>
</g>
<g>
</g>
<g>
</g>
<g>
</g>
</svg>
