<?xml version="1.0" encoding="iso-8859-1"?>
<!-- Generator: Adobe Illustrator 17.1.0, SVG Export Plug-In . SVG Version: 6.00 Build 0)  -->
<!DOCTYPE svg PUBLIC "-//W3C//DTD SVG 1.1//EN" "http://www.w3.org/Graphics/SVG/1.1/DTD/svg11.dtd">
<svg version="1.1" id="Capa_1" xmlns="http://www.w3.org/2000/svg" xmlns:xlink="http://www.w3.org/1999/xlink" x="0px" y="0px"
	 viewBox="0 0 297.39 297.39" style="enable-background:new 0 0 297.39 297.39;" xml:space="preserve">
<g>
	<path style="fill:#000002;" d="M106.227,145.786c0-2.761-2.238-5-5-5H88.324v-16.211h23.644c12.406,0,22.5-10.093,22.5-22.5V38.852
		c0-12.407-10.094-22.5-22.5-22.5H22.5c-12.406,0-22.5,10.093-22.5,22.5v63.223c0,12.407,10.094,22.5,22.5,22.5h23.644v16.211
		H33.242c-2.762,0-5,2.239-5,5c0,2.761,2.238,5,5,5h67.984C103.988,150.786,106.227,148.547,106.227,145.786z M15,102.075V38.852
		c0-4.136,3.364-7.5,7.5-7.5h89.469c4.136,0,7.5,3.364,7.5,7.5v63.223c0,4.136-3.364,7.5-7.5,7.5H22.5
		C18.364,109.575,15,106.21,15,102.075z M78.324,124.575v15.21H56.144v-15.21H78.324z"/>
	<path style="fill:#000002;" d="M274.89,146.604h-89.469c-12.406,0-22.5,10.093-22.5,22.5v63.223c0,12.407,10.094,22.5,22.5,22.5
		h23.644v16.211h-12.901c-2.762,0-5,2.239-5,5c0,2.761,2.238,5,5,5h67.984c2.762,0,5-2.239,5-5c0-2.761-2.238-5-5-5h-12.902v-16.211
		h23.644c12.406,0,22.5-10.093,22.5-22.5v-63.223C297.39,156.697,287.296,146.604,274.89,146.604z M241.245,270.037h-22.181v-15.21
		h22.181V270.037z M282.39,232.327c0,4.136-3.364,7.5-7.5,7.5h-89.469c-4.136,0-7.5-3.364-7.5-7.5v-63.223
		c0-4.136,3.364-7.5,7.5-7.5h89.469c4.136,0,7.5,3.364,7.5,7.5V232.327z"/>
	<path style="fill:#000002;" d="M226.73,128.352c1.277,2.719,3.976,4.314,6.794,4.314c1.067,0,2.152-0.23,3.183-0.713
		c3.75-1.76,5.362-6.227,3.602-9.977c-13.801-29.389-45.925-50.719-83.835-55.665c-4.104-0.534-7.872,2.359-8.407,6.467
		c-0.536,4.107,2.359,7.871,6.466,8.407C187.418,85.476,215.083,103.549,226.73,128.352z"/>
	<path style="fill:#000002;" d="M139.296,227.627c-42.561,0-79.691-22.768-90.296-55.371c-1.281-3.94-5.518-6.092-9.451-4.813
		c-3.939,1.281-6.094,5.513-4.813,9.452c12.588,38.701,55.584,65.731,104.56,65.731c4.143,0,7.5-3.358,7.5-7.5
		C146.796,230.985,143.439,227.627,139.296,227.627z"/>
</g>
<g>
</g>
<g>
</g>
<g>
</g>
<g>
</g>
<g>
</g>
<g>
</g>
<g>
</g>
<g>
</g>
<g>
</g>
<g>
</g>
<g>
</g>
<g>
</g>
<g>
</g>
<g>
</g>
<g>
</g>
</svg>
