<?xml version="1.0" encoding="iso-8859-1"?>
<!-- Generator: Adobe Illustrator 17.1.0, SVG Export Plug-In . SVG Version: 6.00 Build 0)  -->
<!DOCTYPE svg PUBLIC "-//W3C//DTD SVG 1.1//EN" "http://www.w3.org/Graphics/SVG/1.1/DTD/svg11.dtd">
<svg version="1.1" id="Capa_1" xmlns="http://www.w3.org/2000/svg" xmlns:xlink="http://www.w3.org/1999/xlink" x="0px" y="0px"
	 viewBox="0 0 320.123 320.123" style="enable-background:new 0 0 320.123 320.123;" xml:space="preserve">
<g>
	<path style="fill:#000002;" d="M231.935,43.287c0,11.23-4.486,23.399-11.429,31.002c-2.793,3.059-2.578,7.803,0.48,10.596
		c1.439,1.314,3.249,1.962,5.056,1.962c2.034,0,4.061-0.823,5.54-2.442c9.47-10.37,15.353-26.125,15.353-41.117
		c0-14.853-5.777-30.49-15.077-40.809c-2.773-3.076-7.516-3.322-10.593-0.55c-3.077,2.773-3.323,7.516-0.55,10.593
		C227.531,20.083,231.935,32.159,231.935,43.287z"/>
	<path style="fill:#000002;" d="M198.238,72.019c1.438,1.315,3.251,1.963,5.057,1.963c2.033,0,4.059-0.821,5.539-2.441
		c7.039-7.703,10.19-19.714,10.19-28.202c0-8.409-3.093-20.328-10.004-27.998c-2.773-3.078-7.516-3.325-10.592-0.551
		c-3.077,2.773-3.324,7.515-0.551,10.592c3.505,3.89,6.148,11.61,6.148,17.957c0,6.402-2.692,14.176-6.263,18.083
		C194.967,64.481,195.18,69.225,198.238,72.019z"/>
	<path style="fill:#000002;" d="M92.781,86.847c1.789,0,3.585-0.637,5.019-1.929c3.077-2.773,3.323-7.515,0.55-10.592
		c-6.816-7.563-11.22-19.641-11.22-30.768c0-11.229,4.486-23.398,11.429-31.002c2.793-3.059,2.578-7.803-0.48-10.596
		c-3.059-2.793-7.803-2.578-10.596,0.481c-9.47,10.37-15.353,26.125-15.353,41.117c0,14.853,5.777,30.489,15.078,40.81
		C88.689,86.012,90.731,86.847,92.781,86.847z"/>
	<path style="fill:#000002;" d="M110.048,71.505c1.481,1.644,3.523,2.479,5.574,2.479c1.789,0,3.585-0.636,5.018-1.928
		c3.077-2.773,3.324-7.515,0.551-10.592c-3.505-3.89-6.148-11.61-6.148-17.957c0-6.402,2.693-14.176,6.264-18.082
		c2.794-3.058,2.581-7.801-0.476-10.596c-3.057-2.793-7.801-2.581-10.596,0.476c-7.041,7.703-10.192,19.715-10.192,28.203
		C100.043,51.916,103.136,63.835,110.048,71.505z"/>
	<path style="fill:#000002;" d="M249.046,310.303l-12.05-37.078c-0.08-0.313-0.179-0.621-0.3-0.923L170.58,68.866
		c9.372-4.077,15.944-13.423,15.944-24.278c0-14.593-11.872-26.465-26.464-26.465c-14.593,0-26.465,11.872-26.465,26.465
		c0,10.857,6.575,20.205,15.95,24.281L83.433,272.286c-0.129,0.319-0.234,0.646-0.318,0.978l-12.038,37.038
		c-1.28,3.939,0.876,8.171,4.814,9.451c3.941,1.28,8.171-0.875,9.451-4.815l11.517-35.435c15.595-12.54,38.471-19.713,63.201-19.713
		c24.718,0,47.595,7.172,63.203,19.71l11.517,35.438c1.03,3.169,3.97,5.184,7.131,5.184c0.768,0,1.549-0.119,2.32-0.369
		C248.17,318.473,250.326,314.242,249.046,310.303z M190.448,178.531c-9.688-2.407-19.982-3.66-30.38-3.66
		c-10.404,0-20.702,1.254-30.392,3.661l30.387-93.494L190.448,178.531z M160.06,33.123c6.321,0,11.464,5.143,11.464,11.465
		c0,6.322-5.143,11.465-11.464,11.465c-6.322,0-11.465-5.143-11.465-11.465C148.595,38.266,153.738,33.123,160.06,33.123z
		 M160.06,244.791c-20.409,0-39.856,4.427-55.967,12.457l19.938-61.345c11.009-3.936,23.398-6.032,36.037-6.032
		c12.632,0,25.017,2.097,36.025,6.031l19.939,61.35C199.915,249.219,180.465,244.791,160.06,244.791z"/>
</g>
<g>
</g>
<g>
</g>
<g>
</g>
<g>
</g>
<g>
</g>
<g>
</g>
<g>
</g>
<g>
</g>
<g>
</g>
<g>
</g>
<g>
</g>
<g>
</g>
<g>
</g>
<g>
</g>
<g>
</g>
</svg>
