<?xml version="1.0" encoding="iso-8859-1"?>
<!-- Generator: Adobe Illustrator 17.1.0, SVG Export Plug-In . SVG Version: 6.00 Build 0)  -->
<!DOCTYPE svg PUBLIC "-//W3C//DTD SVG 1.1//EN" "http://www.w3.org/Graphics/SVG/1.1/DTD/svg11.dtd">
<svg version="1.1" id="Capa_1" xmlns="http://www.w3.org/2000/svg" xmlns:xlink="http://www.w3.org/1999/xlink" x="0px" y="0px"
	 viewBox="0 0 264.02 264.02" style="enable-background:new 0 0 264.02 264.02;" xml:space="preserve">
<g>
	<path style="fill:#000002;" d="M210.506,126.764c-4.143,0-7.5,3.358-7.5,7.5c0,17.302-8.038,34.335-22.052,46.73
		c-13.11,11.596-30.349,18.247-47.297,18.247h-3.295c-16.947,0-34.186-6.65-47.296-18.247
		c-14.015-12.395-22.052-29.427-22.052-46.73c0-4.142-3.357-7.5-7.5-7.5s-7.5,3.358-7.5,7.5c0,21.598,9.883,42.726,27.114,57.966
		c14.314,12.662,32.764,20.413,51.381,21.773v35.017H89.675c-4.143,0-7.5,3.358-7.5,7.5c0,4.142,3.357,7.5,7.5,7.5h84.667
		c4.143,0,7.5-3.358,7.5-7.5c0-4.142-3.357-7.5-7.5-7.5H139.51v-35.017c18.617-1.361,37.067-9.112,51.382-21.773
		c17.232-15.241,27.114-36.369,27.114-57.966C218.006,130.122,214.648,126.764,210.506,126.764z"/>
	<path style="fill:#000002;" d="M130.421,184.938h3.18c30.021,0,56.357-24.364,56.357-52.14v-80.66
		C189.957,24.364,163.622,0,133.6,0h-3.18c-30.022,0-56.357,24.364-56.357,52.138v80.66
		C74.063,160.573,100.398,184.938,130.421,184.938z M89.063,52.138C89.063,32.701,108.776,15,130.421,15h3.18
		c21.645,0,41.357,17.701,41.357,37.138v80.66c0,19.438-19.712,37.14-41.357,37.14h-3.18c-21.644,0-41.357-17.702-41.357-37.14
		V52.138z"/>
</g>
<g>
</g>
<g>
</g>
<g>
</g>
<g>
</g>
<g>
</g>
<g>
</g>
<g>
</g>
<g>
</g>
<g>
</g>
<g>
</g>
<g>
</g>
<g>
</g>
<g>
</g>
<g>
</g>
<g>
</g>
</svg>
