<?xml version="1.0" encoding="iso-8859-1"?>
<!-- Generator: Adobe Illustrator 17.1.0, SVG Export Plug-In . SVG Version: 6.00 Build 0)  -->
<!DOCTYPE svg PUBLIC "-//W3C//DTD SVG 1.1//EN" "http://www.w3.org/Graphics/SVG/1.1/DTD/svg11.dtd">
<svg version="1.1" id="Capa_1" xmlns="http://www.w3.org/2000/svg" xmlns:xlink="http://www.w3.org/1999/xlink" x="0px" y="0px"
	 viewBox="0 0 264.02 264.02" style="enable-background:new 0 0 264.02 264.02;" xml:space="preserve">
<path style="fill:#000002;" d="M130.421,184.938h3.18c30.022,0,56.357-24.364,56.357-52.14V68.809l47.143-47.143
	c3.905-3.905,3.905-10.237,0-14.143c-3.906-3.905-10.236-3.905-14.143,0l-34.233,34.234C183.2,18.565,159.807,0,133.601,0h-3.18
	c-30.022,0-56.357,24.364-56.357,52.138v80.66c0,6.731,1.558,13.258,4.329,19.29l-10.19,10.191
	c-4.669-8.745-7.188-18.337-7.188-28.015c0-4.142-3.357-7.5-7.5-7.5c-4.143,0-7.5,3.358-7.5,7.5c0,13.645,3.948,27.1,11.199,39.003
	l-30.295,30.295c-3.905,3.905-3.905,10.237,0,14.143c1.953,1.953,4.512,2.929,7.071,2.929c2.56,0,5.118-0.976,7.071-2.929
	l28.662-28.662c1.102,1.087,2.235,2.152,3.405,3.187c14.315,12.662,32.766,20.413,51.382,21.773v35.017H93.316
	c-4.143,0-7.5,3.358-7.5,7.5c0,4.142,3.357,7.5,7.5,7.5h84.667c4.143,0,7.5-3.358,7.5-7.5c0-4.142-3.357-7.5-7.5-7.5h-38.472
	v-35.017c18.617-1.361,37.067-9.112,51.382-21.773c17.231-15.241,27.114-36.369,27.114-57.966c0-4.142-3.357-7.5-7.5-7.5
	c-4.143,0-7.5,3.358-7.5,7.5c0,17.302-8.037,34.335-22.052,46.73c-13.11,11.596-30.349,18.247-47.297,18.247h-3.295
	c-16.947,0-34.186-6.651-47.297-18.247c-0.94-0.831-1.849-1.688-2.734-2.56l9.889-9.89
	C100.623,178.526,115.032,184.938,130.421,184.938z M174.958,132.798c0,19.438-19.713,37.14-41.357,37.14h-3.18
	c-11.2,0-21.875-4.747-29.577-12.015l74.114-74.114V132.798z M89.064,132.798v-80.66C89.064,32.701,108.777,15,130.421,15h3.18
	c21.645,0,41.357,17.701,41.357,37.138v3.385l-84.884,84.884C89.42,137.926,89.064,135.378,89.064,132.798z"/>
<g>
</g>
<g>
</g>
<g>
</g>
<g>
</g>
<g>
</g>
<g>
</g>
<g>
</g>
<g>
</g>
<g>
</g>
<g>
</g>
<g>
</g>
<g>
</g>
<g>
</g>
<g>
</g>
<g>
</g>
</svg>
