<?xml version="1.0" encoding="iso-8859-1"?>
<!-- Generator: Adobe Illustrator 19.0.0, SVG Export Plug-In . SVG Version: 6.00 Build 0)  -->
<svg version="1.1" id="Capa_1" xmlns="http://www.w3.org/2000/svg" xmlns:xlink="http://www.w3.org/1999/xlink" x="0px" y="0px"
	 viewBox="0 0 511.977 511.977" style="enable-background:new 0 0 511.977 511.977;" xml:space="preserve">
<g>
	<g>
		<path d="M499.374,277.689c-17.083-29.957-48.942-48.428-83.428-48.369c-9.397,0.006-18.742,1.397-27.733,4.128l-52.085-121.461
			h37.152c5.891,0,10.667-4.776,10.667-10.667s-4.776-10.667-10.667-10.667h-53.333c-5.891,0.001-10.666,4.777-10.665,10.668
			c0,1.445,0.294,2.874,0.863,4.202l21.995,51.317l-133.173,38.048l-21.333-40.235h24.981c5.891,0,10.667-4.776,10.667-10.667
			s-4.776-10.667-10.667-10.667h-74.667c-5.891,0-10.667,4.776-10.667,10.667s4.776,10.667,10.667,10.667h25.6l26.795,50.667
			l-32.299,39.467c-44.503-28.765-103.898-16.007-132.663,28.496S-0.628,377.18,43.875,405.945
			c44.503,28.765,103.898,16.007,132.663-28.496c8.074-12.492,13.134-26.691,14.779-41.474h64.629c0.716,0,1.431-0.072,2.133-0.213
			c0.623-0.125,1.234-0.307,1.824-0.544c2.249-0.887,4.129-2.512,5.333-4.608l0.181-0.32l78.229-146.677l24.981,58.293
			c-45.985,26.223-62.006,84.76-35.782,130.745c26.223,45.985,84.76,62.006,130.745,35.783S525.597,323.674,499.374,277.689z
			 M95.946,399.986c-41.237,0.108-74.754-33.233-74.863-74.47c-0.108-41.237,33.233-74.754,74.47-74.863
			c13.701-0.036,27.147,3.698,38.867,10.794l-46.731,57.12c-3.729,4.561-3.055,11.281,1.506,15.01
			c1.905,1.558,4.29,2.409,6.75,2.409h73.813C164.44,372.678,133.021,399.92,95.946,399.986z M118.452,314.653l32.469-39.68
			c10.133,11.027,16.699,24.858,18.837,39.68H118.452z M191.316,314.653c-2.375-21.246-11.797-41.085-26.763-56.352l26.667-32.533
			l47.051,88.885H191.316z M255.946,302.589l-46.816-88.427l110.88-31.68L255.946,302.589z M436.212,397.323
			c-6.601,1.813-13.421,2.709-20.266,2.663c-41.196,0.034-74.619-33.335-74.653-74.531c-0.021-26.043,13.542-50.212,35.783-63.762
			l29.067,67.829c2.398,5.381,8.704,7.799,14.085,5.401c5.273-2.35,7.719-8.468,5.52-13.806l-29.077-67.797
			c39.765-10.919,80.853,12.466,91.772,52.231C499.362,345.316,475.978,386.404,436.212,397.323z"/>
	</g>
</g>
<g>
</g>
<g>
</g>
<g>
</g>
<g>
</g>
<g>
</g>
<g>
</g>
<g>
</g>
<g>
</g>
<g>
</g>
<g>
</g>
<g>
</g>
<g>
</g>
<g>
</g>
<g>
</g>
<g>
</g>
</svg>
