<?xml version="1.0" encoding="iso-8859-1"?>
<!-- Generator: Adobe Illustrator 19.0.0, SVG Export Plug-In . SVG Version: 6.00 Build 0)  -->
<svg version="1.1" id="Layer_1" xmlns="http://www.w3.org/2000/svg" xmlns:xlink="http://www.w3.org/1999/xlink" x="0px" y="0px"
	 viewBox="0 0 490.667 490.667" style="enable-background:new 0 0 490.667 490.667;" xml:space="preserve">
<g>
	<g>
		<g>
			<path d="M308.224,208.576c-3.627-7.232-15.467-7.232-19.093,0l-10.667,21.333c-1.493,2.987-1.493,6.528,0,9.536l10.667,21.333
				c1.813,3.605,5.504,5.888,9.536,5.888c4.032,0,7.723-2.283,9.557-5.888l10.667-21.333c1.493-2.987,1.493-6.528,0-9.536
				L308.224,208.576z"/>
			<path d="M437.333,117.333h-96v-32C341.333,55.936,317.419,32,288,32h-85.333c-29.419,0-53.333,23.936-53.333,53.333v32h-96
				C23.915,117.333,0,141.269,0,170.667v234.667c0,29.397,23.915,53.333,53.333,53.333h384c29.419,0,53.333-23.936,53.333-53.333
				V170.667C490.667,141.269,466.752,117.333,437.333,117.333z M170.667,85.333c0-17.643,14.357-32,32-32H288
				c17.643,0,32,14.357,32,32v32h-21.333v-32c0-5.888-4.779-10.667-10.667-10.667h-85.333c-5.888,0-10.667,4.779-10.667,10.667v32
				h-21.333V85.333z M277.333,96v21.333h-64V96H277.333z M21.333,170.667c0-17.643,14.357-32,32-32h9.579
				C58.667,159.531,42.197,176,21.333,180.245V170.667z M53.333,437.333c-17.643,0-32-14.357-32-32v-9.579
				c20.864,4.245,37.333,20.715,41.579,41.579H53.333z M106.667,437.333H84.245c-4.715-32.576-30.336-58.197-62.912-62.912V201.579
				c32.576-4.715,58.197-30.336,62.912-62.912h22.421v128H96c-5.888,0-10.667,4.779-10.667,10.667V320
				c0,5.888,4.779,10.667,10.667,10.667h10.667V437.333z M106.667,288c0,5.888,4.779,10.667,10.667,10.667S128,293.888,128,288
				v21.333h-21.333V288z M362.667,437.333H128V330.667h10.667c5.888,0,10.667-4.779,10.667-10.667v-42.667
				c0-5.888-4.779-10.667-10.667-10.667H128v-128h234.667v128H352c-5.888,0-10.667,4.779-10.667,10.667V320
				c0,5.888,4.779,10.667,10.667,10.667h10.667V437.333z M362.667,288c0,5.888,4.779,10.667,10.667,10.667
				c5.888,0,10.667-4.779,10.667-10.667v21.333h-21.333V288z M469.333,405.333c0,17.643-14.357,32-32,32h-9.579
				C432,416.469,448.469,400,469.333,395.755V405.333z M469.333,374.421c-32.576,4.715-58.197,30.336-62.912,62.912H384V330.667
				h10.667c5.888,0,10.667-4.779,10.667-10.667v-42.667c0-5.888-4.779-10.667-10.667-10.667H384v-128h22.421
				c4.715,32.576,30.336,58.197,62.912,62.912V374.421z M469.333,180.245C448.469,176,432,159.531,427.755,138.667h9.579
				c17.643,0,32,14.357,32,32V180.245z"/>
			<path d="M312.96,356.459l-40.128-14.507c-2.624-0.939-5.589-0.832-8.149,0.384c-2.56,1.195-4.544,3.371-5.525,6.037
				l-14.507,40.128c-2.005,5.547,0.875,11.648,6.421,13.653l40.107,14.507c1.195,0.448,2.411,0.64,3.627,0.64
				c4.352,0,8.469-2.688,10.027-7.061l14.528-40.128c0.981-2.645,0.832-5.589-0.363-8.149
				C317.803,359.403,315.627,357.419,312.96,356.459z M288.405,392.981l-20.053-7.253l7.253-20.053l20.053,7.253L288.405,392.981z"
				/>
			<path d="M256,277.333c0-17.643-14.357-32-32-32c-17.643,0-32,14.357-32,32s14.357,32,32,32
				C241.643,309.333,256,294.976,256,277.333z M224,288c-5.867,0-10.667-4.779-10.667-10.667s4.8-10.667,10.667-10.667
				c5.867,0,10.667,4.779,10.667,10.667S229.867,288,224,288z"/>
		</g>
	</g>
</g>
<g>
</g>
<g>
</g>
<g>
</g>
<g>
</g>
<g>
</g>
<g>
</g>
<g>
</g>
<g>
</g>
<g>
</g>
<g>
</g>
<g>
</g>
<g>
</g>
<g>
</g>
<g>
</g>
<g>
</g>
</svg>
