<?xml version="1.0" encoding="iso-8859-1"?>
<!-- Generator: Adobe Illustrator 19.0.0, SVG Export Plug-In . SVG Version: 6.00 Build 0)  -->
<svg version="1.1" id="Layer_1" xmlns="http://www.w3.org/2000/svg" xmlns:xlink="http://www.w3.org/1999/xlink" x="0px" y="0px"
	 viewBox="0 0 511.967 511.967" style="enable-background:new 0 0 511.967 511.967;" xml:space="preserve">
<g>
	<g>
		<path d="M460.186,386.336l-1.812-0.516c-26.468-7.125-35.436-13.938-47.217-18.438c-41.778-15.92-52.652-27.389-55.434-32.811
			c-0.109-0.188-0.188-0.406-0.281-0.609l-0.297-42.23c31.342-12.344,35.764-33.881,30.232-51.466
			c5.156-15.632,8.125-31.99,8.141-48.599h0.016c0,0,3.155-13.468,3.124-33.865c0-24.21-4.499-58.246-24.124-91.166l-0.031-0.273
			c-0.031,0-0.062,0.008-0.125,0.016c-7.827-13.07-18.029-25.952-31.311-37.975C327.194,15.827,292.915,0,251.597,0
			c-28.304,0-59.903,7.421-90.542,28.404c-49.286,33.756-53.574,110.095-53.605,135.195c-0.008,5.288,0.172,8.358,0.172,8.358
			s4.147,1.055,11.624,2.039c-0.531,5.688-0.812,11.515-0.812,17.483c0,16.671,2.977,33.1,8.14,48.786
			c-5.53,17.585-1.102,39.122,30.24,51.466l-0.305,42.23c-0.086,0.203-0.164,0.422-0.266,0.609
			c-2.78,5.422-13.655,16.891-55.449,32.811c-11.78,4.5-20.733,11.312-47.208,18.438l-1.812,0.516
			c-24.092,7.951-40.302,30.311-40.302,55.527v70.105H255.98h244.516v-70.105C500.496,416.646,484.279,394.287,460.186,386.336z
			 M356.552,267.279c-6.547,4.203-19.577,9.703-44.357,11.984c-1.359,0.125-2.766,0.188-4.172,0.188
			c-18.748,0-35.388-10.484-40.059-20.193c-1.734-3.602-2.703-8.281,3.249-15.733c1.109-1.383,1.938-2.18,2.453-2.617
			c0.719,0.25,1.906,0.781,3.733,1.859c3.203,1.897,6.859,4.616,10.734,7.491c11.719,8.68,26.279,19.475,44.653,19.475
			c7.765,0,15.312-1.953,22.452-5.797c4.125-2.234,7.641-4.795,10.483-7.654C365.286,258.273,363.802,262.63,356.552,267.279z
			 M255.98,362.805c-2.336-0.719-7.397-2.719-15.226-7.17c-8.913-5.047-18.647-11.688-27.404-18.719
			c-9.538-7.625-17.515-15.326-23.077-22.279c-5.866-7.344-7.351-11.812-7.429-12.938c0-0.641,0.07-1.641,0.328-3.062
			c4.555,0.75,9.429,1.375,14.647,1.859c2.031,0.188,4.07,0.266,6.117,0.266c19.976-0.001,40.162-8.673,52.044-21.717
			c11.891,13.045,32.076,21.717,52.043,21.717c2.047,0,4.078-0.078,6.125-0.266c5.203-0.484,10.078-1.109,14.641-1.859
			c0.25,1.406,0.328,2.406,0.328,3.062c-0.078,1.125-1.547,5.594-7.422,12.938c-5.562,6.953-13.547,14.654-23.092,22.279
			c-8.75,7.031-18.484,13.672-27.39,18.719C263.378,360.086,258.316,362.086,255.98,362.805z M266.644,381.632v12.998h-21.327
			v-12.998c4.359,1.719,8.03,2.719,10.663,2.75C258.613,384.351,262.285,383.351,266.644,381.632z M223.983,389.302v16h-0.001
			c0,4.484,2.766,8.297,6.672,9.891l-4.617,13.482l-19.116-27.045L223.983,389.302z M194.602,384.226l-23.654-33.451
			c1.679-2.078,3.124-4.234,4.265-6.438c0.383-0.766,0.664-1.391,0.82-1.766l1.781-3.938l0.031-4.516l0.008-1.172
			c11.084,12.377,26.271,24.594,40.607,34.031L194.602,384.226z M287.978,405.302v-16.531l17.343,12.844L287.228,427.8
			l-4.547-13.295C285.853,412.661,287.978,409.224,287.978,405.302z M293.977,366.664c14.186-9.375,29.17-21.467,40.122-33.717
			l0.017,1.172l0.031,4.516l1.781,3.938c0.141,0.344,0.422,1,0.812,1.734c1.078,2.094,2.422,4.109,3.983,6.094l-23.264,33.654
			L293.977,366.664z M362.271,93.377c5.874,13.366,9.811,27.873,11.732,43.153c0.281,2.305,0.516,4.562,0.703,6.773
			c-3.421-6.414-7.187-11.882-11.404-16.663c-4.672-5.273-9.891-9.594-15.547-12.929C352.037,103.344,357.459,97.111,362.271,93.377
			z M129.043,153.419c0.437-9.319,1.531-21.583,4.125-34.732c3.102-15.726,7.71-29.607,13.694-41.271
			c6.953-13.554,15.78-24.054,26.248-31.225c23.905-16.374,50.31-24.671,78.488-24.671c36.349,0,65.378,14.039,75.159,22.89
			c9.905,8.952,18.357,18.96,25.311,29.865c-8.438,5.68-17.78,15.421-24.451,32.092c-3.516-0.594-7.109-0.906-10.797-0.906
			c-15.937,0-33.092,5.383-52.465,16.46c-46.669,26.662-89.831,32.264-117.829,32.264
			C139.832,154.185,133.949,153.857,129.043,153.419z M139.767,191.48c0-5.391,0.257-10.68,0.765-15.858
			c1.931,0.054,3.924,0.078,5.994,0.078c31.217,0,78.003-6.266,128.422-35.068c16.968-9.695,30.685-13.648,41.872-13.648
			c26.842,0,39.029,22.795,46.342,43.419c2.499,7.07,5.624,11.937,8.936,15.257c0.062,1.93,0.094,3.867,0.094,5.82
			c0,8.257-0.874,16.694-2.593,25.186c-3.766-2.961-7.577-4.679-10.812-4.679c-0.094,0-0.188,0-0.281,0
			c-16.562,0.507-24.53,17.693-24.53,17.693c2.469-0.758,4.891-1.102,7.14-1.102c11.438,0,18.406,8.797,3.984,16.585
			c-4.219,2.273-8.312,3.242-12.312,3.242c-21.905,0-40.638-29.053-59.715-29.053c-5.632,0-11.304,2.555-17.093,9.147
			c-5.788-6.593-11.46-9.147-17.101-9.147c-19.068,0-37.802,29.053-59.715,29.053c-3.992,0-8.085-0.969-12.304-3.242
			c-14.421-7.788-7.453-16.585,3.984-16.585c2.249,0,4.679,0.344,7.147,1.102c0,0-7.968-17.187-24.545-17.693
			c-0.086,0-0.18,0-0.273,0c-3.234,0-7.047,1.718-10.805,4.679C140.649,208.183,139.767,199.737,139.767,191.48z M155.409,267.278
			c-7.25-4.655-8.727-9.005-9.172-10.997c2.844,2.859,6.359,5.42,10.491,7.654c7.133,3.844,14.68,5.797,22.437,5.797
			c18.382,0,32.943-10.795,44.653-19.475c3.875-2.875,7.539-5.594,10.742-7.491c1.827-1.078,3.03-1.609,3.726-1.859
			c0.531,0.438,1.359,1.234,2.461,2.617c5.953,7.452,4.984,12.132,3.25,15.733c-4.664,9.709-21.312,20.193-40.06,20.193
			c-1.406,0-2.812-0.062-4.164-0.188C174.985,276.981,161.962,271.481,155.409,267.278z M32.806,490.625v-48.762
			c0-15.906,10.156-29.982,25.319-35.17l1.195-0.344c19.943-5.359,30.959-10.625,39.81-14.875c3.422-1.641,6.383-3.062,9.257-4.154
			c4.625-1.75,9.586-3.719,14.656-5.875l77.214,109.18H32.806z M223.974,490.625c0-2.125-0.625-4.282-1.953-6.157l-79.409-112.304
			c4.25-2.281,8.367-4.703,12.195-7.281l88.916,125.742H223.974z M241.231,450.16l11.702-34.186h7.703l11.53,33.654l-15.483,22.389
			L241.231,450.16z M287.978,490.625h-18.226l87.034-125.977c3.5,2.359,7.233,4.609,11.093,6.734l-78.026,113.195
			C288.588,486.437,287.978,488.531,287.978,490.625z M311.601,490.625l75.715-109.867c5.625,2.438,11.155,4.625,16.28,6.578
			c2.843,1.076,5.812,2.498,9.233,4.139c8.859,4.25,19.858,9.516,39.811,14.875l1.188,0.344c15.17,5.188,25.326,19.264,25.326,35.17
			v48.761H311.601z"/>
	</g>
</g>
<g>
</g>
<g>
</g>
<g>
</g>
<g>
</g>
<g>
</g>
<g>
</g>
<g>
</g>
<g>
</g>
<g>
</g>
<g>
</g>
<g>
</g>
<g>
</g>
<g>
</g>
<g>
</g>
<g>
</g>
</svg>
