<?xml version="1.0" encoding="iso-8859-1"?>
<!-- Generator: Adobe Illustrator 19.0.0, SVG Export Plug-In . SVG Version: 6.00 Build 0)  -->
<svg version="1.1" id="Layer_1" xmlns="http://www.w3.org/2000/svg" xmlns:xlink="http://www.w3.org/1999/xlink" x="0px" y="0px"
	 viewBox="0 0 512.022 512.022" style="enable-background:new 0 0 512.022 512.022;" xml:space="preserve">
<g>
	<g>
		<g>
			<path d="M416.022,170.69h-320c-29.397,0-53.333,23.936-53.333,53.333v96c0,26.709,19.947,42.667,53.333,42.667h320
				c29.397,0,53.333-23.936,53.333-53.333v-85.333C469.356,194.626,445.42,170.69,416.022,170.69z M96.022,192.023h320
				c13.888,0,25.621,8.939,30.037,21.333H65.985C70.401,200.962,82.134,192.023,96.022,192.023z M416.022,341.356h-320
				c-32,0-32-16.043-32-21.333H446.06C441.622,332.396,429.889,341.356,416.022,341.356z M448.022,298.69h-384v-21.333h384V298.69z
				 M448.022,256.023h-384V234.69h384V256.023z"/>
			<path d="M96.022,405.356H74.689c-5.888,0-10.667,4.779-10.667,10.667c0,5.888,4.779,10.667,10.667,10.667h21.333
				c5.888,0,10.667-4.779,10.667-10.667C106.689,410.135,101.91,405.356,96.022,405.356z"/>
			<path d="M224.022,405.356h-21.333c-5.888,0-10.667,4.779-10.667,10.667c0,5.888,4.779,10.667,10.667,10.667h21.333
				c5.888,0,10.667-4.779,10.667-10.667C234.689,410.135,229.91,405.356,224.022,405.356z"/>
			<path d="M160.022,405.356h-21.333c-5.888,0-10.667,4.779-10.667,10.667c0,5.888,4.779,10.667,10.667,10.667h21.333
				c5.888,0,10.667-4.779,10.667-10.667C170.689,410.135,165.91,405.356,160.022,405.356z"/>
			<path d="M309.356,394.69c-11.776,0-21.333,9.557-21.333,21.333s9.557,21.333,21.333,21.333s21.333-9.557,21.333-21.333
				S321.132,394.69,309.356,394.69z"/>
			<path d="M439.489,128.236L13.249,21.676c-5.739-1.493-11.52,2.027-12.928,7.765C-1.108,35.159,2.369,40.94,8.086,42.37
				L350.7,128.023H74.689c-41.173,0-74.667,33.493-74.667,74.667v213.333c0,41.173,33.493,74.667,74.667,74.667h362.667
				c41.173,0,74.667-33.493,74.667-74.667V202.69C512.022,162.242,479.66,129.388,439.489,128.236z M490.689,416.023
				c0,29.397-23.936,53.333-53.333,53.333H74.689c-29.397,0-53.333-23.936-53.333-53.333V202.69
				c0-29.397,23.936-53.333,53.333-53.333h362.667c29.397,0,53.333,23.936,53.333,53.333V416.023z"/>
			<path d="M394.689,373.356c-23.531,0-42.667,19.136-42.667,42.667c0,23.531,19.136,42.667,42.667,42.667
				c23.531,0,42.667-19.136,42.667-42.667S418.22,373.356,394.689,373.356z M394.689,437.356c-11.755,0-21.333-9.579-21.333-21.333
				c0-11.755,9.579-21.333,21.333-21.333c11.755,0,21.333,9.579,21.333,21.333C416.022,427.778,406.444,437.356,394.689,437.356z"/>
		</g>
	</g>
</g>
<g>
</g>
<g>
</g>
<g>
</g>
<g>
</g>
<g>
</g>
<g>
</g>
<g>
</g>
<g>
</g>
<g>
</g>
<g>
</g>
<g>
</g>
<g>
</g>
<g>
</g>
<g>
</g>
<g>
</g>
</svg>
