<?xml version="1.0" encoding="iso-8859-1"?>
<!-- Generator: Adobe Illustrator 19.0.0, SVG Export Plug-In . SVG Version: 6.00 Build 0)  -->
<svg version="1.1" id="Layer_1" xmlns="http://www.w3.org/2000/svg" xmlns:xlink="http://www.w3.org/1999/xlink" x="0px" y="0px"
	 viewBox="0 0 511.968 511.968" style="enable-background:new 0 0 511.968 511.968;" xml:space="preserve">
<g>
	<g>
		<path d="M511.906,175.536c0-0.156-0.031-0.312-0.062-0.469c-0.031-0.188-0.047-0.375-0.078-0.562
			c-0.047-0.18-0.078-0.352-0.141-0.523c-0.031-0.164-0.062-0.328-0.125-0.484c-0.031-0.172-0.109-0.336-0.156-0.508
			c-0.062-0.156-0.125-0.32-0.188-0.477c-0.063-0.157-0.141-0.312-0.219-0.461c-0.062-0.164-0.141-0.328-0.219-0.492
			c-0.094-0.141-0.188-0.281-0.25-0.422c-0.094-0.156-0.188-0.312-0.297-0.469c-0.109-0.157-0.219-0.297-0.328-0.445
			c-0.094-0.133-0.188-0.266-0.281-0.391c-0.219-0.266-0.469-0.523-0.703-0.766c-0.016-0.008-0.016-0.016-0.016-0.016L342.916,3.125
			c-2-2-4.718-3.125-7.53-3.125c-2.844,0-5.546,1.125-7.546,3.125L3.125,327.838c-2,2-3.125,4.703-3.125,7.547
			c0,2.812,1.125,5.531,3.125,7.531l165.919,165.927c2.086,2.094,4.812,3.125,7.546,3.125c2.727,0,5.46-1.031,7.539-3.125
			L319.98,373.007v0.312c0,5.875,4.781,10.656,10.656,10.656c5.905,0,10.686-4.781,10.686-10.656v-21.654l21.312-21.344v42.998
			c0,5.875,4.78,10.656,10.686,10.656c5.875,0,10.656-4.781,10.656-10.656V309.01l21.342-21.342v0.312
			c0,5.889,4.766,10.654,10.656,10.654c5.891,0,10.656-4.766,10.656-10.654v-21.646l21.342-21.326v64.316
			c0,5.875,4.781,10.656,10.656,10.656c5.905,0,10.686-4.781,10.686-10.656v-85.65l21.312-21.335v42.981
			c0,5.891,4.78,10.664,10.686,10.664c5.875,0,10.656-4.773,10.656-10.664v-68.729C511.968,176.239,511.953,175.887,511.906,175.536
			z M176.59,486.218L25.748,335.384L335.385,25.748l128.211,128.219l-28.139,28.139c-1.891-7.116-0.062-15.03,5.515-20.6
			c4.156-4.164,4.156-10.922,0-15.085l-75.433-75.418c-4.155-4.163-10.905-4.163-15.077,0c-4.031,4.031-9.391,6.25-15.077,6.25
			c-5.702,0-11.062-2.219-15.093-6.25c-2-2-4.719-3.124-7.531-3.124c-2.844,0-5.562,1.124-7.562,3.124L71.003,305.199
			c-4.164,4.188-4.164,10.938,0,15.094c8.312,8.311,8.312,21.842,0,30.17c-4.164,4.172-4.164,10.92,0,15.076l75.417,75.434
			c2,2,4.718,3.125,7.546,3.125s5.539-1.125,7.539-3.125c4.031-4.031,9.382-6.25,15.085-6.25c5.695,0,11.054,2.219,15.085,6.25
			c2.078,2.078,4.812,3.125,7.539,3.125c2.734,0,5.46-1.047,7.546-3.125l51.685-51.686c1.227,3.781,3.023,7.109,5.07,10
			L176.59,486.218z M270.507,347.04l-72.238,72.247c-6.5-3.844-13.929-5.906-21.678-5.906c-7.749,0-15.187,2.062-21.678,5.906
			l-62.239-62.248c7.851-13.311,7.851-30.014,0-43.34L313.699,92.681c6.5,3.852,13.938,5.898,21.687,5.898
			s15.187-2.047,21.687-5.898l62.215,62.238c-7.844,13.319-7.844,30.021,0,43.341l-148.64,148.655
			C270.609,346.946,270.562,347.009,270.507,347.04z M279.107,383.711c-0.609-1.469-0.938-2.953-1-4.5
			c-0.312-7.359,5.391-14.922,7.594-17.203l155.271-155.247v-0.008l37.701-37.701l7.547,7.539L279.107,383.711z"/>
	</g>
</g>
<g>
	<g>
		<path d="M301.231,210.729c-12.093-12.086-28.154-18.741-45.247-18.741s-33.162,6.655-45.255,18.741
			c-12.085,12.093-18.741,28.162-18.741,45.255c0,17.092,6.656,33.154,18.741,45.246c12.093,12.094,28.162,18.75,45.255,18.75
			s33.154-6.656,45.247-18.75C326.199,276.295,326.199,235.68,301.231,210.729z M286.154,286.154
			c-8.062,8.045-18.771,12.482-30.17,12.482c-11.397,0-22.108-4.438-30.17-12.482c-8.054-8.062-12.492-18.773-12.492-30.17
			c0-11.398,4.438-22.108,12.492-30.17c8.062-8.055,18.772-12.492,30.17-12.492c11.398,0,22.107,4.438,30.17,12.492
			C302.794,242.454,302.794,269.513,286.154,286.154z"/>
	</g>
</g>
<g>
	<g>
		<path d="M458.629,341.322c-5.875,0-10.656,4.766-10.656,10.656v21.342c0,5.875,4.781,10.656,10.656,10.656
			c5.905,0,10.686-4.781,10.686-10.656v-21.342C469.314,346.088,464.534,341.322,458.629,341.322z"/>
	</g>
</g>
<g>
	<g>
		<path d="M330.636,405.318c-5.875,0-10.656,4.766-10.656,10.656v21.342c0,5.875,4.781,10.656,10.656,10.656
			c5.905,0,10.686-4.781,10.686-10.656v-21.342C341.322,410.084,336.542,405.318,330.636,405.318z"/>
	</g>
</g>
<g>
</g>
<g>
</g>
<g>
</g>
<g>
</g>
<g>
</g>
<g>
</g>
<g>
</g>
<g>
</g>
<g>
</g>
<g>
</g>
<g>
</g>
<g>
</g>
<g>
</g>
<g>
</g>
<g>
</g>
</svg>
