<?xml version="1.0" encoding="iso-8859-1"?>
<!-- Generator: Adobe Illustrator 19.0.0, SVG Export Plug-In . SVG Version: 6.00 Build 0)  -->
<svg version="1.1" id="Layer_1" xmlns="http://www.w3.org/2000/svg" xmlns:xlink="http://www.w3.org/1999/xlink" x="0px" y="0px"
	 viewBox="0 0 512 512" style="enable-background:new 0 0 512 512;" xml:space="preserve">
<g>
	<g>
		<g>
			<path d="M506.944,108.341c-3.157-1.941-7.061-2.112-10.368-0.469l-40.427,20.203h-93.483V53.408
				c0-5.888-4.779-10.667-10.667-10.667H239.125C221.333,16.352,191.659,0.075,160,0.075c-31.659,0-61.333,16.277-79.168,42.667
				h-6.165c-13.888,0-25.621,8.939-30.037,21.333h-8.192L18.219,45.856c-3.051-3.051-7.616-3.947-11.627-2.304
				C2.603,45.195,0,49.099,0,53.408v85.333c0,4.309,2.603,8.213,6.592,9.856c1.323,0.555,2.709,0.811,4.075,0.811
				c2.773,0,5.504-1.088,7.531-3.115l18.219-18.219h6.251v160c0,17.643,14.357,32,32,32h84.352l34.645,183.168
				c0.981,5.12,5.44,8.683,10.475,8.683c0.661,0,1.323-0.064,2.005-0.149l83.84-15.872c2.773-0.512,5.227-2.133,6.827-4.459
				c1.6-2.347,2.197-5.227,1.664-8l-1.237-6.549c-0.661-3.541-3.072-6.507-6.4-7.872c-11.243-4.672-19.776-15.68-22.251-28.779
				c-2.475-13.12,1.429-26.496,10.197-34.944c2.581-2.496,3.733-6.123,3.072-9.664l-2.475-13.077
				c-0.661-3.541-3.072-6.507-6.4-7.872c-11.243-4.672-19.776-15.701-22.251-28.8c-1.728-9.067-0.192-18.027,4.011-25.813H352
				c5.888,0,10.667-4.779,10.667-10.667v-74.667h93.483l40.405,20.203c1.515,0.747,3.136,1.131,4.779,1.131
				c1.941,0,3.904-0.533,5.611-1.6c3.136-1.941,5.056-5.376,5.056-9.067v-128C512,113.717,510.08,110.283,506.944,108.341z
				 M42.667,106.741H32c-2.837,0-5.547,1.131-7.552,3.136l-3.115,3.115V79.157l3.136,3.136c2.005,1.984,4.715,3.115,7.552,3.115
				h10.645V106.741z M159.979,21.408c19.84,0,38.208,7.723,51.925,21.333H108.075C121.792,29.131,140.139,21.408,159.979,21.408z
				 M259.435,391.797l0.469,2.517c-11.157,13.355-15.723,31.573-12.267,49.877c2.581,13.717,9.365,25.728,19.008,34.411
				l-53.995,10.219l-31.765-167.829l49.493-0.896h1.152c-3.008,9.493-3.648,19.733-1.749,29.76
				C233.237,368.139,244.16,383.413,259.435,391.797z M298.667,298.741h-64h-160c-5.888,0-10.667-4.779-10.667-10.667V74.848
				c0-0.043,0.021-0.064,0.021-0.107c0-0.021,0-0.043,0-0.043c0.021-5.867,4.779-10.624,10.667-10.624h223.979V298.741z
				 M341.333,298.741H320V64.075h21.333V298.741z M405.333,213.408h-42.667v-64h42.667V213.408z M490.667,228.149l-27.221-13.611
				c-1.493-0.747-3.115-1.131-4.779-1.131h-32v-64h32c1.664,0,3.285-0.384,4.779-1.131l27.221-13.611V228.149z"/>
			<path d="M277.333,256.075c0-23.531-19.136-42.667-42.667-42.667c-23.531,0-42.667,19.136-42.667,42.667
				c0,23.531,19.136,42.667,42.667,42.667C258.197,298.741,277.333,279.605,277.333,256.075z M234.667,277.408
				c-11.755,0-21.333-9.579-21.333-21.333c0-11.755,9.579-21.333,21.333-21.333c11.755,0,21.333,9.579,21.333,21.333
				C256,267.829,246.421,277.408,234.667,277.408z"/>
			<path d="M75.776,186.165l13.888,27.776c5.504,11.029,16.661,17.707,28.587,17.707c2.325-0.021,4.651-0.256,6.976-0.768
				l63.04-14.016c14.763-3.264,25.067-16.128,25.067-31.232v-36.224c0-3.328-1.557-6.464-4.181-8.533
				c-2.645-2.027-6.101-2.667-9.28-1.813l-27.029,7.403c-5.141-10.837-16.085-18.389-28.843-18.389c-17.643,0-32,14.357-32,32
				c0,1.003,0.213,1.941,0.299,2.901l-29.781,8.128c-3.072,0.832-5.632,3.008-6.933,5.931S74.347,183.307,75.776,186.165z
				 M144,149.408c5.888,0,10.667,4.779,10.667,10.667s-4.779,10.667-10.667,10.667c-4.075,0-7.509-2.368-9.301-5.717
				c-0.235-0.384-0.341-0.875-0.619-1.216c-0.427-1.173-0.747-2.411-0.747-3.733C133.333,154.187,138.112,149.408,144,149.408z
				 M121.344,182.645c5.803,5.824,13.803,9.429,22.656,9.429c14.891,0,27.328-10.261,30.891-24.064l17.131-4.672v22.251
				c0,5.056-3.456,9.323-8.363,10.411l-63.04,14.016c-4.843,1.067-9.664-1.237-11.861-5.632l-8.064-16.128L121.344,182.645z"/>
		</g>
	</g>
</g>
<g>
</g>
<g>
</g>
<g>
</g>
<g>
</g>
<g>
</g>
<g>
</g>
<g>
</g>
<g>
</g>
<g>
</g>
<g>
</g>
<g>
</g>
<g>
</g>
<g>
</g>
<g>
</g>
<g>
</g>
</svg>
