<?xml version="1.0" encoding="iso-8859-1"?>
<!-- Generator: Adobe Illustrator 19.0.0, SVG Export Plug-In . SVG Version: 6.00 Build 0)  -->
<svg version="1.1" id="Layer_1" xmlns="http://www.w3.org/2000/svg" xmlns:xlink="http://www.w3.org/1999/xlink" x="0px" y="0px"
	 viewBox="0 0 511.976 511.976" style="enable-background:new 0 0 511.976 511.976;" xml:space="preserve">
<g>
	<g>
		<path d="M455.761,56.233c-36.279-36.263-84.495-56.23-135.773-56.23c-51.286,0-99.494,19.976-135.757,56.23
			C147.968,92.498,127.992,140.712,127.992,192c0,42.271,13.585,82.455,38.662,115.578l-26.896,26.904L136,330.716
			c-2-2-4.718-3.125-7.546-3.125c-2.828,0-5.539,1.125-7.539,3.125L12.491,439.132C4.437,447.194,0,457.911,0,469.319
			c0,11.375,4.437,22.092,12.491,30.154c8.062,8.062,18.772,12.5,30.17,12.5c11.397,0,22.108-4.438,30.17-12.5l108.423-108.416
			c2-2,3.125-4.717,3.125-7.545s-1.125-5.531-3.125-7.531l-3.789-3.797l26.889-26.889c33.139,25.092,73.339,38.701,115.634,38.701
			c51.278,0,99.494-19.984,135.773-56.232c36.247-36.277,56.215-84.485,56.215-135.764
			C511.976,140.714,492.009,92.498,455.761,56.233z M57.746,484.379c-4.031,4.031-9.382,6.25-15.085,6.25
			c-5.695,0-11.054-2.219-15.085-6.25c-4.031-4.014-6.25-9.373-6.25-15.061c0-5.719,2.219-11.062,6.25-15.094L128.452,353.34
			l30.17,30.17L57.746,484.379z M162.381,357.105l-7.539-7.545l25.646-25.639c1.227,1.279,2.469,2.561,3.742,3.842
			c1.25,1.25,2.516,2.469,3.796,3.688L162.381,357.105z M440.668,312.671c-32.248,32.232-75.089,49.996-120.68,49.996
			s-88.44-17.748-120.672-49.996c-32.24-32.232-49.989-75.089-49.989-120.672c0-45.591,17.757-88.448,49.989-120.681
			c32.232-32.233,75.081-49.981,120.672-49.981s88.447,17.749,120.68,49.981c32.233,32.232,49.982,75.09,49.982,120.681
			C490.65,237.582,472.9,280.439,440.668,312.671z"/>
	</g>
</g>
<g>
	<g>
		<path d="M409.199,181.945c-10.06-26.218-24.793-47.334-42.651-61.067c-21.202-16.327-44.872-20.819-68.433-12.999
			c-34.811,11.554-55.052,29.49-61.88,54.817c-5.828,21.662-0.843,44.622,3.984,66.823c5.109,23.522,9.938,45.731,0.25,61.138
			c-3.133,4.982-1.633,11.576,3.352,14.701c1.766,1.125,3.734,1.641,5.672,1.641c3.546,0,7.015-1.766,9.038-4.984
			c14.319-22.779,8.328-50.355,2.531-77.025c-4.281-19.71-8.711-40.092-4.227-56.747c4.883-18.116,20.123-30.865,47.997-40.114
			c16.765-5.562,33.154-2.32,48.716,9.655c30.811,23.718,50.153,75.753,47.028,126.53c-0.344,5.883,4.124,10.938,9.999,11.297
			c5.875,0.375,10.938-4.109,11.312-9.984C423.637,237.114,419.246,208.179,409.199,181.945z"/>
	</g>
</g>
<g>
	<g>
		<path d="M377.765,218.926c-8.999-37.091-22.498-53.911-32.216-61.488c-10.843-8.445-23.467-10.851-36.498-6.977
			c-17.451,5.211-27.717,17.155-30.498,35.506c-2.188,14.429,0.344,31.404,3,49.364c3.75,25.146,7.609,51.153-0.344,73.011
			c-2,5.531,0.844,11.656,6.375,13.672c1.219,0.438,2.438,0.641,3.656,0.641c4.359,0,8.438-2.703,10.03-7.016
			c9.78-26.951,5.328-56.965,1.391-83.44c-5.827-39.169-6.327-55.684,12.483-61.293c6.406-1.906,11.906-0.836,17.296,3.367
			c21.983,17.108,33.514,76.448,31.607,121.616c-0.249,5.875,4.328,10.844,10.218,11.094c5.875,0.25,10.859-4.312,11.094-10.203
			C386.421,271.579,383.671,243.199,377.765,218.926z"/>
	</g>
</g>
<g>
	<g>
		<path d="M337.894,209.507c-1.86-5.587-7.89-8.626-13.484-6.775c-5.594,1.852-8.625,7.883-6.781,13.476
			c0.156,0.469,15.358,47.285,4.953,93.432c-1.312,5.75,2.312,11.453,8.047,12.75c0.797,0.188,1.577,0.266,2.358,0.266
			c4.875,0,9.28-3.359,10.39-8.328C355.08,262.478,338.597,211.647,337.894,209.507z"/>
	</g>
</g>
<g>
	<g>
		<path d="M447.886,174.829c-2.422-16.851-8.578-34.186-17.796-50.122c-10.171-17.601-23.702-32.568-39.106-43.271
			c-26.53-18.437-58.341-24.319-91.994-17.022c-28.788,6.249-51.989,16.171-68.965,29.49
			c-15.366,12.054-26.186,27.295-32.162,45.294c-10.694,32.186-4.375,68.434,0.703,97.564c1.516,8.671,2.938,16.866,3.828,24.255
			c0.648,5.422,5.25,9.406,10.577,9.406c0.422,0,0.844-0.031,1.273-0.078c5.851-0.703,10.031-6.008,9.328-11.857
			c-0.953-7.961-2.43-16.429-3.992-25.39c-4.906-28.17-10.468-60.09-1.477-87.182c10.147-30.545,38.083-50.38,85.401-60.653
			c28.108-6.101,53.45-1.491,75.292,13.688c30.045,20.873,44.623,55.551,47.967,78.901c0.844,5.835,6.249,9.882,12.061,9.046
			C444.668,186.061,448.715,180.655,447.886,174.829z"/>
	</g>
</g>
<g>
</g>
<g>
</g>
<g>
</g>
<g>
</g>
<g>
</g>
<g>
</g>
<g>
</g>
<g>
</g>
<g>
</g>
<g>
</g>
<g>
</g>
<g>
</g>
<g>
</g>
<g>
</g>
<g>
</g>
</svg>
