<?xml version="1.0" encoding="iso-8859-1"?>
<!-- Generator: Adobe Illustrator 19.0.0, SVG Export Plug-In . SVG Version: 6.00 Build 0)  -->
<svg version="1.1" id="Layer_1" xmlns="http://www.w3.org/2000/svg" xmlns:xlink="http://www.w3.org/1999/xlink" x="0px" y="0px"
	 viewBox="0 0 511.936 511.936" style="enable-background:new 0 0 511.936 511.936;" xml:space="preserve">
<g>
	<g>
		<path d="M390.506,392.469l-13.483-215.808c-2.304-36.928-31.509-65.984-67.712-69.333V53.333
			c0-15.232-10.709-27.968-25.003-31.168l-8.128-16.277C274.367,2.283,270.698,0,266.645,0h-21.333
			c-4.032,0-7.723,2.283-9.557,5.909l-8.107,16.256c-14.272,3.221-25.003,15.957-25.003,31.168v53.995
			c-36.203,3.328-65.429,32.384-67.733,69.333l-13.483,215.808c-2.709,43.392,24.213,83.307,64.875,96.832l47.147,18.859
			c7.531,2.496,15.403,3.776,23.403,3.776c8.192,0,16.491-1.323,24.576-4.075l44.011-18.475
			C366.485,475.541,393.215,435.733,390.506,392.469z M223.978,53.333c0-5.867,4.779-10.667,10.667-10.667h42.667
			c5.888,0,10.667,4.8,10.667,10.667v2.347l-64,16V53.333z M223.978,93.675l64-16v28.992h-64V93.675z M256.042,288.747L262.826,384
			h-13.675l6.805-95.253c0.427-5.867-4.011-10.965-9.877-11.392c-6.037-0.533-10.987,4.032-11.392,9.899L227.775,384h-23.019
			l38.784-213.333h24.896L307.221,384h-23.019l-6.891-96.747c-0.427-5.888-5.44-10.496-11.392-9.899
			C260.053,277.76,255.615,282.88,256.042,288.747z M245.311,149.333V128h21.333v21.333H245.311z M318.314,469.291
			c-0.256,0.085-0.491,0.192-0.747,0.299l-43.648,18.325c-10.88,3.648-22.827,3.669-33.131,0.235l-47.147-18.859
			c-32.107-10.688-53.035-41.728-50.923-75.477l13.483-215.808C157.973,149.952,181.333,128,209.429,128c0,0,3.563,0,3.883,0h10.667
			v31.019l-42.496,233.728c-0.064,0.341,0.043,0.661,0.021,0.981c-0.021,0.341-0.192,0.619-0.192,0.939
			c0,0.384,0.192,0.725,0.213,1.109c0.085,0.747,0.213,1.451,0.427,2.155c0.213,0.619,0.448,1.195,0.768,1.771
			c0.341,0.619,0.704,1.195,1.173,1.749c0.427,0.512,0.875,0.939,1.387,1.365c0.533,0.448,1.088,0.811,1.707,1.152
			c0.619,0.341,1.259,0.576,1.941,0.768c0.384,0.107,0.704,0.363,1.109,0.448c0.64,0.107,1.28,0.171,1.92,0.171h34.261l-2.24,31.253
			c-0.427,5.867,4.011,10.965,9.877,11.392c0.256,0.021,0.512,0.021,0.768,0.021c5.547,0,10.24-4.288,10.624-9.92l2.347-32.747
			h16.747l2.347,32.747c0.405,5.611,5.077,9.899,10.624,9.899c0.235,0,0.491,0,0.768-0.021c5.867-0.405,10.304-5.525,9.877-11.392
			l-2.24-31.253h34.261c0.619,0,1.259-0.064,1.92-0.171c0.405-0.064,0.725-0.32,1.109-0.448c0.683-0.213,1.323-0.448,1.941-0.768
			c0.619-0.341,1.173-0.704,1.707-1.152c0.512-0.427,0.96-0.853,1.387-1.365c0.469-0.555,0.832-1.109,1.173-1.749
			c0.32-0.576,0.555-1.131,0.768-1.771c0.235-0.704,0.363-1.408,0.427-2.155c0.043-0.384,0.213-0.725,0.213-1.109
			c0-0.32-0.149-0.597-0.192-0.939c-0.021-0.341,0.085-0.661,0.021-0.981l-42.475-233.707V128h10.667c0.32,0,3.883,0,3.883,0
			c28.096,0,51.477,21.973,53.227,50.005l13.483,215.808C371.37,427.563,350.421,458.603,318.314,469.291z"/>
	</g>
</g>
<g>
</g>
<g>
</g>
<g>
</g>
<g>
</g>
<g>
</g>
<g>
</g>
<g>
</g>
<g>
</g>
<g>
</g>
<g>
</g>
<g>
</g>
<g>
</g>
<g>
</g>
<g>
</g>
<g>
</g>
</svg>
