<?xml version="1.0" encoding="iso-8859-1"?>
<!-- Generator: Adobe Illustrator 19.0.0, SVG Export Plug-In . SVG Version: 6.00 Build 0)  -->
<svg version="1.1" id="Layer_1" xmlns="http://www.w3.org/2000/svg" xmlns:xlink="http://www.w3.org/1999/xlink" x="0px" y="0px"
	 viewBox="0 0 512.001 512.001" style="enable-background:new 0 0 512.001 512.001;" xml:space="preserve">
<g>
	<g>
		<path d="M512.001,373.32c0-5.891-4.781-10.672-10.672-10.672H399.397c-32.045-13.467-41.075-23.201-43.575-28.061
			c-0.094-0.203-0.172-0.406-0.266-0.609l-0.094-13.982h145.865c5.891,0,10.672-4.781,10.672-10.672s-4.781-10.672-10.672-10.672
			h-146.02l-0.016-1.641c9.358-12.514,17.607-26.342,24.014-41.02h122.023c5.891,0,10.672-4.773,10.672-10.664
			c0-5.89-4.781-10.671-10.672-10.671H387.102c4.078-13.812,6.422-28.139,6.516-42.661h107.711c5.891,0,10.672-4.781,10.672-10.672
			c0-5.89-4.781-10.663-10.672-10.663H392.82c-0.75-16.343-1.516-30.373-2.719-42.669h111.227v0.001
			c5.891,0,10.672-4.773,10.672-10.664c0-5.89-4.781-10.663-10.672-10.663H387.242c-3.078-16.968-7.953-30.311-16.249-42.669
			h130.335c5.891,0,10.672-4.773,10.672-10.664c0-5.89-4.781-10.663-10.672-10.663H352.4c-4.266-3.992-9-8.03-14.28-12.233
			c-28.89-22.976-63.293-30.42-95.744-30.42c-59.715,0-112.837,25.201-112.837,25.201l22.842,16.015c0,0-0.719,0.469-1.984,1.438
			H10.671C4.781,42.669,0,47.443,0,53.332c0,5.891,4.781,10.664,10.671,10.664h117.977c-8.562,10.366-18.03,24.467-25.827,42.669
			h-92.15C4.781,106.665,0,111.438,0,117.328c0,5.891,4.781,10.664,10.671,10.664h84.463c-3.734,12.687-6.562,26.873-7.906,42.669
			H10.671C4.781,170.661,0,175.435,0,181.324c0,5.891,4.781,10.672,10.671,10.672H86.37c0.031,13.241,1.078,27.451,3.391,42.661
			h-79.09C4.781,234.657,0,239.438,0,245.328c0,5.891,4.781,10.664,10.671,10.664h122.211c6.406,14.67,14.64,28.506,23.999,41.004
			l-0.016,1.656H10.671C4.781,298.652,0,303.434,0,309.324s4.781,10.672,10.671,10.672h146.038l-0.094,13.982
			c-0.094,0.203-0.172,0.406-0.266,0.609c-2.5,4.859-11.515,14.594-43.56,28.061H10.671C4.781,362.648,0,367.43,0,373.32
			s4.781,10.672,10.671,10.672h49.497c-2.046,0.609-4.187,1.219-6.484,1.828l-1.812,0.531
			c-19.093,6.311-33.232,21.654-38.279,40.293h-2.921C4.781,426.645,0,431.426,0,437.316s4.781,10.672,10.671,10.672h0.891v42.652
			h-0.891C4.781,490.641,0,495.422,0,501.328c0,5.875,4.781,10.656,10.671,10.656h0.891h106.103h276.843H500.61h0.719
			c5.891,0,10.672-4.781,10.672-10.656c0-5.906-4.781-10.688-10.672-10.688h-0.719v-42.652h0.719
			c5.891,0,10.672-4.781,10.672-10.672s-4.781-10.672-10.672-10.672h-2.749c-5.047-18.639-19.187-33.982-38.279-40.293l-1.812-0.531
			c-2.297-0.609-4.438-1.219-6.484-1.828h49.324C507.22,383.992,512.001,379.211,512.001,373.32z M106.995,394.647v95.994H32.904
			v-48.762c0-15.906,10.156-29.982,25.327-35.17l1.188-0.344c19.952-5.375,30.967-10.641,39.81-14.875
			c3.421-1.641,6.39-3.062,9.265-4.154c0.781-0.297,1.578-0.594,2.391-0.906C108.51,388.381,106.995,391.334,106.995,394.647z
			 M371.056,170.669c0.828,6.609,1.249,13.405,1.249,20.366c0,7.319-0.702,14.788-2.062,22.295h-26.952
			c6.641-5.616,10.625-13.062,10.625-21.326c0-8.273-3.984-15.71-10.625-21.335H371.056z M226.111,149.334
			c29.404-13.491,61.605-23.068,94.541-23.076c3.25,0,6.5,0.094,9.766,0.289l22.717,22.787H226.111z M332.589,192.005
			c0,4.343-8.312,10.663-21.343,10.663c-13.014,0-21.326-6.32-21.326-10.663c0-4.352,8.312-10.672,21.326-10.672
			C324.277,181.333,332.589,187.653,332.589,192.005z M279.217,213.331h-42.591c6.641-5.616,10.625-13.062,10.625-21.326
			c0-8.273-3.984-15.71-10.625-21.335h42.591c-6.64,5.625-10.624,13.062-10.624,21.335
			C268.593,200.269,272.577,207.714,279.217,213.331z M95.713,234.657c5.265-2.836,13.843-9.444,25.108-18.077
			c1.062,6.102,2.5,12.14,4.25,18.077H95.713z M107.853,199.635c-0.562-16.726,0.578-32.709,3.437-47.763
			c3.656-19.226,10.093-37.052,19.155-52.973c15.03-26.437,32.561-39.061,33.763-39.912l26.514-16.944l-15.233-10.671
			c18.515-5.226,42.217-10.022,66.887-10.022c33.217,0,60.965,8.672,82.464,25.78c11.608,9.233,19.779,17.155,25.701,24.92
			c5.609,7.367,9.547,15.108,12.375,24.358c3.218,10.507,5.108,23.217,6.437,38.989l-23.827-23.912l-5.733-5.758l-8.124-0.477
			c-3.625-0.219-7.328-0.32-11.016-0.32c-21.295,0-43.686,3.617-66.559,10.75c-19.077,5.952-39.029,14.522-59.293,25.475
			C159.006,160.513,128.352,183.918,107.853,199.635z M225.924,192.004c0,4.343-8.312,10.663-21.343,10.663
			c-13.015,0-21.327-6.32-21.327-10.663c0-4.352,8.312-10.672,21.327-10.672C217.612,181.332,225.924,187.652,225.924,192.004z
			 M140.367,201.784c6.891-5.102,14.343-10.468,22.312-15.905c-0.484,1.977-0.75,4.023-0.75,6.125
			c-0.001,8.265,3.983,15.71,10.623,21.326h-30.623C141.226,209.464,140.71,205.612,140.367,201.784z M147.46,234.667h217.252
			c-7.312,21.498-19.671,42.738-36.247,61.627c-12.25,13.953-25.968,25.641-39.686,33.764
			c-12.234,7.266-23.842,11.266-32.686,11.266c-8.843,0-20.452-4-32.701-11.266c-13.702-8.123-27.436-19.811-39.669-33.779
			C167.146,277.406,154.772,256.165,147.46,234.667z M352.336,361.398c-8.797,7-22.045,15.844-39.404,22.594H203.597
			c-7.89-3.188-15.484-7.078-22.78-11.719c-7.5-4.75-13.421-9.562-17.749-13.469c5.281-4.451,9.577-9.264,12.233-14.451
			c0.391-0.766,0.672-1.391,0.828-1.766l1.781-3.938l0.031-4.531l0.094-12.779c25.686,25.404,55.043,41.309,78.058,41.309
			c22.998,0,52.355-15.889,78.042-41.293l0.094,12.764l0.031,4.531l1.781,3.938c0.141,0.344,0.422,1,0.812,1.734
			C340.04,350.525,345.54,356.226,352.336,361.398z M117.664,383.992c-0.234,0-0.469,0.016-0.703,0.031
			c9.094-3.671,18.874-8,27.905-13c3.671,3.594,8.75,8.156,15.249,12.969H117.664z M383.852,490.641H128.336v-85.322h255.516
			V490.641z M394.508,383.992h-36.686c5.484-3.875,10.046-7.594,13.624-10.766c7.827,4.079,16.046,7.672,23.781,10.797
			C394.977,384.008,394.758,383.992,394.508,383.992z M452.753,406.365l1.188,0.344c15.17,5.188,25.326,19.264,25.326,35.17v48.762
			h-74.09v-95.994c0-3.312-1.515-6.266-3.89-8.217c0.812,0.312,1.625,0.625,2.406,0.906c2.874,1.092,5.827,2.514,9.249,4.154
			C421.801,395.724,432.8,400.99,452.753,406.365z"/>
	</g>
</g>
<g>
	<g>
		<path d="M185.846,447.802l13.874-13.875c4.158-4.172,4.158-10.938,0.002-15.092c-4.171-4.156-10.921-4.156-15.093,0
			l-13.874,13.873l-13.875-13.873c-4.171-4.156-10.921-4.156-15.093,0c-4.156,4.154-4.156,10.92,0,15.092l13.89,13.875
			l-13.718,13.701c-4.156,4.172-4.156,10.922,0,15.078c2.094,2.094,4.812,3.125,7.546,3.125s5.469-1.031,7.546-3.125l13.703-13.703
			l13.702,13.703c2.094,2.094,4.812,3.125,7.546,3.125s5.453-1.031,7.546-3.125c4.156-4.156,4.156-10.906,0-15.078L185.846,447.802z
			"/>
	</g>
</g>
<g>
	<g>
		<path d="M356.51,447.802l13.874-13.875c4.155-4.172,4.155-10.938,0-15.092c-4.172-4.156-10.921-4.156-15.093,0l-13.875,13.873
			l-13.873-13.873c-4.172-4.156-10.922-4.156-15.094,0c-4.156,4.154-4.156,10.92,0,15.092l13.891,13.875l-13.703,13.701
			c-4.172,4.172-4.172,10.922,0,15.078c2.078,2.094,4.812,3.125,7.531,3.125c2.734,0,5.469-1.031,7.547-3.125l13.701-13.703
			l13.703,13.703c2.078,2.094,4.812,3.125,7.547,3.125c2.733,0,5.452-1.031,7.546-3.125c4.155-4.156,4.155-10.906,0-15.078
			L356.51,447.802z"/>
	</g>
</g>
<g>
	<g>
		<path d="M271.17,447.802l13.874-13.875c4.173-4.172,4.173-10.938,0.001-15.092c-4.156-4.156-10.905-4.156-15.077,0l-13.874,13.873
			l-13.89-13.873c-4.156-4.156-10.921-4.156-15.077,0c-4.172,4.154-4.172,10.92,0,15.092l13.874,13.875l-13.702,13.701
			c-4.172,4.172-4.172,10.922,0,15.078c2.078,2.094,4.812,3.125,7.546,3.125c2.718,0,5.453-1.031,7.546-3.125l13.702-13.703
			l13.702,13.703c2.078,2.094,4.812,3.125,7.53,3.125c2.734,0,5.469-1.031,7.547-3.125c4.172-4.156,4.172-10.906,0-15.078
			L271.17,447.802z"/>
	</g>
</g>
<g>
</g>
<g>
</g>
<g>
</g>
<g>
</g>
<g>
</g>
<g>
</g>
<g>
</g>
<g>
</g>
<g>
</g>
<g>
</g>
<g>
</g>
<g>
</g>
<g>
</g>
<g>
</g>
<g>
</g>
</svg>
