<?xml version="1.0" encoding="iso-8859-1"?>
<!-- Generator: Adobe Illustrator 19.0.0, SVG Export Plug-In . SVG Version: 6.00 Build 0)  -->
<svg version="1.1" id="Layer_1" xmlns="http://www.w3.org/2000/svg" xmlns:xlink="http://www.w3.org/1999/xlink" x="0px" y="0px"
	 viewBox="0 0 511.967 511.967" style="enable-background:new 0 0 511.967 511.967;" xml:space="preserve">
<g>
	<g>
		<path d="M489.972,201.26c-3.578-3.578-9.172-4.148-13.406-1.367l-29.17,19.171l-0.109-0.102
			c-3.578-3.578-9.172-4.148-13.405-1.375l-29.171,19.179l-0.109-0.102c-1.999-2-4.718-3.125-7.546-3.125
			c-2.827,0-5.53,1.125-7.53,3.125l-22.765,22.765c-2.094-1.469-4.655-2.148-7.218-1.883c-3.203,0.32-6.078,2.07-7.828,4.748
			l-17.218,26.188c-1.922-0.781-4.046-1.016-6.14-0.594c-3.094,0.609-5.719,2.547-7.234,5.248c-0.109-1.92-0.734-3.811-1.859-5.451
			c-1.375-2.016-3.391-3.469-5.672-4.172l20.108-41.778c1.594-3.305,1.375-7.195-0.578-10.305c-1.952-3.102-5.358-4.991-9.03-4.991
			h-0.078l10.452-43.443c0.766-3.179,0.031-6.53-2-9.101c-2.015-2.562-5.108-4.062-8.374-4.062h-2.953v-45.942
			c0-5.898-4.781-10.671-10.672-10.671h-5.218l-11.656-48.443c-1.156-4.789-5.438-8.164-10.359-8.164h-5.219L266.361,8.171
			C265.205,3.375,260.908,0,255.986,0c-4.937,0-9.218,3.375-10.374,8.171l-11.656,48.442h-5.219c-4.921,0-9.218,3.375-10.374,8.164
			l-11.656,48.442h-5.218c-5.89,0-10.656,4.772-10.656,10.671v45.942h-2.953c-3.281,0-6.359,1.5-8.39,4.062
			c-2.016,2.57-2.75,5.922-1.984,9.101l10.453,43.443h-0.078c-3.672,0-7.094,1.89-9.031,4.991c-1.953,3.109-2.172,7-0.594,10.305
			l20.124,41.778c-2.281,0.703-4.296,2.156-5.671,4.172c-1.125,1.641-1.766,3.531-1.859,5.451c-1.516-2.701-4.156-4.639-7.234-5.248
			c-2.094-0.422-4.234-0.188-6.14,0.594l-17.218-26.188c-1.766-2.678-4.64-4.428-7.828-4.748c-2.578-0.266-5.14,0.414-7.218,1.883
			l-22.764-22.765c-2-2-4.719-3.125-7.546-3.125c-2.828,0-5.531,1.125-7.531,3.125l-0.109,0.102l-29.186-19.179
			c-4.218-2.773-9.812-2.203-13.39,1.375l-0.109,0.102l-29.17-19.171c-4.234-2.781-9.828-2.211-13.406,1.367
			s-4.156,9.172-1.375,13.397l19.187,29.187l-0.109,0.102c-3.578,3.569-4.156,9.171-1.375,13.397l19.187,29.17l-0.109,0.125
			c-4.172,4.156-4.172,10.904,0,15.061l22.764,22.779c-1.469,2.078-2.156,4.641-1.891,7.219c0.328,3.188,2.078,6.062,4.75,7.812
			l26.201,17.217c-0.797,1.922-1.016,4.062-0.609,6.156c0.703,3.5,3.094,6.406,6.375,7.766l29.998,12.438
			c-0.188,1.109-0.188,2.234,0,3.359c0.547,3.373,2.672,6.295,5.734,7.842l1.094,0.531c-1.516,0.344-2.969,1-4.234,1.969
			c-1.328,1.016-2.375,2.312-3.094,3.781h-13.046c-5.125,0-9.39,3.594-10.437,8.406l-14.952,3.969
			c-3.922,1.031-6.843,4.188-7.687,8.029l-14.952,3.969c-4.672,1.234-7.937,5.469-7.937,10.312c0,4.828,3.265,9.062,7.937,10.312
			l14.952,3.953c0.844,3.857,3.765,6.998,7.687,8.045l14.952,3.953c1.047,4.797,5.312,8.391,10.437,8.391h13.046
			c0.719,1.469,1.766,2.781,3.094,3.797c1.875,1.453,4.171,2.219,6.5,2.219c0.906,0,1.828-0.109,2.734-0.359l11.984-3.172
			c0.688,0.766,1.516,1.453,2.422,2c3.218,1.922,7.187,2.047,10.499,0.297l12.015-6.375c2.937,1.828,6.593,2.125,9.796,0.75
			l41.779-17.717v49.965c0,5.875,4.781,10.656,10.671,10.656s10.671-4.781,10.671-10.656v-49.965l41.777,17.717
			c3.188,1.375,6.844,1.062,9.797-0.75l12.016,6.375c3.296,1.75,7.28,1.625,10.482-0.297c0.922-0.547,1.734-1.234,2.438-2.016
			l11.984,3.188c0.906,0.25,1.812,0.359,2.734,0.359c2.328,0,4.609-0.766,6.499-2.219c1.328-1.016,2.375-2.328,3.094-3.797h13.046
			c5.109,0,9.391-3.594,10.422-8.391l14.951-3.953c3.938-1.047,6.859-4.188,7.703-8.045l14.952-3.953
			c4.672-1.25,7.937-5.484,7.937-10.312c0-4.844-3.265-9.078-7.937-10.312l-14.952-3.969c-0.844-3.842-3.766-6.998-7.703-8.029
			l-14.951-3.969c-1.031-4.812-5.312-8.406-10.422-8.406h-13.046c-0.719-1.469-1.766-2.766-3.094-3.781
			c-1.265-0.969-2.718-1.625-4.233-1.969l1.078-0.531c3.062-1.547,5.202-4.469,5.749-7.842c0.172-1.125,0.172-2.25,0-3.359
			l29.982-12.438c3.297-1.359,5.688-4.266,6.391-7.766c0.406-2.094,0.188-4.234-0.609-6.156l26.186-17.217
			c2.688-1.75,4.438-4.625,4.766-7.812c0.25-2.578-0.422-5.141-1.891-7.219l22.765-22.779c4.156-4.156,4.156-10.904,0-15.076
			l-0.109-0.109l19.186-29.17c2.766-4.227,2.203-9.828-1.375-13.397l-0.109-0.102l19.188-29.187
			C494.112,210.432,493.549,204.838,489.972,201.26z M205.974,444.879c-0.344-0.281-0.719-0.531-1.094-0.766
			c-3.218-1.922-7.203-2.047-10.499-0.297l-12.015,6.375c-2.484-1.531-5.515-2-8.375-1.25l-11.983,3.186
			c-1.938-2.186-4.781-3.529-7.921-3.529h-13.046c-1.328-2.734-3.796-4.844-6.859-5.656l-14.968-3.969
			c-0.281-1.344-0.844-2.609-1.594-3.719c0.75-1.125,1.312-2.391,1.594-3.75l14.968-3.953c3.062-0.812,5.531-2.922,6.859-5.641
			h13.046c3.14,0,5.968-1.375,7.921-3.529l11.983,3.17c2.859,0.75,5.891,0.297,8.375-1.266l12.015,6.375
			c3.312,1.75,7.281,1.656,10.499-0.281c0.375-0.234,0.75-0.484,1.094-0.75l22.686,9.625L205.974,444.879z M172.102,381.132
			c0.391-1.5,0.438-3.125,0.125-4.719c-0.687-3.484-3.078-6.406-6.375-7.766l-29.983-12.436c0.141-0.889,0.172-1.826,0.078-2.732
			c-0.328-3.203-2.078-6.078-4.765-7.844l-26.186-17.203c0.531-1.281,0.812-2.672,0.812-4.078c0-2.811-1.125-5.529-3.125-7.529
			l-22.764-22.766c2.484-3.529,2.625-8.295,0.188-11.982L60.92,252.884l0.109-0.102c2.562-2.562,3.578-6.164,2.938-9.554
			c3.391,0.648,6.984-0.375,9.562-2.938l0.094-0.102l29.186,19.179c3.703,2.436,8.468,2.295,11.984-0.188l22.764,22.771
			c3.14,3.125,7.75,3.906,11.608,2.312l17.218,26.186c1.75,2.688,4.625,4.438,7.828,4.75c0.922,0.094,1.844,0.062,2.734-0.062
			l12.437,29.982c1.375,3.297,4.281,5.672,7.781,6.375c1.594,0.312,3.203,0.266,4.719-0.141l30.107,59.887L172.102,381.132z
			 M255.988,405.569L216.973,304.23c2.938-0.531,5.562-2.266,7.171-4.844c1.953-3.094,2.172-7,0.578-10.295l-20.108-41.787
			c2.062-0.625,3.906-1.867,5.266-3.593c2.016-2.57,2.75-5.922,1.984-9.102l-10.453-43.45h0.079v0.001
			c5.89,0,10.671-4.773,10.671-10.664v-45.942h2.953c4.937,0,9.218-3.374,10.375-8.171l11.655-48.442h5.219
			c4.922,0,9.219-3.375,10.374-8.172l3.25-13.515l3.25,13.515c1.156,4.797,5.438,8.172,10.374,8.172h5.219l11.655,48.442
			c1.156,4.797,5.438,8.171,10.359,8.171h2.969v45.942c0,5.891,4.765,10.664,10.654,10.664h0.094l-10.452,43.45
			c-0.765,3.18-0.031,6.531,1.984,9.102c1.359,1.726,3.203,2.968,5.25,3.593l-20.108,41.787c-1.578,3.295-1.359,7.201,0.578,10.295
			c1.625,2.578,4.25,4.312,7.188,4.844L255.988,405.569z M370.932,421.91L370.932,421.91c1.327,2.719,3.78,4.828,6.858,5.641
			l14.953,3.953c0.297,1.359,0.844,2.625,1.609,3.75c-0.766,1.109-1.312,2.375-1.609,3.719l-14.953,3.969
			c-3.078,0.812-5.531,2.922-6.858,5.656h-13.046c-3.156,0-5.984,1.344-7.938,3.529l-11.983-3.186
			c-0.891-0.234-1.812-0.344-2.734-0.344c-1.969,0-3.921,0.531-5.624,1.594l-12.016-6.375c-3.312-1.75-7.297-1.625-10.499,0.297
			c-0.375,0.234-0.75,0.484-1.094,0.766l-22.702-9.625l22.702-9.625c0.344,0.266,0.719,0.516,1.094,0.75
			c3.202,1.938,7.187,2.031,10.499,0.281l12.016-6.375c2.483,1.562,5.515,2.016,8.358,1.266l11.983-3.17
			c1.953,2.154,4.781,3.529,7.938,3.529H370.932z M432.053,294.058l-22.765,22.766c-3.141,3.125-3.906,7.748-2.328,11.607
			l-26.186,17.203c-2.672,1.766-4.422,4.641-4.75,7.844c-0.094,0.906-0.062,1.844,0.078,2.732l-29.982,12.438
			c-3.297,1.359-5.688,4.281-6.374,7.766c-0.328,1.594-0.266,3.219,0.125,4.719l-59.888,30.107l30.107-59.871
			c1.516,0.391,3.125,0.438,4.719,0.125c3.484-0.703,6.406-3.078,7.766-6.375l12.437-29.982c0.906,0.125,1.828,0.156,2.75,0.062
			c3.187-0.312,6.062-2.062,7.827-4.75l17.219-26.186c3.858,1.594,8.468,0.812,11.607-2.312l22.765-22.771
			c3.516,2.482,8.28,2.623,11.983,0.188l29.186-19.179l0.094,0.102c2.562,2.57,6.172,3.586,9.562,2.938
			c-0.656,3.39,0.375,6.991,2.938,9.554l0.094,0.102l-19.171,29.193C429.428,285.763,429.569,290.529,432.053,294.058z"/>
	</g>
</g>
<g>
</g>
<g>
</g>
<g>
</g>
<g>
</g>
<g>
</g>
<g>
</g>
<g>
</g>
<g>
</g>
<g>
</g>
<g>
</g>
<g>
</g>
<g>
</g>
<g>
</g>
<g>
</g>
<g>
</g>
</svg>
