<?xml version="1.0" encoding="iso-8859-1"?>
<!-- Generator: Adobe Illustrator 19.0.0, SVG Export Plug-In . SVG Version: 6.00 Build 0)  -->
<svg version="1.1" id="Capa_1" xmlns="http://www.w3.org/2000/svg" xmlns:xlink="http://www.w3.org/1999/xlink" x="0px" y="0px"
	 viewBox="0 0 512.011 512.011" style="enable-background:new 0 0 512.011 512.011;" xml:space="preserve">
<g transform="translate(0 -1)">
	<g>
		<g>
			<path d="M285.872,316.744c11.782,0,21.333-9.551,21.333-21.333s-9.551-21.333-21.333-21.333
				c-11.782,0-21.333,9.551-21.333,21.333C264.552,307.187,274.096,316.73,285.872,316.744z M285.872,291.144
				c2.356,0,4.267,1.91,4.267,4.267c0,2.356-1.91,4.267-4.267,4.267c-2.356,0-4.267-1.91-4.267-4.267
				C281.607,293.055,283.516,291.145,285.872,291.144z"/>
			<path d="M461.505,386.444c-2.823-2.79-6.032-5.16-9.529-7.038c0.156-0.97,0.255-1.948,0.296-2.929
				c-0.033-10.813-6.868-20.435-17.067-24.028v-35.706c-0.028-23.553-19.114-42.639-42.667-42.667h-51.2v-17.067h17.067
				c17.053-0.023,32.458-10.187,39.189-25.856c25.707-2.534,45.493-23.834,46.128-49.658s-18.08-48.071-43.632-51.865
				C391.464,53.68,325.355-2.528,249.005,1.173C178.401,5.247,120.866,59.333,112.44,129.551
				c-25.688,3.548-44.661,25.752-44.156,51.68s20.325,47.378,46.132,49.924c6.731,15.669,22.136,25.833,39.189,25.856h17.067v17.067
				h-51.2c-23.553,0.028-42.639,19.114-42.667,42.667v35.706c-10.199,3.593-17.033,13.215-17.067,24.028
				c0.041,0.981,0.14,1.959,0.296,2.929c-3.497,1.878-6.706,4.248-9.529,7.038c-9.287,9.279-12.191,23.179-7.396,35.4
				c1.491,4.471,6.325,6.887,10.796,5.396s6.887-6.325,5.396-10.796c-3.659-8.246-0.045-17.903,8.129-21.72
				c9.93,9.808,25.903,9.805,35.828-0.009c8.071,3.916,11.644,13.48,8.118,21.729c-0.965,2.892-0.313,6.08,1.71,8.361
				c2.023,2.282,5.109,3.311,8.096,2.7s5.422-2.769,6.386-5.661c4.795-12.221,1.891-26.121-7.396-35.4
				c-2.823-2.79-6.032-5.16-9.529-7.038c0.156-0.97,0.255-1.948,0.296-2.929c-0.033-10.813-6.868-20.435-17.067-24.028v-35.706
				c0.015-14.132,11.468-25.585,25.6-25.6h51.2v102.4c0.033,10.813,6.868,20.435,17.067,24.027v86.906
				c0,4.713,3.82,8.533,8.533,8.533h25.6c13.482-0.037,26.148-6.468,34.133-17.331c7.985,10.863,20.651,17.294,34.133,17.331h25.6
				c4.713,0,8.533-3.821,8.533-8.533v-86.906c10.199-3.592,17.033-13.214,17.067-24.028v-102.4h51.2
				c14.132,0.015,25.585,11.468,25.6,25.6v35.706c-10.199,3.593-17.033,13.215-17.067,24.028c0.041,0.981,0.14,1.959,0.296,2.929
				c-3.497,1.878-6.706,4.248-9.529,7.037c-9.287,9.279-12.191,23.179-7.396,35.4c0.965,2.892,3.399,5.05,6.386,5.661
				c2.987,0.611,6.073-0.418,8.096-2.7c2.023-2.282,2.674-5.469,1.71-8.361c-3.659-8.246-0.045-17.903,8.129-21.72
				c9.93,9.808,25.903,9.805,35.828-0.009c8.071,3.916,11.644,13.48,8.118,21.729c-0.965,2.892-0.313,6.08,1.71,8.361
				c2.023,2.282,5.109,3.311,8.096,2.7c2.987-0.611,5.422-2.769,6.386-5.661C473.696,409.623,470.792,395.723,461.505,386.444z
				 M401.072,147.289c15.031,3.869,25.553,17.401,25.6,32.922c-0.047,15.521-10.569,29.052-25.6,32.922V147.289z M110.939,149.931
				v63.201c-15.031-3.869-25.553-17.401-25.6-32.922c0.046-15.572,10.633-29.135,25.727-32.961
				C111.05,148.151,110.939,149.027,110.939,149.931z M85.339,385.011c-4.713,0-8.533-3.82-8.533-8.533
				c0.006-4.71,3.823-8.527,8.533-8.533c4.713,0,8.533,3.82,8.533,8.533S90.051,385.011,85.339,385.011z M221.872,495.944h-17.067
				v-25.6h42.667C247.456,484.476,236.004,495.928,221.872,495.944z M247.472,453.277h-42.667v-34.133h42.667V453.277z
				 M307.205,495.944h-17.067c-14.132-0.015-25.585-11.468-25.6-25.6h42.667V495.944z M307.205,453.277h-42.667v-34.133h42.667
				V453.277z M324.272,393.544c-0.006,4.71-3.823,8.527-8.533,8.533H196.272c-4.71-0.006-8.527-3.823-8.533-8.533v-8.533h136.533
				V393.544z M324.272,367.944H187.739v-17.067h136.533V367.944z M324.272,333.811H187.739v-76.8h136.533V333.811z M153.605,239.944
				c-14.132-0.015-25.585-11.468-25.6-25.6v-64.413c-1.148-69.408,52.514-127.435,121.8-131.708c2.092-0.1,4.176-0.15,6.254-0.15
				c70.672,0.032,127.946,57.332,127.946,128.004v68.267c-0.015,14.132-11.468,25.585-25.6,25.6H153.605z M426.672,385.011
				c-4.713,0-8.533-3.82-8.533-8.533s3.82-8.533,8.533-8.533s8.533,3.82,8.533,8.533
				C435.199,381.188,431.382,385.004,426.672,385.011z"/>
			<path d="M256.005,26.611c-56.554,0-102.4,45.846-102.4,102.4c0.065,56.527,45.873,102.335,102.4,102.4
				c56.554,0,102.4-45.846,102.4-102.4S312.559,26.611,256.005,26.611z M256.005,214.344c-47.128,0-85.333-38.205-85.333-85.333
				c0.052-47.107,38.227-85.281,85.333-85.333c47.128,0,85.333,38.205,85.333,85.333S303.134,214.344,256.005,214.344z"/>
			<path d="M230.405,111.944c0-4.713-3.82-8.533-8.533-8.533h-25.6c-4.713,0-8.533,3.82-8.533,8.533s3.82,8.533,8.533,8.533h25.6
				C226.585,120.477,230.405,116.657,230.405,111.944z"/>
			<path d="M315.739,103.411h-25.6c-4.713,0-8.533,3.82-8.533,8.533s3.821,8.533,8.533,8.533h25.6c4.713,0,8.533-3.82,8.533-8.533
				S320.451,103.411,315.739,103.411z"/>
			<path d="M298.672,137.544h-85.333c-4.713,0-8.533,3.82-8.533,8.533c0,28.277,22.923,51.2,51.2,51.2s51.2-22.923,51.2-51.2
				C307.205,141.364,303.385,137.544,298.672,137.544z M256.005,180.21c-15.566,0-29.161-10.529-33.054-25.6h66.108
				C285.166,169.681,271.571,180.21,256.005,180.21z"/>
		</g>
	</g>
</g>
<g>
</g>
<g>
</g>
<g>
</g>
<g>
</g>
<g>
</g>
<g>
</g>
<g>
</g>
<g>
</g>
<g>
</g>
<g>
</g>
<g>
</g>
<g>
</g>
<g>
</g>
<g>
</g>
<g>
</g>
</svg>
