<?xml version="1.0" encoding="iso-8859-1"?>
<!-- Generator: Adobe Illustrator 19.0.0, SVG Export Plug-In . SVG Version: 6.00 Build 0)  -->
<svg version="1.1" id="Layer_1" xmlns="http://www.w3.org/2000/svg" xmlns:xlink="http://www.w3.org/1999/xlink" x="0px" y="0px"
	 viewBox="0 0 512 512" style="enable-background:new 0 0 512 512;" xml:space="preserve">
<g>
	<g>
		<g>
			<path d="M426.667,191.993c11.776,0,21.333-9.557,21.333-21.333s-9.557-21.333-21.333-21.333s-21.333,9.557-21.333,21.333
				S414.891,191.993,426.667,191.993z"/>
			<path d="M352,63.993h-19.819l150.763-43.072c5.675-1.621,8.96-7.531,7.339-13.184c-1.621-5.675-7.531-8.896-13.184-7.339
				L257.088,63.246L154.112,11.769c-5.269-2.624-11.669-0.491-14.315,4.779c-2.624,5.269-0.491,11.669,4.779,14.315l66.261,33.131
				H160c-88.235,0-160,71.765-160,160v85.333c0,68.907,43.84,127.595,105.045,150.08l-18.581,37.141
				c-2.624,5.269-0.491,11.669,4.779,14.315c1.536,0.768,3.157,1.131,4.757,1.131c3.904,0,7.659-2.155,9.557-5.909l20.267-40.512
				c11.029,2.389,22.443,3.755,34.176,3.755h192c11.733,0,23.147-1.344,34.176-3.755l20.267,40.533
				c1.877,3.733,5.632,5.888,9.557,5.888c1.621,0,3.243-0.363,4.757-1.109c5.269-2.645,7.424-9.045,4.779-14.315l-18.581-37.163
				C468.139,436.921,512,378.233,512,309.326v-85.333C512,135.758,440.235,63.993,352,63.993z M490.667,309.326
				c0,76.459-62.208,138.667-138.667,138.667H160c-76.459,0-138.667-62.208-138.667-138.667v-85.333
				c0-76.459,62.208-138.667,138.667-138.667h192c76.459,0,138.667,62.208,138.667,138.667V309.326z"/>
			<path d="M245.333,106.66h-64c-76.459,0-138.667,62.208-138.667,138.667v42.667c0,76.459,62.208,138.667,138.667,138.667h64
				C321.792,426.66,384,364.452,384,287.993v-42.667C384,168.868,321.792,106.66,245.333,106.66z M362.667,287.993
				c0,64.704-52.629,117.333-117.333,117.333h-64C116.629,405.326,64,352.697,64,287.993v-42.667
				c0-64.704,52.629-117.333,117.333-117.333h64c64.704,0,117.333,52.629,117.333,117.333V287.993z"/>
			<path d="M405.333,245.326c0,5.888,4.779,10.667,10.667,10.667h42.667c5.888,0,10.667-4.779,10.667-10.667
				s-4.779-10.667-10.667-10.667H416C410.112,234.66,405.333,239.438,405.333,245.326z"/>
			<path d="M458.667,277.326H416c-5.888,0-10.667,4.779-10.667,10.667S410.112,298.66,416,298.66h42.667
				c5.888,0,10.667-4.779,10.667-10.667S464.555,277.326,458.667,277.326z"/>
			<path d="M426.667,341.326c-11.776,0-21.333,9.557-21.333,21.333s9.557,21.333,21.333,21.333S448,374.436,448,362.66
				S438.443,341.326,426.667,341.326z"/>
		</g>
	</g>
</g>
<g>
</g>
<g>
</g>
<g>
</g>
<g>
</g>
<g>
</g>
<g>
</g>
<g>
</g>
<g>
</g>
<g>
</g>
<g>
</g>
<g>
</g>
<g>
</g>
<g>
</g>
<g>
</g>
<g>
</g>
</svg>
